<svg width="16" height="16" viewBox="0 0 16 16" fill="none" xmlns="http://www.w3.org/2000/svg">
<g clip-path="url(#clip0_1556_1564)">
<path d="M7.99998 13.3333V14.6667M7.99998 1.33333V2.66667M11.3333 13.3333V14.6667M11.3333 1.33333V2.66667M1.33331 8H2.66665M1.33331 11.3333H2.66665M1.33331 4.66667H2.66665M13.3333 8H14.6666M13.3333 11.3333H14.6666M13.3333 4.66667H14.6666M4.66665 13.3333V14.6667M4.66665 1.33333V2.66667M3.99998 2.66667H12C12.7364 2.66667 13.3333 3.26362 13.3333 4V12C13.3333 12.7364 12.7364 13.3333 12 13.3333H3.99998C3.2636 13.3333 2.66665 12.7364 2.66665 12V4C2.66665 3.26362 3.2636 2.66667 3.99998 2.66667ZM5.99998 5.33333H9.99998C10.3682 5.33333 10.6666 5.63181 10.6666 6V10C10.6666 10.3682 10.3682 10.6667 9.99998 10.6667H5.99998C5.63179 10.6667 5.33331 10.3682 5.33331 10V6C5.33331 5.63181 5.63179 5.33333 5.99998 5.33333Z" stroke="black" stroke-linecap="round" stroke-linejoin="round"/>
</g>
<defs>
<clipPath id="clip0_1556_1564">
<rect width="16" height="16" fill="white"/>
</clipPath>
</defs>
</svg>
