<svg width="15" height="14" viewBox="0 0 15 14" fill="none" xmlns="http://www.w3.org/2000/svg">
<path d="M8.65003 6.04829C8.65003 6.40191 8.50956 6.74105 8.25951 6.9911C8.00946 7.24115 7.67032 7.38163 7.3167 7.38163C6.96308 7.38163 6.62394 7.24115 6.37389 6.9911C6.12384 6.74105 5.98337 6.40191 5.98337 6.04829C5.98337 5.34105 6.26432 4.66277 6.76441 4.16267C7.26451 3.66258 7.94279 3.38162 8.65003 3.38162C9.35728 3.38162 10.0356 3.66258 10.5356 4.16267C11.0357 4.66277 11.3167 5.34105 11.3167 6.04829C11.3167 7.10916 10.8953 8.12657 10.1451 8.87672C9.39498 9.62686 8.37756 10.0483 7.3167 10.0483C6.25583 10.0483 5.23842 9.62686 4.48827 8.87672C3.73813 8.12657 3.3167 7.10916 3.3167 6.04829C3.3167 4.6338 3.8786 3.27725 4.8788 2.27706C5.87899 1.27686 7.23554 0.714958 8.65003 0.714958C10.0645 0.714958 11.4211 1.27686 12.4213 2.27706C13.4215 3.27725 13.9834 4.6338 13.9834 6.04829C13.9834 7.8164 13.281 9.51209 12.0307 10.7623C10.7805 12.0126 9.08481 12.715 7.3167 12.715C5.54859 12.715 3.8529 12.0126 2.60265 10.7623C1.35241 9.51209 0.650032 7.8164 0.650032 6.04829C0.647575 4.31069 1.21423 2.62009 2.26337 1.23496C2.36552 1.08431 2.49743 0.956164 2.65098 0.858427C2.80453 0.76069 2.97647 0.695427 3.1562 0.66666C3.33593 0.637893 3.51965 0.64623 3.69604 0.691158C3.87243 0.736085 4.03775 0.816652 4.18181 0.927895C4.32588 1.03914 4.44565 1.1787 4.53374 1.33799C4.62182 1.49727 4.67636 1.67291 4.69399 1.85407C4.71163 2.03523 4.69198 2.21808 4.63626 2.39137C4.58055 2.56465 4.48994 2.72469 4.37003 2.86162" stroke="black" stroke-width="1.3" stroke-linecap="round" stroke-linejoin="round"/>
</svg>
