<svg width="16" height="16" viewBox="0 0 16 16" fill="none" xmlns="http://www.w3.org/2000/svg">
<path d="M6.84536 14C6.96239 14.2027 7.1307 14.371 7.33339 14.488C7.53607 14.605 7.76599 14.6666 8.00002 14.6666C8.23406 14.6666 8.46398 14.605 8.66666 14.488C8.86935 14.371 9.03766 14.2027 9.15469 14M14.6666 5.33333C14.6666 3.8 14.1333 2.46666 13.3333 1.33333M2.66665 1.33333C1.86665 2.46666 1.33331 3.8 1.33331 5.33333M2.17465 10.2173C2.08756 10.3128 2.03008 10.4315 2.00922 10.559C1.98835 10.6865 2.00499 10.8174 2.05712 10.9356C2.10924 11.0538 2.1946 11.1544 2.30282 11.225C2.41103 11.2956 2.53743 11.3332 2.66665 11.3333H13.3333C13.4625 11.3334 13.5889 11.2959 13.6972 11.2254C13.8055 11.1549 13.891 11.0545 13.9432 10.9363C13.9955 10.8182 14.0123 10.6874 13.9916 10.5599C13.9709 10.4323 13.9136 10.3136 13.8266 10.218C12.94 9.30399 12 8.33266 12 5.33333C12 4.27246 11.5786 3.25505 10.8284 2.5049C10.0783 1.75476 9.06085 1.33333 7.99998 1.33333C6.93911 1.33333 5.9217 1.75476 5.17155 2.5049C4.42141 3.25505 3.99998 4.27246 3.99998 5.33333C3.99998 8.33266 3.05931 9.304 2.17465 10.2173Z" stroke="black" stroke-width="1.3" stroke-linecap="round" stroke-linejoin="round"/>
</svg>
