<svg width="16" height="16" viewBox="0 0 16 16" fill="none" xmlns="http://www.w3.org/2000/svg">
<g clip-path="url(#clip0_2140_1137)">
<path d="M14 7.99995C14.368 7.99995 14.67 7.70061 14.6333 7.33461C14.4796 5.80406 13.8014 4.37375 12.7135 3.28616C11.6257 2.19857 10.1953 1.52064 8.66466 1.36728C8.298 1.33061 7.99933 1.63261 7.99933 2.00061V7.33395C7.99933 7.51076 8.06957 7.68033 8.19459 7.80535C8.31962 7.93038 8.48918 8.00061 8.666 8.00061L14 7.99995Z" stroke="black" stroke-width="1.3" stroke-linecap="round" stroke-linejoin="round"/>
<path d="M14.14 10.5934C13.7159 11.5964 13.0525 12.4802 12.2079 13.1676C11.3633 13.855 10.3632 14.325 9.29496 14.5366C8.22674 14.7481 7.12295 14.6948 6.0801 14.3813C5.03725 14.0677 4.08709 13.5034 3.31268 12.7378C2.53828 11.9722 1.96321 11.0286 1.63776 9.98935C1.31231 8.95015 1.24638 7.84704 1.44574 6.77647C1.64509 5.70591 2.10367 4.70047 2.78137 3.84807C3.45907 2.99567 4.33526 2.32226 5.33334 1.88672" stroke="black" stroke-width="1.3" stroke-linecap="round" stroke-linejoin="round"/>
</g>
<defs>
<clipPath id="clip0_2140_1137">
<rect width="16" height="16" fill="white"/>
</clipPath>
</defs>
</svg>
