<svg width="27" height="20" viewBox="0 0 27 20" fill="none" xmlns="http://www.w3.org/2000/svg">
<g clip-path="url(#clip0_283_1130)">
<path d="M19.3796 14.8459L16.623 12.0894C17.2867 11.2059 17.645 10.1305 17.6437 9.02549C17.6437 6.20303 15.3475 3.90674 12.525 3.90674C9.70254 3.90674 7.40625 6.20303 7.40625 9.02549C7.40625 11.8479 9.70254 14.1442 12.525 14.1442C13.63 14.1454 14.7054 13.7872 15.5889 13.1235L18.3454 15.8801C18.4849 16.0048 18.6669 16.0714 18.854 16.0662C19.0411 16.0609 19.2191 15.9843 19.3514 15.8519C19.4838 15.7196 19.5604 15.5416 19.5657 15.3545C19.5709 15.1674 19.5043 14.9854 19.3796 14.8459ZM8.86875 9.02549C8.86875 8.30235 9.08318 7.59545 9.48494 6.99418C9.88669 6.39292 10.4577 5.92429 11.1258 5.64755C11.7939 5.37082 12.5291 5.29841 13.2383 5.43949C13.9475 5.58057 14.599 5.92879 15.1104 6.44013C15.6217 6.95146 15.9699 7.60294 16.111 8.31219C16.2521 9.02143 16.1797 9.75658 15.9029 10.4247C15.6262 11.0928 15.1576 11.6638 14.5563 12.0655C13.955 12.4673 13.2481 12.6817 12.525 12.6817C11.5557 12.6806 10.6264 12.295 9.94092 11.6096C9.2555 10.9241 8.86991 9.99483 8.86875 9.02549Z" fill="#2D3748"/>
</g>
<defs>
<clipPath id="clip0_283_1130">
<rect width="27" height="20" fill="white"/>
</clipPath>
</defs>
</svg>
