<svg width="16" height="16" viewBox="0 0 16 16" fill="none" xmlns="http://www.w3.org/2000/svg">
<path d="M7.33331 6.84672L4.66665 2.22672M7.33331 9.15331L4.66665 13.7733M7.99998 14.6667V13.3333M7.99998 13.3333C10.9455 13.3333 13.3333 10.9455 13.3333 7.99999C13.3333 5.05448 10.9455 2.66666 7.99998 2.66666M7.99998 13.3333C5.05446 13.3333 2.66665 10.9455 2.66665 7.99999M7.99998 1.33333V2.66666M7.99998 2.66666C5.05446 2.66666 2.66665 5.05448 2.66665 7.99999M9.33331 7.99999H14.6666M9.33331 7.99999C9.33331 8.73637 8.73636 9.33333 7.99998 9.33333C7.2636 9.33333 6.66665 8.73637 6.66665 7.99999C6.66665 7.26361 7.2636 6.66666 7.99998 6.66666C8.73636 6.66666 9.33331 7.26361 9.33331 7.99999ZM11.3333 13.7733L10.6666 12.6199M11.3333 2.22672L10.6666 3.38005M1.33331 7.99999H2.66665M13.7733 11.3333L12.62 10.6667M13.7733 4.66666L12.62 5.33333M2.22662 11.3333L3.37996 10.6667M2.22662 4.66666L3.37996 5.33333" stroke="black" stroke-width="1.3" stroke-linecap="round" stroke-linejoin="round"/>
</svg>
