<?xml version="1.0" encoding="UTF-8"?>
<svg version="1.1" xmlns="http://www.w3.org/2000/svg" viewbox="0 0 460 462">
<path d="M0 0 C0.886875 0.39622559 1.77375 0.79245117 2.6875 1.20068359 C5.41103724 2.43720432 8.11401593 3.70980984 10.8125 5 C11.63081299 5.37874268 12.44912598 5.75748535 13.29223633 6.14770508 C19.9682611 9.45349793 24.57908159 14.00022176 28.4375 20.375 C29.84290434 26.9335536 29.87089838 33.25687579 26.44921875 39.17578125 C22.48741144 44.16274625 17.33455124 47.12739815 11.0625 48.125 C3.32706257 48.42114998 -2.73145297 44.65517553 -9.4375 41.20996094 C-25.9621023 32.76208076 -42.77772366 27.46818 -61 24 C-61.68030273 23.86722656 -62.36060547 23.73445313 -63.06152344 23.59765625 C-107.13538385 15.39572509 -156.01917673 27.48866329 -192.81396484 52.47119141 C-200.42498636 57.79397639 -207.26231411 63.60724684 -214 70 C-215.24231905 71.05081532 -216.49140814 72.0937309 -217.75 73.125 C-249.71637853 100.25711464 -267.31137481 146.382944 -270.8059082 187.13964844 C-272.77059614 216.09346462 -268.61246249 245.29270729 -257 272 C-256.70899414 272.67933594 -256.41798828 273.35867188 -256.11816406 274.05859375 C-244.69866412 300.40199044 -226.94804768 324.56736292 -204 342 C-203.06800781 342.73605469 -202.13601562 343.47210938 -201.17578125 344.23046875 C-169.93681933 368.4625607 -131.37573939 381.48530947 -91.875 381.3125 C-91.20601685 381.31067719 -90.53703369 381.30885437 -89.84777832 381.30697632 C-50.33676988 381.12708251 -12.37101108 368.11759812 19 344 C20.30710937 343.00226563 20.30710937 343.00226563 21.640625 341.984375 C52.32790034 317.75757868 73.69333172 283.56840289 83.3125 245.8125 C83.55508545 244.86366943 83.7976709 243.91483887 84.04760742 242.93725586 C87.35782795 229.25290481 88.37191533 215.82114509 88.3125 201.8125 C88.3126712 201.05052307 88.31284241 200.28854614 88.3130188 199.503479 C88.30352885 189.57334875 87.96645719 179.89257672 85.97973633 170.12426758 C84.68352162 163.65822261 84.57420277 157.23042677 87.6875 151.25 C91.81682443 145.44662513 95.90963818 142.20175624 103 141 C109.69359434 140.7946009 114.88731292 142.66461652 120 147 C132.11137421 160.08917322 130.58161668 189.98001116 130.08886719 206.79003906 C129.13654683 230.47246738 125.08908832 253.69060354 117 276 C116.70754395 276.80743652 116.41508789 277.61487305 116.11376953 278.44677734 C109.76866059 295.66153823 101.75629474 312.09363878 91 327 C90.30390625 327.969375 89.6078125 328.93875 88.890625 329.9375 C76.33490818 347.0346463 62.02765237 363.22926072 45 376 C44.41089844 376.44375977 43.82179688 376.88751953 43.21484375 377.34472656 C4.2013179 406.48664814 -41.86054844 422.52157315 -90.625 422.3125 C-91.5077359 422.31067719 -92.3904718 422.30885437 -93.29995728 422.30697632 C-106.41529806 422.26138899 -119.14070449 421.78402671 -132 419 C-132.85464844 418.82307617 -133.70929688 418.64615234 -134.58984375 418.46386719 C-166.25120863 411.81222341 -195.90074971 399.19836297 -222 380 C-222.59377441 379.56461914 -223.18754883 379.12923828 -223.79931641 378.68066406 C-231.05847244 373.30156266 -237.82881442 367.47101099 -244.4375 361.3125 C-245.41299805 360.40419434 -245.41299805 360.40419434 -246.40820312 359.47753906 C-280.90929262 326.76710221 -302.27328747 281.47108855 -310 235 C-310.22558594 233.72511719 -310.45117188 232.45023438 -310.68359375 231.13671875 C-318.86912367 175.87027882 -303.50101209 116.34609823 -270.375 71.5625 C-268.92869174 69.69893821 -267.47071739 67.8443591 -266 66 C-265.29488281 65.1028125 -264.58976562 64.205625 -263.86328125 63.28125 C-255.74932858 53.14245097 -247.11626771 43.18935957 -237 35 C-235.90102882 34.08855715 -234.80207184 33.17709719 -233.703125 32.265625 C-168.1412016 -21.61922113 -77.84789916 -34.91797527 0 0 Z " fill="#01C951" transform="translate(323,32)"/>
<path d="M0 0 C5.43540392 3.08114713 8.85258495 7.14205097 11.25 12.875 C12.31814684 19.63992997 11.25648276 24.49486754 7.8125 30.4375 C5.25846995 33.43336286 2.47701473 36.18628792 -0.31498718 38.95939636 C-1.57218298 40.22572882 -1.57218298 40.22572882 -2.85477668 41.51764375 C-5.17590064 43.85251719 -7.50355387 46.18050794 -9.83428037 48.50577247 C-12.34896962 51.01778831 -14.85502931 53.53838881 -17.36225891 56.05784607 C-22.27294953 60.98957924 -27.19185547 65.91303816 -32.11396899 70.83336826 C-36.11499687 74.833088 -40.11345783 78.83535628 -44.11011696 82.8394413 C-45.26180769 83.99323125 -46.41349923 85.14702039 -47.56519157 86.30080873 C-48.13843694 86.87509763 -48.71168232 87.44938653 -49.30229876 88.04107813 C-60.14140348 98.89908026 -70.9904619 109.74709487 -81.8424292 120.59223924 C-91.7673601 130.51159424 -101.67902412 140.44408706 -111.58459821 150.38276871 C-121.75891906 160.5908307 -131.9424977 170.78957306 -142.13601428 180.97846776 C-147.8574693 186.69767863 -153.57512514 192.42056936 -159.28299522 198.15334129 C-164.14213571 203.03350022 -169.00990248 207.9048481 -173.88900556 212.76505204 C-176.37733397 215.24422632 -178.86149128 217.72722723 -181.33489609 220.22129822 C-184.02023078 222.92476417 -186.72049522 225.61238144 -189.4250946 228.29655457 C-190.20128086 229.08525867 -190.97746712 229.87396278 -191.77717417 230.68656701 C-197.31177244 236.13186422 -201.85484085 238.98143062 -209.75 239.8125 C-223.10829255 238.35523172 -232.55743989 225.24324362 -241.55078125 216.27734375 C-242.17958883 215.65136354 -242.80839642 215.02538334 -243.45625877 214.38043404 C-246.77569631 211.0758931 -250.09232138 207.768561 -253.40649414 204.45874023 C-256.82040579 201.05033868 -260.24351817 197.65133487 -263.66882038 194.25438595 C-266.31358085 191.62826208 -268.95159697 188.99544162 -271.58782005 186.3607502 C-272.84718666 185.10440186 -274.10904403 183.85054496 -275.3734684 182.59928703 C-277.139378 180.85047961 -278.89552786 179.0923988 -280.6496582 177.33178711 C-281.16864685 176.82201324 -281.6876355 176.31223938 -282.22235107 175.78701782 C-287.10649084 170.84627912 -289.76236791 165.76283679 -290.30859375 158.87109375 C-290.00411259 152.75200463 -287.46939462 147.24002093 -283.125 142.9375 C-278.06531642 139.13461149 -271.99208379 137.94737648 -265.76171875 138.75 C-255.75634823 141.51486923 -248.49877191 150.98597247 -241.4375 158.08984375 C-240.53878174 158.98997696 -239.64006348 159.89011017 -238.71411133 160.81752014 C-236.35163425 163.18461263 -233.99134888 165.55384639 -231.63214111 167.92419434 C-229.21364819 170.35300742 -226.79224054 172.77891103 -224.37109375 175.20507812 C-219.64057046 179.94657369 -214.91292027 184.69091898 -210.1875 189.4375 C-205.06363627 185.15152531 -200.27931375 180.66007102 -195.57951355 175.91612244 C-194.47856644 174.81116522 -194.47856644 174.81116522 -193.35537797 173.68388563 C-190.91055146 171.22904435 -188.46935051 168.77062931 -186.02807617 166.31225586 C-184.27014667 164.54585386 -182.51195613 162.77971162 -180.75352478 161.0138092 C-177.46235672 157.70810846 -174.17196737 154.40163811 -170.88279901 151.09394801 C-164.41861849 144.5933866 -157.94815139 138.09911517 -151.47541809 131.60707092 C-150.45435876 130.58290133 -149.43330313 129.55872803 -148.41225117 128.53455108 C-146.8652069 126.98278136 -145.318159 125.43101525 -143.77109635 123.87926386 C-137.94816229 118.03863135 -132.12592562 112.19730416 -126.30444336 106.35522461 C-125.77271432 105.82161851 -125.24098527 105.28801241 -124.69314323 104.73823643 C-116.07477384 96.08896989 -107.46381537 87.43235734 -98.85510596 78.77347749 C-90.00250239 69.86972323 -81.14030747 60.97559467 -72.26962453 52.08985239 C-66.80592588 46.61620849 -61.35002154 41.13502587 -55.90401087 35.64378203 C-51.72733722 31.43395224 -47.53752164 27.2373719 -43.34278297 23.04553795 C-41.62841565 21.32820377 -39.91832422 19.60658849 -38.21292114 17.88035202 C-35.87889075 15.51908747 -33.52978795 13.1738813 -31.17643738 10.83189392 C-30.17673622 9.80932327 -30.17673622 9.80932327 -29.15683907 8.76609462 C-21.07470499 0.80141276 -11.18355205 -4.88086712 0 0 Z " fill="#01C951" transform="translate(441.1875,54.5625)"/>
</svg>
