<svg width="14" height="14" viewBox="0 0 14 14" fill="none" xmlns="http://www.w3.org/2000/svg">
<path d="M4.54999 0.550049H1.21665C0.848465 0.550049 0.549988 0.848526 0.549988 1.21672V5.88338C0.549988 6.25157 0.848465 6.55005 1.21665 6.55005H4.54999C4.91818 6.55005 5.21665 6.25157 5.21665 5.88338V1.21672C5.21665 0.848526 4.91818 0.550049 4.54999 0.550049Z" stroke="black" stroke-width="1.1" stroke-linecap="round" stroke-linejoin="round"/>
<path d="M11.8833 0.550049H8.54999C8.1818 0.550049 7.88332 0.848526 7.88332 1.21672V3.21672C7.88332 3.58491 8.1818 3.88338 8.54999 3.88338H11.8833C12.2515 3.88338 12.55 3.58491 12.55 3.21672V1.21672C12.55 0.848526 12.2515 0.550049 11.8833 0.550049Z" stroke="black" stroke-width="1.1" stroke-linecap="round" stroke-linejoin="round"/>
<path d="M11.8833 6.55005H8.54999C8.1818 6.55005 7.88332 6.84853 7.88332 7.21672V11.8834C7.88332 12.2516 8.1818 12.55 8.54999 12.55H11.8833C12.2515 12.55 12.55 12.2516 12.55 11.8834V7.21672C12.55 6.84853 12.2515 6.55005 11.8833 6.55005Z" stroke="black" stroke-width="1.1" stroke-linecap="round" stroke-linejoin="round"/>
<path d="M4.54999 9.21672H1.21665C0.848465 9.21672 0.549988 9.51519 0.549988 9.88338V11.8834C0.549988 12.2516 0.848465 12.55 1.21665 12.55H4.54999C4.91818 12.55 5.21665 12.2516 5.21665 11.8834V9.88338C5.21665 9.51519 4.91818 9.21672 4.54999 9.21672Z" stroke="black" stroke-width="1.1" stroke-linecap="round" stroke-linejoin="round"/>
</svg>
