<svg width="21" height="21" viewBox="0 0 21 21" fill="none" xmlns="http://www.w3.org/2000/svg">
<g clip-path="url(#clip0_276_731)">
<path d="M5.25 8.75C4.2875 8.75 3.5 9.5375 3.5 10.5C3.5 11.4625 4.2875 12.25 5.25 12.25C6.2125 12.25 7 11.4625 7 10.5C7 9.5375 6.2125 8.75 5.25 8.75ZM15.75 8.75C14.7875 8.75 14 9.5375 14 10.5C14 11.4625 14.7875 12.25 15.75 12.25C16.7125 12.25 17.5 11.4625 17.5 10.5C17.5 9.5375 16.7125 8.75 15.75 8.75ZM10.5 8.75C9.5375 8.75 8.75 9.5375 8.75 10.5C8.75 11.4625 9.5375 12.25 10.5 12.25C11.4625 12.25 12.25 11.4625 12.25 10.5C12.25 9.5375 11.4625 8.75 10.5 8.75Z" fill="#13151D"/>
</g>
<defs>
<clipPath id="clip0_276_731">
<rect width="21" height="21" fill="white"/>
</clipPath>
</defs>
</svg>
