<svg width="620" height="644" viewBox="0 0 620 644" fill="none" xmlns="http://www.w3.org/2000/svg">
<rect width="620" height="644" rx="9" fill="#1A1A1A"/>
<path d="M39.851 45.95C39.851 41.35 43.485 37.624 48.338 37.624C51.282 37.624 53.789 39.096 55.33 41.281L53.398 42.592C52.271 40.936 50.408 39.832 48.361 39.832C44.98 39.832 42.289 42.408 42.289 45.95C42.289 49.515 45.003 52.068 48.361 52.068C50.477 52.068 52.363 50.987 53.444 49.308L55.376 50.642C53.881 52.827 51.374 54.276 48.384 54.276C43.485 54.276 39.851 50.619 39.851 45.95ZM59.408 54H57.085V37.9H59.408V54ZM61.115 50.757C61.115 48.71 62.518 47.491 64.956 47.33L68.613 47.054V46.295C68.613 44.961 67.739 44.156 66.198 44.156C65.071 44.156 64.036 44.501 63.047 45.283L62.012 43.604C63.231 42.569 64.772 42.063 66.52 42.063C69.165 42.063 70.89 43.604 70.89 45.996V51.286C70.89 51.723 71.12 51.953 71.58 51.953H72.178V54H71.028C69.901 54 69.073 53.448 68.774 52.528C67.992 53.609 66.681 54.253 65.117 54.253C62.817 54.253 61.115 52.804 61.115 50.757ZM63.346 50.734C63.346 51.746 64.266 52.436 65.577 52.436C67.256 52.436 68.613 51.263 68.613 49.791V48.825L65.301 49.101C64.013 49.193 63.346 49.768 63.346 50.734ZM78.2344 54.253C75.3824 54.253 73.5194 52.597 73.1054 50.366H75.3364C75.6124 51.7 76.7624 52.39 78.2114 52.39C79.4764 52.39 80.2584 51.792 80.2584 50.895C80.2584 50.182 79.7524 49.676 78.6484 49.377L76.4864 48.848C74.3934 48.319 73.3124 47.215 73.3124 45.536C73.3124 43.397 75.0374 42.017 77.4064 42.017C80.1434 42.017 81.9374 43.696 82.2594 45.904H80.0284C79.7524 44.57 78.5794 43.88 77.3834 43.88C76.2564 43.88 75.5894 44.478 75.5894 45.306C75.5894 46.042 76.1644 46.548 77.2684 46.824L79.2924 47.353C81.4544 47.905 82.5354 49.032 82.5354 50.711C82.5354 52.735 80.8564 54.253 78.2344 54.253ZM88.7237 54.253C85.8717 54.253 84.0087 52.597 83.5947 50.366H85.8257C86.1017 51.7 87.2517 52.39 88.7007 52.39C89.9657 52.39 90.7477 51.792 90.7477 50.895C90.7477 50.182 90.2417 49.676 89.1377 49.377L86.9757 48.848C84.8827 48.319 83.8017 47.215 83.8017 45.536C83.8017 43.397 85.5267 42.017 87.8957 42.017C90.6327 42.017 92.4267 43.696 92.7487 45.904H90.5177C90.2417 44.57 89.0687 43.88 87.8727 43.88C86.7457 43.88 86.0787 44.478 86.0787 45.306C86.0787 46.042 86.6537 46.548 87.7577 46.824L89.7817 47.353C91.9437 47.905 93.0247 49.032 93.0247 50.711C93.0247 52.735 91.3457 54.253 88.7237 54.253ZM94.2027 48.135C94.2027 44.823 96.8017 42.04 100.229 42.04C103.61 42.04 106.094 44.639 106.094 48.135V48.894H96.5487C96.8707 50.803 98.4577 52.229 100.436 52.229C101.793 52.229 102.943 51.677 103.817 50.504L105.496 51.746C104.323 53.31 102.575 54.253 100.436 54.253C96.9167 54.253 94.2027 51.631 94.2027 48.135ZM100.183 44.064C98.4577 44.064 97.0087 45.26 96.5947 47.054H103.748C103.357 45.26 101.908 44.064 100.183 44.064ZM110.237 46.985V54H107.914V42.27H110.237V43.512C111.042 42.569 112.215 42.017 113.549 42.017C115.32 42.017 116.7 42.891 117.39 44.225C118.149 42.868 119.552 42.017 121.231 42.017C123.83 42.017 125.601 43.972 125.601 46.433V54H123.278V46.916C123.278 45.26 122.22 44.11 120.656 44.11C119.046 44.11 117.919 45.283 117.919 46.985V54H115.596V46.916C115.596 45.26 114.538 44.11 112.974 44.11C111.364 44.11 110.237 45.283 110.237 46.985ZM127.422 48.135C127.422 44.823 130.021 42.04 133.448 42.04C136.829 42.04 139.313 44.639 139.313 48.135V48.894H129.768C130.09 50.803 131.677 52.229 133.655 52.229C135.012 52.229 136.162 51.677 137.036 50.504L138.715 51.746C137.542 53.31 135.794 54.253 133.655 54.253C130.136 54.253 127.422 51.631 127.422 48.135ZM133.402 44.064C131.677 44.064 130.228 45.26 129.814 47.054H136.967C136.576 45.26 135.127 44.064 133.402 44.064ZM151.415 46.502V54H149.092V46.962C149.092 45.26 147.988 44.11 146.332 44.11C144.653 44.11 143.457 45.283 143.457 47.031V54H141.134V42.27H143.457V43.558C144.285 42.592 145.504 42.017 146.907 42.017C149.598 42.017 151.415 43.995 151.415 46.502ZM157.605 54C155.811 54 154.822 52.942 154.822 51.47V44.317H152.591V42.27H154.822V38.82H157.145V42.27H159.836V44.317H157.145V50.964C157.145 51.608 157.582 51.953 158.295 51.953H159.836V54H157.605ZM168.348 54H165.933V37.9H168.348V54ZM180.996 46.502V54H178.673V46.962C178.673 45.26 177.569 44.11 175.913 44.11C174.234 44.11 173.038 45.283 173.038 47.031V54H170.715V42.27H173.038V43.558C173.866 42.592 175.085 42.017 176.488 42.017C179.179 42.017 180.996 43.995 180.996 46.502ZM187.186 54C185.392 54 184.403 52.942 184.403 51.47V44.317H182.172V42.27H184.403V38.82H186.726V42.27H189.417V44.317H186.726V50.964C186.726 51.608 187.163 51.953 187.876 51.953H189.417V54H187.186ZM190.223 48.135C190.223 44.823 192.822 42.04 196.249 42.04C199.63 42.04 202.114 44.639 202.114 48.135V48.894H192.569C192.891 50.803 194.478 52.229 196.456 52.229C197.813 52.229 198.963 51.677 199.837 50.504L201.516 51.746C200.343 53.31 198.595 54.253 196.456 54.253C192.937 54.253 190.223 51.631 190.223 48.135ZM196.203 44.064C194.478 44.064 193.029 45.26 192.615 47.054H199.768C199.377 45.26 197.928 44.064 196.203 44.064ZM206.258 54H203.935V37.9H206.258V54ZM210.84 54H208.517V37.9H210.84V54ZM214.272 40.637C213.49 40.637 212.869 40.016 212.869 39.234C212.869 38.475 213.49 37.854 214.272 37.854C215.031 37.854 215.629 38.475 215.629 39.234C215.629 40.016 215.031 40.637 214.272 40.637ZM215.422 42.27V54H213.099V42.27H215.422ZM229.756 42.27V54.368C229.756 56.99 228.077 58.623 225.409 58.623H222.465V56.645H224.903C226.582 56.645 227.41 55.794 227.41 54.184V52.459C226.352 53.494 224.926 54.115 223.339 54.115C219.935 54.115 217.244 51.447 217.244 48.043C217.244 44.685 219.958 42.017 223.339 42.017C224.949 42.017 226.375 42.661 227.433 43.719V42.27H229.756ZM219.544 48.043C219.544 50.297 221.315 52.068 223.5 52.068C225.708 52.068 227.456 50.274 227.456 48.043C227.456 45.835 225.685 44.064 223.5 44.064C221.315 44.064 219.544 45.858 219.544 48.043ZM231.574 48.135C231.574 44.823 234.173 42.04 237.6 42.04C240.981 42.04 243.465 44.639 243.465 48.135V48.894H233.92C234.242 50.803 235.829 52.229 237.807 52.229C239.164 52.229 240.314 51.677 241.188 50.504L242.867 51.746C241.694 53.31 239.946 54.253 237.807 54.253C234.288 54.253 231.574 51.631 231.574 48.135ZM237.554 44.064C235.829 44.064 234.38 45.26 233.966 47.054H241.119C240.728 45.26 239.279 44.064 237.554 44.064ZM255.566 46.502V54H253.243V46.962C253.243 45.26 252.139 44.11 250.483 44.11C248.804 44.11 247.608 45.283 247.608 47.031V54H245.285V42.27H247.608V43.558C248.436 42.592 249.655 42.017 251.058 42.017C253.749 42.017 255.566 43.995 255.566 46.502ZM261.757 54C259.963 54 258.974 52.942 258.974 51.47V44.317H256.743V42.27H258.974V38.82H261.297V42.27H263.988V44.317H261.297V50.964C261.297 51.608 261.734 51.953 262.447 51.953H263.988V54H261.757ZM282.205 54H279.905V52.528C278.847 53.609 277.375 54.276 275.742 54.276C272.269 54.276 269.555 51.539 269.555 48.158C269.555 44.754 272.292 42.017 275.742 42.017C277.352 42.017 278.824 42.661 279.882 43.742V37.9H282.205V54ZM279.928 48.158C279.928 45.881 278.134 44.087 275.903 44.087C273.672 44.087 271.878 45.881 271.878 48.158C271.878 50.412 273.672 52.229 275.903 52.229C278.134 52.229 279.928 50.412 279.928 48.158ZM284.02 48.135C284.02 44.823 286.619 42.04 290.046 42.04C293.427 42.04 295.911 44.639 295.911 48.135V48.894H286.366C286.688 50.803 288.275 52.229 290.253 52.229C291.61 52.229 292.76 51.677 293.634 50.504L295.313 51.746C294.14 53.31 292.392 54.253 290.253 54.253C286.734 54.253 284.02 51.631 284.02 48.135ZM290 44.064C288.275 44.064 286.826 45.26 286.412 47.054H293.565C293.174 45.26 291.725 44.064 290 44.064ZM302.147 54.253C299.295 54.253 297.432 52.597 297.018 50.366H299.249C299.525 51.7 300.675 52.39 302.124 52.39C303.389 52.39 304.171 51.792 304.171 50.895C304.171 50.182 303.665 49.676 302.561 49.377L300.399 48.848C298.306 48.319 297.225 47.215 297.225 45.536C297.225 43.397 298.95 42.017 301.319 42.017C304.056 42.017 305.85 43.696 306.172 45.904H303.941C303.665 44.57 302.492 43.88 301.296 43.88C300.169 43.88 299.502 44.478 299.502 45.306C299.502 46.042 300.077 46.548 301.181 46.824L303.205 47.353C305.367 47.905 306.448 49.032 306.448 50.711C306.448 52.735 304.769 54.253 302.147 54.253ZM312.76 54V37.9H319.016C321.799 37.9 323.915 40.016 323.915 42.73C323.915 45.398 321.799 47.537 319.016 47.537H315.175V54H312.76ZM318.832 40.016H315.175V45.467H318.832C320.419 45.467 321.477 44.271 321.477 42.753C321.477 41.212 320.419 40.016 318.832 40.016ZM324.088 50.757C324.088 48.71 325.491 47.491 327.929 47.33L331.586 47.054V46.295C331.586 44.961 330.712 44.156 329.171 44.156C328.044 44.156 327.009 44.501 326.02 45.283L324.985 43.604C326.204 42.569 327.745 42.063 329.493 42.063C332.138 42.063 333.863 43.604 333.863 45.996V51.286C333.863 51.723 334.093 51.953 334.553 51.953H335.151V54H334.001C332.874 54 332.046 53.448 331.747 52.528C330.965 53.609 329.654 54.253 328.09 54.253C325.79 54.253 324.088 52.804 324.088 50.757ZM326.319 50.734C326.319 51.746 327.239 52.436 328.55 52.436C330.229 52.436 331.586 51.263 331.586 49.791V48.825L328.274 49.101C326.986 49.193 326.319 49.768 326.319 50.734ZM342.545 44.34H341.579C340.061 44.34 338.957 45.513 338.957 47.33V54H336.634V42.27H338.934V43.719C339.509 42.776 340.452 42.178 341.74 42.178H342.545V44.34ZM345.46 48.158C345.46 50.412 347.231 52.229 349.439 52.229C350.796 52.229 351.969 51.562 352.728 50.504L354.43 51.746C353.28 53.264 351.647 54.276 349.439 54.276C345.874 54.276 343.137 51.539 343.137 48.158C343.137 44.754 345.874 42.017 349.439 42.017C351.647 42.017 353.28 43.029 354.43 44.57L352.728 45.789C351.969 44.754 350.796 44.087 349.439 44.087C347.231 44.087 345.46 45.858 345.46 48.158ZM355.019 48.135C355.019 44.823 357.618 42.04 361.045 42.04C364.426 42.04 366.91 44.639 366.91 48.135V48.894H357.365C357.687 50.803 359.274 52.229 361.252 52.229C362.609 52.229 363.759 51.677 364.633 50.504L366.312 51.746C365.139 53.31 363.391 54.253 361.252 54.253C357.733 54.253 355.019 51.631 355.019 48.135ZM360.999 44.064C359.274 44.064 357.825 45.26 357.411 47.054H364.564C364.173 45.26 362.724 44.064 360.999 44.064ZM371.054 54H368.731V37.9H371.054V54ZM375.636 54H373.313V37.9H375.636V54ZM377.458 48.135C377.458 44.823 380.057 42.04 383.484 42.04C386.865 42.04 389.349 44.639 389.349 48.135V48.894H379.804C380.126 50.803 381.713 52.229 383.691 52.229C385.048 52.229 386.198 51.677 387.072 50.504L388.751 51.746C387.578 53.31 385.83 54.253 383.691 54.253C380.172 54.253 377.458 51.631 377.458 48.135ZM383.438 44.064C381.713 44.064 380.264 45.26 379.85 47.054H387.003C386.612 45.26 385.163 44.064 383.438 44.064ZM395.585 54.253C392.733 54.253 390.87 52.597 390.456 50.366H392.687C392.963 51.7 394.113 52.39 395.562 52.39C396.827 52.39 397.609 51.792 397.609 50.895C397.609 50.182 397.103 49.676 395.999 49.377L393.837 48.848C391.744 48.319 390.663 47.215 390.663 45.536C390.663 43.397 392.388 42.017 394.757 42.017C397.494 42.017 399.288 43.696 399.61 45.904H397.379C397.103 44.57 395.93 43.88 394.734 43.88C393.607 43.88 392.94 44.478 392.94 45.306C392.94 46.042 393.515 46.548 394.619 46.824L396.643 47.353C398.805 47.905 399.886 49.032 399.886 50.711C399.886 52.735 398.207 54.253 395.585 54.253Z" fill="white"/>
<path d="M38.555 79.75C38.555 76.75 40.925 74.32 44.09 74.32C46.01 74.32 47.645 75.28 48.65 76.705L47.39 77.56C46.655 76.48 45.44 75.76 44.105 75.76C41.9 75.76 40.145 77.44 40.145 79.75C40.145 82.075 41.915 83.74 44.105 83.74C45.485 83.74 46.715 83.035 47.42 81.94L48.68 82.81C47.705 84.235 46.07 85.18 44.12 85.18C40.925 85.18 38.555 82.795 38.555 79.75ZM57.627 81.175C57.627 83.38 55.797 85.18 53.517 85.18C51.237 85.18 49.407 83.38 49.407 81.175C49.407 78.97 51.237 77.185 53.517 77.185C55.797 77.185 57.627 78.97 57.627 81.175ZM56.112 81.175C56.112 79.705 54.957 78.535 53.517 78.535C52.077 78.535 50.922 79.705 50.922 81.175C50.922 82.66 52.077 83.83 53.517 83.83C54.957 83.83 56.112 82.66 56.112 81.175ZM60.333 80.425V85H58.818V77.35H60.333V78.16C60.858 77.545 61.623 77.185 62.493 77.185C63.648 77.185 64.548 77.755 64.998 78.625C65.493 77.74 66.408 77.185 67.503 77.185C69.198 77.185 70.353 78.46 70.353 80.065V85H68.838V80.38C68.838 79.3 68.148 78.55 67.128 78.55C66.078 78.55 65.343 79.315 65.343 80.425V85H63.828V80.38C63.828 79.3 63.138 78.55 62.118 78.55C61.068 78.55 60.333 79.315 60.333 80.425ZM71.8258 77.35H73.3258V78.31C74.0158 77.605 74.9908 77.17 76.0558 77.17C78.3058 77.17 80.0758 78.97 80.0758 81.175C80.0758 83.395 78.3058 85.165 76.0558 85.165C74.9908 85.165 74.0308 84.745 73.3408 84.04V88.015H71.8258V77.35ZM73.3108 81.175C73.3108 82.645 74.4958 83.83 75.9508 83.83C77.3908 83.83 78.5758 82.645 78.5758 81.175C78.5758 79.705 77.3908 78.52 75.9508 78.52C74.4808 78.52 73.3108 79.705 73.3108 81.175ZM80.8994 82.885C80.8994 81.55 81.8144 80.755 83.4044 80.65L85.7894 80.47V79.975C85.7894 79.105 85.2194 78.58 84.2144 78.58C83.4794 78.58 82.8044 78.805 82.1594 79.315L81.4844 78.22C82.2794 77.545 83.2844 77.215 84.4244 77.215C86.1494 77.215 87.2744 78.22 87.2744 79.78V83.23C87.2744 83.515 87.4244 83.665 87.7244 83.665H88.1144V85H87.3644C86.6294 85 86.0894 84.64 85.8944 84.04C85.3844 84.745 84.5294 85.165 83.5094 85.165C82.0094 85.165 80.8994 84.22 80.8994 82.885ZM82.3544 82.87C82.3544 83.53 82.9544 83.98 83.8094 83.98C84.9044 83.98 85.7894 83.215 85.7894 82.255V81.625L83.6294 81.805C82.7894 81.865 82.3544 82.24 82.3544 82.87ZM92.9367 78.7H92.3067C91.3167 78.7 90.5967 79.465 90.5967 80.65V85H89.0817V77.35H90.5817V78.295C90.9567 77.68 91.5717 77.29 92.4117 77.29H92.9367V78.7ZM93.323 81.175C93.323 79.015 95.018 77.2 97.253 77.2C99.458 77.2 101.078 78.895 101.078 81.175V81.67H94.853C95.063 82.915 96.098 83.845 97.388 83.845C98.273 83.845 99.023 83.485 99.593 82.72L100.688 83.53C99.923 84.55 98.783 85.165 97.388 85.165C95.093 85.165 93.323 83.455 93.323 81.175ZM97.223 78.52C96.098 78.52 95.153 79.3 94.883 80.47H99.548C99.293 79.3 98.348 78.52 97.223 78.52ZM101.732 78.685V77.35H107.612V78.49L103.562 83.665H107.702V85H101.657V83.905L105.737 78.685H101.732ZM114.276 85L111.006 77.35H112.641L114.921 82.96L117.201 77.35H118.791L115.551 85H114.276ZM126.973 81.175C126.973 83.38 125.143 85.18 122.863 85.18C120.583 85.18 118.753 83.38 118.753 81.175C118.753 78.97 120.583 77.185 122.863 77.185C125.143 77.185 126.973 78.97 126.973 81.175ZM125.458 81.175C125.458 79.705 124.303 78.535 122.863 78.535C121.423 78.535 120.268 79.705 120.268 81.175C120.268 82.66 121.423 83.83 122.863 83.83C124.303 83.83 125.458 82.66 125.458 81.175ZM131.044 85.165C129.184 85.165 127.969 84.085 127.699 82.63H129.154C129.334 83.5 130.084 83.95 131.029 83.95C131.854 83.95 132.364 83.56 132.364 82.975C132.364 82.51 132.034 82.18 131.314 81.985L129.904 81.64C128.539 81.295 127.834 80.575 127.834 79.48C127.834 78.085 128.959 77.185 130.504 77.185C132.289 77.185 133.459 78.28 133.669 79.72H132.214C132.034 78.85 131.269 78.4 130.489 78.4C129.754 78.4 129.319 78.79 129.319 79.33C129.319 79.81 129.694 80.14 130.414 80.32L131.734 80.665C133.144 81.025 133.849 81.76 133.849 82.855C133.849 84.175 132.754 85.165 131.044 85.165ZM137.905 77.35H139.405V78.31C140.095 77.605 141.07 77.17 142.135 77.17C144.385 77.17 146.155 78.97 146.155 81.175C146.155 83.395 144.385 85.165 142.135 85.165C141.07 85.165 140.11 84.745 139.42 84.04V88.015H137.905V77.35ZM139.39 81.175C139.39 82.645 140.575 83.83 142.03 83.83C143.47 83.83 144.655 82.645 144.655 81.175C144.655 79.705 143.47 78.52 142.03 78.52C140.56 78.52 139.39 79.705 139.39 81.175ZM146.979 82.885C146.979 81.55 147.894 80.755 149.484 80.65L151.869 80.47V79.975C151.869 79.105 151.299 78.58 150.294 78.58C149.559 78.58 148.884 78.805 148.239 79.315L147.564 78.22C148.359 77.545 149.364 77.215 150.504 77.215C152.229 77.215 153.354 78.22 153.354 79.78V83.23C153.354 83.515 153.504 83.665 153.804 83.665H154.194V85H153.444C152.709 85 152.169 84.64 151.974 84.04C151.464 84.745 150.609 85.165 149.589 85.165C148.089 85.165 146.979 84.22 146.979 82.885ZM148.434 82.87C148.434 83.53 149.034 83.98 149.889 83.98C150.984 83.98 151.869 83.215 151.869 82.255V81.625L149.709 81.805C148.869 81.865 148.434 82.24 148.434 82.87ZM159.016 78.7H158.386C157.396 78.7 156.676 79.465 156.676 80.65V85H155.161V77.35H156.661V78.295C157.036 77.68 157.651 77.29 158.491 77.29H159.016V78.7ZM160.917 81.19C160.917 82.66 162.072 83.845 163.512 83.845C164.397 83.845 165.162 83.41 165.657 82.72L166.767 83.53C166.017 84.52 164.952 85.18 163.512 85.18C161.187 85.18 159.402 83.395 159.402 81.19C159.402 78.97 161.187 77.185 163.512 77.185C164.952 77.185 166.017 77.845 166.767 78.85L165.657 79.645C165.162 78.97 164.397 78.535 163.512 78.535C162.072 78.535 160.917 79.69 160.917 81.19ZM167.151 81.175C167.151 79.015 168.846 77.2 171.081 77.2C173.286 77.2 174.906 78.895 174.906 81.175V81.67H168.681C168.891 82.915 169.926 83.845 171.216 83.845C172.101 83.845 172.851 83.485 173.421 82.72L174.516 83.53C173.751 84.55 172.611 85.165 171.216 85.165C168.921 85.165 167.151 83.455 167.151 81.175ZM171.051 78.52C169.926 78.52 168.981 79.3 168.711 80.47H173.376C173.121 79.3 172.176 78.52 171.051 78.52ZM177.608 85H176.093V74.5H177.608V85ZM180.597 85H179.082V74.5H180.597V85ZM181.785 81.175C181.785 79.015 183.48 77.2 185.715 77.2C187.92 77.2 189.54 78.895 189.54 81.175V81.67H183.315C183.525 82.915 184.56 83.845 185.85 83.845C186.735 83.845 187.485 83.485 188.055 82.72L189.15 83.53C188.385 84.55 187.245 85.165 185.85 85.165C183.555 85.165 181.785 83.455 181.785 81.175ZM185.685 78.52C184.56 78.52 183.615 79.3 183.345 80.47H188.01C187.755 79.3 186.81 78.52 185.685 78.52ZM193.607 85.165C191.747 85.165 190.532 84.085 190.262 82.63H191.717C191.897 83.5 192.647 83.95 193.592 83.95C194.417 83.95 194.927 83.56 194.927 82.975C194.927 82.51 194.597 82.18 193.877 81.985L192.467 81.64C191.102 81.295 190.397 80.575 190.397 79.48C190.397 78.085 191.522 77.185 193.067 77.185C194.852 77.185 196.022 78.28 196.232 79.72H194.777C194.597 78.85 193.832 78.4 193.052 78.4C192.317 78.4 191.882 78.79 191.882 79.33C191.882 79.81 192.257 80.14 192.977 80.32L194.297 80.665C195.707 81.025 196.412 81.76 196.412 82.855C196.412 84.175 195.317 85.165 193.607 85.165ZM199.913 78.685V77.365H201.383V75.895C201.383 74.86 202.028 74.11 203.228 74.11H204.518V75.445H203.483C203.123 75.445 202.898 75.655 202.898 76.075V77.365H204.518V78.685H202.898V85H201.383V78.685H199.913ZM204.723 82.885C204.723 81.55 205.638 80.755 207.228 80.65L209.613 80.47V79.975C209.613 79.105 209.043 78.58 208.038 78.58C207.303 78.58 206.628 78.805 205.983 79.315L205.308 78.22C206.103 77.545 207.108 77.215 208.248 77.215C209.973 77.215 211.098 78.22 211.098 79.78V83.23C211.098 83.515 211.248 83.665 211.548 83.665H211.938V85H211.188C210.453 85 209.913 84.64 209.718 84.04C209.208 84.745 208.353 85.165 207.333 85.165C205.833 85.165 204.723 84.22 204.723 82.885ZM206.178 82.87C206.178 83.53 206.778 83.98 207.633 83.98C208.728 83.98 209.613 83.215 209.613 82.255V81.625L207.453 81.805C206.613 81.865 206.178 82.24 206.178 82.87ZM214.867 85L211.597 77.35H213.232L215.512 82.96L217.792 77.35H219.382L216.142 85H214.867ZM227.564 81.175C227.564 83.38 225.734 85.18 223.454 85.18C221.174 85.18 219.344 83.38 219.344 81.175C219.344 78.97 221.174 77.185 223.454 77.185C225.734 77.185 227.564 78.97 227.564 81.175ZM226.049 81.175C226.049 79.705 224.894 78.535 223.454 78.535C222.014 78.535 220.859 79.705 220.859 81.175C220.859 82.66 222.014 83.83 223.454 83.83C224.894 83.83 226.049 82.66 226.049 81.175ZM232.61 78.7H231.98C230.99 78.7 230.27 79.465 230.27 80.65V85H228.755V77.35H230.255V78.295C230.63 77.68 231.245 77.29 232.085 77.29H232.61V78.7ZM234.383 76.285C233.873 76.285 233.468 75.88 233.468 75.37C233.468 74.875 233.873 74.47 234.383 74.47C234.878 74.47 235.268 74.875 235.268 75.37C235.268 75.88 234.878 76.285 234.383 76.285ZM235.133 77.35V85H233.618V77.35H235.133ZM239.321 85C238.151 85 237.506 84.31 237.506 83.35V78.685H236.051V77.35H237.506V75.1H239.021V77.35H240.776V78.685H239.021V83.02C239.021 83.44 239.306 83.665 239.771 83.665H240.776V85H239.321ZM241.302 81.175C241.302 79.015 242.997 77.2 245.232 77.2C247.437 77.2 249.057 78.895 249.057 81.175V81.67H242.832C243.042 82.915 244.077 83.845 245.367 83.845C246.252 83.845 247.002 83.485 247.572 82.72L248.667 83.53C247.902 84.55 246.762 85.165 245.367 85.165C243.072 85.165 241.302 83.455 241.302 81.175ZM245.202 78.52C244.077 78.52 243.132 79.3 242.862 80.47H247.527C247.272 79.3 246.327 78.52 245.202 78.52ZM253.124 85.165C251.264 85.165 250.049 84.085 249.779 82.63H251.234C251.414 83.5 252.164 83.95 253.109 83.95C253.934 83.95 254.444 83.56 254.444 82.975C254.444 82.51 254.114 82.18 253.394 81.985L251.984 81.64C250.619 81.295 249.914 80.575 249.914 79.48C249.914 78.085 251.039 77.185 252.584 77.185C254.369 77.185 255.539 78.28 255.749 79.72H254.294C254.114 78.85 253.349 78.4 252.569 78.4C251.834 78.4 251.399 78.79 251.399 79.33C251.399 79.81 251.774 80.14 252.494 80.32L253.814 80.665C255.224 81.025 255.929 81.76 255.929 82.855C255.929 84.175 254.834 85.165 253.124 85.165ZM259.7 81.175C259.7 79.015 261.395 77.2 263.63 77.2C265.835 77.2 267.455 78.895 267.455 81.175V81.67H261.23C261.44 82.915 262.475 83.845 263.765 83.845C264.65 83.845 265.4 83.485 265.97 82.72L267.065 83.53C266.3 84.55 265.16 85.165 263.765 85.165C261.47 85.165 259.7 83.455 259.7 81.175ZM263.6 78.52C262.475 78.52 261.53 79.3 261.26 80.47H265.925C265.67 79.3 264.725 78.52 263.6 78.52ZM275.347 80.11V85H273.832V80.41C273.832 79.3 273.112 78.55 272.032 78.55C270.937 78.55 270.157 79.315 270.157 80.455V85H268.642V77.35H270.157V78.19C270.697 77.56 271.492 77.185 272.407 77.185C274.162 77.185 275.347 78.475 275.347 80.11ZM279.264 78.685V77.365H280.734V75.895C280.734 74.86 281.379 74.11 282.579 74.11H283.869V75.445H282.834C282.474 75.445 282.249 75.655 282.249 76.075V77.365H283.869V78.685H282.249V85H280.734V78.685H279.264ZM292.383 81.175C292.383 83.38 290.553 85.18 288.273 85.18C285.993 85.18 284.163 83.38 284.163 81.175C284.163 78.97 285.993 77.185 288.273 77.185C290.553 77.185 292.383 78.97 292.383 81.175ZM290.868 81.175C290.868 79.705 289.713 78.535 288.273 78.535C286.833 78.535 285.678 79.705 285.678 81.175C285.678 82.66 286.833 83.83 288.273 83.83C289.713 83.83 290.868 82.66 290.868 81.175ZM300.279 80.11V85H298.764V80.41C298.764 79.3 298.044 78.55 296.964 78.55C295.869 78.55 295.089 79.315 295.089 80.455V85H293.574V77.35H295.089V78.19C295.629 77.56 296.424 77.185 297.339 77.185C299.094 77.185 300.279 78.475 300.279 80.11ZM302.978 81.19C302.978 82.66 304.133 83.845 305.573 83.845C306.458 83.845 307.223 83.41 307.718 82.72L308.828 83.53C308.078 84.52 307.013 85.18 305.573 85.18C303.248 85.18 301.463 83.395 301.463 81.19C301.463 78.97 303.248 77.185 305.573 77.185C307.013 77.185 308.078 77.845 308.828 78.85L307.718 79.645C307.223 78.97 306.458 78.535 305.573 78.535C304.133 78.535 302.978 79.69 302.978 81.19ZM312.431 85C311.261 85 310.616 84.31 310.616 83.35V78.685H309.161V77.35H310.616V75.1H312.131V77.35H313.886V78.685H312.131V83.02C312.131 83.44 312.416 83.665 312.881 83.665H313.886V85H312.431ZM315.564 76.285C315.054 76.285 314.649 75.88 314.649 75.37C314.649 74.875 315.054 74.47 315.564 74.47C316.059 74.47 316.449 74.875 316.449 75.37C316.449 75.88 316.059 76.285 315.564 76.285ZM316.314 77.35V85H314.799V77.35H316.314ZM325.723 81.175C325.723 83.38 323.893 85.18 321.613 85.18C319.333 85.18 317.503 83.38 317.503 81.175C317.503 78.97 319.333 77.185 321.613 77.185C323.893 77.185 325.723 78.97 325.723 81.175ZM324.208 81.175C324.208 79.705 323.053 78.535 321.613 78.535C320.173 78.535 319.018 79.705 319.018 81.175C319.018 82.66 320.173 83.83 321.613 83.83C323.053 83.83 324.208 82.66 324.208 81.175ZM333.619 80.11V85H332.104V80.41C332.104 79.3 331.384 78.55 330.304 78.55C329.209 78.55 328.429 79.315 328.429 80.455V85H326.914V77.35H328.429V78.19C328.969 77.56 329.764 77.185 330.679 77.185C332.434 77.185 333.619 78.475 333.619 80.11ZM346.055 85H344.555V84.04C343.865 84.745 342.905 85.18 341.84 85.18C339.575 85.18 337.805 83.395 337.805 81.19C337.805 78.97 339.59 77.185 341.84 77.185C342.89 77.185 343.85 77.605 344.54 78.31V74.5H346.055V85ZM344.57 81.19C344.57 79.705 343.4 78.535 341.945 78.535C340.49 78.535 339.32 79.705 339.32 81.19C339.32 82.66 340.49 83.845 341.945 83.845C343.4 83.845 344.57 82.66 344.57 81.19ZM347.239 81.175C347.239 79.015 348.934 77.2 351.169 77.2C353.374 77.2 354.994 78.895 354.994 81.175V81.67H348.769C348.979 82.915 350.014 83.845 351.304 83.845C352.189 83.845 352.939 83.485 353.509 82.72L354.604 83.53C353.839 84.55 352.699 85.165 351.304 85.165C349.009 85.165 347.239 83.455 347.239 81.175ZM351.139 78.52C350.014 78.52 349.069 79.3 348.799 80.47H353.464C353.209 79.3 352.264 78.52 351.139 78.52ZM361.644 85L358.374 77.35H360.009L362.289 82.96L364.569 77.35H366.159L362.919 85H361.644ZM374.341 81.175C374.341 83.38 372.511 85.18 370.231 85.18C367.951 85.18 366.121 83.38 366.121 81.175C366.121 78.97 367.951 77.185 370.231 77.185C372.511 77.185 374.341 78.97 374.341 81.175ZM372.826 81.175C372.826 79.705 371.671 78.535 370.231 78.535C368.791 78.535 367.636 79.705 367.636 81.175C367.636 82.66 368.791 83.83 370.231 83.83C371.671 83.83 372.826 82.66 372.826 81.175ZM378.412 85.165C376.552 85.165 375.337 84.085 375.067 82.63H376.522C376.702 83.5 377.452 83.95 378.397 83.95C379.222 83.95 379.732 83.56 379.732 82.975C379.732 82.51 379.402 82.18 378.682 81.985L377.272 81.64C375.907 81.295 375.202 80.575 375.202 79.48C375.202 78.085 376.327 77.185 377.872 77.185C379.657 77.185 380.827 78.28 381.037 79.72H379.582C379.402 78.85 378.637 78.4 377.857 78.4C377.122 78.4 376.687 78.79 376.687 79.33C376.687 79.81 377.062 80.14 377.782 80.32L379.102 80.665C380.512 81.025 381.217 81.76 381.217 82.855C381.217 84.175 380.122 85.165 378.412 85.165ZM386.503 81.19C386.503 82.66 387.658 83.845 389.098 83.845C389.983 83.845 390.748 83.41 391.243 82.72L392.353 83.53C391.603 84.52 390.538 85.18 389.098 85.18C386.773 85.18 384.988 83.395 384.988 81.19C384.988 78.97 386.773 77.185 389.098 77.185C390.538 77.185 391.603 77.845 392.353 78.85L391.243 79.645C390.748 78.97 389.983 78.535 389.098 78.535C387.658 78.535 386.503 79.69 386.503 81.19ZM397.141 78.7H396.511C395.521 78.7 394.801 79.465 394.801 80.65V85H393.286V77.35H394.786V78.295C395.161 77.68 395.776 77.29 396.616 77.29H397.141V78.7ZM398.914 76.285C398.404 76.285 397.999 75.88 397.999 75.37C397.999 74.875 398.404 74.47 398.914 74.47C399.409 74.47 399.799 74.875 399.799 75.37C399.799 75.88 399.409 76.285 398.914 76.285ZM399.664 77.35V85H398.149V77.35H399.664ZM403.852 85C402.682 85 402.037 84.31 402.037 83.35V78.685H400.582V77.35H402.037V75.1H403.552V77.35H405.307V78.685H403.552V83.02C403.552 83.44 403.837 83.665 404.302 83.665H405.307V85H403.852ZM405.833 81.175C405.833 79.015 407.528 77.2 409.763 77.2C411.968 77.2 413.588 78.895 413.588 81.175V81.67H407.363C407.573 82.915 408.608 83.845 409.898 83.845C410.783 83.845 411.533 83.485 412.103 82.72L413.198 83.53C412.433 84.55 411.293 85.165 409.898 85.165C407.603 85.165 405.833 83.455 405.833 81.175ZM409.733 78.52C408.608 78.52 407.663 79.3 407.393 80.47H412.058C411.803 79.3 410.858 78.52 409.733 78.52ZM409.238 74.41L410.858 76.285H409.358L407.498 74.41H409.238ZM418.63 78.7H418C417.01 78.7 416.29 79.465 416.29 80.65V85H414.775V77.35H416.275V78.295C416.65 77.68 417.265 77.29 418.105 77.29H418.63V78.7ZM419.016 81.175C419.016 79.015 420.711 77.2 422.946 77.2C425.151 77.2 426.771 78.895 426.771 81.175V81.67H420.546C420.756 82.915 421.791 83.845 423.081 83.845C423.966 83.845 424.716 83.485 425.286 82.72L426.381 83.53C425.616 84.55 424.476 85.165 423.081 85.165C420.786 85.165 419.016 83.455 419.016 81.175ZM422.916 78.52C421.791 78.52 420.846 79.3 420.576 80.47H425.241C424.986 79.3 424.041 78.52 422.916 78.52ZM430.839 85.165C428.979 85.165 427.764 84.085 427.494 82.63H428.949C429.129 83.5 429.879 83.95 430.824 83.95C431.649 83.95 432.159 83.56 432.159 82.975C432.159 82.51 431.829 82.18 431.109 81.985L429.699 81.64C428.334 81.295 427.629 80.575 427.629 79.48C427.629 78.085 428.754 77.185 430.299 77.185C432.084 77.185 433.254 78.28 433.464 79.72H432.009C431.829 78.85 431.064 78.4 430.284 78.4C429.549 78.4 429.114 78.79 429.114 79.33C429.114 79.81 429.489 80.14 430.209 80.32L431.529 80.665C432.939 81.025 433.644 81.76 433.644 82.855C433.644 84.175 432.549 85.165 430.839 85.165ZM437.7 77.35H439.2V78.31C439.89 77.605 440.865 77.17 441.93 77.17C444.18 77.17 445.95 78.97 445.95 81.175C445.95 83.395 444.18 85.165 441.93 85.165C440.865 85.165 439.905 84.745 439.215 84.04V88.015H437.7V77.35ZM439.185 81.175C439.185 82.645 440.37 83.83 441.825 83.83C443.265 83.83 444.45 82.645 444.45 81.175C444.45 79.705 443.265 78.52 441.825 78.52C440.355 78.52 439.185 79.705 439.185 81.175ZM446.848 81.175C446.848 79.015 448.543 77.2 450.778 77.2C452.983 77.2 454.603 78.895 454.603 81.175V81.67H448.378C448.588 82.915 449.623 83.845 450.913 83.845C451.798 83.845 452.548 83.485 453.118 82.72L454.213 83.53C453.448 84.55 452.308 85.165 450.913 85.165C448.618 85.165 446.848 83.455 446.848 81.175ZM450.748 78.52C449.623 78.52 448.678 79.3 448.408 80.47H453.073C452.818 79.3 451.873 78.52 450.748 78.52ZM459.646 78.7H459.016C458.026 78.7 457.306 79.465 457.306 80.65V85H455.791V77.35H457.291V78.295C457.666 77.68 458.281 77.29 459.121 77.29H459.646V78.7ZM463.534 85.165C461.674 85.165 460.459 84.085 460.189 82.63H461.644C461.824 83.5 462.574 83.95 463.519 83.95C464.344 83.95 464.854 83.56 464.854 82.975C464.854 82.51 464.524 82.18 463.804 81.985L462.394 81.64C461.029 81.295 460.324 80.575 460.324 79.48C460.324 78.085 461.449 77.185 462.994 77.185C464.779 77.185 465.949 78.28 466.159 79.72H464.704C464.524 78.85 463.759 78.4 462.979 78.4C462.244 78.4 461.809 78.79 461.809 79.33C461.809 79.81 462.184 80.14 462.904 80.32L464.224 80.665C465.634 81.025 466.339 81.76 466.339 82.855C466.339 84.175 465.244 85.165 463.534 85.165ZM475.327 81.175C475.327 83.38 473.497 85.18 471.217 85.18C468.937 85.18 467.107 83.38 467.107 81.175C467.107 78.97 468.937 77.185 471.217 77.185C473.497 77.185 475.327 78.97 475.327 81.175ZM473.812 81.175C473.812 79.705 472.657 78.535 471.217 78.535C469.777 78.535 468.622 79.705 468.622 81.175C468.622 82.66 469.777 83.83 471.217 83.83C472.657 83.83 473.812 82.66 473.812 81.175ZM483.223 80.11V85H481.708V80.41C481.708 79.3 480.988 78.55 479.908 78.55C478.813 78.55 478.033 79.315 478.033 80.455V85H476.518V77.35H478.033V78.19C478.573 77.56 479.368 77.185 480.283 77.185C482.038 77.185 483.223 78.475 483.223 80.11ZM491.397 80.11V85H489.882V80.41C489.882 79.3 489.162 78.55 488.082 78.55C486.987 78.55 486.207 79.315 486.207 80.455V85H484.692V77.35H486.207V78.19C486.747 77.56 487.542 77.185 488.457 77.185C490.212 77.185 491.397 78.475 491.397 80.11ZM492.506 82.885C492.506 81.55 493.421 80.755 495.011 80.65L497.396 80.47V79.975C497.396 79.105 496.826 78.58 495.821 78.58C495.086 78.58 494.411 78.805 493.766 79.315L493.091 78.22C493.886 77.545 494.891 77.215 496.031 77.215C497.756 77.215 498.881 78.22 498.881 79.78V83.23C498.881 83.515 499.031 83.665 499.331 83.665H499.721V85H498.971C498.236 85 497.696 84.64 497.501 84.04C496.991 84.745 496.136 85.165 495.116 85.165C493.616 85.165 492.506 84.22 492.506 82.885ZM493.961 82.87C493.961 83.53 494.561 83.98 495.416 83.98C496.511 83.98 497.396 83.215 497.396 82.255V81.625L495.236 81.805C494.396 81.865 493.961 82.24 493.961 82.87ZM502.203 85H500.688V74.5H502.203V85ZM504.441 76.285C503.931 76.285 503.526 75.88 503.526 75.37C503.526 74.875 503.931 74.47 504.441 74.47C504.936 74.47 505.326 74.875 505.326 75.37C505.326 75.88 504.936 76.285 504.441 76.285ZM505.191 77.35V85H503.676V77.35H505.191ZM509.545 85.165C507.685 85.165 506.47 84.085 506.2 82.63H507.655C507.835 83.5 508.585 83.95 509.53 83.95C510.355 83.95 510.865 83.56 510.865 82.975C510.865 82.51 510.535 82.18 509.815 81.985L508.405 81.64C507.04 81.295 506.335 80.575 506.335 79.48C506.335 78.085 507.46 77.185 509.005 77.185C510.79 77.185 511.96 78.28 512.17 79.72H510.715C510.535 78.85 509.77 78.4 508.99 78.4C508.255 78.4 507.82 78.79 507.82 79.33C507.82 79.81 508.195 80.14 508.915 80.32L510.235 80.665C511.645 81.025 512.35 81.76 512.35 82.855C512.35 84.175 511.255 85.165 509.545 85.165ZM513.118 81.175C513.118 79.015 514.813 77.2 517.048 77.2C519.253 77.2 520.873 78.895 520.873 81.175V81.67H514.648C514.858 82.915 515.893 83.845 517.183 83.845C518.068 83.845 518.818 83.485 519.388 82.72L520.483 83.53C519.718 84.55 518.578 85.165 517.183 85.165C514.888 85.165 513.118 83.455 513.118 81.175ZM517.018 78.52C515.893 78.52 514.948 79.3 514.678 80.47H519.343C519.088 79.3 518.143 78.52 517.018 78.52ZM517.573 74.41H519.313L517.453 76.285H515.968L517.573 74.41ZM524.94 85.165C523.08 85.165 521.865 84.085 521.595 82.63H523.05C523.23 83.5 523.98 83.95 524.925 83.95C525.75 83.95 526.26 83.56 526.26 82.975C526.26 82.51 525.93 82.18 525.21 81.985L523.8 81.64C522.435 81.295 521.73 80.575 521.73 79.48C521.73 78.085 522.855 77.185 524.4 77.185C526.185 77.185 527.355 78.28 527.565 79.72H526.11C525.93 78.85 525.165 78.4 524.385 78.4C523.65 78.4 523.215 78.79 523.215 79.33C523.215 79.81 523.59 80.14 524.31 80.32L525.63 80.665C527.04 81.025 527.745 81.76 527.745 82.855C527.745 84.175 526.65 85.165 524.94 85.165ZM531.516 81.175C531.516 79.015 533.211 77.2 535.446 77.2C537.651 77.2 539.271 78.895 539.271 81.175V81.67H533.046C533.256 82.915 534.291 83.845 535.581 83.845C536.466 83.845 537.216 83.485 537.786 82.72L538.881 83.53C538.116 84.55 536.976 85.165 535.581 85.165C533.286 85.165 531.516 83.455 531.516 81.175ZM535.416 78.52C534.291 78.52 533.346 79.3 533.076 80.47H537.741C537.486 79.3 536.541 78.52 535.416 78.52ZM542.998 85C541.828 85 541.183 84.31 541.183 83.35V78.685H539.728V77.35H541.183V75.1H542.698V77.35H544.453V78.685H542.698V83.02C542.698 83.44 542.983 83.665 543.448 83.665H544.453V85H542.998ZM46.67 99.175C46.67 101.38 44.84 103.18 42.56 103.18C40.28 103.18 38.45 101.38 38.45 99.175C38.45 96.97 40.28 95.185 42.56 95.185C44.84 95.185 46.67 96.97 46.67 99.175ZM45.155 99.175C45.155 97.705 44 96.535 42.56 96.535C41.12 96.535 39.965 97.705 39.965 99.175C39.965 100.66 41.12 101.83 42.56 101.83C44 101.83 45.155 100.66 45.155 99.175ZM47.861 103V92.5H49.376V96.325C50.066 95.62 51.026 95.185 52.091 95.185C54.341 95.185 56.111 96.97 56.111 99.19C56.111 101.395 54.341 103.18 52.091 103.18C51.026 103.18 50.051 102.745 49.361 102.04V103H47.861ZM49.346 99.19C49.346 100.66 50.516 101.845 51.986 101.845C53.426 101.845 54.611 100.66 54.611 99.19C54.611 97.705 53.426 96.535 51.986 96.535C50.531 96.535 49.346 97.705 49.346 99.19ZM59.8191 103C58.6491 103 58.0041 102.31 58.0041 101.35V96.685H56.5491V95.35H58.0041V93.1H59.5191V95.35H61.2741V96.685H59.5191V101.02C59.5191 101.44 59.8041 101.665 60.2691 101.665H61.2741V103H59.8191ZM61.7996 99.175C61.7996 97.015 63.4946 95.2 65.7296 95.2C67.9346 95.2 69.5546 96.895 69.5546 99.175V99.67H63.3296C63.5396 100.915 64.5746 101.845 65.8646 101.845C66.7496 101.845 67.4996 101.485 68.0696 100.72L69.1646 101.53C68.3996 102.55 67.2596 103.165 65.8646 103.165C63.5696 103.165 61.7996 101.455 61.7996 99.175ZM65.6996 96.52C64.5746 96.52 63.6296 97.3 63.3596 98.47H68.0246C67.7696 97.3 66.8246 96.52 65.6996 96.52ZM77.4468 98.11V103H75.9318V98.41C75.9318 97.3 75.2118 96.55 74.1318 96.55C73.0368 96.55 72.2568 97.315 72.2568 98.455V103H70.7418V95.35H72.2568V96.19C72.7968 95.56 73.5918 95.185 74.5068 95.185C76.2618 95.185 77.4468 96.475 77.4468 98.11ZM78.6307 99.175C78.6307 97.015 80.3257 95.2 82.5607 95.2C84.7657 95.2 86.3857 96.895 86.3857 99.175V99.67H80.1607C80.3707 100.915 81.4057 101.845 82.6957 101.845C83.5807 101.845 84.3307 101.485 84.9007 100.72L85.9957 101.53C85.2307 102.55 84.0907 103.165 82.6957 103.165C80.4007 103.165 78.6307 101.455 78.6307 99.175ZM82.5307 96.52C81.4057 96.52 80.4607 97.3 80.1907 98.47H84.8557C84.6007 97.3 83.6557 96.52 82.5307 96.52ZM87.0392 96.685V95.35H92.9192V96.49L88.8692 101.665H93.0092V103H86.9642V101.905L91.0442 96.685H87.0392ZM97.1237 100.24V95.35H98.6387V99.955C98.6387 101.02 99.3587 101.815 100.439 101.815C101.534 101.815 102.314 101.02 102.314 99.895V95.35H103.829V103H102.314V102.145C101.789 102.775 100.979 103.15 100.064 103.15C98.3087 103.15 97.1237 101.875 97.1237 100.24ZM112.003 98.11V103H110.488V98.41C110.488 97.3 109.768 96.55 108.688 96.55C107.593 96.55 106.813 97.315 106.813 98.455V103H105.298V95.35H106.813V96.19C107.353 95.56 108.148 95.185 109.063 95.185C110.818 95.185 112.003 96.475 112.003 98.11ZM117.704 99.19C117.704 100.66 118.859 101.845 120.299 101.845C121.184 101.845 121.949 101.41 122.444 100.72L123.554 101.53C122.804 102.52 121.739 103.18 120.299 103.18C117.974 103.18 116.189 101.395 116.189 99.19C116.189 96.97 117.974 95.185 120.299 95.185C121.739 95.185 122.804 95.845 123.554 96.85L122.444 97.645C121.949 96.97 121.184 96.535 120.299 96.535C118.859 96.535 117.704 97.69 117.704 99.19ZM126.002 103H124.487V92.5H126.002V103ZM127.115 100.885C127.115 99.55 128.03 98.755 129.62 98.65L132.005 98.47V97.975C132.005 97.105 131.435 96.58 130.43 96.58C129.695 96.58 129.02 96.805 128.375 97.315L127.7 96.22C128.495 95.545 129.5 95.215 130.64 95.215C132.365 95.215 133.49 96.22 133.49 97.78V101.23C133.49 101.515 133.64 101.665 133.94 101.665H134.33V103H133.58C132.845 103 132.305 102.64 132.11 102.04C131.6 102.745 130.745 103.165 129.725 103.165C128.225 103.165 127.115 102.22 127.115 100.885ZM128.57 100.87C128.57 101.53 129.17 101.98 130.025 101.98C131.12 101.98 132.005 101.215 132.005 100.255V99.625L129.845 99.805C129.005 99.865 128.57 100.24 128.57 100.87ZM138.28 103.165C136.42 103.165 135.205 102.085 134.935 100.63H136.39C136.57 101.5 137.32 101.95 138.265 101.95C139.09 101.95 139.6 101.56 139.6 100.975C139.6 100.51 139.27 100.18 138.55 99.985L137.14 99.64C135.775 99.295 135.07 98.575 135.07 97.48C135.07 96.085 136.195 95.185 137.74 95.185C139.525 95.185 140.695 96.28 140.905 97.72H139.45C139.27 96.85 138.505 96.4 137.725 96.4C136.99 96.4 136.555 96.79 136.555 97.33C136.555 97.81 136.93 98.14 137.65 98.32L138.97 98.665C140.38 99.025 141.085 99.76 141.085 100.855C141.085 102.175 139.99 103.165 138.28 103.165ZM145.121 103.165C143.261 103.165 142.046 102.085 141.776 100.63H143.231C143.411 101.5 144.161 101.95 145.106 101.95C145.931 101.95 146.441 101.56 146.441 100.975C146.441 100.51 146.111 100.18 145.391 99.985L143.981 99.64C142.616 99.295 141.911 98.575 141.911 97.48C141.911 96.085 143.036 95.185 144.581 95.185C146.366 95.185 147.536 96.28 147.746 97.72H146.291C146.111 96.85 145.346 96.4 144.566 96.4C143.831 96.4 143.396 96.79 143.396 97.33C143.396 97.81 143.771 98.14 144.491 98.32L145.811 98.665C147.221 99.025 147.926 99.76 147.926 100.855C147.926 102.175 146.831 103.165 145.121 103.165ZM148.694 99.175C148.694 97.015 150.389 95.2 152.624 95.2C154.829 95.2 156.449 96.895 156.449 99.175V99.67H150.224C150.434 100.915 151.469 101.845 152.759 101.845C153.644 101.845 154.394 101.485 154.964 100.72L156.059 101.53C155.294 102.55 154.154 103.165 152.759 103.165C150.464 103.165 148.694 101.455 148.694 99.175ZM152.594 96.52C151.469 96.52 150.524 97.3 150.254 98.47H154.919C154.664 97.3 153.719 96.52 152.594 96.52ZM159.151 98.425V103H157.636V95.35H159.151V96.16C159.676 95.545 160.441 95.185 161.311 95.185C162.466 95.185 163.366 95.755 163.816 96.625C164.311 95.74 165.226 95.185 166.321 95.185C168.016 95.185 169.171 96.46 169.171 98.065V103H167.656V98.38C167.656 97.3 166.966 96.55 165.946 96.55C164.896 96.55 164.161 97.315 164.161 98.425V103H162.646V98.38C162.646 97.3 161.956 96.55 160.936 96.55C159.886 96.55 159.151 97.315 159.151 98.425ZM170.359 99.175C170.359 97.015 172.054 95.2 174.289 95.2C176.494 95.2 178.114 96.895 178.114 99.175V99.67H171.889C172.099 100.915 173.134 101.845 174.424 101.845C175.309 101.845 176.059 101.485 176.629 100.72L177.724 101.53C176.959 102.55 175.819 103.165 174.424 103.165C172.129 103.165 170.359 101.455 170.359 99.175ZM174.259 96.52C173.134 96.52 172.189 97.3 171.919 98.47H176.584C176.329 97.3 175.384 96.52 174.259 96.52ZM186.006 98.11V103H184.491V98.41C184.491 97.3 183.771 96.55 182.691 96.55C181.596 96.55 180.816 97.315 180.816 98.455V103H179.301V95.35H180.816V96.19C181.356 95.56 182.151 95.185 183.066 95.185C184.821 95.185 186.006 96.475 186.006 98.11ZM190.044 103C188.874 103 188.229 102.31 188.229 101.35V96.685H186.774V95.35H188.229V93.1H189.744V95.35H191.499V96.685H189.744V101.02C189.744 101.44 190.029 101.665 190.494 101.665H191.499V103H190.044ZM195.415 95.35H196.915V96.31C197.605 95.605 198.58 95.17 199.645 95.17C201.895 95.17 203.665 96.97 203.665 99.175C203.665 101.395 201.895 103.165 199.645 103.165C198.58 103.165 197.62 102.745 196.93 102.04V106.015H195.415V95.35ZM196.9 99.175C196.9 100.645 198.085 101.83 199.54 101.83C200.98 101.83 202.165 100.645 202.165 99.175C202.165 97.705 200.98 96.52 199.54 96.52C198.07 96.52 196.9 97.705 196.9 99.175ZM204.488 100.885C204.488 99.55 205.403 98.755 206.993 98.65L209.378 98.47V97.975C209.378 97.105 208.808 96.58 207.803 96.58C207.068 96.58 206.393 96.805 205.748 97.315L205.073 96.22C205.868 95.545 206.873 95.215 208.013 95.215C209.738 95.215 210.863 96.22 210.863 97.78V101.23C210.863 101.515 211.013 101.665 211.313 101.665H211.703V103H210.953C210.218 103 209.678 102.64 209.483 102.04C208.973 102.745 208.118 103.165 207.098 103.165C205.598 103.165 204.488 102.22 204.488 100.885ZM205.943 100.87C205.943 101.53 206.543 101.98 207.398 101.98C208.493 101.98 209.378 101.215 209.378 100.255V99.625L207.218 99.805C206.378 99.865 205.943 100.24 205.943 100.87ZM216.526 96.7H215.896C214.906 96.7 214.186 97.465 214.186 98.65V103H212.671V95.35H214.171V96.295C214.546 95.68 215.161 95.29 216.001 95.29H216.526V96.7ZM227.242 98.11V103H225.727V98.41C225.727 97.3 225.007 96.55 223.927 96.55C222.832 96.55 222.052 97.315 222.052 98.455V103H220.537V95.35H222.052V96.19C222.592 95.56 223.387 95.185 224.302 95.185C226.057 95.185 227.242 96.475 227.242 98.11ZM236.646 99.175C236.646 101.38 234.816 103.18 232.536 103.18C230.256 103.18 228.426 101.38 228.426 99.175C228.426 96.97 230.256 95.185 232.536 95.185C234.816 95.185 236.646 96.97 236.646 99.175ZM235.131 99.175C235.131 97.705 233.976 96.535 232.536 96.535C231.096 96.535 229.941 97.705 229.941 99.175C229.941 100.66 231.096 101.83 232.536 101.83C233.976 101.83 235.131 100.66 235.131 99.175ZM240.361 103C239.191 103 238.546 102.31 238.546 101.35V96.685H237.091V95.35H238.546V93.1H240.061V95.35H241.816V96.685H240.061V101.02C240.061 101.44 240.346 101.665 240.811 101.665H241.816V103H240.361ZM242.342 99.175C242.342 97.015 244.037 95.2 246.272 95.2C248.477 95.2 250.097 96.895 250.097 99.175V99.67H243.872C244.082 100.915 245.117 101.845 246.407 101.845C247.292 101.845 248.042 101.485 248.612 100.72L249.707 101.53C248.942 102.55 247.802 103.165 246.407 103.165C244.112 103.165 242.342 101.455 242.342 99.175ZM246.242 96.52C245.117 96.52 244.172 97.3 243.902 98.47H248.567C248.312 97.3 247.367 96.52 246.242 96.52ZM254.287 95.35H255.787V96.31C256.477 95.605 257.452 95.17 258.517 95.17C260.767 95.17 262.537 96.97 262.537 99.175C262.537 101.395 260.767 103.165 258.517 103.165C257.452 103.165 256.492 102.745 255.802 102.04V106.015H254.287V95.35ZM255.772 99.175C255.772 100.645 256.957 101.83 258.412 101.83C259.852 101.83 261.037 100.645 261.037 99.175C261.037 97.705 259.852 96.52 258.412 96.52C256.942 96.52 255.772 97.705 255.772 99.175ZM271.655 99.175C271.655 101.38 269.825 103.18 267.545 103.18C265.265 103.18 263.435 101.38 263.435 99.175C263.435 96.97 265.265 95.185 267.545 95.185C269.825 95.185 271.655 96.97 271.655 99.175ZM270.14 99.175C270.14 97.705 268.985 96.535 267.545 96.535C266.105 96.535 264.95 97.705 264.95 99.175C264.95 100.66 266.105 101.83 267.545 101.83C268.985 101.83 270.14 100.66 270.14 99.175ZM272.846 100.24V95.35H274.361V99.955C274.361 101.02 275.081 101.815 276.161 101.815C277.256 101.815 278.036 101.02 278.036 99.895V95.35H279.551V103H278.036V102.145C277.511 102.775 276.701 103.15 275.786 103.15C274.031 103.15 272.846 101.875 272.846 100.24ZM284.875 96.7H284.245C283.255 96.7 282.535 97.465 282.535 98.65V103H281.02V95.35H282.52V96.295C282.895 95.68 283.51 95.29 284.35 95.29H284.875V96.7ZM289.651 94.285C289.141 94.285 288.736 93.88 288.736 93.37C288.736 92.875 289.141 92.47 289.651 92.47C290.146 92.47 290.536 92.875 290.536 93.37C290.536 93.88 290.146 94.285 289.651 94.285ZM290.401 95.35V103H288.886V95.35H290.401ZM299.84 103H298.34V102.04C297.65 102.745 296.69 103.18 295.625 103.18C293.36 103.18 291.59 101.395 291.59 99.19C291.59 96.97 293.375 95.185 295.625 95.185C296.675 95.185 297.635 95.605 298.325 96.31V92.5H299.84V103ZM298.355 99.19C298.355 97.705 297.185 96.535 295.73 96.535C294.275 96.535 293.105 97.705 293.105 99.19C293.105 100.66 294.275 101.845 295.73 101.845C297.185 101.845 298.355 100.66 298.355 99.19ZM301.023 99.175C301.023 97.015 302.718 95.2 304.953 95.2C307.158 95.2 308.778 96.895 308.778 99.175V99.67H302.553C302.763 100.915 303.798 101.845 305.088 101.845C305.973 101.845 306.723 101.485 307.293 100.72L308.388 101.53C307.623 102.55 306.483 103.165 305.088 103.165C302.793 103.165 301.023 101.455 301.023 99.175ZM304.923 96.52C303.798 96.52 302.853 97.3 302.583 98.47H307.248C306.993 97.3 306.048 96.52 304.923 96.52ZM316.67 98.11V103H315.155V98.41C315.155 97.3 314.435 96.55 313.355 96.55C312.26 96.55 311.48 97.315 311.48 98.455V103H309.965V95.35H311.48V96.19C312.02 95.56 312.815 95.185 313.73 95.185C315.485 95.185 316.67 96.475 316.67 98.11ZM320.708 103C319.538 103 318.893 102.31 318.893 101.35V96.685H317.438V95.35H318.893V93.1H320.408V95.35H322.163V96.685H320.408V101.02C320.408 101.44 320.693 101.665 321.158 101.665H322.163V103H320.708ZM323.841 94.285C323.331 94.285 322.926 93.88 322.926 93.37C322.926 92.875 323.331 92.47 323.841 92.47C324.336 92.47 324.726 92.875 324.726 93.37C324.726 93.88 324.336 94.285 323.841 94.285ZM324.591 95.35V103H323.076V95.35H324.591ZM325.509 96.685V95.365H326.979V93.895C326.979 92.86 327.624 92.11 328.824 92.11H330.114V93.445H329.079C328.719 93.445 328.494 93.655 328.494 94.075V95.365H330.114V96.685H328.494V103H326.979V96.685H325.509ZM331.795 94.285C331.285 94.285 330.88 93.88 330.88 93.37C330.88 92.875 331.285 92.47 331.795 92.47C332.29 92.47 332.68 92.875 332.68 93.37C332.68 93.88 332.29 94.285 331.795 94.285ZM332.545 95.35V103H331.03V95.35H332.545ZM333.733 99.175C333.733 97.015 335.428 95.2 337.663 95.2C339.868 95.2 341.488 96.895 341.488 99.175V99.67H335.263C335.473 100.915 336.508 101.845 337.798 101.845C338.683 101.845 339.433 101.485 340.003 100.72L341.098 101.53C340.333 102.55 339.193 103.165 337.798 103.165C335.503 103.165 333.733 101.455 333.733 99.175ZM337.633 96.52C336.508 96.52 335.563 97.3 335.293 98.47H339.958C339.703 97.3 338.758 96.52 337.633 96.52ZM346.53 96.7H345.9C344.91 96.7 344.19 97.465 344.19 98.65V103H342.675V95.35H344.175V96.295C344.55 95.68 345.165 95.29 346.005 95.29H346.53V96.7ZM351.772 99.19C351.772 100.66 352.927 101.845 354.367 101.845C355.252 101.845 356.017 101.41 356.512 100.72L357.622 101.53C356.872 102.52 355.807 103.18 354.367 103.18C352.042 103.18 350.257 101.395 350.257 99.19C350.257 96.97 352.042 95.185 354.367 95.185C355.807 95.185 356.872 95.845 357.622 96.85L356.512 97.645C356.017 96.97 355.252 96.535 354.367 96.535C352.927 96.535 351.772 97.69 351.772 99.19ZM358.006 99.175C358.006 97.015 359.701 95.2 361.936 95.2C364.141 95.2 365.761 96.895 365.761 99.175V99.67H359.536C359.746 100.915 360.781 101.845 362.071 101.845C362.956 101.845 363.706 101.485 364.276 100.72L365.371 101.53C364.606 102.55 363.466 103.165 362.071 103.165C359.776 103.165 358.006 101.455 358.006 99.175ZM361.906 96.52C360.781 96.52 359.836 97.3 359.566 98.47H364.231C363.976 97.3 363.031 96.52 361.906 96.52ZM368.463 103H366.948V92.5H368.463V103ZM371.451 103H369.936V92.5H371.451V103ZM372.639 99.175C372.639 97.015 374.334 95.2 376.569 95.2C378.774 95.2 380.394 96.895 380.394 99.175V99.67H374.169C374.379 100.915 375.414 101.845 376.704 101.845C377.589 101.845 378.339 101.485 378.909 100.72L380.004 101.53C379.239 102.55 378.099 103.165 376.704 103.165C374.409 103.165 372.639 101.455 372.639 99.175ZM376.539 96.52C375.414 96.52 374.469 97.3 374.199 98.47H378.864C378.609 97.3 377.664 96.52 376.539 96.52ZM392.55 95.35V106.015H391.035V102.04C390.345 102.745 389.385 103.165 388.335 103.165C386.085 103.165 384.3 101.395 384.3 99.175C384.3 96.97 386.07 95.17 388.335 95.17C389.4 95.17 390.36 95.605 391.05 96.31V95.35H392.55ZM391.065 99.175C391.065 97.705 389.895 96.52 388.44 96.52C386.985 96.52 385.815 97.705 385.815 99.175C385.815 100.645 386.985 101.83 388.44 101.83C389.895 101.83 391.065 100.645 391.065 99.175ZM394.018 100.24V95.35H395.533V99.955C395.533 101.02 396.253 101.815 397.333 101.815C398.428 101.815 399.208 101.02 399.208 99.895V95.35H400.723V103H399.208V102.145C398.683 102.775 397.873 103.15 396.958 103.15C395.203 103.15 394.018 101.875 394.018 100.24ZM402.957 94.285C402.447 94.285 402.042 93.88 402.042 93.37C402.042 92.875 402.447 92.47 402.957 92.47C403.452 92.47 403.842 92.875 403.842 93.37C403.842 93.88 403.452 94.285 402.957 94.285ZM403.707 95.35V103H402.192V95.35H403.707ZM410.643 103L407.373 95.35H409.008L411.288 100.96L413.568 95.35H415.158L411.918 103H410.643ZM423.34 99.175C423.34 101.38 421.51 103.18 419.23 103.18C416.95 103.18 415.12 101.38 415.12 99.175C415.12 96.97 416.95 95.185 419.23 95.185C421.51 95.185 423.34 96.97 423.34 99.175ZM421.825 99.175C421.825 97.705 420.67 96.535 419.23 96.535C417.79 96.535 416.635 97.705 416.635 99.175C416.635 100.66 417.79 101.83 419.23 101.83C420.67 101.83 421.825 100.66 421.825 99.175ZM424.531 100.24V95.35H426.046V99.955C426.046 101.02 426.766 101.815 427.846 101.815C428.941 101.815 429.721 101.02 429.721 99.895V95.35H431.236V103H429.721V102.145C429.196 102.775 428.386 103.15 427.471 103.15C425.716 103.15 424.531 101.875 424.531 100.24ZM435.585 103.165C433.725 103.165 432.51 102.085 432.24 100.63H433.695C433.875 101.5 434.625 101.95 435.57 101.95C436.395 101.95 436.905 101.56 436.905 100.975C436.905 100.51 436.575 100.18 435.855 99.985L434.445 99.64C433.08 99.295 432.375 98.575 432.375 97.48C432.375 96.085 433.5 95.185 435.045 95.185C436.83 95.185 438 96.28 438.21 97.72H436.755C436.575 96.85 435.81 96.4 435.03 96.4C434.295 96.4 433.86 96.79 433.86 97.33C433.86 97.81 434.235 98.14 434.955 98.32L436.275 98.665C437.685 99.025 438.39 99.76 438.39 100.855C438.39 102.175 437.295 103.165 435.585 103.165ZM443.676 99.19C443.676 100.66 444.831 101.845 446.271 101.845C447.156 101.845 447.921 101.41 448.416 100.72L449.526 101.53C448.776 102.52 447.711 103.18 446.271 103.18C443.946 103.18 442.161 101.395 442.161 99.19C442.161 96.97 443.946 95.185 446.271 95.185C447.711 95.185 448.776 95.845 449.526 96.85L448.416 97.645C447.921 96.97 447.156 96.535 446.271 96.535C444.831 96.535 443.676 97.69 443.676 99.19ZM458.13 99.175C458.13 101.38 456.3 103.18 454.02 103.18C451.74 103.18 449.91 101.38 449.91 99.175C449.91 96.97 451.74 95.185 454.02 95.185C456.3 95.185 458.13 96.97 458.13 99.175ZM456.615 99.175C456.615 97.705 455.46 96.535 454.02 96.535C452.58 96.535 451.425 97.705 451.425 99.175C451.425 100.66 452.58 101.83 454.02 101.83C455.46 101.83 456.615 100.66 456.615 99.175ZM466.026 98.11V103H464.511V98.41C464.511 97.3 463.791 96.55 462.711 96.55C461.616 96.55 460.836 97.315 460.836 98.455V103H459.321V95.35H460.836V96.19C461.376 95.56 462.171 95.185 463.086 95.185C464.841 95.185 466.026 96.475 466.026 98.11ZM469.691 103L466.421 95.35H468.056L470.336 100.96L472.616 95.35H474.206L470.966 103H469.691ZM475.628 94.285C475.118 94.285 474.713 93.88 474.713 93.37C474.713 92.875 475.118 92.47 475.628 92.47C476.123 92.47 476.513 92.875 476.513 93.37C476.513 93.88 476.123 94.285 475.628 94.285ZM476.378 95.35V103H474.863V95.35H476.378ZM477.566 99.175C477.566 97.015 479.261 95.2 481.496 95.2C483.701 95.2 485.321 96.895 485.321 99.175V99.67H479.096C479.306 100.915 480.341 101.845 481.631 101.845C482.516 101.845 483.266 101.485 483.836 100.72L484.931 101.53C484.166 102.55 483.026 103.165 481.631 103.165C479.336 103.165 477.566 101.455 477.566 99.175ZM481.466 96.52C480.341 96.52 479.396 97.3 479.126 98.47H483.791C483.536 97.3 482.591 96.52 481.466 96.52ZM493.213 98.11V103H491.698V98.41C491.698 97.3 490.978 96.55 489.898 96.55C488.803 96.55 488.023 97.315 488.023 98.455V103H486.508V95.35H488.023V96.19C488.563 95.56 489.358 95.185 490.273 95.185C492.028 95.185 493.213 96.475 493.213 98.11ZM497.251 103C496.081 103 495.436 102.31 495.436 101.35V96.685H493.981V95.35H495.436V93.1H496.951V95.35H498.706V96.685H496.951V101.02C496.951 101.44 497.236 101.665 497.701 101.665H498.706V103H497.251ZM504.137 103H502.622V92.5H504.137V103ZM505.325 99.175C505.325 97.015 507.02 95.2 509.255 95.2C511.46 95.2 513.08 96.895 513.08 99.175V99.67H506.855C507.065 100.915 508.1 101.845 509.39 101.845C510.275 101.845 511.025 101.485 511.595 100.72L512.69 101.53C511.925 102.55 510.785 103.165 509.39 103.165C507.095 103.165 505.325 101.455 505.325 99.175ZM509.225 96.52C508.1 96.52 507.155 97.3 506.885 98.47H511.55C511.295 97.3 510.35 96.52 509.225 96.52ZM518.785 98.425V103H517.27V95.35H518.785V96.16C519.31 95.545 520.075 95.185 520.945 95.185C522.1 95.185 523 95.755 523.45 96.625C523.945 95.74 524.86 95.185 525.955 95.185C527.65 95.185 528.805 96.46 528.805 98.065V103H527.29V98.38C527.29 97.3 526.6 96.55 525.58 96.55C524.53 96.55 523.795 97.315 523.795 98.425V103H522.28V98.38C522.28 97.3 521.59 96.55 520.57 96.55C519.52 96.55 518.785 97.315 518.785 98.425ZM531.043 94.285C530.533 94.285 530.128 93.88 530.128 93.37C530.128 92.875 530.533 92.47 531.043 92.47C531.538 92.47 531.928 92.875 531.928 93.37C531.928 93.88 531.538 94.285 531.043 94.285ZM531.793 95.35V103H530.278V95.35H531.793ZM532.981 99.175C532.981 97.015 534.676 95.2 536.911 95.2C539.116 95.2 540.736 96.895 540.736 99.175V99.67H534.511C534.721 100.915 535.756 101.845 537.046 101.845C537.931 101.845 538.681 101.485 539.251 100.72L540.346 101.53C539.581 102.55 538.441 103.165 537.046 103.165C534.751 103.165 532.981 101.455 532.981 99.175ZM536.881 96.52C535.756 96.52 534.811 97.3 534.541 98.47H539.206C538.951 97.3 538.006 96.52 536.881 96.52ZM541.923 100.24V95.35H543.438V99.955C543.438 101.02 544.158 101.815 545.238 101.815C546.333 101.815 547.113 101.02 547.113 99.895V95.35H548.628V103H547.113V102.145C546.588 102.775 545.778 103.15 544.863 103.15C543.108 103.15 541.923 101.875 541.923 100.24ZM549.287 103L552.242 99.07L549.452 95.35H551.192L553.082 97.93L554.957 95.35H556.637L553.877 99.025L556.862 103H555.122L553.052 100.15L550.967 103H549.287ZM560.242 99.175C560.242 97.015 561.937 95.2 564.172 95.2C566.377 95.2 567.997 96.895 567.997 99.175V99.67H561.772C561.982 100.915 563.017 101.845 564.307 101.845C565.192 101.845 565.942 101.485 566.512 100.72L567.607 101.53C566.842 102.55 565.702 103.165 564.307 103.165C562.012 103.165 560.242 101.455 560.242 99.175ZM564.142 96.52C563.017 96.52 562.072 97.3 561.802 98.47H566.467C566.212 97.3 565.267 96.52 564.142 96.52ZM575.889 98.11V103H574.374V98.41C574.374 97.3 573.654 96.55 572.574 96.55C571.479 96.55 570.699 97.315 570.699 98.455V103H569.184V95.35H570.699V96.19C571.239 95.56 572.034 95.185 572.949 95.185C574.704 95.185 575.889 96.475 575.889 98.11ZM38.735 118.24V113.35H40.25V117.955C40.25 119.02 40.97 119.815 42.05 119.815C43.145 119.815 43.925 119.02 43.925 117.895V113.35H45.44V121H43.925V120.145C43.4 120.775 42.59 121.15 41.675 121.15C39.92 121.15 38.735 119.875 38.735 118.24ZM53.6138 116.11V121H52.0988V116.41C52.0988 115.3 51.3788 114.55 50.2988 114.55C49.2038 114.55 48.4238 115.315 48.4238 116.455V121H46.9088V113.35H48.4238V114.19C48.9638 113.56 49.7588 113.185 50.6738 113.185C52.4288 113.185 53.6138 114.475 53.6138 116.11ZM59.3156 117.19C59.3156 118.66 60.4706 119.845 61.9106 119.845C62.7956 119.845 63.5606 119.41 64.0556 118.72L65.1656 119.53C64.4156 120.52 63.3506 121.18 61.9106 121.18C59.5856 121.18 57.8006 119.395 57.8006 117.19C57.8006 114.97 59.5856 113.185 61.9106 113.185C63.3506 113.185 64.4156 113.845 65.1656 114.85L64.0556 115.645C63.5606 114.97 62.7956 114.535 61.9106 114.535C60.4706 114.535 59.3156 115.69 59.3156 117.19ZM73.7696 117.175C73.7696 119.38 71.9396 121.18 69.6596 121.18C67.3796 121.18 65.5496 119.38 65.5496 117.175C65.5496 114.97 67.3796 113.185 69.6596 113.185C71.9396 113.185 73.7696 114.97 73.7696 117.175ZM72.2546 117.175C72.2546 115.705 71.0996 114.535 69.6596 114.535C68.2196 114.535 67.0646 115.705 67.0646 117.175C67.0646 118.66 68.2196 119.83 69.6596 119.83C71.0996 119.83 72.2546 118.66 72.2546 117.175ZM74.9606 118.24V113.35H76.4756V117.955C76.4756 119.02 77.1956 119.815 78.2756 119.815C79.3706 119.815 80.1506 119.02 80.1506 117.895V113.35H81.6656V121H80.1506V120.145C79.6256 120.775 78.8156 121.15 77.9006 121.15C76.1456 121.15 74.9606 119.875 74.9606 118.24ZM83.1344 113.35H84.6344V114.31C85.3244 113.605 86.2994 113.17 87.3644 113.17C89.6144 113.17 91.3844 114.97 91.3844 117.175C91.3844 119.395 89.6144 121.165 87.3644 121.165C86.2994 121.165 85.3394 120.745 84.6494 120.04V124.015H83.1344V113.35ZM84.6194 117.175C84.6194 118.645 85.8044 119.83 87.2594 119.83C88.6994 119.83 89.8844 118.645 89.8844 117.175C89.8844 115.705 88.6994 114.52 87.2594 114.52C85.7894 114.52 84.6194 115.705 84.6194 117.175ZM103.536 121H102.036V120.04C101.346 120.745 100.386 121.18 99.3209 121.18C97.0559 121.18 95.2859 119.395 95.2859 117.19C95.2859 114.97 97.0709 113.185 99.3209 113.185C100.371 113.185 101.331 113.605 102.021 114.31V110.5H103.536V121ZM102.051 117.19C102.051 115.705 100.881 114.535 99.4259 114.535C97.9709 114.535 96.8009 115.705 96.8009 117.19C96.8009 118.66 97.9709 119.845 99.4259 119.845C100.881 119.845 102.051 118.66 102.051 117.19ZM105.23 113.545L105.125 110.02H106.535L106.43 113.545H105.23ZM117.585 121.165C116.16 121.165 114.945 120.505 114.24 119.455C113.505 120.49 112.275 121.18 110.895 121.18C108.615 121.18 106.785 119.38 106.785 117.175C106.785 114.97 108.615 113.185 110.895 113.185C112.29 113.185 113.505 113.86 114.24 114.91C114.93 113.875 116.085 113.2 117.435 113.2C119.64 113.2 121.275 114.895 121.275 117.175V117.67H115.05C115.26 118.915 116.28 119.845 117.57 119.845C118.47 119.845 119.205 119.485 119.775 118.72L120.87 119.53C120.12 120.55 118.965 121.165 117.585 121.165ZM117.405 114.52C116.28 114.52 115.35 115.3 115.08 116.47H119.73C119.475 115.3 118.53 114.52 117.405 114.52ZM113.49 117.175C113.49 115.705 112.335 114.535 110.895 114.535C109.455 114.535 108.3 115.705 108.3 117.175C108.3 118.66 109.455 119.83 110.895 119.83C112.335 119.83 113.49 118.66 113.49 117.175ZM123.23 112.285C122.72 112.285 122.315 111.88 122.315 111.37C122.315 110.875 122.72 110.47 123.23 110.47C123.725 110.47 124.115 110.875 124.115 111.37C124.115 111.88 123.725 112.285 123.23 112.285ZM123.98 113.35V121H122.465V113.35H123.98ZM126.969 121H125.454V110.5H126.969V121ZM129.177 119.29C129.702 119.29 130.107 119.71 130.107 120.22C130.107 120.745 129.702 121.15 129.177 121.15C128.667 121.15 128.247 120.745 128.247 120.22C128.247 119.71 128.667 119.29 129.177 119.29Z" fill="#62646C"/>
</svg>
