<svg width="15" height="14" viewBox="0 0 15 14" fill="none" xmlns="http://www.w3.org/2000/svg">
<g clip-path="url(#clip0_307_119)">
<path d="M8.24585 0.461036C8.10795 0.179292 7.81653 0 7.49648 0C7.17644 0 6.88762 0.179292 6.74712 0.461036L5.07405 3.84965L1.33762 4.39265C1.02539 4.43876 0.765189 4.65391 0.668916 4.94846C0.572643 5.24301 0.650702 5.5683 0.874472 5.78601L3.58572 8.42672L2.94564 12.1586C2.8936 12.4659 3.0237 12.7784 3.28129 12.9602C3.53889 13.1421 3.87975 13.1651 4.16076 13.0192L7.49909 11.2647L10.8374 13.0192C11.1184 13.1651 11.4593 13.1447 11.7169 12.9602C11.9745 12.7758 12.1046 12.4659 12.0525 12.1586L11.4098 8.42672L14.1211 5.78601C14.3449 5.5683 14.4255 5.24301 14.3267 4.94846C14.2278 4.65391 13.9702 4.43876 13.6579 4.39265L9.91892 3.84965L8.24585 0.461036Z" fill="#8067B7"/>
</g>
<defs>
<clipPath id="clip0_307_119">
<rect width="14.9873" height="13.1139" fill="white"/>
</clipPath>
</defs>
</svg>
