<svg width="194" height="38" viewBox="0 0 194 38" fill="none" xmlns="http://www.w3.org/2000/svg">
<path d="M4.62725 19L0.467248 7.08H2.83525L6.09925 16.952H5.63525L8.89925 7.08H11.2672L7.12325 19H4.62725ZM15.5626 19.192C14.7093 19.192 13.9306 18.9947 13.2266 18.6C12.5333 18.2053 11.9786 17.6667 11.5626 16.984C11.1573 16.3013 10.9546 15.5227 10.9546 14.648C10.9546 13.7733 11.1573 12.9947 11.5626 12.312C11.9786 11.6293 12.5333 11.0907 13.2266 10.696C13.92 10.3013 14.6986 10.104 15.5626 10.104C16.416 10.104 17.1893 10.3013 17.8826 10.696C18.576 11.0907 19.1253 11.6293 19.5306 12.312C19.9466 12.984 20.1546 13.7627 20.1546 14.648C20.1546 15.5227 19.9466 16.3013 19.5306 16.984C19.1146 17.6667 18.56 18.2053 17.8666 18.6C17.1733 18.9947 16.4053 19.192 15.5626 19.192ZM15.5626 17.272C16.032 17.272 16.4426 17.16 16.7946 16.936C17.1573 16.712 17.44 16.4027 17.6426 16.008C17.856 15.6027 17.9626 15.1493 17.9626 14.648C17.9626 14.136 17.856 13.688 17.6426 13.304C17.44 12.9093 17.1573 12.6 16.7946 12.376C16.4426 12.1413 16.032 12.024 15.5626 12.024C15.0826 12.024 14.6613 12.1413 14.2986 12.376C13.936 12.6 13.648 12.9093 13.4346 13.304C13.232 13.688 13.1306 14.136 13.1306 14.648C13.1306 15.1493 13.232 15.6027 13.4346 16.008C13.648 16.4027 13.936 16.712 14.2986 16.936C14.6613 17.16 15.0826 17.272 15.5626 17.272ZM24.7361 19.192C23.8081 19.192 22.9975 18.9733 22.3041 18.536C21.6215 18.088 21.1521 17.4853 20.8961 16.728L22.4641 15.976C22.6881 16.4667 22.9975 16.8507 23.3921 17.128C23.7975 17.4053 24.2455 17.544 24.7361 17.544C25.1201 17.544 25.4241 17.4587 25.6481 17.288C25.8721 17.1173 25.9841 16.8933 25.9841 16.616C25.9841 16.4453 25.9361 16.3067 25.8401 16.2C25.7548 16.0827 25.6321 15.9867 25.4721 15.912C25.3228 15.8267 25.1575 15.7573 24.9761 15.704L23.5521 15.304C22.8161 15.0907 22.2561 14.7653 21.8721 14.328C21.4988 13.8907 21.3121 13.3733 21.3121 12.776C21.3121 12.2427 21.4455 11.7787 21.7121 11.384C21.9895 10.9787 22.3681 10.664 22.8481 10.44C23.3388 10.216 23.8988 10.104 24.5281 10.104C25.3495 10.104 26.0748 10.3013 26.7041 10.696C27.3335 11.0907 27.7815 11.6453 28.0481 12.36L26.4481 13.112C26.2988 12.7173 26.0481 12.4027 25.6961 12.168C25.3441 11.9333 24.9495 11.816 24.5121 11.816C24.1601 11.816 23.8828 11.896 23.6801 12.056C23.4775 12.216 23.3761 12.424 23.3761 12.68C23.3761 12.84 23.4188 12.9787 23.5041 13.096C23.5895 13.2133 23.7068 13.3093 23.8561 13.384C24.0161 13.4587 24.1975 13.528 24.4001 13.592L25.7921 14.008C26.5068 14.2213 27.0561 14.5413 27.4401 14.968C27.8348 15.3947 28.0321 15.9173 28.0321 16.536C28.0321 17.0587 27.8935 17.5227 27.6161 17.928C27.3388 18.3227 26.9548 18.632 26.4641 18.856C25.9735 19.08 25.3975 19.192 24.7361 19.192ZM36.0386 19.192C35.1746 19.192 34.396 18.9947 33.7026 18.6C33.02 18.1947 32.4813 17.6507 32.0866 16.968C31.692 16.2747 31.4946 15.496 31.4946 14.632C31.4946 13.768 31.692 12.9947 32.0866 12.312C32.4813 11.6293 33.02 11.0907 33.7026 10.696C34.396 10.3013 35.1746 10.104 36.0386 10.104C36.6573 10.104 37.2333 10.216 37.7666 10.44C38.3 10.6533 38.7586 10.952 39.1426 11.336C39.5373 11.7093 39.82 12.1573 39.9906 12.68L38.1506 13.48C37.9906 13.0427 37.7186 12.6907 37.3346 12.424C36.9613 12.1573 36.5293 12.024 36.0386 12.024C35.58 12.024 35.1693 12.136 34.8066 12.36C34.4546 12.584 34.1773 12.8933 33.9746 13.288C33.772 13.6827 33.6706 14.136 33.6706 14.648C33.6706 15.16 33.772 15.6133 33.9746 16.008C34.1773 16.4027 34.4546 16.712 34.8066 16.936C35.1693 17.16 35.58 17.272 36.0386 17.272C36.54 17.272 36.9773 17.1387 37.3506 16.872C37.724 16.6053 37.9906 16.248 38.1506 15.8L39.9906 16.632C39.82 17.1227 39.5426 17.5653 39.1586 17.96C38.7746 18.344 38.316 18.648 37.7826 18.872C37.2493 19.0853 36.668 19.192 36.0386 19.192ZM41.261 19V10.296H43.229V12.232L43.069 11.944C43.2717 11.2933 43.5863 10.84 44.013 10.584C44.4503 10.328 44.973 10.2 45.581 10.2H46.093V12.056H45.341C44.7437 12.056 44.2637 12.2427 43.901 12.616C43.5383 12.9787 43.357 13.4907 43.357 14.152V19H41.261ZM46.9254 19V10.296H49.0214V19H46.9254ZM46.9254 9.32V7.08H49.0214V9.32H46.9254ZM54.6046 19.096C53.6233 19.096 52.8606 18.8293 52.3166 18.296C51.7833 17.752 51.5166 16.9893 51.5166 16.008V12.168H50.0126V10.296H50.1726C50.5993 10.296 50.93 10.184 51.1646 9.96C51.3993 9.736 51.5166 9.41067 51.5166 8.984V8.312H53.6126V10.296H55.6126V12.168H53.6126V15.896C53.6126 16.184 53.6606 16.4293 53.7566 16.632C53.8633 16.8347 54.0233 16.9893 54.2366 17.096C54.4606 17.2027 54.7433 17.256 55.0846 17.256C55.1593 17.256 55.2446 17.2507 55.3406 17.24C55.4473 17.2293 55.5486 17.2187 55.6446 17.208V19C55.4953 19.0213 55.3246 19.0427 55.1326 19.064C54.9406 19.0853 54.7646 19.096 54.6046 19.096ZM60.9759 19.192C60.0799 19.192 59.2959 18.9893 58.6239 18.584C57.9519 18.1787 57.4292 17.6293 57.0559 16.936C56.6825 16.2427 56.4959 15.4747 56.4959 14.632C56.4959 13.7573 56.6825 12.984 57.0559 12.312C57.4399 11.6293 57.9572 11.0907 58.6079 10.696C59.2692 10.3013 60.0052 10.104 60.8159 10.104C61.4985 10.104 62.0959 10.216 62.6079 10.44C63.1305 10.664 63.5732 10.9733 63.9359 11.368C64.2985 11.7627 64.5759 12.216 64.7679 12.728C64.9599 13.2293 65.0559 13.7733 65.0559 14.36C65.0559 14.5093 65.0452 14.664 65.0239 14.824C65.0132 14.984 64.9865 15.1227 64.9439 15.24H58.2239V13.64H63.7599L62.7679 14.392C62.8639 13.9013 62.8372 13.464 62.6879 13.08C62.5492 12.696 62.3145 12.392 61.9839 12.168C61.6639 11.944 61.2745 11.832 60.8159 11.832C60.3785 11.832 59.9892 11.944 59.6479 12.168C59.3065 12.3813 59.0452 12.7013 58.8639 13.128C58.6932 13.544 58.6292 14.0507 58.6719 14.648C58.6292 15.1813 58.6985 15.656 58.8799 16.072C59.0719 16.4773 59.3492 16.792 59.7119 17.016C60.0852 17.24 60.5119 17.352 60.9919 17.352C61.4719 17.352 61.8772 17.2507 62.2079 17.048C62.5492 16.8453 62.8159 16.5733 63.0079 16.232L64.7039 17.064C64.5332 17.48 64.2665 17.848 63.9039 18.168C63.5412 18.488 63.1092 18.7387 62.6079 18.92C62.1172 19.1013 61.5732 19.192 60.9759 19.192ZM59.7439 8.76L58.0479 5.992H60.7679L61.8079 8.76H59.7439ZM66.3248 19V10.296H68.2928V12.232L68.1328 11.944C68.3354 11.2933 68.6501 10.84 69.0768 10.584C69.5141 10.328 70.0368 10.2 70.6448 10.2H71.1568V12.056H70.4048C69.8074 12.056 69.3274 12.2427 68.9648 12.616C68.6021 12.9787 68.4208 13.4907 68.4208 14.152V19H66.3248ZM76.1171 19.192C75.2211 19.192 74.4371 18.9893 73.7651 18.584C73.0931 18.1787 72.5705 17.6293 72.1971 16.936C71.8238 16.2427 71.6371 15.4747 71.6371 14.632C71.6371 13.7573 71.8238 12.984 72.1971 12.312C72.5811 11.6293 73.0985 11.0907 73.7491 10.696C74.4105 10.3013 75.1465 10.104 75.9571 10.104C76.6398 10.104 77.2371 10.216 77.7491 10.44C78.2718 10.664 78.7145 10.9733 79.0771 11.368C79.4398 11.7627 79.7171 12.216 79.9091 12.728C80.1011 13.2293 80.1971 13.7733 80.1971 14.36C80.1971 14.5093 80.1865 14.664 80.1651 14.824C80.1545 14.984 80.1278 15.1227 80.0851 15.24H73.3651V13.64H78.9011L77.9091 14.392C78.0051 13.9013 77.9785 13.464 77.8291 13.08C77.6905 12.696 77.4558 12.392 77.1251 12.168C76.8051 11.944 76.4158 11.832 75.9571 11.832C75.5198 11.832 75.1305 11.944 74.7891 12.168C74.4478 12.3813 74.1865 12.7013 74.0051 13.128C73.8345 13.544 73.7705 14.0507 73.8131 14.648C73.7705 15.1813 73.8398 15.656 74.0211 16.072C74.2131 16.4773 74.4905 16.792 74.8531 17.016C75.2265 17.24 75.6531 17.352 76.1331 17.352C76.6131 17.352 77.0185 17.2507 77.3491 17.048C77.6905 16.8453 77.9571 16.5733 78.1491 16.232L79.8451 17.064C79.6745 17.48 79.4078 17.848 79.0451 18.168C78.6825 18.488 78.2505 18.7387 77.7491 18.92C77.2585 19.1013 76.7145 19.192 76.1171 19.192ZM84.778 19.192C83.85 19.192 83.0393 18.9733 82.346 18.536C81.6633 18.088 81.194 17.4853 80.938 16.728L82.506 15.976C82.73 16.4667 83.0393 16.8507 83.434 17.128C83.8393 17.4053 84.2873 17.544 84.778 17.544C85.162 17.544 85.466 17.4587 85.69 17.288C85.914 17.1173 86.026 16.8933 86.026 16.616C86.026 16.4453 85.978 16.3067 85.882 16.2C85.7967 16.0827 85.674 15.9867 85.514 15.912C85.3647 15.8267 85.1993 15.7573 85.018 15.704L83.594 15.304C82.858 15.0907 82.298 14.7653 81.914 14.328C81.5407 13.8907 81.354 13.3733 81.354 12.776C81.354 12.2427 81.4873 11.7787 81.754 11.384C82.0313 10.9787 82.41 10.664 82.89 10.44C83.3807 10.216 83.9407 10.104 84.57 10.104C85.3913 10.104 86.1167 10.3013 86.746 10.696C87.3753 11.0907 87.8233 11.6453 88.09 12.36L86.49 13.112C86.3407 12.7173 86.09 12.4027 85.738 12.168C85.386 11.9333 84.9913 11.816 84.554 11.816C84.202 11.816 83.9247 11.896 83.722 12.056C83.5193 12.216 83.418 12.424 83.418 12.68C83.418 12.84 83.4607 12.9787 83.546 13.096C83.6313 13.2133 83.7487 13.3093 83.898 13.384C84.058 13.4587 84.2393 13.528 84.442 13.592L85.834 14.008C86.5487 14.2213 87.098 14.5413 87.482 14.968C87.8767 15.3947 88.074 15.9173 88.074 16.536C88.074 17.0587 87.9353 17.5227 87.658 17.928C87.3807 18.3227 86.9967 18.632 86.506 18.856C86.0153 19.08 85.4393 19.192 84.778 19.192Z" fill="white"/>
<path d="M7.86394 35.108C7.50994 35.108 7.17094 35.042 6.84694 34.91C6.52894 34.778 6.25294 34.592 6.01894 34.352C5.79094 34.106 5.63494 33.815 5.55094 33.479L6.61294 33.101C6.71494 33.407 6.87994 33.635 7.10794 33.785C7.33594 33.929 7.58794 34.001 7.86394 34.001C8.09194 34.001 8.29294 33.953 8.46694 33.857C8.64694 33.755 8.78494 33.617 8.88094 33.443C8.97694 33.263 9.02494 33.056 9.02494 32.822C9.02494 32.588 8.97394 32.384 8.87194 32.21C8.77594 32.036 8.64094 31.901 8.46694 31.805C8.29294 31.703 8.09194 31.652 7.86394 31.652C7.62994 31.652 7.41694 31.703 7.22494 31.805C7.03894 31.907 6.90394 32.054 6.81994 32.246L5.82094 32.021L6.35194 28.295H10.0059V29.33H6.83794L7.29694 28.799L6.91894 31.607L6.56794 31.319C6.73594 31.073 6.93994 30.893 7.17994 30.779C7.42594 30.665 7.72294 30.608 8.07094 30.608C8.51494 30.608 8.89894 30.704 9.22294 30.896C9.55294 31.088 9.80794 31.349 9.98794 31.679C10.1679 32.009 10.2579 32.39 10.2579 32.822C10.2579 33.254 10.1529 33.644 9.94294 33.992C9.73294 34.34 9.44794 34.613 9.08794 34.811C8.72794 35.009 8.31994 35.108 7.86394 35.108ZM14.8747 35.108C14.3887 35.108 13.9507 34.997 13.5607 34.775C13.1767 34.547 12.8737 34.241 12.6517 33.857C12.4297 33.467 12.3187 33.029 12.3187 32.543C12.3187 32.057 12.4297 31.622 12.6517 31.238C12.8737 30.854 13.1767 30.551 13.5607 30.329C13.9507 30.107 14.3887 29.996 14.8747 29.996C15.2227 29.996 15.5467 30.059 15.8467 30.185C16.1467 30.305 16.4047 30.473 16.6207 30.689C16.8427 30.899 17.0017 31.151 17.0977 31.445L16.0627 31.895C15.9727 31.649 15.8197 31.451 15.6037 31.301C15.3937 31.151 15.1507 31.076 14.8747 31.076C14.6167 31.076 14.3857 31.139 14.1817 31.265C13.9837 31.391 13.8277 31.565 13.7137 31.787C13.5997 32.009 13.5427 32.264 13.5427 32.552C13.5427 32.84 13.5997 33.095 13.7137 33.317C13.8277 33.539 13.9837 33.713 14.1817 33.839C14.3857 33.965 14.6167 34.028 14.8747 34.028C15.1567 34.028 15.4027 33.953 15.6127 33.803C15.8227 33.653 15.9727 33.452 16.0627 33.2L17.0977 33.668C17.0017 33.944 16.8457 34.193 16.6297 34.415C16.4137 34.631 16.1557 34.802 15.8557 34.928C15.5557 35.048 15.2287 35.108 14.8747 35.108ZM17.8122 35V30.104H18.9192V31.193L18.8292 31.031C18.9432 30.665 19.1202 30.41 19.3602 30.266C19.6062 30.122 19.9002 30.05 20.2422 30.05H20.5302V31.094H20.1072C19.7712 31.094 19.5012 31.199 19.2972 31.409C19.0932 31.613 18.9912 31.901 18.9912 32.273V35H17.8122ZM20.9985 35V30.104H22.1775V35H20.9985ZM20.9985 29.555V28.295H22.1775V29.555H20.9985ZM25.318 35.054C24.766 35.054 24.337 34.904 24.031 34.604C23.731 34.298 23.581 33.869 23.581 33.317V31.157H22.735V30.104H22.825C23.065 30.104 23.251 30.041 23.383 29.915C23.515 29.789 23.581 29.606 23.581 29.366V28.988H24.76V30.104H25.885V31.157H24.76V33.254C24.76 33.416 24.787 33.554 24.841 33.668C24.901 33.782 24.991 33.869 25.111 33.929C25.237 33.989 25.396 34.019 25.588 34.019C25.63 34.019 25.678 34.016 25.732 34.01C25.792 34.004 25.849 33.998 25.903 33.992V35C25.819 35.012 25.723 35.024 25.615 35.036C25.507 35.048 25.408 35.054 25.318 35.054ZM28.9019 35.108C28.3979 35.108 27.9569 34.994 27.5789 34.766C27.2009 34.538 26.9069 34.229 26.6969 33.839C26.4869 33.449 26.3819 33.017 26.3819 32.543C26.3819 32.051 26.4869 31.616 26.6969 31.238C26.9129 30.854 27.2039 30.551 27.5699 30.329C27.9419 30.107 28.3559 29.996 28.8119 29.996C29.1959 29.996 29.5319 30.059 29.8199 30.185C30.1139 30.311 30.3629 30.485 30.5669 30.707C30.7709 30.929 30.9269 31.184 31.0349 31.472C31.1429 31.754 31.1969 32.06 31.1969 32.39C31.1969 32.474 31.1909 32.561 31.1789 32.651C31.1729 32.741 31.1579 32.819 31.1339 32.885H27.3539V31.985H30.4679L29.9099 32.408C29.9639 32.132 29.9489 31.886 29.8649 31.67C29.7869 31.454 29.6549 31.283 29.4689 31.157C29.2889 31.031 29.0699 30.968 28.8119 30.968C28.5659 30.968 28.3469 31.031 28.1549 31.157C27.9629 31.277 27.8159 31.457 27.7139 31.697C27.6179 31.931 27.5819 32.216 27.6059 32.552C27.5819 32.852 27.6209 33.119 27.7229 33.353C27.8309 33.581 27.9869 33.758 28.1909 33.884C28.4009 34.01 28.6409 34.073 28.9109 34.073C29.1809 34.073 29.4089 34.016 29.5949 33.902C29.7869 33.788 29.9369 33.635 30.0449 33.443L30.9989 33.911C30.9029 34.145 30.7529 34.352 30.5489 34.532C30.3449 34.712 30.1019 34.853 29.8199 34.955C29.5439 35.057 29.2379 35.108 28.9019 35.108ZM28.2089 29.24L27.2549 27.683H28.7849L29.3699 29.24H28.2089ZM31.9106 35V30.104H33.0176V31.193L32.9276 31.031C33.0416 30.665 33.2186 30.41 33.4586 30.266C33.7046 30.122 33.9986 30.05 34.3406 30.05H34.6286V31.094H34.2056C33.8696 31.094 33.5996 31.199 33.3956 31.409C33.1916 31.613 33.0896 31.901 33.0896 32.273V35H31.9106ZM37.4188 35.108C36.9148 35.108 36.4738 34.994 36.0958 34.766C35.7178 34.538 35.4238 34.229 35.2138 33.839C35.0038 33.449 34.8988 33.017 34.8988 32.543C34.8988 32.051 35.0038 31.616 35.2138 31.238C35.4298 30.854 35.7208 30.551 36.0868 30.329C36.4588 30.107 36.8728 29.996 37.3288 29.996C37.7128 29.996 38.0488 30.059 38.3368 30.185C38.6308 30.311 38.8798 30.485 39.0838 30.707C39.2878 30.929 39.4438 31.184 39.5518 31.472C39.6598 31.754 39.7138 32.06 39.7138 32.39C39.7138 32.474 39.7078 32.561 39.6958 32.651C39.6898 32.741 39.6748 32.819 39.6508 32.885H35.8708V31.985H38.9848L38.4268 32.408C38.4808 32.132 38.4658 31.886 38.3818 31.67C38.3038 31.454 38.1718 31.283 37.9858 31.157C37.8058 31.031 37.5868 30.968 37.3288 30.968C37.0828 30.968 36.8638 31.031 36.6718 31.157C36.4798 31.277 36.3328 31.457 36.2308 31.697C36.1348 31.931 36.0988 32.216 36.1228 32.552C36.0988 32.852 36.1378 33.119 36.2398 33.353C36.3478 33.581 36.5038 33.758 36.7078 33.884C36.9178 34.01 37.1578 34.073 37.4278 34.073C37.6978 34.073 37.9258 34.016 38.1118 33.902C38.3038 33.788 38.4538 33.635 38.5618 33.443L39.5158 33.911C39.4198 34.145 39.2698 34.352 39.0658 34.532C38.8618 34.712 38.6188 34.853 38.3368 34.955C38.0608 35.057 37.7548 35.108 37.4188 35.108ZM42.2906 35.108C41.7686 35.108 41.3126 34.985 40.9226 34.739C40.5386 34.487 40.2746 34.148 40.1306 33.722L41.0126 33.299C41.1386 33.575 41.3126 33.791 41.5346 33.947C41.7626 34.103 42.0146 34.181 42.2906 34.181C42.5066 34.181 42.6776 34.133 42.8036 34.037C42.9296 33.941 42.9926 33.815 42.9926 33.659C42.9926 33.563 42.9656 33.485 42.9116 33.425C42.8636 33.359 42.7946 33.305 42.7046 33.263C42.6206 33.215 42.5276 33.176 42.4256 33.146L41.6246 32.921C41.2106 32.801 40.8956 32.618 40.6796 32.372C40.4696 32.126 40.3646 31.835 40.3646 31.499C40.3646 31.199 40.4396 30.938 40.5896 30.716C40.7456 30.488 40.9586 30.311 41.2286 30.185C41.5046 30.059 41.8196 29.996 42.1736 29.996C42.6356 29.996 43.0436 30.107 43.3976 30.329C43.7516 30.551 44.0036 30.863 44.1536 31.265L43.2536 31.688C43.1696 31.466 43.0286 31.289 42.8306 31.157C42.6326 31.025 42.4106 30.959 42.1646 30.959C41.9666 30.959 41.8106 31.004 41.6966 31.094C41.5826 31.184 41.5256 31.301 41.5256 31.445C41.5256 31.535 41.5496 31.613 41.5976 31.679C41.6456 31.745 41.7116 31.799 41.7956 31.841C41.8856 31.883 41.9876 31.922 42.1016 31.958L42.8846 32.192C43.2866 32.312 43.5956 32.492 43.8116 32.732C44.0336 32.972 44.1446 33.266 44.1446 33.614C44.1446 33.908 44.0666 34.169 43.9106 34.397C43.7546 34.619 43.5386 34.793 43.2626 34.919C42.9866 35.045 42.6626 35.108 42.2906 35.108ZM48.1532 35.108C47.6312 35.108 47.1752 34.985 46.7852 34.739C46.4012 34.487 46.1372 34.148 45.9932 33.722L46.8752 33.299C47.0012 33.575 47.1752 33.791 47.3972 33.947C47.6252 34.103 47.8772 34.181 48.1532 34.181C48.3692 34.181 48.5402 34.133 48.6662 34.037C48.7922 33.941 48.8552 33.815 48.8552 33.659C48.8552 33.563 48.8282 33.485 48.7742 33.425C48.7262 33.359 48.6572 33.305 48.5672 33.263C48.4832 33.215 48.3902 33.176 48.2882 33.146L47.4872 32.921C47.0732 32.801 46.7582 32.618 46.5422 32.372C46.3322 32.126 46.2272 31.835 46.2272 31.499C46.2272 31.199 46.3022 30.938 46.4522 30.716C46.6082 30.488 46.8212 30.311 47.0912 30.185C47.3672 30.059 47.6822 29.996 48.0362 29.996C48.4982 29.996 48.9062 30.107 49.2602 30.329C49.6142 30.551 49.8662 30.863 50.0162 31.265L49.1162 31.688C49.0322 31.466 48.8912 31.289 48.6932 31.157C48.4952 31.025 48.2732 30.959 48.0272 30.959C47.8292 30.959 47.6732 31.004 47.5592 31.094C47.4452 31.184 47.3882 31.301 47.3882 31.445C47.3882 31.535 47.4122 31.613 47.4602 31.679C47.5082 31.745 47.5742 31.799 47.6582 31.841C47.7482 31.883 47.8502 31.922 47.9642 31.958L48.7472 32.192C49.1492 32.312 49.4582 32.492 49.6742 32.732C49.8962 32.972 50.0072 33.266 50.0072 33.614C50.0072 33.908 49.9292 34.169 49.7732 34.397C49.6172 34.619 49.4012 34.793 49.1252 34.919C48.8492 35.045 48.5252 35.108 48.1532 35.108ZM53.0553 35.108C52.5513 35.108 52.1103 34.994 51.7323 34.766C51.3543 34.538 51.0603 34.229 50.8503 33.839C50.6403 33.449 50.5353 33.017 50.5353 32.543C50.5353 32.051 50.6403 31.616 50.8503 31.238C51.0663 30.854 51.3573 30.551 51.7233 30.329C52.0953 30.107 52.5093 29.996 52.9653 29.996C53.3493 29.996 53.6853 30.059 53.9733 30.185C54.2673 30.311 54.5163 30.485 54.7203 30.707C54.9243 30.929 55.0803 31.184 55.1883 31.472C55.2963 31.754 55.3503 32.06 55.3503 32.39C55.3503 32.474 55.3443 32.561 55.3323 32.651C55.3263 32.741 55.3113 32.819 55.2873 32.885H51.5073V31.985H54.6213L54.0633 32.408C54.1173 32.132 54.1023 31.886 54.0183 31.67C53.9403 31.454 53.8083 31.283 53.6223 31.157C53.4423 31.031 53.2233 30.968 52.9653 30.968C52.7193 30.968 52.5003 31.031 52.3083 31.157C52.1163 31.277 51.9693 31.457 51.8673 31.697C51.7713 31.931 51.7353 32.216 51.7593 32.552C51.7353 32.852 51.7743 33.119 51.8763 33.353C51.9843 33.581 52.1403 33.758 52.3443 33.884C52.5543 34.01 52.7943 34.073 53.0643 34.073C53.3343 34.073 53.5623 34.016 53.7483 33.902C53.9403 33.788 54.0903 33.635 54.1983 33.443L55.1523 33.911C55.0563 34.145 54.9063 34.352 54.7023 34.532C54.4983 34.712 54.2553 34.853 53.9733 34.955C53.6973 35.057 53.3913 35.108 53.0553 35.108ZM52.3623 29.24L52.9473 27.683H54.4773L53.5233 29.24H52.3623ZM56.064 35V28.187H57.243V35H56.064ZM60.4736 35.108C59.9696 35.108 59.5286 34.994 59.1506 34.766C58.7726 34.538 58.4786 34.229 58.2686 33.839C58.0586 33.449 57.9536 33.017 57.9536 32.543C57.9536 32.051 58.0586 31.616 58.2686 31.238C58.4846 30.854 58.7756 30.551 59.1416 30.329C59.5136 30.107 59.9276 29.996 60.3836 29.996C60.7676 29.996 61.1036 30.059 61.3916 30.185C61.6856 30.311 61.9346 30.485 62.1386 30.707C62.3426 30.929 62.4986 31.184 62.6066 31.472C62.7146 31.754 62.7686 32.06 62.7686 32.39C62.7686 32.474 62.7626 32.561 62.7506 32.651C62.7446 32.741 62.7296 32.819 62.7056 32.885H58.9256V31.985H62.0396L61.4816 32.408C61.5356 32.132 61.5206 31.886 61.4366 31.67C61.3586 31.454 61.2266 31.283 61.0406 31.157C60.8606 31.031 60.6416 30.968 60.3836 30.968C60.1376 30.968 59.9186 31.031 59.7266 31.157C59.5346 31.277 59.3876 31.457 59.2856 31.697C59.1896 31.931 59.1536 32.216 59.1776 32.552C59.1536 32.852 59.1926 33.119 59.2946 33.353C59.4026 33.581 59.5586 33.758 59.7626 33.884C59.9726 34.01 60.2126 34.073 60.4826 34.073C60.7526 34.073 60.9806 34.016 61.1666 33.902C61.3586 33.788 61.5086 33.635 61.6166 33.443L62.5706 33.911C62.4746 34.145 62.3246 34.352 62.1206 34.532C61.9166 34.712 61.6736 34.853 61.3916 34.955C61.1156 35.057 60.8096 35.108 60.4736 35.108ZM65.8403 35.108C65.3543 35.108 64.9163 34.997 64.5263 34.775C64.1423 34.547 63.8393 34.241 63.6173 33.857C63.3953 33.467 63.2843 33.029 63.2843 32.543C63.2843 32.057 63.3953 31.622 63.6173 31.238C63.8393 30.854 64.1423 30.551 64.5263 30.329C64.9163 30.107 65.3543 29.996 65.8403 29.996C66.1883 29.996 66.5123 30.059 66.8123 30.185C67.1123 30.305 67.3703 30.473 67.5863 30.689C67.8083 30.899 67.9673 31.151 68.0633 31.445L67.0283 31.895C66.9383 31.649 66.7853 31.451 66.5693 31.301C66.3593 31.151 66.1163 31.076 65.8403 31.076C65.5823 31.076 65.3513 31.139 65.1473 31.265C64.9493 31.391 64.7933 31.565 64.6793 31.787C64.5653 32.009 64.5083 32.264 64.5083 32.552C64.5083 32.84 64.5653 33.095 64.6793 33.317C64.7933 33.539 64.9493 33.713 65.1473 33.839C65.3513 33.965 65.5823 34.028 65.8403 34.028C66.1223 34.028 66.3683 33.953 66.5783 33.803C66.7883 33.653 66.9383 33.452 67.0283 33.2L68.0633 33.668C67.9673 33.944 67.8113 34.193 67.5953 34.415C67.3793 34.631 67.1213 34.802 66.8213 34.928C66.5213 35.048 66.1943 35.108 65.8403 35.108ZM71.0099 35.054C70.4579 35.054 70.0289 34.904 69.7229 34.604C69.4229 34.298 69.2729 33.869 69.2729 33.317V31.157H68.4269V30.104H68.5169C68.7569 30.104 68.9429 30.041 69.0749 29.915C69.2069 29.789 69.2729 29.606 69.2729 29.366V28.988H70.4519V30.104H71.5769V31.157H70.4519V33.254C70.4519 33.416 70.4789 33.554 70.5329 33.668C70.5929 33.782 70.6829 33.869 70.8029 33.929C70.9289 33.989 71.0879 34.019 71.2799 34.019C71.3219 34.019 71.3699 34.016 71.4239 34.01C71.4839 34.004 71.5409 33.998 71.5949 33.992V35C71.5109 35.012 71.4149 35.024 71.3069 35.036C71.1989 35.048 71.0999 35.054 71.0099 35.054ZM72.3157 35V30.104H73.4947V35H72.3157ZM72.3157 29.555V28.295H73.4947V29.555H72.3157ZM76.7973 35.108C76.3173 35.108 75.8793 34.997 75.4833 34.775C75.0933 34.553 74.7813 34.25 74.5473 33.866C74.3193 33.482 74.2053 33.044 74.2053 32.552C74.2053 32.06 74.3193 31.622 74.5473 31.238C74.7813 30.854 75.0933 30.551 75.4833 30.329C75.8733 30.107 76.3113 29.996 76.7973 29.996C77.2773 29.996 77.7123 30.107 78.1023 30.329C78.4923 30.551 78.8013 30.854 79.0293 31.238C79.2633 31.616 79.3803 32.054 79.3803 32.552C79.3803 33.044 79.2633 33.482 79.0293 33.866C78.7953 34.25 78.4833 34.553 78.0933 34.775C77.7033 34.997 77.2713 35.108 76.7973 35.108ZM76.7973 34.028C77.0613 34.028 77.2923 33.965 77.4903 33.839C77.6943 33.713 77.8533 33.539 77.9673 33.317C78.0873 33.089 78.1473 32.834 78.1473 32.552C78.1473 32.264 78.0873 32.012 77.9673 31.796C77.8533 31.574 77.6943 31.4 77.4903 31.274C77.2923 31.142 77.0613 31.076 76.7973 31.076C76.5273 31.076 76.2903 31.142 76.0863 31.274C75.8823 31.4 75.7203 31.574 75.6003 31.796C75.4863 32.012 75.4293 32.264 75.4293 32.552C75.4293 32.834 75.4863 33.089 75.6003 33.317C75.7203 33.539 75.8823 33.713 76.0863 33.839C76.2903 33.965 76.5273 34.028 76.7973 34.028ZM80.0943 35V30.104H81.2013V31.067L81.1113 30.896C81.2253 30.602 81.4113 30.38 81.6693 30.23C81.9333 30.074 82.2393 29.996 82.5873 29.996C82.9473 29.996 83.2653 30.074 83.5413 30.23C83.8233 30.386 84.0423 30.605 84.1983 30.887C84.3543 31.163 84.4323 31.484 84.4323 31.85V35H83.2533V32.129C83.2533 31.913 83.2113 31.727 83.1273 31.571C83.0433 31.415 82.9263 31.295 82.7763 31.211C82.6323 31.121 82.4613 31.076 82.2633 31.076C82.0713 31.076 81.9003 31.121 81.7503 31.211C81.6003 31.295 81.4833 31.415 81.3993 31.571C81.3153 31.727 81.2733 31.913 81.2733 32.129V35H80.0943ZM85.2493 35V30.104H86.3563V31.067L86.2663 30.896C86.3803 30.602 86.5663 30.38 86.8243 30.23C87.0883 30.074 87.3943 29.996 87.7423 29.996C88.1023 29.996 88.4203 30.074 88.6963 30.23C88.9783 30.386 89.1973 30.605 89.3533 30.887C89.5093 31.163 89.5873 31.484 89.5873 31.85V35H88.4083V32.129C88.4083 31.913 88.3663 31.727 88.2823 31.571C88.1983 31.415 88.0813 31.295 87.9313 31.211C87.7873 31.121 87.6163 31.076 87.4183 31.076C87.2263 31.076 87.0553 31.121 86.9053 31.211C86.7553 31.295 86.6383 31.415 86.5543 31.571C86.4703 31.727 86.4283 31.913 86.4283 32.129V35H85.2493ZM92.7263 35.108C92.2223 35.108 91.7813 34.994 91.4033 34.766C91.0253 34.538 90.7313 34.229 90.5213 33.839C90.3113 33.449 90.2063 33.017 90.2063 32.543C90.2063 32.051 90.3113 31.616 90.5213 31.238C90.7373 30.854 91.0283 30.551 91.3943 30.329C91.7663 30.107 92.1803 29.996 92.6363 29.996C93.0203 29.996 93.3563 30.059 93.6443 30.185C93.9383 30.311 94.1873 30.485 94.3913 30.707C94.5953 30.929 94.7513 31.184 94.8593 31.472C94.9673 31.754 95.0213 32.06 95.0213 32.39C95.0213 32.474 95.0153 32.561 95.0033 32.651C94.9973 32.741 94.9823 32.819 94.9583 32.885H91.1783V31.985H94.2923L93.7343 32.408C93.7883 32.132 93.7733 31.886 93.6893 31.67C93.6113 31.454 93.4793 31.283 93.2933 31.157C93.1133 31.031 92.8943 30.968 92.6363 30.968C92.3903 30.968 92.1713 31.031 91.9793 31.157C91.7873 31.277 91.6403 31.457 91.5383 31.697C91.4423 31.931 91.4063 32.216 91.4303 32.552C91.4063 32.852 91.4453 33.119 91.5473 33.353C91.6553 33.581 91.8113 33.758 92.0153 33.884C92.2253 34.01 92.4653 34.073 92.7353 34.073C93.0053 34.073 93.2333 34.016 93.4193 33.902C93.6113 33.788 93.7613 33.635 93.8693 33.443L94.8233 33.911C94.7273 34.145 94.5773 34.352 94.3733 34.532C94.1693 34.712 93.9263 34.853 93.6443 34.955C93.3683 35.057 93.0623 35.108 92.7263 35.108ZM92.0333 29.24L92.6183 27.683H94.1483L93.1943 29.24H92.0333ZM97.598 35.108C97.076 35.108 96.62 34.985 96.23 34.739C95.846 34.487 95.582 34.148 95.438 33.722L96.32 33.299C96.446 33.575 96.62 33.791 96.842 33.947C97.07 34.103 97.322 34.181 97.598 34.181C97.814 34.181 97.985 34.133 98.111 34.037C98.237 33.941 98.3 33.815 98.3 33.659C98.3 33.563 98.273 33.485 98.219 33.425C98.171 33.359 98.102 33.305 98.012 33.263C97.928 33.215 97.835 33.176 97.733 33.146L96.932 32.921C96.518 32.801 96.203 32.618 95.987 32.372C95.777 32.126 95.672 31.835 95.672 31.499C95.672 31.199 95.747 30.938 95.897 30.716C96.053 30.488 96.266 30.311 96.536 30.185C96.812 30.059 97.127 29.996 97.481 29.996C97.943 29.996 98.351 30.107 98.705 30.329C99.059 30.551 99.311 30.863 99.461 31.265L98.561 31.688C98.477 31.466 98.336 31.289 98.138 31.157C97.94 31.025 97.718 30.959 97.472 30.959C97.274 30.959 97.118 31.004 97.004 31.094C96.89 31.184 96.833 31.301 96.833 31.445C96.833 31.535 96.857 31.613 96.905 31.679C96.953 31.745 97.019 31.799 97.103 31.841C97.193 31.883 97.295 31.922 97.409 31.958L98.192 32.192C98.594 32.312 98.903 32.492 99.119 32.732C99.341 32.972 99.452 33.266 99.452 33.614C99.452 33.908 99.374 34.169 99.218 34.397C99.062 34.619 98.846 34.793 98.57 34.919C98.294 35.045 97.97 35.108 97.598 35.108Z" fill="#B5B5B5"/>
<path opacity="0.4" d="M191 30H173C172.59 30 172.25 29.66 172.25 29.25C172.25 28.84 172.59 28.5 173 28.5H191C191.41 28.5 191.75 28.84 191.75 29.25C191.75 29.66 191.41 30 191 30Z" fill="white"/>
<path opacity="0.4" d="M189.02 11.48C187.08 9.54004 185.18 9.49004 183.19 11.48L181.98 12.69C181.88 12.79 181.84 12.95 181.88 13.09C182.64 15.74 184.76 17.86 187.41 18.62C187.45 18.63 187.49 18.64 187.53 18.64C187.64 18.64 187.74 18.6 187.82 18.52L189.02 17.31C190.01 16.33 190.49 15.38 190.49 14.42C190.5 13.43 190.02 12.47 189.02 11.48Z" fill="white"/>
<path d="M185.61 19.53C185.32 19.39 185.04 19.25 184.77 19.09C184.55 18.96 184.34 18.82 184.13 18.67C183.96 18.56 183.76 18.4 183.57 18.24C183.55 18.23 183.48 18.17 183.4 18.09C183.07 17.81 182.7 17.45 182.37 17.05C182.34 17.03 182.29 16.96 182.22 16.87C182.12 16.75 181.95 16.55 181.8 16.32C181.68 16.17 181.54 15.95 181.41 15.73C181.25 15.46 181.11 15.19 180.97 14.91C180.83 14.61 180.72 14.32 180.62 14.05L174.34 20.33C174.21 20.46 174.09 20.71 174.06 20.88L173.52 24.71C173.42 25.39 173.61 26.03 174.03 26.46C174.39 26.81 174.89 27 175.43 27C175.55 27 175.67 26.99 175.79 26.97L179.63 26.43C179.81 26.4 180.06 26.28 180.18 26.15L186.46 19.87C186.18 19.77 185.91 19.66 185.61 19.53Z" fill="white"/>
</svg>
