<svg width="194" height="38" viewBox="0 0 194 38" fill="none" xmlns="http://www.w3.org/2000/svg">
<path d="M4.62725 19L0.467248 7.08H2.83525L6.09925 16.952H5.63525L8.89925 7.08H11.2672L7.12325 19H4.62725ZM15.5626 19.192C14.7093 19.192 13.9306 18.9947 13.2266 18.6C12.5333 18.2053 11.9786 17.6667 11.5626 16.984C11.1573 16.3013 10.9546 15.5227 10.9546 14.648C10.9546 13.7733 11.1573 12.9947 11.5626 12.312C11.9786 11.6293 12.5333 11.0907 13.2266 10.696C13.92 10.3013 14.6986 10.104 15.5626 10.104C16.416 10.104 17.1893 10.3013 17.8826 10.696C18.576 11.0907 19.1253 11.6293 19.5306 12.312C19.9466 12.984 20.1546 13.7627 20.1546 14.648C20.1546 15.5227 19.9466 16.3013 19.5306 16.984C19.1146 17.6667 18.56 18.2053 17.8666 18.6C17.1733 18.9947 16.4053 19.192 15.5626 19.192ZM15.5626 17.272C16.032 17.272 16.4426 17.16 16.7946 16.936C17.1573 16.712 17.44 16.4027 17.6426 16.008C17.856 15.6027 17.9626 15.1493 17.9626 14.648C17.9626 14.136 17.856 13.688 17.6426 13.304C17.44 12.9093 17.1573 12.6 16.7946 12.376C16.4426 12.1413 16.032 12.024 15.5626 12.024C15.0826 12.024 14.6613 12.1413 14.2986 12.376C13.936 12.6 13.648 12.9093 13.4346 13.304C13.232 13.688 13.1306 14.136 13.1306 14.648C13.1306 15.1493 13.232 15.6027 13.4346 16.008C13.648 16.4027 13.936 16.712 14.2986 16.936C14.6613 17.16 15.0826 17.272 15.5626 17.272ZM24.7361 19.192C23.8081 19.192 22.9975 18.9733 22.3041 18.536C21.6215 18.088 21.1521 17.4853 20.8961 16.728L22.4641 15.976C22.6881 16.4667 22.9975 16.8507 23.3921 17.128C23.7975 17.4053 24.2455 17.544 24.7361 17.544C25.1201 17.544 25.4241 17.4587 25.6481 17.288C25.8721 17.1173 25.9841 16.8933 25.9841 16.616C25.9841 16.4453 25.9361 16.3067 25.8401 16.2C25.7548 16.0827 25.6321 15.9867 25.4721 15.912C25.3228 15.8267 25.1575 15.7573 24.9761 15.704L23.5521 15.304C22.8161 15.0907 22.2561 14.7653 21.8721 14.328C21.4988 13.8907 21.3121 13.3733 21.3121 12.776C21.3121 12.2427 21.4455 11.7787 21.7121 11.384C21.9895 10.9787 22.3681 10.664 22.8481 10.44C23.3388 10.216 23.8988 10.104 24.5281 10.104C25.3495 10.104 26.0748 10.3013 26.7041 10.696C27.3335 11.0907 27.7815 11.6453 28.0481 12.36L26.4481 13.112C26.2988 12.7173 26.0481 12.4027 25.6961 12.168C25.3441 11.9333 24.9495 11.816 24.5121 11.816C24.1601 11.816 23.8828 11.896 23.6801 12.056C23.4775 12.216 23.3761 12.424 23.3761 12.68C23.3761 12.84 23.4188 12.9787 23.5041 13.096C23.5895 13.2133 23.7068 13.3093 23.8561 13.384C24.0161 13.4587 24.1975 13.528 24.4001 13.592L25.7921 14.008C26.5068 14.2213 27.0561 14.5413 27.4401 14.968C27.8348 15.3947 28.0321 15.9173 28.0321 16.536C28.0321 17.0587 27.8935 17.5227 27.6161 17.928C27.3388 18.3227 26.9548 18.632 26.4641 18.856C25.9735 19.08 25.3975 19.192 24.7361 19.192ZM36.0386 19.192C35.1746 19.192 34.396 18.9947 33.7026 18.6C33.02 18.1947 32.4813 17.6507 32.0866 16.968C31.692 16.2747 31.4946 15.496 31.4946 14.632C31.4946 13.768 31.692 12.9947 32.0866 12.312C32.4813 11.6293 33.02 11.0907 33.7026 10.696C34.396 10.3013 35.1746 10.104 36.0386 10.104C36.6573 10.104 37.2333 10.216 37.7666 10.44C38.3 10.6533 38.7586 10.952 39.1426 11.336C39.5373 11.7093 39.82 12.1573 39.9906 12.68L38.1506 13.48C37.9906 13.0427 37.7186 12.6907 37.3346 12.424C36.9613 12.1573 36.5293 12.024 36.0386 12.024C35.58 12.024 35.1693 12.136 34.8066 12.36C34.4546 12.584 34.1773 12.8933 33.9746 13.288C33.772 13.6827 33.6706 14.136 33.6706 14.648C33.6706 15.16 33.772 15.6133 33.9746 16.008C34.1773 16.4027 34.4546 16.712 34.8066 16.936C35.1693 17.16 35.58 17.272 36.0386 17.272C36.54 17.272 36.9773 17.1387 37.3506 16.872C37.724 16.6053 37.9906 16.248 38.1506 15.8L39.9906 16.632C39.82 17.1227 39.5426 17.5653 39.1586 17.96C38.7746 18.344 38.316 18.648 37.7826 18.872C37.2493 19.0853 36.668 19.192 36.0386 19.192ZM41.261 19V10.296H43.229V12.232L43.069 11.944C43.2717 11.2933 43.5863 10.84 44.013 10.584C44.4503 10.328 44.973 10.2 45.581 10.2H46.093V12.056H45.341C44.7437 12.056 44.2637 12.2427 43.901 12.616C43.5383 12.9787 43.357 13.4907 43.357 14.152V19H41.261ZM46.9254 19V10.296H49.0214V19H46.9254ZM46.9254 9.32V7.08H49.0214V9.32H46.9254ZM54.6046 19.096C53.6233 19.096 52.8606 18.8293 52.3166 18.296C51.7833 17.752 51.5166 16.9893 51.5166 16.008V12.168H50.0126V10.296H50.1726C50.5993 10.296 50.93 10.184 51.1646 9.96C51.3993 9.736 51.5166 9.41067 51.5166 8.984V8.312H53.6126V10.296H55.6126V12.168H53.6126V15.896C53.6126 16.184 53.6606 16.4293 53.7566 16.632C53.8633 16.8347 54.0233 16.9893 54.2366 17.096C54.4606 17.2027 54.7433 17.256 55.0846 17.256C55.1593 17.256 55.2446 17.2507 55.3406 17.24C55.4473 17.2293 55.5486 17.2187 55.6446 17.208V19C55.4953 19.0213 55.3246 19.0427 55.1326 19.064C54.9406 19.0853 54.7646 19.096 54.6046 19.096ZM60.9759 19.192C60.0799 19.192 59.2959 18.9893 58.6239 18.584C57.9519 18.1787 57.4292 17.6293 57.0559 16.936C56.6825 16.2427 56.4959 15.4747 56.4959 14.632C56.4959 13.7573 56.6825 12.984 57.0559 12.312C57.4399 11.6293 57.9572 11.0907 58.6079 10.696C59.2692 10.3013 60.0052 10.104 60.8159 10.104C61.4985 10.104 62.0959 10.216 62.6079 10.44C63.1305 10.664 63.5732 10.9733 63.9359 11.368C64.2985 11.7627 64.5759 12.216 64.7679 12.728C64.9599 13.2293 65.0559 13.7733 65.0559 14.36C65.0559 14.5093 65.0452 14.664 65.0239 14.824C65.0132 14.984 64.9865 15.1227 64.9439 15.24H58.2239V13.64H63.7599L62.7679 14.392C62.8639 13.9013 62.8372 13.464 62.6879 13.08C62.5492 12.696 62.3145 12.392 61.9839 12.168C61.6639 11.944 61.2745 11.832 60.8159 11.832C60.3785 11.832 59.9892 11.944 59.6479 12.168C59.3065 12.3813 59.0452 12.7013 58.8639 13.128C58.6932 13.544 58.6292 14.0507 58.6719 14.648C58.6292 15.1813 58.6985 15.656 58.8799 16.072C59.0719 16.4773 59.3492 16.792 59.7119 17.016C60.0852 17.24 60.5119 17.352 60.9919 17.352C61.4719 17.352 61.8772 17.2507 62.2079 17.048C62.5492 16.8453 62.8159 16.5733 63.0079 16.232L64.7039 17.064C64.5332 17.48 64.2665 17.848 63.9039 18.168C63.5412 18.488 63.1092 18.7387 62.6079 18.92C62.1172 19.1013 61.5732 19.192 60.9759 19.192ZM59.7439 8.76L58.0479 5.992H60.7679L61.8079 8.76H59.7439ZM66.3248 19V10.296H68.2928V12.232L68.1328 11.944C68.3354 11.2933 68.6501 10.84 69.0768 10.584C69.5141 10.328 70.0368 10.2 70.6448 10.2H71.1568V12.056H70.4048C69.8074 12.056 69.3274 12.2427 68.9648 12.616C68.6021 12.9787 68.4208 13.4907 68.4208 14.152V19H66.3248ZM76.1171 19.192C75.2211 19.192 74.4371 18.9893 73.7651 18.584C73.0931 18.1787 72.5705 17.6293 72.1971 16.936C71.8238 16.2427 71.6371 15.4747 71.6371 14.632C71.6371 13.7573 71.8238 12.984 72.1971 12.312C72.5811 11.6293 73.0985 11.0907 73.7491 10.696C74.4105 10.3013 75.1465 10.104 75.9571 10.104C76.6398 10.104 77.2371 10.216 77.7491 10.44C78.2718 10.664 78.7145 10.9733 79.0771 11.368C79.4398 11.7627 79.7171 12.216 79.9091 12.728C80.1011 13.2293 80.1971 13.7733 80.1971 14.36C80.1971 14.5093 80.1865 14.664 80.1651 14.824C80.1545 14.984 80.1278 15.1227 80.0851 15.24H73.3651V13.64H78.9011L77.9091 14.392C78.0051 13.9013 77.9785 13.464 77.8291 13.08C77.6905 12.696 77.4558 12.392 77.1251 12.168C76.8051 11.944 76.4158 11.832 75.9571 11.832C75.5198 11.832 75.1305 11.944 74.7891 12.168C74.4478 12.3813 74.1865 12.7013 74.0051 13.128C73.8345 13.544 73.7705 14.0507 73.8131 14.648C73.7705 15.1813 73.8398 15.656 74.0211 16.072C74.2131 16.4773 74.4905 16.792 74.8531 17.016C75.2265 17.24 75.6531 17.352 76.1331 17.352C76.6131 17.352 77.0185 17.2507 77.3491 17.048C77.6905 16.8453 77.9571 16.5733 78.1491 16.232L79.8451 17.064C79.6745 17.48 79.4078 17.848 79.0451 18.168C78.6825 18.488 78.2505 18.7387 77.7491 18.92C77.2585 19.1013 76.7145 19.192 76.1171 19.192ZM84.778 19.192C83.85 19.192 83.0393 18.9733 82.346 18.536C81.6633 18.088 81.194 17.4853 80.938 16.728L82.506 15.976C82.73 16.4667 83.0393 16.8507 83.434 17.128C83.8393 17.4053 84.2873 17.544 84.778 17.544C85.162 17.544 85.466 17.4587 85.69 17.288C85.914 17.1173 86.026 16.8933 86.026 16.616C86.026 16.4453 85.978 16.3067 85.882 16.2C85.7967 16.0827 85.674 15.9867 85.514 15.912C85.3647 15.8267 85.1993 15.7573 85.018 15.704L83.594 15.304C82.858 15.0907 82.298 14.7653 81.914 14.328C81.5407 13.8907 81.354 13.3733 81.354 12.776C81.354 12.2427 81.4873 11.7787 81.754 11.384C82.0313 10.9787 82.41 10.664 82.89 10.44C83.3807 10.216 83.9407 10.104 84.57 10.104C85.3913 10.104 86.1167 10.3013 86.746 10.696C87.3753 11.0907 87.8233 11.6453 88.09 12.36L86.49 13.112C86.3407 12.7173 86.09 12.4027 85.738 12.168C85.386 11.9333 84.9913 11.816 84.554 11.816C84.202 11.816 83.9247 11.896 83.722 12.056C83.5193 12.216 83.418 12.424 83.418 12.68C83.418 12.84 83.4607 12.9787 83.546 13.096C83.6313 13.2133 83.7487 13.3093 83.898 13.384C84.058 13.4587 84.2393 13.528 84.442 13.592L85.834 14.008C86.5487 14.2213 87.098 14.5413 87.482 14.968C87.8767 15.3947 88.074 15.9173 88.074 16.536C88.074 17.0587 87.9353 17.5227 87.658 17.928C87.3807 18.3227 86.9967 18.632 86.506 18.856C86.0153 19.08 85.4393 19.192 84.778 19.192Z" fill="white"/>
<path d="M2.5924 35V34.073L4.4104 32.174C4.7704 31.796 5.0464 31.496 5.2384 31.274C5.4364 31.046 5.5744 30.851 5.6524 30.689C5.7304 30.527 5.7694 30.362 5.7694 30.194C5.7694 29.912 5.6794 29.69 5.4994 29.528C5.3254 29.366 5.1004 29.285 4.8244 29.285C4.5364 29.285 4.2874 29.369 4.0774 29.537C3.8674 29.699 3.7144 29.939 3.6184 30.257L2.5474 29.924C2.6194 29.57 2.7664 29.264 2.9884 29.006C3.2104 28.742 3.4804 28.541 3.7984 28.403C4.1224 28.259 4.4644 28.187 4.8244 28.187C5.2564 28.187 5.6344 28.265 5.9584 28.421C6.2884 28.577 6.5434 28.796 6.7234 29.078C6.9094 29.36 7.0024 29.69 7.0024 30.068C7.0024 30.308 6.9574 30.545 6.8674 30.779C6.7774 31.013 6.6424 31.253 6.4624 31.499C6.2824 31.739 6.0484 32.009 5.7604 32.309L4.1854 33.965H7.0924V35H2.5924ZM10.5545 35.108C10.0205 35.108 9.55252 34.964 9.15052 34.676C8.74852 34.388 8.43352 33.983 8.20552 33.461C7.98352 32.939 7.87252 32.333 7.87252 31.643C7.87252 30.947 7.98352 30.341 8.20552 29.825C8.42752 29.309 8.73952 28.907 9.14152 28.619C9.54352 28.331 10.0115 28.187 10.5455 28.187C11.0915 28.187 11.5625 28.331 11.9585 28.619C12.3605 28.907 12.6755 29.312 12.9035 29.834C13.1315 30.35 13.2455 30.953 13.2455 31.643C13.2455 32.333 13.1315 32.939 12.9035 33.461C12.6815 33.977 12.3695 34.382 11.9675 34.676C11.5655 34.964 11.0945 35.108 10.5545 35.108ZM10.5635 33.992C10.8695 33.992 11.1305 33.899 11.3465 33.713C11.5625 33.521 11.7275 33.251 11.8415 32.903C11.9615 32.549 12.0215 32.129 12.0215 31.643C12.0215 31.157 11.9615 30.74 11.8415 30.392C11.7275 30.038 11.5595 29.768 11.3375 29.582C11.1215 29.396 10.8575 29.303 10.5455 29.303C10.2455 29.303 9.98752 29.396 9.77152 29.582C9.55552 29.768 9.38752 30.038 9.26752 30.392C9.15352 30.74 9.09652 31.157 9.09652 31.643C9.09652 32.123 9.15352 32.54 9.26752 32.894C9.38752 33.242 9.55552 33.512 9.77152 33.704C9.99352 33.896 10.2575 33.992 10.5635 33.992ZM17.8872 35.108C17.4012 35.108 16.9632 34.997 16.5732 34.775C16.1892 34.547 15.8862 34.241 15.6642 33.857C15.4422 33.467 15.3312 33.029 15.3312 32.543C15.3312 32.057 15.4422 31.622 15.6642 31.238C15.8862 30.854 16.1892 30.551 16.5732 30.329C16.9632 30.107 17.4012 29.996 17.8872 29.996C18.2352 29.996 18.5592 30.059 18.8592 30.185C19.1592 30.305 19.4172 30.473 19.6332 30.689C19.8552 30.899 20.0142 31.151 20.1102 31.445L19.0752 31.895C18.9852 31.649 18.8322 31.451 18.6162 31.301C18.4062 31.151 18.1632 31.076 17.8872 31.076C17.6292 31.076 17.3982 31.139 17.1942 31.265C16.9962 31.391 16.8402 31.565 16.7262 31.787C16.6122 32.009 16.5552 32.264 16.5552 32.552C16.5552 32.84 16.6122 33.095 16.7262 33.317C16.8402 33.539 16.9962 33.713 17.1942 33.839C17.3982 33.965 17.6292 34.028 17.8872 34.028C18.1692 34.028 18.4152 33.953 18.6252 33.803C18.8352 33.653 18.9852 33.452 19.0752 33.2L20.1102 33.668C20.0142 33.944 19.8582 34.193 19.6422 34.415C19.4262 34.631 19.1682 34.802 18.8682 34.928C18.5682 35.048 18.2412 35.108 17.8872 35.108ZM20.8248 35V30.104H21.9318V31.193L21.8418 31.031C21.9558 30.665 22.1328 30.41 22.3728 30.266C22.6188 30.122 22.9128 30.05 23.2548 30.05H23.5428V31.094H23.1198C22.7838 31.094 22.5138 31.199 22.3098 31.409C22.1058 31.613 22.0038 31.901 22.0038 32.273V35H20.8248ZM24.011 35V30.104H25.19V35H24.011ZM24.011 29.555V28.295H25.19V29.555H24.011ZM28.3306 35.054C27.7786 35.054 27.3496 34.904 27.0436 34.604C26.7436 34.298 26.5936 33.869 26.5936 33.317V31.157H25.7476V30.104H25.8376C26.0776 30.104 26.2636 30.041 26.3956 29.915C26.5276 29.789 26.5936 29.606 26.5936 29.366V28.988H27.7726V30.104H28.8976V31.157H27.7726V33.254C27.7726 33.416 27.7996 33.554 27.8536 33.668C27.9136 33.782 28.0036 33.869 28.1236 33.929C28.2496 33.989 28.4086 34.019 28.6006 34.019C28.6426 34.019 28.6906 34.016 28.7446 34.01C28.8046 34.004 28.8616 33.998 28.9156 33.992V35C28.8316 35.012 28.7356 35.024 28.6276 35.036C28.5196 35.048 28.4206 35.054 28.3306 35.054ZM31.9144 35.108C31.4104 35.108 30.9694 34.994 30.5914 34.766C30.2134 34.538 29.9194 34.229 29.7094 33.839C29.4994 33.449 29.3944 33.017 29.3944 32.543C29.3944 32.051 29.4994 31.616 29.7094 31.238C29.9254 30.854 30.2164 30.551 30.5824 30.329C30.9544 30.107 31.3684 29.996 31.8244 29.996C32.2084 29.996 32.5444 30.059 32.8324 30.185C33.1264 30.311 33.3754 30.485 33.5794 30.707C33.7834 30.929 33.9394 31.184 34.0474 31.472C34.1554 31.754 34.2094 32.06 34.2094 32.39C34.2094 32.474 34.2034 32.561 34.1914 32.651C34.1854 32.741 34.1704 32.819 34.1464 32.885H30.3664V31.985H33.4804L32.9224 32.408C32.9764 32.132 32.9614 31.886 32.8774 31.67C32.7994 31.454 32.6674 31.283 32.4814 31.157C32.3014 31.031 32.0824 30.968 31.8244 30.968C31.5784 30.968 31.3594 31.031 31.1674 31.157C30.9754 31.277 30.8284 31.457 30.7264 31.697C30.6304 31.931 30.5944 32.216 30.6184 32.552C30.5944 32.852 30.6334 33.119 30.7354 33.353C30.8434 33.581 30.9994 33.758 31.2034 33.884C31.4134 34.01 31.6534 34.073 31.9234 34.073C32.1934 34.073 32.4214 34.016 32.6074 33.902C32.7994 33.788 32.9494 33.635 33.0574 33.443L34.0114 33.911C33.9154 34.145 33.7654 34.352 33.5614 34.532C33.3574 34.712 33.1144 34.853 32.8324 34.955C32.5564 35.057 32.2504 35.108 31.9144 35.108ZM31.2214 29.24L30.2674 27.683H31.7974L32.3824 29.24H31.2214ZM34.9231 35V30.104H36.0301V31.193L35.9401 31.031C36.0541 30.665 36.2311 30.41 36.4711 30.266C36.7171 30.122 37.0111 30.05 37.3531 30.05H37.6411V31.094H37.2181C36.8821 31.094 36.6121 31.199 36.4081 31.409C36.2041 31.613 36.1021 31.901 36.1021 32.273V35H34.9231ZM40.4314 35.108C39.9274 35.108 39.4864 34.994 39.1084 34.766C38.7304 34.538 38.4364 34.229 38.2264 33.839C38.0164 33.449 37.9114 33.017 37.9114 32.543C37.9114 32.051 38.0164 31.616 38.2264 31.238C38.4424 30.854 38.7334 30.551 39.0994 30.329C39.4714 30.107 39.8854 29.996 40.3414 29.996C40.7254 29.996 41.0614 30.059 41.3494 30.185C41.6434 30.311 41.8924 30.485 42.0964 30.707C42.3004 30.929 42.4564 31.184 42.5644 31.472C42.6724 31.754 42.7264 32.06 42.7264 32.39C42.7264 32.474 42.7204 32.561 42.7084 32.651C42.7024 32.741 42.6874 32.819 42.6634 32.885H38.8834V31.985H41.9974L41.4394 32.408C41.4934 32.132 41.4784 31.886 41.3944 31.67C41.3164 31.454 41.1844 31.283 40.9984 31.157C40.8184 31.031 40.5994 30.968 40.3414 30.968C40.0954 30.968 39.8764 31.031 39.6844 31.157C39.4924 31.277 39.3454 31.457 39.2434 31.697C39.1474 31.931 39.1114 32.216 39.1354 32.552C39.1114 32.852 39.1504 33.119 39.2524 33.353C39.3604 33.581 39.5164 33.758 39.7204 33.884C39.9304 34.01 40.1704 34.073 40.4404 34.073C40.7104 34.073 40.9384 34.016 41.1244 33.902C41.3164 33.788 41.4664 33.635 41.5744 33.443L42.5284 33.911C42.4324 34.145 42.2824 34.352 42.0784 34.532C41.8744 34.712 41.6314 34.853 41.3494 34.955C41.0734 35.057 40.7674 35.108 40.4314 35.108ZM45.3031 35.108C44.7811 35.108 44.3251 34.985 43.9351 34.739C43.5511 34.487 43.2871 34.148 43.1431 33.722L44.0251 33.299C44.1511 33.575 44.3251 33.791 44.5471 33.947C44.7751 34.103 45.0271 34.181 45.3031 34.181C45.5191 34.181 45.6901 34.133 45.8161 34.037C45.9421 33.941 46.0051 33.815 46.0051 33.659C46.0051 33.563 45.9781 33.485 45.9241 33.425C45.8761 33.359 45.8071 33.305 45.7171 33.263C45.6331 33.215 45.5401 33.176 45.4381 33.146L44.6371 32.921C44.2231 32.801 43.9081 32.618 43.6921 32.372C43.4821 32.126 43.3771 31.835 43.3771 31.499C43.3771 31.199 43.4521 30.938 43.6021 30.716C43.7581 30.488 43.9711 30.311 44.2411 30.185C44.5171 30.059 44.8321 29.996 45.1861 29.996C45.6481 29.996 46.0561 30.107 46.4101 30.329C46.7641 30.551 47.0161 30.863 47.1661 31.265L46.2661 31.688C46.1821 31.466 46.0411 31.289 45.8431 31.157C45.6451 31.025 45.4231 30.959 45.1771 30.959C44.9791 30.959 44.8231 31.004 44.7091 31.094C44.5951 31.184 44.5381 31.301 44.5381 31.445C44.5381 31.535 44.5621 31.613 44.6101 31.679C44.6581 31.745 44.7241 31.799 44.8081 31.841C44.8981 31.883 45.0001 31.922 45.1141 31.958L45.8971 32.192C46.2991 32.312 46.6081 32.492 46.8241 32.732C47.0461 32.972 47.1571 33.266 47.1571 33.614C47.1571 33.908 47.0791 34.169 46.9231 34.397C46.7671 34.619 46.5511 34.793 46.2751 34.919C45.9991 35.045 45.6751 35.108 45.3031 35.108ZM51.1657 35.108C50.6437 35.108 50.1877 34.985 49.7977 34.739C49.4137 34.487 49.1497 34.148 49.0057 33.722L49.8877 33.299C50.0137 33.575 50.1877 33.791 50.4097 33.947C50.6377 34.103 50.8897 34.181 51.1657 34.181C51.3817 34.181 51.5528 34.133 51.6788 34.037C51.8047 33.941 51.8677 33.815 51.8677 33.659C51.8677 33.563 51.8407 33.485 51.7867 33.425C51.7388 33.359 51.6698 33.305 51.5797 33.263C51.4957 33.215 51.4027 33.176 51.3008 33.146L50.4997 32.921C50.0857 32.801 49.7707 32.618 49.5547 32.372C49.3447 32.126 49.2397 31.835 49.2397 31.499C49.2397 31.199 49.3147 30.938 49.4647 30.716C49.6207 30.488 49.8337 30.311 50.1037 30.185C50.3797 30.059 50.6947 29.996 51.0488 29.996C51.5108 29.996 51.9188 30.107 52.2728 30.329C52.6268 30.551 52.8788 30.863 53.0288 31.265L52.1288 31.688C52.0448 31.466 51.9038 31.289 51.7057 31.157C51.5077 31.025 51.2857 30.959 51.0397 30.959C50.8417 30.959 50.6857 31.004 50.5717 31.094C50.4577 31.184 50.4007 31.301 50.4007 31.445C50.4007 31.535 50.4247 31.613 50.4727 31.679C50.5207 31.745 50.5867 31.799 50.6707 31.841C50.7607 31.883 50.8627 31.922 50.9767 31.958L51.7598 32.192C52.1618 32.312 52.4708 32.492 52.6867 32.732C52.9088 32.972 53.0198 33.266 53.0198 33.614C53.0198 33.908 52.9418 34.169 52.7857 34.397C52.6298 34.619 52.4138 34.793 52.1377 34.919C51.8617 35.045 51.5377 35.108 51.1657 35.108ZM56.0678 35.108C55.5638 35.108 55.1228 34.994 54.7448 34.766C54.3668 34.538 54.0728 34.229 53.8628 33.839C53.6528 33.449 53.5478 33.017 53.5478 32.543C53.5478 32.051 53.6528 31.616 53.8628 31.238C54.0788 30.854 54.3698 30.551 54.7358 30.329C55.1078 30.107 55.5218 29.996 55.9778 29.996C56.3618 29.996 56.6978 30.059 56.9858 30.185C57.2798 30.311 57.5288 30.485 57.7328 30.707C57.9368 30.929 58.0928 31.184 58.2008 31.472C58.3088 31.754 58.3628 32.06 58.3628 32.39C58.3628 32.474 58.3568 32.561 58.3448 32.651C58.3388 32.741 58.3238 32.819 58.2998 32.885H54.5198V31.985H57.6338L57.0758 32.408C57.1298 32.132 57.1148 31.886 57.0308 31.67C56.9528 31.454 56.8208 31.283 56.6348 31.157C56.4548 31.031 56.2358 30.968 55.9778 30.968C55.7318 30.968 55.5128 31.031 55.3208 31.157C55.1288 31.277 54.9818 31.457 54.8798 31.697C54.7838 31.931 54.7478 32.216 54.7718 32.552C54.7478 32.852 54.7868 33.119 54.8888 33.353C54.9968 33.581 55.1528 33.758 55.3568 33.884C55.5668 34.01 55.8068 34.073 56.0768 34.073C56.3468 34.073 56.5748 34.016 56.7608 33.902C56.9528 33.788 57.1028 33.635 57.2108 33.443L58.1648 33.911C58.0688 34.145 57.9188 34.352 57.7148 34.532C57.5108 34.712 57.2678 34.853 56.9858 34.955C56.7098 35.057 56.4038 35.108 56.0678 35.108ZM55.3748 29.24L55.9598 27.683H57.4898L56.5358 29.24H55.3748ZM59.0765 35V28.187H60.2555V35H59.0765ZM63.4861 35.108C62.9821 35.108 62.5411 34.994 62.1631 34.766C61.7851 34.538 61.4911 34.229 61.2811 33.839C61.0711 33.449 60.9661 33.017 60.9661 32.543C60.9661 32.051 61.0711 31.616 61.2811 31.238C61.4971 30.854 61.7881 30.551 62.1541 30.329C62.5261 30.107 62.9401 29.996 63.3961 29.996C63.7801 29.996 64.1161 30.059 64.4041 30.185C64.6981 30.311 64.9471 30.485 65.1511 30.707C65.3551 30.929 65.5111 31.184 65.6191 31.472C65.7271 31.754 65.7811 32.06 65.7811 32.39C65.7811 32.474 65.7751 32.561 65.7631 32.651C65.7571 32.741 65.7421 32.819 65.7181 32.885H61.9381V31.985H65.0521L64.4941 32.408C64.5481 32.132 64.5331 31.886 64.4491 31.67C64.3711 31.454 64.2391 31.283 64.0531 31.157C63.8731 31.031 63.6541 30.968 63.3961 30.968C63.1501 30.968 62.9311 31.031 62.7391 31.157C62.5471 31.277 62.4001 31.457 62.2981 31.697C62.2021 31.931 62.1661 32.216 62.1901 32.552C62.1661 32.852 62.2051 33.119 62.3071 33.353C62.4151 33.581 62.5711 33.758 62.7751 33.884C62.9851 34.01 63.2251 34.073 63.4951 34.073C63.7651 34.073 63.9931 34.016 64.1791 33.902C64.3711 33.788 64.5211 33.635 64.6291 33.443L65.5831 33.911C65.4871 34.145 65.3371 34.352 65.1331 34.532C64.9291 34.712 64.6861 34.853 64.4041 34.955C64.1281 35.057 63.8221 35.108 63.4861 35.108ZM68.8529 35.108C68.3669 35.108 67.9289 34.997 67.5389 34.775C67.1549 34.547 66.8519 34.241 66.6299 33.857C66.4079 33.467 66.2969 33.029 66.2969 32.543C66.2969 32.057 66.4079 31.622 66.6299 31.238C66.8519 30.854 67.1549 30.551 67.5389 30.329C67.9289 30.107 68.3669 29.996 68.8529 29.996C69.2009 29.996 69.5249 30.059 69.8249 30.185C70.1249 30.305 70.3829 30.473 70.5989 30.689C70.8209 30.899 70.9799 31.151 71.0759 31.445L70.0409 31.895C69.9509 31.649 69.7979 31.451 69.5819 31.301C69.3719 31.151 69.1289 31.076 68.8529 31.076C68.5949 31.076 68.3639 31.139 68.1599 31.265C67.9619 31.391 67.8059 31.565 67.6919 31.787C67.5779 32.009 67.5209 32.264 67.5209 32.552C67.5209 32.84 67.5779 33.095 67.6919 33.317C67.8059 33.539 67.9619 33.713 68.1599 33.839C68.3639 33.965 68.5949 34.028 68.8529 34.028C69.1349 34.028 69.3809 33.953 69.5909 33.803C69.8009 33.653 69.9509 33.452 70.0409 33.2L71.0759 33.668C70.9799 33.944 70.8239 34.193 70.6079 34.415C70.3919 34.631 70.1339 34.802 69.8339 34.928C69.5339 35.048 69.2069 35.108 68.8529 35.108ZM74.0224 35.054C73.4704 35.054 73.0414 34.904 72.7354 34.604C72.4354 34.298 72.2854 33.869 72.2854 33.317V31.157H71.4394V30.104H71.5294C71.7694 30.104 71.9554 30.041 72.0874 29.915C72.2194 29.789 72.2854 29.606 72.2854 29.366V28.988H73.4644V30.104H74.5894V31.157H73.4644V33.254C73.4644 33.416 73.4914 33.554 73.5454 33.668C73.6054 33.782 73.6954 33.869 73.8154 33.929C73.9414 33.989 74.1004 34.019 74.2924 34.019C74.3344 34.019 74.3824 34.016 74.4364 34.01C74.4964 34.004 74.5534 33.998 74.6074 33.992V35C74.5234 35.012 74.4274 35.024 74.3194 35.036C74.2114 35.048 74.1124 35.054 74.0224 35.054ZM75.3282 35V30.104H76.5072V35H75.3282ZM75.3282 29.555V28.295H76.5072V29.555H75.3282ZM79.8098 35.108C79.3298 35.108 78.8918 34.997 78.4958 34.775C78.1058 34.553 77.7938 34.25 77.5598 33.866C77.3318 33.482 77.2178 33.044 77.2178 32.552C77.2178 32.06 77.3318 31.622 77.5598 31.238C77.7938 30.854 78.1058 30.551 78.4958 30.329C78.8858 30.107 79.3238 29.996 79.8098 29.996C80.2898 29.996 80.7248 30.107 81.1148 30.329C81.5048 30.551 81.8138 30.854 82.0418 31.238C82.2758 31.616 82.3928 32.054 82.3928 32.552C82.3928 33.044 82.2758 33.482 82.0418 33.866C81.8078 34.25 81.4958 34.553 81.1058 34.775C80.7158 34.997 80.2838 35.108 79.8098 35.108ZM79.8098 34.028C80.0738 34.028 80.3048 33.965 80.5028 33.839C80.7068 33.713 80.8658 33.539 80.9798 33.317C81.0998 33.089 81.1598 32.834 81.1598 32.552C81.1598 32.264 81.0998 32.012 80.9798 31.796C80.8658 31.574 80.7068 31.4 80.5028 31.274C80.3048 31.142 80.0738 31.076 79.8098 31.076C79.5398 31.076 79.3028 31.142 79.0988 31.274C78.8948 31.4 78.7328 31.574 78.6128 31.796C78.4988 32.012 78.4418 32.264 78.4418 32.552C78.4418 32.834 78.4988 33.089 78.6128 33.317C78.7328 33.539 78.8948 33.713 79.0988 33.839C79.3028 33.965 79.5398 34.028 79.8098 34.028ZM83.1069 35V30.104H84.2139V31.067L84.1239 30.896C84.2379 30.602 84.4239 30.38 84.6819 30.23C84.9459 30.074 85.2519 29.996 85.5999 29.996C85.9599 29.996 86.2779 30.074 86.5539 30.23C86.8359 30.386 87.0549 30.605 87.2109 30.887C87.3669 31.163 87.4449 31.484 87.4449 31.85V35H86.2659V32.129C86.2659 31.913 86.2239 31.727 86.1399 31.571C86.0559 31.415 85.9389 31.295 85.7889 31.211C85.6449 31.121 85.4739 31.076 85.2759 31.076C85.0839 31.076 84.9129 31.121 84.7629 31.211C84.6129 31.295 84.4959 31.415 84.4119 31.571C84.3279 31.727 84.2859 31.913 84.2859 32.129V35H83.1069ZM88.2619 35V30.104H89.3689V31.067L89.2789 30.896C89.3929 30.602 89.5789 30.38 89.8369 30.23C90.1009 30.074 90.4069 29.996 90.7549 29.996C91.1149 29.996 91.4329 30.074 91.7089 30.23C91.9909 30.386 92.2099 30.605 92.3659 30.887C92.5219 31.163 92.5999 31.484 92.5999 31.85V35H91.4209V32.129C91.4209 31.913 91.3789 31.727 91.2949 31.571C91.2109 31.415 91.0939 31.295 90.9439 31.211C90.7999 31.121 90.6289 31.076 90.4309 31.076C90.2389 31.076 90.0679 31.121 89.9179 31.211C89.7679 31.295 89.6509 31.415 89.5669 31.571C89.4829 31.727 89.4409 31.913 89.4409 32.129V35H88.2619ZM95.7388 35.108C95.2348 35.108 94.7938 34.994 94.4158 34.766C94.0378 34.538 93.7438 34.229 93.5338 33.839C93.3238 33.449 93.2188 33.017 93.2188 32.543C93.2188 32.051 93.3238 31.616 93.5338 31.238C93.7498 30.854 94.0408 30.551 94.4068 30.329C94.7788 30.107 95.1928 29.996 95.6488 29.996C96.0328 29.996 96.3688 30.059 96.6568 30.185C96.9508 30.311 97.1998 30.485 97.4038 30.707C97.6078 30.929 97.7638 31.184 97.8718 31.472C97.9798 31.754 98.0338 32.06 98.0338 32.39C98.0338 32.474 98.0278 32.561 98.0158 32.651C98.0098 32.741 97.9948 32.819 97.9708 32.885H94.1908V31.985H97.3048L96.7468 32.408C96.8008 32.132 96.7858 31.886 96.7018 31.67C96.6238 31.454 96.4918 31.283 96.3058 31.157C96.1258 31.031 95.9068 30.968 95.6488 30.968C95.4028 30.968 95.1838 31.031 94.9918 31.157C94.7998 31.277 94.6528 31.457 94.5508 31.697C94.4548 31.931 94.4188 32.216 94.4428 32.552C94.4188 32.852 94.4578 33.119 94.5598 33.353C94.6678 33.581 94.8238 33.758 95.0278 33.884C95.2378 34.01 95.4778 34.073 95.7478 34.073C96.0178 34.073 96.2458 34.016 96.4318 33.902C96.6238 33.788 96.7738 33.635 96.8818 33.443L97.8358 33.911C97.7398 34.145 97.5898 34.352 97.3858 34.532C97.1818 34.712 96.9388 34.853 96.6568 34.955C96.3808 35.057 96.0748 35.108 95.7388 35.108ZM95.0458 29.24L95.6308 27.683H97.1608L96.2068 29.24H95.0458ZM100.611 35.108C100.089 35.108 99.6326 34.985 99.2426 34.739C98.8586 34.487 98.5946 34.148 98.4506 33.722L99.3326 33.299C99.4586 33.575 99.6326 33.791 99.8546 33.947C100.083 34.103 100.335 34.181 100.611 34.181C100.827 34.181 100.998 34.133 101.124 34.037C101.25 33.941 101.313 33.815 101.313 33.659C101.313 33.563 101.286 33.485 101.232 33.425C101.184 33.359 101.115 33.305 101.025 33.263C100.941 33.215 100.848 33.176 100.746 33.146L99.9446 32.921C99.5306 32.801 99.2156 32.618 98.9996 32.372C98.7896 32.126 98.6846 31.835 98.6846 31.499C98.6846 31.199 98.7596 30.938 98.9096 30.716C99.0656 30.488 99.2786 30.311 99.5486 30.185C99.8246 30.059 100.14 29.996 100.494 29.996C100.956 29.996 101.364 30.107 101.718 30.329C102.072 30.551 102.324 30.863 102.474 31.265L101.574 31.688C101.49 31.466 101.349 31.289 101.151 31.157C100.953 31.025 100.731 30.959 100.485 30.959C100.287 30.959 100.131 31.004 100.017 31.094C99.9026 31.184 99.8456 31.301 99.8456 31.445C99.8456 31.535 99.8696 31.613 99.9176 31.679C99.9656 31.745 100.032 31.799 100.116 31.841C100.206 31.883 100.308 31.922 100.422 31.958L101.205 32.192C101.607 32.312 101.916 32.492 102.132 32.732C102.354 32.972 102.465 33.266 102.465 33.614C102.465 33.908 102.387 34.169 102.231 34.397C102.075 34.619 101.859 34.793 101.583 34.919C101.307 35.045 100.983 35.108 100.611 35.108Z" fill="#B5B5B5"/>
<path opacity="0.4" d="M191 30H173C172.59 30 172.25 29.66 172.25 29.25C172.25 28.84 172.59 28.5 173 28.5H191C191.41 28.5 191.75 28.84 191.75 29.25C191.75 29.66 191.41 30 191 30Z" fill="white"/>
<path opacity="0.4" d="M189.02 11.48C187.08 9.54004 185.18 9.49004 183.19 11.48L181.98 12.69C181.88 12.79 181.84 12.95 181.88 13.09C182.64 15.74 184.76 17.86 187.41 18.62C187.45 18.63 187.49 18.64 187.53 18.64C187.64 18.64 187.74 18.6 187.82 18.52L189.02 17.31C190.01 16.33 190.49 15.38 190.49 14.42C190.5 13.43 190.02 12.47 189.02 11.48Z" fill="white"/>
<path d="M185.61 19.53C185.32 19.39 185.04 19.25 184.77 19.09C184.55 18.96 184.34 18.82 184.13 18.67C183.96 18.56 183.76 18.4 183.57 18.24C183.55 18.23 183.48 18.17 183.4 18.09C183.07 17.81 182.7 17.45 182.37 17.05C182.34 17.03 182.29 16.96 182.22 16.87C182.12 16.75 181.95 16.55 181.8 16.32C181.68 16.17 181.54 15.95 181.41 15.73C181.25 15.46 181.11 15.19 180.97 14.91C180.83 14.61 180.72 14.32 180.62 14.05L174.34 20.33C174.21 20.46 174.09 20.71 174.06 20.88L173.52 24.71C173.42 25.39 173.61 26.03 174.03 26.46C174.39 26.81 174.89 27 175.43 27C175.55 27 175.67 26.99 175.79 26.97L179.63 26.43C179.81 26.4 180.06 26.28 180.18 26.15L186.46 19.87C186.18 19.77 185.91 19.66 185.61 19.53Z" fill="white"/>
</svg>
