<svg width="167" height="14" viewBox="0 0 167 14" fill="none" xmlns="http://www.w3.org/2000/svg">
<path d="M6.88281 13.192C6.02948 13.192 5.24014 13.0373 4.51481 12.728C3.78948 12.4187 3.15481 11.9867 2.61081 11.432C2.06681 10.8773 1.64014 10.2267 1.33081 9.48C1.03214 8.73333 0.882809 7.91733 0.882809 7.032C0.882809 6.14667 1.02681 5.33067 1.31481 4.584C1.61348 3.82667 2.02948 3.176 2.56281 2.632C3.10681 2.07733 3.74148 1.65067 4.46681 1.352C5.19214 1.04267 5.98148 0.888 6.83481 0.888C7.68814 0.888 8.45081 1.032 9.12281 1.32C9.80548 1.608 10.3815 1.992 10.8508 2.472C11.3201 2.94133 11.6561 3.45867 11.8588 4.024L9.92281 4.952C9.69881 4.33333 9.32014 3.832 8.78681 3.448C8.25348 3.064 7.60281 2.872 6.83481 2.872C6.08814 2.872 5.42681 3.048 4.85081 3.4C4.28548 3.752 3.84281 4.23733 3.52281 4.856C3.21348 5.47467 3.05881 6.2 3.05881 7.032C3.05881 7.864 3.21881 8.59467 3.53881 9.224C3.86948 9.84267 4.32281 10.328 4.89881 10.68C5.47481 11.032 6.13614 11.208 6.88281 11.208C7.49081 11.208 8.05081 11.0907 8.56281 10.856C9.07481 10.6107 9.48548 10.2693 9.79481 9.832C10.1041 9.384 10.2588 8.856 10.2588 8.248V7.336L11.2508 8.2H6.83481V6.36H12.4348V7.56C12.4348 8.47733 12.2801 9.288 11.9708 9.992C11.6615 10.696 11.2401 11.288 10.7068 11.768C10.1841 12.2373 9.59214 12.5947 8.93081 12.84C8.26948 13.0747 7.58681 13.192 6.88281 13.192ZM17.7887 13.192C16.8927 13.192 16.1087 12.9893 15.4367 12.584C14.7647 12.1787 14.242 11.6293 13.8687 10.936C13.4954 10.2427 13.3087 9.47467 13.3087 8.632C13.3087 7.75733 13.4954 6.984 13.8687 6.312C14.2527 5.62933 14.77 5.09067 15.4207 4.696C16.082 4.30133 16.818 4.104 17.6287 4.104C18.3114 4.104 18.9087 4.216 19.4207 4.44C19.9434 4.664 20.386 4.97333 20.7487 5.368C21.1114 5.76267 21.3887 6.216 21.5807 6.728C21.7727 7.22933 21.8687 7.77333 21.8687 8.36C21.8687 8.50933 21.858 8.664 21.8367 8.824C21.826 8.984 21.7994 9.12267 21.7567 9.24H15.0367V7.64H20.5727L19.5807 8.392C19.6767 7.90133 19.65 7.464 19.5007 7.08C19.362 6.696 19.1274 6.392 18.7967 6.168C18.4767 5.944 18.0874 5.832 17.6287 5.832C17.1914 5.832 16.802 5.944 16.4607 6.168C16.1194 6.38133 15.858 6.70133 15.6767 7.128C15.506 7.544 15.442 8.05067 15.4847 8.648C15.442 9.18133 15.5114 9.656 15.6927 10.072C15.8847 10.4773 16.162 10.792 16.5247 11.016C16.898 11.24 17.3247 11.352 17.8047 11.352C18.2847 11.352 18.69 11.2507 19.0207 11.048C19.362 10.8453 19.6287 10.5733 19.8207 10.232L21.5167 11.064C21.346 11.48 21.0794 11.848 20.7167 12.168C20.354 12.488 19.922 12.7387 19.4207 12.92C18.93 13.1013 18.386 13.192 17.7887 13.192ZM16.5567 2.76L17.5967 -0.00800037H20.3167L18.6207 2.76H16.5567ZM23.1376 13V4.296H25.1056V6.008L24.9456 5.704C25.1482 5.18133 25.4789 4.78667 25.9376 4.52C26.4069 4.24267 26.9509 4.104 27.5696 4.104C28.2096 4.104 28.7749 4.24267 29.2656 4.52C29.7669 4.79733 30.1562 5.18667 30.4336 5.688C30.7109 6.17867 30.8496 6.74933 30.8496 7.4V13H28.7536V7.896C28.7536 7.512 28.6789 7.18133 28.5296 6.904C28.3802 6.62667 28.1722 6.41333 27.9056 6.264C27.6496 6.104 27.3456 6.024 26.9936 6.024C26.6522 6.024 26.3482 6.104 26.0816 6.264C25.8149 6.41333 25.6069 6.62667 25.4576 6.904C25.3082 7.18133 25.2336 7.512 25.2336 7.896V13H23.1376ZM36.4299 13.192C35.5339 13.192 34.7499 12.9893 34.0779 12.584C33.4059 12.1787 32.8833 11.6293 32.5099 10.936C32.1366 10.2427 31.9499 9.47467 31.9499 8.632C31.9499 7.75733 32.1366 6.984 32.5099 6.312C32.8939 5.62933 33.4113 5.09067 34.0619 4.696C34.7233 4.30133 35.4593 4.104 36.2699 4.104C36.9526 4.104 37.5499 4.216 38.0619 4.44C38.5846 4.664 39.0273 4.97333 39.3899 5.368C39.7526 5.76267 40.0299 6.216 40.2219 6.728C40.4139 7.22933 40.5099 7.77333 40.5099 8.36C40.5099 8.50933 40.4993 8.664 40.4779 8.824C40.4673 8.984 40.4406 9.12267 40.3979 9.24H33.6779V7.64H39.2139L38.2219 8.392C38.3179 7.90133 38.2913 7.464 38.1419 7.08C38.0033 6.696 37.7686 6.392 37.4379 6.168C37.1179 5.944 36.7286 5.832 36.2699 5.832C35.8326 5.832 35.4433 5.944 35.1019 6.168C34.7606 6.38133 34.4993 6.70133 34.3179 7.128C34.1473 7.544 34.0833 8.05067 34.1259 8.648C34.0833 9.18133 34.1526 9.656 34.3339 10.072C34.5259 10.4773 34.8033 10.792 35.1659 11.016C35.5393 11.24 35.9659 11.352 36.4459 11.352C36.9259 11.352 37.3313 11.2507 37.6619 11.048C38.0033 10.8453 38.2699 10.5733 38.4619 10.232L40.1579 11.064C39.9873 11.48 39.7206 11.848 39.3579 12.168C38.9953 12.488 38.5633 12.7387 38.0619 12.92C37.5713 13.1013 37.0273 13.192 36.4299 13.192ZM35.1979 2.76L36.2379 -0.00800037H38.9579L37.2619 2.76H35.1979ZM41.7788 13V4.296H43.7468V6.232L43.5868 5.944C43.7895 5.29333 44.1041 4.84 44.5308 4.584C44.9681 4.328 45.4908 4.2 46.0988 4.2H46.6108V6.056H45.8588C45.2615 6.056 44.7815 6.24267 44.4188 6.616C44.0561 6.97867 43.8748 7.49067 43.8748 8.152V13H41.7788ZM51.5712 13.192C50.6752 13.192 49.8912 12.9893 49.2192 12.584C48.5472 12.1787 48.0245 11.6293 47.6512 10.936C47.2779 10.2427 47.0912 9.47467 47.0912 8.632C47.0912 7.75733 47.2779 6.984 47.6512 6.312C48.0352 5.62933 48.5525 5.09067 49.2032 4.696C49.8645 4.30133 50.6005 4.104 51.4112 4.104C52.0939 4.104 52.6912 4.216 53.2032 4.44C53.7259 4.664 54.1685 4.97333 54.5312 5.368C54.8939 5.76267 55.1712 6.216 55.3632 6.728C55.5552 7.22933 55.6512 7.77333 55.6512 8.36C55.6512 8.50933 55.6405 8.664 55.6192 8.824C55.6085 8.984 55.5819 9.12267 55.5392 9.24H48.8192V7.64H54.3552L53.3632 8.392C53.4592 7.90133 53.4325 7.464 53.2832 7.08C53.1445 6.696 52.9099 6.392 52.5792 6.168C52.2592 5.944 51.8699 5.832 51.4112 5.832C50.9739 5.832 50.5845 5.944 50.2432 6.168C49.9019 6.38133 49.6405 6.70133 49.4592 7.128C49.2885 7.544 49.2245 8.05067 49.2672 8.648C49.2245 9.18133 49.2939 9.656 49.4752 10.072C49.6672 10.4773 49.9445 10.792 50.3072 11.016C50.6805 11.24 51.1072 11.352 51.5872 11.352C52.0672 11.352 52.4725 11.2507 52.8032 11.048C53.1445 10.8453 53.4112 10.5733 53.6032 10.232L55.2992 11.064C55.1285 11.48 54.8619 11.848 54.4992 12.168C54.1365 12.488 53.7045 12.7387 53.2032 12.92C52.7125 13.1013 52.1685 13.192 51.5712 13.192ZM56.9201 13V4.296H58.8881V6.232L58.7281 5.944C58.9307 5.29333 59.2454 4.84 59.6721 4.584C60.1094 4.328 60.6321 4.2 61.2401 4.2H61.7521V6.056H61.0001C60.4027 6.056 59.9227 6.24267 59.5601 6.616C59.1974 6.97867 59.0161 7.49067 59.0161 8.152V13H56.9201ZM65.1082 13V0.888H67.2042V13H65.1082ZM72.9474 13.192C72.0514 13.192 71.2674 12.9893 70.5954 12.584C69.9234 12.1787 69.4008 11.6293 69.0274 10.936C68.6541 10.2427 68.4674 9.47467 68.4674 8.632C68.4674 7.75733 68.6541 6.984 69.0274 6.312C69.4114 5.62933 69.9288 5.09067 70.5794 4.696C71.2408 4.30133 71.9768 4.104 72.7874 4.104C73.4701 4.104 74.0674 4.216 74.5794 4.44C75.1021 4.664 75.5448 4.97333 75.9074 5.368C76.2701 5.76267 76.5474 6.216 76.7394 6.728C76.9314 7.22933 77.0274 7.77333 77.0274 8.36C77.0274 8.50933 77.0168 8.664 76.9954 8.824C76.9848 8.984 76.9581 9.12267 76.9154 9.24H70.1954V7.64H75.7314L74.7394 8.392C74.8354 7.90133 74.8088 7.464 74.6594 7.08C74.5208 6.696 74.2861 6.392 73.9554 6.168C73.6354 5.944 73.2461 5.832 72.7874 5.832C72.3501 5.832 71.9608 5.944 71.6194 6.168C71.2781 6.38133 71.0168 6.70133 70.8354 7.128C70.6648 7.544 70.6008 8.05067 70.6434 8.648C70.6008 9.18133 70.6701 9.656 70.8514 10.072C71.0434 10.4773 71.3208 10.792 71.6834 11.016C72.0568 11.24 72.4834 11.352 72.9634 11.352C73.4434 11.352 73.8488 11.2507 74.1794 11.048C74.5208 10.8453 74.7874 10.5733 74.9794 10.232L76.6754 11.064C76.5048 11.48 76.2381 11.848 75.8754 12.168C75.5128 12.488 75.0808 12.7387 74.5794 12.92C74.0888 13.1013 73.5448 13.192 72.9474 13.192ZM85.0121 13.192C84.1481 13.192 83.3694 12.9947 82.6761 12.6C81.9934 12.1947 81.4547 11.6507 81.0601 10.968C80.6654 10.2747 80.4681 9.496 80.4681 8.632C80.4681 7.768 80.6654 6.99467 81.0601 6.312C81.4547 5.62933 81.9934 5.09067 82.6761 4.696C83.3694 4.30133 84.1481 4.104 85.0121 4.104C85.6307 4.104 86.2067 4.216 86.7401 4.44C87.2734 4.65333 87.7321 4.952 88.1161 5.336C88.5107 5.70933 88.7934 6.15733 88.9641 6.68L87.1241 7.48C86.9641 7.04267 86.6921 6.69067 86.3081 6.424C85.9347 6.15733 85.5027 6.024 85.0121 6.024C84.5534 6.024 84.1427 6.136 83.7801 6.36C83.4281 6.584 83.1507 6.89333 82.9481 7.288C82.7454 7.68267 82.6441 8.136 82.6441 8.648C82.6441 9.16 82.7454 9.61333 82.9481 10.008C83.1507 10.4027 83.4281 10.712 83.7801 10.936C84.1427 11.16 84.5534 11.272 85.0121 11.272C85.5134 11.272 85.9507 11.1387 86.3241 10.872C86.6974 10.6053 86.9641 10.248 87.1241 9.8L88.9641 10.632C88.7934 11.1227 88.5161 11.5653 88.1321 11.96C87.7481 12.344 87.2894 12.648 86.7561 12.872C86.2227 13.0853 85.6414 13.192 85.0121 13.192ZM90.2344 13V0.888H92.3304V13H90.2344ZM96.5857 13.192C95.9777 13.192 95.4497 13.0907 95.0017 12.888C94.5537 12.6853 94.207 12.3973 93.9617 12.024C93.7163 11.64 93.5937 11.1973 93.5937 10.696C93.5937 10.216 93.7003 9.78933 93.9137 9.416C94.127 9.032 94.4577 8.712 94.9057 8.456C95.3537 8.2 95.919 8.01867 96.6017 7.912L99.4497 7.448V9.048L97.0017 9.464C96.5857 9.53867 96.2763 9.672 96.0737 9.864C95.871 10.056 95.7697 10.3067 95.7697 10.616C95.7697 10.9147 95.8817 11.1547 96.1057 11.336C96.3403 11.5067 96.6283 11.592 96.9697 11.592C97.407 11.592 97.791 11.5013 98.1217 11.32C98.463 11.128 98.7243 10.8667 98.9057 10.536C99.0977 10.2053 99.1937 9.84267 99.1937 9.448V7.208C99.1937 6.83467 99.0443 6.52533 98.7457 6.28C98.4577 6.024 98.0737 5.896 97.5937 5.896C97.1457 5.896 96.7457 6.01867 96.3937 6.264C96.0523 6.49867 95.8017 6.81333 95.6417 7.208L93.9297 6.376C94.1003 5.91733 94.367 5.52267 94.7297 5.192C95.103 4.85067 95.5403 4.584 96.0417 4.392C96.543 4.2 97.087 4.104 97.6737 4.104C98.3883 4.104 99.0177 4.23733 99.5617 4.504C100.106 4.76 100.527 5.12267 100.826 5.592C101.135 6.05067 101.29 6.58933 101.29 7.208V13H99.3057V11.512L99.7537 11.48C99.5297 11.8533 99.263 12.168 98.9537 12.424C98.6443 12.6693 98.2923 12.8613 97.8977 13C97.503 13.128 97.0657 13.192 96.5857 13.192ZM106.219 13.192C105.291 13.192 104.48 12.9733 103.787 12.536C103.104 12.088 102.635 11.4853 102.379 10.728L103.947 9.976C104.171 10.4667 104.48 10.8507 104.875 11.128C105.28 11.4053 105.728 11.544 106.219 11.544C106.603 11.544 106.907 11.4587 107.131 11.288C107.355 11.1173 107.467 10.8933 107.467 10.616C107.467 10.4453 107.419 10.3067 107.323 10.2C107.238 10.0827 107.115 9.98667 106.955 9.912C106.806 9.82667 106.64 9.75733 106.459 9.704L105.035 9.304C104.299 9.09067 103.739 8.76533 103.355 8.328C102.982 7.89067 102.795 7.37333 102.795 6.776C102.795 6.24267 102.928 5.77867 103.195 5.384C103.472 4.97867 103.851 4.664 104.331 4.44C104.822 4.216 105.382 4.104 106.011 4.104C106.832 4.104 107.558 4.30133 108.187 4.696C108.816 5.09067 109.264 5.64533 109.531 6.36L107.931 7.112C107.782 6.71733 107.531 6.40267 107.179 6.168C106.827 5.93333 106.432 5.816 105.995 5.816C105.643 5.816 105.366 5.896 105.163 6.056C104.96 6.216 104.859 6.424 104.859 6.68C104.859 6.84 104.902 6.97867 104.987 7.096C105.072 7.21333 105.19 7.30933 105.339 7.384C105.499 7.45867 105.68 7.528 105.883 7.592L107.275 8.008C107.99 8.22133 108.539 8.54133 108.923 8.968C109.318 9.39467 109.515 9.91733 109.515 10.536C109.515 11.0587 109.376 11.5227 109.099 11.928C108.822 12.3227 108.438 12.632 107.947 12.856C107.456 13.08 106.88 13.192 106.219 13.192ZM114.118 13.192C113.19 13.192 112.379 12.9733 111.686 12.536C111.003 12.088 110.534 11.4853 110.278 10.728L111.846 9.976C112.07 10.4667 112.379 10.8507 112.774 11.128C113.179 11.4053 113.627 11.544 114.118 11.544C114.502 11.544 114.806 11.4587 115.03 11.288C115.254 11.1173 115.366 10.8933 115.366 10.616C115.366 10.4453 115.318 10.3067 115.222 10.2C115.136 10.0827 115.014 9.98667 114.854 9.912C114.704 9.82667 114.539 9.75733 114.358 9.704L112.934 9.304C112.198 9.09067 111.638 8.76533 111.254 8.328C110.88 7.89067 110.694 7.37333 110.694 6.776C110.694 6.24267 110.827 5.77867 111.094 5.384C111.371 4.97867 111.75 4.664 112.23 4.44C112.72 4.216 113.28 4.104 113.91 4.104C114.731 4.104 115.456 4.30133 116.086 4.696C116.715 5.09067 117.163 5.64533 117.43 6.36L115.83 7.112C115.68 6.71733 115.43 6.40267 115.078 6.168C114.726 5.93333 114.331 5.816 113.894 5.816C113.542 5.816 113.264 5.896 113.062 6.056C112.859 6.216 112.758 6.424 112.758 6.68C112.758 6.84 112.8 6.97867 112.886 7.096C112.971 7.21333 113.088 7.30933 113.238 7.384C113.398 7.45867 113.579 7.528 113.782 7.592L115.174 8.008C115.888 8.22133 116.438 8.54133 116.822 8.968C117.216 9.39467 117.414 9.91733 117.414 10.536C117.414 11.0587 117.275 11.5227 116.998 11.928C116.72 12.3227 116.336 12.632 115.846 12.856C115.355 13.08 114.779 13.192 114.118 13.192ZM122.832 13.192C121.936 13.192 121.152 12.9893 120.48 12.584C119.808 12.1787 119.286 11.6293 118.912 10.936C118.539 10.2427 118.352 9.47467 118.352 8.632C118.352 7.75733 118.539 6.984 118.912 6.312C119.296 5.62933 119.814 5.09067 120.464 4.696C121.126 4.30133 121.862 4.104 122.672 4.104C123.355 4.104 123.952 4.216 124.464 4.44C124.987 4.664 125.43 4.97333 125.792 5.368C126.155 5.76267 126.432 6.216 126.624 6.728C126.816 7.22933 126.912 7.77333 126.912 8.36C126.912 8.50933 126.902 8.664 126.88 8.824C126.87 8.984 126.843 9.12267 126.8 9.24H120.08V7.64H125.616L124.624 8.392C124.72 7.90133 124.694 7.464 124.544 7.08C124.406 6.696 124.171 6.392 123.84 6.168C123.52 5.944 123.131 5.832 122.672 5.832C122.235 5.832 121.846 5.944 121.504 6.168C121.163 6.38133 120.902 6.70133 120.72 7.128C120.55 7.544 120.486 8.05067 120.528 8.648C120.486 9.18133 120.555 9.656 120.736 10.072C120.928 10.4773 121.206 10.792 121.568 11.016C121.942 11.24 122.368 11.352 122.848 11.352C123.328 11.352 123.734 11.2507 124.064 11.048C124.406 10.8453 124.672 10.5733 124.864 10.232L126.56 11.064C126.39 11.48 126.123 11.848 125.76 12.168C125.398 12.488 124.966 12.7387 124.464 12.92C123.974 13.1013 123.43 13.192 122.832 13.192ZM128.181 13V4.296H130.149V6.312L129.925 5.976C130.085 5.34667 130.405 4.87733 130.885 4.568C131.365 4.25867 131.931 4.104 132.581 4.104C133.296 4.104 133.925 4.29067 134.469 4.664C135.013 5.03733 135.365 5.528 135.525 6.136L134.933 6.184C135.2 5.49067 135.6 4.97333 136.133 4.632C136.667 4.28 137.28 4.104 137.973 4.104C138.592 4.104 139.141 4.24267 139.621 4.52C140.112 4.79733 140.496 5.18667 140.773 5.688C141.051 6.17867 141.189 6.74933 141.189 7.4V13H139.093V7.896C139.093 7.512 139.024 7.18133 138.885 6.904C138.747 6.62667 138.555 6.41333 138.309 6.264C138.064 6.104 137.765 6.024 137.413 6.024C137.083 6.024 136.789 6.104 136.533 6.264C136.277 6.41333 136.08 6.62667 135.941 6.904C135.803 7.18133 135.733 7.512 135.733 7.896V13H133.637V7.896C133.637 7.512 133.568 7.18133 133.429 6.904C133.291 6.62667 133.093 6.41333 132.837 6.264C132.592 6.104 132.299 6.024 131.957 6.024C131.627 6.024 131.333 6.104 131.077 6.264C130.821 6.41333 130.624 6.62667 130.485 6.904C130.347 7.18133 130.277 7.512 130.277 7.896V13H128.181ZM146.771 13.192C145.875 13.192 145.091 12.9893 144.419 12.584C143.747 12.1787 143.224 11.6293 142.851 10.936C142.477 10.2427 142.291 9.47467 142.291 8.632C142.291 7.75733 142.477 6.984 142.851 6.312C143.235 5.62933 143.752 5.09067 144.403 4.696C145.064 4.30133 145.8 4.104 146.611 4.104C147.293 4.104 147.891 4.216 148.403 4.44C148.925 4.664 149.368 4.97333 149.731 5.368C150.093 5.76267 150.371 6.216 150.563 6.728C150.755 7.22933 150.851 7.77333 150.851 8.36C150.851 8.50933 150.84 8.664 150.819 8.824C150.808 8.984 150.781 9.12267 150.739 9.24H144.019V7.64H149.555L148.563 8.392C148.659 7.90133 148.632 7.464 148.483 7.08C148.344 6.696 148.109 6.392 147.779 6.168C147.459 5.944 147.069 5.832 146.611 5.832C146.173 5.832 145.784 5.944 145.443 6.168C145.101 6.38133 144.84 6.70133 144.659 7.128C144.488 7.544 144.424 8.05067 144.467 8.648C144.424 9.18133 144.493 9.656 144.675 10.072C144.867 10.4773 145.144 10.792 145.507 11.016C145.88 11.24 146.307 11.352 146.787 11.352C147.267 11.352 147.672 11.2507 148.003 11.048C148.344 10.8453 148.611 10.5733 148.803 10.232L150.499 11.064C150.328 11.48 150.061 11.848 149.699 12.168C149.336 12.488 148.904 12.7387 148.403 12.92C147.912 13.1013 147.368 13.192 146.771 13.192ZM152.119 13V4.296H154.087V6.008L153.927 5.704C154.13 5.18133 154.461 4.78667 154.919 4.52C155.389 4.24267 155.933 4.104 156.551 4.104C157.191 4.104 157.757 4.24267 158.247 4.52C158.749 4.79733 159.138 5.18667 159.415 5.688C159.693 6.17867 159.831 6.74933 159.831 7.4V13H157.735V7.896C157.735 7.512 157.661 7.18133 157.511 6.904C157.362 6.62667 157.154 6.41333 156.887 6.264C156.631 6.104 156.327 6.024 155.975 6.024C155.634 6.024 155.33 6.104 155.063 6.264C154.797 6.41333 154.589 6.62667 154.439 6.904C154.29 7.18133 154.215 7.512 154.215 7.896V13H152.119ZM165.252 13.096C164.27 13.096 163.508 12.8293 162.964 12.296C162.43 11.752 162.164 10.9893 162.164 10.008V6.168H160.66V4.296H160.82C161.246 4.296 161.577 4.184 161.812 3.96C162.046 3.736 162.164 3.41067 162.164 2.984V2.312H164.26V4.296H166.26V6.168H164.26V9.896C164.26 10.184 164.308 10.4293 164.404 10.632C164.51 10.8347 164.67 10.9893 164.884 11.096C165.108 11.2027 165.39 11.256 165.732 11.256C165.806 11.256 165.892 11.2507 165.988 11.24C166.094 11.2293 166.196 11.2187 166.292 11.208V13C166.142 13.0213 165.972 13.0427 165.78 13.064C165.588 13.0853 165.412 13.096 165.252 13.096Z" fill="white"/>
</svg>
