<svg width="145" height="171" viewBox="0 0 145 171" fill="none" xmlns="http://www.w3.org/2000/svg">
<rect width="145" height="170" rx="7" fill="#1A1A1A"/>
<path d="M15.525 20.735C15.525 17.735 17.88 15.305 21.12 15.305C23.01 15.305 24.6 16.22 25.635 17.57L24.06 18.725C23.385 17.765 22.275 17.15 21.15 17.15C19.155 17.15 17.58 18.605 17.58 20.735C17.58 22.895 19.185 24.335 21.15 24.335C22.365 24.335 23.46 23.75 24.105 22.775L25.68 23.93C24.69 25.28 23.1 26.195 21.165 26.195C17.865 26.195 15.525 23.81 15.525 20.735ZM30.8348 19.97H30.1298C29.1998 19.97 28.4798 20.645 28.4798 21.83V26H26.5148V18.245H28.4648V19.085C28.8548 18.515 29.4698 18.17 30.3098 18.17H30.8348V19.97ZM32.7783 17.42C32.1633 17.42 31.6683 16.94 31.6683 16.325C31.6683 15.71 32.1633 15.245 32.7783 15.245C33.3933 15.245 33.8583 15.71 33.8583 16.325C33.8583 16.94 33.3933 17.42 32.7783 17.42ZM33.7533 18.245V26H31.7883V18.245H33.7533ZM37.0488 21.41V26H35.0988V18.245H37.0488V18.875C37.5738 18.35 38.3238 18.035 39.1338 18.035C40.2738 18.035 41.1888 18.575 41.6838 19.4C42.2088 18.545 43.1238 18.035 44.1738 18.035C45.9438 18.035 47.1288 19.34 47.1288 21.005V26H45.1788V21.41C45.1788 20.45 44.5488 19.79 43.6338 19.79C42.7338 19.79 42.0888 20.42 42.0888 21.41V26H40.1388V21.41C40.1388 20.45 39.5088 19.79 38.5938 19.79C37.6788 19.79 37.0488 20.42 37.0488 21.41ZM49.4775 17.42C48.8625 17.42 48.3675 16.94 48.3675 16.325C48.3675 15.71 48.8625 15.245 49.4775 15.245C50.0925 15.245 50.5575 15.71 50.5575 16.325C50.5575 16.94 50.0925 17.42 49.4775 17.42ZM50.4525 18.245V26H48.4875V18.245H50.4525ZM58.953 21.065V26H56.988V21.455C56.988 20.45 56.343 19.79 55.383 19.79C54.438 19.79 53.763 20.42 53.763 21.455V26H51.798V18.245H53.763V18.905C54.303 18.35 55.053 18.035 55.893 18.035C57.708 18.035 58.953 19.37 58.953 21.065ZM59.9638 23.825C59.9638 22.43 60.9088 21.635 62.5588 21.515L64.8388 21.35V21.05C64.8388 20.285 64.3288 19.82 63.4138 19.82C62.7088 19.82 62.0488 20.045 61.3588 20.51L60.5338 19.115C61.4338 18.455 62.4688 18.08 63.6538 18.08C65.5138 18.08 66.7438 19.16 66.7438 20.81V23.855C66.7438 24.14 66.8938 24.305 67.1788 24.305H67.5838V26H66.6688C65.9188 26 65.3488 25.655 65.0788 25.085C64.5388 25.775 63.6838 26.195 62.6488 26.195C61.1038 26.195 59.9638 25.19 59.9638 23.825ZM61.8388 23.81C61.8388 24.35 62.3488 24.695 63.0838 24.695C64.0588 24.695 64.8388 24.065 64.8388 23.285V22.79L62.8288 22.97C62.1688 23.03 61.8388 23.3 61.8388 23.81ZM70.4476 26H68.4826V15.5H70.4476V26ZM72.7832 17.42C72.1682 17.42 71.6732 16.94 71.6732 16.325C71.6732 15.71 72.1682 15.245 72.7832 15.245C73.3982 15.245 73.8632 15.71 73.8632 16.325C73.8632 16.94 73.3982 17.42 72.7832 17.42ZM73.7582 18.245V26H71.7932V18.245H73.7582ZM78.2237 26C76.8137 26 76.0937 25.16 76.0937 24.05V19.94H74.5787V18.245H76.0937V15.995H78.0437V18.245H79.7537V19.94H78.0437V23.705C78.0437 24.11 78.3287 24.305 78.7787 24.305H79.7537V26H78.2237ZM80.3269 22.115C80.3269 19.955 82.0519 18.065 84.3469 18.065C86.6719 18.065 88.3219 19.79 88.3219 22.205V22.775H82.3369C82.5919 23.78 83.4319 24.515 84.5119 24.515C85.3369 24.515 85.9819 24.23 86.5519 23.495L87.9169 24.515C87.1369 25.58 85.9669 26.195 84.5269 26.195C82.1569 26.195 80.3269 24.485 80.3269 22.115ZM84.3019 19.745C83.3869 19.745 82.6369 20.33 82.3669 21.275H86.3419C86.0569 20.315 85.2469 19.745 84.3019 19.745ZM84.7219 15.245H86.8819L84.9469 17.225H83.0869L84.7219 15.245Z" fill="white"/>
<g filter="url(#filter0_d_392_306)">
<path d="M119.247 111.624C119.247 137.373 98.373 158.247 72.6235 158.247C46.8741 158.247 26 137.373 26 111.624C26 85.8741 46.8741 65 72.6235 65C98.373 65 119.247 85.8741 119.247 111.624ZM39.9871 111.624C39.9871 129.648 54.5989 144.26 72.6235 144.26C90.6482 144.26 105.26 129.648 105.26 111.624C105.26 93.5989 90.6482 78.9871 72.6235 78.9871C54.5989 78.9871 39.9871 93.5989 39.9871 111.624Z" fill="black"/>
</g>
<path d="M112.254 112.199C116.116 112.199 119.301 115.347 118.724 119.167C117.612 126.518 114.753 133.534 110.343 139.604C104.555 147.569 96.395 153.498 87.031 156.541C77.667 159.583 67.5801 159.583 58.2161 156.541C48.852 153.498 40.6916 147.569 34.9043 139.604C29.117 131.638 26 122.045 26 112.199C26 102.353 29.117 92.7599 34.9043 84.7943C40.6916 76.8288 48.852 70.8999 58.2161 67.8574C65.3518 65.5388 72.9072 64.9871 80.2427 66.2022C84.0532 66.8333 86.0634 70.8352 84.8699 74.5086C83.6763 78.182 79.7207 80.1102 75.8775 79.7251C71.4046 79.2769 66.8614 79.7552 62.5383 81.1598C55.9835 83.2896 50.2712 87.4399 46.2201 93.0157C42.169 98.5916 39.9871 105.307 39.9871 112.199C39.9871 119.091 42.169 125.806 46.2201 131.382C50.2712 136.958 55.9835 141.108 62.5383 143.238C69.0931 145.368 76.1539 145.368 82.7088 143.238C89.2636 141.108 94.9759 136.958 99.027 131.382C101.699 127.705 103.558 123.532 104.514 119.139C105.335 115.365 108.391 112.199 112.254 112.199Z" fill="#E80054"/>
<path d="M66.2944 112.227C66.2944 112.762 66.1694 113.214 65.9194 113.581C65.6694 113.944 65.3257 114.219 64.8882 114.407C64.4546 114.591 63.9624 114.682 63.4116 114.682C62.8608 114.682 62.3667 114.591 61.9292 114.407C61.4917 114.219 61.146 113.944 60.8921 113.581C60.6382 113.214 60.5112 112.762 60.5112 112.227C60.5112 111.868 60.5835 111.544 60.728 111.255C60.8726 110.962 61.0737 110.712 61.3315 110.505C61.5933 110.294 61.8999 110.134 62.2515 110.024C62.603 109.911 62.9858 109.854 63.3999 109.854C63.9546 109.854 64.4507 109.952 64.8882 110.147C65.3257 110.343 65.6694 110.618 65.9194 110.973C66.1694 111.329 66.2944 111.747 66.2944 112.227ZM64.5952 112.116C64.5952 111.854 64.5444 111.63 64.4429 111.442C64.3452 111.251 64.2065 111.104 64.0269 111.003C63.8472 110.901 63.6382 110.85 63.3999 110.85C63.1616 110.85 62.9526 110.901 62.7729 111.003C62.5933 111.104 62.4526 111.251 62.3511 111.442C62.2534 111.63 62.2046 111.854 62.2046 112.116C62.2046 112.374 62.2534 112.596 62.3511 112.784C62.4526 112.971 62.5933 113.116 62.7729 113.218C62.9565 113.315 63.1694 113.364 63.4116 113.364C63.6538 113.364 63.8628 113.315 64.0386 113.218C64.2183 113.116 64.355 112.971 64.4487 112.784C64.5464 112.596 64.5952 112.374 64.5952 112.116ZM66.1128 108.296C66.1128 108.729 65.9976 109.114 65.7671 109.45C65.5366 109.782 65.2163 110.042 64.8062 110.229C64.3999 110.417 63.9351 110.51 63.4116 110.51C62.8843 110.51 62.4155 110.417 62.0054 110.229C61.5952 110.042 61.2749 109.782 61.0444 109.45C60.814 109.114 60.6987 108.729 60.6987 108.296C60.6987 107.78 60.814 107.346 61.0444 106.995C61.2788 106.639 61.5991 106.37 62.0054 106.186C62.4155 106.003 62.8804 105.911 63.3999 105.911C63.9272 105.911 64.394 106.003 64.8003 106.186C65.2104 106.37 65.5308 106.639 65.7612 106.995C65.9956 107.346 66.1128 107.78 66.1128 108.296ZM64.4253 108.372C64.4253 108.141 64.3843 107.942 64.3022 107.774C64.2202 107.602 64.103 107.469 63.9507 107.376C63.8022 107.282 63.6187 107.235 63.3999 107.235C63.189 107.235 63.0073 107.28 62.855 107.37C62.7065 107.46 62.5913 107.591 62.5093 107.762C62.4312 107.93 62.3921 108.134 62.3921 108.372C62.3921 108.602 62.4312 108.805 62.5093 108.981C62.5913 109.153 62.7085 109.288 62.8608 109.385C63.0132 109.483 63.1968 109.532 63.4116 109.532C63.6265 109.532 63.8081 109.483 63.9565 109.385C64.1089 109.288 64.2241 109.153 64.3022 108.981C64.3843 108.805 64.4253 108.602 64.4253 108.372ZM73.1792 109.55V111.026C73.1792 111.667 73.1108 112.219 72.9741 112.684C72.8374 113.145 72.6401 113.524 72.3823 113.821C72.1284 114.114 71.8257 114.331 71.4741 114.471C71.1226 114.612 70.7319 114.682 70.3022 114.682C69.9585 114.682 69.6382 114.639 69.3413 114.553C69.0444 114.464 68.7769 114.325 68.5386 114.137C68.3042 113.95 68.1011 113.714 67.9292 113.428C67.7612 113.139 67.6323 112.796 67.5425 112.397C67.4526 111.999 67.4077 111.542 67.4077 111.026V109.55C67.4077 108.909 67.4761 108.36 67.6128 107.903C67.7534 107.442 67.9507 107.065 68.2046 106.772C68.4624 106.479 68.7671 106.264 69.1187 106.128C69.4702 105.987 69.8608 105.917 70.2905 105.917C70.6343 105.917 70.9526 105.962 71.2456 106.052C71.5425 106.137 71.8101 106.272 72.0483 106.456C72.2866 106.639 72.4897 106.876 72.6577 107.165C72.8257 107.45 72.9546 107.792 73.0444 108.19C73.1343 108.585 73.1792 109.038 73.1792 109.55ZM71.4858 111.249V109.321C71.4858 109.012 71.4683 108.743 71.4331 108.512C71.4019 108.282 71.353 108.087 71.2866 107.927C71.2202 107.762 71.1382 107.63 71.0405 107.528C70.9429 107.427 70.8315 107.352 70.7065 107.305C70.5815 107.259 70.4429 107.235 70.2905 107.235C70.0991 107.235 69.9292 107.272 69.7808 107.346C69.6362 107.421 69.5132 107.54 69.4116 107.704C69.3101 107.864 69.2319 108.079 69.1772 108.348C69.1265 108.614 69.1011 108.938 69.1011 109.321V111.249C69.1011 111.557 69.1167 111.829 69.1479 112.063C69.1831 112.298 69.2339 112.499 69.3003 112.667C69.3706 112.831 69.4526 112.966 69.5464 113.071C69.644 113.173 69.7554 113.247 69.8804 113.294C70.0093 113.341 70.1499 113.364 70.3022 113.364C70.4897 113.364 70.6558 113.327 70.8003 113.253C70.9487 113.175 71.0737 113.053 71.1753 112.889C71.2808 112.721 71.3589 112.503 71.4097 112.233C71.4604 111.964 71.4858 111.635 71.4858 111.249ZM74.3042 108.126V107.675C74.3042 107.35 74.3745 107.055 74.5151 106.79C74.6558 106.524 74.8628 106.311 75.1362 106.151C75.4097 105.991 75.7456 105.911 76.144 105.911C76.5542 105.911 76.896 105.991 77.1694 106.151C77.4468 106.311 77.6538 106.524 77.7905 106.79C77.9312 107.055 78.0015 107.35 78.0015 107.675V108.126C78.0015 108.442 77.9312 108.733 77.7905 108.999C77.6538 109.264 77.4487 109.477 77.1753 109.637C76.9019 109.798 76.562 109.878 76.1558 109.878C75.7534 109.878 75.4136 109.798 75.1362 109.637C74.8628 109.477 74.6558 109.264 74.5151 108.999C74.3745 108.733 74.3042 108.442 74.3042 108.126ZM75.4233 107.675V108.126C75.4233 108.262 75.4487 108.393 75.4995 108.518C75.5542 108.639 75.6362 108.739 75.7456 108.817C75.8589 108.891 75.9956 108.928 76.1558 108.928C76.3237 108.928 76.4604 108.891 76.5659 108.817C76.6714 108.739 76.7495 108.639 76.8003 108.518C76.8511 108.393 76.8765 108.262 76.8765 108.126V107.675C76.8765 107.53 76.8491 107.397 76.7944 107.276C76.7437 107.151 76.6636 107.052 76.5542 106.977C76.4487 106.899 76.312 106.86 76.144 106.86C75.9878 106.86 75.855 106.899 75.7456 106.977C75.6362 107.052 75.5542 107.151 75.4995 107.276C75.4487 107.397 75.4233 107.53 75.4233 107.675ZM78.3823 112.925V112.473C78.3823 112.153 78.4526 111.86 78.5933 111.594C78.7378 111.329 78.9468 111.116 79.2202 110.956C79.4976 110.796 79.8374 110.716 80.2397 110.716C80.646 110.716 80.9858 110.796 81.2593 110.956C81.5327 111.116 81.7397 111.329 81.8804 111.594C82.021 111.86 82.0913 112.153 82.0913 112.473V112.925C82.0913 113.245 82.021 113.538 81.8804 113.803C81.7437 114.069 81.5386 114.282 81.2651 114.442C80.9917 114.602 80.6538 114.682 80.2515 114.682C79.8452 114.682 79.5034 114.602 79.2261 114.442C78.9487 114.282 78.7378 114.069 78.5933 113.803C78.4526 113.538 78.3823 113.245 78.3823 112.925ZM79.5073 112.473V112.925C79.5073 113.065 79.5386 113.198 79.6011 113.323C79.6636 113.448 79.7495 113.548 79.8589 113.622C79.9722 113.696 80.103 113.733 80.2515 113.733C80.439 113.733 80.5854 113.696 80.6909 113.622C80.7964 113.548 80.8687 113.448 80.9077 113.323C80.9507 113.198 80.9722 113.065 80.9722 112.925V112.473C80.9722 112.333 80.9448 112.202 80.8901 112.081C80.8354 111.956 80.7534 111.856 80.644 111.782C80.5386 111.704 80.4038 111.665 80.2397 111.665C80.0757 111.665 79.939 111.704 79.8296 111.782C79.7241 111.856 79.644 111.956 79.5894 112.081C79.5347 112.202 79.5073 112.333 79.5073 112.473ZM80.6558 107.253L76.4897 113.921L75.6694 113.487L79.8354 106.819L80.6558 107.253Z" fill="white"/>
<path d="M20.0938 36.1914H20.8438C20.8047 36.5508 20.7018 36.8724 20.5352 37.1562C20.3685 37.4401 20.1328 37.6654 19.8281 37.832C19.5234 37.9961 19.1432 38.0781 18.6875 38.0781C18.3542 38.0781 18.0508 38.0156 17.7773 37.8906C17.5065 37.7656 17.2734 37.5885 17.0781 37.3594C16.8828 37.1276 16.7318 36.8503 16.625 36.5273C16.5208 36.2018 16.4688 35.8398 16.4688 35.4414V34.875C16.4688 34.4766 16.5208 34.1159 16.625 33.793C16.7318 33.4674 16.8841 33.1888 17.082 32.957C17.2826 32.7253 17.5234 32.5469 17.8047 32.4219C18.0859 32.2969 18.4023 32.2344 18.7539 32.2344C19.1836 32.2344 19.5469 32.3151 19.8438 32.4766C20.1406 32.638 20.3711 32.862 20.5352 33.1484C20.7018 33.4323 20.8047 33.7617 20.8438 34.1367H20.0938C20.0573 33.8711 19.9896 33.6432 19.8906 33.4531C19.7917 33.2604 19.651 33.112 19.4688 33.0078C19.2865 32.9036 19.0482 32.8516 18.7539 32.8516C18.5013 32.8516 18.2786 32.8997 18.0859 32.9961C17.8958 33.0924 17.7357 33.2292 17.6055 33.4062C17.4779 33.5833 17.3815 33.7956 17.3164 34.043C17.2513 34.2904 17.2188 34.5651 17.2188 34.8672V35.4414C17.2188 35.7201 17.2474 35.9818 17.3047 36.2266C17.3646 36.4714 17.4544 36.6862 17.5742 36.8711C17.694 37.056 17.8464 37.2018 18.0312 37.3086C18.2161 37.4128 18.4349 37.4648 18.6875 37.4648C19.0078 37.4648 19.263 37.4141 19.4531 37.3125C19.6432 37.2109 19.7865 37.0651 19.8828 36.875C19.9818 36.6849 20.0521 36.457 20.0938 36.1914ZM21.5703 35.9336V35.8438C21.5703 35.5391 21.6146 35.2565 21.7031 34.9961C21.7917 34.7331 21.9193 34.5052 22.0859 34.3125C22.2526 34.1172 22.4544 33.9661 22.6914 33.8594C22.9284 33.75 23.194 33.6953 23.4883 33.6953C23.7852 33.6953 24.0521 33.75 24.2891 33.8594C24.5286 33.9661 24.7318 34.1172 24.8984 34.3125C25.0677 34.5052 25.1966 34.7331 25.2852 34.9961C25.3737 35.2565 25.418 35.5391 25.418 35.8438V35.9336C25.418 36.2383 25.3737 36.5208 25.2852 36.7812C25.1966 37.0417 25.0677 37.2695 24.8984 37.4648C24.7318 37.6576 24.5299 37.8086 24.293 37.918C24.0586 38.0247 23.793 38.0781 23.4961 38.0781C23.1992 38.0781 22.9323 38.0247 22.6953 37.918C22.4583 37.8086 22.2552 37.6576 22.0859 37.4648C21.9193 37.2695 21.7917 37.0417 21.7031 36.7812C21.6146 36.5208 21.5703 36.2383 21.5703 35.9336ZM22.293 35.8438V35.9336C22.293 36.1445 22.3177 36.3438 22.3672 36.5312C22.4167 36.7161 22.4909 36.8802 22.5898 37.0234C22.6914 37.1667 22.8177 37.2799 22.9688 37.3633C23.1198 37.444 23.2956 37.4844 23.4961 37.4844C23.694 37.4844 23.8672 37.444 24.0156 37.3633C24.1667 37.2799 24.2917 37.1667 24.3906 37.0234C24.4896 36.8802 24.5638 36.7161 24.6133 36.5312C24.6654 36.3438 24.6914 36.1445 24.6914 35.9336V35.8438C24.6914 35.6354 24.6654 35.4388 24.6133 35.2539C24.5638 35.0664 24.4883 34.901 24.3867 34.7578C24.2878 34.612 24.1628 34.4974 24.0117 34.4141C23.8633 34.3307 23.6888 34.2891 23.4883 34.2891C23.2904 34.2891 23.1159 34.3307 22.9648 34.4141C22.8164 34.4974 22.6914 34.612 22.5898 34.7578C22.4909 34.901 22.4167 35.0664 22.3672 35.2539C22.3177 35.4388 22.293 35.6354 22.293 35.8438ZM27.0469 34.6758V38H26.3242V33.7734H27.0078L27.0469 34.6758ZM26.875 35.7266L26.5742 35.7148C26.5768 35.4258 26.6198 35.1589 26.7031 34.9141C26.7865 34.6667 26.9036 34.4518 27.0547 34.2695C27.2057 34.0872 27.3854 33.9466 27.5938 33.8477C27.8047 33.7461 28.0378 33.6953 28.293 33.6953C28.5013 33.6953 28.6888 33.724 28.8555 33.7812C29.0221 33.8359 29.1641 33.9245 29.2812 34.0469C29.401 34.1693 29.4922 34.3281 29.5547 34.5234C29.6172 34.7161 29.6484 34.9518 29.6484 35.2305V38H28.9219V35.2227C28.9219 35.0013 28.8893 34.8242 28.8242 34.6914C28.7591 34.556 28.6641 34.4583 28.5391 34.3984C28.4141 34.3359 28.2604 34.3047 28.0781 34.3047C27.8984 34.3047 27.7344 34.3424 27.5859 34.418C27.4401 34.4935 27.3138 34.5977 27.207 34.7305C27.1029 34.8633 27.0208 35.0156 26.9609 35.1875C26.9036 35.3568 26.875 35.5365 26.875 35.7266ZM33.4102 37.1797V32H34.1367V38H33.4727L33.4102 37.1797ZM30.5664 35.9336V35.8516C30.5664 35.5286 30.6055 35.2357 30.6836 34.9727C30.7643 34.707 30.8776 34.4792 31.0234 34.2891C31.1719 34.099 31.3477 33.9531 31.5508 33.8516C31.7565 33.7474 31.9857 33.6953 32.2383 33.6953C32.5039 33.6953 32.7357 33.7422 32.9336 33.8359C33.1341 33.9271 33.3034 34.0612 33.4414 34.2383C33.582 34.4128 33.6927 34.6237 33.7734 34.8711C33.8542 35.1185 33.9102 35.3984 33.9414 35.7109V36.0703C33.9128 36.3802 33.8568 36.6589 33.7734 36.9062C33.6927 37.1536 33.582 37.3646 33.4414 37.5391C33.3034 37.7135 33.1341 37.8477 32.9336 37.9414C32.7331 38.0326 32.4987 38.0781 32.2305 38.0781C31.9831 38.0781 31.7565 38.0247 31.5508 37.918C31.3477 37.8112 31.1719 37.6615 31.0234 37.4688C30.8776 37.276 30.7643 37.0495 30.6836 36.7891C30.6055 36.526 30.5664 36.2409 30.5664 35.9336ZM31.293 35.8516V35.9336C31.293 36.1445 31.3138 36.3424 31.3555 36.5273C31.3997 36.7122 31.4674 36.875 31.5586 37.0156C31.6497 37.1562 31.7656 37.2669 31.9062 37.3477C32.0469 37.4258 32.2148 37.4648 32.4102 37.4648C32.6497 37.4648 32.8464 37.4141 33 37.3125C33.1562 37.2109 33.2812 37.0768 33.375 36.9102C33.4688 36.7435 33.5417 36.5625 33.5938 36.3672V35.4258C33.5625 35.2826 33.5169 35.1445 33.457 35.0117C33.3997 34.8763 33.3242 34.7565 33.2305 34.6523C33.1393 34.5456 33.026 34.4609 32.8906 34.3984C32.7578 34.3359 32.6003 34.3047 32.418 34.3047C32.2201 34.3047 32.0495 34.3464 31.9062 34.4297C31.7656 34.5104 31.6497 34.6224 31.5586 34.7656C31.4674 34.9062 31.3997 35.0703 31.3555 35.2578C31.3138 35.4427 31.293 35.6406 31.293 35.8516ZM36.0469 33.7734V38H35.3203V33.7734H36.0469ZM35.2656 32.6523C35.2656 32.5352 35.3008 32.4362 35.3711 32.3555C35.444 32.2747 35.5508 32.2344 35.6914 32.2344C35.8294 32.2344 35.9349 32.2747 36.0078 32.3555C36.0833 32.4362 36.1211 32.5352 36.1211 32.6523C36.1211 32.7643 36.0833 32.8607 36.0078 32.9414C35.9349 33.0195 35.8294 33.0586 35.6914 33.0586C35.5508 33.0586 35.444 33.0195 35.3711 32.9414C35.3008 32.8607 35.2656 32.7643 35.2656 32.6523ZM38.9766 33.7734V34.3281H36.6914V33.7734H38.9766ZM37.4648 32.7461H38.1875V36.9531C38.1875 37.0964 38.2096 37.2044 38.2539 37.2773C38.2982 37.3503 38.3555 37.3984 38.4258 37.4219C38.4961 37.4453 38.5716 37.457 38.6523 37.457C38.7122 37.457 38.7747 37.4518 38.8398 37.4414C38.9076 37.4284 38.9583 37.418 38.9922 37.4102L38.9961 38C38.9388 38.0182 38.8633 38.0352 38.7695 38.0508C38.6784 38.069 38.5677 38.0781 38.4375 38.0781C38.2604 38.0781 38.0977 38.043 37.9492 37.9727C37.8008 37.9023 37.6823 37.7852 37.5938 37.6211C37.5078 37.4544 37.4648 37.2305 37.4648 36.9492V32.7461ZM40.6094 33.7734V38H39.8828V33.7734H40.6094ZM39.8281 32.6523C39.8281 32.5352 39.8633 32.4362 39.9336 32.3555C40.0065 32.2747 40.1133 32.2344 40.2539 32.2344C40.3919 32.2344 40.4974 32.2747 40.5703 32.3555C40.6458 32.4362 40.6836 32.5352 40.6836 32.6523C40.6836 32.7643 40.6458 32.8607 40.5703 32.9414C40.4974 33.0195 40.3919 33.0586 40.2539 33.0586C40.1133 33.0586 40.0065 33.0195 39.9336 32.9414C39.8633 32.8607 39.8281 32.7643 39.8281 32.6523ZM41.5781 35.9336V35.8438C41.5781 35.5391 41.6224 35.2565 41.7109 34.9961C41.7995 34.7331 41.9271 34.5052 42.0938 34.3125C42.2604 34.1172 42.4622 33.9661 42.6992 33.8594C42.9362 33.75 43.2018 33.6953 43.4961 33.6953C43.793 33.6953 44.0599 33.75 44.2969 33.8594C44.5365 33.9661 44.7396 34.1172 44.9062 34.3125C45.0755 34.5052 45.2044 34.7331 45.293 34.9961C45.3815 35.2565 45.4258 35.5391 45.4258 35.8438V35.9336C45.4258 36.2383 45.3815 36.5208 45.293 36.7812C45.2044 37.0417 45.0755 37.2695 44.9062 37.4648C44.7396 37.6576 44.5378 37.8086 44.3008 37.918C44.0664 38.0247 43.8008 38.0781 43.5039 38.0781C43.207 38.0781 42.9401 38.0247 42.7031 37.918C42.4661 37.8086 42.263 37.6576 42.0938 37.4648C41.9271 37.2695 41.7995 37.0417 41.7109 36.7812C41.6224 36.5208 41.5781 36.2383 41.5781 35.9336ZM42.3008 35.8438V35.9336C42.3008 36.1445 42.3255 36.3438 42.375 36.5312C42.4245 36.7161 42.4987 36.8802 42.5977 37.0234C42.6992 37.1667 42.8255 37.2799 42.9766 37.3633C43.1276 37.444 43.3034 37.4844 43.5039 37.4844C43.7018 37.4844 43.875 37.444 44.0234 37.3633C44.1745 37.2799 44.2995 37.1667 44.3984 37.0234C44.4974 36.8802 44.5716 36.7161 44.6211 36.5312C44.6732 36.3438 44.6992 36.1445 44.6992 35.9336V35.8438C44.6992 35.6354 44.6732 35.4388 44.6211 35.2539C44.5716 35.0664 44.4961 34.901 44.3945 34.7578C44.2956 34.612 44.1706 34.4974 44.0195 34.4141C43.8711 34.3307 43.6966 34.2891 43.4961 34.2891C43.2982 34.2891 43.1237 34.3307 42.9727 34.4141C42.8242 34.4974 42.6992 34.612 42.5977 34.7578C42.4987 34.901 42.4245 35.0664 42.375 35.2539C42.3255 35.4388 42.3008 35.6354 42.3008 35.8438ZM47.0547 34.6758V38H46.332V33.7734H47.0156L47.0547 34.6758ZM46.8828 35.7266L46.582 35.7148C46.5846 35.4258 46.6276 35.1589 46.7109 34.9141C46.7943 34.6667 46.9115 34.4518 47.0625 34.2695C47.2135 34.0872 47.3932 33.9466 47.6016 33.8477C47.8125 33.7461 48.0456 33.6953 48.3008 33.6953C48.5091 33.6953 48.6966 33.724 48.8633 33.7812C49.0299 33.8359 49.1719 33.9245 49.2891 34.0469C49.4089 34.1693 49.5 34.3281 49.5625 34.5234C49.625 34.7161 49.6562 34.9518 49.6562 35.2305V38H48.9297V35.2227C48.9297 35.0013 48.8971 34.8242 48.832 34.6914C48.7669 34.556 48.6719 34.4583 48.5469 34.3984C48.4219 34.3359 48.2682 34.3047 48.0859 34.3047C47.9062 34.3047 47.7422 34.3424 47.5938 34.418C47.4479 34.4935 47.3216 34.5977 47.2148 34.7305C47.1107 34.8633 47.0286 35.0156 46.9688 35.1875C46.9115 35.3568 46.8828 35.5365 46.8828 35.7266ZM53.2148 36.8789C53.2148 36.7747 53.1914 36.6784 53.1445 36.5898C53.1003 36.4987 53.0078 36.4167 52.8672 36.3438C52.7292 36.2682 52.5208 36.2031 52.2422 36.1484C52.0078 36.099 51.7956 36.0404 51.6055 35.9727C51.418 35.9049 51.2578 35.8229 51.125 35.7266C50.9948 35.6302 50.8945 35.5169 50.8242 35.3867C50.7539 35.2565 50.7188 35.1042 50.7188 34.9297C50.7188 34.763 50.7552 34.6055 50.8281 34.457C50.9036 34.3086 51.0091 34.1771 51.1445 34.0625C51.2826 33.9479 51.4479 33.8581 51.6406 33.793C51.8333 33.7279 52.0482 33.6953 52.2852 33.6953C52.6237 33.6953 52.9128 33.7552 53.1523 33.875C53.3919 33.9948 53.5755 34.1549 53.7031 34.3555C53.8307 34.5534 53.8945 34.7734 53.8945 35.0156H53.1719C53.1719 34.8984 53.1367 34.7852 53.0664 34.6758C52.9987 34.5638 52.8984 34.4714 52.7656 34.3984C52.6354 34.3255 52.4753 34.2891 52.2852 34.2891C52.0846 34.2891 51.9219 34.3203 51.7969 34.3828C51.6745 34.4427 51.5846 34.5195 51.5273 34.6133C51.4727 34.707 51.4453 34.806 51.4453 34.9102C51.4453 34.9883 51.4583 35.0586 51.4844 35.1211C51.513 35.181 51.5625 35.237 51.6328 35.2891C51.7031 35.3385 51.8021 35.3854 51.9297 35.4297C52.0573 35.474 52.2201 35.5182 52.418 35.5625C52.7643 35.6406 53.0495 35.7344 53.2734 35.8438C53.4974 35.9531 53.6641 36.0872 53.7734 36.2461C53.8828 36.4049 53.9375 36.5977 53.9375 36.8242C53.9375 37.0091 53.8984 37.1784 53.8203 37.332C53.7448 37.4857 53.6341 37.6185 53.4883 37.7305C53.3451 37.8398 53.1732 37.9258 52.9727 37.9883C52.7747 38.0482 52.5521 38.0781 52.3047 38.0781C51.9323 38.0781 51.6172 38.0117 51.3594 37.8789C51.1016 37.7461 50.9062 37.5742 50.7734 37.3633C50.6406 37.1523 50.5742 36.9297 50.5742 36.6953H51.3008C51.3112 36.8932 51.3685 37.0508 51.4727 37.168C51.5768 37.2826 51.7044 37.3646 51.8555 37.4141C52.0065 37.4609 52.1562 37.4844 52.3047 37.4844C52.5026 37.4844 52.668 37.4583 52.8008 37.4062C52.9362 37.3542 53.0391 37.2826 53.1094 37.1914C53.1797 37.1003 53.2148 36.9961 53.2148 36.8789ZM57.5898 34.6133V38H56.8633V33.7734H57.5508L57.5898 34.6133ZM57.4414 35.7266L57.1055 35.7148C57.1081 35.4258 57.1458 35.1589 57.2188 34.9141C57.2917 34.6667 57.3997 34.4518 57.543 34.2695C57.6862 34.0872 57.8646 33.9466 58.0781 33.8477C58.2917 33.7461 58.5391 33.6953 58.8203 33.6953C59.0182 33.6953 59.2005 33.724 59.3672 33.7812C59.5339 33.8359 59.6784 33.9232 59.8008 34.043C59.9232 34.1628 60.0182 34.3164 60.0859 34.5039C60.1536 34.6914 60.1875 34.918 60.1875 35.1836V38H59.4648V35.2188C59.4648 34.9974 59.4271 34.8203 59.3516 34.6875C59.2786 34.5547 59.1745 34.4583 59.0391 34.3984C58.9036 34.3359 58.7448 34.3047 58.5625 34.3047C58.349 34.3047 58.1706 34.3424 58.0273 34.418C57.8841 34.4935 57.7695 34.5977 57.6836 34.7305C57.5977 34.8633 57.5352 35.0156 57.4961 35.1875C57.4596 35.3568 57.4414 35.5365 57.4414 35.7266ZM60.1797 35.3281L59.6953 35.4766C59.6979 35.2448 59.7357 35.0221 59.8086 34.8086C59.8841 34.5951 59.9922 34.4049 60.1328 34.2383C60.276 34.0716 60.4518 33.9401 60.6602 33.8438C60.8685 33.7448 61.1068 33.6953 61.375 33.6953C61.6016 33.6953 61.8021 33.7253 61.9766 33.7852C62.1536 33.8451 62.3021 33.9375 62.4219 34.0625C62.5443 34.1849 62.6367 34.3424 62.6992 34.5352C62.7617 34.7279 62.793 34.957 62.793 35.2227V38H62.0664V35.2148C62.0664 34.9779 62.0286 34.7943 61.9531 34.6641C61.8802 34.5312 61.776 34.4388 61.6406 34.3867C61.5078 34.332 61.349 34.3047 61.1641 34.3047C61.0052 34.3047 60.8646 34.332 60.7422 34.3867C60.6198 34.4414 60.5169 34.5169 60.4336 34.6133C60.3503 34.707 60.2865 34.8151 60.2422 34.9375C60.2005 35.0599 60.1797 35.1901 60.1797 35.3281ZM65.6406 38.0781C65.3464 38.0781 65.0794 38.0286 64.8398 37.9297C64.6029 37.8281 64.3984 37.6862 64.2266 37.5039C64.0573 37.3216 63.9271 37.1055 63.8359 36.8555C63.7448 36.6055 63.6992 36.332 63.6992 36.0352V35.8711C63.6992 35.5273 63.75 35.2214 63.8516 34.9531C63.9531 34.6823 64.0911 34.4531 64.2656 34.2656C64.4401 34.0781 64.638 33.9362 64.8594 33.8398C65.0807 33.7435 65.3099 33.6953 65.5469 33.6953C65.849 33.6953 66.1094 33.7474 66.3281 33.8516C66.5495 33.9557 66.7305 34.1016 66.8711 34.2891C67.0117 34.474 67.1159 34.6927 67.1836 34.9453C67.2513 35.1953 67.2852 35.4688 67.2852 35.7656V36.0898H64.1289V35.5H66.5625V35.4453C66.5521 35.2578 66.513 35.0755 66.4453 34.8984C66.3802 34.7214 66.276 34.5755 66.1328 34.4609C65.9896 34.3464 65.7943 34.2891 65.5469 34.2891C65.3828 34.2891 65.2318 34.3242 65.0938 34.3945C64.9557 34.4622 64.8372 34.5638 64.7383 34.6992C64.6393 34.8346 64.5625 35 64.5078 35.1953C64.4531 35.3906 64.4258 35.6159 64.4258 35.8711V36.0352C64.4258 36.2357 64.4531 36.4245 64.5078 36.6016C64.5651 36.776 64.6471 36.9297 64.7539 37.0625C64.8633 37.1953 64.9948 37.2995 65.1484 37.375C65.3047 37.4505 65.4818 37.4883 65.6797 37.4883C65.9349 37.4883 66.151 37.4362 66.3281 37.332C66.5052 37.2279 66.6602 37.0885 66.793 36.9141L67.2305 37.2617C67.1393 37.3997 67.0234 37.5312 66.8828 37.6562C66.7422 37.7812 66.569 37.8828 66.3633 37.9609C66.1602 38.0391 65.9193 38.0781 65.6406 38.0781ZM65.1445 33.1484L65.9023 32H66.7734L65.7266 33.1484H65.1445ZM69.8984 33.7734V34.3281H67.6133V33.7734H69.8984ZM68.3867 32.7461H69.1094V36.9531C69.1094 37.0964 69.1315 37.2044 69.1758 37.2773C69.2201 37.3503 69.2773 37.3984 69.3477 37.4219C69.418 37.4453 69.4935 37.457 69.5742 37.457C69.6341 37.457 69.6966 37.4518 69.7617 37.4414C69.8294 37.4284 69.8802 37.418 69.9141 37.4102L69.918 38C69.8607 38.0182 69.7852 38.0352 69.6914 38.0508C69.6003 38.069 69.4896 38.0781 69.3594 38.0781C69.1823 38.0781 69.0195 38.043 68.8711 37.9727C68.7227 37.9023 68.6042 37.7852 68.5156 37.6211C68.4297 37.4544 68.3867 37.2305 68.3867 36.9492V32.7461ZM72.5 38.0781C72.2057 38.0781 71.9388 38.0286 71.6992 37.9297C71.4622 37.8281 71.2578 37.6862 71.0859 37.5039C70.9167 37.3216 70.7865 37.1055 70.6953 36.8555C70.6042 36.6055 70.5586 36.332 70.5586 36.0352V35.8711C70.5586 35.5273 70.6094 35.2214 70.7109 34.9531C70.8125 34.6823 70.9505 34.4531 71.125 34.2656C71.2995 34.0781 71.4974 33.9362 71.7188 33.8398C71.9401 33.7435 72.1693 33.6953 72.4062 33.6953C72.7083 33.6953 72.9688 33.7474 73.1875 33.8516C73.4089 33.9557 73.5898 34.1016 73.7305 34.2891C73.8711 34.474 73.9753 34.6927 74.043 34.9453C74.1107 35.1953 74.1445 35.4688 74.1445 35.7656V36.0898H70.9883V35.5H73.4219V35.4453C73.4115 35.2578 73.3724 35.0755 73.3047 34.8984C73.2396 34.7214 73.1354 34.5755 72.9922 34.4609C72.849 34.3464 72.6536 34.2891 72.4062 34.2891C72.2422 34.2891 72.0911 34.3242 71.9531 34.3945C71.8151 34.4622 71.6966 34.5638 71.5977 34.6992C71.4987 34.8346 71.4219 35 71.3672 35.1953C71.3125 35.3906 71.2852 35.6159 71.2852 35.8711V36.0352C71.2852 36.2357 71.3125 36.4245 71.3672 36.6016C71.4245 36.776 71.5065 36.9297 71.6133 37.0625C71.7227 37.1953 71.8542 37.2995 72.0078 37.375C72.1641 37.4505 72.3411 37.4883 72.5391 37.4883C72.7943 37.4883 73.0104 37.4362 73.1875 37.332C73.3646 37.2279 73.5195 37.0885 73.6523 36.9141L74.0898 37.2617C73.9987 37.3997 73.8828 37.5312 73.7422 37.6562C73.6016 37.7812 73.4284 37.8828 73.2227 37.9609C73.0195 38.0391 72.7786 38.0781 72.5 38.0781ZM72.0039 33.1484L72.7617 32H73.6328L72.5859 33.1484H72.0039ZM74.7969 35.9336V35.8438C74.7969 35.5391 74.8411 35.2565 74.9297 34.9961C75.0182 34.7331 75.1458 34.5052 75.3125 34.3125C75.4792 34.1172 75.681 33.9661 75.918 33.8594C76.1549 33.75 76.4206 33.6953 76.7148 33.6953C77.0117 33.6953 77.2786 33.75 77.5156 33.8594C77.7552 33.9661 77.9583 34.1172 78.125 34.3125C78.2943 34.5052 78.4232 34.7331 78.5117 34.9961C78.6003 35.2565 78.6445 35.5391 78.6445 35.8438V35.9336C78.6445 36.2383 78.6003 36.5208 78.5117 36.7812C78.4232 37.0417 78.2943 37.2695 78.125 37.4648C77.9583 37.6576 77.7565 37.8086 77.5195 37.918C77.2852 38.0247 77.0195 38.0781 76.7227 38.0781C76.4258 38.0781 76.1589 38.0247 75.9219 37.918C75.6849 37.8086 75.4818 37.6576 75.3125 37.4648C75.1458 37.2695 75.0182 37.0417 74.9297 36.7812C74.8411 36.5208 74.7969 36.2383 74.7969 35.9336ZM75.5195 35.8438V35.9336C75.5195 36.1445 75.5443 36.3438 75.5938 36.5312C75.6432 36.7161 75.7174 36.8802 75.8164 37.0234C75.918 37.1667 76.0443 37.2799 76.1953 37.3633C76.3464 37.444 76.5221 37.4844 76.7227 37.4844C76.9206 37.4844 77.0938 37.444 77.2422 37.3633C77.3932 37.2799 77.5182 37.1667 77.6172 37.0234C77.7161 36.8802 77.7904 36.7161 77.8398 36.5312C77.8919 36.3438 77.918 36.1445 77.918 35.9336V35.8438C77.918 35.6354 77.8919 35.4388 77.8398 35.2539C77.7904 35.0664 77.7148 34.901 77.6133 34.7578C77.5143 34.612 77.3893 34.4974 77.2383 34.4141C77.0898 34.3307 76.9154 34.2891 76.7148 34.2891C76.5169 34.2891 76.3424 34.3307 76.1914 34.4141C76.043 34.4974 75.918 34.612 75.8164 34.7578C75.7174 34.901 75.6432 35.0664 75.5938 35.2539C75.5443 35.4388 75.5195 35.6354 75.5195 35.8438ZM80.2734 34.4375V38H79.5508V33.7734H80.2539L80.2734 34.4375ZM81.5938 33.75L81.5898 34.4219C81.5299 34.4089 81.4727 34.401 81.418 34.3984C81.3659 34.3932 81.306 34.3906 81.2383 34.3906C81.0716 34.3906 80.9245 34.4167 80.7969 34.4688C80.6693 34.5208 80.5612 34.5938 80.4727 34.6875C80.3841 34.7812 80.3138 34.8932 80.2617 35.0234C80.2122 35.151 80.1797 35.2917 80.1641 35.4453L79.9609 35.5625C79.9609 35.3073 79.9857 35.0677 80.0352 34.8438C80.0872 34.6198 80.1667 34.4219 80.2734 34.25C80.3802 34.0755 80.5156 33.9401 80.6797 33.8438C80.8464 33.7448 81.0443 33.6953 81.2734 33.6953C81.3255 33.6953 81.3854 33.7018 81.4531 33.7148C81.5208 33.7253 81.5677 33.737 81.5938 33.75ZM81.9922 35.9336V35.8438C81.9922 35.5391 82.0365 35.2565 82.125 34.9961C82.2135 34.7331 82.3411 34.5052 82.5078 34.3125C82.6745 34.1172 82.8763 33.9661 83.1133 33.8594C83.3503 33.75 83.6159 33.6953 83.9102 33.6953C84.207 33.6953 84.474 33.75 84.7109 33.8594C84.9505 33.9661 85.1536 34.1172 85.3203 34.3125C85.4896 34.5052 85.6185 34.7331 85.707 34.9961C85.7956 35.2565 85.8398 35.5391 85.8398 35.8438V35.9336C85.8398 36.2383 85.7956 36.5208 85.707 36.7812C85.6185 37.0417 85.4896 37.2695 85.3203 37.4648C85.1536 37.6576 84.9518 37.8086 84.7148 37.918C84.4805 38.0247 84.2148 38.0781 83.918 38.0781C83.6211 38.0781 83.3542 38.0247 83.1172 37.918C82.8802 37.8086 82.6771 37.6576 82.5078 37.4648C82.3411 37.2695 82.2135 37.0417 82.125 36.7812C82.0365 36.5208 81.9922 36.2383 81.9922 35.9336ZM82.7148 35.8438V35.9336C82.7148 36.1445 82.7396 36.3438 82.7891 36.5312C82.8385 36.7161 82.9128 36.8802 83.0117 37.0234C83.1133 37.1667 83.2396 37.2799 83.3906 37.3633C83.5417 37.444 83.7174 37.4844 83.918 37.4844C84.1159 37.4844 84.2891 37.444 84.4375 37.3633C84.5885 37.2799 84.7135 37.1667 84.8125 37.0234C84.9115 36.8802 84.9857 36.7161 85.0352 36.5312C85.0872 36.3438 85.1133 36.1445 85.1133 35.9336V35.8438C85.1133 35.6354 85.0872 35.4388 85.0352 35.2539C84.9857 35.0664 84.9102 34.901 84.8086 34.7578C84.7096 34.612 84.5846 34.4974 84.4336 34.4141C84.2852 34.3307 84.1107 34.2891 83.9102 34.2891C83.7122 34.2891 83.5378 34.3307 83.3867 34.4141C83.2383 34.4974 83.1133 34.612 83.0117 34.7578C82.9128 34.901 82.8385 35.0664 82.7891 35.2539C82.7396 35.4388 82.7148 35.6354 82.7148 35.8438ZM87.5312 32V38H86.8047V32H87.5312ZM88.5 35.9336V35.8438C88.5 35.5391 88.5443 35.2565 88.6328 34.9961C88.7214 34.7331 88.849 34.5052 89.0156 34.3125C89.1823 34.1172 89.3841 33.9661 89.6211 33.8594C89.8581 33.75 90.1237 33.6953 90.418 33.6953C90.7148 33.6953 90.9818 33.75 91.2188 33.8594C91.4583 33.9661 91.6615 34.1172 91.8281 34.3125C91.9974 34.5052 92.1263 34.7331 92.2148 34.9961C92.3034 35.2565 92.3477 35.5391 92.3477 35.8438V35.9336C92.3477 36.2383 92.3034 36.5208 92.2148 36.7812C92.1263 37.0417 91.9974 37.2695 91.8281 37.4648C91.6615 37.6576 91.4596 37.8086 91.2227 37.918C90.9883 38.0247 90.7227 38.0781 90.4258 38.0781C90.1289 38.0781 89.862 38.0247 89.625 37.918C89.388 37.8086 89.1849 37.6576 89.0156 37.4648C88.849 37.2695 88.7214 37.0417 88.6328 36.7812C88.5443 36.5208 88.5 36.2383 88.5 35.9336ZM89.2227 35.8438V35.9336C89.2227 36.1445 89.2474 36.3438 89.2969 36.5312C89.3464 36.7161 89.4206 36.8802 89.5195 37.0234C89.6211 37.1667 89.7474 37.2799 89.8984 37.3633C90.0495 37.444 90.2253 37.4844 90.4258 37.4844C90.6237 37.4844 90.7969 37.444 90.9453 37.3633C91.0964 37.2799 91.2214 37.1667 91.3203 37.0234C91.4193 36.8802 91.4935 36.7161 91.543 36.5312C91.5951 36.3438 91.6211 36.1445 91.6211 35.9336V35.8438C91.6211 35.6354 91.5951 35.4388 91.543 35.2539C91.4935 35.0664 91.418 34.901 91.3164 34.7578C91.2174 34.612 91.0924 34.4974 90.9414 34.4141C90.793 34.3307 90.6185 34.2891 90.418 34.2891C90.2201 34.2891 90.0456 34.3307 89.8945 34.4141C89.7461 34.4974 89.6211 34.612 89.5195 34.7578C89.4206 34.901 89.3464 35.0664 89.2969 35.2539C89.2474 35.4388 89.2227 35.6354 89.2227 35.8438ZM95.9922 33.7734H96.6484V37.9102C96.6484 38.2826 96.5729 38.6003 96.4219 38.8633C96.2708 39.1263 96.0599 39.3255 95.7891 39.4609C95.5208 39.599 95.2109 39.668 94.8594 39.668C94.7135 39.668 94.5417 39.6445 94.3438 39.5977C94.1484 39.5534 93.9557 39.4766 93.7656 39.3672C93.5781 39.2604 93.4206 39.1159 93.293 38.9336L93.6719 38.5039C93.849 38.7174 94.0339 38.8659 94.2266 38.9492C94.4219 39.0326 94.6146 39.0742 94.8047 39.0742C95.0339 39.0742 95.2318 39.0312 95.3984 38.9453C95.5651 38.8594 95.694 38.7318 95.7852 38.5625C95.8789 38.3958 95.9258 38.1901 95.9258 37.9453V34.7031L95.9922 33.7734ZM93.082 35.9336V35.8516C93.082 35.5286 93.1198 35.2357 93.1953 34.9727C93.2734 34.707 93.3841 34.4792 93.5273 34.2891C93.6732 34.099 93.849 33.9531 94.0547 33.8516C94.2604 33.7474 94.4922 33.6953 94.75 33.6953C95.0156 33.6953 95.2474 33.7422 95.4453 33.8359C95.6458 33.9271 95.8151 34.0612 95.9531 34.2383C96.0938 34.4128 96.2044 34.6237 96.2852 34.8711C96.3659 35.1185 96.4219 35.3984 96.4531 35.7109V36.0703C96.4245 36.3802 96.3685 36.6589 96.2852 36.9062C96.2044 37.1536 96.0938 37.3646 95.9531 37.5391C95.8151 37.7135 95.6458 37.8477 95.4453 37.9414C95.2448 38.0326 95.0104 38.0781 94.7422 38.0781C94.4896 38.0781 94.2604 38.0247 94.0547 37.918C93.8516 37.8112 93.6771 37.6615 93.5312 37.4688C93.3854 37.276 93.2734 37.0495 93.1953 36.7891C93.1198 36.526 93.082 36.2409 93.082 35.9336ZM93.8047 35.8516V35.9336C93.8047 36.1445 93.8255 36.3424 93.8672 36.5273C93.9115 36.7122 93.9779 36.875 94.0664 37.0156C94.1576 37.1562 94.2734 37.2669 94.4141 37.3477C94.5547 37.4258 94.7227 37.4648 94.918 37.4648C95.1576 37.4648 95.3555 37.4141 95.5117 37.3125C95.668 37.2109 95.7917 37.0768 95.8828 36.9102C95.9766 36.7435 96.0495 36.5625 96.1016 36.3672V35.4258C96.0729 35.2826 96.0286 35.1445 95.9688 35.0117C95.9115 34.8763 95.8359 34.7565 95.7422 34.6523C95.651 34.5456 95.5378 34.4609 95.4023 34.3984C95.2669 34.3359 95.1081 34.3047 94.9258 34.3047C94.7279 34.3047 94.5573 34.3464 94.4141 34.4297C94.2734 34.5104 94.1576 34.6224 94.0664 34.7656C93.9779 34.9062 93.9115 35.0703 93.8672 35.2578C93.8255 35.4427 93.8047 35.6406 93.8047 35.8516ZM98.5312 33.7734V38H97.8047V33.7734H98.5312ZM97.75 32.6523C97.75 32.5352 97.7852 32.4362 97.8555 32.3555C97.9284 32.2747 98.0352 32.2344 98.1758 32.2344C98.3138 32.2344 98.4193 32.2747 98.4922 32.3555C98.5677 32.4362 98.6055 32.5352 98.6055 32.6523C98.6055 32.7643 98.5677 32.8607 98.4922 32.9414C98.4193 33.0195 98.3138 33.0586 98.1758 33.0586C98.0352 33.0586 97.9284 33.0195 97.8555 32.9414C97.7852 32.8607 97.75 32.7643 97.75 32.6523ZM102.352 39.625V34.5859L102.414 33.7734H103.078V39.625H102.352ZM99.5117 35.9336V35.8516C99.5117 35.5286 99.5495 35.2357 99.625 34.9727C99.7005 34.707 99.8112 34.4792 99.957 34.2891C100.103 34.099 100.279 33.9531 100.484 33.8516C100.693 33.7474 100.93 33.6953 101.195 33.6953C101.461 33.6953 101.694 33.7422 101.895 33.8359C102.098 33.9271 102.27 34.0612 102.41 34.2383C102.553 34.4128 102.667 34.6237 102.75 34.8711C102.833 35.1185 102.891 35.3984 102.922 35.7109V36.0703C102.893 36.3802 102.837 36.6589 102.754 36.9062C102.671 37.1536 102.557 37.3646 102.414 37.5391C102.273 37.7135 102.1 37.8477 101.895 37.9414C101.691 38.0326 101.456 38.0781 101.188 38.0781C100.927 38.0781 100.693 38.0247 100.484 37.918C100.279 37.8112 100.103 37.6615 99.957 37.4688C99.8138 37.276 99.7031 37.0495 99.625 36.7891C99.5495 36.526 99.5117 36.2409 99.5117 35.9336ZM100.238 35.8516V35.9336C100.238 36.1445 100.26 36.3438 100.305 36.5312C100.349 36.7161 100.417 36.8802 100.508 37.0234C100.602 37.1667 100.719 37.2799 100.859 37.3633C101.003 37.444 101.172 37.4844 101.367 37.4844C101.607 37.4844 101.806 37.4323 101.965 37.3281C102.126 37.224 102.255 37.0872 102.352 36.918C102.448 36.7461 102.522 36.5625 102.574 36.3672V35.4258C102.546 35.2826 102.5 35.1432 102.438 35.0078C102.378 34.8724 102.299 34.7513 102.203 34.6445C102.107 34.5352 101.99 34.4492 101.852 34.3867C101.716 34.3216 101.557 34.2891 101.375 34.2891C101.177 34.2891 101.007 34.3307 100.863 34.4141C100.72 34.4974 100.602 34.612 100.508 34.7578C100.417 34.901 100.349 35.0664 100.305 35.2539C100.26 35.4414 100.238 35.6406 100.238 35.8516ZM106.824 37.0234V33.7734H107.551V38H106.859L106.824 37.0234ZM106.961 36.1328L107.262 36.125C107.262 36.4062 107.232 36.6667 107.172 36.9062C107.115 37.1432 107.021 37.349 106.891 37.5234C106.76 37.6979 106.59 37.8346 106.379 37.9336C106.168 38.0299 105.911 38.0781 105.609 38.0781C105.404 38.0781 105.215 38.0482 105.043 37.9883C104.874 37.9284 104.728 37.8359 104.605 37.7109C104.483 37.5859 104.388 37.4232 104.32 37.2227C104.255 37.0221 104.223 36.7812 104.223 36.5V33.7734H104.945V36.5078C104.945 36.6979 104.966 36.8555 105.008 36.9805C105.052 37.1029 105.111 37.2005 105.184 37.2734C105.259 37.3438 105.342 37.3932 105.434 37.4219C105.527 37.4505 105.624 37.4648 105.723 37.4648C106.03 37.4648 106.273 37.4062 106.453 37.2891C106.633 37.1693 106.762 37.0091 106.84 36.8086C106.921 36.6055 106.961 36.3802 106.961 36.1328ZM110.406 38.0781C110.112 38.0781 109.845 38.0286 109.605 37.9297C109.368 37.8281 109.164 37.6862 108.992 37.5039C108.823 37.3216 108.693 37.1055 108.602 36.8555C108.51 36.6055 108.465 36.332 108.465 36.0352V35.8711C108.465 35.5273 108.516 35.2214 108.617 34.9531C108.719 34.6823 108.857 34.4531 109.031 34.2656C109.206 34.0781 109.404 33.9362 109.625 33.8398C109.846 33.7435 110.076 33.6953 110.312 33.6953C110.615 33.6953 110.875 33.7474 111.094 33.8516C111.315 33.9557 111.496 34.1016 111.637 34.2891C111.777 34.474 111.882 34.6927 111.949 34.9453C112.017 35.1953 112.051 35.4688 112.051 35.7656V36.0898H108.895V35.5H111.328V35.4453C111.318 35.2578 111.279 35.0755 111.211 34.8984C111.146 34.7214 111.042 34.5755 110.898 34.4609C110.755 34.3464 110.56 34.2891 110.312 34.2891C110.148 34.2891 109.997 34.3242 109.859 34.3945C109.721 34.4622 109.603 34.5638 109.504 34.6992C109.405 34.8346 109.328 35 109.273 35.1953C109.219 35.3906 109.191 35.6159 109.191 35.8711V36.0352C109.191 36.2357 109.219 36.4245 109.273 36.6016C109.331 36.776 109.413 36.9297 109.52 37.0625C109.629 37.1953 109.76 37.2995 109.914 37.375C110.07 37.4505 110.247 37.4883 110.445 37.4883C110.701 37.4883 110.917 37.4362 111.094 37.332C111.271 37.2279 111.426 37.0885 111.559 36.9141L111.996 37.2617C111.905 37.3997 111.789 37.5312 111.648 37.6562C111.508 37.7812 111.335 37.8828 111.129 37.9609C110.926 38.0391 110.685 38.0781 110.406 38.0781ZM115.355 36.8789C115.355 36.7747 115.332 36.6784 115.285 36.5898C115.241 36.4987 115.148 36.4167 115.008 36.3438C114.87 36.2682 114.661 36.2031 114.383 36.1484C114.148 36.099 113.936 36.0404 113.746 35.9727C113.559 35.9049 113.398 35.8229 113.266 35.7266C113.135 35.6302 113.035 35.5169 112.965 35.3867C112.895 35.2565 112.859 35.1042 112.859 34.9297C112.859 34.763 112.896 34.6055 112.969 34.457C113.044 34.3086 113.15 34.1771 113.285 34.0625C113.423 33.9479 113.589 33.8581 113.781 33.793C113.974 33.7279 114.189 33.6953 114.426 33.6953C114.764 33.6953 115.053 33.7552 115.293 33.875C115.533 33.9948 115.716 34.1549 115.844 34.3555C115.971 34.5534 116.035 34.7734 116.035 35.0156H115.312C115.312 34.8984 115.277 34.7852 115.207 34.6758C115.139 34.5638 115.039 34.4714 114.906 34.3984C114.776 34.3255 114.616 34.2891 114.426 34.2891C114.225 34.2891 114.062 34.3203 113.938 34.3828C113.815 34.4427 113.725 34.5195 113.668 34.6133C113.613 34.707 113.586 34.806 113.586 34.9102C113.586 34.9883 113.599 35.0586 113.625 35.1211C113.654 35.181 113.703 35.237 113.773 35.2891C113.844 35.3385 113.943 35.3854 114.07 35.4297C114.198 35.474 114.361 35.5182 114.559 35.5625C114.905 35.6406 115.19 35.7344 115.414 35.8438C115.638 35.9531 115.805 36.0872 115.914 36.2461C116.023 36.4049 116.078 36.5977 116.078 36.8242C116.078 37.0091 116.039 37.1784 115.961 37.332C115.885 37.4857 115.775 37.6185 115.629 37.7305C115.486 37.8398 115.314 37.9258 115.113 37.9883C114.915 38.0482 114.693 38.0781 114.445 38.0781C114.073 38.0781 113.758 38.0117 113.5 37.8789C113.242 37.7461 113.047 37.5742 112.914 37.3633C112.781 37.1523 112.715 36.9297 112.715 36.6953H113.441C113.452 36.8932 113.509 37.0508 113.613 37.168C113.717 37.2826 113.845 37.3646 113.996 37.4141C114.147 37.4609 114.297 37.4844 114.445 37.4844C114.643 37.4844 114.809 37.4583 114.941 37.4062C115.077 37.3542 115.18 37.2826 115.25 37.1914C115.32 37.1003 115.355 36.9961 115.355 36.8789ZM19.2148 46.1797V41H19.9414V47H19.2773L19.2148 46.1797ZM16.3711 44.9336V44.8516C16.3711 44.5286 16.4102 44.2357 16.4883 43.9727C16.569 43.707 16.6823 43.4792 16.8281 43.2891C16.9766 43.099 17.1523 42.9531 17.3555 42.8516C17.5612 42.7474 17.7904 42.6953 18.043 42.6953C18.3086 42.6953 18.5404 42.7422 18.7383 42.8359C18.9388 42.9271 19.1081 43.0612 19.2461 43.2383C19.3867 43.4128 19.4974 43.6237 19.5781 43.8711C19.6589 44.1185 19.7148 44.3984 19.7461 44.7109V45.0703C19.7174 45.3802 19.6615 45.6589 19.5781 45.9062C19.4974 46.1536 19.3867 46.3646 19.2461 46.5391C19.1081 46.7135 18.9388 46.8477 18.7383 46.9414C18.5378 47.0326 18.3034 47.0781 18.0352 47.0781C17.7878 47.0781 17.5612 47.0247 17.3555 46.918C17.1523 46.8112 16.9766 46.6615 16.8281 46.4688C16.6823 46.276 16.569 46.0495 16.4883 45.7891C16.4102 45.526 16.3711 45.2409 16.3711 44.9336ZM17.0977 44.8516V44.9336C17.0977 45.1445 17.1185 45.3424 17.1602 45.5273C17.2044 45.7122 17.2721 45.875 17.3633 46.0156C17.4544 46.1562 17.5703 46.2669 17.7109 46.3477C17.8516 46.4258 18.0195 46.4648 18.2148 46.4648C18.4544 46.4648 18.651 46.4141 18.8047 46.3125C18.9609 46.2109 19.0859 46.0768 19.1797 45.9102C19.2734 45.7435 19.3464 45.5625 19.3984 45.3672V44.4258C19.3672 44.2826 19.3216 44.1445 19.2617 44.0117C19.2044 43.8763 19.1289 43.7565 19.0352 43.6523C18.944 43.5456 18.8307 43.4609 18.6953 43.3984C18.5625 43.3359 18.4049 43.3047 18.2227 43.3047C18.0247 43.3047 17.8542 43.3464 17.7109 43.4297C17.5703 43.5104 17.4544 43.6224 17.3633 43.7656C17.2721 43.9062 17.2044 44.0703 17.1602 44.2578C17.1185 44.4427 17.0977 44.6406 17.0977 44.8516ZM23.5586 46.2773V44.1016C23.5586 43.9349 23.5247 43.7904 23.457 43.668C23.3919 43.543 23.293 43.4466 23.1602 43.3789C23.0273 43.3112 22.8633 43.2773 22.668 43.2773C22.4857 43.2773 22.3255 43.3086 22.1875 43.3711C22.0521 43.4336 21.9453 43.5156 21.8672 43.6172C21.7917 43.7188 21.7539 43.8281 21.7539 43.9453H21.0312C21.0312 43.7943 21.0703 43.6445 21.1484 43.4961C21.2266 43.3477 21.3385 43.2135 21.4844 43.0938C21.6328 42.9714 21.8099 42.875 22.0156 42.8047C22.224 42.7318 22.4557 42.6953 22.7109 42.6953C23.0182 42.6953 23.2891 42.7474 23.5234 42.8516C23.7604 42.9557 23.9453 43.1133 24.0781 43.3242C24.2135 43.5326 24.2812 43.7943 24.2812 44.1094V46.0781C24.2812 46.2188 24.293 46.3685 24.3164 46.5273C24.3424 46.6862 24.3802 46.8229 24.4297 46.9375V47H23.6758C23.6393 46.9167 23.6107 46.806 23.5898 46.668C23.569 46.5273 23.5586 46.3971 23.5586 46.2773ZM23.6836 44.4375L23.6914 44.9453H22.9609C22.7552 44.9453 22.5716 44.9622 22.4102 44.9961C22.2487 45.0273 22.1133 45.0755 22.0039 45.1406C21.8945 45.2057 21.8112 45.2878 21.7539 45.3867C21.6966 45.4831 21.668 45.5964 21.668 45.7266C21.668 45.8594 21.6979 45.9805 21.7578 46.0898C21.8177 46.1992 21.9076 46.2865 22.0273 46.3516C22.1497 46.4141 22.2995 46.4453 22.4766 46.4453C22.6979 46.4453 22.8932 46.3984 23.0625 46.3047C23.2318 46.2109 23.3659 46.0964 23.4648 45.9609C23.5664 45.8255 23.6211 45.694 23.6289 45.5664L23.9375 45.9141C23.9193 46.0234 23.8698 46.1445 23.7891 46.2773C23.7083 46.4102 23.6003 46.5378 23.4648 46.6602C23.332 46.7799 23.1732 46.8802 22.9883 46.9609C22.806 47.0391 22.6003 47.0781 22.3711 47.0781C22.0846 47.0781 21.8333 47.0221 21.6172 46.9102C21.4036 46.7982 21.237 46.6484 21.1172 46.4609C21 46.2708 20.9414 46.0586 20.9414 45.8242C20.9414 45.5977 20.9857 45.3984 21.0742 45.2266C21.1628 45.0521 21.2904 44.9076 21.457 44.793C21.6237 44.6758 21.8242 44.5872 22.0586 44.5273C22.293 44.4674 22.5547 44.4375 22.8438 44.4375H23.6836ZM26.1406 43.6758V47H25.418V42.7734H26.1016L26.1406 43.6758ZM25.9688 44.7266L25.668 44.7148C25.6706 44.4258 25.7135 44.1589 25.7969 43.9141C25.8802 43.6667 25.9974 43.4518 26.1484 43.2695C26.2995 43.0872 26.4792 42.9466 26.6875 42.8477C26.8984 42.7461 27.1315 42.6953 27.3867 42.6953C27.5951 42.6953 27.7826 42.724 27.9492 42.7812C28.1159 42.8359 28.2578 42.9245 28.375 43.0469C28.4948 43.1693 28.5859 43.3281 28.6484 43.5234C28.7109 43.7161 28.7422 43.9518 28.7422 44.2305V47H28.0156V44.2227C28.0156 44.0013 27.9831 43.8242 27.918 43.6914C27.8529 43.556 27.7578 43.4583 27.6328 43.3984C27.5078 43.3359 27.3542 43.3047 27.1719 43.3047C26.9922 43.3047 26.8281 43.3424 26.6797 43.418C26.5339 43.4935 26.4076 43.5977 26.3008 43.7305C26.1966 43.8633 26.1146 44.0156 26.0547 44.1875C25.9974 44.3568 25.9688 44.5365 25.9688 44.7266ZM32.3008 45.8789C32.3008 45.7747 32.2773 45.6784 32.2305 45.5898C32.1862 45.4987 32.0938 45.4167 31.9531 45.3438C31.8151 45.2682 31.6068 45.2031 31.3281 45.1484C31.0938 45.099 30.8815 45.0404 30.6914 44.9727C30.5039 44.9049 30.3438 44.8229 30.2109 44.7266C30.0807 44.6302 29.9805 44.5169 29.9102 44.3867C29.8398 44.2565 29.8047 44.1042 29.8047 43.9297C29.8047 43.763 29.8411 43.6055 29.9141 43.457C29.9896 43.3086 30.0951 43.1771 30.2305 43.0625C30.3685 42.9479 30.5339 42.8581 30.7266 42.793C30.9193 42.7279 31.1341 42.6953 31.3711 42.6953C31.7096 42.6953 31.9987 42.7552 32.2383 42.875C32.4779 42.9948 32.6615 43.1549 32.7891 43.3555C32.9167 43.5534 32.9805 43.7734 32.9805 44.0156H32.2578C32.2578 43.8984 32.2227 43.7852 32.1523 43.6758C32.0846 43.5638 31.9844 43.4714 31.8516 43.3984C31.7214 43.3255 31.5612 43.2891 31.3711 43.2891C31.1706 43.2891 31.0078 43.3203 30.8828 43.3828C30.7604 43.4427 30.6706 43.5195 30.6133 43.6133C30.5586 43.707 30.5312 43.806 30.5312 43.9102C30.5312 43.9883 30.5443 44.0586 30.5703 44.1211C30.599 44.181 30.6484 44.237 30.7188 44.2891C30.7891 44.3385 30.888 44.3854 31.0156 44.4297C31.1432 44.474 31.306 44.5182 31.5039 44.5625C31.8503 44.6406 32.1354 44.7344 32.3594 44.8438C32.5833 44.9531 32.75 45.0872 32.8594 45.2461C32.9688 45.4049 33.0234 45.5977 33.0234 45.8242C33.0234 46.0091 32.9844 46.1784 32.9062 46.332C32.8307 46.4857 32.7201 46.6185 32.5742 46.7305C32.431 46.8398 32.2591 46.9258 32.0586 46.9883C31.8607 47.0482 31.638 47.0781 31.3906 47.0781C31.0182 47.0781 30.7031 47.0117 30.4453 46.8789C30.1875 46.7461 29.9922 46.5742 29.8594 46.3633C29.7266 46.1523 29.6602 45.9297 29.6602 45.6953H30.3867C30.3971 45.8932 30.4544 46.0508 30.5586 46.168C30.6628 46.2826 30.7904 46.3646 30.9414 46.4141C31.0924 46.4609 31.2422 46.4844 31.3906 46.4844C31.5885 46.4844 31.7539 46.4583 31.8867 46.4062C32.0221 46.3542 32.125 46.2826 32.1953 46.1914C32.2656 46.1003 32.3008 45.9961 32.3008 45.8789ZM36.7422 41V47H36.0156V41H36.7422ZM40.3945 46.2773V44.1016C40.3945 43.9349 40.3607 43.7904 40.293 43.668C40.2279 43.543 40.1289 43.4466 39.9961 43.3789C39.8633 43.3112 39.6992 43.2773 39.5039 43.2773C39.3216 43.2773 39.1615 43.3086 39.0234 43.3711C38.888 43.4336 38.7812 43.5156 38.7031 43.6172C38.6276 43.7188 38.5898 43.8281 38.5898 43.9453H37.8672C37.8672 43.7943 37.9062 43.6445 37.9844 43.4961C38.0625 43.3477 38.1745 43.2135 38.3203 43.0938C38.4688 42.9714 38.6458 42.875 38.8516 42.8047C39.0599 42.7318 39.2917 42.6953 39.5469 42.6953C39.8542 42.6953 40.125 42.7474 40.3594 42.8516C40.5964 42.9557 40.7812 43.1133 40.9141 43.3242C41.0495 43.5326 41.1172 43.7943 41.1172 44.1094V46.0781C41.1172 46.2188 41.1289 46.3685 41.1523 46.5273C41.1784 46.6862 41.2161 46.8229 41.2656 46.9375V47H40.5117C40.4753 46.9167 40.4466 46.806 40.4258 46.668C40.4049 46.5273 40.3945 46.3971 40.3945 46.2773ZM40.5195 44.4375L40.5273 44.9453H39.7969C39.5911 44.9453 39.4076 44.9622 39.2461 44.9961C39.0846 45.0273 38.9492 45.0755 38.8398 45.1406C38.7305 45.2057 38.6471 45.2878 38.5898 45.3867C38.5326 45.4831 38.5039 45.5964 38.5039 45.7266C38.5039 45.8594 38.5339 45.9805 38.5938 46.0898C38.6536 46.1992 38.7435 46.2865 38.8633 46.3516C38.9857 46.4141 39.1354 46.4453 39.3125 46.4453C39.5339 46.4453 39.7292 46.3984 39.8984 46.3047C40.0677 46.2109 40.2018 46.0964 40.3008 45.9609C40.4023 45.8255 40.457 45.694 40.4648 45.5664L40.7734 45.9141C40.7552 46.0234 40.7057 46.1445 40.625 46.2773C40.5443 46.4102 40.4362 46.5378 40.3008 46.6602C40.168 46.7799 40.0091 46.8802 39.8242 46.9609C39.6419 47.0391 39.4362 47.0781 39.207 47.0781C38.9206 47.0781 38.6693 47.0221 38.4531 46.9102C38.2396 46.7982 38.0729 46.6484 37.9531 46.4609C37.8359 46.2708 37.7773 46.0586 37.7773 45.8242C37.7773 45.5977 37.8216 45.3984 37.9102 45.2266C37.9987 45.0521 38.1263 44.9076 38.293 44.793C38.4596 44.6758 38.6602 44.5872 38.8945 44.5273C39.1289 44.4674 39.3906 44.4375 39.6797 44.4375H40.5195ZM44.9609 43.4375V47H44.2383V42.7734H44.9414L44.9609 43.4375ZM46.2812 42.75L46.2773 43.4219C46.2174 43.4089 46.1602 43.401 46.1055 43.3984C46.0534 43.3932 45.9935 43.3906 45.9258 43.3906C45.7591 43.3906 45.612 43.4167 45.4844 43.4688C45.3568 43.5208 45.2487 43.5938 45.1602 43.6875C45.0716 43.7812 45.0013 43.8932 44.9492 44.0234C44.8997 44.151 44.8672 44.2917 44.8516 44.4453L44.6484 44.5625C44.6484 44.3073 44.6732 44.0677 44.7227 43.8438C44.7747 43.6198 44.8542 43.4219 44.9609 43.25C45.0677 43.0755 45.2031 42.9401 45.3672 42.8438C45.5339 42.7448 45.7318 42.6953 45.9609 42.6953C46.013 42.6953 46.0729 42.7018 46.1406 42.7148C46.2083 42.7253 46.2552 42.737 46.2812 42.75ZM48.625 47.0781C48.3307 47.0781 48.0638 47.0286 47.8242 46.9297C47.5872 46.8281 47.3828 46.6862 47.2109 46.5039C47.0417 46.3216 46.9115 46.1055 46.8203 45.8555C46.7292 45.6055 46.6836 45.332 46.6836 45.0352V44.8711C46.6836 44.5273 46.7344 44.2214 46.8359 43.9531C46.9375 43.6823 47.0755 43.4531 47.25 43.2656C47.4245 43.0781 47.6224 42.9362 47.8438 42.8398C48.0651 42.7435 48.2943 42.6953 48.5312 42.6953C48.8333 42.6953 49.0938 42.7474 49.3125 42.8516C49.5339 42.9557 49.7148 43.1016 49.8555 43.2891C49.9961 43.474 50.1003 43.6927 50.168 43.9453C50.2357 44.1953 50.2695 44.4688 50.2695 44.7656V45.0898H47.1133V44.5H49.5469V44.4453C49.5365 44.2578 49.4974 44.0755 49.4297 43.8984C49.3646 43.7214 49.2604 43.5755 49.1172 43.4609C48.974 43.3464 48.7786 43.2891 48.5312 43.2891C48.3672 43.2891 48.2161 43.3242 48.0781 43.3945C47.9401 43.4622 47.8216 43.5638 47.7227 43.6992C47.6237 43.8346 47.5469 44 47.4922 44.1953C47.4375 44.3906 47.4102 44.6159 47.4102 44.8711V45.0352C47.4102 45.2357 47.4375 45.4245 47.4922 45.6016C47.5495 45.776 47.6315 45.9297 47.7383 46.0625C47.8477 46.1953 47.9792 46.2995 48.1328 46.375C48.2891 46.4505 48.4661 46.4883 48.6641 46.4883C48.9193 46.4883 49.1354 46.4362 49.3125 46.332C49.4896 46.2279 49.6445 46.0885 49.7773 45.9141L50.2148 46.2617C50.1237 46.3997 50.0078 46.5312 49.8672 46.6562C49.7266 46.7812 49.5534 46.8828 49.3477 46.9609C49.1445 47.0391 48.9036 47.0781 48.625 47.0781ZM48.1289 42.1484L48.8867 41H49.7578L48.7109 42.1484H48.1289ZM53.8516 42.7734H54.5078V46.9102C54.5078 47.2826 54.4323 47.6003 54.2812 47.8633C54.1302 48.1263 53.9193 48.3255 53.6484 48.4609C53.3802 48.599 53.0703 48.668 52.7188 48.668C52.5729 48.668 52.401 48.6445 52.2031 48.5977C52.0078 48.5534 51.8151 48.4766 51.625 48.3672C51.4375 48.2604 51.2799 48.1159 51.1523 47.9336L51.5312 47.5039C51.7083 47.7174 51.8932 47.8659 52.0859 47.9492C52.2812 48.0326 52.474 48.0742 52.6641 48.0742C52.8932 48.0742 53.0911 48.0312 53.2578 47.9453C53.4245 47.8594 53.5534 47.7318 53.6445 47.5625C53.7383 47.3958 53.7852 47.1901 53.7852 46.9453V43.7031L53.8516 42.7734ZM50.9414 44.9336V44.8516C50.9414 44.5286 50.9792 44.2357 51.0547 43.9727C51.1328 43.707 51.2435 43.4792 51.3867 43.2891C51.5326 43.099 51.7083 42.9531 51.9141 42.8516C52.1198 42.7474 52.3516 42.6953 52.6094 42.6953C52.875 42.6953 53.1068 42.7422 53.3047 42.8359C53.5052 42.9271 53.6745 43.0612 53.8125 43.2383C53.9531 43.4128 54.0638 43.6237 54.1445 43.8711C54.2253 44.1185 54.2812 44.3984 54.3125 44.7109V45.0703C54.2839 45.3802 54.2279 45.6589 54.1445 45.9062C54.0638 46.1536 53.9531 46.3646 53.8125 46.5391C53.6745 46.7135 53.5052 46.8477 53.3047 46.9414C53.1042 47.0326 52.8698 47.0781 52.6016 47.0781C52.349 47.0781 52.1198 47.0247 51.9141 46.918C51.7109 46.8112 51.5365 46.6615 51.3906 46.4688C51.2448 46.276 51.1328 46.0495 51.0547 45.7891C50.9792 45.526 50.9414 45.2409 50.9414 44.9336ZM51.6641 44.8516V44.9336C51.6641 45.1445 51.6849 45.3424 51.7266 45.5273C51.7708 45.7122 51.8372 45.875 51.9258 46.0156C52.0169 46.1562 52.1328 46.2669 52.2734 46.3477C52.4141 46.4258 52.582 46.4648 52.7773 46.4648C53.0169 46.4648 53.2148 46.4141 53.3711 46.3125C53.5273 46.2109 53.651 46.0768 53.7422 45.9102C53.8359 45.7435 53.9089 45.5625 53.9609 45.3672V44.4258C53.9323 44.2826 53.888 44.1445 53.8281 44.0117C53.7708 43.8763 53.6953 43.7565 53.6016 43.6523C53.5104 43.5456 53.3971 43.4609 53.2617 43.3984C53.1263 43.3359 52.9674 43.3047 52.7852 43.3047C52.5872 43.3047 52.4167 43.3464 52.2734 43.4297C52.1328 43.5104 52.0169 43.6224 51.9258 43.7656C51.8372 43.9062 51.7708 44.0703 51.7266 44.2578C51.6849 44.4427 51.6641 44.6406 51.6641 44.8516ZM56.3906 42.7734V47H55.6641V42.7734H56.3906ZM55.6094 41.6523C55.6094 41.5352 55.6445 41.4362 55.7148 41.3555C55.7878 41.2747 55.8945 41.2344 56.0352 41.2344C56.1732 41.2344 56.2786 41.2747 56.3516 41.3555C56.4271 41.4362 56.4648 41.5352 56.4648 41.6523C56.4648 41.7643 56.4271 41.8607 56.3516 41.9414C56.2786 42.0195 56.1732 42.0586 56.0352 42.0586C55.8945 42.0586 55.7878 42.0195 55.7148 41.9414C55.6445 41.8607 55.6094 41.7643 55.6094 41.6523ZM57.3594 44.9336V44.8438C57.3594 44.5391 57.4036 44.2565 57.4922 43.9961C57.5807 43.7331 57.7083 43.5052 57.875 43.3125C58.0417 43.1172 58.2435 42.9661 58.4805 42.8594C58.7174 42.75 58.9831 42.6953 59.2773 42.6953C59.5742 42.6953 59.8411 42.75 60.0781 42.8594C60.3177 42.9661 60.5208 43.1172 60.6875 43.3125C60.8568 43.5052 60.9857 43.7331 61.0742 43.9961C61.1628 44.2565 61.207 44.5391 61.207 44.8438V44.9336C61.207 45.2383 61.1628 45.5208 61.0742 45.7812C60.9857 46.0417 60.8568 46.2695 60.6875 46.4648C60.5208 46.6576 60.319 46.8086 60.082 46.918C59.8477 47.0247 59.582 47.0781 59.2852 47.0781C58.9883 47.0781 58.7214 47.0247 58.4844 46.918C58.2474 46.8086 58.0443 46.6576 57.875 46.4648C57.7083 46.2695 57.5807 46.0417 57.4922 45.7812C57.4036 45.5208 57.3594 45.2383 57.3594 44.9336ZM58.082 44.8438V44.9336C58.082 45.1445 58.1068 45.3438 58.1562 45.5312C58.2057 45.7161 58.2799 45.8802 58.3789 46.0234C58.4805 46.1667 58.6068 46.2799 58.7578 46.3633C58.9089 46.444 59.0846 46.4844 59.2852 46.4844C59.4831 46.4844 59.6562 46.444 59.8047 46.3633C59.9557 46.2799 60.0807 46.1667 60.1797 46.0234C60.2786 45.8802 60.3529 45.7161 60.4023 45.5312C60.4544 45.3438 60.4805 45.1445 60.4805 44.9336V44.8438C60.4805 44.6354 60.4544 44.4388 60.4023 44.2539C60.3529 44.0664 60.2773 43.901 60.1758 43.7578C60.0768 43.612 59.9518 43.4974 59.8008 43.4141C59.6523 43.3307 59.4779 43.2891 59.2773 43.2891C59.0794 43.2891 58.9049 43.3307 58.7539 43.4141C58.6055 43.4974 58.4805 43.612 58.3789 43.7578C58.2799 43.901 58.2057 44.0664 58.1562 44.2539C58.1068 44.4388 58.082 44.6354 58.082 44.8438ZM62.8359 43.6758V47H62.1133V42.7734H62.7969L62.8359 43.6758ZM62.6641 44.7266L62.3633 44.7148C62.3659 44.4258 62.4089 44.1589 62.4922 43.9141C62.5755 43.6667 62.6927 43.4518 62.8438 43.2695C62.9948 43.0872 63.1745 42.9466 63.3828 42.8477C63.5938 42.7461 63.8268 42.6953 64.082 42.6953C64.2904 42.6953 64.4779 42.724 64.6445 42.7812C64.8112 42.8359 64.9531 42.9245 65.0703 43.0469C65.1901 43.1693 65.2812 43.3281 65.3438 43.5234C65.4062 43.7161 65.4375 43.9518 65.4375 44.2305V47H64.7109V44.2227C64.7109 44.0013 64.6784 43.8242 64.6133 43.6914C64.5482 43.556 64.4531 43.4583 64.3281 43.3984C64.2031 43.3359 64.0495 43.3047 63.8672 43.3047C63.6875 43.3047 63.5234 43.3424 63.375 43.418C63.2292 43.4935 63.1029 43.5977 62.9961 43.7305C62.8919 43.8633 62.8099 44.0156 62.75 44.1875C62.6927 44.3568 62.6641 44.5365 62.6641 44.7266ZM71.1836 46.1797V41H71.9102V47H71.2461L71.1836 46.1797ZM68.3398 44.9336V44.8516C68.3398 44.5286 68.3789 44.2357 68.457 43.9727C68.5378 43.707 68.651 43.4792 68.7969 43.2891C68.9453 43.099 69.1211 42.9531 69.3242 42.8516C69.5299 42.7474 69.7591 42.6953 70.0117 42.6953C70.2773 42.6953 70.5091 42.7422 70.707 42.8359C70.9076 42.9271 71.0768 43.0612 71.2148 43.2383C71.3555 43.4128 71.4661 43.6237 71.5469 43.8711C71.6276 44.1185 71.6836 44.3984 71.7148 44.7109V45.0703C71.6862 45.3802 71.6302 45.6589 71.5469 45.9062C71.4661 46.1536 71.3555 46.3646 71.2148 46.5391C71.0768 46.7135 70.9076 46.8477 70.707 46.9414C70.5065 47.0326 70.2721 47.0781 70.0039 47.0781C69.7565 47.0781 69.5299 47.0247 69.3242 46.918C69.1211 46.8112 68.9453 46.6615 68.7969 46.4688C68.651 46.276 68.5378 46.0495 68.457 45.7891C68.3789 45.526 68.3398 45.2409 68.3398 44.9336ZM69.0664 44.8516V44.9336C69.0664 45.1445 69.0872 45.3424 69.1289 45.5273C69.1732 45.7122 69.2409 45.875 69.332 46.0156C69.4232 46.1562 69.5391 46.2669 69.6797 46.3477C69.8203 46.4258 69.9883 46.4648 70.1836 46.4648C70.4232 46.4648 70.6198 46.4141 70.7734 46.3125C70.9297 46.2109 71.0547 46.0768 71.1484 45.9102C71.2422 45.7435 71.3151 45.5625 71.3672 45.3672V44.4258C71.3359 44.2826 71.2904 44.1445 71.2305 44.0117C71.1732 43.8763 71.0977 43.7565 71.0039 43.6523C70.9128 43.5456 70.7995 43.4609 70.6641 43.3984C70.5312 43.3359 70.3737 43.3047 70.1914 43.3047C69.9935 43.3047 69.8229 43.3464 69.6797 43.4297C69.5391 43.5104 69.4232 43.6224 69.332 43.7656C69.2409 43.9062 69.1732 44.0703 69.1289 44.2578C69.0872 44.4427 69.0664 44.6406 69.0664 44.8516ZM74.7891 47.0781C74.4948 47.0781 74.2279 47.0286 73.9883 46.9297C73.7513 46.8281 73.5469 46.6862 73.375 46.5039C73.2057 46.3216 73.0755 46.1055 72.9844 45.8555C72.8932 45.6055 72.8477 45.332 72.8477 45.0352V44.8711C72.8477 44.5273 72.8984 44.2214 73 43.9531C73.1016 43.6823 73.2396 43.4531 73.4141 43.2656C73.5885 43.0781 73.7865 42.9362 74.0078 42.8398C74.2292 42.7435 74.4583 42.6953 74.6953 42.6953C74.9974 42.6953 75.2578 42.7474 75.4766 42.8516C75.6979 42.9557 75.8789 43.1016 76.0195 43.2891C76.1602 43.474 76.2643 43.6927 76.332 43.9453C76.3997 44.1953 76.4336 44.4688 76.4336 44.7656V45.0898H73.2773V44.5H75.7109V44.4453C75.7005 44.2578 75.6615 44.0755 75.5938 43.8984C75.5286 43.7214 75.4245 43.5755 75.2812 43.4609C75.138 43.3464 74.9427 43.2891 74.6953 43.2891C74.5312 43.2891 74.3802 43.3242 74.2422 43.3945C74.1042 43.4622 73.9857 43.5638 73.8867 43.6992C73.7878 43.8346 73.7109 44 73.6562 44.1953C73.6016 44.3906 73.5742 44.6159 73.5742 44.8711V45.0352C73.5742 45.2357 73.6016 45.4245 73.6562 45.6016C73.7135 45.776 73.7956 45.9297 73.9023 46.0625C74.0117 46.1953 74.1432 46.2995 74.2969 46.375C74.4531 46.4505 74.6302 46.4883 74.8281 46.4883C75.0833 46.4883 75.2995 46.4362 75.4766 46.332C75.6536 46.2279 75.8086 46.0885 75.9414 45.9141L76.3789 46.2617C76.2878 46.3997 76.1719 46.5312 76.0312 46.6562C75.8906 46.7812 75.7174 46.8828 75.5117 46.9609C75.3086 47.0391 75.0677 47.0781 74.7891 47.0781ZM80.0469 41V47H79.3203V41H80.0469ZM83.6992 46.2773V44.1016C83.6992 43.9349 83.6654 43.7904 83.5977 43.668C83.5326 43.543 83.4336 43.4466 83.3008 43.3789C83.168 43.3112 83.0039 43.2773 82.8086 43.2773C82.6263 43.2773 82.4661 43.3086 82.3281 43.3711C82.1927 43.4336 82.0859 43.5156 82.0078 43.6172C81.9323 43.7188 81.8945 43.8281 81.8945 43.9453H81.1719C81.1719 43.7943 81.2109 43.6445 81.2891 43.4961C81.3672 43.3477 81.4792 43.2135 81.625 43.0938C81.7734 42.9714 81.9505 42.875 82.1562 42.8047C82.3646 42.7318 82.5964 42.6953 82.8516 42.6953C83.1589 42.6953 83.4297 42.7474 83.6641 42.8516C83.901 42.9557 84.0859 43.1133 84.2188 43.3242C84.3542 43.5326 84.4219 43.7943 84.4219 44.1094V46.0781C84.4219 46.2188 84.4336 46.3685 84.457 46.5273C84.4831 46.6862 84.5208 46.8229 84.5703 46.9375V47H83.8164C83.7799 46.9167 83.7513 46.806 83.7305 46.668C83.7096 46.5273 83.6992 46.3971 83.6992 46.2773ZM83.8242 44.4375L83.832 44.9453H83.1016C82.8958 44.9453 82.7122 44.9622 82.5508 44.9961C82.3893 45.0273 82.2539 45.0755 82.1445 45.1406C82.0352 45.2057 81.9518 45.2878 81.8945 45.3867C81.8372 45.4831 81.8086 45.5964 81.8086 45.7266C81.8086 45.8594 81.8385 45.9805 81.8984 46.0898C81.9583 46.1992 82.0482 46.2865 82.168 46.3516C82.2904 46.4141 82.4401 46.4453 82.6172 46.4453C82.8385 46.4453 83.0339 46.3984 83.2031 46.3047C83.3724 46.2109 83.5065 46.0964 83.6055 45.9609C83.707 45.8255 83.7617 45.694 83.7695 45.5664L84.0781 45.9141C84.0599 46.0234 84.0104 46.1445 83.9297 46.2773C83.849 46.4102 83.7409 46.5378 83.6055 46.6602C83.4727 46.7799 83.3138 46.8802 83.1289 46.9609C82.9466 47.0391 82.7409 47.0781 82.5117 47.0781C82.2253 47.0781 81.974 47.0221 81.7578 46.9102C81.5443 46.7982 81.3776 46.6484 81.2578 46.4609C81.1406 46.2708 81.082 46.0586 81.082 45.8242C81.082 45.5977 81.1263 45.3984 81.2148 45.2266C81.3034 45.0521 81.431 44.9076 81.5977 44.793C81.7643 44.6758 81.9648 44.5872 82.1992 44.5273C82.4336 44.4674 82.6953 44.4375 82.9844 44.4375H83.8242ZM88.2656 43.5859V48.625H87.5391V42.7734H88.2031L88.2656 43.5859ZM91.1133 44.8516V44.9336C91.1133 45.2409 91.0768 45.526 91.0039 45.7891C90.931 46.0495 90.8242 46.276 90.6836 46.4688C90.5456 46.6615 90.375 46.8112 90.1719 46.918C89.9688 47.0247 89.7357 47.0781 89.4727 47.0781C89.2044 47.0781 88.9674 47.0339 88.7617 46.9453C88.556 46.8568 88.3815 46.7279 88.2383 46.5586C88.0951 46.3893 87.9805 46.1862 87.8945 45.9492C87.8112 45.7122 87.7539 45.4453 87.7227 45.1484V44.7109C87.7539 44.3984 87.8125 44.1185 87.8984 43.8711C87.9844 43.6237 88.0977 43.4128 88.2383 43.2383C88.3815 43.0612 88.5547 42.9271 88.7578 42.8359C88.9609 42.7422 89.1953 42.6953 89.4609 42.6953C89.7266 42.6953 89.9622 42.7474 90.168 42.8516C90.3737 42.9531 90.5469 43.099 90.6875 43.2891C90.8281 43.4792 90.9336 43.707 91.0039 43.9727C91.0768 44.2357 91.1133 44.5286 91.1133 44.8516ZM90.3867 44.9336V44.8516C90.3867 44.6406 90.3646 44.4427 90.3203 44.2578C90.276 44.0703 90.207 43.9062 90.1133 43.7656C90.0221 43.6224 89.9049 43.5104 89.7617 43.4297C89.6185 43.3464 89.4479 43.3047 89.25 43.3047C89.0677 43.3047 88.9089 43.3359 88.7734 43.3984C88.6406 43.4609 88.5273 43.5456 88.4336 43.6523C88.3398 43.7565 88.263 43.8763 88.2031 44.0117C88.1458 44.1445 88.1029 44.2826 88.0742 44.4258V45.4375C88.1263 45.6198 88.1992 45.7917 88.293 45.9531C88.3867 46.112 88.5117 46.2409 88.668 46.3398C88.8242 46.4362 89.0208 46.4844 89.2578 46.4844C89.4531 46.4844 89.6211 46.444 89.7617 46.3633C89.9049 46.2799 90.0221 46.1667 90.1133 46.0234C90.207 45.8802 90.276 45.7161 90.3203 45.5312C90.3646 45.3438 90.3867 45.1445 90.3867 44.9336ZM94.5273 46.2773V44.1016C94.5273 43.9349 94.4935 43.7904 94.4258 43.668C94.3607 43.543 94.2617 43.4466 94.1289 43.3789C93.9961 43.3112 93.832 43.2773 93.6367 43.2773C93.4544 43.2773 93.2943 43.3086 93.1562 43.3711C93.0208 43.4336 92.9141 43.5156 92.8359 43.6172C92.7604 43.7188 92.7227 43.8281 92.7227 43.9453H92C92 43.7943 92.0391 43.6445 92.1172 43.4961C92.1953 43.3477 92.3073 43.2135 92.4531 43.0938C92.6016 42.9714 92.7786 42.875 92.9844 42.8047C93.1927 42.7318 93.4245 42.6953 93.6797 42.6953C93.987 42.6953 94.2578 42.7474 94.4922 42.8516C94.7292 42.9557 94.9141 43.1133 95.0469 43.3242C95.1823 43.5326 95.25 43.7943 95.25 44.1094V46.0781C95.25 46.2188 95.2617 46.3685 95.2852 46.5273C95.3112 46.6862 95.349 46.8229 95.3984 46.9375V47H94.6445C94.6081 46.9167 94.5794 46.806 94.5586 46.668C94.5378 46.5273 94.5273 46.3971 94.5273 46.2773ZM94.6523 44.4375L94.6602 44.9453H93.9297C93.724 44.9453 93.5404 44.9622 93.3789 44.9961C93.2174 45.0273 93.082 45.0755 92.9727 45.1406C92.8633 45.2057 92.7799 45.2878 92.7227 45.3867C92.6654 45.4831 92.6367 45.5964 92.6367 45.7266C92.6367 45.8594 92.6667 45.9805 92.7266 46.0898C92.7865 46.1992 92.8763 46.2865 92.9961 46.3516C93.1185 46.4141 93.2682 46.4453 93.4453 46.4453C93.6667 46.4453 93.862 46.3984 94.0312 46.3047C94.2005 46.2109 94.3346 46.0964 94.4336 45.9609C94.5352 45.8255 94.5898 45.694 94.5977 45.5664L94.9062 45.9141C94.888 46.0234 94.8385 46.1445 94.7578 46.2773C94.6771 46.4102 94.569 46.5378 94.4336 46.6602C94.3008 46.7799 94.1419 46.8802 93.957 46.9609C93.7747 47.0391 93.569 47.0781 93.3398 47.0781C93.0534 47.0781 92.8021 47.0221 92.5859 46.9102C92.3724 46.7982 92.2057 46.6484 92.0859 46.4609C91.9688 46.2708 91.9102 46.0586 91.9102 45.8242C91.9102 45.5977 91.9544 45.3984 92.043 45.2266C92.1315 45.0521 92.2591 44.9076 92.4258 44.793C92.5924 44.6758 92.793 44.5872 93.0273 44.5273C93.2617 44.4674 93.5234 44.4375 93.8125 44.4375H94.6523ZM97.1094 43.4375V47H96.3867V42.7734H97.0898L97.1094 43.4375ZM98.4297 42.75L98.4258 43.4219C98.3659 43.4089 98.3086 43.401 98.2539 43.3984C98.2018 43.3932 98.1419 43.3906 98.0742 43.3906C97.9076 43.3906 97.7604 43.4167 97.6328 43.4688C97.5052 43.5208 97.3971 43.5938 97.3086 43.6875C97.2201 43.7812 97.1497 43.8932 97.0977 44.0234C97.0482 44.151 97.0156 44.2917 97 44.4453L96.7969 44.5625C96.7969 44.3073 96.8216 44.0677 96.8711 43.8438C96.9232 43.6198 97.0026 43.4219 97.1094 43.25C97.2161 43.0755 97.3516 42.9401 97.5156 42.8438C97.6823 42.7448 97.8802 42.6953 98.1094 42.6953C98.1615 42.6953 98.2214 42.7018 98.2891 42.7148C98.3568 42.7253 98.4036 42.737 98.4297 42.75ZM100.711 46.4844C100.883 46.4844 101.042 46.4492 101.188 46.3789C101.333 46.3086 101.453 46.2122 101.547 46.0898C101.641 45.9648 101.694 45.8229 101.707 45.6641H102.395C102.382 45.9141 102.297 46.1471 102.141 46.3633C101.987 46.5768 101.785 46.75 101.535 46.8828C101.285 47.013 101.01 47.0781 100.711 47.0781C100.393 47.0781 100.116 47.0221 99.8789 46.9102C99.6445 46.7982 99.4492 46.6445 99.293 46.4492C99.1393 46.2539 99.0234 46.0299 98.9453 45.7773C98.8698 45.5221 98.832 45.2526 98.832 44.9688V44.8047C98.832 44.5208 98.8698 44.2526 98.9453 44C99.0234 43.7448 99.1393 43.5195 99.293 43.3242C99.4492 43.1289 99.6445 42.9753 99.8789 42.8633C100.116 42.7513 100.393 42.6953 100.711 42.6953C101.042 42.6953 101.331 42.763 101.578 42.8984C101.826 43.0312 102.02 43.2135 102.16 43.4453C102.303 43.6745 102.382 43.9349 102.395 44.2266H101.707C101.694 44.0521 101.645 43.8945 101.559 43.7539C101.475 43.6133 101.361 43.5013 101.215 43.418C101.072 43.332 100.904 43.2891 100.711 43.2891C100.49 43.2891 100.303 43.3333 100.152 43.4219C100.004 43.5078 99.8854 43.625 99.7969 43.7734C99.7109 43.9193 99.6484 44.082 99.6094 44.2617C99.5729 44.4388 99.5547 44.6198 99.5547 44.8047V44.9688C99.5547 45.1536 99.5729 45.3359 99.6094 45.5156C99.6458 45.6953 99.707 45.8581 99.793 46.0039C99.8815 46.1497 100 46.2669 100.148 46.3555C100.299 46.4414 100.487 46.4844 100.711 46.4844ZM104.961 47.0781C104.667 47.0781 104.4 47.0286 104.16 46.9297C103.923 46.8281 103.719 46.6862 103.547 46.5039C103.378 46.3216 103.247 46.1055 103.156 45.8555C103.065 45.6055 103.02 45.332 103.02 45.0352V44.8711C103.02 44.5273 103.07 44.2214 103.172 43.9531C103.273 43.6823 103.411 43.4531 103.586 43.2656C103.76 43.0781 103.958 42.9362 104.18 42.8398C104.401 42.7435 104.63 42.6953 104.867 42.6953C105.169 42.6953 105.43 42.7474 105.648 42.8516C105.87 42.9557 106.051 43.1016 106.191 43.2891C106.332 43.474 106.436 43.6927 106.504 43.9453C106.572 44.1953 106.605 44.4688 106.605 44.7656V45.0898H103.449V44.5H105.883V44.4453C105.872 44.2578 105.833 44.0755 105.766 43.8984C105.701 43.7214 105.596 43.5755 105.453 43.4609C105.31 43.3464 105.115 43.2891 104.867 43.2891C104.703 43.2891 104.552 43.3242 104.414 43.3945C104.276 43.4622 104.158 43.5638 104.059 43.6992C103.96 43.8346 103.883 44 103.828 44.1953C103.773 44.3906 103.746 44.6159 103.746 44.8711V45.0352C103.746 45.2357 103.773 45.4245 103.828 45.6016C103.885 45.776 103.967 45.9297 104.074 46.0625C104.184 46.1953 104.315 46.2995 104.469 46.375C104.625 46.4505 104.802 46.4883 105 46.4883C105.255 46.4883 105.471 46.4362 105.648 46.332C105.826 46.2279 105.98 46.0885 106.113 45.9141L106.551 46.2617C106.46 46.3997 106.344 46.5312 106.203 46.6562C106.062 46.7812 105.889 46.8828 105.684 46.9609C105.48 47.0391 105.24 47.0781 104.961 47.0781ZM108.234 41V47H107.508V41H108.234ZM110.18 41V47H109.453V41H110.18ZM113.094 47.0781C112.799 47.0781 112.533 47.0286 112.293 46.9297C112.056 46.8281 111.852 46.6862 111.68 46.5039C111.51 46.3216 111.38 46.1055 111.289 45.8555C111.198 45.6055 111.152 45.332 111.152 45.0352V44.8711C111.152 44.5273 111.203 44.2214 111.305 43.9531C111.406 43.6823 111.544 43.4531 111.719 43.2656C111.893 43.0781 112.091 42.9362 112.312 42.8398C112.534 42.7435 112.763 42.6953 113 42.6953C113.302 42.6953 113.562 42.7474 113.781 42.8516C114.003 42.9557 114.184 43.1016 114.324 43.2891C114.465 43.474 114.569 43.6927 114.637 43.9453C114.704 44.1953 114.738 44.4688 114.738 44.7656V45.0898H111.582V44.5H114.016V44.4453C114.005 44.2578 113.966 44.0755 113.898 43.8984C113.833 43.7214 113.729 43.5755 113.586 43.4609C113.443 43.3464 113.247 43.2891 113 43.2891C112.836 43.2891 112.685 43.3242 112.547 43.3945C112.409 43.4622 112.29 43.5638 112.191 43.6992C112.092 43.8346 112.016 44 111.961 44.1953C111.906 44.3906 111.879 44.6159 111.879 44.8711V45.0352C111.879 45.2357 111.906 45.4245 111.961 45.6016C112.018 45.776 112.1 45.9297 112.207 46.0625C112.316 46.1953 112.448 46.2995 112.602 46.375C112.758 46.4505 112.935 46.4883 113.133 46.4883C113.388 46.4883 113.604 46.4362 113.781 46.332C113.958 46.2279 114.113 46.0885 114.246 45.9141L114.684 46.2617C114.592 46.3997 114.477 46.5312 114.336 46.6562C114.195 46.7812 114.022 46.8828 113.816 46.9609C113.613 47.0391 113.372 47.0781 113.094 47.0781Z" fill="#B5B5B5"/>
<defs>
<filter id="filter0_d_392_306" x="14" y="53" width="117.247" height="117.247" filterUnits="userSpaceOnUse" color-interpolation-filters="sRGB">
<feFlood flood-opacity="0" result="BackgroundImageFix"/>
<feColorMatrix in="SourceAlpha" type="matrix" values="0 0 0 0 0 0 0 0 0 0 0 0 0 0 0 0 0 0 127 0" result="hardAlpha"/>
<feMorphology radius="12" operator="dilate" in="SourceAlpha" result="effect1_dropShadow_392_306"/>
<feOffset/>
<feComposite in2="hardAlpha" operator="out"/>
<feColorMatrix type="matrix" values="0 0 0 0 0 0 0 0 0 0 0 0 0 0 0 0 0 0 0.02 0"/>
<feBlend mode="normal" in2="BackgroundImageFix" result="effect1_dropShadow_392_306"/>
<feBlend mode="normal" in="SourceGraphic" in2="effect1_dropShadow_392_306" result="shape"/>
</filter>
</defs>
</svg>
