<svg width="612" height="25" viewBox="0 0 612 25" fill="none" xmlns="http://www.w3.org/2000/svg">
<rect width="612" height="25" rx="2" fill="#272727"/>
<path d="M14.84 10.97C14.85 11.8 14.49 12.4 13.7 13.2L11.82 15.11H14.91V16H10.31V15.37L12.98 12.61C13.56 12.02 13.82 11.64 13.82 11.05C13.82 10.32 13.22 9.78 12.43 9.78C11.81 9.78 11.28 10.08 10.85 10.65L10.16 10.05C10.73 9.31 11.55 8.9 12.52 8.9C13.86 8.9 14.84 9.78 14.84 10.97ZM15.7337 13.34V11.65C15.7337 9.97 16.7937 8.88 18.4137 8.88C20.0337 8.88 21.0937 9.97 21.0937 11.65V13.34C21.0937 15.02 20.0337 16.12 18.4137 16.12C16.7937 16.12 15.7337 15.02 15.7337 13.34ZM20.0837 13.31V11.68C20.0837 10.5 19.4437 9.77 18.4137 9.77C17.3837 9.77 16.7437 10.5 16.7437 11.68V13.31C16.7437 14.49 17.3837 15.23 18.4137 15.23C19.4437 15.23 20.0837 14.5 20.0837 13.31ZM26.1974 10.97C26.2074 11.8 25.8474 12.4 25.0574 13.2L23.1774 15.11H26.2674V16H21.6674V15.37L24.3374 12.61C24.9174 12.02 25.1774 11.64 25.1774 11.05C25.1774 10.32 24.5774 9.78 23.7874 9.78C23.1674 9.78 22.6374 10.08 22.2074 10.65L21.5174 10.05C22.0874 9.31 22.9074 8.9 23.8774 8.9C25.2174 8.9 26.1974 9.78 26.1974 10.97ZM31.3927 10.97C31.4027 11.8 31.0427 12.4 30.2527 13.2L28.3727 15.11H31.4627V16H26.8627V15.37L29.5327 12.61C30.1127 12.02 30.3727 11.64 30.3727 11.05C30.3727 10.32 29.7727 9.78 28.9827 9.78C28.3627 9.78 27.8327 10.08 27.4027 10.65L26.7127 10.05C27.2827 9.31 28.1027 8.9 29.0727 8.9C30.4127 8.9 31.3927 9.78 31.3927 10.97Z" fill="white"/>
<path d="M267.38 15.1V16H263.28V15.1H264.82V9.9H263.44V9H265.83V15.1H267.38ZM270.111 13.34V11.65C270.111 9.97 271.171 8.88 272.791 8.88C274.411 8.88 275.471 9.97 275.471 11.65V13.34C275.471 15.02 274.411 16.12 272.791 16.12C271.171 16.12 270.111 15.02 270.111 13.34ZM274.461 13.31V11.68C274.461 10.5 273.821 9.77 272.791 9.77C271.761 9.77 271.121 10.5 271.121 11.68V13.31C271.121 14.49 271.761 15.23 272.791 15.23C273.821 15.23 274.461 14.5 274.461 13.31ZM276.4 13.34V11.65C276.4 9.97 277.46 8.88 279.08 8.88C280.7 8.88 281.76 9.97 281.76 11.65V13.34C281.76 15.02 280.7 16.12 279.08 16.12C277.46 16.12 276.4 15.02 276.4 13.34ZM280.75 13.31V11.68C280.75 10.5 280.11 9.77 279.08 9.77C278.05 9.77 277.41 10.5 277.41 11.68V13.31C277.41 14.49 278.05 15.23 279.08 15.23C280.11 15.23 280.75 14.5 280.75 13.31ZM284.75 8.9C286.04 8.9 287.03 9.78 287.03 10.88C287.03 11.49 286.7 12.03 286.18 12.34C286.84 12.64 287.28 13.27 287.28 13.99C287.28 15.15 286.25 16.11 284.84 16.11C283.72 16.11 282.88 15.68 282.31 14.99L283.02 14.36C283.44 14.9 284.05 15.25 284.79 15.25C285.64 15.25 286.25 14.7 286.25 14.02C286.25 13.37 285.74 12.84 284.98 12.84H284.01V11.97H284.85C285.54 11.97 286 11.5 286 10.89C286 10.25 285.44 9.76 284.67 9.76C284.02 9.76 283.49 10.1 283.1 10.6L282.42 10.01C282.97 9.33 283.72 8.9 284.75 8.9ZM295.09 14.04C295.09 15.25 294.01 16.11 292.58 16.11C291.14 16.11 290.06 15.25 290.06 14.04C290.06 13.29 290.53 12.66 291.22 12.36C290.67 12.05 290.31 11.51 290.31 10.87C290.31 9.74 291.28 8.9 292.58 8.9C293.87 8.9 294.84 9.74 294.84 10.87C294.84 11.51 294.48 12.05 293.93 12.36C294.62 12.66 295.09 13.29 295.09 14.04ZM292.58 9.75C291.86 9.75 291.32 10.21 291.32 10.87C291.32 11.51 291.87 11.98 292.58 11.98C293.28 11.98 293.83 11.51 293.83 10.87C293.83 10.21 293.3 9.75 292.58 9.75ZM292.58 12.83C291.73 12.83 291.1 13.34 291.1 14.05C291.1 14.75 291.72 15.25 292.58 15.25C293.43 15.25 294.05 14.75 294.05 14.05C294.05 13.34 293.42 12.83 292.58 12.83ZM299.34 16V14.22H295.73V13.47L299.05 9H300.35V13.32H301.27V14.22H300.35V16H299.34ZM296.92 13.32H299.34V10.04L296.92 13.32ZM306.443 9.75L303.053 16H301.883L305.303 9.9H301.383V9H306.443V9.75ZM308.765 12.85H309.675C309.665 12.74 309.665 12.63 309.665 12.51C309.665 12.38 309.665 12.26 309.675 12.14H308.765V11.46H309.785C310.145 9.93 311.325 8.89 312.885 8.89C313.955 8.89 314.745 9.31 315.545 10.18L314.745 10.82C314.195 10.16 313.605 9.84 312.865 9.84C311.905 9.84 311.165 10.45 310.865 11.46H313.355L313.095 12.14H310.745C310.735 12.26 310.725 12.38 310.725 12.51C310.725 12.63 310.725 12.74 310.735 12.85H312.845L312.595 13.53H310.855C311.145 14.55 311.885 15.17 312.875 15.17C313.575 15.17 314.165 14.86 314.725 14.19L315.535 14.83C314.745 15.7 313.935 16.12 312.865 16.12C311.315 16.12 310.145 15.07 309.785 13.53H308.765V12.85Z" fill="white"/>
<path d="M560.86 8.89C562.5 8.89 563.57 10.24 563.57 12.27V12.49C563.57 14.69 562.5 16.12 560.81 16.12C559.91 16.12 559.17 15.74 558.61 15.08L559.31 14.48C559.69 14.96 560.23 15.25 560.81 15.25C561.82 15.25 562.59 14.33 562.59 12.72V12.54C562.22 13.2 561.55 13.58 560.73 13.58C559.43 13.58 558.39 12.57 558.39 11.31C558.39 9.95 559.47 8.89 560.86 8.89ZM560.89 9.76C560.03 9.76 559.36 10.41 559.36 11.25C559.36 12.1 560.03 12.75 560.89 12.75C561.73 12.75 562.4 12.1 562.4 11.25C562.4 10.41 561.74 9.76 560.89 9.76ZM567.856 16V14.22H564.246V13.47L567.566 9H568.866V13.32H569.786V14.22H568.866V16H567.856ZM565.436 13.32H567.856V10.04L565.436 13.32ZM574.959 9.75L571.569 16H570.399L573.819 9.9H569.899V9H574.959V9.75ZM582.371 9.75L578.981 16H577.811L581.231 9.9H577.311V9H582.371V9.75ZM585.59 16V14.22H581.98V13.47L585.3 9H586.6V13.32H587.52V14.22H586.6V16H585.59ZM583.17 13.32H585.59V10.04L583.17 13.32ZM592.693 9.75L589.303 16H588.133L591.553 9.9H587.633V9H592.693V9.75ZM595.015 12.85H595.925C595.915 12.74 595.915 12.63 595.915 12.51C595.915 12.38 595.915 12.26 595.925 12.14H595.015V11.46H596.035C596.395 9.93 597.575 8.89 599.135 8.89C600.205 8.89 600.995 9.31 601.795 10.18L600.995 10.82C600.445 10.16 599.855 9.84 599.115 9.84C598.155 9.84 597.415 10.45 597.115 11.46H599.605L599.345 12.14H596.995C596.985 12.26 596.975 12.38 596.975 12.51C596.975 12.63 596.975 12.74 596.985 12.85H599.095L598.845 13.53H597.105C597.395 14.55 598.135 15.17 599.125 15.17C599.825 15.17 600.415 14.86 600.975 14.19L601.785 14.83C600.995 15.7 600.185 16.12 599.115 16.12C597.565 16.12 596.395 15.07 596.035 13.53H595.015V12.85Z" fill="white"/>
</svg>
