<svg width="612" height="25" viewBox="0 0 612 25" fill="none" xmlns="http://www.w3.org/2000/svg">
<rect width="612" height="25" rx="2" fill="#272727"/>
<path d="M14.38 15.1V16H10.28V15.1H11.82V9.9H10.44V9H12.83V15.1H14.38ZM17.1959 8.89C18.8359 8.89 19.9059 10.24 19.9059 12.27V12.49C19.9059 14.69 18.8359 16.12 17.1459 16.12C16.2459 16.12 15.5059 15.74 14.9459 15.08L15.6459 14.48C16.0259 14.96 16.5659 15.25 17.1459 15.25C18.1559 15.25 18.9259 14.33 18.9259 12.72V12.54C18.5559 13.2 17.8859 13.58 17.0659 13.58C15.7659 13.58 14.7259 12.57 14.7259 11.31C14.7259 9.95 15.8059 8.89 17.1959 8.89ZM17.2259 9.76C16.3659 9.76 15.6959 10.41 15.6959 11.25C15.6959 12.1 16.3659 12.75 17.2259 12.75C18.0659 12.75 18.7359 12.1 18.7359 11.25C18.7359 10.41 18.0759 9.76 17.2259 9.76ZM23.2018 8.89C24.8418 8.89 25.9118 10.24 25.9118 12.27V12.49C25.9118 14.69 24.8418 16.12 23.1518 16.12C22.2518 16.12 21.5118 15.74 20.9518 15.08L21.6518 14.48C22.0318 14.96 22.5718 15.25 23.1518 15.25C24.1618 15.25 24.9318 14.33 24.9318 12.72V12.54C24.5618 13.2 23.8918 13.58 23.0718 13.58C21.7718 13.58 20.7318 12.57 20.7318 11.31C20.7318 9.95 21.8118 8.89 23.2018 8.89ZM23.2318 9.76C22.3718 9.76 21.7018 10.41 21.7018 11.25C21.7018 12.1 22.3718 12.75 23.2318 12.75C24.0718 12.75 24.7418 12.1 24.7418 11.25C24.7418 10.41 24.0818 9.76 23.2318 9.76ZM31.7777 14.04C31.7777 15.25 30.6977 16.11 29.2677 16.11C27.8277 16.11 26.7477 15.25 26.7477 14.04C26.7477 13.29 27.2177 12.66 27.9077 12.36C27.3577 12.05 26.9977 11.51 26.9977 10.87C26.9977 9.74 27.9677 8.9 29.2677 8.9C30.5577 8.9 31.5277 9.74 31.5277 10.87C31.5277 11.51 31.1677 12.05 30.6177 12.36C31.3077 12.66 31.7777 13.29 31.7777 14.04ZM29.2677 9.75C28.5477 9.75 28.0077 10.21 28.0077 10.87C28.0077 11.51 28.5577 11.98 29.2677 11.98C29.9677 11.98 30.5177 11.51 30.5177 10.87C30.5177 10.21 29.9877 9.75 29.2677 9.75ZM29.2677 12.83C28.4177 12.83 27.7877 13.34 27.7877 14.05C27.7877 14.75 28.4077 15.25 29.2677 15.25C30.1177 15.25 30.7377 14.75 30.7377 14.05C30.7377 13.34 30.1077 12.83 29.2677 12.83Z" fill="white"/>
<path d="M272.15 16.11C270.51 16.11 269.44 14.76 269.44 12.73V12.51C269.44 10.31 270.51 8.88 272.2 8.88C273.1 8.88 273.84 9.26 274.4 9.92L273.7 10.52C273.32 10.04 272.78 9.75 272.2 9.75C271.19 9.75 270.42 10.67 270.42 12.28V12.46C270.79 11.8 271.46 11.42 272.28 11.42C273.58 11.42 274.62 12.43 274.62 13.69C274.62 15.05 273.54 16.11 272.15 16.11ZM272.12 15.24C272.98 15.24 273.65 14.59 273.65 13.75C273.65 12.9 272.98 12.25 272.12 12.25C271.28 12.25 270.61 12.9 270.61 13.75C270.61 14.59 271.27 15.24 272.12 15.24ZM279.259 15.1V16H275.159V15.1H276.699V9.9H275.319V9H277.709V15.1H279.259ZM281.991 8.9C283.281 8.9 284.271 9.78 284.271 10.88C284.271 11.49 283.941 12.03 283.421 12.34C284.081 12.64 284.521 13.27 284.521 13.99C284.521 15.15 283.491 16.11 282.081 16.11C280.961 16.11 280.121 15.68 279.551 14.99L280.261 14.36C280.681 14.9 281.291 15.25 282.031 15.25C282.881 15.25 283.491 14.7 283.491 14.02C283.491 13.37 282.981 12.84 282.221 12.84H281.251V11.97H282.091C282.781 11.97 283.241 11.5 283.241 10.89C283.241 10.25 282.681 9.76 281.911 9.76C281.261 9.76 280.731 10.1 280.341 10.6L279.661 10.01C280.211 9.33 280.961 8.9 281.991 8.9ZM289.76 8.89C291.4 8.89 292.47 10.24 292.47 12.27V12.49C292.47 14.69 291.4 16.12 289.71 16.12C288.81 16.12 288.07 15.74 287.51 15.08L288.21 14.48C288.59 14.96 289.13 15.25 289.71 15.25C290.72 15.25 291.49 14.33 291.49 12.72V12.54C291.12 13.2 290.45 13.58 289.63 13.58C288.33 13.58 287.29 12.57 287.29 11.31C287.29 9.95 288.37 8.89 289.76 8.89ZM289.79 9.76C288.93 9.76 288.26 10.41 288.26 11.25C288.26 12.1 288.93 12.75 289.79 12.75C290.63 12.75 291.3 12.1 291.3 11.25C291.3 10.41 290.64 9.76 289.79 9.76ZM296.756 16V14.22H293.146V13.47L296.466 9H297.766V13.32H298.686V14.22H297.766V16H296.756ZM294.336 13.32H296.756V10.04L294.336 13.32ZM303.859 9.75L300.469 16H299.299L302.719 9.9H298.799V9H303.859V9.75ZM306.181 12.85H307.091C307.081 12.74 307.081 12.63 307.081 12.51C307.081 12.38 307.081 12.26 307.091 12.14H306.181V11.46H307.201C307.561 9.93 308.741 8.89 310.301 8.89C311.371 8.89 312.161 9.31 312.961 10.18L312.161 10.82C311.611 10.16 311.021 9.84 310.281 9.84C309.321 9.84 308.581 10.45 308.281 11.46H310.771L310.511 12.14H308.161C308.151 12.26 308.141 12.38 308.141 12.51C308.141 12.63 308.141 12.74 308.151 12.85H310.261L310.011 13.53H308.271C308.561 14.55 309.301 15.17 310.291 15.17C310.991 15.17 311.581 14.86 312.141 14.19L312.951 14.83C312.161 15.7 311.351 16.12 310.281 16.12C308.731 16.12 307.561 15.07 307.201 13.53H306.181V12.85Z" fill="white"/>
<path d="M561.15 16.11C559.51 16.11 558.44 14.76 558.44 12.73V12.51C558.44 10.31 559.51 8.88 561.2 8.88C562.1 8.88 562.84 9.26 563.4 9.92L562.7 10.52C562.32 10.04 561.78 9.75 561.2 9.75C560.19 9.75 559.42 10.67 559.42 12.28V12.46C559.79 11.8 560.46 11.42 561.28 11.42C562.58 11.42 563.62 12.43 563.62 13.69C563.62 15.05 562.54 16.11 561.15 16.11ZM561.12 15.24C561.98 15.24 562.65 14.59 562.65 13.75C562.65 12.9 561.98 12.25 561.12 12.25C560.28 12.25 559.61 12.9 559.61 13.75C559.61 14.59 560.27 15.24 561.12 15.24ZM568.259 15.1V16H564.159V15.1H565.699V9.9H564.319V9H566.709V15.1H568.259ZM570.991 8.9C572.281 8.9 573.271 9.78 573.271 10.88C573.271 11.49 572.941 12.03 572.421 12.34C573.081 12.64 573.521 13.27 573.521 13.99C573.521 15.15 572.491 16.11 571.081 16.11C569.961 16.11 569.121 15.68 568.551 14.99L569.261 14.36C569.681 14.9 570.291 15.25 571.031 15.25C571.881 15.25 572.491 14.7 572.491 14.02C572.491 13.37 571.981 12.84 571.221 12.84H570.251V11.97H571.091C571.781 11.97 572.241 11.5 572.241 10.89C572.241 10.25 571.681 9.76 570.911 9.76C570.261 9.76 569.731 10.1 569.341 10.6L568.661 10.01C569.211 9.33 569.961 8.9 570.991 8.9ZM578.76 8.89C580.4 8.89 581.47 10.24 581.47 12.27V12.49C581.47 14.69 580.4 16.12 578.71 16.12C577.81 16.12 577.07 15.74 576.51 15.08L577.21 14.48C577.59 14.96 578.13 15.25 578.71 15.25C579.72 15.25 580.49 14.33 580.49 12.72V12.54C580.12 13.2 579.45 13.58 578.63 13.58C577.33 13.58 576.29 12.57 576.29 11.31C576.29 9.95 577.37 8.89 578.76 8.89ZM578.79 9.76C577.93 9.76 577.26 10.41 577.26 11.25C577.26 12.1 577.93 12.75 578.79 12.75C579.63 12.75 580.3 12.1 580.3 11.25C580.3 10.41 579.64 9.76 578.79 9.76ZM585.756 16V14.22H582.146V13.47L585.466 9H586.766V13.32H587.686V14.22H586.766V16H585.756ZM583.336 13.32H585.756V10.04L583.336 13.32ZM592.859 9.75L589.469 16H588.299L591.719 9.9H587.799V9H592.859V9.75ZM595.181 12.85H596.091C596.081 12.74 596.081 12.63 596.081 12.51C596.081 12.38 596.081 12.26 596.091 12.14H595.181V11.46H596.201C596.561 9.93 597.741 8.89 599.301 8.89C600.371 8.89 601.161 9.31 601.961 10.18L601.161 10.82C600.611 10.16 600.021 9.84 599.281 9.84C598.321 9.84 597.581 10.45 597.281 11.46H599.771L599.511 12.14H597.161C597.151 12.26 597.141 12.38 597.141 12.51C597.141 12.63 597.141 12.74 597.151 12.85H599.261L599.011 13.53H597.271C597.561 14.55 598.301 15.17 599.291 15.17C599.991 15.17 600.581 14.86 601.141 14.19L601.951 14.83C601.161 15.7 600.351 16.12 599.281 16.12C597.731 16.12 596.561 15.07 596.201 13.53H595.181V12.85Z" fill="white"/>
</svg>
