<svg width="612" height="25" viewBox="0 0 612 25" fill="none" xmlns="http://www.w3.org/2000/svg">
<rect width="612" height="25" rx="2" fill="#272727"/>
<path d="M14.84 10.97C14.85 11.8 14.49 12.4 13.7 13.2L11.82 15.11H14.91V16H10.31V15.37L12.98 12.61C13.56 12.02 13.82 11.64 13.82 11.05C13.82 10.32 13.22 9.78 12.43 9.78C11.81 9.78 11.28 10.08 10.85 10.65L10.16 10.05C10.73 9.31 11.55 8.9 12.52 8.9C13.86 8.9 14.84 9.78 14.84 10.97ZM15.7337 13.34V11.65C15.7337 9.97 16.7937 8.88 18.4137 8.88C20.0337 8.88 21.0937 9.97 21.0937 11.65V13.34C21.0937 15.02 20.0337 16.12 18.4137 16.12C16.7937 16.12 15.7337 15.02 15.7337 13.34ZM20.0837 13.31V11.68C20.0837 10.5 19.4437 9.77 18.4137 9.77C17.3837 9.77 16.7437 10.5 16.7437 11.68V13.31C16.7437 14.49 17.3837 15.23 18.4137 15.23C19.4437 15.23 20.0837 14.5 20.0837 13.31ZM25.7374 15.1V16H21.6374V15.1H23.1774V9.9H21.7974V9H24.1874V15.1H25.7374ZM30.4445 15.1V16H26.3445V15.1H27.8845V9.9H26.5045V9H28.8945V15.1H30.4445Z" fill="white"/>
<path d="M272.43 14.04C272.43 15.25 271.35 16.11 269.92 16.11C268.48 16.11 267.4 15.25 267.4 14.04C267.4 13.29 267.87 12.66 268.56 12.36C268.01 12.05 267.65 11.51 267.65 10.87C267.65 9.74 268.62 8.9 269.92 8.9C271.21 8.9 272.18 9.74 272.18 10.87C272.18 11.51 271.82 12.05 271.27 12.36C271.96 12.66 272.43 13.29 272.43 14.04ZM269.92 9.75C269.2 9.75 268.66 10.21 268.66 10.87C268.66 11.51 269.21 11.98 269.92 11.98C270.62 11.98 271.17 11.51 271.17 10.87C271.17 10.21 270.64 9.75 269.92 9.75ZM269.92 12.83C269.07 12.83 268.44 13.34 268.44 14.05C268.44 14.75 269.06 15.25 269.92 15.25C270.77 15.25 271.39 14.75 271.39 14.05C271.39 13.34 270.76 12.83 269.92 12.83ZM275.98 16.11C274.34 16.11 273.27 14.76 273.27 12.73V12.51C273.27 10.31 274.34 8.88 276.03 8.88C276.93 8.88 277.67 9.26 278.23 9.92L277.53 10.52C277.15 10.04 276.61 9.75 276.03 9.75C275.02 9.75 274.25 10.67 274.25 12.28V12.46C274.62 11.8 275.29 11.42 276.11 11.42C277.41 11.42 278.45 12.43 278.45 13.69C278.45 15.05 277.37 16.11 275.98 16.11ZM275.95 15.24C276.81 15.24 277.48 14.59 277.48 13.75C277.48 12.9 276.81 12.25 275.95 12.25C275.11 12.25 274.44 12.9 274.44 13.75C274.44 14.59 275.1 15.24 275.95 15.24ZM282.686 16V14.22H279.076V13.47L282.396 9H283.696V13.32H284.616V14.22H283.696V16H282.686ZM280.266 13.32H282.686V10.04L280.266 13.32ZM289.414 8.9C290.704 8.9 291.694 9.78 291.694 10.88C291.694 11.49 291.364 12.03 290.844 12.34C291.504 12.64 291.944 13.27 291.944 13.99C291.944 15.15 290.914 16.11 289.504 16.11C288.384 16.11 287.544 15.68 286.974 14.99L287.684 14.36C288.104 14.9 288.714 15.25 289.454 15.25C290.304 15.25 290.914 14.7 290.914 14.02C290.914 13.37 290.404 12.84 289.644 12.84H288.674V11.97H289.514C290.204 11.97 290.664 11.5 290.664 10.89C290.664 10.25 290.104 9.76 289.334 9.76C288.684 9.76 288.154 10.1 287.764 10.6L287.084 10.01C287.634 9.33 288.384 8.9 289.414 8.9ZM296.172 16V14.22H292.562V13.47L295.882 9H297.182V13.32H298.102V14.22H297.182V16H296.172ZM293.752 13.32H296.172V10.04L293.752 13.32ZM303.275 9.75L299.885 16H298.715L302.135 9.9H298.215V9H303.275V9.75ZM305.597 12.85H306.507C306.497 12.74 306.497 12.63 306.497 12.51C306.497 12.38 306.497 12.26 306.507 12.14H305.597V11.46H306.617C306.977 9.93 308.157 8.89 309.717 8.89C310.787 8.89 311.577 9.31 312.377 10.18L311.577 10.82C311.027 10.16 310.437 9.84 309.697 9.84C308.737 9.84 307.997 10.45 307.697 11.46H310.187L309.927 12.14H307.577C307.567 12.26 307.557 12.38 307.557 12.51C307.557 12.63 307.557 12.74 307.567 12.85H309.677L309.427 13.53H307.687C307.977 14.55 308.717 15.17 309.707 15.17C310.407 15.17 310.997 14.86 311.557 14.19L312.367 14.83C311.577 15.7 310.767 16.12 309.697 16.12C308.147 16.12 306.977 15.07 306.617 13.53H305.597V12.85Z" fill="white"/>
<path d="M559.43 14.04C559.43 15.25 558.35 16.11 556.92 16.11C555.48 16.11 554.4 15.25 554.4 14.04C554.4 13.29 554.87 12.66 555.56 12.36C555.01 12.05 554.65 11.51 554.65 10.87C554.65 9.74 555.62 8.9 556.92 8.9C558.21 8.9 559.18 9.74 559.18 10.87C559.18 11.51 558.82 12.05 558.27 12.36C558.96 12.66 559.43 13.29 559.43 14.04ZM556.92 9.75C556.2 9.75 555.66 10.21 555.66 10.87C555.66 11.51 556.21 11.98 556.92 11.98C557.62 11.98 558.17 11.51 558.17 10.87C558.17 10.21 557.64 9.75 556.92 9.75ZM556.92 12.83C556.07 12.83 555.44 13.34 555.44 14.05C555.44 14.75 556.06 15.25 556.92 15.25C557.77 15.25 558.39 14.75 558.39 14.05C558.39 13.34 557.76 12.83 556.92 12.83ZM562.495 8.89C564.135 8.89 565.205 10.24 565.205 12.27V12.49C565.205 14.69 564.135 16.12 562.445 16.12C561.545 16.12 560.805 15.74 560.245 15.08L560.945 14.48C561.325 14.96 561.865 15.25 562.445 15.25C563.455 15.25 564.225 14.33 564.225 12.72V12.54C563.855 13.2 563.185 13.58 562.365 13.58C561.065 13.58 560.025 12.57 560.025 11.31C560.025 9.95 561.105 8.89 562.495 8.89ZM562.525 9.76C561.665 9.76 560.995 10.41 560.995 11.25C560.995 12.1 561.665 12.75 562.525 12.75C563.365 12.75 564.035 12.1 564.035 11.25C564.035 10.41 563.375 9.76 562.525 9.76ZM566.111 13.34V11.65C566.111 9.97 567.171 8.88 568.791 8.88C570.411 8.88 571.471 9.97 571.471 11.65V13.34C571.471 15.02 570.411 16.12 568.791 16.12C567.171 16.12 566.111 15.02 566.111 13.34ZM570.461 13.31V11.68C570.461 10.5 569.821 9.77 568.791 9.77C567.761 9.77 567.121 10.5 567.121 11.68V13.31C567.121 14.49 567.761 15.23 568.791 15.23C569.821 15.23 570.461 14.5 570.461 13.31ZM576.812 11.53C578.142 11.53 579.152 12.49 579.152 13.73C579.152 15.08 578.062 16.11 576.632 16.11C575.622 16.11 574.782 15.73 574.172 14.98L574.892 14.35C575.342 14.94 575.942 15.25 576.612 15.25C577.472 15.25 578.122 14.61 578.122 13.79C578.122 12.99 577.482 12.4 576.622 12.4C576.072 12.4 575.682 12.56 575.312 12.89L574.492 12.77L574.652 9H578.682V9.9H575.542L575.462 11.9C575.862 11.65 576.292 11.53 576.812 11.53ZM582.098 8.9C583.388 8.9 584.378 9.78 584.378 10.88C584.378 11.49 584.048 12.03 583.528 12.34C584.188 12.64 584.628 13.27 584.628 13.99C584.628 15.15 583.598 16.11 582.188 16.11C581.068 16.11 580.228 15.68 579.658 14.99L580.368 14.36C580.788 14.9 581.398 15.25 582.138 15.25C582.988 15.25 583.598 14.7 583.598 14.02C583.598 13.37 583.088 12.84 582.328 12.84H581.358V11.97H582.198C582.888 11.97 583.348 11.5 583.348 10.89C583.348 10.25 582.788 9.76 582.018 9.76C581.368 9.76 580.838 10.1 580.448 10.6L579.768 10.01C580.318 9.33 581.068 8.9 582.098 8.9ZM588.156 16.11C586.516 16.11 585.446 14.76 585.446 12.73V12.51C585.446 10.31 586.516 8.88 588.206 8.88C589.106 8.88 589.846 9.26 590.406 9.92L589.706 10.52C589.326 10.04 588.786 9.75 588.206 9.75C587.196 9.75 586.426 10.67 586.426 12.28V12.46C586.796 11.8 587.466 11.42 588.286 11.42C589.586 11.42 590.626 12.43 590.626 13.69C590.626 15.05 589.546 16.11 588.156 16.11ZM588.126 15.24C588.986 15.24 589.656 14.59 589.656 13.75C589.656 12.9 588.986 12.25 588.126 12.25C587.286 12.25 586.616 12.9 586.616 13.75C586.616 14.59 587.276 15.24 588.126 15.24ZM593.164 12.85H594.074C594.064 12.74 594.064 12.63 594.064 12.51C594.064 12.38 594.064 12.26 594.074 12.14H593.164V11.46H594.184C594.544 9.93 595.724 8.89 597.284 8.89C598.354 8.89 599.144 9.31 599.944 10.18L599.144 10.82C598.594 10.16 598.004 9.84 597.264 9.84C596.304 9.84 595.564 10.45 595.264 11.46H597.754L597.494 12.14H595.144C595.134 12.26 595.124 12.38 595.124 12.51C595.124 12.63 595.124 12.74 595.134 12.85H597.244L596.994 13.53H595.254C595.544 14.55 596.284 15.17 597.274 15.17C597.974 15.17 598.564 14.86 599.124 14.19L599.934 14.83C599.144 15.7 598.334 16.12 597.264 16.12C595.714 16.12 594.544 15.07 594.184 13.53H593.164V12.85Z" fill="white"/>
</svg>
