<svg width="613" height="124" viewBox="0 0 613 124" fill="none" xmlns="http://www.w3.org/2000/svg">
<path d="M4.97 3L7.94 10H6.81L6.06 8.16H2.79L2.04 10H0.95L3.92 3H4.97ZM3.17 7.24H5.68L4.43 4.18L3.17 7.24ZM12.8545 6.74V10H11.8445V6.94C11.8445 6.2 11.3645 5.7 10.6445 5.7C9.91453 5.7 9.39453 6.21 9.39453 6.97V10H8.38453V4.9H9.39453V5.46C9.75453 5.04 10.2845 4.79 10.8945 4.79C12.0645 4.79 12.8545 5.65 12.8545 6.74ZM18.3038 6.74V10H17.2938V6.94C17.2938 6.2 16.8138 5.7 16.0938 5.7C15.3638 5.7 14.8438 6.21 14.8438 6.97V10H13.8338V4.9H14.8438V5.46C15.2038 5.04 15.7338 4.79 16.3438 4.79C17.5138 4.79 18.3038 5.65 18.3038 6.74ZM19.093 7.45C19.093 6.01 20.223 4.8 21.713 4.8C23.183 4.8 24.263 5.93 24.263 7.45V7.78H20.113C20.253 8.61 20.943 9.23 21.803 9.23C22.393 9.23 22.893 8.99 23.273 8.48L24.003 9.02C23.493 9.7 22.733 10.11 21.803 10.11C20.273 10.11 19.093 8.97 19.093 7.45ZM21.693 5.68C20.943 5.68 20.313 6.2 20.133 6.98H23.243C23.073 6.2 22.443 5.68 21.693 5.68ZM22.063 2.94H23.223L21.983 4.19H20.993L22.063 2.94ZM24.8645 7.45C24.8645 6.01 25.9945 4.8 27.4845 4.8C28.9545 4.8 30.0345 5.93 30.0345 7.45V7.78H25.8845C26.0245 8.61 26.7145 9.23 27.5745 9.23C28.1645 9.23 28.6645 8.99 29.0445 8.48L29.7745 9.02C29.2645 9.7 28.5045 10.11 27.5745 10.11C26.0445 10.11 24.8645 8.97 24.8645 7.45ZM27.4645 5.68C26.7145 5.68 26.0845 6.2 25.9045 6.98H29.0145C28.8445 6.2 28.2145 5.68 27.4645 5.68Z" fill="#B5B5B5"/>
<path d="M260.53 10V3H263.25C264.46 3 265.38 3.92 265.38 5.1C265.38 6.26 264.46 7.19 263.25 7.19H261.58V10H260.53ZM263.17 3.92H261.58V6.29H263.17C263.86 6.29 264.32 5.77 264.32 5.11C264.32 4.44 263.86 3.92 263.17 3.92ZM268.724 5.8H268.304C267.644 5.8 267.164 6.31 267.164 7.1V10H266.154V4.9H267.154V5.53C267.404 5.12 267.814 4.86 268.374 4.86H268.724V5.8ZM269.906 4.19C269.566 4.19 269.296 3.92 269.296 3.58C269.296 3.25 269.566 2.98 269.906 2.98C270.236 2.98 270.496 3.25 270.496 3.58C270.496 3.92 270.236 4.19 269.906 4.19ZM270.406 4.9V10H269.396V4.9H270.406ZM270.848 10L272.818 7.38L270.958 4.9H272.118L273.378 6.62L274.628 4.9H275.748L273.908 7.35L275.898 10H274.738L273.358 8.1L271.968 10H270.848ZM283.652 10H282.652V9.36C282.192 9.83 281.552 10.12 280.842 10.12C279.332 10.12 278.152 8.93 278.152 7.46C278.152 5.98 279.342 4.79 280.842 4.79C281.542 4.79 282.182 5.07 282.642 5.54V3H283.652V10ZM282.662 7.46C282.662 6.47 281.882 5.69 280.912 5.69C279.942 5.69 279.162 6.47 279.162 7.46C279.162 8.44 279.942 9.23 280.912 9.23C281.882 9.23 282.662 8.44 282.662 7.46ZM284.631 8.16V4.9H285.641V7.97C285.641 8.68 286.121 9.21 286.841 9.21C287.571 9.21 288.091 8.68 288.091 7.93V4.9H289.101V10H288.091V9.43C287.741 9.85 287.201 10.1 286.591 10.1C285.421 10.1 284.631 9.25 284.631 8.16ZM293.092 6.95V10H292.082V4.9H293.092V5.44C293.442 5.03 293.952 4.79 294.532 4.79C295.302 4.79 295.902 5.17 296.202 5.75C296.532 5.16 297.142 4.79 297.872 4.79C299.002 4.79 299.772 5.64 299.772 6.71V10H298.762V6.92C298.762 6.2 298.302 5.7 297.622 5.7C296.922 5.7 296.432 6.21 296.432 6.95V10H295.422V6.92C295.422 6.2 294.962 5.7 294.282 5.7C293.582 5.7 293.092 6.21 293.092 6.95ZM300.514 8.59C300.514 7.7 301.124 7.17 302.184 7.1L303.774 6.98V6.65C303.774 6.07 303.394 5.72 302.724 5.72C302.234 5.72 301.784 5.87 301.354 6.21L300.904 5.48C301.434 5.03 302.104 4.81 302.864 4.81C304.014 4.81 304.764 5.48 304.764 6.52V8.82C304.764 9.01 304.864 9.11 305.064 9.11H305.324V10H304.824C304.334 10 303.974 9.76 303.844 9.36C303.504 9.83 302.934 10.11 302.254 10.11C301.254 10.11 300.514 9.48 300.514 8.59ZM301.484 8.58C301.484 9.02 301.884 9.32 302.454 9.32C303.184 9.32 303.774 8.81 303.774 8.17V7.75L302.334 7.87C301.774 7.91 301.484 8.16 301.484 8.58ZM308.539 5.8H308.119C307.459 5.8 306.979 6.31 306.979 7.1V10H305.969V4.9H306.969V5.53C307.219 5.12 307.629 4.86 308.189 4.86H308.539V5.8ZM309.806 7.46C309.806 8.44 310.576 9.23 311.536 9.23C312.126 9.23 312.636 8.94 312.966 8.48L313.706 9.02C313.206 9.68 312.496 10.12 311.536 10.12C309.986 10.12 308.796 8.93 308.796 7.46C308.796 5.98 309.986 4.79 311.536 4.79C312.496 4.79 313.206 5.23 313.706 5.9L312.966 6.43C312.636 5.98 312.126 5.69 311.536 5.69C310.576 5.69 309.806 6.46 309.806 7.46ZM315.338 6.97V10H314.328V3H315.338V5.46C315.698 5.04 316.238 4.79 316.848 4.79C318.008 4.79 318.798 5.65 318.798 6.74V10H317.788V6.94C317.788 6.2 317.308 5.7 316.588 5.7C315.858 5.7 315.338 6.21 315.338 6.97ZM319.587 7.45C319.587 6.01 320.717 4.8 322.207 4.8C323.677 4.8 324.757 5.93 324.757 7.45V7.78H320.607C320.747 8.61 321.437 9.23 322.297 9.23C322.887 9.23 323.387 8.99 323.767 8.48L324.497 9.02C323.987 9.7 323.227 10.11 322.297 10.11C320.767 10.11 319.587 8.97 319.587 7.45ZM322.187 5.68C321.437 5.68 320.807 6.2 320.627 6.98H323.737C323.567 6.2 322.937 5.68 322.187 5.68ZM322.557 2.94H323.717L322.477 4.19H321.487L322.557 2.94Z" fill="#B5B5B5"/>
<path d="M555.53 10V3H558.25C559.46 3 560.38 3.92 560.38 5.1C560.38 6.26 559.46 7.19 558.25 7.19H556.58V10H555.53ZM558.17 3.92H556.58V6.29H558.17C558.86 6.29 559.32 5.77 559.32 5.11C559.32 4.44 558.86 3.92 558.17 3.92ZM563.724 5.8H563.304C562.644 5.8 562.164 6.31 562.164 7.1V10H561.154V4.9H562.154V5.53C562.404 5.12 562.814 4.86 563.374 4.86H563.724V5.8ZM564.906 4.19C564.566 4.19 564.296 3.92 564.296 3.58C564.296 3.25 564.566 2.98 564.906 2.98C565.236 2.98 565.496 3.25 565.496 3.58C565.496 3.92 565.236 4.19 564.906 4.19ZM565.406 4.9V10H564.396V4.9H565.406ZM565.848 10L567.818 7.38L565.958 4.9H567.118L568.378 6.62L569.628 4.9H570.748L568.908 7.35L570.898 10H569.738L568.358 8.1L566.968 10H565.848ZM578.652 10H577.652V9.36C577.192 9.83 576.552 10.12 575.842 10.12C574.332 10.12 573.152 8.93 573.152 7.46C573.152 5.98 574.342 4.79 575.842 4.79C576.542 4.79 577.182 5.07 577.642 5.54V3H578.652V10ZM577.662 7.46C577.662 6.47 576.882 5.69 575.912 5.69C574.942 5.69 574.162 6.47 574.162 7.46C574.162 8.44 574.942 9.23 575.912 9.23C576.882 9.23 577.662 8.44 577.662 7.46ZM579.441 7.45C579.441 6.01 580.571 4.8 582.061 4.8C583.531 4.8 584.611 5.93 584.611 7.45V7.78H580.461C580.601 8.61 581.291 9.23 582.151 9.23C582.741 9.23 583.241 8.99 583.621 8.48L584.351 9.02C583.841 9.7 583.081 10.11 582.151 10.11C580.621 10.11 579.441 8.97 579.441 7.45ZM582.041 5.68C581.291 5.68 580.661 6.2 580.481 6.98H583.591C583.421 6.2 582.791 5.68 582.041 5.68ZM589.044 10L586.864 4.9H587.954L589.474 8.64L590.994 4.9H592.054L589.894 10H589.044ZM592.029 7.45C592.029 6.01 593.159 4.8 594.649 4.8C596.119 4.8 597.199 5.93 597.199 7.45V7.78H593.049C593.189 8.61 593.879 9.23 594.739 9.23C595.329 9.23 595.829 8.99 596.209 8.48L596.939 9.02C596.429 9.7 595.669 10.11 594.739 10.11C593.209 10.11 592.029 8.97 592.029 7.45ZM594.629 5.68C593.879 5.68 593.249 6.2 593.069 6.98H596.179C596.009 6.2 595.379 5.68 594.629 5.68ZM602.46 6.74V10H601.45V6.94C601.45 6.2 600.97 5.7 600.25 5.7C599.52 5.7 599 6.21 599 6.97V10H597.99V4.9H599V5.46C599.36 5.04 599.89 4.79 600.5 4.79C601.67 4.79 602.46 5.65 602.46 6.74ZM605.152 10C604.372 10 603.942 9.54 603.942 8.9V5.79H602.972V4.9H603.942V3.4H604.952V4.9H606.122V5.79H604.952V8.68C604.952 8.96 605.142 9.11 605.452 9.11H606.122V10H605.152ZM606.472 7.45C606.472 6.01 607.602 4.8 609.092 4.8C610.562 4.8 611.642 5.93 611.642 7.45V7.78H607.492C607.632 8.61 608.322 9.23 609.182 9.23C609.772 9.23 610.272 8.99 610.652 8.48L611.382 9.02C610.872 9.7 610.112 10.11 609.182 10.11C607.652 10.11 606.472 8.97 606.472 7.45ZM609.072 5.68C608.322 5.68 607.692 6.2 607.512 6.98H610.622C610.452 6.2 609.822 5.68 609.072 5.68Z" fill="#B5B5B5"/>
<rect x="1" y="19" width="612" height="25" rx="2" fill="#272727"/>
<path d="M15.84 29.97C15.85 30.8 15.49 31.4 14.7 32.2L12.82 34.11H15.91V35H11.31V34.37L13.98 31.61C14.56 31.02 14.82 30.64 14.82 30.05C14.82 29.32 14.22 28.78 13.43 28.78C12.81 28.78 12.28 29.08 11.85 29.65L11.16 29.05C11.73 28.31 12.55 27.9 13.52 27.9C14.86 27.9 15.84 28.78 15.84 29.97ZM16.7337 32.34V30.65C16.7337 28.97 17.7937 27.88 19.4137 27.88C21.0337 27.88 22.0937 28.97 22.0937 30.65V32.34C22.0937 34.02 21.0337 35.12 19.4137 35.12C17.7937 35.12 16.7337 34.02 16.7337 32.34ZM21.0837 32.31V30.68C21.0837 29.5 20.4437 28.77 19.4137 28.77C18.3837 28.77 17.7437 29.5 17.7437 30.68V32.31C17.7437 33.49 18.3837 34.23 19.4137 34.23C20.4437 34.23 21.0837 33.5 21.0837 32.31ZM27.1974 29.97C27.2074 30.8 26.8474 31.4 26.0574 32.2L24.1774 34.11H27.2674V35H22.6674V34.37L25.3374 31.61C25.9174 31.02 26.1774 30.64 26.1774 30.05C26.1774 29.32 25.5774 28.78 24.7874 28.78C24.1674 28.78 23.6374 29.08 23.2074 29.65L22.5174 29.05C23.0874 28.31 23.9074 27.9 24.8774 27.9C26.2174 27.9 27.1974 28.78 27.1974 29.97ZM32.3927 29.97C32.4027 30.8 32.0427 31.4 31.2527 32.2L29.3727 34.11H32.4627V35H27.8627V34.37L30.5327 31.61C31.1127 31.02 31.3727 30.64 31.3727 30.05C31.3727 29.32 30.7727 28.78 29.9827 28.78C29.3627 28.78 28.8327 29.08 28.4027 29.65L27.7127 29.05C28.2827 28.31 29.1027 27.9 30.0727 27.9C31.4127 27.9 32.3927 28.78 32.3927 29.97Z" fill="white"/>
<path d="M268.38 34.1V35H264.28V34.1H265.82V28.9H264.44V28H266.83V34.1H268.38ZM271.111 32.34V30.65C271.111 28.97 272.171 27.88 273.791 27.88C275.411 27.88 276.471 28.97 276.471 30.65V32.34C276.471 34.02 275.411 35.12 273.791 35.12C272.171 35.12 271.111 34.02 271.111 32.34ZM275.461 32.31V30.68C275.461 29.5 274.821 28.77 273.791 28.77C272.761 28.77 272.121 29.5 272.121 30.68V32.31C272.121 33.49 272.761 34.23 273.791 34.23C274.821 34.23 275.461 33.5 275.461 32.31ZM277.4 32.34V30.65C277.4 28.97 278.46 27.88 280.08 27.88C281.7 27.88 282.76 28.97 282.76 30.65V32.34C282.76 34.02 281.7 35.12 280.08 35.12C278.46 35.12 277.4 34.02 277.4 32.34ZM281.75 32.31V30.68C281.75 29.5 281.11 28.77 280.08 28.77C279.05 28.77 278.41 29.5 278.41 30.68V32.31C278.41 33.49 279.05 34.23 280.08 34.23C281.11 34.23 281.75 33.5 281.75 32.31ZM285.75 27.9C287.04 27.9 288.03 28.78 288.03 29.88C288.03 30.49 287.7 31.03 287.18 31.34C287.84 31.64 288.28 32.27 288.28 32.99C288.28 34.15 287.25 35.11 285.84 35.11C284.72 35.11 283.88 34.68 283.31 33.99L284.02 33.36C284.44 33.9 285.05 34.25 285.79 34.25C286.64 34.25 287.25 33.7 287.25 33.02C287.25 32.37 286.74 31.84 285.98 31.84H285.01V30.97H285.85C286.54 30.97 287 30.5 287 29.89C287 29.25 286.44 28.76 285.67 28.76C285.02 28.76 284.49 29.1 284.1 29.6L283.42 29.01C283.97 28.33 284.72 27.9 285.75 27.9ZM296.09 33.04C296.09 34.25 295.01 35.11 293.58 35.11C292.14 35.11 291.06 34.25 291.06 33.04C291.06 32.29 291.53 31.66 292.22 31.36C291.67 31.05 291.31 30.51 291.31 29.87C291.31 28.74 292.28 27.9 293.58 27.9C294.87 27.9 295.84 28.74 295.84 29.87C295.84 30.51 295.48 31.05 294.93 31.36C295.62 31.66 296.09 32.29 296.09 33.04ZM293.58 28.75C292.86 28.75 292.32 29.21 292.32 29.87C292.32 30.51 292.87 30.98 293.58 30.98C294.28 30.98 294.83 30.51 294.83 29.87C294.83 29.21 294.3 28.75 293.58 28.75ZM293.58 31.83C292.73 31.83 292.1 32.34 292.1 33.05C292.1 33.75 292.72 34.25 293.58 34.25C294.43 34.25 295.05 33.75 295.05 33.05C295.05 32.34 294.42 31.83 293.58 31.83ZM300.34 35V33.22H296.73V32.47L300.05 28H301.35V32.32H302.27V33.22H301.35V35H300.34ZM297.92 32.32H300.34V29.04L297.92 32.32ZM307.443 28.75L304.053 35H302.883L306.303 28.9H302.383V28H307.443V28.75ZM309.765 31.85H310.675C310.665 31.74 310.665 31.63 310.665 31.51C310.665 31.38 310.665 31.26 310.675 31.14H309.765V30.46H310.785C311.145 28.93 312.325 27.89 313.885 27.89C314.955 27.89 315.745 28.31 316.545 29.18L315.745 29.82C315.195 29.16 314.605 28.84 313.865 28.84C312.905 28.84 312.165 29.45 311.865 30.46H314.355L314.095 31.14H311.745C311.735 31.26 311.725 31.38 311.725 31.51C311.725 31.63 311.725 31.74 311.735 31.85H313.845L313.595 32.53H311.855C312.145 33.55 312.885 34.17 313.875 34.17C314.575 34.17 315.165 33.86 315.725 33.19L316.535 33.83C315.745 34.7 314.935 35.12 313.865 35.12C312.315 35.12 311.145 34.07 310.785 32.53H309.765V31.85Z" fill="white"/>
<path d="M561.86 27.89C563.5 27.89 564.57 29.24 564.57 31.27V31.49C564.57 33.69 563.5 35.12 561.81 35.12C560.91 35.12 560.17 34.74 559.61 34.08L560.31 33.48C560.69 33.96 561.23 34.25 561.81 34.25C562.82 34.25 563.59 33.33 563.59 31.72V31.54C563.22 32.2 562.55 32.58 561.73 32.58C560.43 32.58 559.39 31.57 559.39 30.31C559.39 28.95 560.47 27.89 561.86 27.89ZM561.89 28.76C561.03 28.76 560.36 29.41 560.36 30.25C560.36 31.1 561.03 31.75 561.89 31.75C562.73 31.75 563.4 31.1 563.4 30.25C563.4 29.41 562.74 28.76 561.89 28.76ZM568.856 35V33.22H565.246V32.47L568.566 28H569.866V32.32H570.786V33.22H569.866V35H568.856ZM566.436 32.32H568.856V29.04L566.436 32.32ZM575.959 28.75L572.569 35H571.399L574.819 28.9H570.899V28H575.959V28.75ZM583.371 28.75L579.981 35H578.811L582.231 28.9H578.311V28H583.371V28.75ZM586.59 35V33.22H582.98V32.47L586.3 28H587.6V32.32H588.52V33.22H587.6V35H586.59ZM584.17 32.32H586.59V29.04L584.17 32.32ZM593.693 28.75L590.303 35H589.133L592.553 28.9H588.633V28H593.693V28.75ZM596.015 31.85H596.925C596.915 31.74 596.915 31.63 596.915 31.51C596.915 31.38 596.915 31.26 596.925 31.14H596.015V30.46H597.035C597.395 28.93 598.575 27.89 600.135 27.89C601.205 27.89 601.995 28.31 602.795 29.18L601.995 29.82C601.445 29.16 600.855 28.84 600.115 28.84C599.155 28.84 598.415 29.45 598.115 30.46H600.605L600.345 31.14H597.995C597.985 31.26 597.975 31.38 597.975 31.51C597.975 31.63 597.975 31.74 597.985 31.85H600.095L599.845 32.53H598.105C598.395 33.55 599.135 34.17 600.125 34.17C600.825 34.17 601.415 33.86 601.975 33.19L602.785 33.83C601.995 34.7 601.185 35.12 600.115 35.12C598.565 35.12 597.395 34.07 597.035 32.53H596.015V31.85Z" fill="white"/>
<rect x="1" y="59" width="612" height="25" rx="2" fill="#272727"/>
<path d="M15.84 69.97C15.85 70.8 15.49 71.4 14.7 72.2L12.82 74.11H15.91V75H11.31V74.37L13.98 71.61C14.56 71.02 14.82 70.64 14.82 70.05C14.82 69.32 14.22 68.78 13.43 68.78C12.81 68.78 12.28 69.08 11.85 69.65L11.16 69.05C11.73 68.31 12.55 67.9 13.52 67.9C14.86 67.9 15.84 68.78 15.84 69.97ZM16.7337 72.34V70.65C16.7337 68.97 17.7937 67.88 19.4137 67.88C21.0337 67.88 22.0937 68.97 22.0937 70.65V72.34C22.0937 74.02 21.0337 75.12 19.4137 75.12C17.7937 75.12 16.7337 74.02 16.7337 72.34ZM21.0837 72.31V70.68C21.0837 69.5 20.4437 68.77 19.4137 68.77C18.3837 68.77 17.7437 69.5 17.7437 70.68V72.31C17.7437 73.49 18.3837 74.23 19.4137 74.23C20.4437 74.23 21.0837 73.5 21.0837 72.31ZM26.7374 74.1V75H22.6374V74.1H24.1774V68.9H22.7974V68H25.1874V74.1H26.7374ZM31.4445 74.1V75H27.3445V74.1H28.8845V68.9H27.5045V68H29.8945V74.1H31.4445Z" fill="white"/>
<path d="M273.43 73.04C273.43 74.25 272.35 75.11 270.92 75.11C269.48 75.11 268.4 74.25 268.4 73.04C268.4 72.29 268.87 71.66 269.56 71.36C269.01 71.05 268.65 70.51 268.65 69.87C268.65 68.74 269.62 67.9 270.92 67.9C272.21 67.9 273.18 68.74 273.18 69.87C273.18 70.51 272.82 71.05 272.27 71.36C272.96 71.66 273.43 72.29 273.43 73.04ZM270.92 68.75C270.2 68.75 269.66 69.21 269.66 69.87C269.66 70.51 270.21 70.98 270.92 70.98C271.62 70.98 272.17 70.51 272.17 69.87C272.17 69.21 271.64 68.75 270.92 68.75ZM270.92 71.83C270.07 71.83 269.44 72.34 269.44 73.05C269.44 73.75 270.06 74.25 270.92 74.25C271.77 74.25 272.39 73.75 272.39 73.05C272.39 72.34 271.76 71.83 270.92 71.83ZM276.98 75.11C275.34 75.11 274.27 73.76 274.27 71.73V71.51C274.27 69.31 275.34 67.88 277.03 67.88C277.93 67.88 278.67 68.26 279.23 68.92L278.53 69.52C278.15 69.04 277.61 68.75 277.03 68.75C276.02 68.75 275.25 69.67 275.25 71.28V71.46C275.62 70.8 276.29 70.42 277.11 70.42C278.41 70.42 279.45 71.43 279.45 72.69C279.45 74.05 278.37 75.11 276.98 75.11ZM276.95 74.24C277.81 74.24 278.48 73.59 278.48 72.75C278.48 71.9 277.81 71.25 276.95 71.25C276.11 71.25 275.44 71.9 275.44 72.75C275.44 73.59 276.1 74.24 276.95 74.24ZM283.686 75V73.22H280.076V72.47L283.396 68H284.696V72.32H285.616V73.22H284.696V75H283.686ZM281.266 72.32H283.686V69.04L281.266 72.32ZM290.414 67.9C291.704 67.9 292.694 68.78 292.694 69.88C292.694 70.49 292.364 71.03 291.844 71.34C292.504 71.64 292.944 72.27 292.944 72.99C292.944 74.15 291.914 75.11 290.504 75.11C289.384 75.11 288.544 74.68 287.974 73.99L288.684 73.36C289.104 73.9 289.714 74.25 290.454 74.25C291.304 74.25 291.914 73.7 291.914 73.02C291.914 72.37 291.404 71.84 290.644 71.84H289.674V70.97H290.514C291.204 70.97 291.664 70.5 291.664 69.89C291.664 69.25 291.104 68.76 290.334 68.76C289.684 68.76 289.154 69.1 288.764 69.6L288.084 69.01C288.634 68.33 289.384 67.9 290.414 67.9ZM297.172 75V73.22H293.562V72.47L296.882 68H298.182V72.32H299.102V73.22H298.182V75H297.172ZM294.752 72.32H297.172V69.04L294.752 72.32ZM304.275 68.75L300.885 75H299.715L303.135 68.9H299.215V68H304.275V68.75ZM306.597 71.85H307.507C307.497 71.74 307.497 71.63 307.497 71.51C307.497 71.38 307.497 71.26 307.507 71.14H306.597V70.46H307.617C307.977 68.93 309.157 67.89 310.717 67.89C311.787 67.89 312.577 68.31 313.377 69.18L312.577 69.82C312.027 69.16 311.437 68.84 310.697 68.84C309.737 68.84 308.997 69.45 308.697 70.46H311.187L310.927 71.14H308.577C308.567 71.26 308.557 71.38 308.557 71.51C308.557 71.63 308.557 71.74 308.567 71.85H310.677L310.427 72.53H308.687C308.977 73.55 309.717 74.17 310.707 74.17C311.407 74.17 311.997 73.86 312.557 73.19L313.367 73.83C312.577 74.7 311.767 75.12 310.697 75.12C309.147 75.12 307.977 74.07 307.617 72.53H306.597V71.85Z" fill="white"/>
<path d="M560.43 73.04C560.43 74.25 559.35 75.11 557.92 75.11C556.48 75.11 555.4 74.25 555.4 73.04C555.4 72.29 555.87 71.66 556.56 71.36C556.01 71.05 555.65 70.51 555.65 69.87C555.65 68.74 556.62 67.9 557.92 67.9C559.21 67.9 560.18 68.74 560.18 69.87C560.18 70.51 559.82 71.05 559.27 71.36C559.96 71.66 560.43 72.29 560.43 73.04ZM557.92 68.75C557.2 68.75 556.66 69.21 556.66 69.87C556.66 70.51 557.21 70.98 557.92 70.98C558.62 70.98 559.17 70.51 559.17 69.87C559.17 69.21 558.64 68.75 557.92 68.75ZM557.92 71.83C557.07 71.83 556.44 72.34 556.44 73.05C556.44 73.75 557.06 74.25 557.92 74.25C558.77 74.25 559.39 73.75 559.39 73.05C559.39 72.34 558.76 71.83 557.92 71.83ZM563.495 67.89C565.135 67.89 566.205 69.24 566.205 71.27V71.49C566.205 73.69 565.135 75.12 563.445 75.12C562.545 75.12 561.805 74.74 561.245 74.08L561.945 73.48C562.325 73.96 562.865 74.25 563.445 74.25C564.455 74.25 565.225 73.33 565.225 71.72V71.54C564.855 72.2 564.185 72.58 563.365 72.58C562.065 72.58 561.025 71.57 561.025 70.31C561.025 68.95 562.105 67.89 563.495 67.89ZM563.525 68.76C562.665 68.76 561.995 69.41 561.995 70.25C561.995 71.1 562.665 71.75 563.525 71.75C564.365 71.75 565.035 71.1 565.035 70.25C565.035 69.41 564.375 68.76 563.525 68.76ZM567.111 72.34V70.65C567.111 68.97 568.171 67.88 569.791 67.88C571.411 67.88 572.471 68.97 572.471 70.65V72.34C572.471 74.02 571.411 75.12 569.791 75.12C568.171 75.12 567.111 74.02 567.111 72.34ZM571.461 72.31V70.68C571.461 69.5 570.821 68.77 569.791 68.77C568.761 68.77 568.121 69.5 568.121 70.68V72.31C568.121 73.49 568.761 74.23 569.791 74.23C570.821 74.23 571.461 73.5 571.461 72.31ZM577.812 70.53C579.142 70.53 580.152 71.49 580.152 72.73C580.152 74.08 579.062 75.11 577.632 75.11C576.622 75.11 575.782 74.73 575.172 73.98L575.892 73.35C576.342 73.94 576.942 74.25 577.612 74.25C578.472 74.25 579.122 73.61 579.122 72.79C579.122 71.99 578.482 71.4 577.622 71.4C577.072 71.4 576.682 71.56 576.312 71.89L575.492 71.77L575.652 68H579.682V68.9H576.542L576.462 70.9C576.862 70.65 577.292 70.53 577.812 70.53ZM583.098 67.9C584.388 67.9 585.378 68.78 585.378 69.88C585.378 70.49 585.048 71.03 584.528 71.34C585.188 71.64 585.628 72.27 585.628 72.99C585.628 74.15 584.598 75.11 583.188 75.11C582.068 75.11 581.228 74.68 580.658 73.99L581.368 73.36C581.788 73.9 582.398 74.25 583.138 74.25C583.988 74.25 584.598 73.7 584.598 73.02C584.598 72.37 584.088 71.84 583.328 71.84H582.358V70.97H583.198C583.888 70.97 584.348 70.5 584.348 69.89C584.348 69.25 583.788 68.76 583.018 68.76C582.368 68.76 581.838 69.1 581.448 69.6L580.768 69.01C581.318 68.33 582.068 67.9 583.098 67.9ZM589.156 75.11C587.516 75.11 586.446 73.76 586.446 71.73V71.51C586.446 69.31 587.516 67.88 589.206 67.88C590.106 67.88 590.846 68.26 591.406 68.92L590.706 69.52C590.326 69.04 589.786 68.75 589.206 68.75C588.196 68.75 587.426 69.67 587.426 71.28V71.46C587.796 70.8 588.466 70.42 589.286 70.42C590.586 70.42 591.626 71.43 591.626 72.69C591.626 74.05 590.546 75.11 589.156 75.11ZM589.126 74.24C589.986 74.24 590.656 73.59 590.656 72.75C590.656 71.9 589.986 71.25 589.126 71.25C588.286 71.25 587.616 71.9 587.616 72.75C587.616 73.59 588.276 74.24 589.126 74.24ZM594.164 71.85H595.074C595.064 71.74 595.064 71.63 595.064 71.51C595.064 71.38 595.064 71.26 595.074 71.14H594.164V70.46H595.184C595.544 68.93 596.724 67.89 598.284 67.89C599.354 67.89 600.144 68.31 600.944 69.18L600.144 69.82C599.594 69.16 599.004 68.84 598.264 68.84C597.304 68.84 596.564 69.45 596.264 70.46H598.754L598.494 71.14H596.144C596.134 71.26 596.124 71.38 596.124 71.51C596.124 71.63 596.124 71.74 596.134 71.85H598.244L597.994 72.53H596.254C596.544 73.55 597.284 74.17 598.274 74.17C598.974 74.17 599.564 73.86 600.124 73.19L600.934 73.83C600.144 74.7 599.334 75.12 598.264 75.12C596.714 75.12 595.544 74.07 595.184 72.53H594.164V71.85Z" fill="white"/>
<rect x="1" y="99" width="612" height="25" rx="2" fill="#272727"/>
<path d="M15.38 114.1V115H11.28V114.1H12.82V108.9H11.44V108H13.83V114.1H15.38ZM18.1959 107.89C19.8359 107.89 20.9059 109.24 20.9059 111.27V111.49C20.9059 113.69 19.8359 115.12 18.1459 115.12C17.2459 115.12 16.5059 114.74 15.9459 114.08L16.6459 113.48C17.0259 113.96 17.5659 114.25 18.1459 114.25C19.1559 114.25 19.9259 113.33 19.9259 111.72V111.54C19.5559 112.2 18.8859 112.58 18.0659 112.58C16.7659 112.58 15.7259 111.57 15.7259 110.31C15.7259 108.95 16.8059 107.89 18.1959 107.89ZM18.2259 108.76C17.3659 108.76 16.6959 109.41 16.6959 110.25C16.6959 111.1 17.3659 111.75 18.2259 111.75C19.0659 111.75 19.7359 111.1 19.7359 110.25C19.7359 109.41 19.0759 108.76 18.2259 108.76ZM24.2018 107.89C25.8418 107.89 26.9118 109.24 26.9118 111.27V111.49C26.9118 113.69 25.8418 115.12 24.1518 115.12C23.2518 115.12 22.5118 114.74 21.9518 114.08L22.6518 113.48C23.0318 113.96 23.5718 114.25 24.1518 114.25C25.1618 114.25 25.9318 113.33 25.9318 111.72V111.54C25.5618 112.2 24.8918 112.58 24.0718 112.58C22.7718 112.58 21.7318 111.57 21.7318 110.31C21.7318 108.95 22.8118 107.89 24.2018 107.89ZM24.2318 108.76C23.3718 108.76 22.7018 109.41 22.7018 110.25C22.7018 111.1 23.3718 111.75 24.2318 111.75C25.0718 111.75 25.7418 111.1 25.7418 110.25C25.7418 109.41 25.0818 108.76 24.2318 108.76ZM32.7777 113.04C32.7777 114.25 31.6977 115.11 30.2677 115.11C28.8277 115.11 27.7477 114.25 27.7477 113.04C27.7477 112.29 28.2177 111.66 28.9077 111.36C28.3577 111.05 27.9977 110.51 27.9977 109.87C27.9977 108.74 28.9677 107.9 30.2677 107.9C31.5577 107.9 32.5277 108.74 32.5277 109.87C32.5277 110.51 32.1677 111.05 31.6177 111.36C32.3077 111.66 32.7777 112.29 32.7777 113.04ZM30.2677 108.75C29.5477 108.75 29.0077 109.21 29.0077 109.87C29.0077 110.51 29.5577 110.98 30.2677 110.98C30.9677 110.98 31.5177 110.51 31.5177 109.87C31.5177 109.21 30.9877 108.75 30.2677 108.75ZM30.2677 111.83C29.4177 111.83 28.7877 112.34 28.7877 113.05C28.7877 113.75 29.4077 114.25 30.2677 114.25C31.1177 114.25 31.7377 113.75 31.7377 113.05C31.7377 112.34 31.1077 111.83 30.2677 111.83Z" fill="white"/>
<path d="M273.15 115.11C271.51 115.11 270.44 113.76 270.44 111.73V111.51C270.44 109.31 271.51 107.88 273.2 107.88C274.1 107.88 274.84 108.26 275.4 108.92L274.7 109.52C274.32 109.04 273.78 108.75 273.2 108.75C272.19 108.75 271.42 109.67 271.42 111.28V111.46C271.79 110.8 272.46 110.42 273.28 110.42C274.58 110.42 275.62 111.43 275.62 112.69C275.62 114.05 274.54 115.11 273.15 115.11ZM273.12 114.24C273.98 114.24 274.65 113.59 274.65 112.75C274.65 111.9 273.98 111.25 273.12 111.25C272.28 111.25 271.61 111.9 271.61 112.75C271.61 113.59 272.27 114.24 273.12 114.24ZM280.259 114.1V115H276.159V114.1H277.699V108.9H276.319V108H278.709V114.1H280.259ZM282.991 107.9C284.281 107.9 285.271 108.78 285.271 109.88C285.271 110.49 284.941 111.03 284.421 111.34C285.081 111.64 285.521 112.27 285.521 112.99C285.521 114.15 284.491 115.11 283.081 115.11C281.961 115.11 281.121 114.68 280.551 113.99L281.261 113.36C281.681 113.9 282.291 114.25 283.031 114.25C283.881 114.25 284.491 113.7 284.491 113.02C284.491 112.37 283.981 111.84 283.221 111.84H282.251V110.97H283.091C283.781 110.97 284.241 110.5 284.241 109.89C284.241 109.25 283.681 108.76 282.911 108.76C282.261 108.76 281.731 109.1 281.341 109.6L280.661 109.01C281.211 108.33 281.961 107.9 282.991 107.9ZM290.76 107.89C292.4 107.89 293.47 109.24 293.47 111.27V111.49C293.47 113.69 292.4 115.12 290.71 115.12C289.81 115.12 289.07 114.74 288.51 114.08L289.21 113.48C289.59 113.96 290.13 114.25 290.71 114.25C291.72 114.25 292.49 113.33 292.49 111.72V111.54C292.12 112.2 291.45 112.58 290.63 112.58C289.33 112.58 288.29 111.57 288.29 110.31C288.29 108.95 289.37 107.89 290.76 107.89ZM290.79 108.76C289.93 108.76 289.26 109.41 289.26 110.25C289.26 111.1 289.93 111.75 290.79 111.75C291.63 111.75 292.3 111.1 292.3 110.25C292.3 109.41 291.64 108.76 290.79 108.76ZM297.756 115V113.22H294.146V112.47L297.466 108H298.766V112.32H299.686V113.22H298.766V115H297.756ZM295.336 112.32H297.756V109.04L295.336 112.32ZM304.859 108.75L301.469 115H300.299L303.719 108.9H299.799V108H304.859V108.75ZM307.181 111.85H308.091C308.081 111.74 308.081 111.63 308.081 111.51C308.081 111.38 308.081 111.26 308.091 111.14H307.181V110.46H308.201C308.561 108.93 309.741 107.89 311.301 107.89C312.371 107.89 313.161 108.31 313.961 109.18L313.161 109.82C312.611 109.16 312.021 108.84 311.281 108.84C310.321 108.84 309.581 109.45 309.281 110.46H311.771L311.511 111.14H309.161C309.151 111.26 309.141 111.38 309.141 111.51C309.141 111.63 309.141 111.74 309.151 111.85H311.261L311.011 112.53H309.271C309.561 113.55 310.301 114.17 311.291 114.17C311.991 114.17 312.581 113.86 313.141 113.19L313.951 113.83C313.161 114.7 312.351 115.12 311.281 115.12C309.731 115.12 308.561 114.07 308.201 112.53H307.181V111.85Z" fill="white"/>
<path d="M562.15 115.11C560.51 115.11 559.44 113.76 559.44 111.73V111.51C559.44 109.31 560.51 107.88 562.2 107.88C563.1 107.88 563.84 108.26 564.4 108.92L563.7 109.52C563.32 109.04 562.78 108.75 562.2 108.75C561.19 108.75 560.42 109.67 560.42 111.28V111.46C560.79 110.8 561.46 110.42 562.28 110.42C563.58 110.42 564.62 111.43 564.62 112.69C564.62 114.05 563.54 115.11 562.15 115.11ZM562.12 114.24C562.98 114.24 563.65 113.59 563.65 112.75C563.65 111.9 562.98 111.25 562.12 111.25C561.28 111.25 560.61 111.9 560.61 112.75C560.61 113.59 561.27 114.24 562.12 114.24ZM569.259 114.1V115H565.159V114.1H566.699V108.9H565.319V108H567.709V114.1H569.259ZM571.991 107.9C573.281 107.9 574.271 108.78 574.271 109.88C574.271 110.49 573.941 111.03 573.421 111.34C574.081 111.64 574.521 112.27 574.521 112.99C574.521 114.15 573.491 115.11 572.081 115.11C570.961 115.11 570.121 114.68 569.551 113.99L570.261 113.36C570.681 113.9 571.291 114.25 572.031 114.25C572.881 114.25 573.491 113.7 573.491 113.02C573.491 112.37 572.981 111.84 572.221 111.84H571.251V110.97H572.091C572.781 110.97 573.241 110.5 573.241 109.89C573.241 109.25 572.681 108.76 571.911 108.76C571.261 108.76 570.731 109.1 570.341 109.6L569.661 109.01C570.211 108.33 570.961 107.9 571.991 107.9ZM579.76 107.89C581.4 107.89 582.47 109.24 582.47 111.27V111.49C582.47 113.69 581.4 115.12 579.71 115.12C578.81 115.12 578.07 114.74 577.51 114.08L578.21 113.48C578.59 113.96 579.13 114.25 579.71 114.25C580.72 114.25 581.49 113.33 581.49 111.72V111.54C581.12 112.2 580.45 112.58 579.63 112.58C578.33 112.58 577.29 111.57 577.29 110.31C577.29 108.95 578.37 107.89 579.76 107.89ZM579.79 108.76C578.93 108.76 578.26 109.41 578.26 110.25C578.26 111.1 578.93 111.75 579.79 111.75C580.63 111.75 581.3 111.1 581.3 110.25C581.3 109.41 580.64 108.76 579.79 108.76ZM586.756 115V113.22H583.146V112.47L586.466 108H587.766V112.32H588.686V113.22H587.766V115H586.756ZM584.336 112.32H586.756V109.04L584.336 112.32ZM593.859 108.75L590.469 115H589.299L592.719 108.9H588.799V108H593.859V108.75ZM596.181 111.85H597.091C597.081 111.74 597.081 111.63 597.081 111.51C597.081 111.38 597.081 111.26 597.091 111.14H596.181V110.46H597.201C597.561 108.93 598.741 107.89 600.301 107.89C601.371 107.89 602.161 108.31 602.961 109.18L602.161 109.82C601.611 109.16 601.021 108.84 600.281 108.84C599.321 108.84 598.581 109.45 598.281 110.46H600.771L600.511 111.14H598.161C598.151 111.26 598.141 111.38 598.141 111.51C598.141 111.63 598.141 111.74 598.151 111.85H600.261L600.011 112.53H598.271C598.561 113.55 599.301 114.17 600.291 114.17C600.991 114.17 601.581 113.86 602.141 113.19L602.951 113.83C602.161 114.7 601.351 115.12 600.281 115.12C598.731 115.12 597.561 114.07 597.201 112.53H596.181V111.85Z" fill="white"/>
</svg>
