<svg width="156" height="41" viewBox="0 0 156 41" fill="none" xmlns="http://www.w3.org/2000/svg">
<g clip-path="url(#clip0_284_491)">
<path d="M16.2373 3.80877L3.80874 16.2373C1.70523 18.3408 1.70523 21.7513 3.80874 23.8548L16.2373 36.2833C18.3408 38.3868 21.7512 38.3868 23.8547 36.2833L36.2833 23.8548C38.3868 21.7513 38.3868 18.3408 36.2833 16.2373L23.8547 3.80877C21.7512 1.70526 18.3408 1.70526 16.2373 3.80877Z" fill="white"/>
<path d="M20.0272 10.5602L10.5601 20.0273L20.0272 29.4945L29.4944 20.0273L20.0272 10.5602Z" fill="black"/>
<path d="M20.0275 10.5602L18.7852 11.8025L33.5684 26.5858L34.8107 25.3435L20.0275 10.5602Z" fill="black"/>
</g>
<g clip-path="url(#clip1_284_491)">
<path d="M48.5151 6.07019H58.2013C59.9099 6.07019 61.4502 6.37264 62.8224 6.97754C64.1946 7.56899 65.2843 8.47634 66.0915 9.69958C66.9122 10.9094 67.3224 12.4283 67.3224 14.2565C67.3224 16.0712 66.9122 17.6171 66.0915 18.894C65.2843 20.1576 64.1946 21.1255 62.8224 21.7975C61.4502 22.4562 59.9099 22.7855 58.2013 22.7855H54.5488V32.6857H48.5151V6.07019ZM54.5488 18.027H56.5264C57.347 18.027 58.0802 17.906 58.726 17.6641C59.3852 17.4221 59.9099 17.039 60.3 16.5148C60.6901 15.9771 60.8852 15.2714 60.8852 14.3976C60.8852 13.5104 60.6901 12.8114 60.3 12.3006C59.9099 11.7764 59.3852 11.4 58.726 11.1715C58.0802 10.943 57.347 10.8287 56.5264 10.8287H54.5488V18.027ZM68.6436 6.07019H79.5001C81.0473 6.07019 82.4262 6.3928 83.6369 7.03803C84.8477 7.68325 85.8028 8.61748 86.5024 9.84072C87.2154 11.0505 87.572 12.4956 87.572 14.1758C87.572 15.8561 87.2693 17.234 86.6639 18.3093C86.072 19.3713 85.3589 20.171 84.5248 20.7087C83.6908 21.233 82.9172 21.5489 82.2042 21.6564L88.6818 32.6857H81.9015L76.1302 22.1201H74.6772V32.6857H68.6436V6.07019ZM74.6772 17.9464H77.3409C78.4171 17.9464 79.3589 17.6842 80.1661 17.16C80.9733 16.6357 81.3768 15.7082 81.3768 14.3775C81.3768 13.0467 80.9799 12.1259 80.1863 11.6151C79.3926 11.0908 78.4575 10.8287 77.3813 10.8287H74.6772V17.9464ZM90.853 6.07019H96.8867V32.6857H90.853V6.07019ZM127.903 6.07019V32.6857H121.889V17.0188L122.152 12.5628L121.123 17.6641L116.643 30.5484H110.73L106.271 17.6641L105.262 12.5628L105.524 17.0188V32.6857H99.4902V6.07019H107.966L113.333 23.834L113.697 25.9512L114.06 23.834L119.428 6.07019H127.903Z" fill="white"/>
<path d="M54.5488 17.8225H55.9326V22.8921H54.5488V17.8225Z" fill="black"/>
<path d="M68.5938 17.9493V16.5667H74.7053V17.9493H68.5938Z" fill="black"/>
<path d="M142.869 11.4268L135.425 18.7806L142.869 26.1344L150.314 18.7806L142.869 11.4268Z" fill="black"/>
<path d="M139.506 7.02842L130.026 16.3929C128.421 17.9779 128.421 20.5475 130.026 22.1324L139.506 31.497C141.11 33.0819 143.712 33.0819 145.316 31.497L154.796 22.1324C156.401 20.5475 156.401 17.9779 154.796 16.3929L145.316 7.02842C143.712 5.44349 141.11 5.44349 139.506 7.02842Z" fill="white"/>
<path d="M142.397 12.1155L135.176 19.2487L142.397 26.3819L149.618 19.2487L142.397 12.1155Z" fill="black"/>
<path d="M142.397 12.1155L141.449 13.0515L152.726 24.1902L153.673 23.2542L142.397 12.1155Z" fill="black"/>
<path d="M142.869 11.4268L135.425 18.7806L142.869 26.1344L150.314 18.7806L142.869 11.4268Z" fill="black"/>
<path d="M139.506 7.02842L130.026 16.3929C128.421 17.9779 128.421 20.5475 130.026 22.1324L139.506 31.497C141.11 33.0819 143.712 33.0819 145.316 31.497L154.796 22.1324C156.401 20.5475 156.401 17.9779 154.796 16.3929L145.316 7.02842C143.712 5.44349 141.11 5.44349 139.506 7.02842Z" fill="white"/>
<path d="M142.397 12.1155L135.176 19.2487L142.397 26.3819L149.618 19.2487L142.397 12.1155Z" fill="black"/>
<path d="M142.397 12.1155L141.449 13.0515L152.726 24.1902L153.673 23.2542L142.397 12.1155Z" fill="black"/>
</g>
<defs>
<clipPath id="clip0_284_491">
<rect width="40.1143" height="40.1143" fill="white"/>
</clipPath>
<clipPath id="clip1_284_491">
<rect width="109.2" height="28.2286" fill="white" transform="translate(46.7998 4.45715)"/>
</clipPath>
</defs>
</svg>
