<svg width="258" height="78" viewBox="0 0 258 78" fill="none" xmlns="http://www.w3.org/2000/svg">
<line x1="12" y1="50.3929" x2="256" y2="50.3929" stroke="#7E7E7E" stroke-opacity="0.18" stroke-width="0.5"/>
<line x1="12" y1="38.3929" x2="256" y2="38.3929" stroke="#7E7E7E" stroke-opacity="0.18" stroke-width="0.5"/>
<line x1="12" y1="25.3929" x2="256" y2="25.3929" stroke="#7E7E7E" stroke-opacity="0.18" stroke-width="0.5"/>
<line x1="12" y1="12.3929" x2="256" y2="12.3929" stroke="#7E7E7E" stroke-opacity="0.18" stroke-width="0.5"/>
<path d="M17.259 73.1929C17.259 71.7929 18.365 70.6589 19.842 70.6589C20.738 70.6589 21.501 71.1069 21.97 71.7719L21.382 72.1709C21.039 71.6669 20.472 71.3309 19.849 71.3309C18.82 71.3309 18.001 72.1149 18.001 73.1929C18.001 74.2779 18.827 75.0549 19.849 75.0549C20.493 75.0549 21.067 74.7259 21.396 74.2149L21.984 74.6209C21.529 75.2859 20.766 75.7269 19.856 75.7269C18.365 75.7269 17.259 74.6139 17.259 73.1929ZM26.1593 73.8579C26.1593 74.8869 25.3053 75.7269 24.2413 75.7269C23.1773 75.7269 22.3233 74.8869 22.3233 73.8579C22.3233 72.8289 23.1773 71.9959 24.2413 71.9959C25.3053 71.9959 26.1593 72.8289 26.1593 73.8579ZM25.4523 73.8579C25.4523 73.1719 24.9133 72.6259 24.2413 72.6259C23.5693 72.6259 23.0303 73.1719 23.0303 73.8579C23.0303 74.5509 23.5693 75.0969 24.2413 75.0969C24.9133 75.0969 25.4523 74.5509 25.4523 73.8579ZM27.4221 73.5079V75.6429H26.7151V72.0729H27.4221V72.4509C27.6671 72.1639 28.0241 71.9959 28.4301 71.9959C28.9691 71.9959 29.3891 72.2619 29.5991 72.6679C29.8301 72.2549 30.2571 71.9959 30.7681 71.9959C31.5591 71.9959 32.0981 72.5909 32.0981 73.3399V75.6429H31.3911V73.4869C31.3911 72.9829 31.0691 72.6329 30.5931 72.6329C30.1031 72.6329 29.7601 72.9899 29.7601 73.5079V75.6429H29.0531V73.4869C29.0531 72.9829 28.7311 72.6329 28.2551 72.6329C27.7651 72.6329 27.4221 72.9899 27.4221 73.5079ZM33.4924 73.5079V75.6429H32.7854V72.0729H33.4924V72.4509C33.7374 72.1639 34.0944 71.9959 34.5004 71.9959C35.0394 71.9959 35.4594 72.2619 35.6694 72.6679C35.9004 72.2549 36.3274 71.9959 36.8384 71.9959C37.6294 71.9959 38.1684 72.5909 38.1684 73.3399V75.6429H37.4614V73.4869C37.4614 72.9829 37.1394 72.6329 36.6634 72.6329C36.1734 72.6329 35.8304 72.9899 35.8304 73.5079V75.6429H35.1234V73.4869C35.1234 72.9829 34.8014 72.6329 34.3254 72.6329C33.8354 72.6329 33.4924 72.9899 33.4924 73.5079ZM38.7227 73.8579C38.7227 72.8499 39.5137 72.0029 40.5567 72.0029C41.5857 72.0029 42.3417 72.7939 42.3417 73.8579V74.0889H39.4367C39.5347 74.6699 40.0177 75.1039 40.6197 75.1039C41.0327 75.1039 41.3827 74.9359 41.6487 74.5789L42.1597 74.9569C41.8027 75.4329 41.2707 75.7199 40.6197 75.7199C39.5487 75.7199 38.7227 74.9219 38.7227 73.8579ZM40.5427 72.6189C40.0177 72.6189 39.5767 72.9829 39.4507 73.5289H41.6277C41.5087 72.9829 41.0677 72.6189 40.5427 72.6189ZM44.6947 72.7029H44.4007C43.9387 72.7029 43.6027 73.0599 43.6027 73.6129V75.6429H42.8957V72.0729H43.5957V72.5139C43.7707 72.2269 44.0577 72.0449 44.4497 72.0449H44.6947V72.7029ZM45.582 73.8649C45.582 74.5509 46.121 75.1039 46.793 75.1039C47.206 75.1039 47.563 74.9009 47.794 74.5789L48.312 74.9569C47.962 75.4189 47.465 75.7269 46.793 75.7269C45.708 75.7269 44.875 74.8939 44.875 73.8649C44.875 72.8289 45.708 71.9959 46.793 71.9959C47.465 71.9959 47.962 72.3039 48.312 72.7729L47.794 73.1439C47.563 72.8289 47.206 72.6259 46.793 72.6259C46.121 72.6259 45.582 73.1649 45.582 73.8649ZM48.4913 73.8579C48.4913 72.8499 49.2823 72.0029 50.3253 72.0029C51.3543 72.0029 52.1103 72.7939 52.1103 73.8579V74.0889H49.2052C49.3033 74.6699 49.7863 75.1039 50.3883 75.1039C50.8013 75.1039 51.1513 74.9359 51.4173 74.5789L51.9283 74.9569C51.5713 75.4329 51.0393 75.7199 50.3883 75.7199C49.3173 75.7199 48.4913 74.9219 48.4913 73.8579ZM50.3113 72.6189C49.7863 72.6189 49.3453 72.9829 49.2193 73.5289H51.3963C51.2773 72.9829 50.8363 72.6189 50.3113 72.6189Z" fill="#CED8E1"/>
<rect x="31" y="17.6429" width="10" height="40" rx="2" fill="#33FFBB" fill-opacity="0.8"/>
<path d="M66.245 74.1449H66.959C67.05 74.7399 67.47 75.0899 68.121 75.0899C68.723 75.0899 69.066 74.7959 69.066 74.3619C69.066 73.9979 68.814 73.7599 68.331 73.6269L67.519 73.4029C66.7 73.1789 66.287 72.7449 66.287 72.0729C66.287 71.2259 66.973 70.6659 67.89 70.6659C68.863 70.6659 69.556 71.2889 69.675 72.2129H68.961C68.856 71.6319 68.485 71.2889 67.883 71.2889C67.386 71.2889 67.015 71.5689 67.015 72.0169C67.015 72.3739 67.267 72.6049 67.722 72.7309L68.548 72.9549C69.409 73.1929 69.794 73.6059 69.794 74.2919C69.794 75.1109 69.136 75.7129 68.121 75.7129C67.085 75.7129 66.329 75.0829 66.245 74.1449ZM70.2287 74.6559C70.2287 74.0329 70.6557 73.6619 71.3977 73.6129L72.5107 73.5289V73.2979C72.5107 72.8919 72.2447 72.6469 71.7757 72.6469C71.4327 72.6469 71.1177 72.7519 70.8167 72.9899L70.5017 72.4789C70.8727 72.1639 71.3417 72.0099 71.8737 72.0099C72.6787 72.0099 73.2037 72.4789 73.2037 73.2069V74.8169C73.2037 74.9499 73.2737 75.0199 73.4137 75.0199H73.5957V75.6429H73.2457C72.9027 75.6429 72.6507 75.4749 72.5597 75.1949C72.3217 75.5239 71.9227 75.7199 71.4467 75.7199C70.7467 75.7199 70.2287 75.2789 70.2287 74.6559ZM70.9077 74.6489C70.9077 74.9569 71.1877 75.1669 71.5867 75.1669C72.0977 75.1669 72.5107 74.8099 72.5107 74.3619V74.0679L71.5027 74.1519C71.1107 74.1799 70.9077 74.3549 70.9077 74.6489ZM77.1761 73.3609V75.6429H76.4691V73.5009C76.4691 72.9829 76.1331 72.6329 75.6291 72.6329C75.1181 72.6329 74.7541 72.9899 74.7541 73.5219V75.6429H74.0471V72.0729H74.7541V72.4649C75.0061 72.1709 75.3771 71.9959 75.8041 71.9959C76.6231 71.9959 77.1761 72.5979 77.1761 73.3609ZM79.0602 75.6429C78.5142 75.6429 78.2132 75.3209 78.2132 74.8729V72.6959H77.5342V72.0729H78.2132V71.0229H78.9202V72.0729H79.7392V72.6959H78.9202V74.7189C78.9202 74.9149 79.0532 75.0199 79.2702 75.0199H79.7392V75.6429H79.0602ZM79.9844 73.8579C79.9844 72.8499 80.7754 72.0029 81.8184 72.0029C82.8474 72.0029 83.6034 72.7939 83.6034 73.8579V74.0889H80.6984C80.7964 74.6699 81.2794 75.1039 81.8814 75.1039C82.2944 75.1039 82.6444 74.9359 82.9104 74.5789L83.4214 74.9569C83.0644 75.4329 82.5324 75.7199 81.8814 75.7199C80.8104 75.7199 79.9844 74.9219 79.9844 73.8579ZM81.8044 72.6189C81.2794 72.6189 80.8384 72.9829 80.7124 73.5289H82.8894C82.7704 72.9829 82.3294 72.6189 81.8044 72.6189ZM82.0634 70.7009H82.8754L82.0074 71.5759H81.3144L82.0634 70.7009Z" fill="#CED8E1"/>
<path d="M8.066 52.0129V52.6429H5.196V52.0129H6.274V48.3729H5.308V47.7429H6.981V52.0129H8.066Z" fill="#CED8E1"/>
<path d="M7.016 37.5139C7.947 37.5139 8.654 38.1859 8.654 39.0539C8.654 39.9989 7.891 40.7199 6.89 40.7199C6.183 40.7199 5.595 40.4539 5.168 39.9289L5.672 39.4879C5.987 39.9009 6.407 40.1179 6.876 40.1179C7.478 40.1179 7.933 39.6699 7.933 39.0959C7.933 38.5359 7.485 38.1229 6.883 38.1229C6.498 38.1229 6.225 38.2349 5.966 38.4659L5.392 38.3819L5.504 35.7429H8.325V36.3729H6.127L6.071 37.7729C6.351 37.5979 6.652 37.5139 7.016 37.5139Z" fill="#CED8E1"/>
<path d="M6.066 27.0129V27.6429H3.196V27.0129H4.274V23.3729H3.308V22.7429H4.981V27.0129H6.066ZM6.41201 25.7809V24.5979C6.41201 23.4219 7.15401 22.6589 8.28801 22.6589C9.42201 22.6589 10.164 23.4219 10.164 24.5979V25.7809C10.164 26.9569 9.42201 27.7269 8.28801 27.7269C7.15401 27.7269 6.41201 26.9569 6.41201 25.7809ZM9.45701 25.7599V24.6189C9.45701 23.7929 9.00901 23.2819 8.28801 23.2819C7.56701 23.2819 7.11901 23.7929 7.11901 24.6189V25.7599C7.11901 26.5859 7.56701 27.1039 8.28801 27.1039C9.00901 27.1039 9.45701 26.5929 9.45701 25.7599Z" fill="#CED8E1"/>
<path d="M2.142 13.6769H1.575V12.4169H0.336V11.8499H1.575V10.6179H2.142V11.8499H3.381V12.4169H2.142V13.6769ZM6.89484 11.1219C6.90184 11.7029 6.64984 12.1229 6.09684 12.6829L4.78084 14.0199H6.94384V14.6429H3.72384V14.2019L5.59284 12.2699C5.99884 11.8569 6.18084 11.5909 6.18084 11.1779C6.18084 10.6669 5.76084 10.2889 5.20784 10.2889C4.77384 10.2889 4.40284 10.4989 4.10184 10.8979L3.61884 10.4779C4.01784 9.95994 4.59184 9.67294 5.27084 9.67294C6.20884 9.67294 6.89484 10.2889 6.89484 11.1219ZM7.52041 12.7809V11.5979C7.52041 10.4219 8.26241 9.65894 9.39641 9.65894C10.5304 9.65894 11.2724 10.4219 11.2724 11.5979V12.7809C11.2724 13.9569 10.5304 14.7269 9.39641 14.7269C8.26241 14.7269 7.52041 13.9569 7.52041 12.7809ZM10.5654 12.7599V11.6189C10.5654 10.7929 10.1174 10.2819 9.39641 10.2819C8.67541 10.2819 8.22741 10.7929 8.22741 11.6189V12.7599C8.22741 13.5859 8.67541 14.1039 9.39641 14.1039C10.1174 14.1039 10.5654 13.5929 10.5654 12.7599Z" fill="#CED8E1"/>
<rect x="70" y="42.6429" width="10" height="15" rx="2" fill="#33FFBB" fill-opacity="0.8"/>
<path d="M97.245 74.1449H97.959C98.05 74.7399 98.47 75.0899 99.121 75.0899C99.723 75.0899 100.066 74.7959 100.066 74.3619C100.066 73.9979 99.814 73.7599 99.331 73.6269L98.519 73.4029C97.7 73.1789 97.287 72.7449 97.287 72.0729C97.287 71.2259 97.973 70.6659 98.89 70.6659C99.863 70.6659 100.556 71.2889 100.675 72.2129H99.961C99.856 71.6319 99.485 71.2889 98.883 71.2889C98.386 71.2889 98.015 71.5689 98.015 72.0169C98.015 72.3739 98.267 72.6049 98.722 72.7309L99.548 72.9549C100.409 73.1929 100.794 73.6059 100.794 74.2919C100.794 75.1109 100.136 75.7129 99.121 75.7129C98.085 75.7129 97.329 75.0829 97.245 74.1449ZM101.397 72.0729H102.097V72.5209C102.419 72.1919 102.874 71.9889 103.371 71.9889C104.421 71.9889 105.247 72.8289 105.247 73.8579C105.247 74.8939 104.421 75.7199 103.371 75.7199C102.874 75.7199 102.426 75.5239 102.104 75.1949V77.0499H101.397V72.0729ZM102.09 73.8579C102.09 74.5439 102.643 75.0969 103.322 75.0969C103.994 75.0969 104.547 74.5439 104.547 73.8579C104.547 73.1719 103.994 72.6189 103.322 72.6189C102.636 72.6189 102.09 73.1719 102.09 73.8579ZM109.502 73.8579C109.502 74.8869 108.648 75.7269 107.584 75.7269C106.52 75.7269 105.666 74.8869 105.666 73.8579C105.666 72.8289 106.52 71.9959 107.584 71.9959C108.648 71.9959 109.502 72.8289 109.502 73.8579ZM108.795 73.8579C108.795 73.1719 108.256 72.6259 107.584 72.6259C106.912 72.6259 106.373 73.1719 106.373 73.8579C106.373 74.5509 106.912 75.0969 107.584 75.0969C108.256 75.0969 108.795 74.5509 108.795 73.8579ZM111.857 72.7029H111.563C111.101 72.7029 110.765 73.0599 110.765 73.6129V75.6429H110.058V72.0729H110.758V72.5139C110.933 72.2269 111.22 72.0449 111.612 72.0449H111.857V72.7029ZM113.642 75.6429C113.096 75.6429 112.795 75.3209 112.795 74.8729V72.6959H112.116V72.0729H112.795V71.0229H113.502V72.0729H114.321V72.6959H113.502V74.7189C113.502 74.9149 113.635 75.0199 113.852 75.0199H114.321V75.6429H113.642Z" fill="#CED8E1"/>
<rect x="101" y="31.6429" width="10" height="26" rx="2" fill="#33FFBB" fill-opacity="0.8"/>
<path d="M132.06 75.6429H131.36V75.1949C131.038 75.5239 130.59 75.7269 130.093 75.7269C129.036 75.7269 128.21 74.8939 128.21 73.8649C128.21 72.8289 129.043 71.9959 130.093 71.9959C130.583 71.9959 131.031 72.1919 131.353 72.5209V70.7429H132.06V75.6429ZM131.367 73.8649C131.367 73.1719 130.821 72.6259 130.142 72.6259C129.463 72.6259 128.917 73.1719 128.917 73.8649C128.917 74.5509 129.463 75.1039 130.142 75.1039C130.821 75.1039 131.367 74.5509 131.367 73.8649ZM133.102 71.5759C132.864 71.5759 132.675 71.3869 132.675 71.1489C132.675 70.9179 132.864 70.7289 133.102 70.7289C133.333 70.7289 133.515 70.9179 133.515 71.1489C133.515 71.3869 133.333 71.5759 133.102 71.5759ZM133.452 72.0729V75.6429H132.745V72.0729H133.452ZM135.288 75.6429L133.762 72.0729H134.525L135.589 74.6909L136.653 72.0729H137.395L135.883 75.6429H135.288ZM137.377 73.8579C137.377 72.8499 138.168 72.0029 139.211 72.0029C140.24 72.0029 140.996 72.7939 140.996 73.8579V74.0889H138.091C138.189 74.6699 138.672 75.1039 139.274 75.1039C139.687 75.1039 140.037 74.9359 140.303 74.5789L140.814 74.9569C140.457 75.4329 139.925 75.7199 139.274 75.7199C138.203 75.7199 137.377 74.9219 137.377 73.8579ZM139.197 72.6189C138.672 72.6189 138.231 72.9829 138.105 73.5289H140.282C140.163 72.9829 139.722 72.6189 139.197 72.6189ZM143.349 72.7029H143.055C142.593 72.7029 142.257 73.0599 142.257 73.6129V75.6429H141.55V72.0729H142.25V72.5139C142.425 72.2269 142.712 72.0449 143.104 72.0449H143.349V72.7029ZM145.134 75.6429C144.588 75.6429 144.287 75.3209 144.287 74.8729V72.6959H143.608V72.0729H144.287V71.0229H144.994V72.0729H145.813V72.6959H144.994V74.7189C144.994 74.9149 145.127 75.0199 145.344 75.0199H145.813V75.6429H145.134ZM146.596 71.5759C146.358 71.5759 146.169 71.3869 146.169 71.1489C146.169 70.9179 146.358 70.7289 146.596 70.7289C146.827 70.7289 147.009 70.9179 147.009 71.1489C147.009 71.3869 146.827 71.5759 146.596 71.5759ZM146.946 72.0729V75.6429H146.239V72.0729H146.946ZM148.978 75.7199C148.11 75.7199 147.543 75.2159 147.417 74.5369H148.096C148.18 74.9429 148.53 75.1529 148.971 75.1529C149.356 75.1529 149.594 74.9709 149.594 74.6979C149.594 74.4809 149.44 74.3269 149.104 74.2359L148.446 74.0749C147.809 73.9139 147.48 73.5779 147.48 73.0669C147.48 72.4159 148.005 71.9959 148.726 71.9959C149.559 71.9959 150.105 72.5069 150.203 73.1789H149.524C149.44 72.7729 149.083 72.5629 148.719 72.5629C148.376 72.5629 148.173 72.7449 148.173 72.9969C148.173 73.2209 148.348 73.3749 148.684 73.4589L149.3 73.6199C149.958 73.7879 150.287 74.1309 150.287 74.6419C150.287 75.2579 149.776 75.7199 148.978 75.7199ZM152.17 75.7199C151.302 75.7199 150.735 75.2159 150.609 74.5369H151.288C151.372 74.9429 151.722 75.1529 152.163 75.1529C152.548 75.1529 152.786 74.9709 152.786 74.6979C152.786 74.4809 152.632 74.3269 152.296 74.2359L151.638 74.0749C151.001 73.9139 150.672 73.5779 150.672 73.0669C150.672 72.4159 151.197 71.9959 151.918 71.9959C152.751 71.9959 153.297 72.5069 153.395 73.1789H152.716C152.632 72.7729 152.275 72.5629 151.911 72.5629C151.568 72.5629 151.365 72.7449 151.365 72.9969C151.365 73.2209 151.54 73.3749 151.876 73.4589L152.492 73.6199C153.15 73.7879 153.479 74.1309 153.479 74.6419C153.479 75.2579 152.968 75.7199 152.17 75.7199ZM153.838 73.8579C153.838 72.8499 154.629 72.0029 155.672 72.0029C156.701 72.0029 157.457 72.7939 157.457 73.8579V74.0889H154.552C154.65 74.6699 155.133 75.1039 155.735 75.1039C156.148 75.1039 156.498 74.9359 156.764 74.5789L157.275 74.9569C156.918 75.4329 156.386 75.7199 155.735 75.7199C154.664 75.7199 153.838 74.9219 153.838 73.8579ZM155.658 72.6189C155.133 72.6189 154.692 72.9829 154.566 73.5289H156.743C156.624 72.9829 156.183 72.6189 155.658 72.6189ZM158.718 73.5079V75.6429H158.011V72.0729H158.718V72.4509C158.963 72.1639 159.32 71.9959 159.726 71.9959C160.265 71.9959 160.685 72.2619 160.895 72.6679C161.126 72.2549 161.553 71.9959 162.064 71.9959C162.855 71.9959 163.394 72.5909 163.394 73.3399V75.6429H162.687V73.4869C162.687 72.9829 162.365 72.6329 161.889 72.6329C161.399 72.6329 161.056 72.9899 161.056 73.5079V75.6429H160.349V73.4869C160.349 72.9829 160.027 72.6329 159.551 72.6329C159.061 72.6329 158.718 72.9899 158.718 73.5079ZM163.948 73.8579C163.948 72.8499 164.739 72.0029 165.782 72.0029C166.811 72.0029 167.567 72.7939 167.567 73.8579V74.0889H164.662C164.76 74.6699 165.243 75.1039 165.845 75.1039C166.258 75.1039 166.608 74.9359 166.874 74.5789L167.385 74.9569C167.028 75.4329 166.496 75.7199 165.845 75.7199C164.774 75.7199 163.948 74.9219 163.948 73.8579ZM165.768 72.6189C165.243 72.6189 164.802 72.9829 164.676 73.5289H166.853C166.734 72.9829 166.293 72.6189 165.768 72.6189ZM171.25 73.3609V75.6429H170.543V73.5009C170.543 72.9829 170.207 72.6329 169.703 72.6329C169.192 72.6329 168.828 72.9899 168.828 73.5219V75.6429H168.121V72.0729H168.828V72.4649C169.08 72.1709 169.451 71.9959 169.878 71.9959C170.697 71.9959 171.25 72.5979 171.25 73.3609ZM173.134 75.6429C172.588 75.6429 172.287 75.3209 172.287 74.8729V72.6959H171.608V72.0729H172.287V71.0229H172.994V72.0729H173.813V72.6959H172.994V74.7189C172.994 74.9149 173.127 75.0199 173.344 75.0199H173.813V75.6429H173.134Z" fill="#CED8E1"/>
<path d="M188.064 75.6429H187.357V70.7429H188.4L189.996 74.7119L191.599 70.7429H192.628V75.6429H191.914L191.921 71.6809L190.318 75.6429H189.653L188.05 71.6879L188.064 75.6429ZM197.034 73.8579C197.034 74.8869 196.18 75.7269 195.116 75.7269C194.052 75.7269 193.198 74.8869 193.198 73.8579C193.198 72.8289 194.052 71.9959 195.116 71.9959C196.18 71.9959 197.034 72.8289 197.034 73.8579ZM196.327 73.8579C196.327 73.1719 195.788 72.6259 195.116 72.6259C194.444 72.6259 193.905 73.1719 193.905 73.8579C193.905 74.5509 194.444 75.0969 195.116 75.0969C195.788 75.0969 196.327 74.5509 196.327 73.8579ZM197.59 75.6429V70.7429H198.297V72.5279C198.619 72.1989 199.067 71.9959 199.564 71.9959C200.614 71.9959 201.44 72.8289 201.44 73.8649C201.44 74.8939 200.614 75.7269 199.564 75.7269C199.067 75.7269 198.612 75.5239 198.29 75.1949V75.6429H197.59ZM198.283 73.8649C198.283 74.5509 198.829 75.1039 199.515 75.1039C200.187 75.1039 200.74 74.5509 200.74 73.8649C200.74 73.1719 200.187 72.6259 199.515 72.6259C198.836 72.6259 198.283 73.1719 198.283 73.8649ZM202.349 71.5759C202.111 71.5759 201.922 71.3869 201.922 71.1489C201.922 70.9179 202.111 70.7289 202.349 70.7289C202.58 70.7289 202.762 70.9179 202.762 71.1489C202.762 71.3869 202.58 71.5759 202.349 71.5759ZM202.699 72.0729V75.6429H201.992V72.0729H202.699ZM204.094 75.6429H203.387V70.7429H204.094V75.6429ZM205.138 71.5759C204.9 71.5759 204.711 71.3869 204.711 71.1489C204.711 70.9179 204.9 70.7289 205.138 70.7289C205.369 70.7289 205.551 70.9179 205.551 71.1489C205.551 71.3869 205.369 71.5759 205.138 71.5759ZM205.488 72.0729V75.6429H204.781V72.0729H205.488ZM207.443 75.6429C206.897 75.6429 206.596 75.3209 206.596 74.8729V72.6959H205.917V72.0729H206.596V71.0229H207.303V72.0729H208.122V72.6959H207.303V74.7189C207.303 74.9149 207.436 75.0199 207.653 75.0199H208.122V75.6429H207.443ZM208.367 73.8579C208.367 72.8499 209.158 72.0029 210.201 72.0029C211.23 72.0029 211.986 72.7939 211.986 73.8579V74.0889H209.081C209.179 74.6699 209.662 75.1039 210.264 75.1039C210.677 75.1039 211.027 74.9359 211.293 74.5789L211.804 74.9569C211.447 75.4329 210.915 75.7199 210.264 75.7199C209.193 75.7199 208.367 74.9219 208.367 73.8579ZM210.187 72.6189C209.662 72.6189 209.221 72.9829 209.095 73.5289H211.272C211.153 72.9829 210.712 72.6189 210.187 72.6189ZM210.446 70.7009H211.258L210.39 71.5759H209.697L210.446 70.7009Z" fill="#CED8E1"/>
<rect x="146" y="25.6429" width="10" height="32" rx="2" fill="#33FFBB" fill-opacity="0.8"/>
<rect x="195" y="39.6429" width="10" height="18" rx="2" fill="#3FBC96"/>
<path d="M227.064 75.6429H226.357V70.7429H227.4L228.996 74.7119L230.599 70.7429H231.628V75.6429H230.914L230.921 71.6809L229.318 75.6429H228.653L227.05 71.6879L227.064 75.6429ZM236.034 73.8579C236.034 74.8869 235.18 75.7269 234.116 75.7269C233.052 75.7269 232.198 74.8869 232.198 73.8579C232.198 72.8289 233.052 71.9959 234.116 71.9959C235.18 71.9959 236.034 72.8289 236.034 73.8579ZM235.327 73.8579C235.327 73.1719 234.788 72.6259 234.116 72.6259C233.444 72.6259 232.905 73.1719 232.905 73.8579C232.905 74.5509 233.444 75.0969 234.116 75.0969C234.788 75.0969 235.327 74.5509 235.327 73.8579ZM236.59 75.6429V70.7429H237.297V72.5279C237.619 72.1989 238.067 71.9959 238.564 71.9959C239.614 71.9959 240.44 72.8289 240.44 73.8649C240.44 74.8939 239.614 75.7269 238.564 75.7269C238.067 75.7269 237.612 75.5239 237.29 75.1949V75.6429H236.59ZM237.283 73.8649C237.283 74.5509 237.829 75.1039 238.515 75.1039C239.187 75.1039 239.74 74.5509 239.74 73.8649C239.74 73.1719 239.187 72.6259 238.515 72.6259C237.836 72.6259 237.283 73.1719 237.283 73.8649ZM241.349 71.5759C241.111 71.5759 240.922 71.3869 240.922 71.1489C240.922 70.9179 241.111 70.7289 241.349 70.7289C241.58 70.7289 241.762 70.9179 241.762 71.1489C241.762 71.3869 241.58 71.5759 241.349 71.5759ZM241.699 72.0729V75.6429H240.992V72.0729H241.699ZM243.094 75.6429H242.387V70.7429H243.094V75.6429ZM244.138 71.5759C243.9 71.5759 243.711 71.3869 243.711 71.1489C243.711 70.9179 243.9 70.7289 244.138 70.7289C244.369 70.7289 244.551 70.9179 244.551 71.1489C244.551 71.3869 244.369 71.5759 244.138 71.5759ZM244.488 72.0729V75.6429H243.781V72.0729H244.488ZM246.443 75.6429C245.897 75.6429 245.596 75.3209 245.596 74.8729V72.6959H244.917V72.0729H245.596V71.0229H246.303V72.0729H247.122V72.6959H246.303V74.7189C246.303 74.9149 246.436 75.0199 246.653 75.0199H247.122V75.6429H246.443ZM247.367 73.8579C247.367 72.8499 248.158 72.0029 249.201 72.0029C250.23 72.0029 250.986 72.7939 250.986 73.8579V74.0889H248.081C248.179 74.6699 248.662 75.1039 249.264 75.1039C249.677 75.1039 250.027 74.9359 250.293 74.5789L250.804 74.9569C250.447 75.4329 249.915 75.7199 249.264 75.7199C248.193 75.7199 247.367 74.9219 247.367 73.8579ZM249.187 72.6189C248.662 72.6189 248.221 72.9829 248.095 73.5289H250.272C250.153 72.9829 249.712 72.6189 249.187 72.6189ZM249.446 70.7009H250.258L249.39 71.5759H248.697L249.446 70.7009Z" fill="#CED8E1"/>
<rect x="234" y="11.6429" width="10" height="46" rx="2" fill="#33FFBB" fill-opacity="0.8"/>
<line x1="16.25" y1="0.642944" x2="16.25" y2="62.6429" stroke="white" stroke-width="0.5"/>
<line x1="16" y1="62.3929" x2="258" y2="62.3929" stroke="white" stroke-width="0.5"/>
</svg>
