<svg width="128" height="79" viewBox="0 0 128 79" fill="none" xmlns="http://www.w3.org/2000/svg">
<rect y="26" width="14" height="44" rx="3" fill="#8067B7"/>
<rect x="19" y="12" width="14" height="58" rx="3" fill="#8067B7"/>
<rect x="38" y="22" width="14" height="48" rx="3" fill="#8067B7"/>
<rect x="57" width="14" height="70" rx="3" fill="#E80054"/>
<rect x="76" y="51" width="14" height="19" rx="3" fill="#8067B7"/>
<rect x="95" y="38" width="14" height="32" rx="3" fill="#8067B7"/>
<rect x="114" y="51" width="14" height="19" rx="3" fill="#8067B7"/>
<path d="M3.42 75.485C3.425 75.9 3.245 76.2 2.85 76.6L1.91 77.555H3.455V78H1.155V77.685L2.49 76.305C2.78 76.01 2.91 75.82 2.91 75.525C2.91 75.16 2.61 74.89 2.215 74.89C1.905 74.89 1.64 75.04 1.425 75.325L1.08 75.025C1.365 74.655 1.775 74.45 2.26 74.45C2.93 74.45 3.42 74.89 3.42 75.485ZM3.86684 76.67V75.825C3.86684 74.985 4.39684 74.44 5.20684 74.44C6.01684 74.44 6.54684 74.985 6.54684 75.825V76.67C6.54684 77.51 6.01684 78.06 5.20684 78.06C4.39684 78.06 3.86684 77.51 3.86684 76.67ZM6.04184 76.655V75.84C6.04184 75.25 5.72184 74.885 5.20684 74.885C4.69184 74.885 4.37184 75.25 4.37184 75.84V76.655C4.37184 77.245 4.69184 77.615 5.20684 77.615C5.72184 77.615 6.04184 77.25 6.04184 76.655ZM8.86871 77.55V78H6.81871V77.55H7.58871V74.95H6.89871V74.5H8.09371V77.55H8.86871ZM10.2767 74.445C11.0967 74.445 11.6317 75.12 11.6317 76.135V76.245C11.6317 77.345 11.0967 78.06 10.2517 78.06C9.80168 78.06 9.43168 77.87 9.15168 77.54L9.50168 77.24C9.69168 77.48 9.96168 77.625 10.2517 77.625C10.7567 77.625 11.1417 77.165 11.1417 76.36V76.27C10.9567 76.6 10.6217 76.79 10.2117 76.79C9.56168 76.79 9.04168 76.285 9.04168 75.655C9.04168 74.975 9.58168 74.445 10.2767 74.445ZM10.2917 74.88C9.86168 74.88 9.52668 75.205 9.52668 75.625C9.52668 76.05 9.86168 76.375 10.2917 76.375C10.7117 76.375 11.0467 76.05 11.0467 75.625C11.0467 75.205 10.7167 74.88 10.2917 74.88Z" fill="white"/>
<path d="M22.42 75.485C22.425 75.9 22.245 76.2 21.85 76.6L20.91 77.555H22.455V78H20.155V77.685L21.49 76.305C21.78 76.01 21.91 75.82 21.91 75.525C21.91 75.16 21.61 74.89 21.215 74.89C20.905 74.89 20.64 75.04 20.425 75.325L20.08 75.025C20.365 74.655 20.775 74.45 21.26 74.45C21.93 74.45 22.42 74.89 22.42 75.485ZM22.8668 76.67V75.825C22.8668 74.985 23.3968 74.44 24.2068 74.44C25.0168 74.44 25.5468 74.985 25.5468 75.825V76.67C25.5468 77.51 25.0168 78.06 24.2068 78.06C23.3968 78.06 22.8668 77.51 22.8668 76.67ZM25.0418 76.655V75.84C25.0418 75.25 24.7218 74.885 24.2068 74.885C23.6918 74.885 23.3718 75.25 23.3718 75.84V76.655C23.3718 77.245 23.6918 77.615 24.2068 77.615C24.7218 77.615 25.0418 77.25 25.0418 76.655ZM28.0987 75.485C28.1037 75.9 27.9237 76.2 27.5287 76.6L26.5887 77.555H28.1337V78H25.8337V77.685L27.1687 76.305C27.4587 76.01 27.5887 75.82 27.5887 75.525C27.5887 75.16 27.2887 74.89 26.8937 74.89C26.5837 74.89 26.3187 75.04 26.1037 75.325L25.7587 75.025C26.0437 74.655 26.4537 74.45 26.9387 74.45C27.6087 74.45 28.0987 74.89 28.0987 75.485ZM28.5455 76.67V75.825C28.5455 74.985 29.0755 74.44 29.8855 74.44C30.6955 74.44 31.2255 74.985 31.2255 75.825V76.67C31.2255 77.51 30.6955 78.06 29.8855 78.06C29.0755 78.06 28.5455 77.51 28.5455 76.67ZM30.7205 76.655V75.84C30.7205 75.25 30.4005 74.885 29.8855 74.885C29.3705 74.885 29.0505 75.25 29.0505 75.84V76.655C29.0505 77.245 29.3705 77.615 29.8855 77.615C30.4005 77.615 30.7205 77.25 30.7205 76.655Z" fill="white"/>
<path d="M41.42 75.485C41.425 75.9 41.245 76.2 40.85 76.6L39.91 77.555H41.455V78H39.155V77.685L40.49 76.305C40.78 76.01 40.91 75.82 40.91 75.525C40.91 75.16 40.61 74.89 40.215 74.89C39.905 74.89 39.64 75.04 39.425 75.325L39.08 75.025C39.365 74.655 39.775 74.45 40.26 74.45C40.93 74.45 41.42 74.89 41.42 75.485ZM41.8668 76.67V75.825C41.8668 74.985 42.3968 74.44 43.2068 74.44C44.0168 74.44 44.5468 74.985 44.5468 75.825V76.67C44.5468 77.51 44.0168 78.06 43.2068 78.06C42.3968 78.06 41.8668 77.51 41.8668 76.67ZM44.0418 76.655V75.84C44.0418 75.25 43.7218 74.885 43.2068 74.885C42.6918 74.885 42.3718 75.25 42.3718 75.84V76.655C42.3718 77.245 42.6918 77.615 43.2068 77.615C43.7218 77.615 44.0418 77.25 44.0418 76.655ZM47.0987 75.485C47.1037 75.9 46.9237 76.2 46.5287 76.6L45.5887 77.555H47.1337V78H44.8337V77.685L46.1687 76.305C46.4587 76.01 46.5887 75.82 46.5887 75.525C46.5887 75.16 46.2887 74.89 45.8937 74.89C45.5837 74.89 45.3187 75.04 45.1037 75.325L44.7587 75.025C45.0437 74.655 45.4537 74.45 45.9387 74.45C46.6087 74.45 47.0987 74.89 47.0987 75.485ZM49.5005 77.55V78H47.4505V77.55H48.2205V74.95H47.5305V74.5H48.7255V77.55H49.5005Z" fill="white"/>
<path d="M60.42 75.485C60.425 75.9 60.245 76.2 59.85 76.6L58.91 77.555H60.455V78H58.155V77.685L59.49 76.305C59.78 76.01 59.91 75.82 59.91 75.525C59.91 75.16 59.61 74.89 59.215 74.89C58.905 74.89 58.64 75.04 58.425 75.325L58.08 75.025C58.365 74.655 58.775 74.45 59.26 74.45C59.93 74.45 60.42 74.89 60.42 75.485ZM60.8668 76.67V75.825C60.8668 74.985 61.3968 74.44 62.2068 74.44C63.0168 74.44 63.5468 74.985 63.5468 75.825V76.67C63.5468 77.51 63.0168 78.06 62.2068 78.06C61.3968 78.06 60.8668 77.51 60.8668 76.67ZM63.0418 76.655V75.84C63.0418 75.25 62.7218 74.885 62.2068 74.885C61.6918 74.885 61.3718 75.25 61.3718 75.84V76.655C61.3718 77.245 61.6918 77.615 62.2068 77.615C62.7218 77.615 63.0418 77.25 63.0418 76.655ZM66.0987 75.485C66.1037 75.9 65.9237 76.2 65.5287 76.6L64.5887 77.555H66.1337V78H63.8337V77.685L65.1687 76.305C65.4587 76.01 65.5887 75.82 65.5887 75.525C65.5887 75.16 65.2887 74.89 64.8937 74.89C64.5837 74.89 64.3187 75.04 64.1037 75.325L63.7587 75.025C64.0437 74.655 64.4537 74.45 64.9387 74.45C65.6087 74.45 66.0987 74.89 66.0987 75.485ZM68.6964 75.485C68.7014 75.9 68.5214 76.2 68.1264 76.6L67.1864 77.555H68.7314V78H66.4314V77.685L67.7664 76.305C68.0564 76.01 68.1864 75.82 68.1864 75.525C68.1864 75.16 67.8864 74.89 67.4914 74.89C67.1814 74.89 66.9164 75.04 66.7014 75.325L66.3564 75.025C66.6414 74.655 67.0514 74.45 67.5364 74.45C68.2064 74.45 68.6964 74.89 68.6964 75.485Z" fill="white"/>
<path d="M79.42 75.485C79.425 75.9 79.245 76.2 78.85 76.6L77.91 77.555H79.455V78H77.155V77.685L78.49 76.305C78.78 76.01 78.91 75.82 78.91 75.525C78.91 75.16 78.61 74.89 78.215 74.89C77.905 74.89 77.64 75.04 77.425 75.325L77.08 75.025C77.365 74.655 77.775 74.45 78.26 74.45C78.93 74.45 79.42 74.89 79.42 75.485ZM79.8668 76.67V75.825C79.8668 74.985 80.3968 74.44 81.2068 74.44C82.0168 74.44 82.5468 74.985 82.5468 75.825V76.67C82.5468 77.51 82.0168 78.06 81.2068 78.06C80.3968 78.06 79.8668 77.51 79.8668 76.67ZM82.0418 76.655V75.84C82.0418 75.25 81.7218 74.885 81.2068 74.885C80.6918 74.885 80.3718 75.25 80.3718 75.84V76.655C80.3718 77.245 80.6918 77.615 81.2068 77.615C81.7218 77.615 82.0418 77.25 82.0418 76.655ZM85.0987 75.485C85.1037 75.9 84.9237 76.2 84.5287 76.6L83.5887 77.555H85.1337V78H82.8337V77.685L84.1687 76.305C84.4587 76.01 84.5887 75.82 84.5887 75.525C84.5887 75.16 84.2887 74.89 83.8937 74.89C83.5837 74.89 83.3187 75.04 83.1037 75.325L82.7587 75.025C83.0437 74.655 83.4537 74.45 83.9387 74.45C84.6087 74.45 85.0987 74.89 85.0987 75.485ZM86.5764 74.45C87.2214 74.45 87.7164 74.89 87.7164 75.44C87.7164 75.745 87.5514 76.015 87.2914 76.17C87.6214 76.32 87.8414 76.635 87.8414 76.995C87.8414 77.575 87.3264 78.055 86.6214 78.055C86.0614 78.055 85.6414 77.84 85.3564 77.495L85.7114 77.18C85.9214 77.45 86.2264 77.625 86.5964 77.625C87.0214 77.625 87.3264 77.35 87.3264 77.01C87.3264 76.685 87.0714 76.42 86.6914 76.42H86.2064V75.985H86.6264C86.9714 75.985 87.2014 75.75 87.2014 75.445C87.2014 75.125 86.9214 74.88 86.5364 74.88C86.2114 74.88 85.9464 75.05 85.7514 75.3L85.4114 75.005C85.6864 74.665 86.0614 74.45 86.5764 74.45Z" fill="white"/>
<path d="M98.42 75.485C98.425 75.9 98.245 76.2 97.85 76.6L96.91 77.555H98.455V78H96.155V77.685L97.49 76.305C97.78 76.01 97.91 75.82 97.91 75.525C97.91 75.16 97.61 74.89 97.215 74.89C96.905 74.89 96.64 75.04 96.425 75.325L96.08 75.025C96.365 74.655 96.775 74.45 97.26 74.45C97.93 74.45 98.42 74.89 98.42 75.485ZM98.8668 76.67V75.825C98.8668 74.985 99.3968 74.44 100.207 74.44C101.017 74.44 101.547 74.985 101.547 75.825V76.67C101.547 77.51 101.017 78.06 100.207 78.06C99.3968 78.06 98.8668 77.51 98.8668 76.67ZM101.042 76.655V75.84C101.042 75.25 100.722 74.885 100.207 74.885C99.6918 74.885 99.3718 75.25 99.3718 75.84V76.655C99.3718 77.245 99.6918 77.615 100.207 77.615C100.722 77.615 101.042 77.25 101.042 76.655ZM104.099 75.485C104.104 75.9 103.924 76.2 103.529 76.6L102.589 77.555H104.134V78H101.834V77.685L103.169 76.305C103.459 76.01 103.589 75.82 103.589 75.525C103.589 75.16 103.289 74.89 102.894 74.89C102.584 74.89 102.319 75.04 102.104 75.325L101.759 75.025C102.044 74.655 102.454 74.45 102.939 74.45C103.609 74.45 104.099 74.89 104.099 75.485ZM106.104 78V77.11H104.299V76.735L105.959 74.5H106.609V76.66H107.069V77.11H106.609V78H106.104ZM104.894 76.66H106.104V75.02L104.894 76.66Z" fill="white"/>
<path d="M117.42 75.485C117.425 75.9 117.245 76.2 116.85 76.6L115.91 77.555H117.455V78H115.155V77.685L116.49 76.305C116.78 76.01 116.91 75.82 116.91 75.525C116.91 75.16 116.61 74.89 116.215 74.89C115.905 74.89 115.64 75.04 115.425 75.325L115.08 75.025C115.365 74.655 115.775 74.45 116.26 74.45C116.93 74.45 117.42 74.89 117.42 75.485ZM117.867 76.67V75.825C117.867 74.985 118.397 74.44 119.207 74.44C120.017 74.44 120.547 74.985 120.547 75.825V76.67C120.547 77.51 120.017 78.06 119.207 78.06C118.397 78.06 117.867 77.51 117.867 76.67ZM120.042 76.655V75.84C120.042 75.25 119.722 74.885 119.207 74.885C118.692 74.885 118.372 75.25 118.372 75.84V76.655C118.372 77.245 118.692 77.615 119.207 77.615C119.722 77.615 120.042 77.25 120.042 76.655ZM123.099 75.485C123.104 75.9 122.924 76.2 122.529 76.6L121.589 77.555H123.134V78H120.834V77.685L122.169 76.305C122.459 76.01 122.589 75.82 122.589 75.525C122.589 75.16 122.289 74.89 121.894 74.89C121.584 74.89 121.319 75.04 121.104 75.325L120.759 75.025C121.044 74.655 121.454 74.45 121.939 74.45C122.609 74.45 123.099 74.89 123.099 75.485ZM124.716 75.765C125.381 75.765 125.886 76.245 125.886 76.865C125.886 77.54 125.341 78.055 124.626 78.055C124.121 78.055 123.701 77.865 123.396 77.49L123.756 77.175C123.981 77.47 124.281 77.625 124.616 77.625C125.046 77.625 125.371 77.305 125.371 76.895C125.371 76.495 125.051 76.2 124.621 76.2C124.346 76.2 124.151 76.28 123.966 76.445L123.556 76.385L123.636 74.5H125.651V74.95H124.081L124.041 75.95C124.241 75.825 124.456 75.765 124.716 75.765Z" fill="white"/>
</svg>
