<svg width="340" height="79" viewBox="0 0 340 79" fill="none" xmlns="http://www.w3.org/2000/svg">
<path d="M40.6536 35.0794L1 24.7942V78.9999H339V5.61366L334.279 4.77972L308.788 21.7364L298.402 20.0685L266.302 35.9133L262.525 37.3032L229.953 18.6786L220.039 21.7364L202.101 4.77972H198.796L178.025 18.6786H175.665L161.503 29.2418L144.98 41.7508L140.732 43.4187L131.291 37.0252L111.464 4.22377L106.743 1.99994L99.1899 4.22377L85.5 22.2924L80.3073 24.7942L69.9218 20.9025L60.4805 22.2924L40.6536 35.0794Z" fill="url(#paint0_linear_348_3910)"/>
<path d="M1 24.8351L38.8066 34.6707C40.9257 35.222 43.1745 34.5768 44.7995 33.1093C50.4637 27.9938 64.4722 17.1323 75.9004 22.9089C90.5961 30.3371 91.4528 0.063191 108.61 2.27548C117.143 3.37574 118.941 17.4739 126.624 29.2367C132.197 37.7679 134.708 42.1909 141.604 42.8931C142.948 43.03 144.267 42.5365 145.327 41.6977L173.783 19.1774C174.523 18.5918 175.518 18.4413 176.398 18.7818V18.7818C177.28 19.1231 178.277 18.9712 179.017 18.3827L195.315 5.42851C197.754 3.48961 201.272 3.74071 203.411 6.00646L216.047 19.3898C217.606 21.0411 219.964 21.6706 222.138 21.0162L228.766 19.0218C230.433 18.5203 232.235 18.767 233.705 19.6978L259.764 36.1959C261.568 37.3382 263.843 37.4354 265.738 36.4514L296.614 20.4188C297.958 19.7207 299.517 19.557 300.977 19.9605L305.8 21.2932C307.603 21.7915 309.535 21.4203 311.025 20.2895L330.382 5.59894C332.18 4.23485 334.59 3.99452 336.622 4.97693L339 6.12712" stroke="url(#paint1_linear_348_3910)" stroke-width="4"/>
<defs>
<linearGradient id="paint0_linear_348_3910" x1="170" y1="1.99994" x2="170" y2="78.9999" gradientUnits="userSpaceOnUse">
<stop stop-color="#00FAFF" stop-opacity="0.12"/>
<stop offset="1" stop-color="#0A9396" stop-opacity="0"/>
</linearGradient>
<linearGradient id="paint1_linear_348_3910" x1="339" y1="1.99997" x2="14.1448" y2="83.8237" gradientUnits="userSpaceOnUse">
<stop stop-color="#8067B7"/>
<stop offset="1" stop-color="#8067B7"/>
</linearGradient>
</defs>
</svg>
