<svg width="421" height="63" viewBox="0 0 421 63" fill="none" xmlns="http://www.w3.org/2000/svg">
<path d="M49.6013 28.0795L0.327148 19.9316V62.874H420.327V4.73706L414.461 4.07636L382.786 17.509L369.88 16.1884L329.992 28.7402L325.299 29.8413L284.825 15.0873L272.506 17.509L250.216 4.07636H246.109L220.299 15.0873H217.366L199.769 23.4554L179.237 33.3651L173.959 34.6865L162.227 29.6211L137.59 3.63589L131.724 1.87402L122.338 3.63589L105.327 17.9495L98.8743 19.9316L85.9699 16.8491L74.2372 17.9495L49.6013 28.0795Z" fill="url(#paint0_linear_1178_3399)"/>
<path d="M0.327148 19.964L47.3063 27.7562C49.9393 28.1927 52.7327 27.6817 54.752 26.5188C61.7913 22.4666 79.1977 13.8616 93.3981 18.4382C111.659 24.3228 112.724 0.339451 134.044 2.09181C144.647 2.96404 146.881 14.1326 156.428 23.4513C163.353 30.2097 166.473 33.7136 175.042 34.2697C176.712 34.3783 178.351 33.9869 179.668 33.323L215.028 15.4817C215.947 15.0183 217.184 14.8987 218.277 15.1688C219.373 15.4389 220.612 15.3185 221.532 14.8527L241.784 4.59044C244.814 3.05435 249.186 3.25319 251.844 5.04754L267.545 15.6505C269.483 16.9584 272.413 17.4575 275.114 16.9386L283.35 15.3589C285.421 14.9612 287.661 15.1569 289.487 15.8945L321.868 28.9643C324.11 29.869 326.937 29.9458 329.291 29.1663L367.658 16.4656C369.328 15.9127 371.265 15.7828 373.08 16.1028L379.073 17.158C381.313 17.5533 383.714 17.2586 385.565 16.3627L409.618 4.72512C411.853 3.64455 414.847 3.45442 417.372 4.23237L420.327 5.1434" stroke="url(#paint1_linear_1178_3399)" stroke-width="4"/>
<defs>
<linearGradient id="paint0_linear_1178_3399" x1="210.327" y1="1.87402" x2="210.327" y2="62.874" gradientUnits="userSpaceOnUse">
<stop stop-color="#00FAFF" stop-opacity="0.12"/>
<stop offset="1" stop-color="#0A9396" stop-opacity="0"/>
</linearGradient>
<linearGradient id="paint1_linear_1178_3399" x1="420.327" y1="1.87395" x2="49.0096" y2="148.574" gradientUnits="userSpaceOnUse">
<stop stop-color="#FFD600"/>
<stop offset="1" stop-color="#EBFF00"/>
</linearGradient>
</defs>
</svg>
