<svg width="531" height="143" viewBox="0 0 531 143" fill="none" xmlns="http://www.w3.org/2000/svg">
<path d="M446.478 14.4825L402.483 58.4781C395.036 65.9242 395.036 77.9969 402.483 85.4431L446.478 129.439C453.924 136.885 465.997 136.885 473.443 129.439L517.439 85.4431C524.885 77.9969 524.885 65.9243 517.439 58.4781L473.443 14.4825C465.997 7.03635 453.924 7.03635 446.478 14.4825Z" fill="white"/>
<path d="M459.894 38.3817L426.382 71.8944L459.894 105.407L493.407 71.8944L459.894 38.3817Z" fill="black"/>
<path d="M459.894 38.3818L455.497 42.7794L507.828 95.1104L512.225 90.7128L459.894 38.3818Z" fill="black"/>
<g clip-path="url(#clip0_450_557)">
<path d="M8.11646 8.28741H53.9502C62.035 8.28741 69.3236 9.71773 75.8167 12.5784C82.3098 15.3754 87.4662 19.6663 91.2856 25.4512C95.169 31.1724 97.1103 38.3558 97.1103 47.0012C97.1103 55.5831 95.169 62.8938 91.2856 68.9327C87.4662 74.9084 82.3098 79.4854 75.8167 82.6637C69.3236 85.7788 62.035 87.336 53.9502 87.336H36.6671V134.155H8.11646V8.28741ZM36.6671 64.8325H46.0248C49.9079 64.8325 53.3773 64.2603 56.4329 63.1161C59.5523 61.9718 62.035 60.1601 63.8809 57.6809C65.7268 55.1381 66.65 51.8007 66.65 47.6687C66.65 43.4731 65.7268 40.1675 63.8809 37.7519C62.035 35.2727 59.5523 33.4927 56.4329 32.412C53.3773 31.3314 49.9079 30.791 46.0248 30.791H36.6671V64.8325ZM103.362 8.28741H154.734C162.055 8.28741 168.579 9.81308 174.309 12.8644C180.038 15.9158 184.557 20.3338 187.868 26.1186C191.241 31.8399 192.929 38.6736 192.929 46.6198C192.929 54.566 191.496 61.082 188.632 66.1674C185.831 71.1896 182.457 74.9716 178.51 77.5146C174.563 79.9938 170.903 81.4878 167.529 81.9962L198.18 134.155H166.097L138.787 84.1894H131.912V134.155H103.362V8.28741ZM131.912 64.451H144.517C149.609 64.451 154.065 63.2114 157.885 60.7322C161.704 58.253 163.614 53.8667 163.614 47.5733C163.614 41.28 161.736 36.9254 157.98 34.5098C154.225 32.0306 149.8 30.791 144.708 30.791H131.912V64.451ZM208.454 8.28741H237.005V134.155H208.454V8.28741ZM383.77 8.28741V134.155H355.315V60.0647L356.556 38.9915L351.686 63.1161L330.488 124.047H302.51L281.408 63.1161L276.634 38.9915L277.875 60.0647V134.155H249.324V8.28741H289.429L314.828 92.2945L316.547 102.307L318.266 92.2945L343.665 8.28741H383.77Z" fill="white"/>
<path d="M36.6672 63.8652H43.2149V87.84H36.6672V63.8652Z" fill="black"/>
<path d="M103.126 64.4646V57.926H132.045V64.4646H103.126Z" fill="black"/>
</g>
<defs>
<clipPath id="clip0_450_557">
<rect width="516.721" height="133.496" fill="white" transform="translate(0 0.659058)"/>
</clipPath>
</defs>
</svg>
