<?xml version="1.0" encoding="UTF-8"?>
<svg version="1.1" xmlns="http://www.w3.org/2000/svg" viewBox="0 0 1500 1500">
<path d="M0 0 C495 0 990 0 1500 0 C1500 495 1500 990 1500 1500 C1005 1500 510 1500 0 1500 C0 1005 0 510 0 0 Z " fill="#4C9BFD" transform="translate(0,0)"/>
<path d="M0 0 C0.87576691 0.05858185 1.75153381 0.1171637 2.65383911 0.17752075 C13.33244016 0.92102327 23.74184839 2.30140564 34.25250244 4.31283569 C37.43806652 4.91034188 40.63488708 5.4372881 43.83203125 5.96875 C45.03150391 6.17113281 46.23097656 6.37351563 47.46679688 6.58203125 C49.88292714 6.98887556 52.29960631 7.39247218 54.71679688 7.79296875 C61.45930096 8.93675388 68.05959724 10.31556067 74.6784668 12.03564453 C77.68219382 12.79705639 80.69647713 13.35165136 83.75 13.875 C101.4863869 17.3608683 118.79962805 23.1838823 136.0625 28.5 C137.27760254 28.8727002 138.49270508 29.24540039 139.74462891 29.62939453 C145.40128821 31.38997091 150.83160636 33.27865087 156.25 35.6875 C158.26547366 36.46550959 160.28408462 37.23541056 162.3046875 38 C169.40816871 40.71537937 176.39341793 43.67463764 183.375 46.6875 C184.55964844 47.19539063 185.74429688 47.70328125 186.96484375 48.2265625 C208.79168246 57.6118625 229.88343736 68.116233 250.4765625 79.97265625 C254.01560869 82.00667793 257.57055371 83.9211213 261.25 85.6875 C261.25 86.3475 261.25 87.0075 261.25 87.6875 C263.90228812 88.76275194 266.53368454 89.78206151 269.25 90.6875 C269.25 91.3475 269.25 92.0075 269.25 92.6875 C269.90613281 92.90792969 270.56226563 93.12835938 271.23828125 93.35546875 C275.28248201 95.14414898 278.78182855 97.52682515 282.4375 100 C283.21762451 100.52400391 283.99774902 101.04800781 284.80151367 101.58789062 C294.40290752 108.08038061 304.05437914 114.67608368 313.0703125 121.96875 C315.28081943 123.83591901 315.28081943 123.83591901 318.3125 125.1875 C321.27594566 126.70074885 323.12092131 128.1489831 325.25 130.6875 C325.25 131.3475 325.25 132.0075 325.25 132.6875 C325.77335937 132.90277344 326.29671875 133.11804688 326.8359375 133.33984375 C330.20629796 135.22135566 332.98312063 137.72107381 335.875 140.25 C336.49455566 140.7864917 337.11411133 141.3229834 337.75244141 141.87573242 C342.13869114 145.68520223 346.47852865 149.54475973 350.7734375 153.45703125 C352.16363589 154.7090869 353.55993479 155.95470056 354.97694397 157.17633057 C359.76693195 161.30795525 364.32030099 165.61079384 368.78515625 170.08984375 C369.46750839 170.77123917 370.14986053 171.45263458 370.85289001 172.15467834 C372.28344437 173.58455741 373.71275767 175.01567911 375.14086914 176.44799805 C377.30699074 178.61947711 379.47840174 180.78556325 381.65039062 182.95117188 C383.04979987 184.35124202 384.44889884 185.75162238 385.84765625 187.15234375 C386.48639175 187.78905502 387.12512726 188.4257663 387.78321838 189.08177185 C392.13547503 193.45636075 396.23120525 198.00609298 400.25 202.6875 C401.21167442 203.79346043 402.173816 204.89901509 403.13671875 206.00390625 C425.95499942 232.38377041 446.50415039 260.64891792 464.25 290.6875 C464.69263184 291.43 465.13526367 292.1725 465.59130859 292.9375 C506.83409087 362.22418781 532.54403216 438.10622784 543.9375 517.75 C544.04041351 518.45516754 544.14332703 519.16033508 544.24935913 519.88687134 C547.66223306 543.48192569 548.60662709 567.08169894 548.56567383 590.88891602 C548.56105916 593.78393158 548.567928 596.67852517 548.58618164 599.57348633 C548.76239269 627.80837824 546.9614645 655.81097583 542.25 683.6875 C542.0317115 685.00439009 541.81345181 686.32128496 541.59521484 687.63818359 C532.10741483 744.43206532 515.23329903 798.75601203 490.25 850.6875 C489.74243164 851.75178223 489.23486328 852.81606445 488.71191406 853.91259766 C480.48070826 871.09945923 471.20619454 887.45739674 461.25 903.6875 C460.69924805 904.59145508 460.14849609 905.49541016 459.58105469 906.42675781 C452.35178572 918.26100313 444.5500289 929.58084007 436.25 940.6875 C435.60450195 941.5522998 434.95900391 942.41709961 434.29394531 943.30810547 C427.0120538 953.03301047 419.64807833 962.63824544 411.703125 971.83203125 C409.26053637 974.67523553 406.90782084 977.57632623 404.5625 980.5 C401.88729712 983.80578641 399.1491379 986.82704744 396.0625 989.75 C392.41521438 993.26650646 390.00094399 997.05898619 387.57421875 1001.48828125 C385.48984394 1004.94994206 383.26036349 1006.78357404 379.75 1008.6875 C374.7578158 1011.71584703 370.94407026 1015.83245312 366.91015625 1019.984375 C364.140545 1022.798723 361.26616613 1025.39168745 358.265625 1027.953125 C355.94885379 1029.94662581 353.69580016 1032.00304388 351.4375 1034.0625 C346.18824117 1038.79321502 340.75441004 1043.25833694 335.25 1047.6875 C334.12864698 1048.60124442 333.00756489 1049.51532139 331.88671875 1050.4296875 C313.0639073 1065.71663703 293.38499384 1079.48402033 272.65673828 1092.04711914 C268.67291125 1094.47914635 264.85193815 1096.93840868 261.18359375 1099.828125 C257.88498666 1102.35989117 254.62736127 1103.98498979 250.79980469 1105.57421875 C245.97434069 1107.68108545 241.37575089 1110.25340258 236.72338867 1112.71350098 C157.37861834 1154.52382474 68.72604222 1176.01940449 -20.75 1177.6875 C-21.55211914 1177.70409668 -22.35423828 1177.72069336 -23.18066406 1177.73779297 C-28.03945223 1177.8263134 -32.89153252 1177.79336464 -37.75 1177.6875 C-38.64702637 1177.66961426 -39.54405273 1177.65172852 -40.46826172 1177.63330078 C-99.07458476 1176.31120853 -156.2531937 1165.69130341 -211.65454102 1146.73901367 C-214.82083233 1145.66343857 -217.9955644 1144.61588169 -221.171875 1143.5703125 C-225.0815202 1142.26965841 -228.90604392 1140.89336964 -232.6875 1139.25 C-236.79911234 1137.49093568 -240.93049209 1135.86319686 -245.125 1134.3125 C-250.823603 1132.13520357 -256.19871494 1129.54929112 -261.625 1126.76953125 C-266.7423129 1124.16067983 -271.93743285 1121.71522378 -277.125 1119.25 C-286.3903448 1114.83919525 -295.59585684 1110.32435916 -304.75 1105.6875 C-304.75 1105.0275 -304.75 1104.3675 -304.75 1103.6875 C-305.53503906 1103.48125 -306.32007813 1103.275 -307.12890625 1103.0625 C-312.04761268 1101.19477113 -316.25136099 1098.4919051 -320.6875 1095.6875 C-321.62045898 1095.10299072 -322.55341797 1094.51848145 -323.51464844 1093.91625977 C-331.35752514 1088.98177194 -339.11476775 1083.93734858 -346.75 1078.6875 C-347.40887207 1078.23584473 -348.06774414 1077.78418945 -348.74658203 1077.31884766 C-368.04840423 1064.03660766 -386.15118313 1049.44732662 -403.50390625 1033.71875 C-411.90038949 1025.49309527 -411.90038949 1025.49309527 -421.75 1019.5 C-424.9771691 1017.550252 -425.38381111 1016.81235258 -426.953125 1013.56640625 C-429.70850242 1008.4052219 -433.26668325 1004.79170834 -437.5 1000.8125 C-442.98556197 995.50004874 -448.03266494 990.19001228 -452.75390625 984.18359375 C-454.78358896 981.64549737 -456.92216796 979.2636597 -459.125 976.875 C-488.65661024 944.32891743 -512.1213993 904.76926529 -531.75 865.6875 C-532.20971191 864.77742187 -532.66942383 863.86734375 -533.14306641 862.9296875 C-572.56182538 784.39980087 -590.4719325 695.78871722 -576.75 507.875 C-576.54084961 506.88779968 -576.33169922 505.90059937 -576.11621094 504.88348389 C-573.50183588 492.64547766 -570.47475774 480.63425729 -566.75 468.6875 C-566.32073849 467.29881629 -565.89170201 465.910063 -565.46289062 464.52124023 C-564.67078255 461.96756585 -563.87547616 459.41548982 -563.06640625 456.8671875 C-562.12064285 453.87716977 -561.19468989 450.88166783 -560.27734375 447.8828125 C-557.52298372 438.93070016 -554.52893765 430.2693455 -550.75 421.6875 C-549.93461019 419.70952214 -549.12216535 417.73032799 -548.3125 415.75 C-546.0721976 410.3647936 -543.655918 405.07336297 -541.1796875 399.79296875 C-540.20528009 397.67642806 -539.26642082 395.54324435 -538.359375 393.39697266 C-536.8836633 389.94415626 -535.25645673 386.58637464 -533.5703125 383.23046875 C-533.27567108 382.64260086 -532.98102966 382.05473297 -532.67745972 381.4490509 C-531.74520609 379.59007316 -530.81017768 377.73250819 -529.875 375.875 C-529.25632205 374.64267268 -528.63783117 373.41025141 -528.01953125 372.17773438 C-526.82290885 369.79296695 -525.62514969 367.40878237 -524.42675781 365.02490234 C-522.19473828 360.5823125 -519.97112785 356.13554323 -517.75 351.6875 C-517.09 351.6875 -516.43 351.6875 -515.75 351.6875 C-515.49347656 350.98882812 -515.23695313 350.29015625 -514.97265625 349.5703125 C-513.62020363 346.38146256 -511.9696848 343.53156779 -510.1875 340.5625 C-508.39686939 337.57687474 -506.85117028 334.99101083 -505.75 331.6875 C-505.09 331.6875 -504.43 331.6875 -503.75 331.6875 C-503.48960937 330.97078125 -503.22921875 330.2540625 -502.9609375 329.515625 C-500.65801351 324.13718317 -497.06662797 319.48369771 -493.75 314.6875 C-493.2977002 314.03104492 -492.84540039 313.37458984 -492.37939453 312.69824219 C-485.50459991 302.74904875 -478.34867189 293.094538 -470.75 283.6875 C-470.00234375 282.75679688 -469.2546875 281.82609375 -468.484375 280.8671875 C-466.26011945 278.12287219 -464.01219129 275.40062643 -461.75 272.6875 C-461.32170898 272.1728418 -460.89341797 271.65818359 -460.45214844 271.12792969 C-449.20502916 257.66193627 -437.12364636 244.99351397 -424.75 232.5625 C-424.06848877 231.87631592 -423.38697754 231.19013184 -422.68481445 230.4831543 C-418.76632398 226.57711716 -414.73809738 222.85617063 -410.54931641 219.24169922 C-408.30792825 217.30565078 -406.12339585 215.31081459 -403.9375 213.3125 C-398.68601708 208.5853709 -393.27989505 204.08403717 -387.75 199.6875 C-387.09999023 199.17026367 -386.44998047 198.65302734 -385.78027344 198.12011719 C-376.82230767 191.01693865 -367.77071416 184.12061476 -358.31982422 177.68237305 C-355.31506587 175.61389064 -352.73938583 173.67664424 -350.17578125 171.0546875 C-347.3905009 168.33668445 -344.77527153 167.00422526 -341.25 165.375 C-336.49107999 163.10721366 -331.96958151 160.68834064 -327.5 157.875 C-320.18615687 153.27949808 -312.67424807 149.08930167 -305.08837891 144.9609375 C-303.56514098 144.13141056 -302.0438722 143.29825422 -300.52490234 142.4609375 C-268.31181816 124.73552175 -233.66107212 111.78392371 -198.44921875 101.4140625 C-197.29035156 101.07117188 -196.13148438 100.72828125 -194.9375 100.375 C-194.00292969 100.11074219 -193.06835938 99.84648437 -192.10546875 99.57421875 C-189.69250135 98.81189032 -189.69250135 98.81189032 -187.87158203 97.13110352 C-185.36745899 95.42720484 -184.4129024 95.44789486 -181.44921875 95.703125 C-174.96382225 95.89731982 -168.93498492 94.38526849 -162.66418457 92.92391968 C-145.79272765 89.01914312 -128.96829136 86.54509534 -111.75 84.6875 C-110.72358398 84.57567383 -109.69716797 84.46384766 -108.63964844 84.34863281 C-90.48590345 82.4090517 -72.37904613 81.45579382 -54.125 81.4375 C-53.23090424 81.43582825 -52.33680847 81.43415649 -51.4156189 81.43243408 C-37.75010408 81.43092553 -24.18414349 81.97623179 -10.5625 83.0625 C-9.7666449 83.12562378 -8.97078979 83.18874756 -8.15081787 83.25378418 C0.91332755 83.98981721 9.90455551 84.96899206 18.89916992 86.31323242 C23.44574028 86.821057 27.88442233 86.70275278 32.4453125 86.46484375 C35.25 86.6875 35.25 86.6875 37.53125 88.0703125 C41.37508719 90.3567329 45.25768595 90.85640545 49.625 91.625 C57.57493015 93.12093536 65.33400518 94.94052185 73.12939453 97.11474609 C75.52531238 97.76185906 77.93059118 98.36150066 80.33984375 98.95703125 C97.90988481 103.33449735 115.68771309 108.27862263 132.25 115.6875 C133.76819434 116.29826784 135.28881407 116.90306401 136.8125 117.5 C143.34771176 120.09809642 149.79344397 122.90129918 156.25 125.6875 C157.81427734 126.34105469 157.81427734 126.34105469 159.41015625 127.0078125 C164.84932815 129.33931803 170.16556092 131.94061098 175.5 134.5 C176.56863281 135.00853516 177.63726563 135.51707031 178.73828125 136.04101562 C184.92801008 139.00802416 190.96969555 142.12501831 196.91967773 145.54980469 C199.39536354 146.91882614 199.39536354 146.91882614 203.0625 147.125 C207.27111159 147.86769616 208.19824546 149.67816362 210.6953125 152.96484375 C213.15841871 155.69406445 215.80995963 156.51788628 219.25 157.6875 C219.25 158.3475 219.25 159.0075 219.25 159.6875 C219.97574219 159.95691406 220.70148437 160.22632813 221.44921875 160.50390625 C241.39003251 168.93077734 259.83294719 185.79778635 276.51611328 199.29003906 C278.04452006 200.5218893 279.58211656 201.74231883 281.12109375 202.9609375 C291.80569849 211.50227086 301.68442535 220.99523178 311.26953125 230.7421875 C313.23639874 232.67414018 315.27431336 234.46541669 317.375 236.25 C320.61550839 239.04026162 323.38406031 242.00612156 326.14453125 245.265625 C328.34493674 247.79670367 330.62060855 250.23992735 332.91748047 252.68310547 C338.98555352 259.13986836 344.7318919 265.74991265 350.25 272.6875 C351.16941877 273.81604542 352.09006036 274.94359538 353.01171875 276.0703125 C370.06254844 297.00274663 384.6236784 319.41313794 398.25 342.6875 C398.66572266 343.39358398 399.08144531 344.09966797 399.50976562 344.82714844 C433.47141555 402.88433885 458.45194184 473.44481882 462.58178711 540.91992188 C462.81356243 544.24774358 463.10113697 546.4445613 464.86328125 549.3203125 C466.73384121 552.51343739 465.9083505 554.09775712 465.25 557.6875 C465.18154678 559.65607794 465.16189228 561.6267928 465.18408203 563.59643555 C465.19850845 565.32009842 465.19850845 565.32009842 465.21322632 567.07858276 C465.22793976 568.31464264 465.2426532 569.55070251 465.2578125 570.82421875 C465.27801976 573.49649869 465.2971953 576.16877178 465.31542969 578.84106445 C465.32064573 579.53390282 465.32586178 580.22674118 465.33123589 580.94057465 C465.51738533 605.98085232 465.47990929 630.80995961 462.25 655.6875 C462.10546387 656.83105957 461.96092773 657.97461914 461.81201172 659.15283203 C455.87558855 704.69170614 443.70119405 750.54884643 425.25 792.6875 C424.86054199 793.58162598 424.47108398 794.47575195 424.06982422 795.39697266 C407.75476611 832.55589129 387.51701142 867.05580825 363.25 899.5625 C362.65131104 900.36453857 362.05262207 901.16657715 361.43579102 901.99291992 C358.08810645 906.41956776 354.60235791 910.66345383 350.91552734 914.81152344 C349.37453537 916.54722885 347.86303641 918.3028708 346.36328125 920.07421875 C336.35950101 931.87599481 325.92050437 943.10005515 315 954.0625 C314.16017578 954.90699707 313.32035156 955.75149414 312.45507812 956.62158203 C308.09497184 960.97048646 303.66707623 965.17190949 298.99658203 969.18603516 C296.72466238 971.13911118 294.52136909 973.16364729 292.3125 975.1875 C287.78886048 979.26427543 283.09854138 983.00849496 278.25 986.6875 C277.31929687 987.41324219 276.38859375 988.13898437 275.4296875 988.88671875 C252.87937559 1006.43526975 229.23479262 1021.82289286 204.25 1035.6875 C203.59547852 1036.05536621 202.94095703 1036.42323242 202.26660156 1036.80224609 C150.22111403 1066.00632261 91.30957626 1082.66773275 32.4375 1090.4375 C31.62766663 1090.5445929 30.81783325 1090.65168579 29.98345947 1090.76202393 C27.6289385 1091.07057708 25.273701 1091.37272092 22.91796875 1091.671875 C22.23642227 1091.76018585 21.55487579 1091.8484967 20.85267639 1091.93948364 C10.13459727 1093.27118056 -0.56710317 1093.84665837 -11.36328125 1093.890625 C-13.10438423 1093.90107849 -13.10438423 1093.90107849 -14.88066101 1093.91174316 C-18.60797801 1093.9290398 -22.33514453 1093.93546346 -26.0625 1093.9375 C-27.33633545 1093.93850708 -28.6101709 1093.93951416 -29.92260742 1093.94055176 C-49.39400821 1093.93013793 -68.44601423 1093.35442167 -87.75 1090.6875 C-88.78576172 1090.55359863 -89.82152344 1090.41969727 -90.88867188 1090.28173828 C-110.40294648 1087.71652532 -129.60871083 1083.20076012 -148.75 1078.6875 C-149.43273987 1078.52748505 -150.11547974 1078.36747009 -150.81890869 1078.2026062 C-160.72981914 1075.86352948 -170.35379431 1073.01710182 -180 1069.75 C-181.27068745 1069.32833617 -182.5415209 1068.90711206 -183.8125 1068.48632812 C-191.60892017 1065.86999833 -199.20878716 1062.96536063 -206.75 1059.6875 C-207.89831299 1059.19213745 -207.89831299 1059.19213745 -209.06982422 1058.68676758 C-211.07057236 1057.81906542 -213.06731538 1056.94290833 -215.0625 1056.0625 C-216.37097865 1055.48671752 -217.67957151 1054.91119453 -218.98828125 1054.3359375 C-219.54555908 1054.09020996 -220.10283691 1053.84448242 -220.67700195 1053.59130859 C-222.46335292 1052.81247556 -224.25804142 1052.05281669 -226.05419922 1051.296875 C-229.65140412 1049.75608817 -233.14705957 1048.04571668 -236.64453125 1046.2890625 C-237.27679123 1045.97222504 -237.90905121 1045.65538757 -238.56047058 1045.32894897 C-240.56210582 1044.32536324 -242.56233021 1043.31900268 -244.5625 1042.3125 C-245.89118176 1041.64564544 -247.21995714 1040.9789774 -248.54882812 1040.3125 C-251.10807763 1039.02864813 -253.66682169 1037.74379846 -256.22509766 1036.45800781 C-260.73035906 1034.19507973 -265.2394155 1031.93979541 -269.75 1029.6875 C-269.75 1029.0275 -269.75 1028.3675 -269.75 1027.6875 C-272.06 1027.0275 -274.37 1026.3675 -276.75 1025.6875 C-276.75 1025.0275 -276.75 1024.3675 -276.75 1023.6875 C-277.83063721 1023.29159668 -277.83063721 1023.29159668 -278.93310547 1022.88769531 C-281.81398946 1021.66023599 -284.21462796 1020.21693266 -286.8203125 1018.484375 C-287.79009033 1017.84056885 -288.75986816 1017.1967627 -289.7590332 1016.53344727 C-290.78730225 1015.84178467 -291.81557129 1015.15012207 -292.875 1014.4375 C-293.93871826 1013.72456787 -295.00243652 1013.01163574 -296.09838867 1012.27709961 C-312.99680774 1000.87543691 -329.19300306 988.82260156 -344.20703125 975.015625 C-346.32067054 973.08055738 -348.45659848 971.18541703 -350.625 969.3125 C-361.58914942 959.76671077 -372.40545235 949.89155559 -381.875 938.84375 C-384.09775991 936.2875761 -386.39222272 933.80371559 -388.6875 931.3125 C-393.27871908 926.26697738 -397.55162865 921.06084217 -401.75 915.6875 C-402.74126265 914.46018995 -403.73353148 913.23369218 -404.7265625 912.0078125 C-422.896255 889.36323474 -438.11281944 864.6533126 -451.70410156 839.04663086 C-454.29067146 834.18336361 -456.8972926 829.41223657 -459.86328125 824.76953125 C-462.86791942 819.84613124 -464.67662599 814.71437715 -466.52148438 809.26660156 C-467.69235458 805.85544155 -468.97491417 802.52213854 -470.328125 799.1796875 C-490.86811522 748.36722841 -504.74329409 693.44153478 -504.953125 638.34765625 C-504.96000336 637.11427521 -504.96688171 635.88089417 -504.97396851 634.61013794 C-504.99103566 630.65674482 -504.99762493 626.70342132 -505 622.75 C-505.00088371 622.07890324 -505.00176743 621.40780647 -505.00267792 620.71637344 C-505.02464427 601.93812166 -504.87332842 583.33022421 -502.18310547 564.70898438 C-501.87096531 562.5313933 -501.58694928 560.34970502 -501.32080078 558.16601562 C-500.18172729 548.91360495 -498.43035168 539.8926244 -496.375 530.8125 C-496.05766466 529.39233287 -495.74069234 527.97208458 -495.42407227 526.55175781 C-494.80952389 523.80144766 -494.19077793 521.05213976 -493.56787109 518.30371094 C-492.90752074 515.38397678 -492.25706266 512.46247327 -491.61328125 509.5390625 C-488.63649698 496.21665798 -485.11753249 482.73615037 -479.7421875 470.1640625 C-478.43878339 466.91068374 -477.38666771 463.58392274 -476.3125 460.25 C-474.56429822 454.87895448 -472.54267476 449.76353247 -470.11328125 444.6640625 C-469.08519899 442.41936713 -468.13637141 440.19187633 -467.23046875 437.8984375 C-463.06493907 427.36034331 -458.12525401 417.43354298 -452.67041016 407.50244141 C-451.61887374 405.5392031 -451.61887374 405.5392031 -450.75 402.6875 C-450.09 402.6875 -449.43 402.6875 -448.75 402.6875 C-448.35059204 401.37241455 -448.35059204 401.37241455 -447.94311523 400.03076172 C-446.78818576 396.7945014 -445.42315809 394.1365004 -443.66015625 391.1953125 C-443.0463208 390.16849365 -442.43248535 389.1416748 -441.80004883 388.08374023 C-441.14415771 387.00423096 -440.4882666 385.92472168 -439.8125 384.8125 C-439.13662842 383.69496338 -438.46075684 382.57742676 -437.7644043 381.42602539 C-432.39759063 372.61778934 -426.81634136 364.02844492 -420.75 355.6875 C-420.28029785 355.04055176 -419.8105957 354.39360352 -419.32666016 353.72705078 C-409.60050267 340.40510334 -399.40867553 327.39151894 -388.1640625 315.3125 C-386.27702615 313.26057698 -384.45744322 311.18223243 -382.64453125 309.06640625 C-378.39462592 304.19353201 -373.84178649 299.62877068 -369.26196289 295.0690918 C-367.81475615 293.62724779 -366.37297974 292.18012884 -364.93164062 290.73242188 C-359.70831807 285.50501488 -354.38685016 280.46689176 -348.75 275.6875 C-347.74039117 274.81046447 -346.73124432 273.93289671 -345.72265625 273.0546875 C-336.99398255 265.57966224 -327.97526662 258.53887903 -318.75 251.6875 C-317.7612085 250.95128418 -317.7612085 250.95128418 -316.75244141 250.20019531 C-295.73848917 234.66974375 -273.17647808 221.85249353 -249.83300781 210.22363281 C-247.32559423 208.97429434 -244.82920228 207.70684234 -242.3359375 206.4296875 C-218.73240221 194.58435981 -193.21686309 186.50711666 -167.81860352 179.5637207 C-165.14154124 178.79930217 -162.52549059 177.95376723 -159.8984375 177.03515625 C-155.78776479 175.62659413 -151.72968801 174.87197119 -147.4375 174.25 C-142.72636069 173.5292551 -138.04672203 172.79294654 -133.40234375 171.71484375 C-116.42887392 167.81709415 -99.08502131 166.8539759 -81.75 165.6875 C-81.01317993 165.63770996 -80.27635986 165.58791992 -79.51721191 165.53662109 C-70.46814904 164.93602615 -61.4474699 164.51762011 -52.375 164.5625 C-51.3017749 164.56733398 -50.2285498 164.57216797 -49.12280273 164.57714844 C-19.04585779 164.80135228 10.82153853 168.52829016 40.25 174.6875 C41.08821289 174.8628125 41.92642578 175.038125 42.79003906 175.21875 C51.70485591 177.12137035 60.40425486 179.54618393 69.0703125 182.36328125 C71.92395613 183.28500949 74.78718976 184.12676709 77.6796875 184.91796875 C109.72388312 193.79123086 140.79674879 209.26826324 169.53369141 225.78637695 C171.41013688 226.83033467 171.41013688 226.83033467 174.25 227.6875 C174.25 228.3475 174.25 229.0075 174.25 229.6875 C174.98178467 229.95900879 175.71356934 230.23051758 176.4675293 230.51025391 C179.14103739 231.64139859 181.35651447 232.91958688 183.76953125 234.5234375 C184.61918457 235.08716064 185.46883789 235.65088379 186.34423828 236.23168945 C187.24126465 236.83585693 188.13829102 237.44002441 189.0625 238.0625 C190.45831299 238.99872192 190.45831299 238.99872192 191.88232422 239.95385742 C204.15511357 248.24898378 215.92106637 257.14227081 227.25 266.6875 C227.7670752 267.1196582 228.28415039 267.55181641 228.81689453 267.99707031 C243.43829478 280.23403106 257.98150294 293.0923093 270.41796875 307.578125 C272.40311587 309.86379546 274.4503983 312.08451378 276.5 314.3125 C282.08827038 320.50798482 287.16317147 327.08057347 292.25 333.6875 C292.91829834 334.55375 292.91829834 334.55375 293.60009766 335.4375 C295.32273555 337.67090162 297.04512227 339.90439198 298.75708008 342.14599609 C300.52451858 344.45941209 302.30478518 346.75445966 304.1484375 349.0078125 C307.95020121 353.66970375 311.00519521 358.52242336 313.92724609 363.78125 C316.34482125 368.1317476 318.88022666 372.39217323 321.47998047 376.63623047 C356.41141604 433.83042485 376.14478404 498.05980827 381.25 564.6875 C381.30161285 565.35898071 381.35322571 566.03046143 381.40640259 566.72229004 C382.19213491 577.25068613 382.52903856 587.75747352 382.5625 598.3125 C382.56511841 599.11799286 382.56773682 599.92348572 382.57043457 600.75338745 C382.57924227 626.50490387 380.0298184 652.57032069 374.25 677.6875 C374.01442383 678.74565918 373.77884766 679.80381836 373.53613281 680.89404297 C365.27478481 717.80060454 353.14873549 752.84696226 336.25 786.6875 C335.84096436 787.52531006 335.43192871 788.36312012 335.01049805 789.22631836 C332.1874938 794.9761832 329.12357948 800.51758307 325.8125 806 C325.30098389 806.84884766 324.78946777 807.69769531 324.26245117 808.57226562 C315.63950596 822.74697008 306.46710002 836.60816275 296.25 849.6875 C295.3693322 850.8355852 294.4891493 851.98404247 293.609375 853.1328125 C288.56778216 859.67562845 283.37022127 865.94822822 277.734375 871.9921875 C275.81940541 874.06974884 273.97395187 876.17201285 272.13671875 878.31640625 C267.88981129 883.18701745 263.3391748 887.74882952 258.76196289 892.3059082 C257.31475615 893.74775221 255.87297974 895.19487116 254.43164062 896.64257812 C249.20903832 901.86965735 243.90033949 906.92432487 238.25 911.6875 C237.3072522 912.49030396 237.3072522 912.49030396 236.34545898 913.30932617 C219.57964442 927.50558588 202.07621513 940.35754144 183.25 951.6875 C182.4652832 952.16364746 181.68056641 952.63979492 180.87207031 953.13037109 C98.31453728 1002.89038438 -2.78777397 1022.67187044 -130.75 997.6875 C-136.43989549 996.16447512 -142.01170579 994.35252816 -147.57421875 992.42138672 C-149.92191227 991.62951433 -152.28356727 990.90478915 -154.65625 990.19140625 C-163.04369777 987.66253577 -171.01056251 984.94752136 -178.890625 981.08203125 C-180.84682918 980.12798085 -182.83128564 979.23034886 -184.8359375 978.3828125 C-190.35990812 976.04464386 -195.72739575 973.36287328 -201.125 970.75 C-208.28680261 967.2839257 -215.45061439 963.85570915 -222.75 960.6875 C-222.75 960.0275 -222.75 959.3675 -222.75 958.6875 C-223.430625 958.419375 -224.11125 958.15125 -224.8125 957.875 C-228.14710809 956.52696694 -231.44743237 955.11213702 -234.75 953.6875 C-234.75 953.0275 -234.75 952.3675 -234.75 951.6875 C-235.45125 951.419375 -236.1525 951.15125 -236.875 950.875 C-239.9149824 949.6193551 -242.8227774 948.18514877 -245.75 946.6875 C-245.75 946.0275 -245.75 945.3675 -245.75 944.6875 C-246.72066406 944.38005859 -246.72066406 944.38005859 -247.7109375 944.06640625 C-252.00037728 942.12016944 -255.58873133 939.40624952 -259.375 936.625 C-260.17897217 936.0386377 -260.98294434 935.45227539 -261.8112793 934.84814453 C-267.97172452 930.32556841 -273.91974123 925.63016714 -279.75 920.6875 C-280.73742187 919.8728125 -281.72484375 919.058125 -282.7421875 918.21875 C-296.59230136 906.74618195 -310.20820923 894.45126834 -321.92578125 880.78515625 C-323.1696954 879.35478816 -324.43934069 877.94649275 -325.73046875 876.55859375 C-388.44558218 809.04560278 -420.31220186 716.02514137 -422.30761719 625.01782227 C-422.37571288 621.96807263 -422.4532387 618.91865097 -422.53125 615.86914062 C-422.57608665 613.9297005 -422.62037798 611.99024767 -422.6640625 610.05078125 C-422.69990952 608.68376823 -422.69990952 608.68376823 -422.73648071 607.28913879 C-422.7533493 606.45033676 -422.7702179 605.61153473 -422.78759766 604.74731445 C-422.81305161 603.64030937 -422.81305161 603.64030937 -422.83901978 602.51094055 C-422.75 600.6875 -422.75 600.6875 -421.75 598.6875 C-421.53941375 596.86106212 -421.37897687 595.02875477 -421.2421875 593.1953125 C-418.96471846 565.56495856 -414.32507148 538.10323337 -405.75 511.6875 C-405.36908203 510.49302246 -404.98816406 509.29854492 -404.59570312 508.06787109 C-403.31001286 504.03963289 -402.0016547 500.01902805 -400.6875 496 C-400.47966888 495.35911438 -400.27183777 494.71822876 -400.05770874 494.05792236 C-397.81204978 487.16546398 -395.40886695 480.59470536 -392.03393555 474.17504883 C-390.60701855 471.41048194 -389.32800731 468.60196639 -388.05859375 465.76171875 C-376.19365579 439.3060023 -361.75339828 414.47968099 -343.75 391.6875 C-343.28303711 391.09195312 -342.81607422 390.49640625 -342.33496094 389.8828125 C-325.78556452 368.84490716 -307.02205622 348.0002352 -285.75 331.6875 C-284.65072576 330.79133041 -283.55458578 329.89130795 -282.4609375 328.98828125 C-265.97433892 315.42988264 -248.51347186 303.84448914 -229.75 293.6875 C-228.81752441 293.17944824 -227.88504883 292.67139648 -226.92431641 292.14794922 C-186.4587839 270.20648546 -143.39347488 256.65618604 -97.75 250.6875 C-97.09587128 250.60029694 -96.44174255 250.51309387 -95.76779175 250.42324829 C-81.94629317 248.62698882 -68.23772311 248.32821241 -54.3125 248.375 C-53.2142691 248.37649048 -52.11603821 248.37798096 -50.98452759 248.3795166 C-34.05883402 248.42076087 -17.48675623 248.96985987 -0.75 251.6875 C0.18360352 251.83735352 1.11720703 251.98720703 2.07910156 252.14160156 C7.34975015 253.01602054 12.5782726 254.02661009 17.79931641 255.15917969 C20.18877801 255.67430171 22.5834891 256.15411034 24.98046875 256.6328125 C36.67064022 259.08713522 47.90218538 262.76333743 59.1875 266.625 C59.92953674 266.87789795 60.67157349 267.1307959 61.43609619 267.39135742 C71.24227478 270.74956711 80.77137663 274.49283956 90.25 278.6875 C91.44439697 279.19651855 92.63879395 279.70553711 93.86938477 280.22998047 C124.62889969 293.49164755 152.67715734 312.47090902 178.1484375 334.078125 C180.24991372 335.86843335 180.24991372 335.86843335 183.25 336.6875 C183.25 337.3475 183.25 338.0075 183.25 338.6875 C183.82878906 338.92855469 184.40757812 339.16960937 185.00390625 339.41796875 C187.68703602 340.93452036 189.18789562 342.65497451 191.1875 345 C194.88441369 349.22678435 198.73880199 353.19699289 202.75 357.125 C207.45574572 361.771983 211.8084962 366.53888939 215.91015625 371.73828125 C217.59372837 373.86031289 219.2961489 375.92674984 221.05859375 377.98046875 C235.47063349 394.94377939 247.84211917 414.03059903 258.25 433.6875 C258.88421875 434.81542969 259.5184375 435.94335938 260.171875 437.10546875 C269.63866242 454.02230943 277.22274835 471.8978864 282.52539062 490.54052734 C284.28437748 496.73933253 284.28437748 496.73933253 288.0390625 501.83203125 C290.25 504.6875 290.25 504.6875 290.24853516 506.56225586 C289.99854209 508.05760999 289.74128233 509.5517594 289.47851562 511.04492188 C288.99902847 516.5897605 290.77980007 522.06005871 292 527.4375 C296.9601391 550.77417866 298.52076898 573.67644381 298.625 597.5 C298.63705475 599.03124008 298.63705475 599.03124008 298.64935303 600.59341431 C298.76579213 620.08676993 296.83642534 639.2409158 293.0625 658.375 C292.85455811 659.43203125 292.64661621 660.4890625 292.43237305 661.578125 C285.93515241 693.37847504 274.81753108 722.76502495 260.25 751.6875 C259.88696777 752.42000977 259.52393555 753.15251953 259.14990234 753.90722656 C243.92105752 784.54666274 221.60924543 811.54183229 197.5625 835.625 C197.03498138 836.15385803 196.50746277 836.68271606 195.96395874 837.2276001 C188.15445074 845.03282487 180.19246808 852.20250406 171.25 858.6875 C169.67633593 859.93151873 168.1027089 861.17560073 166.53393555 862.42578125 C119.36805477 899.70262356 59.63096932 920.77531305 0.25 926.6875 C-0.99007812 926.81898438 -2.23015625 926.95046875 -3.5078125 927.0859375 C-31.8134112 929.60956919 -60.98182356 927.4654503 -88.75 921.6875 C-89.80461426 921.47077637 -90.85922852 921.25405273 -91.94580078 921.03076172 C-105.91930312 918.11231068 -119.37012457 914.50044167 -132.72460938 909.44970703 C-135.44768198 908.42494417 -138.1933127 907.46653006 -140.9375 906.5 C-150.66999065 903.03993765 -159.95633878 898.29268779 -169.3125 893.9375 C-170.62041061 893.32935805 -171.92835309 892.72128463 -173.23632812 892.11328125 C-176.40791943 890.63880979 -179.57907993 889.16341452 -182.75 887.6875 C-182.75 887.0275 -182.75 886.3675 -182.75 885.6875 C-183.40355469 885.45804688 -184.05710937 885.22859375 -184.73046875 884.9921875 C-188.72766935 883.26506589 -192.35195393 881.08194956 -196.0625 878.8125 C-196.85285645 878.3292627 -197.64321289 877.84602539 -198.45751953 877.34814453 C-205.95006672 872.68980632 -212.9537143 867.49621893 -219.91894531 862.09228516 C-221.6857881 860.73676337 -223.47252217 859.41527152 -225.2734375 858.10546875 C-226.33820313 857.32816406 -227.40296875 856.55085937 -228.5 855.75 C-229.42296875 855.08097656 -230.3459375 854.41195312 -231.296875 853.72265625 C-233.86475312 851.59229876 -235.71219354 849.318431 -237.75 846.6875 C-238.82332162 845.69474247 -239.92850143 844.73534021 -241.0625 843.8125 C-251.62633504 834.75213212 -261.18898486 824.64320469 -269.75 813.6875 C-270.70054295 812.52392756 -271.65384331 811.36260416 -272.609375 810.203125 C-288.0042871 791.44134612 -300.43814378 770.64195414 -310.75 748.6875 C-311.04326172 748.06375488 -311.33652344 747.44000977 -311.63867188 746.79736328 C-337.59530267 690.9385782 -345.82497927 626.17571732 -333.75 565.6875 C-333.49694092 564.41422852 -333.49694092 564.41422852 -333.23876953 563.11523438 C-330.58262728 550.04540326 -327.02771778 537.45754324 -322.54052734 524.89990234 C-321.88299132 523.05969499 -321.24556079 521.21231866 -320.61328125 519.36328125 C-314.32982836 501.86771912 -305.14209662 485.2495495 -296.75 468.6875 C-296.09 468.6875 -295.43 468.6875 -294.75 468.6875 C-294.52183594 468.01589844 -294.29367187 467.34429688 -294.05859375 466.65234375 C-292.38457207 462.85956031 -290.17923136 459.64187772 -287.8125 456.25 C-287.32668457 455.54915283 -286.84086914 454.84830566 -286.34033203 454.1262207 C-281.80557538 447.64977034 -276.99617313 441.41815248 -272.02587891 435.27197266 C-270.83164663 433.7888943 -269.65536263 432.29141344 -268.48046875 430.79296875 C-261.09295647 421.48869653 -252.76814598 413.06438516 -243.7109375 405.375 C-242.315936 404.17452062 -240.94864583 402.94151212 -239.6015625 401.6875 C-205.77139882 370.2175803 -162.24184944 349.69013424 -117.75 338.6875 C-116.98220215 338.49172363 -116.2144043 338.29594727 -115.42333984 338.09423828 C-76.51314413 328.31329995 -32.73271176 328.65841603 6.25 337.6875 C7.219375 337.90019531 8.18875 338.11289062 9.1875 338.33203125 C16.19151163 339.959322 22.88166873 342.26115566 29.65820312 344.63378906 C34.88883792 346.40330169 39.61816556 347.12082345 45.14453125 347.36328125 C48.53656042 347.88561598 50.00047895 350.21302684 52.25 352.6875 C54.30448743 353.80529333 54.30448743 353.80529333 56.75 354.8125 C77.07042313 363.5760248 95.84188612 375.07475978 113.25 388.6875 C114.075 389.31914063 114.9 389.95078125 115.75 390.6015625 C131.68239874 403.01044998 146.99758088 417.63486533 159.25 433.6875 C159.65750488 434.21327637 160.06500977 434.73905273 160.48486328 435.28076172 C195.69770364 480.88687753 215.44100923 536.14665328 215.43530273 593.83935547 C215.43747789 596.287615 215.45567128 598.73541405 215.47460938 601.18359375 C215.53442814 617.18777848 213.93660718 632.53986852 210.1875 648.125 C209.72960083 650.03962036 209.72960083 650.03962036 209.26245117 651.99291992 C203.79457962 674.40573321 195.92500161 695.23982499 185.25 715.6875 C184.68732422 716.76741211 184.68732422 716.76741211 184.11328125 717.86914062 C163.07171073 757.65463891 129.66712264 789.88667715 91.25 812.6875 C90.30423096 813.24945068 90.30423096 813.24945068 89.33935547 813.82275391 C68.0445318 826.26565745 44.46237957 834.08367527 20.5 839.4375 C19.6143335 839.63641846 18.72866699 839.83533691 17.81616211 840.0402832 C3.60671442 843.06265957 -10.3180808 844.03862394 -24.80273438 844.00317383 C-27.48348968 844.00001943 -30.16313027 844.0235624 -32.84375 844.04882812 C-50.38837577 844.11509564 -67.09009562 841.37452876 -84.125 837.3125 C-85.34832031 837.0340625 -86.57164062 836.755625 -87.83203125 836.46875 C-112.85790863 830.589655 -137.90476255 818.76186964 -158.75 803.6875 C-159.67159912 803.02645264 -159.67159912 803.02645264 -160.61181641 802.35205078 C-169.88594225 795.67078861 -178.53997549 788.65426452 -186.75 780.6875 C-187.34167969 780.12160156 -187.93335938 779.55570313 -188.54296875 778.97265625 C-202.81289689 765.29117876 -214.24470595 750.41682101 -224.75 733.6875 C-225.18699219 732.99237305 -225.62398437 732.29724609 -226.07421875 731.58105469 C-242.46090025 705.02202552 -251.09544319 674.48187308 -254.75 643.6875 C-254.94722656 642.06714844 -254.94722656 642.06714844 -255.1484375 640.4140625 C-257.29557305 619.2328605 -255.53996039 597.38458467 -250.75 576.6875 C-250.45816025 575.32192901 -250.16785193 573.95603003 -249.87890625 572.58984375 C-246.50402939 557.00743246 -241.2303099 542.70545628 -233.76904297 528.62402344 C-232.7729911 526.7311908 -231.80737002 524.82552973 -230.84765625 522.9140625 C-221.50075972 504.53023079 -208.85151474 488.64242053 -194.75 473.6875 C-194.02039063 472.90375 -193.29078125 472.12 -192.5390625 471.3125 C-186.18923328 464.70301233 -179.06266269 459.17748042 -171.75 453.6875 C-170.91726563 453.05972656 -170.08453125 452.43195313 -169.2265625 451.78515625 C-141.42353399 431.62084376 -108.89869135 418.98610949 -74.75 415.6875 C-73.5424707 415.5493689 -73.5424707 415.5493689 -72.31054688 415.40844727 C-23.11678812 409.91163871 26.7855356 425.87578854 65.27880859 456.55541992 C73.92508173 463.59918351 82.21899379 471.00036814 89.25 479.6875 C90.06855469 480.66847656 90.88710938 481.64945313 91.73046875 482.66015625 C113.69391271 509.41075702 127.58977178 541.72915056 131.79296875 576.09375 C132.16362592 578.75540372 132.16362592 578.75540372 133.36328125 581.34375 C134.25 583.6875 134.25 583.6875 133.25 586.6875 C133.12487216 588.2719247 133.04884012 589.86049613 133.00390625 591.44921875 C132.97272705 592.39482666 132.94154785 593.34043457 132.90942383 594.31469727 C132.87743896 595.32459717 132.8454541 596.33449707 132.8125 597.375 C131.06118187 641.16472826 115.12129465 682.11352034 84.25 713.6875 C83.51394531 714.47382812 82.77789063 715.26015625 82.01953125 716.0703125 C63.02322858 735.93165628 36.78269401 749.9830659 10.25 756.6875 C9.48365234 756.88359863 8.71730469 757.07969727 7.92773438 757.28173828 C-21.59050497 764.49612811 -54.72200191 762.66374918 -82.75 750.6875 C-83.43094727 750.39713867 -84.11189453 750.10677734 -84.81347656 749.80761719 C-98.58092121 743.82925722 -111.29148435 736.3945845 -122.75 726.6875 C-123.25724609 726.25856445 -123.76449219 725.82962891 -124.28710938 725.38769531 C-141.48262998 710.68759563 -153.04567102 692.96520234 -162.75 672.6875 C-163.08273926 672.06842773 -163.41547852 671.44935547 -163.75830078 670.81152344 C-166.34432909 665.94610102 -167.81707652 661.33450918 -168.875 655.9375 C-169.03967773 655.12474609 -169.20435547 654.31199219 -169.37402344 653.47460938 C-176.32795025 617.47943177 -171.5370417 582.4879874 -151.640625 551.390625 C-147.16915107 545.05901792 -142.07199302 539.31208125 -136.75 533.6875 C-135.97914063 532.8521875 -135.20828125 532.016875 -134.4140625 531.15625 C-113.63135056 509.36466855 -85.36678376 498.95668785 -55.7578125 497.4375 C-25.36006627 496.89589205 2.5668925 509.96170408 24.25 530.6875 C24.75789062 531.15671875 25.26578125 531.6259375 25.7890625 532.109375 C29.21751313 535.81283504 31.62911837 540.39925828 34.25 544.6875 C34.92933594 545.77933594 35.60867188 546.87117187 36.30859375 547.99609375 C47.93531694 567.12277955 52.42844361 589.8349105 48.0625 611.9375 C42.30149949 635.14227415 30.23435144 655.57994093 9.5625 668.4375 C-6.5255678 677.39847041 -25.95493809 680.58912936 -44.0625 676.6875 C-60.48545197 671.62707543 -74.51862333 662.48084033 -83.3515625 647.46484375 C-85.59254519 643.01417702 -87.31283807 638.45485975 -88.75 633.6875 C-89.03617188 632.78644531 -89.03617188 632.78644531 -89.328125 631.8671875 C-91.5189922 620.54770697 -89.89072416 609.92586963 -84.75 599.6875 C-84.41226563 598.96433594 -84.07453125 598.24117187 -83.7265625 597.49609375 C-79.35831164 589.36720586 -72.13178065 581.8619192 -63.234375 579.0390625 C-55.09817798 577.04630535 -48.25111364 576.75570184 -40.875 581.0625 C-35.31653772 584.70130735 -30.9168062 588.32891427 -29.14453125 594.94921875 C-28.54007996 598.5699418 -28.56587719 601.11058188 -29.6875 604.625 C-32.73430018 607.67180018 -35.54302356 607.9288649 -39.75 608.6875 C-39.09 607.6975 -38.43 606.7075 -37.75 605.6875 C-37.21405607 600.8640046 -38.05925018 597.72362473 -40.75 593.6875 C-45.50900201 590.28821285 -50.10503261 589.8888551 -55.75 590.6875 C-62.88914459 592.5214087 -68.35956455 595.7090347 -72.75 601.6875 C-77.87374144 610.93522844 -79.2921852 620.46126079 -77.06640625 630.890625 C-73.02366368 643.97502005 -65.15925718 653.63826645 -53.30859375 660.40234375 C-40.18938986 666.99198967 -24.38733453 667.70424887 -10.38671875 663.59765625 C3.32119947 658.86588596 18.15710897 649.79692894 25.25 636.6875 C26.29885114 634.31600124 27.23782731 631.92698754 28.140625 629.49609375 C29.82690774 625.22694836 31.91816679 621.15709258 33.98046875 617.05859375 C40.06490949 600.90206343 37.31166446 578.90074281 30.44921875 563.56640625 C22.36127109 546.32266944 9.81524421 528.54286403 -8.75 521.6875 C-8.75 521.0275 -8.75 520.3675 -8.75 519.6875 C-10.83476859 518.99257714 -12.92013575 518.299418 -15.0078125 517.61328125 C-16.84562236 516.99282407 -18.67406278 516.3439382 -20.4921875 515.66796875 C-32.01116107 511.50053522 -43.41626646 510.52770278 -55.5625 510.4375 C-56.85111938 510.42348145 -56.85111938 510.42348145 -58.16577148 510.40917969 C-68.47891047 510.19280353 -68.47891047 510.19280353 -77.40307617 514.24633789 C-77.84756104 514.72192139 -78.2920459 515.19750488 -78.75 515.6875 C-80.8515625 515.91796875 -80.8515625 515.91796875 -83.375 515.875 C-103.19495989 517.21206079 -121.20049032 533.71822005 -133.94189453 547.60888672 C-148.0876338 563.87094777 -155.87825956 584.52402154 -158.75 605.6875 C-158.92660156 606.59242188 -159.10320313 607.49734375 -159.28515625 608.4296875 C-163.57576162 638.49998062 -153.89860344 670.70760212 -136.07519531 694.93359375 C-118.45366909 718.25582005 -94.2152696 736.11020657 -65.75 743.6875 C-65.08677734 743.88069824 -64.42355469 744.07389648 -63.74023438 744.27294922 C-41.03694943 750.74074551 -12.32484906 750.52226738 10.25 743.6875 C11.46067139 743.33341064 11.46067139 743.33341064 12.69580078 742.97216797 C36.84320906 735.73494473 57.20542951 723.08279059 75.25 705.6875 C75.89324219 705.09582031 76.53648437 704.50414062 77.19921875 703.89453125 C82.03033434 699.33368786 85.980208 694.06675628 89.94921875 688.76171875 C91.23976702 687.03733592 92.54396065 685.32231848 93.89453125 683.64453125 C97.0210935 679.66784633 98.10883949 675.92160238 99.3828125 671.140625 C100.28805765 668.57984142 101.32720833 667.06796417 103.0625 665 C121.39827512 642.21643785 121.30170244 602.0807879 118.78515625 574.85546875 C114.87269987 540.82489199 99.35983205 508.90164455 76.23828125 483.86328125 C74.64293179 482.11748626 73.15064268 480.35461898 71.6875 478.5 C62.70042606 468.1302993 47.39203239 455.06817746 34.25 450.6875 C34.25 450.0275 34.25 449.3675 34.25 448.6875 C32.99703125 448.30078125 32.99703125 448.30078125 31.71875 447.90625 C27.25054731 446.33634095 23.0761674 444.31063941 18.81640625 442.25390625 C12.78620831 439.38062175 6.85592361 437.51800681 0.30078125 436.25 C-1.75 435.6875 -1.75 435.6875 -4.75 433.6875 C-51.12112152 419.96379236 -101.71293125 427.94515509 -143.90893555 450.37573242 C-156.42045239 457.23541652 -167.59984751 465.20876564 -177.94140625 475.03125 C-180.55556439 477.50361096 -183.23027532 479.88065698 -185.9375 482.25 C-216.27938131 509.69758421 -233.8131803 549.97420722 -240.75 589.6875 C-240.86859375 590.35330078 -240.9871875 591.01910156 -241.109375 591.70507812 C-249.71394955 642.46182445 -235.45173632 698.14262113 -206.0859375 740.06298828 C-199.82143977 748.70034663 -193.15051372 756.99516791 -185.75 764.6875 C-185.23276367 765.23583496 -184.71552734 765.78416992 -184.18261719 766.34912109 C-144.69358312 808.06683292 -89.9398149 829.64456582 -33.04296875 832.03125 C-5.34857121 832.6952815 22.11523151 827.68565494 48.25 818.6875 C49.7659375 818.17316406 49.7659375 818.17316406 51.3125 817.6484375 C78.8074155 807.6958509 103.57784849 792.50045789 125.03125 772.71875 C127.02015799 770.89791875 129.05682976 769.16662594 131.125 767.4375 C140.20747933 759.49262414 148.05836112 750.16959056 155.04443359 740.36425781 C156.35866188 738.536368 157.70394736 736.73367009 159.05078125 734.9296875 C175.4046404 712.75623597 187.60820573 687.46600689 194.25 660.6875 C194.65866407 659.22968256 195.07034363 657.77270843 195.484375 656.31640625 C204.67043092 623.20663611 205.48688024 585.44002838 199.25 551.6875 C199.00332327 550.17196977 198.75721829 548.65634636 198.51171875 547.140625 C194.25672414 522.77998897 184.66523506 499.4754829 173.25 477.6875 C172.8492627 476.91245117 172.44852539 476.13740234 172.03564453 475.33886719 C161.6608068 455.4353824 147.67299107 437.90468197 132.25 421.6875 C131.71213867 421.12095703 131.17427734 420.55441406 130.62011719 419.97070312 C122.40279311 411.37835386 113.84106248 403.71053048 104.25 396.6875 C103.54343262 396.16849121 102.83686523 395.64948242 102.10888672 395.11474609 C99.87244428 393.48145505 97.62656159 391.86237525 95.375 390.25 C94.68559326 389.7535498 93.99618652 389.25709961 93.28588867 388.74560547 C88.78397661 385.5730771 84.22951511 383.0435793 79.25 380.6875 C79.25 380.0275 79.25 379.3675 79.25 378.6875 C78.54528564 378.41583008 77.84057129 378.14416016 77.11450195 377.86425781 C74.14601023 376.64478026 71.29464288 375.28165481 68.41796875 373.859375 C50.37550416 365.00487817 32.74775526 357.71005102 13.25 352.6875 C12.06204834 352.37103516 10.87409668 352.05457031 9.65014648 351.72851562 C0.59846291 349.35113077 -8.38435919 347.57602695 -17.6875 346.4375 C-18.37010895 346.35378143 -19.0527179 346.27006287 -19.75601196 346.18380737 C-45.59985376 343.10878458 -73.17066255 342.50116602 -98.75 347.6875 C-99.76529785 347.88085938 -100.7805957 348.07421875 -101.82666016 348.2734375 C-126.49846304 353.02379503 -150.20600607 360.56079697 -172.75 371.6875 C-173.93964355 372.26902832 -173.93964355 372.26902832 -175.15332031 372.86230469 C-205.68358821 387.92390352 -234.55588497 409.7749992 -256.75 435.6875 C-257.63116787 436.69431032 -258.51269564 437.70080573 -259.39453125 438.70703125 C-308.7477889 495.49065257 -330.38677118 570.56165845 -325.60290527 644.97558594 C-321.12090822 703.92880905 -297.45664759 761.27339031 -259.75 806.6875 C-259.2947998 807.24421387 -258.83959961 807.80092773 -258.37060547 808.37451172 C-215.68547144 860.45956758 -155.90353534 893.81433152 -90.75 908.6875 C-90.01475098 908.85765625 -89.27950195 909.0278125 -88.52197266 909.203125 C-76.89428108 911.83431197 -65.13549254 912.63374061 -53.2668457 913.43798828 C-50.75 913.6875 -50.75 913.6875 -48.40307617 914.20385742 C-44.9730631 914.82913173 -41.59892693 914.84940284 -38.125 914.85546875 C-37.02233795 914.86182091 -37.02233795 914.86182091 -35.8973999 914.86830139 C-33.51487514 914.8781881 -31.13254167 914.87822046 -28.75 914.875 C-27.93599731 914.87439575 -27.12199463 914.8737915 -26.2833252 914.87316895 C-13.67030713 914.84769061 -1.25326955 914.47611154 11.25 912.6875 C12.17570801 912.55859375 13.10141602 912.4296875 14.05517578 912.296875 C46.72495782 907.62280782 78.61149661 898.30064653 108.25 883.6875 C109.15379395 883.24712402 110.05758789 882.80674805 110.98876953 882.35302734 C139.2364767 868.48246234 166.61705585 850.06686582 188.58984375 827.34765625 C190.25 825.6875 190.25 825.6875 193.3125 823.1875 C196.31516324 820.63204193 198.75253114 817.94321331 201.296875 814.9453125 C202.62606941 813.40876376 203.9927793 811.9040576 205.390625 810.4296875 C223.12151115 791.83500502 223.12151115 791.83500502 235.25 769.6875 C235.91 769.6875 236.57 769.6875 237.25 769.6875 C238.32525194 767.03521188 239.34456151 764.40381546 240.25 761.6875 C240.91 761.6875 241.57 761.6875 242.25 761.6875 C242.52094482 760.9752124 242.79188965 760.2629248 243.07104492 759.52905273 C244.26552675 756.65007697 245.63482324 753.965925 247.11328125 751.22265625 C255.06510837 736.49324291 255.06510837 736.49324291 261.16015625 720.94921875 C262.17846828 717.90158238 263.38242483 714.99252847 264.67089844 712.05078125 C286.23132054 662.45944893 290.93015936 603.84169563 283.25 550.6875 C283.07839355 549.49286133 282.90678711 548.29822266 282.72998047 547.06738281 C271.85668984 473.74311912 234.69165907 395.42644733 176.06640625 347.91796875 C174.76384446 346.95564727 173.45298448 346.00442318 172.1328125 345.06640625 C170.13018671 343.59975292 168.29272936 342.02367549 166.4375 340.375 C143.11681878 319.79001408 115.95616392 303.00054467 87.41186523 290.62597656 C85.97776828 290.00342787 84.54997657 289.3661355 83.12915039 288.71386719 C76.8169914 285.82301942 70.34914617 283.45586661 63.8125 281.125 C62.74451172 280.73892578 61.67652344 280.35285156 60.57617188 279.95507812 C47.47931042 275.13070548 47.47931042 275.13070548 33.76953125 273.09375 C31.25 272.6875 31.25 272.6875 28.19921875 271.3125 C23.11057471 269.02141406 17.70817196 268.19948164 12.25 267.1875 C11.23421875 266.98769531 10.2184375 266.78789062 9.171875 266.58203125 C5.53974129 265.89332957 1.89957781 265.27478064 -1.75 264.6875 C-2.94965897 264.49107407 -2.94965897 264.49107407 -4.17355347 264.29067993 C-19.07554059 261.91437994 -33.69687603 261.24381771 -48.77514648 261.35131836 C-52.31322005 261.37500482 -55.85053828 261.37183491 -59.38867188 261.36523438 C-79.71148034 261.38785189 -99.5061784 262.79356321 -119.4375 266.8125 C-120.57931732 267.03826218 -120.57931732 267.03826218 -121.74420166 267.26858521 C-150.42660285 272.97092947 -178.32027439 282.1544014 -204.75 294.6875 C-205.54083984 295.06100586 -206.33167969 295.43451172 -207.14648438 295.81933594 C-235.17010784 309.16444767 -262.38733902 326.25882782 -285.23828125 347.38671875 C-287.23927826 349.21966935 -289.26832804 350.98896829 -291.328125 352.75390625 C-296.31596902 357.10815141 -301.00645124 361.75788503 -305.68579102 366.43798828 C-307.17641615 367.92643237 -308.67487017 369.40667277 -310.17382812 370.88671875 C-316.48330721 377.1593836 -322.22077772 383.70517743 -327.75 390.6875 C-328.77417672 391.93100064 -329.80112091 393.17223232 -330.83203125 394.41015625 C-342.19788423 408.24013428 -351.77525972 423.22282914 -360.75 438.6875 C-361.29237305 439.60982422 -361.29237305 439.60982422 -361.84570312 440.55078125 C-378.00416803 468.08001776 -389.70681298 497.82493143 -397.75 528.6875 C-398.01651367 529.69248535 -398.28302734 530.6974707 -398.55761719 531.73291016 C-403.29645659 549.87369043 -405.823521 568.0722759 -407.75 586.6875 C-407.8545752 587.59975342 -407.95915039 588.51200684 -408.06689453 589.4519043 C-409.19346587 600.50096938 -408.99400351 611.65619548 -409 622.75 C-409.00067474 623.86931915 -409.00134949 624.98863831 -409.00204468 626.14187622 C-408.98602834 642.86338132 -408.49122498 659.15920841 -405.75 675.6875 C-405.58371094 676.75194336 -405.41742188 677.81638672 -405.24609375 678.91308594 C-398.37636208 722.28144755 -384.0820116 764.30610119 -362.75 802.6875 C-362.32106445 803.46544922 -361.89212891 804.24339844 -361.45019531 805.04492188 C-351.92932053 822.2234313 -340.96057647 838.31356175 -328.75 853.6875 C-327.73873047 854.98880859 -327.73873047 854.98880859 -326.70703125 856.31640625 C-322.4058885 861.80229491 -317.83710982 866.98022227 -313.11328125 872.10546875 C-311.15435897 874.24571277 -309.254805 876.41588609 -307.375 878.625 C-300.82776369 886.14735662 -293.64303595 893.27823544 -286.04296875 899.734375 C-284.17099222 901.32890356 -282.32632179 902.94500642 -280.48828125 904.578125 C-254.87564084 927.23914829 -225.72547918 946.18817961 -194.75 960.6875 C-194.03054199 961.03055176 -193.31108398 961.37360352 -192.56982422 961.72705078 C-170.11996461 972.39491804 -146.8302633 980.5793747 -122.75 986.6875 C-121.37714844 987.04086426 -121.37714844 987.04086426 -119.9765625 987.40136719 C-104.4199157 991.35253002 -88.67126137 993.73927181 -72.75 995.6875 C-72.06926422 995.77543823 -71.38852844 995.86337646 -70.68716431 995.95397949 C-56.89163026 997.71767869 -43.21100791 998.08705727 -29.3125 998.0625 C-28.20182159 998.06228851 -27.09114319 998.06207703 -25.94680786 998.06185913 C-5.98038116 998.02414987 13.52636689 996.76292108 33.25 993.6875 C34.42127441 993.50558105 35.59254883 993.32366211 36.79931641 993.13623047 C96.80406014 983.42613528 153.89623425 958.95040799 203.25 923.6875 C204.12688477 923.06149902 204.12688477 923.06149902 205.02148438 922.42285156 C212.4605149 917.07015952 219.43236159 911.23985236 226.37011719 905.26416016 C227.76922226 904.09072891 229.19023684 902.94332325 230.62207031 901.81005859 C237.92741703 896.00013739 244.55035796 889.69565803 251.12109375 883.07714844 C252.87281575 881.31469762 254.63499428 879.56321432 256.3984375 877.8125 C263.14139388 871.0774115 269.33743468 864.17096052 275.25 856.6875 C276.11300003 855.65962389 276.98140492 854.6362129 277.859375 853.62109375 C308.85998601 817.47257106 333.54192674 773.0800419 347.6262207 727.67163086 C349.14824919 722.83032927 350.7950424 718.02818902 352.42578125 713.22265625 C364.59404441 676.04882138 369.47040747 636.02953139 369.5 597 C369.50067474 596.18612823 369.50134949 595.37225647 369.50204468 594.53372192 C369.39547769 512.29886652 344.59001548 432.74762688 299.1875 364.25 C298.77628906 363.62719147 298.36507812 363.00438293 297.94140625 362.36270142 C292.18271467 353.66875024 286.03552459 345.38864454 279.50456238 337.26029968 C278.21781835 335.64715502 276.95036126 334.0204536 275.68798828 332.38818359 C271.31522595 326.57852384 271.31522595 326.57852384 265.4375 322.5 C262.09389499 320.59873441 261.82862143 320.29775639 260.4453125 317.01953125 C258.28583866 312.45482733 255.43281918 309.16584121 251.9375 305.5625 C251.32720947 304.9221582 250.71691895 304.28181641 250.08813477 303.62207031 C228.21171638 280.9122911 196.66517345 248.82589115 166.25 238.6875 C166.25 238.0275 166.25 237.3675 166.25 236.6875 C164.6 236.3575 162.95 236.0275 161.25 235.6875 C161.25 235.0275 161.25 234.3675 161.25 233.6875 C160.53118652 233.41292969 159.81237305 233.13835937 159.07177734 232.85546875 C156.30925165 231.712025 153.73377389 230.41574089 151.1015625 229 C134.2035929 220.00536729 117.05822401 211.13950484 98.70703125 205.46875 C96.28254521 204.69784824 93.97256127 203.79097932 91.625 202.8125 C86.87431306 200.87218702 82.04883399 199.20017991 77.1875 197.5625 C76.4435498 197.30871582 75.69959961 197.05493164 74.93310547 196.79345703 C70.48212008 195.31110156 66.05563224 194.1530634 61.46704102 193.18359375 C58.58159048 192.53793408 55.76215993 191.71824661 52.92578125 190.88647461 C44.25784494 188.35086981 35.64173148 186.467396 26.72363281 185.07763672 C23.97657494 184.64437591 21.23477398 184.18334965 18.4921875 183.72265625 C-11.03730926 178.85459822 -39.89574502 177.10298204 -69.75 177.6875 C-71.32297852 177.71070313 -71.32297852 177.71070313 -72.92773438 177.734375 C-109.63715758 178.36143988 -146.75589328 186.1072943 -181.75 196.6875 C-182.78141113 196.99913086 -183.81282227 197.31076172 -184.87548828 197.63183594 C-223.14961865 209.3922174 -259.1753632 226.97068718 -292.75 248.6875 C-293.76707031 249.33847656 -294.78414063 249.98945313 -295.83203125 250.66015625 C-304.43629958 256.26963239 -312.62428211 262.41321151 -320.75 268.6875 C-321.48492676 269.25259277 -322.21985352 269.81768555 -322.97705078 270.39990234 C-325.1837322 272.10661376 -327.37517476 273.83107569 -329.5625 275.5625 C-330.23829102 276.08545654 -330.91408203 276.60841309 -331.61035156 277.1472168 C-334.68885177 279.61828403 -336.51047345 281.14637242 -338.13671875 284.8203125 C-339.98042725 288.09702446 -340.5563189 288.21846067 -343.91918945 289.4699707 C-348.81373584 291.5363602 -351.99596676 294.24712667 -355.65625 298.03515625 C-356.26585571 298.64709335 -356.87546143 299.25903046 -357.50354004 299.88951111 C-358.78320394 301.17885298 -360.05687333 302.47416998 -361.32470703 303.77514648 C-363.23321191 305.73277976 -365.1594638 307.67138027 -367.08984375 309.60742188 C-373.36945144 315.94504272 -379.34632808 322.36688812 -384.8984375 329.35668945 C-386.48405703 331.35272184 -388.10736888 333.28357712 -389.796875 335.19140625 C-400.0428852 346.76587745 -408.88087287 359.30984336 -417.5 372.125 C-418.12769287 373.05590454 -418.12769287 373.05590454 -418.76806641 374.00561523 C-420.45907478 376.55644019 -421.7769091 378.7682273 -422.75 381.6875 C-423.41 381.6875 -424.07 381.6875 -424.75 381.6875 C-425.82525194 384.33978812 -426.84456151 386.97118454 -427.75 389.6875 C-428.41 389.6875 -429.07 389.6875 -429.75 389.6875 C-430.03875 390.409375 -430.3275 391.13125 -430.625 391.875 C-432.1875 395.78125 -432.1875 395.78125 -433.75 399.6875 C-434.41 399.6875 -435.07 399.6875 -435.75 399.6875 C-436.07291016 400.84378906 -436.07291016 400.84378906 -436.40234375 402.0234375 C-438.24873071 407.04346929 -440.78588896 411.60603701 -443.3125 416.3125 C-462.26138103 452.26584365 -475.47571299 490.91956037 -483.75 530.6875 C-483.95641113 531.67830566 -484.16282227 532.66911133 -484.37548828 533.68994141 C-486.5684493 544.42522973 -488.18836245 554.90059489 -488.4765625 565.86328125 C-488.68437611 568.76970303 -489.02906407 571.12407729 -489.703125 573.9140625 C-496.44382958 602.40610625 -493.51899873 635.81519418 -490.75 664.6875 C-490.65879883 665.71375488 -490.56759766 666.74000977 -490.47363281 667.79736328 C-487.77917793 697.63017866 -481.51148449 727.06909459 -472.75 755.6875 C-472.40211426 756.82477539 -472.05422852 757.96205078 -471.69580078 759.13378906 C-456.70880291 807.40769801 -433.2474876 854.96412784 -402.12744141 894.91308594 C-400.79305767 896.6320333 -399.47763031 898.36373267 -398.16796875 900.1015625 C-389.59046323 911.44995265 -380.35621531 922.19940263 -370.75 932.6875 C-370.27916992 933.20344727 -369.80833984 933.71939453 -369.32324219 934.25097656 C-361.52349259 942.79308175 -353.72768629 951.22905228 -344.94140625 958.77734375 C-342.3754973 961.01393818 -339.8784357 963.31874067 -337.375 965.625 C-332.32947738 970.21621908 -327.12334217 974.48912865 -321.75 978.6875 C-320.52268995 979.67876265 -319.29619218 980.67103148 -318.0703125 981.6640625 C-297.69034912 998.02201348 -275.56578655 1011.99872046 -252.75 1024.6875 C-251.89341797 1025.16735352 -251.03683594 1025.64720703 -250.15429688 1026.14160156 C-215.43091438 1045.44585966 -177.26578241 1059.22041971 -138.75 1068.6875 C-137.12602295 1069.09258789 -137.12602295 1069.09258789 -135.46923828 1069.50585938 C-126.95563388 1071.58016215 -118.38879546 1073.23788615 -109.75 1074.6875 C-108.54552216 1074.89113159 -108.54552216 1074.89113159 -107.31671143 1075.09887695 C-58.95239187 1083.1617122 -7.26321919 1084.62415727 41.25 1076.6875 C43.11132568 1076.39866943 43.11132568 1076.39866943 45.01025391 1076.10400391 C87.96408276 1069.36978869 134.59231696 1058.15635596 172.72265625 1036.63671875 C177.21071847 1034.13505874 181.68368078 1032.38155847 186.53076172 1030.71142578 C191.19250675 1028.95605151 195.47263046 1026.5525517 199.8125 1024.125 C201.23477905 1023.33826904 201.23477905 1023.33826904 202.68579102 1022.53564453 C229.45268134 1007.61360185 254.76739949 990.38297648 278.25 970.6875 C278.85827637 970.17832031 279.46655273 969.66914062 280.09326172 969.14453125 C292.27510478 958.91244066 303.85320063 948.16375675 315.125 936.9375 C315.92188232 936.14529053 316.71876465 935.35308105 317.53979492 934.53686523 C322.31572458 929.74790986 326.85367576 924.8253403 331.25 919.6875 C332.19941532 918.6044986 333.14988413 917.52241955 334.1015625 916.44140625 C341.90207426 907.49871147 349.17410877 898.21136899 356.25 888.6875 C356.79833496 887.94951172 357.34666992 887.21152344 357.91162109 886.45117188 C373.14724692 866.02782053 373.14724692 866.02782053 385.25 843.6875 C385.91 843.6875 386.57 843.6875 387.25 843.6875 C387.50579834 843.00695557 387.76159668 842.32641113 388.02514648 841.62524414 C389.44961244 838.20874048 391.12520193 834.95568654 392.84765625 831.68359375 C393.57029148 830.29866144 394.29261011 828.91356391 395.01464844 827.52832031 C395.39036987 826.80890259 395.76609131 826.08948486 396.15319824 825.3482666 C405.11370873 808.16412661 413.61331001 790.92413526 420.25 772.6875 C420.92302636 770.88666241 421.59621979 769.08588726 422.26953125 767.28515625 C433.01902534 738.49272832 433.01902534 738.49272832 439.32763672 708.50415039 C439.78727506 704.98187389 440.4973902 701.7710725 441.671875 698.43359375 C452.97974893 665.9558063 452.61893987 626.77854057 452.625 592.875 C452.62690338 591.73316254 452.62880676 590.59132507 452.63076782 589.41488647 C452.62786194 574.07581771 451.87907287 558.93962944 450.25 543.6875 C450.17221313 542.95111298 450.09442627 542.21472595 450.01428223 541.45602417 C449.54245912 537.06743452 449.00725787 532.68935736 448.4375 528.3125 C448.27008301 527.02102051 448.10266602 525.72954102 447.93017578 524.39892578 C445.6772459 504.4234599 445.6772459 504.4234599 440.23681641 485.20214844 C439.22857909 482.6329143 438.74071608 480.30765853 438.3125 477.5859375 C430.43304441 431.88204101 409.02782037 384.31720062 385.25 344.6875 C384.78980469 343.89988281 384.32960938 343.11226563 383.85546875 342.30078125 C382.34931747 339.74423053 380.8053325 337.21449358 379.25 334.6875 C378.64744385 333.70402588 378.64744385 333.70402588 378.03271484 332.70068359 C367.49305869 315.55441649 355.86809362 299.35962327 343.25 283.6875 C342.46882813 282.71167969 341.68765625 281.73585938 340.8828125 280.73046875 C336.53115361 275.3473613 332.03050036 270.13855922 327.3671875 265.0234375 C325.45919797 262.91831252 323.59952931 260.78136366 321.75 258.625 C318.48750083 254.87161554 314.98338893 251.40210636 311.44140625 247.9140625 C309.42322719 245.86350623 307.54686983 243.75647169 305.6875 241.5625 C302.77445377 238.16506733 299.61790323 235.28366373 296.20703125 232.39453125 C294.35019075 230.77489193 292.64602508 229.08626709 290.9375 227.3125 C287.28278706 223.60003764 283.29550476 220.37833874 279.23828125 217.1171875 C276.73900864 215.08509918 274.2920524 213.00739514 271.85864258 210.89746094 C259.92529233 200.59404089 247.14606492 191.27862064 234.1875 182.3125 C233.52709717 181.85423828 232.86669434 181.39597656 232.1862793 180.92382812 C229.55653094 179.1296325 227.28661845 177.69970615 224.25 176.6875 C224.25 176.0275 224.25 175.3675 224.25 174.6875 C223.321875 174.5225 222.39375 174.3575 221.4375 174.1875 C217.77112685 173.15178845 215.26677535 171.34578076 212.2578125 169.03515625 C206.41039851 164.70147072 200.31257907 161.1203291 193.9375 157.625 C192.2970874 156.71657349 192.2970874 156.71657349 190.62353516 155.78979492 C180.67201556 150.30767535 170.69800717 145.16189684 160.25 140.6875 C158.22667908 139.73442991 156.20583178 138.77609066 154.1875 137.8125 C148.43801031 135.14215215 142.61656495 132.9649072 136.62890625 130.89453125 C133.56954024 129.8016479 130.60647228 128.59985864 127.625 127.3125 C111.93202321 120.69072805 95.72172207 115.92925418 79.25 111.6875 C78.49138672 111.49027344 77.73277344 111.29304688 76.95117188 111.08984375 C55.94625706 105.64341978 34.68509245 101.94700998 13.25 98.6875 C12.52596985 98.5756134 11.8019397 98.46372681 11.05596924 98.34844971 C-30.73450677 91.9333456 -74.87509111 92.09745732 -116.75 97.6875 C-118.02423828 97.8431543 -119.29847656 97.99880859 -120.61132812 98.15917969 C-180.35445073 105.5277923 -240.63342366 124.2920159 -293.75 152.6875 C-294.82411133 153.25355957 -294.82411133 153.25355957 -295.91992188 153.83105469 C-317.04376222 164.99905973 -337.53717406 177.46952668 -356.75 191.6875 C-357.4217627 192.1820166 -358.09352539 192.6765332 -358.78564453 193.18603516 C-367.26469874 199.44041684 -375.60124716 205.86745494 -383.859375 212.41015625 C-385.56499271 213.75390642 -387.29619441 215.06781993 -389.078125 216.30859375 C-391.0423771 217.6801899 -391.0423771 217.6801899 -391.75 220.6875 C-392.41 220.6875 -393.07 220.6875 -393.75 220.6875 C-393.915 221.43 -394.08 222.1725 -394.25 222.9375 C-396.0832289 226.29841966 -397.94808224 226.77220679 -401.3203125 228.3203125 C-410.69602879 233.5960371 -418.50784359 243.3617163 -426.0625 250.875 C-426.91038086 251.71804688 -427.75826172 252.56109375 -428.63183594 253.4296875 C-433.54491388 258.35630009 -438.22487399 263.40461416 -442.75 268.6875 C-443.77146421 269.84419351 -444.79486084 270.99918378 -445.8203125 272.15234375 C-453.34580402 280.68058353 -460.36697145 289.49979443 -467.18115234 298.60400391 C-468.67373886 300.58622198 -470.18619276 302.55113197 -471.70703125 304.51171875 C-494.59395619 333.75396728 -494.59395619 333.75396728 -510.75 366.6875 C-511.41 366.6875 -512.07 366.6875 -512.75 366.6875 C-513.02295898 367.56374023 -513.29591797 368.43998047 -513.57714844 369.34277344 C-514.67857752 372.48381807 -515.96758361 375.26174391 -517.515625 378.203125 C-538.14148084 418.02811736 -554.82853366 461.12091418 -563.2824707 505.30200195 C-563.76471608 507.76258661 -564.30664922 510.20366411 -564.86328125 512.6484375 C-585.70775931 605.68090823 -577.52908961 705.39339572 -517.75 865.6875 C-517.255 866.67476074 -516.76 867.66202148 -516.25 868.67919922 C-496.88159518 907.06924381 -472.47724495 942.2419829 -444.625 974.9375 C-444.19493652 975.44321533 -443.76487305 975.94893066 -443.32177734 976.4699707 C-434.2243925 987.04572235 -424.56759634 997.05644144 -414.70703125 1006.91577148 C-412.74709918 1008.87790408 -410.79534704 1010.84794057 -408.84375 1012.81835938 C-402.49054601 1019.19924224 -396.11972358 1025.304744 -389.03173828 1030.87329102 C-386.80458573 1032.64409891 -384.71074182 1034.50338507 -382.625 1036.4375 C-376.36251819 1042.07148901 -369.55294072 1047.02923992 -362.83642578 1052.10205078 C-360.94082269 1053.54249619 -359.05871555 1054.99788998 -357.18359375 1056.46484375 C-350.85794358 1061.4132329 -344.42656189 1066.1049392 -337.66796875 1070.453125 C-336.24905791 1071.36631405 -334.83278867 1072.28361055 -333.41796875 1073.203125 C-249.89413768 1127.44925504 -153.01406236 1160.80929854 83.90283203 1153.76513672 C163.9561808 1136.57640694 242.28044855 1104.21937335 307.25 1053.6875 C308.82890761 1052.48056561 310.40782373 1051.27364228 311.98706055 1050.06713867 C314.17998809 1048.3873869 316.36485096 1046.69736645 318.54833984 1045.00537109 C319.70643948 1044.10846696 320.865664 1043.21301383 322.02587891 1042.31884766 C328.91684038 1037.00392117 335.63087522 1031.60899758 342.04296875 1025.71484375 C343.97829285 1023.93708586 345.94403016 1022.21173748 347.9375 1020.5 C360.61974894 1009.43185547 373.32076663 997.83584077 384.2265625 984.98828125 C385.91512878 983.06827056 387.63706783 981.20783738 389.3984375 979.35546875 C396.69098867 971.68498686 403.4681921 963.85218775 409.88916016 955.44238281 C411.26773056 953.66463541 412.67902682 951.91920376 414.10546875 950.1796875 C425.19032776 936.65037098 434.99681858 922.25651076 444.5625 907.625 C445.11993896 906.77397705 445.67737793 905.9229541 446.25170898 905.04614258 C446.76290283 904.25618896 447.27409668 903.46623535 447.80078125 902.65234375 C448.47620972 901.61001587 448.47620972 901.61001587 449.1652832 900.54663086 C450.40216093 898.57260231 450.40216093 898.57260231 451.25 895.6875 C451.91 895.6875 452.57 895.6875 453.25 895.6875 C453.58 894.0375 453.91 892.3875 454.25 890.6875 C454.91 890.6875 455.57 890.6875 456.25 890.6875 C456.58 889.0375 456.91 887.3875 457.25 885.6875 C457.91 885.6875 458.57 885.6875 459.25 885.6875 C459.47816406 884.88183594 459.70632813 884.07617188 459.94140625 883.24609375 C461.58059429 878.7884809 463.82467698 874.85851622 466.1875 870.75 C469.20132224 865.49006861 471.97997409 860.31386785 474.25 854.6875 C474.91 854.6875 475.57 854.6875 476.25 854.6875 C476.51941406 853.83027344 476.78882813 852.97304688 477.06640625 852.08984375 C478.25017727 848.68699043 479.65075836 845.50726664 481.1875 842.25 C483.00188662 838.39384839 484.76571651 834.52899927 486.43041992 830.60571289 C487.34808747 828.45792798 488.28870584 826.32092009 489.23046875 824.18359375 C494.40037835 812.37234776 499.03650164 800.44580203 503.32446289 788.2878418 C504.30540623 785.53183348 505.31628536 782.78776989 506.328125 780.04296875 C507.94300501 775.60898416 509.39109695 771.1612863 510.6875 766.625 C510.89648926 765.90078857 511.10547852 765.17657715 511.32080078 764.43041992 C511.75504603 762.92064516 512.18734134 761.41030818 512.61767578 759.89941406 C513.21410885 757.81304972 513.82277124 755.73062515 514.43359375 753.6484375 C523.90944348 720.91048941 530.22888038 687.42395506 533.375 653.5 C533.46026947 652.58696106 533.54553894 651.67392212 533.63339233 650.73321533 C535.49919188 630.40154272 536.25 610.10081811 536.25 589.6875 C536.25 588.9537616 536.25 588.22002319 536.25 587.46405029 C536.10799504 509.08840719 517.92612954 429.99767277 404.25 226.6875 C403.47011719 225.71039063 402.69023438 224.73328125 401.88671875 223.7265625 C397.13741174 217.84465522 392.17334784 212.2358389 387.0234375 206.70703125 C384.97511695 204.50153632 382.99767482 202.24530832 381.03271484 199.96533203 C377.48157364 195.90141691 373.76495719 192.04122884 369.953125 188.22265625 C369.2788446 187.54504745 368.60456421 186.86743866 367.90985107 186.16929626 C366.49263926 184.74705939 365.07410433 183.32613981 363.65429688 181.90649414 C361.51402078 179.76403508 359.38188019 177.6137001 357.25 175.46289062 C350.59926163 168.78545606 343.97211588 162.31497899 336.53662109 156.5065918 C334.12316905 154.58660128 331.87561129 152.54489749 329.625 150.4375 C323.20078238 144.5852318 316.22483172 139.45765257 309.28955078 134.23486328 C307.49025617 132.86977718 305.707389 131.48779325 303.93359375 130.08984375 C273.11201125 105.27055373 273.11201125 105.27055373 238.25 87.6875 C238.25 87.0275 238.25 86.3675 238.25 85.6875 C237.38157471 85.4188916 236.51314941 85.1502832 235.6184082 84.87353516 C232.33569256 83.71767283 229.42818706 82.33830224 226.35546875 80.7109375 C225.24300781 80.12618652 224.13054688 79.54143555 222.984375 78.93896484 C222.40494141 78.63222839 221.82550781 78.32549194 221.22851562 78.00946045 C218.20440947 76.41053027 215.17098167 74.82955114 212.13671875 73.25 C211.53959076 72.93912445 210.94246277 72.6282489 210.32723999 72.30795288 C200.43605103 67.17352615 190.45756185 62.13455844 179.83984375 58.671875 C177.64392081 57.83722556 175.67202475 56.90588517 173.58984375 55.83203125 C145.37322962 41.49863532 112.45182831 33.49337942 81.73242188 26.49829102 C78.52884194 25.75242107 75.34757731 24.94766388 72.1640625 24.12109375 C65.66452841 22.4834586 59.11187837 21.33313995 52.5 20.25 C51.20723145 20.03754639 49.91446289 19.82509277 48.58251953 19.60620117 C39.11821497 18.07308096 29.63418564 16.72232511 20.125 15.5 C18.95098633 15.34539307 17.77697266 15.19078613 16.56738281 15.03149414 C-7.85644276 12.01375838 -32.29858191 11.30991517 -56.875 11.375 C-58.36479689 11.37722399 -59.85459385 11.37940042 -61.34439087 11.38153076 C-81.8813226 11.42220355 -102.28114291 11.60886513 -122.66625977 14.40240479 C-124.96207727 14.7165162 -127.25928138 15.019156 -129.55664062 15.32177734 C-150.51214757 18.11219569 -171.22813618 21.54860208 -191.75 26.6875 C-192.8942041 26.96787109 -194.0384082 27.24824219 -195.21728516 27.53710938 C-215.7928804 32.61722636 -235.81022847 39.08312715 -255.82232666 46.02020264 C-257.57356797 46.62642501 -259.32648809 47.22779222 -261.07958984 47.82861328 C-290.38041766 57.90454468 -318.78394144 71.40476951 -346 86.1875 C-346.86197998 86.65534912 -347.72395996 87.12319824 -348.61206055 87.60522461 C-353.47790976 90.29562831 -358.10943443 93.2118514 -362.70849609 96.33447266 C-365.36749226 98.09674923 -368.13089473 99.61095809 -370.9375 101.125 C-381.33621634 106.90891878 -391.00193093 113.88713286 -400.75 120.6875 C-401.45253906 121.17573242 -402.15507812 121.66396484 -402.87890625 122.16699219 C-411.7599584 128.35363888 -420.30708487 134.9193781 -428.75 141.6875 C-429.40291016 142.20747559 -430.05582031 142.72745117 -430.72851562 143.26318359 C-438.79932484 149.69545604 -446.65296289 156.25708018 -454.18359375 163.31640625 C-456.35741561 165.32479266 -458.57344012 167.20518371 -460.875 169.0625 C-463.85647645 171.3744068 -463.85647645 171.3744068 -464.64526367 174.17919922 C-466.02944203 177.32197236 -467.27835042 177.90551092 -470.30078125 179.4453125 C-476.0898745 182.70135237 -480.35517982 186.80133818 -484.9375 191.5625 C-485.69224609 192.32691406 -486.44699219 193.09132813 -487.22460938 193.87890625 C-491.36147001 198.09814593 -495.33639806 202.42426545 -499.19750977 206.89648438 C-501.29021818 209.31071758 -503.45711341 211.65328102 -505.625 214 C-509.66402153 218.43381311 -513.52506878 222.96804584 -517.2890625 227.63671875 C-519.08280236 229.86038674 -520.88872383 232.06948478 -522.7109375 234.26953125 C-538.38920738 253.26028132 -552.22979369 273.36269124 -565.4375 294.125 C-565.95521973 294.93646484 -566.47293945 295.74792969 -567.00634766 296.58398438 C-567.72056885 297.71610352 -567.72056885 297.71610352 -568.44921875 298.87109375 C-568.87033936 299.53681396 -569.29145996 300.20253418 -569.7253418 300.88842773 C-570.90171867 302.81811473 -570.90171867 302.81811473 -571.75 305.6875 C-572.41 305.6875 -573.07 305.6875 -573.75 305.6875 C-574.02457031 306.4079248 -574.29914063 307.12834961 -574.58203125 307.87060547 C-575.71973586 310.61450928 -577.01030406 313.15415744 -578.4375 315.7578125 C-578.96657959 316.7274292 -579.49565918 317.6970459 -580.04077148 318.69604492 C-580.60481689 319.7244751 -581.1688623 320.75290527 -581.75 321.8125 C-582.92916463 323.97744036 -584.10754083 326.14281031 -585.28515625 328.30859375 C-585.87055176 329.3847998 -586.45594727 330.46100586 -587.05908203 331.56982422 C-594.54234107 345.36728565 -601.68922134 359.19433364 -607.75 373.6875 C-608.08257813 374.47382812 -608.41515625 375.26015625 -608.7578125 376.0703125 C-610.10361687 379.2699401 -611.42767077 382.47809675 -612.75 385.6875 C-613.02972656 386.35845703 -613.30945313 387.02941406 -613.59765625 387.72070312 C-629.4255732 425.78307484 -640.62101954 465.32244785 -648.75 505.6875 C-648.99588867 506.8945459 -649.24177734 508.1015918 -649.49511719 509.34521484 C-651.23023127 518.08390283 -652.58839381 526.85684696 -653.75 535.6875 C-653.86170532 536.52919739 -653.97341064 537.37089478 -654.08850098 538.23809814 C-657.69958595 565.82820736 -659.23043455 593.29240004 -659.2481041 621.09376144 C-659.24995803 623.26338442 -659.25640228 625.4329577 -659.26333618 627.60256958 C-659.43813381 709.85797333 -641.43558425 792.30392689 -608.75 867.6875 C-608.12617432 869.13237793 -608.12617432 869.13237793 -607.48974609 870.60644531 C-605.35500897 875.51982853 -603.15567393 880.3986823 -600.88769531 885.25195312 C-600.09021139 886.9591848 -599.29836943 888.669058 -598.51074219 890.38085938 C-591.65616078 905.26421043 -583.99756059 919.53343536 -575.75 933.6875 C-574.83958799 935.26417526 -573.929417 936.84098973 -573.01953125 938.41796875 C-556.61512805 966.71525096 -537.68701569 993.56845136 -516.75 1018.6875 C-516.26934082 1019.26725586 -515.78868164 1019.84701172 -515.29345703 1020.44433594 C-509.53117329 1027.38612753 -503.59746279 1034.13217574 -497.453125 1040.73828125 C-496.05501386 1042.24451367 -494.6868132 1043.76179122 -493.35522461 1045.32739258 C-487.81271724 1051.84345492 -481.75334847 1057.83503421 -475.69848633 1063.86938477 C-473.81671726 1065.74579475 -471.94035262 1067.62748969 -470.06445312 1069.50976562 C-464.64143781 1074.9357458 -459.23356076 1080.31973414 -453.38549805 1085.29272461 C-450.8870562 1087.42343043 -448.51775665 1089.68954995 -446.125 1091.9375 C-440.16516137 1097.4650337 -433.8415112 1102.45114344 -427.40429688 1107.40625 C-423.47794979 1110.44719886 -419.62210223 1113.57808458 -415.75 1116.6875 C-417.73 1119.6575 -419.71 1122.6275 -421.75 1125.6875 C-427.37200634 1123.43869746 -427.37200634 1123.43869746 -429.9140625 1121.18359375 C-430.75251709 1120.45064087 -430.75251709 1120.45064087 -431.60791016 1119.70288086 C-432.48261963 1118.92182983 -432.48261963 1118.92182983 -433.375 1118.125 C-434.62404729 1117.03016214 -435.87405715 1115.93642152 -437.125 1114.84375 C-437.73988281 1114.30492187 -438.35476563 1113.76609375 -438.98828125 1113.2109375 C-441.40323069 1111.12262202 -443.88495683 1109.12282533 -446.375 1107.125 C-451.34655763 1103.09064322 -456.04777522 1098.82271916 -460.73046875 1094.4609375 C-462.938758 1092.40987565 -465.19827341 1090.43037839 -467.48144531 1088.46313477 C-471.49691571 1084.95445519 -475.30305045 1081.27965215 -479.06640625 1077.50390625 C-479.72656235 1076.84470688 -480.38671844 1076.18550751 -481.06687927 1075.5063324 C-482.45035506 1074.12353165 -483.83259083 1072.73948924 -485.21362305 1071.35424805 C-487.30731669 1069.25519657 -489.40629874 1067.1615406 -491.50585938 1065.06835938 C-492.85969571 1063.71386214 -494.21322175 1062.35905469 -495.56640625 1061.00390625 C-496.18326797 1060.38906876 -496.8001297 1059.77423126 -497.4356842 1059.14076233 C-501.1931644 1055.36335226 -504.76273245 1051.4667348 -508.24317932 1047.43243408 C-510.16317364 1045.20903512 -512.1429561 1043.04309783 -514.125 1040.875 C-517.96806298 1036.61139983 -521.64322734 1032.24197727 -525.25 1027.77734375 C-527.07003572 1025.52789335 -528.90218882 1023.29276208 -530.75 1021.06640625 C-538.2513096 1011.99351343 -545.28659028 1002.6660359 -552.07763672 993.05126953 C-553.78319115 990.64058661 -555.50234932 988.24001521 -557.22265625 985.83984375 C-569.70097436 968.33628146 -580.78690854 950.06373 -591.27929688 931.31152344 C-592.24679569 929.58531539 -593.21932089 927.86191325 -594.19726562 926.14160156 C-633.99084295 856.11244418 -658.29971869 776.51350963 -670.75 666.6875 C-670.84571289 665.53386963 -670.94142578 664.38023926 -671.04003906 663.19165039 C-671.98095272 650.30804684 -671.99062042 637.4127304 -672 624.5 C-672.00167175 623.28293365 -672.00334351 622.06586731 -672.00506592 620.81192017 C-672.00646969 603.62459912 -671.55711988 586.52244243 -670.375 569.375 C-670.31187622 568.443461 -670.24875244 567.511922 -670.18371582 566.55215454 C-669.59407748 558.07841705 -668.96702175 549.69312173 -667.27246094 541.35668945 C-666.64497804 538.15095558 -666.17458466 534.93602783 -665.70703125 531.703125 C-663.10725009 513.95893203 -659.73486426 496.56766199 -655.56689453 479.12548828 C-654.82501473 476.00320752 -654.10762322 472.87680738 -653.40234375 469.74609375 C-651.13057563 459.75229102 -648.41245404 450.00984314 -645.2265625 440.26953125 C-643.75141466 435.75080915 -642.43158256 431.1947408 -641.125 426.625 C-639.60113916 421.34588919 -637.92324461 416.21053734 -635.76660156 411.15283203 C-634.75956502 408.71069587 -633.86118603 406.25196531 -632.98046875 403.76171875 C-630.55445335 397.05229612 -627.8582754 390.46421688 -625.125 383.875 C-624.8653244 383.24798187 -624.6056488 382.62096375 -624.33810425 381.97494507 C-616.40790995 362.85267325 -607.88982624 344.09739985 -597.9375 325.9375 C-597.41631592 324.98319092 -596.89513184 324.02888184 -596.3581543 323.0456543 C-592.71881395 316.40109683 -588.9964492 309.81133745 -585.17578125 303.26953125 C-583.6506838 300.69248361 -583.6506838 300.69248361 -582.75 297.6875 C-582.09 297.6875 -581.43 297.6875 -580.75 297.6875 C-580.37875 296.12515625 -580.37875 296.12515625 -580 294.53125 C-578.92397331 290.78396826 -577.20763941 288.2419947 -574.75 285.1875 C-571.23135054 280.67236902 -567.95016746 276.09929583 -564.8125 271.3125 C-557.34604393 259.98258702 -549.40520654 249.04793322 -541.05175781 238.35693359 C-539.69245905 236.61370686 -538.34208443 234.8637958 -536.9921875 233.11328125 C-531.51125797 226.03513955 -525.81185823 219.28150609 -519.75 212.6875 C-518.57865335 211.3582762 -517.41175407 210.02511593 -516.25 208.6875 C-487.14035588 175.33408088 -487.14035588 175.33408088 -470.89453125 161.55078125 C-468.58819329 159.54691384 -466.3577611 157.47496281 -464.12573242 155.38916016 C-458.8082604 150.42311036 -453.41339123 145.63673357 -447.734375 141.08203125 C-445.51972458 139.30509315 -443.32507619 137.51254198 -441.140625 135.69921875 C-427.43750342 124.36315649 -413.02712262 114.12458233 -398.29370117 104.17578125 C-392.44874721 100.21923625 -386.63812163 96.20534963 -381.3125 91.5625 C-379.05716064 89.91225169 -377.27517407 88.99362409 -374.73046875 87.93359375 C-369.42587705 85.61758679 -364.50000577 82.77920027 -359.5 79.875 C-314.0641679 53.91591044 -266.1823937 33.706837 -215.75 19.6875 C-214.70634277 19.39584961 -213.66268555 19.10419922 -212.58740234 18.80371094 C-194.5437492 13.84118379 -176.13407206 10.43821545 -157.74169922 7.05596924 C-155.96736662 6.72771336 -154.19450863 6.39150934 -152.421875 6.05419922 C-102.46808567 -3.38647228 -50.55134626 -3.43315411 0 0 Z " fill="#5F2339" transform="translate(790.75,141.3125)"/>
<path d="M0 0 C0.33 0 0.66 0 1 0 C1 236.61 1 473.22 1 717 C-238.25 717 -477.5 717 -724 717 C-724 716.67 -724 716.34 -724 716 C-723.45496323 715.97129822 -722.90992645 715.94259644 -722.34837341 715.9130249 C-696.08501065 714.51937465 -670.00901248 713.04447145 -644 709 C-642.50086783 708.7714552 -641.00167903 708.5432817 -639.50244141 708.31542969 C-620.5553062 705.42300365 -601.69295913 702.26728804 -583 698 C-581.97519531 697.76812988 -580.95039062 697.53625977 -579.89453125 697.29736328 C-566.47240327 694.23814806 -553.24167048 690.77744893 -540.10546875 686.65966797 C-537.15850499 685.73634978 -534.20375177 684.83882867 -531.25 683.9375 C-530.23550781 683.62296875 -529.22101563 683.3084375 -528.17578125 682.984375 C-525.90424848 682.28028366 -523.63055488 681.58314854 -521.35546875 680.890625 C-464.04351458 663.36775974 -407.84804192 637.75253267 -357 606 C-356.10055664 605.43925781 -355.20111328 604.87851563 -354.27441406 604.30078125 C-326.18595136 586.73216047 -299.46424318 567.48451983 -273.83349609 546.49707031 C-272.20305961 545.16580047 -270.56495181 543.84393831 -268.92578125 542.5234375 C-263.28792707 537.9713327 -257.87664833 533.23300382 -252.54296875 528.328125 C-250.42932946 526.39305738 -248.29340152 524.49791703 -246.125 522.625 C-235.8477457 513.6696013 -226.06003313 504.22422854 -216.44091797 494.57128906 C-214.60889005 492.7338424 -212.77149395 490.9018835 -210.93359375 489.0703125 C-205.07384011 483.21386744 -199.36642769 477.31734428 -194 471 C-192.38032183 469.22429779 -190.75588282 467.45291693 -189.125 465.6875 C-185.03119791 461.19851943 -181.14530333 456.58756524 -177.33203125 451.859375 C-175.295441 449.36224927 -173.21728235 446.90827746 -171.11572266 444.46582031 C-164.66212208 436.94854084 -158.62039834 429.14949471 -152.67382812 421.22705078 C-151.58015313 419.77190153 -150.48265315 418.31961713 -149.38085938 416.87060547 C-110.62413659 365.89403327 -79.21849378 309.19414914 -55.125 249.9375 C-54.65513672 248.78411133 -54.65513672 248.78411133 -54.17578125 247.60742188 C-50.31827546 238.11014497 -46.70346591 228.55805747 -43.35498047 218.86938477 C-42.41145379 216.14417308 -41.4231256 213.44015234 -40.40429688 210.7421875 C-39.00215442 207.00574113 -37.79135384 203.25359059 -36.625 199.4375 C-35.03715316 194.24729315 -33.35715629 189.10371169 -31.609375 183.96484375 C-28.96252257 176.09943079 -26.72982777 168.15048506 -24.625 160.125 C-24.43335266 159.39667969 -24.24170532 158.66835938 -24.04425049 157.91796875 C-10.44747719 106.02364068 -3.63265954 53.4425347 0 0 Z " fill="#FEFEFE" transform="translate(1499,783)"/>
<path d="M0 0 C236.61 0 473.22 0 717 0 C717 238.26 717 476.52 717 722 C716.67 722 716.34 722 716 722 C715.93268677 720.69071533 715.93268677 720.69071533 715.86401367 719.35498047 C713.55004675 675.23688138 709.24403632 631.05732149 698.73388672 588.04785156 C697.9560801 584.81759947 697.2253162 581.57923141 696.50390625 578.3359375 C692.5986391 560.83957992 688.0267929 543.66372105 682.22265625 526.69921875 C680.61350832 521.83064657 679.18247342 516.91698055 677.78686523 511.98339844 C676.65138609 508.01908887 675.36477488 504.16031873 673.88427734 500.30737305 C672.81746626 497.5237089 671.78905064 494.72672396 670.7578125 491.9296875 C641.45279749 413.10736087 599.7963239 339.92476349 546.49707031 274.83349609 C545.16580047 273.20305961 543.84393831 271.56495181 542.5234375 269.92578125 C537.9713327 264.28792707 533.23300382 258.87664833 528.328125 253.54296875 C526.39305738 251.42932946 524.49791703 249.29340152 522.625 247.125 C513.6696013 236.8477457 504.22422854 227.06003313 494.57128906 217.44091797 C492.7338424 215.60889005 490.9018835 213.77149395 489.0703125 211.93359375 C483.21386744 206.07384011 477.31734428 200.36642769 471 195 C469.22429779 193.38032183 467.45291693 191.75588282 465.6875 190.125 C461.19851943 186.03119791 456.58756524 182.14530333 451.859375 178.33203125 C449.36224927 176.295441 446.90827746 174.21728235 444.46582031 172.11572266 C436.94854084 165.66212208 429.14949471 159.62039834 421.22705078 153.67382812 C419.77190153 152.58015313 418.31961713 151.48265315 416.87060547 150.38085938 C355.42626831 103.66565199 286.4709306 68.82635289 214.1875 42.375 C213.51747955 42.12869843 212.84745911 41.88239685 212.15713501 41.62863159 C203.20712844 38.34949675 194.19164734 35.52533945 185 33 C183.27004025 32.50536958 181.5407948 32.00822938 179.8125 31.5078125 C175.46261421 30.25597005 171.10931412 29.01643907 166.75439453 27.78222656 C164.95512486 27.27124801 163.15658577 26.75768798 161.35888672 26.24121094 C135.51681738 18.83292569 109.24180744 13.97674685 82.74584961 9.62304688 C80.48655791 9.24725906 78.22890756 8.86110255 75.97485352 8.45507812 C66.68341765 6.79810943 57.32478138 5.91491822 47.9375 5 C47.06391846 4.91351196 46.19033691 4.82702393 45.2902832 4.73791504 C30.20935503 3.24581151 15.12321087 1.98525156 0 1 C0 0.67 0 0.34 0 0 Z " fill="#FEFEFE" transform="translate(783,0)"/>
<path d="M0 0 C0.33 0 0.66 0 1 0 C1.06993164 1.07967041 1.13986328 2.15934082 1.21191406 3.27172852 C2.72152392 26.30199215 4.55157409 49.16449387 8 72 C8.11041626 72.73281189 8.22083252 73.46562378 8.33459473 74.22064209 C11.31783765 93.92908735 14.56207765 113.55957309 19 133 C19.23187012 134.02480469 19.46374023 135.04960938 19.70263672 136.10546875 C22.76185194 149.52759673 26.22255107 162.75832952 30.34033203 175.89453125 C31.26365022 178.84149501 32.16117133 181.79624823 33.0625 184.75 C33.37703125 185.76449219 33.6915625 186.77898437 34.015625 187.82421875 C34.71971634 190.09575152 35.41685146 192.36944512 36.109375 194.64453125 C53.63224026 251.95648542 79.24746733 308.15195808 111 359 C111.56074219 359.89944336 112.12148437 360.79888672 112.69921875 361.72558594 C130.26783953 389.81404864 149.51548017 416.53575682 170.50292969 442.16650391 C171.83419953 443.79694039 173.15606169 445.43504819 174.4765625 447.07421875 C179.0286673 452.71207293 183.76699618 458.12335167 188.671875 463.45703125 C190.60694262 465.57067054 192.50208297 467.70659848 194.375 469.875 C203.3303987 480.1522543 212.77577146 489.93996687 222.42871094 499.55908203 C224.2661576 501.39110995 226.0981165 503.22850605 227.9296875 505.06640625 C233.78613256 510.92615989 239.68265572 516.63357231 246 522 C247.77570221 523.61967817 249.54708307 525.24411718 251.3125 526.875 C255.80148057 530.96880209 260.41243476 534.85469667 265.140625 538.66796875 C267.63775073 540.704559 270.09172254 542.78271765 272.53417969 544.88427734 C280.05145916 551.33787792 287.85050529 557.37960166 295.77294922 563.32617188 C297.22809847 564.41984687 298.68038287 565.51734685 300.12939453 566.61914062 C367.72258654 618.00923007 446.39150303 659.08879566 528 683 C529.8868298 683.56473325 531.77354109 684.12986258 533.66015625 684.6953125 C569.43909914 695.34836513 605.47537077 703.52162318 642.47167969 708.50097656 C645.69835994 708.95733793 648.90302355 709.4802516 652.11328125 710.0390625 C658.59106914 711.14191849 665.08756525 711.85330023 671.625 712.5 C672.89230957 712.62673096 674.15961914 712.75346191 675.46533203 712.8840332 C690.94402197 714.38846074 706.4715965 715.20165029 722 716 C722 716.33 722 716.66 722 717 C483.74 717 245.48 717 0 717 C0 480.39 0 243.78 0 0 Z " fill="#FEFEFE" transform="translate(0,783)"/>
<path d="M0 0 C238.26 0 476.52 0 722 0 C722 0.33 722 0.66 722 1 C720.69071533 1.06731323 720.69071533 1.06731323 719.35498047 1.13598633 C675.23688138 3.44995325 631.05732149 7.75596368 588.04785156 18.26611328 C584.81759947 19.0439199 581.57923141 19.7746838 578.3359375 20.49609375 C560.83957992 24.4013609 543.66372105 28.9732071 526.69921875 34.77734375 C521.83064657 36.38649168 516.91698055 37.81752658 511.98339844 39.21313477 C508.01908887 40.34861391 504.16031873 41.63522512 500.30737305 43.11572266 C497.5237089 44.18253374 494.72672396 45.21094936 491.9296875 46.2421875 C413.10736087 75.54720251 339.92476349 117.2036761 274.83349609 170.50292969 C273.20305961 171.83419953 271.56495181 173.15606169 269.92578125 174.4765625 C264.28792707 179.0286673 258.87664833 183.76699618 253.54296875 188.671875 C251.42932946 190.60694262 249.29340152 192.50208297 247.125 194.375 C236.8477457 203.3303987 227.06003313 212.77577146 217.44091797 222.42871094 C215.60889005 224.2661576 213.77149395 226.0981165 211.93359375 227.9296875 C206.07384011 233.78613256 200.36642769 239.68265572 195 246 C193.38032183 247.77570221 191.75588282 249.54708307 190.125 251.3125 C186.03119791 255.80148057 182.14530333 260.41243476 178.33203125 265.140625 C176.295441 267.63775073 174.21728235 270.09172254 172.11572266 272.53417969 C165.66212208 280.05145916 159.62039834 287.85050529 153.67382812 295.77294922 C152.58015313 297.22809847 151.48265315 298.68038287 150.38085938 300.12939453 C104.22334844 360.84019564 68.68304806 429.32413103 43 501 C42.39720112 502.66669043 41.79434209 504.33335911 41.19140625 506 C38.22056247 514.26240706 35.46796527 522.57235563 33 531 C32.78375977 531.73637695 32.56751953 532.47275391 32.34472656 533.23144531 C30.51752504 539.47501047 28.74465531 545.73289853 27 552 C26.76023437 552.85754883 26.52046875 553.71509766 26.2734375 554.59863281 C18.26309981 583.5040684 12.49755855 612.76279402 8.49902344 642.47167969 C8.04266207 645.69835994 7.5197484 648.90302355 6.9609375 652.11328125 C5.85808151 658.59106914 5.14669977 665.08756525 4.5 671.625 C4.30990356 673.52596436 4.30990356 673.52596436 4.1159668 675.46533203 C2.61153926 690.94402197 1.79834971 706.4715965 1 722 C0.67 722 0.34 722 0 722 C0 483.74 0 245.48 0 0 Z " fill="#FEFEFE" transform="translate(0,0)"/>
</svg>
