<?xml version="1.0" encoding="UTF-8"?>
<svg version="1.1" xmlns="http://www.w3.org/2000/svg" viewBox="0 0 1500 1500">
<path d="M0 0 C495 0 990 0 1500 0 C1500 495 1500 990 1500 1500 C1005 1500 510 1500 0 1500 C0 1005 0 510 0 0 Z " fill="#5CF5C6" transform="translate(0,0)"/>
<path d="M0 0 C1.3122908 0.08800873 1.3122908 0.08800873 2.65109253 0.17779541 C13.30973914 0.91969303 23.69954715 2.29317146 34.19036865 4.30105591 C37.59704114 4.94024236 41.01551869 5.50761978 44.43359375 6.08203125 C70.15711129 10.46372159 95.27843342 16.04655757 120.25 23.6875 C121.48943359 24.06374512 122.72886719 24.43999023 124.00585938 24.82763672 C127.29757572 25.82703353 130.58739786 26.8324514 133.87582397 27.84262085 C135.76486805 28.42286913 137.65452126 29.0011332 139.54418945 29.5793457 C145.26919881 31.35514226 150.76940489 33.24620004 156.25 35.6875 C158.26544166 36.4655925 160.28405877 37.23547887 162.3046875 38 C169.40816871 40.71537937 176.39341793 43.67463764 183.375 46.6875 C184.55964844 47.19539063 185.74429688 47.70328125 186.96484375 48.2265625 C208.79168246 57.6118625 229.88343736 68.116233 250.4765625 79.97265625 C254.01560869 82.00667793 257.57055371 83.9211213 261.25 85.6875 C261.25 86.3475 261.25 87.0075 261.25 87.6875 C263.90228812 88.76275194 266.53368454 89.78206151 269.25 90.6875 C269.25 91.3475 269.25 92.0075 269.25 92.6875 C269.90613281 92.90792969 270.56226563 93.12835938 271.23828125 93.35546875 C275.28248201 95.14414898 278.78182855 97.52682515 282.4375 100 C283.21762451 100.52400391 283.99774902 101.04800781 284.80151367 101.58789062 C294.40290752 108.08038061 304.05437914 114.67608368 313.0703125 121.96875 C315.28081943 123.83591901 315.28081943 123.83591901 318.3125 125.1875 C321.27594566 126.70074885 323.12092131 128.1489831 325.25 130.6875 C325.25 131.3475 325.25 132.0075 325.25 132.6875 C325.77335937 132.90277344 326.29671875 133.11804688 326.8359375 133.33984375 C330.20629796 135.22135566 332.98312063 137.72107381 335.875 140.25 C336.49455566 140.7864917 337.11411133 141.3229834 337.75244141 141.87573242 C342.13869114 145.68520223 346.47852865 149.54475973 350.7734375 153.45703125 C352.16363589 154.7090869 353.55993479 155.95470056 354.97694397 157.17633057 C359.76693195 161.30795525 364.32030099 165.61079384 368.78515625 170.08984375 C369.46750839 170.77123917 370.14986053 171.45263458 370.85289001 172.15467834 C372.28344437 173.58455741 373.71275767 175.01567911 375.14086914 176.44799805 C377.30699074 178.61947711 379.47840174 180.78556325 381.65039062 182.95117188 C383.04979987 184.35124202 384.44889884 185.75162238 385.84765625 187.15234375 C386.48639175 187.78905502 387.12512726 188.4257663 387.78321838 189.08177185 C392.13547503 193.45636075 396.23120525 198.00609298 400.25 202.6875 C401.21167442 203.79346043 402.173816 204.89901509 403.13671875 206.00390625 C425.95499942 232.38377041 446.50415039 260.64891792 464.25 290.6875 C464.69263184 291.43 465.13526367 292.1725 465.59130859 292.9375 C506.83409087 362.22418781 532.54403216 438.10622784 543.9375 517.75 C544.04041351 518.45516754 544.14332703 519.16033508 544.24935913 519.88687134 C547.66223306 543.48192569 548.60662709 567.08169894 548.56567383 590.88891602 C548.56105916 593.78393158 548.567928 596.67852517 548.58618164 599.57348633 C548.8822119 647.03571076 544.12464304 696.35688725 530.36328125 741.9453125 C529.19359774 745.87709075 528.20784639 749.82555443 527.25 753.8125 C525.27930388 761.89125424 522.81940544 769.7816371 520.25 777.6875 C519.9096875 778.76 519.569375 779.8325 519.21875 780.9375 C517.25596539 787.01580071 514.97425446 792.87972048 512.46875 798.75390625 C511.31055025 801.54175244 510.26184509 804.34372569 509.25 807.1875 C497.19750442 840.94410396 479.95212589 873.20020557 461.25 903.6875 C460.69924805 904.59145508 460.14849609 905.49541016 459.58105469 906.42675781 C452.35178572 918.26100313 444.5500289 929.58084007 436.25 940.6875 C435.60450195 941.5522998 434.95900391 942.41709961 434.29394531 943.30810547 C427.0120538 953.03301047 419.64807833 962.63824544 411.703125 971.83203125 C409.26053637 974.67523553 406.90782084 977.57632623 404.5625 980.5 C401.88729712 983.80578641 399.1491379 986.82704744 396.0625 989.75 C392.41521438 993.26650646 390.00094399 997.05898619 387.57421875 1001.48828125 C385.48984394 1004.94994206 383.26036349 1006.78357404 379.75 1008.6875 C374.7578158 1011.71584703 370.94407026 1015.83245312 366.91015625 1019.984375 C364.140545 1022.798723 361.26616613 1025.39168745 358.265625 1027.953125 C355.94885379 1029.94662581 353.69580016 1032.00304388 351.4375 1034.0625 C346.18824117 1038.79321502 340.75441004 1043.25833694 335.25 1047.6875 C334.12864698 1048.60124442 333.00756489 1049.51532139 331.88671875 1050.4296875 C313.0639073 1065.71663703 293.38499384 1079.48402033 272.65673828 1092.04711914 C268.67291125 1094.47914635 264.85193815 1096.93840868 261.18359375 1099.828125 C257.88498666 1102.35989117 254.62736127 1103.98498979 250.79980469 1105.57421875 C245.97434069 1107.68108545 241.37575089 1110.25340258 236.72338867 1112.71350098 C157.37861834 1154.52382474 68.72604222 1176.01940449 -20.75 1177.6875 C-21.55211914 1177.70409668 -22.35423828 1177.72069336 -23.18066406 1177.73779297 C-28.03958006 1177.82631573 -32.8913324 1177.78504694 -37.75 1177.6875 C-38.62043945 1177.67493164 -39.49087891 1177.66236328 -40.38769531 1177.64941406 C-76.84795872 1177.04153624 -114.07890189 1172.28625556 -149.62744141 1164.16699219 C-151.83521038 1163.66825073 -154.04733298 1163.19499939 -156.26171875 1162.7265625 C-175.13505213 1158.70527293 -193.27692806 1152.97706375 -211.54174805 1146.77124023 C-214.75576119 1145.68555388 -217.97693676 1144.62335299 -221.19921875 1143.5625 C-225.0994865 1142.26422771 -228.91490521 1140.88951864 -232.6875 1139.25 C-236.79911234 1137.49093568 -240.93049209 1135.86319686 -245.125 1134.3125 C-250.823603 1132.13520357 -256.19871494 1129.54929112 -261.625 1126.76953125 C-266.7423129 1124.16067983 -271.93743285 1121.71522378 -277.125 1119.25 C-286.3903448 1114.83919525 -295.59585684 1110.32435916 -304.75 1105.6875 C-304.75 1105.0275 -304.75 1104.3675 -304.75 1103.6875 C-305.53503906 1103.48125 -306.32007813 1103.275 -307.12890625 1103.0625 C-312.04761268 1101.19477113 -316.25136099 1098.4919051 -320.6875 1095.6875 C-321.62045898 1095.10299072 -322.55341797 1094.51848145 -323.51464844 1093.91625977 C-331.35752514 1088.98177194 -339.11476775 1083.93734858 -346.75 1078.6875 C-347.40887207 1078.23584473 -348.06774414 1077.78418945 -348.74658203 1077.31884766 C-368.04840423 1064.03660766 -386.15118313 1049.44732662 -403.50390625 1033.71875 C-411.90038949 1025.49309527 -411.90038949 1025.49309527 -421.75 1019.5 C-424.9771691 1017.550252 -425.38381111 1016.81235258 -426.953125 1013.56640625 C-429.70850242 1008.4052219 -433.26668325 1004.79170834 -437.5 1000.8125 C-442.98556197 995.50004874 -448.03266494 990.19001228 -452.75390625 984.18359375 C-454.78358896 981.64549737 -456.92216796 979.2636597 -459.125 976.875 C-488.65661024 944.32891743 -512.1213993 904.76926529 -531.75 865.6875 C-532.20971191 864.77742187 -532.66942383 863.86734375 -533.14306641 862.9296875 C-551.7740799 825.81306041 -565.37532376 786.10741623 -574.75 745.6875 C-575.16306396 743.90931885 -575.16306396 743.90931885 -575.58447266 742.09521484 C-588.09000145 687.25632275 -591.78549416 630.68471674 -586.75 574.6875 C-586.65348145 573.53475586 -586.55696289 572.38201172 -586.45751953 571.19433594 C-585.21002778 556.44976181 -583.28560036 541.89444497 -580.8125 527.3125 C-580.69120728 526.58818787 -580.56991455 525.86387573 -580.44494629 525.11761475 C-578.95665701 516.31161036 -577.07396718 507.75941836 -574.68920898 499.14794922 C-573.36799919 494.28004498 -572.31065853 489.36723872 -571.25 484.4375 C-569.7882199 477.82827418 -568.21312477 471.46957442 -565.7109375 465.1640625 C-563.50813986 459.48693363 -561.91338983 453.57392477 -560.16796875 447.74316406 C-557.48808741 438.81743023 -554.48248262 430.24061848 -550.75 421.6875 C-549.93514033 419.70930369 -549.12266777 417.7301225 -548.3125 415.75 C-546.0721976 410.3647936 -543.655918 405.07336297 -541.1796875 399.79296875 C-540.20528009 397.67642806 -539.26642082 395.54324435 -538.359375 393.39697266 C-536.8836633 389.94415626 -535.25645673 386.58637464 -533.5703125 383.23046875 C-533.27567108 382.64260086 -532.98102966 382.05473297 -532.67745972 381.4490509 C-531.74520609 379.59007316 -530.81017768 377.73250819 -529.875 375.875 C-529.25632205 374.64267268 -528.63783117 373.41025141 -528.01953125 372.17773438 C-526.82290885 369.79296695 -525.62514969 367.40878237 -524.42675781 365.02490234 C-522.19473828 360.5823125 -519.97112785 356.13554323 -517.75 351.6875 C-517.09 351.6875 -516.43 351.6875 -515.75 351.6875 C-515.49347656 350.98882812 -515.23695313 350.29015625 -514.97265625 349.5703125 C-513.62020363 346.38146256 -511.9696848 343.53156779 -510.1875 340.5625 C-508.39686939 337.57687474 -506.85117028 334.99101083 -505.75 331.6875 C-505.09 331.6875 -504.43 331.6875 -503.75 331.6875 C-503.48960937 330.97078125 -503.22921875 330.2540625 -502.9609375 329.515625 C-500.65801351 324.13718317 -497.06662797 319.48369771 -493.75 314.6875 C-493.2977002 314.03104492 -492.84540039 313.37458984 -492.37939453 312.69824219 C-485.50459991 302.74904875 -478.34867189 293.094538 -470.75 283.6875 C-470.00234375 282.75679688 -469.2546875 281.82609375 -468.484375 280.8671875 C-466.26011945 278.12287219 -464.01219129 275.40062643 -461.75 272.6875 C-461.32170898 272.1728418 -460.89341797 271.65818359 -460.45214844 271.12792969 C-449.20502916 257.66193627 -437.12364636 244.99351397 -424.75 232.5625 C-424.06848877 231.87631592 -423.38697754 231.19013184 -422.68481445 230.4831543 C-418.76632398 226.57711716 -414.73809738 222.85617063 -410.54931641 219.24169922 C-408.30792825 217.30565078 -406.12339585 215.31081459 -403.9375 213.3125 C-398.68601708 208.5853709 -393.27989505 204.08403717 -387.75 199.6875 C-387.09999023 199.17026367 -386.44998047 198.65302734 -385.78027344 198.12011719 C-376.82230767 191.01693865 -367.77071416 184.12061476 -358.31982422 177.68237305 C-355.31506587 175.61389064 -352.73938583 173.67664424 -350.17578125 171.0546875 C-347.3905009 168.33668445 -344.77527153 167.00422526 -341.25 165.375 C-336.49107999 163.10721366 -331.96958151 160.68834064 -327.5 157.875 C-320.18615687 153.27949808 -312.67424807 149.08930167 -305.08837891 144.9609375 C-303.56514098 144.13141056 -302.0438722 143.29825422 -300.52490234 142.4609375 C-268.31181816 124.73552175 -233.66107212 111.78392371 -198.44921875 101.4140625 C-197.29035156 101.07117188 -196.13148438 100.72828125 -194.9375 100.375 C-194.00292969 100.11074219 -193.06835938 99.84648437 -192.10546875 99.57421875 C-189.69247687 98.811827 -189.69247687 98.811827 -187.87109375 97.13110352 C-185.36877175 95.42803837 -184.41849769 95.44769892 -181.45703125 95.703125 C-174.9364944 95.89844336 -168.86162754 94.38528877 -162.55404663 92.92419434 C-146.39874294 89.2093247 -130.23347609 86.50915814 -113.75 84.6875 C-113.09398804 84.61337891 -112.43797607 84.53925781 -111.76208496 84.46289062 C-68.51148595 79.60041261 -24.17449955 79.87822733 18.90869141 86.31933594 C22.38242444 86.70209126 25.69813313 86.69356466 29.1875 86.5625 C34.10985968 86.47321899 36.71013829 87.12608298 40.85546875 89.61328125 C44.22109566 91.1231465 47.69605272 91.61576755 51.3125 92.1875 C58.72693612 93.37380978 65.84509 95.06916254 73.08105469 97.09863281 C75.49660982 97.7544544 77.92167464 98.36042218 80.3515625 98.9609375 C97.91795093 103.33476112 115.69186549 108.28048014 132.25 115.6875 C133.76819434 116.29826784 135.28881407 116.90306401 136.8125 117.5 C143.34771176 120.09809642 149.79344397 122.90129918 156.25 125.6875 C157.81427734 126.34105469 157.81427734 126.34105469 159.41015625 127.0078125 C164.84932815 129.33931803 170.16556092 131.94061098 175.5 134.5 C176.56863281 135.00853516 177.63726563 135.51707031 178.73828125 136.04101562 C184.92801008 139.00802416 190.96969555 142.12501831 196.91967773 145.54980469 C199.39536354 146.91882614 199.39536354 146.91882614 203.0625 147.125 C207.27111159 147.86769616 208.19824546 149.67816362 210.6953125 152.96484375 C213.15841871 155.69406445 215.80995963 156.51788628 219.25 157.6875 C219.25 158.3475 219.25 159.0075 219.25 159.6875 C219.97574219 159.95691406 220.70148437 160.22632813 221.44921875 160.50390625 C241.39003251 168.93077734 259.83294719 185.79778635 276.51611328 199.29003906 C278.04452006 200.5218893 279.58211656 201.74231883 281.12109375 202.9609375 C291.80569849 211.50227086 301.68442535 220.99523178 311.26953125 230.7421875 C313.23639874 232.67414018 315.27431336 234.46541669 317.375 236.25 C320.61550839 239.04026162 323.38406031 242.00612156 326.14453125 245.265625 C328.34493674 247.79670367 330.62060855 250.23992735 332.91748047 252.68310547 C338.98555352 259.13986836 344.7318919 265.74991265 350.25 272.6875 C351.16941877 273.81604542 352.09006036 274.94359538 353.01171875 276.0703125 C370.06254844 297.00274663 384.6236784 319.41313794 398.25 342.6875 C398.66572266 343.39358398 399.08144531 344.09966797 399.50976562 344.82714844 C433.83379646 403.50382636 457.57121582 473.33231639 462.73046875 541.296875 C463.11409523 544.81294604 463.11409523 544.81294604 464.86328125 548.265625 C466.4591656 552.2036382 466.0137893 553.60805871 465.25 557.6875 C465.18154678 559.65607794 465.16189228 561.6267928 465.18408203 563.59643555 C465.1985009 565.32015129 465.1985009 565.32015129 465.21321106 567.07868958 C465.22792953 568.3147142 465.24264801 569.55073883 465.2578125 570.82421875 C465.27811386 573.49592905 465.29737993 576.16763217 465.31567383 578.83935547 C465.32090278 579.53210351 465.32613173 580.22485155 465.33151913 580.93859196 C465.51757575 605.98068575 465.50388404 630.81133622 462.25 655.6875 C462.16278687 656.36677551 462.07557373 657.04605103 461.98571777 657.74591064 C458.53995685 684.49117352 453.70487938 711.03786592 445.25 736.6875 C445.0339209 737.34395508 444.8178418 738.00041016 444.59521484 738.67675781 C441.53357747 747.97228123 438.44221997 757.2577809 435.31730652 766.53222656 C433.5572209 771.75734387 431.83195507 776.99321992 430.13208008 782.23828125 C428.94850875 785.52463263 427.39997722 788.54341237 425.78125 791.6328125 C423.73467711 795.71551658 421.91145868 799.88740631 420.0625 804.0625 C413.65638096 818.42438826 406.74955144 832.49208197 398.74609375 846.03515625 C397.15156011 848.66506548 397.15156011 848.66506548 396.25 851.6875 C395.59 851.6875 394.93 851.6875 394.25 851.6875 C394.01152344 852.36167969 393.77304688 853.03585937 393.52734375 853.73046875 C391.95310958 857.37479679 389.93149033 860.65633209 387.8125 864 C387.3693042 864.7022168 386.9261084 865.40443359 386.46948242 866.12792969 C379.25631413 877.47357639 371.53913751 888.41300893 363.5 899.1875 C362.88616455 900.01217773 362.2723291 900.83685547 361.63989258 901.68652344 C358.22431418 906.22467234 354.68270814 910.58188999 350.90673828 914.82470703 C349.36763074 916.55523909 347.85956236 918.30664248 346.36328125 920.07421875 C336.35950101 931.87599481 325.92050437 943.10005515 315 954.0625 C314.16017578 954.90699707 313.32035156 955.75149414 312.45507812 956.62158203 C308.09497184 960.97048646 303.66707623 965.17190949 298.99658203 969.18603516 C296.72466238 971.13911118 294.52136909 973.16364729 292.3125 975.1875 C287.78886048 979.26427543 283.09854138 983.00849496 278.25 986.6875 C277.31929687 987.41324219 276.38859375 988.13898437 275.4296875 988.88671875 C252.87937559 1006.43526975 229.23479262 1021.82289286 204.25 1035.6875 C203.59547852 1036.05536621 202.94095703 1036.42323242 202.26660156 1036.80224609 C150.22111403 1066.00632261 91.30957626 1082.66773275 32.4375 1090.4375 C31.62766663 1090.5445929 30.81783325 1090.65168579 29.98345947 1090.76202393 C27.6289385 1091.07057708 25.273701 1091.37272092 22.91796875 1091.671875 C22.23642227 1091.76018585 21.55487579 1091.8484967 20.85267639 1091.93948364 C10.23290545 1093.25896599 -0.38494898 1093.84872444 -11.08203125 1093.92578125 C-12.22039429 1093.93562042 -13.35875732 1093.94545959 -14.53161621 1093.95559692 C-53.94383967 1094.22547494 -91.3010547 1091.46941776 -129.80511475 1083.1048584 C-132.73632155 1082.47584248 -135.67531333 1081.88557345 -138.61328125 1081.2890625 C-164.64696093 1075.82936452 -191.05547789 1066.96406932 -215.3125 1056 C-216.58452986 1055.43335673 -217.85666443 1054.86694847 -219.12890625 1054.30078125 C-220.32386719 1053.76839844 -221.51882813 1053.23601562 -222.75 1052.6875 C-223.83748535 1052.22931885 -224.9249707 1051.7711377 -226.04541016 1051.29907227 C-229.6459643 1049.75818803 -233.14425381 1048.04712592 -236.64453125 1046.2890625 C-237.27679123 1045.97222504 -237.90905121 1045.65538757 -238.56047058 1045.32894897 C-240.56210582 1044.32536324 -242.56233021 1043.31900268 -244.5625 1042.3125 C-245.89118176 1041.64564544 -247.21995714 1040.9789774 -248.54882812 1040.3125 C-251.10807763 1039.02864813 -253.66682169 1037.74379846 -256.22509766 1036.45800781 C-260.73035906 1034.19507973 -265.2394155 1031.93979541 -269.75 1029.6875 C-269.75 1029.0275 -269.75 1028.3675 -269.75 1027.6875 C-272.06 1027.0275 -274.37 1026.3675 -276.75 1025.6875 C-276.75 1025.0275 -276.75 1024.3675 -276.75 1023.6875 C-277.83063721 1023.29159668 -277.83063721 1023.29159668 -278.93310547 1022.88769531 C-281.81398946 1021.66023599 -284.21462796 1020.21693266 -286.8203125 1018.484375 C-287.79009033 1017.84056885 -288.75986816 1017.1967627 -289.7590332 1016.53344727 C-290.78730225 1015.84178467 -291.81557129 1015.15012207 -292.875 1014.4375 C-293.93871826 1013.72456787 -295.00243652 1013.01163574 -296.09838867 1012.27709961 C-312.99680774 1000.87543691 -329.19300306 988.82260156 -344.20703125 975.015625 C-346.32067054 973.08055738 -348.45659848 971.18541703 -350.625 969.3125 C-361.58914942 959.76671077 -372.40545235 949.89155559 -381.875 938.84375 C-384.09775991 936.2875761 -386.39222272 933.80371559 -388.6875 931.3125 C-393.27871908 926.26697738 -397.55162865 921.06084217 -401.75 915.6875 C-402.74126265 914.46018995 -403.73353148 913.23369218 -404.7265625 912.0078125 C-422.896255 889.36323474 -438.11281944 864.6533126 -451.70410156 839.04663086 C-454.36610499 834.04153352 -457.06652745 829.10412402 -460.03515625 824.2734375 C-462.14748061 820.79913267 -463.7634032 817.51818401 -465 813.625 C-466.85729706 808.10651351 -468.93309015 802.74035791 -471.15771484 797.359375 C-486.21326008 760.78031661 -495.861002 722.83839247 -501.45574951 683.73284912 C-501.72770341 681.84248462 -502.01011517 679.95363255 -502.29345703 678.06494141 C-508.85011607 632.87152491 -506.8971459 583.14607166 -498.25 538.3125 C-497.89421875 536.44464844 -497.89421875 536.44464844 -497.53125 534.5390625 C-493.15655278 512.97180518 -488.42000007 490.46010347 -479.7421875 470.1640625 C-478.43878339 466.91068374 -477.38666771 463.58392274 -476.3125 460.25 C-474.56429822 454.87895448 -472.54267476 449.76353247 -470.11328125 444.6640625 C-469.08519899 442.41936713 -468.13637141 440.19187633 -467.23046875 437.8984375 C-463.06493907 427.36034331 -458.12525401 417.43354298 -452.67041016 407.50244141 C-451.61887374 405.5392031 -451.61887374 405.5392031 -450.75 402.6875 C-450.09 402.6875 -449.43 402.6875 -448.75 402.6875 C-448.35059204 401.37241455 -448.35059204 401.37241455 -447.94311523 400.03076172 C-446.78818576 396.7945014 -445.42315809 394.1365004 -443.66015625 391.1953125 C-443.0463208 390.16849365 -442.43248535 389.1416748 -441.80004883 388.08374023 C-441.14415771 387.00423096 -440.4882666 385.92472168 -439.8125 384.8125 C-439.13662842 383.69496338 -438.46075684 382.57742676 -437.7644043 381.42602539 C-432.39759063 372.61778934 -426.81634136 364.02844492 -420.75 355.6875 C-420.28029785 355.04055176 -419.8105957 354.39360352 -419.32666016 353.72705078 C-409.60050267 340.40510334 -399.40867553 327.39151894 -388.1640625 315.3125 C-386.27702615 313.26057698 -384.45744322 311.18223243 -382.64453125 309.06640625 C-378.39462592 304.19353201 -373.84178649 299.62877068 -369.26196289 295.0690918 C-367.81475615 293.62724779 -366.37297974 292.18012884 -364.93164062 290.73242188 C-359.70831807 285.50501488 -354.38685016 280.46689176 -348.75 275.6875 C-347.74039117 274.81046447 -346.73124432 273.93289671 -345.72265625 273.0546875 C-336.99398255 265.57966224 -327.97526662 258.53887903 -318.75 251.6875 C-317.7612085 250.95128418 -317.7612085 250.95128418 -316.75244141 250.20019531 C-295.73848917 234.66974375 -273.17647808 221.85249353 -249.83300781 210.22363281 C-247.32559423 208.97429434 -244.82920228 207.70684234 -242.3359375 206.4296875 C-218.88001453 194.65843839 -193.47111008 186.50027561 -168.21166992 179.6418457 C-164.69124295 178.6713013 -161.193128 177.63732397 -157.69140625 176.6015625 C-150.99904271 174.68632294 -144.29409699 173.30527023 -137.4375 172.125 C-136.22602295 171.91447998 -135.0145459 171.70395996 -133.76635742 171.48706055 C-68.92265023 160.47746105 1.71204521 160.70791499 64.75 181 C69.04815131 182.3828654 73.34362225 183.7301157 77.69921875 184.921875 C109.73645401 193.8022539 140.80050353 209.27042148 169.53369141 225.78637695 C171.41013688 226.83033467 171.41013688 226.83033467 174.25 227.6875 C174.25 228.3475 174.25 229.0075 174.25 229.6875 C174.98178467 229.95900879 175.71356934 230.23051758 176.4675293 230.51025391 C179.14103739 231.64139859 181.35651447 232.91958688 183.76953125 234.5234375 C184.61918457 235.08716064 185.46883789 235.65088379 186.34423828 236.23168945 C187.24126465 236.83585693 188.13829102 237.44002441 189.0625 238.0625 C190.45831299 238.99872192 190.45831299 238.99872192 191.88232422 239.95385742 C204.15511357 248.24898378 215.92106637 257.14227081 227.25 266.6875 C227.7670752 267.1196582 228.28415039 267.55181641 228.81689453 267.99707031 C243.43829478 280.23403106 257.98150294 293.0923093 270.41796875 307.578125 C272.40311587 309.86379546 274.4503983 312.08451378 276.5 314.3125 C282.08827038 320.50798482 287.16317147 327.08057347 292.25 333.6875 C292.91829834 334.55375 292.91829834 334.55375 293.60009766 335.4375 C295.32273555 337.67090162 297.04512227 339.90439198 298.75708008 342.14599609 C300.52451858 344.45941209 302.30478518 346.75445966 304.1484375 349.0078125 C307.95020121 353.66970375 311.00519521 358.52242336 313.92724609 363.78125 C316.34482125 368.1317476 318.88022666 372.39217323 321.47998047 376.63623047 C355.83124025 432.88048717 375.56810784 496.198564 381.25 561.6875 C381.33330566 562.61014648 381.41661133 563.53279297 381.50244141 564.48339844 C381.96612498 569.88603134 382.14997695 575.26720304 382.25 580.6875 C382.29664795 582.43015137 382.29664795 582.43015137 382.34423828 584.20800781 C382.78614785 602.199723 382.15765686 619.89835523 380.375 637.8125 C380.28795807 638.69440002 380.20091614 639.57630005 380.11123657 640.48492432 C379.85689758 643.01446859 379.59173567 645.54254842 379.3203125 648.0703125 C379.24311478 648.80958984 379.16591705 649.54886719 379.08638 650.31054688 C378.57787648 654.8192418 377.76637114 659.17748319 376.71586609 663.59178162 C376.07353071 666.4813546 375.67226451 669.38972495 375.26196289 672.31958008 C373.8964468 682.0220394 371.66418252 691.25607253 368.85986328 700.63427734 C367.95412299 703.68362717 367.10691192 706.74912661 366.25 709.8125 C360.79867518 728.75096711 355.01876841 747.62233402 346.35742188 765.36328125 C345.00421865 768.20333739 343.71300711 771.06869655 342.421875 773.9375 C337.2763708 785.34456859 332.12992444 796.22556822 325.25 806.6875 C324.25898731 808.29750918 323.27383193 809.91113116 322.29296875 811.52734375 C309.02816494 833.3627902 294.12160687 853.51730908 277.25 872.6875 C276.425 873.6259375 275.6 874.564375 274.75 875.53125 C268.72996468 882.2285393 262.41690967 888.62125725 256.0625 895 C255.21880859 895.84836426 254.37511719 896.69672852 253.50585938 897.57080078 C248.58169096 902.48239768 243.55794546 907.19387615 238.25 911.6875 C237.61989014 912.22431396 236.98978027 912.76112793 236.34057617 913.31420898 C219.57285086 927.50555999 202.07500137 940.3582719 183.25 951.6875 C182.4652832 952.16364746 181.68056641 952.63979492 180.87207031 953.13037109 C103.5510181 999.73419323 8.9456403 1020.67158744 -123.26620483 999.10240173 C-126.43029978 998.30840852 -129.59034254 997.49895117 -132.75 996.6875 C-134.01231445 996.36998779 -135.27462891 996.05247559 -136.57519531 995.7253418 C-151.05789784 992.06260197 -165.52544205 987.63507938 -178.9609375 981.046875 C-180.89122687 980.1060617 -182.85013226 979.22259639 -184.828125 978.38671875 C-190.35449469 976.04672438 -195.72475874 973.36414981 -201.125 970.75 C-208.28680261 967.2839257 -215.45061439 963.85570915 -222.75 960.6875 C-222.75 960.0275 -222.75 959.3675 -222.75 958.6875 C-223.430625 958.419375 -224.11125 958.15125 -224.8125 957.875 C-228.14710809 956.52696694 -231.44743237 955.11213702 -234.75 953.6875 C-234.75 953.0275 -234.75 952.3675 -234.75 951.6875 C-235.45125 951.419375 -236.1525 951.15125 -236.875 950.875 C-239.9149824 949.6193551 -242.8227774 948.18514877 -245.75 946.6875 C-245.75 946.0275 -245.75 945.3675 -245.75 944.6875 C-246.72066406 944.38005859 -246.72066406 944.38005859 -247.7109375 944.06640625 C-252.00037728 942.12016944 -255.58873133 939.40624952 -259.375 936.625 C-260.17897217 936.0386377 -260.98294434 935.45227539 -261.8112793 934.84814453 C-267.97172452 930.32556841 -273.91974123 925.63016714 -279.75 920.6875 C-280.73742187 919.8728125 -281.72484375 919.058125 -282.7421875 918.21875 C-296.59230136 906.74618195 -310.20820923 894.45126834 -321.92578125 880.78515625 C-323.1696954 879.35478816 -324.43934069 877.94649275 -325.73046875 876.55859375 C-388.44558218 809.04560278 -420.31220186 716.02514137 -422.30761719 625.01782227 C-422.37571288 621.96807263 -422.4532387 618.91865097 -422.53125 615.86914062 C-422.57608665 613.9297005 -422.62037798 611.99024767 -422.6640625 610.05078125 C-422.69990952 608.68376823 -422.69990952 608.68376823 -422.73648071 607.28913879 C-422.7533493 606.45033676 -422.7702179 605.61153473 -422.78759766 604.74731445 C-422.81305161 603.64030937 -422.81305161 603.64030937 -422.83901978 602.51094055 C-422.75 600.6875 -422.75 600.6875 -421.75 598.6875 C-421.43095344 596.25385989 -421.15830284 593.83223994 -420.91796875 591.390625 C-420.76020459 589.86942056 -420.60198317 588.34826348 -420.44335938 586.82714844 C-420.36110107 586.02853394 -420.27884277 585.22991943 -420.1940918 584.40710449 C-417.59183793 559.36133948 -413.40866109 535.21802252 -405.58056641 511.23486328 C-404.95893968 509.32832204 -404.34223494 507.42017476 -403.72802734 505.51123047 C-402.57794157 501.9419125 -401.41534219 498.37686381 -400.25 494.8125 C-399.69856323 493.10066528 -399.69856323 493.10066528 -399.13598633 491.35424805 C-397.1640867 485.38102636 -394.96680927 479.78870232 -392.04931641 474.21679688 C-390.62118102 471.43673625 -389.33413806 468.61492198 -388.05859375 465.76171875 C-376.19365579 439.3060023 -361.75339828 414.47968099 -343.75 391.6875 C-343.28303711 391.09195312 -342.81607422 390.49640625 -342.33496094 389.8828125 C-325.78556452 368.84490716 -307.02205622 348.0002352 -285.75 331.6875 C-284.65072576 330.79133041 -283.55458578 329.89130795 -282.4609375 328.98828125 C-265.97433892 315.42988264 -248.51347186 303.84448914 -229.75 293.6875 C-228.81752441 293.17944824 -227.88504883 292.67139648 -226.92431641 292.14794922 C-184.38163446 269.08020103 -138.84102011 255.14543374 -90.75 249.6875 C-89.41304077 249.53172485 -89.41304077 249.53172485 -88.04907227 249.37280273 C-77.75399424 248.34063897 -67.39777042 248.48856484 -57.0625 248.5 C-56.05900513 248.50060425 -55.05551025 248.5012085 -54.02160645 248.50183105 C-14.91407217 248.56580109 22.3644094 253.99487521 59.4375 266.6875 C60.17280945 266.93862549 60.9081189 267.18975098 61.66571045 267.44848633 C71.39201276 270.79000462 80.84379528 274.52993277 90.25 278.6875 C91.44471924 279.19659912 92.63943848 279.70569824 93.87036133 280.23022461 C124.62933141 293.49326675 152.6770114 312.47078522 178.1484375 334.078125 C180.24991372 335.86843335 180.24991372 335.86843335 183.25 336.6875 C183.25 337.3475 183.25 338.0075 183.25 338.6875 C183.82878906 338.92855469 184.40757812 339.16960937 185.00390625 339.41796875 C187.68703602 340.93452036 189.18789562 342.65497451 191.1875 345 C194.88441369 349.22678435 198.73880199 353.19699289 202.75 357.125 C207.45574572 361.771983 211.8084962 366.53888939 215.91015625 371.73828125 C217.59372837 373.86031289 219.2961489 375.92674984 221.05859375 377.98046875 C235.47063349 394.94377939 247.84211917 414.03059903 258.25 433.6875 C258.88421875 434.81542969 259.5184375 435.94335938 260.171875 437.10546875 C269.63866242 454.02230943 277.22274835 471.8978864 282.52539062 490.54052734 C284.28437748 496.73933253 284.28437748 496.73933253 288.0390625 501.83203125 C290.25 504.6875 290.25 504.6875 290.24853516 506.57763672 C289.99927555 508.07693496 289.74198899 509.5749115 289.47851562 511.07177734 C289.00637928 516.47612435 290.76991802 521.7702219 292 527 C296.89309651 549.54107211 298.51384802 571.47669854 298.5625 594.5 C298.56626648 595.47894226 298.57003296 596.45788452 298.57391357 597.4664917 C298.61030313 616.1218137 297.64075199 634.79109425 294.375 653.1875 C294.20355469 654.18249512 294.03210937 655.17749023 293.85546875 656.20263672 C292.43635933 664.17994799 290.55521731 671.91639632 288.25 679.6875 C287.58264995 682.04147303 286.91598462 684.3956403 286.25 686.75 C285.75306641 688.46509766 285.75306641 688.46509766 285.24609375 690.21484375 C284.57452122 692.55612995 283.92123591 694.90272922 283.28515625 697.25390625 C281.1566751 705.04124091 278.53832812 712.32029941 275.25 719.6875 C274.60526691 721.16137006 273.96075237 722.63533573 273.31640625 724.109375 C264.64251941 743.80888548 255.28841338 762.80874524 243.25 780.6875 C242.75886719 781.41807617 242.26773438 782.14865234 241.76171875 782.90136719 C228.80134698 802.02560969 213.87234413 819.29045225 197.5625 835.625 C197.03498138 836.15385803 196.50746277 836.68271606 195.96395874 837.2276001 C188.15445074 845.03282487 180.19246808 852.20250406 171.25 858.6875 C169.67633593 859.93151873 168.1027089 861.17560073 166.53393555 862.42578125 C119.06095795 899.9453329 59.88805723 920.30332802 0.25 926.6875 C-1.00039063 926.8215625 -2.25078125 926.955625 -3.5390625 927.09375 C-6.9462686 927.39219141 -10.33156492 927.56925225 -13.75 927.6875 C-14.51989258 927.71473145 -15.28978516 927.74196289 -16.08300781 927.77001953 C-29.51409877 928.17401943 -42.80879935 927.46485651 -56.1875 926.375 C-56.93469299 926.31614624 -57.68188599 926.25729248 -58.45172119 926.19665527 C-73.27829182 925.00753032 -87.68406979 922.72596046 -102.0234375 918.7109375 C-105.16199928 917.84898447 -108.30626183 917.07628081 -111.47558594 916.33789062 C-118.47655717 914.68609353 -125.26813277 912.61245505 -132.0625 910.25 C-132.86196045 909.97373779 -133.6614209 909.69747559 -134.48510742 909.4128418 C-146.24992764 905.22552718 -157.37601856 899.4915705 -168.59228516 894.04248047 C-170.37328133 893.17783173 -172.15537454 892.31544377 -173.9375 891.453125 C-174.98292969 890.94555664 -176.02835938 890.43798828 -177.10546875 889.91503906 C-179.76706696 888.61925902 -179.76706696 888.61925902 -182.75 887.6875 C-182.75 887.0275 -182.75 886.3675 -182.75 885.6875 C-183.40355469 885.45804688 -184.05710937 885.22859375 -184.73046875 884.9921875 C-188.72766935 883.26506589 -192.35195393 881.08194956 -196.0625 878.8125 C-196.85285645 878.3292627 -197.64321289 877.84602539 -198.45751953 877.34814453 C-205.95006672 872.68980632 -212.9537143 867.49621893 -219.91894531 862.09228516 C-221.6857881 860.73676337 -223.47252217 859.41527152 -225.2734375 858.10546875 C-226.33820313 857.32816406 -227.40296875 856.55085937 -228.5 855.75 C-229.42296875 855.08097656 -230.3459375 854.41195312 -231.296875 853.72265625 C-233.86475312 851.59229876 -235.71219354 849.318431 -237.75 846.6875 C-238.82332162 845.69474247 -239.92850143 844.73534021 -241.0625 843.8125 C-251.62633504 834.75213212 -261.18898486 824.64320469 -269.75 813.6875 C-270.70054295 812.52392756 -271.65384331 811.36260416 -272.609375 810.203125 C-283.74776519 796.62876923 -292.90495608 782.19811138 -301.50097656 766.90234375 C-302.59795578 764.95711399 -303.71397897 763.02461327 -304.8359375 761.09375 C-340.09200997 698.35233124 -348.25577415 616.95489442 -329.9453125 547.75 C-327.51779825 539.29833918 -324.64911066 530.98646751 -321.75 522.6875 C-321.18539062 521.03041016 -321.18539062 521.03041016 -320.609375 519.33984375 C-314.30334077 501.85706974 -305.14034201 485.24608673 -296.75 468.6875 C-296.09 468.6875 -295.43 468.6875 -294.75 468.6875 C-294.52183594 468.01589844 -294.29367187 467.34429688 -294.05859375 466.65234375 C-292.38457207 462.85956031 -290.17923136 459.64187772 -287.8125 456.25 C-287.32668457 455.54915283 -286.84086914 454.84830566 -286.34033203 454.1262207 C-281.80557538 447.64977034 -276.99617313 441.41815248 -272.02587891 435.27197266 C-270.83164663 433.7888943 -269.65536263 432.29141344 -268.48046875 430.79296875 C-261.09295647 421.48869653 -252.76814598 413.06438516 -243.7109375 405.375 C-242.315936 404.17452062 -240.94864583 402.94151212 -239.6015625 401.6875 C-199.38856351 364.28005907 -145.60053892 341.68892645 -91.75 333.6875 C-90.9981543 333.57035645 -90.24630859 333.45321289 -89.47167969 333.33251953 C-63.26423469 329.41479175 -34.79300016 330.27576082 -8.75 334.6875 C-7.61353027 334.87965088 -7.61353027 334.87965088 -6.45410156 335.07568359 C-2.18834968 335.82243421 2.03165732 336.71045739 6.25 337.6875 C7.219375 337.90019531 8.18875 338.11289062 9.1875 338.33203125 C16.19151163 339.959322 22.88166873 342.26115566 29.65820312 344.63378906 C34.88883792 346.40330169 39.61816556 347.12082345 45.14453125 347.36328125 C48.53656042 347.88561598 50.00047895 350.21302684 52.25 352.6875 C54.30448743 353.80529333 54.30448743 353.80529333 56.75 354.8125 C77.07042313 363.5760248 95.84188612 375.07475978 113.25 388.6875 C114.075 389.31914063 114.9 389.95078125 115.75 390.6015625 C131.68239874 403.01044998 146.99758088 417.63486533 159.25 433.6875 C159.65750488 434.21327637 160.06500977 434.73905273 160.48486328 435.28076172 C188.17239128 471.14042528 206.18990883 512.95211135 213.25 557.6875 C213.36714355 558.37779297 213.48428711 559.06808594 213.60498047 559.77929688 C219.58504596 595.92626037 215.89791474 637.02917521 203.99511719 671.49804688 C203.1349383 674.02559742 202.32271612 676.5668757 201.5078125 679.109375 C197.53350304 691.27591968 192.75289617 702.47123956 186.43310547 713.60058594 C185.34082853 715.52728492 184.27724762 717.46655927 183.22265625 719.4140625 C151.64738882 776.62405625 98.63498833 816.63796162 36.70849609 835.68896484 C15.7757748 841.73264902 -5.35460389 844.10671811 -27.0625 844.0625 C-27.97909393 844.06262085 -28.89568787 844.0627417 -29.84005737 844.06286621 C-45.45301793 844.03368216 -60.42537756 842.86535424 -75.75 839.6875 C-76.61915039 839.51138184 -77.48830078 839.33526367 -78.38378906 839.15380859 C-85.40123062 837.70178229 -92.19063187 835.97890926 -98.8815918 833.39477539 C-101.32709656 832.46904335 -103.81438335 831.70838898 -106.3125 830.9375 C-124.61461957 824.85204524 -143.15217135 814.96717169 -158.75 803.6875 C-159.67159912 803.02645264 -159.67159912 803.02645264 -160.61181641 802.35205078 C-169.88594225 795.67078861 -178.53997549 788.65426452 -186.75 780.6875 C-187.34167969 780.12160156 -187.93335938 779.55570313 -188.54296875 778.97265625 C-226.2622974 742.80876383 -248.60540118 695.46370119 -254.75 643.6875 C-254.94722656 642.06714844 -254.94722656 642.06714844 -255.1484375 640.4140625 C-258.99455033 602.47267921 -251.45849956 562.38051577 -233.78515625 528.67236328 C-232.78658205 526.75764436 -231.8128953 524.83208897 -230.84375 522.90234375 C-221.49132483 504.5250571 -208.84968192 488.64047679 -194.75 473.6875 C-194.02039063 472.90375 -193.29078125 472.12 -192.5390625 471.3125 C-186.18923328 464.70301233 -179.06266269 459.17748042 -171.75 453.6875 C-170.91726563 453.05972656 -170.08453125 452.43195313 -169.2265625 451.78515625 C-141.84866536 431.92917283 -109.42570902 418.95083494 -75.75 415.6875 C-74.44119873 415.55045654 -74.44119873 415.55045654 -73.10595703 415.41064453 C-22.23487115 410.34430702 27.09849058 425.87953334 66.78515625 457.8203125 C74.91083178 464.47623347 82.62980925 471.50794954 89.25 479.6875 C90.06855469 480.66847656 90.88710938 481.64945313 91.73046875 482.66015625 C113.69391271 509.41075702 127.58977178 541.72915056 131.79296875 576.09375 C132.16362592 578.75540372 132.16362592 578.75540372 133.36328125 581.34375 C134.25 583.6875 134.25 583.6875 133.25 586.6875 C133.06603408 588.74676623 132.92989579 590.81043895 132.8203125 592.875 C132.74917236 594.121604 132.67803223 595.36820801 132.60473633 596.65258789 C132.5678067 597.31114777 132.53087708 597.96970764 132.49282837 598.64822388 C129.96460902 642.4045568 115.31127855 681.91921208 84.25 713.6875 C83.51394531 714.47382812 82.77789063 715.26015625 82.01953125 716.0703125 C61.74631063 737.26672167 34.38551217 750.58449293 6.25 757.6875 C5.55068359 757.86684082 4.85136719 758.04618164 4.13085938 758.23095703 C-23.05599912 764.84379918 -57.05581001 762.58382155 -82.44921875 750.75 C-84.27416323 749.90724126 -86.12369486 749.11775715 -87.98046875 748.34765625 C-100.64381455 742.93429174 -112.26531422 735.56960427 -122.75 726.6875 C-123.25724609 726.25856445 -123.76449219 725.82962891 -124.28710938 725.38769531 C-141.48262998 710.68759563 -153.04567102 692.96520234 -162.75 672.6875 C-163.08273926 672.06842773 -163.41547852 671.44935547 -163.75830078 670.81152344 C-166.34432909 665.94610102 -167.81707652 661.33450918 -168.875 655.9375 C-169.03967773 655.12474609 -169.20435547 654.31199219 -169.37402344 653.47460938 C-173.99038796 629.57920963 -173.68536783 607.035749 -166.75 583.6875 C-166.54125244 582.91623779 -166.33250488 582.14497559 -166.11743164 581.3503418 C-164.41063703 575.23941281 -162.07396494 569.82608222 -159.0625 564.25 C-158.39939819 563.01068726 -158.39939819 563.01068726 -157.72290039 561.74633789 C-152.00189232 551.2449449 -144.9544884 542.35846433 -136.75 533.6875 C-135.97914063 532.8521875 -135.20828125 532.016875 -134.4140625 531.15625 C-113.9398583 509.6881524 -84.82038193 498.14233983 -55.38769531 497.38452148 C-25.0299678 497.24090778 2.54347903 509.93932432 24.25 530.6875 C24.75789062 531.15671875 25.26578125 531.6259375 25.7890625 532.109375 C29.21751313 535.81283504 31.62911837 540.39925828 34.25 544.6875 C34.92933594 545.77933594 35.60867188 546.87117187 36.30859375 547.99609375 C41.32095241 556.24409944 44.68076493 564.36752177 47.25 573.6875 C47.49621094 574.574375 47.74242187 575.46125 47.99609375 576.375 C52.9857181 598.39816956 47.89735206 622.79981912 36.19140625 641.8125 C23.72513835 660.27361303 7.61959777 672.25234962 -14.13623047 677.23388672 C-18.71333051 678.02823119 -23.30268129 677.91383788 -27.9375 677.9375 C-29.4234668 677.9684375 -29.4234668 677.9684375 -30.93945312 678 C-46.76103854 678.08299848 -62.39740961 670.84671934 -73.78662109 659.96679688 C-81.25379882 652.39839568 -85.70371084 643.79266349 -88.75 633.6875 C-89.03617188 632.78644531 -89.03617188 632.78644531 -89.328125 631.8671875 C-91.5189922 620.54770697 -89.89072416 609.92586963 -84.75 599.6875 C-84.41226563 598.96433594 -84.07453125 598.24117187 -83.7265625 597.49609375 C-79.35831164 589.36720586 -72.13178065 581.8619192 -63.234375 579.0390625 C-55.0990817 577.0465267 -48.25006772 576.75473569 -40.875 581.0625 C-36.01538488 584.25402206 -32.14631013 587.34188509 -29.75 592.6875 C-29.0675818 597.63311506 -28.82621716 602.430396 -31.75 606.6875 C-35.375 607.4375 -35.375 607.4375 -38.75 607.6875 C-38.42 607.0275 -38.09 606.3675 -37.75 605.6875 C-37.30959301 600.84302312 -38.04332703 597.74750946 -40.75 593.6875 C-45.49892037 590.29541402 -50.11366166 589.87326172 -55.75 590.6875 C-62.56576161 592.59961412 -68.90914609 595.39799873 -72.9296875 601.46875 C-77.78240835 610.39492266 -79.29761935 620.81993914 -77.0625 630.73828125 C-73.11633004 643.67843026 -65.35102324 653.70010275 -53.52734375 660.33203125 C-37.64483644 668.08340964 -21.14780515 667.32862528 -4.75 661.6875 C8.2718547 656.13019332 21.44374909 646.07490515 26.9375 632.75 C27.3190625 631.73035156 27.700625 630.71070313 28.09375 629.66015625 C29.18801729 626.84685419 30.48048993 624.326213 31.9375 621.6875 C39.087124 607.388252 38.34347338 586.30399616 33.64453125 571.27734375 C26.11626374 551.89785399 14.56938831 534.4102819 -3.75 523.6875 C-5.40241922 522.98626327 -7.06608017 522.30930079 -8.75 521.6875 C-8.75 521.0275 -8.75 520.3675 -8.75 519.6875 C-10.83476859 518.99257714 -12.92013575 518.299418 -15.0078125 517.61328125 C-16.84562236 516.99282407 -18.67406278 516.3439382 -20.4921875 515.66796875 C-32.01116107 511.50053522 -43.41626646 510.52770278 -55.5625 510.4375 C-56.85111938 510.42348145 -56.85111938 510.42348145 -58.16577148 510.40917969 C-68.47891047 510.19280353 -68.47891047 510.19280353 -77.40307617 514.24633789 C-77.84756104 514.72192139 -78.2920459 515.19750488 -78.75 515.6875 C-80.8515625 515.91796875 -80.8515625 515.91796875 -83.375 515.875 C-100.9188605 517.0585144 -119.92486555 531.6552776 -131.1171875 544.22265625 C-140.68424892 555.40184681 -148.37122847 567.54976231 -152.75 581.6875 C-153.28947266 583.42 -153.28947266 583.42 -153.83984375 585.1875 C-154.54221924 587.46709591 -155.23578599 589.74943633 -155.91796875 592.03515625 C-156.75 594.6875 -156.75 594.6875 -157.75 596.6875 C-163.73446521 628.48816183 -157.87072787 662.3747602 -139.9375 689.5 C-129.56659595 704.6085761 -114.70170835 723.70359722 -96.75 729.6875 C-96.75 730.3475 -96.75 731.0075 -96.75 731.6875 C-95.44675781 732.09548828 -95.44675781 732.09548828 -94.1171875 732.51171875 C-90.885623 733.64014208 -87.94339517 734.98971199 -84.875 736.5 C-67.02406689 744.80747171 -48.46291524 748.28035212 -28.875 748.0625 C-28.13364807 748.05817963 -27.39229614 748.05385925 -26.628479 748.04940796 C12.01555104 747.78584796 46.12098477 733.23784601 74.25 706.6875 C74.92546875 706.06488281 75.6009375 705.44226563 76.296875 704.80078125 C82.36734132 699.00955638 87.25149897 692.39238586 92.25 685.6875 C92.79140625 685.01460937 93.3328125 684.34171875 93.890625 683.6484375 C97.01988742 679.67088105 98.1082722 675.9237313 99.3828125 671.140625 C100.28805765 668.57984142 101.32720833 667.06796417 103.0625 665 C107.65322641 659.33848381 109.8696571 652.48773453 112.25 645.6875 C112.63285156 644.59566406 113.01570312 643.50382813 113.41015625 642.37890625 C126.31947665 601.49121085 119.81157243 556.59852683 101.25 518.6875 C94.5884641 505.89597932 86.01044175 494.44556904 76.23828125 483.86328125 C74.64293179 482.11748626 73.15064268 480.35461898 71.6875 478.5 C62.70042606 468.1302993 47.39203239 455.06817746 34.25 450.6875 C34.25 450.0275 34.25 449.3675 34.25 448.6875 C33.41597656 448.4296875 32.58195313 448.171875 31.72265625 447.90625 C27.90488936 446.5663813 24.33125246 444.93445454 20.6875 443.1875 C13.94401927 439.97375744 7.92572927 437.50464541 0.5546875 436.25 C-1.75 435.6875 -1.75 435.6875 -4.75 433.6875 C-7.33367565 432.94599667 -9.88404654 432.28865268 -12.5 431.6875 C-13.17160156 431.5225 -13.84320312 431.3575 -14.53515625 431.1875 C-27.32567159 428.19447265 -40.10624883 427.27568545 -53.1875 427.3125 C-53.9233432 427.31304382 -54.6591864 427.31358765 -55.41732788 427.31414795 C-68.82720847 427.35935569 -81.66525678 428.61081713 -94.75 431.6875 C-95.64428711 431.89648926 -96.53857422 432.10547852 -97.45996094 432.32080078 C-148.62120777 444.7254983 -189.30690689 477.44935583 -216.75 521.6875 C-222.80176479 531.89363682 -227.11124402 542.45097555 -231.00976562 553.62792969 C-231.55557867 555.14655728 -232.12566895 556.65651167 -232.70898438 558.16113281 C-235.32080587 564.99564499 -237.01873025 571.75476644 -238.375 578.9375 C-238.58664795 580.04303223 -238.7982959 581.14856445 -239.01635742 582.28759766 C-239.60708179 585.41868933 -240.18053115 588.55248592 -240.75 591.6875 C-240.88712402 592.40454102 -241.02424805 593.12158203 -241.16552734 593.86035156 C-250.33616311 642.46860151 -234.80344942 697.16422916 -207.75 737.6875 C-201.07841342 747.21134645 -193.81380542 756.30572118 -185.75 764.6875 C-185.23276367 765.23583496 -184.71552734 765.78416992 -184.18261719 766.34912109 C-166.66600161 785.10635741 -166.66600161 785.10635741 -144.75 797.6875 C-144.75 798.3475 -144.75 799.0075 -144.75 799.6875 C-143.1 800.0175 -141.45 800.3475 -139.75 800.6875 C-139.75 801.3475 -139.75 802.0075 -139.75 802.6875 C-139.08355469 802.93757812 -138.41710937 803.18765625 -137.73046875 803.4453125 C-134.07308877 804.96962028 -130.58803834 806.75850377 -127.0625 808.5625 C-121.05881404 811.59906605 -115.04606512 814.30754411 -108.75 816.6875 C-107.59371094 817.17476562 -107.59371094 817.17476562 -106.4140625 817.671875 C-58.01423836 838.03426056 -0.6432608 835.52136391 48.25 818.6875 C49.7659375 818.17316406 49.7659375 818.17316406 51.3125 817.6484375 C78.8074155 807.6958509 103.57784849 792.50045789 125.03125 772.71875 C127.02015799 770.89791875 129.05682976 769.16662594 131.125 767.4375 C140.20747933 759.49262414 148.05836112 750.16959056 155.04443359 740.36425781 C156.35866188 738.536368 157.70394736 736.73367009 159.05078125 734.9296875 C175.39586262 712.76813735 187.63875346 687.46304847 194.25 660.6875 C194.65918242 659.18297293 195.07082578 657.67911388 195.484375 656.17578125 C196.87302408 651.04156872 198.1083053 645.88201473 199.25 640.6875 C199.41951172 639.91664063 199.58902344 639.14578125 199.76367188 638.3515625 C205.33856064 611.24048519 204.74093499 578.75243203 199.25 551.6875 C199.05132324 550.67204102 198.85264648 549.65658203 198.64794922 548.61035156 C193.59997654 523.3742694 185.00285191 500.54362979 173.25 477.6875 C172.8463623 476.9022998 172.44272461 476.11709961 172.02685547 475.30810547 C161.65215137 455.41912648 147.66355567 437.8947607 132.25 421.6875 C131.71213867 421.12095703 131.17427734 420.55441406 130.62011719 419.97070312 C122.40279311 411.37835386 113.84106248 403.71053048 104.25 396.6875 C103.54343262 396.16849121 102.83686523 395.64948242 102.10888672 395.11474609 C99.87244428 393.48145505 97.62656159 391.86237525 95.375 390.25 C94.68559326 389.7535498 93.99618652 389.25709961 93.28588867 388.74560547 C88.78397661 385.5730771 84.22951511 383.0435793 79.25 380.6875 C79.25 380.0275 79.25 379.3675 79.25 378.6875 C78.54528564 378.41583008 77.84057129 378.14416016 77.11450195 377.86425781 C74.14601023 376.64478026 71.29464288 375.28165481 68.41796875 373.859375 C50.37550416 365.00487817 32.74775526 357.71005102 13.25 352.6875 C12.06204834 352.37103516 10.87409668 352.05457031 9.65014648 351.72851562 C-58.00721851 333.95860647 -131.75380343 346.71785947 -191.75 381.6875 C-215.60818649 396.3589416 -238.48387537 414.36108224 -256.75 435.6875 C-257.63116787 436.69431032 -258.51269564 437.70080573 -259.39453125 438.70703125 C-268.31837257 448.9743986 -276.07337977 459.86515082 -283.3125 471.375 C-283.74248291 472.05860596 -284.17246582 472.74221191 -284.61547852 473.4465332 C-286.30090232 476.16945717 -287.73358966 478.63826897 -288.75 481.6875 C-289.41 481.6875 -290.07 481.6875 -290.75 481.6875 C-291.059375 482.8321875 -291.059375 482.8321875 -291.375 484 C-292.94156079 488.20123122 -295.00071383 491.91829387 -297.21484375 495.80859375 C-298.93087248 499.02669343 -300.36545811 502.31837739 -301.75 505.6875 C-302.19001343 506.74723022 -302.19001343 506.74723022 -302.63891602 507.82836914 C-306.33255918 516.77706352 -309.90319214 525.76301602 -313 534.9375 C-313.22147705 535.58372314 -313.4429541 536.22994629 -313.67114258 536.89575195 C-317.95762541 549.91130425 -320.50615681 563.15415856 -322.4375 576.6875 C-322.65098017 578.13682388 -322.86517143 579.58604321 -323.08007812 581.03515625 C-323.65187889 584.91724727 -324.21284806 588.80042641 -324.75 592.6875 C-324.93320801 593.98856689 -325.11641602 595.28963379 -325.30517578 596.63012695 C-325.81372556 600.7741741 -325.91096938 604.87134538 -325.91796875 609.04296875 C-325.92220352 609.81835999 -325.92643829 610.59375122 -325.93080139 611.39263916 C-325.94063116 613.88681545 -325.94073109 616.38080787 -325.9375 618.875 C-325.93689575 619.72853058 -325.9362915 620.58206116 -325.93566895 621.4614563 C-325.91095248 634.29819465 -325.63835856 646.96832783 -323.75 659.6875 C-323.61577637 660.59918945 -323.48155273 661.51087891 -323.34326172 662.45019531 C-315.2811644 715.50111699 -294.11563562 765.29732492 -259.75 806.6875 C-259.2947998 807.24421387 -258.83959961 807.80092773 -258.37060547 808.37451172 C-237.78573288 833.49248928 -206.49854822 866.10465059 -174.75 876.6875 C-174.75 877.3475 -174.75 878.0075 -174.75 878.6875 C-173.51056641 879.06068359 -173.51056641 879.06068359 -172.24609375 879.44140625 C-168.24320414 880.8681345 -164.58329674 882.68073867 -160.8125 884.625 C-146.13209422 892.15377138 -130.50784969 897.83683632 -114.75 902.6875 C-114.08822754 902.8922998 -113.42645508 903.09709961 -112.74462891 903.30810547 C-101.97042622 906.56554083 -91.03219202 908.63351741 -79.9375 910.4375 C-78.65101563 910.64826172 -77.36453125 910.85902344 -76.0390625 911.07617188 C-68.58517279 912.24203668 -61.20333852 913.0389747 -53.66918945 913.45019531 C-50.75 913.6875 -50.75 913.6875 -48.79492188 914.20336914 C-45.76837431 914.91989777 -42.83696642 914.83695281 -39.73046875 914.85546875 C-38.70067902 914.86182091 -38.70067902 914.86182091 -37.65008545 914.86830139 C-35.41249529 914.87822129 -33.17510839 914.87821226 -30.9375 914.875 C-30.17124298 914.87439575 -29.40498596 914.8737915 -28.61550903 914.87316895 C18.80861706 914.77164619 65.58914639 904.72126465 108.25 883.6875 C109.15379395 883.24712402 110.05758789 882.80674805 110.98876953 882.35302734 C139.2364767 868.48246234 166.61705585 850.06686582 188.58984375 827.34765625 C190.25 825.6875 190.25 825.6875 193.3125 823.1875 C196.31516324 820.63204193 198.75253114 817.94321331 201.296875 814.9453125 C202.62606941 813.40876376 203.9927793 811.9040576 205.390625 810.4296875 C223.12151115 791.83500502 223.12151115 791.83500502 235.25 769.6875 C235.91 769.6875 236.57 769.6875 237.25 769.6875 C238.32525194 767.03521188 239.34456151 764.40381546 240.25 761.6875 C240.91 761.6875 241.57 761.6875 242.25 761.6875 C242.52021973 760.97811279 242.79043945 760.26872559 243.06884766 759.5378418 C244.27967012 756.61590044 245.66473891 753.87483419 247.1484375 751.08203125 C247.71046875 750.01533203 248.2725 748.94863281 248.8515625 747.84960938 C250.02406743 745.63502133 251.19851432 743.42146024 252.375 741.20898438 C256.28599723 733.77541087 259.97056656 726.37875594 262.1875 718.25 C263.08932317 715.22623995 264.13489575 712.75871544 265.5 709.9375 C267.85537156 704.87935694 269.63990417 699.7500745 271.3125 694.4375 C271.54549805 693.70047852 271.77849609 692.96345703 272.01855469 692.20410156 C276.05088517 679.13398181 279.12812475 666.10385768 281.375 652.625 C281.50384583 651.85793732 281.63269165 651.09087463 281.76544189 650.30056763 C287.31736438 617.05236755 288.00073819 584.10336886 283.25 550.6875 C283.10014648 549.62821289 282.95029297 548.56892578 282.79589844 547.47753906 C272.09292474 474.01105509 234.78924295 395.50552694 176.06640625 347.91796875 C174.76384446 346.95564727 173.45298448 346.00442318 172.1328125 345.06640625 C170.13018671 343.59975292 168.29272936 342.02367549 166.4375 340.375 C143.11681878 319.79001408 115.95616392 303.00054467 87.41186523 290.62597656 C85.97776828 290.00342787 84.54997657 289.3661355 83.12915039 288.71386719 C76.8169914 285.82301942 70.34914617 283.45586661 63.8125 281.125 C62.74451172 280.73892578 61.67652344 280.35285156 60.57617188 279.95507812 C47.47931042 275.13070548 47.47931042 275.13070548 33.76953125 273.09375 C31.03858908 272.65341204 28.87515811 271.62185847 26.3684082 270.49414062 C17.55961589 267.13995717 7.50070442 266.25837434 -1.75 264.6875 C-3.19270264 264.43105713 -3.19270264 264.43105713 -4.66455078 264.16943359 C-37.24927468 258.58894469 -74.20761966 259.09372868 -106.75 264.6875 C-107.9570459 264.88617676 -109.1640918 265.08485352 -110.40771484 265.28955078 C-143.0879118 270.77252966 -174.79090076 280.48075604 -204.75 294.6875 C-205.54083984 295.06100586 -206.33167969 295.43451172 -207.14648438 295.81933594 C-235.17010784 309.16444767 -262.38733902 326.25882782 -285.23828125 347.38671875 C-287.23927826 349.21966935 -289.26832804 350.98896829 -291.328125 352.75390625 C-296.31596902 357.10815141 -301.00645124 361.75788503 -305.68579102 366.43798828 C-307.17641615 367.92643237 -308.67487017 369.40667277 -310.17382812 370.88671875 C-316.48330721 377.1593836 -322.22077772 383.70517743 -327.75 390.6875 C-328.77417672 391.93100064 -329.80112091 393.17223232 -330.83203125 394.41015625 C-349.06156179 416.40969833 -349.06156179 416.40969833 -361.75 441.6875 C-362.41 441.6875 -363.07 441.6875 -363.75 441.6875 C-364.15182495 442.73321167 -364.15182495 442.73321167 -364.56176758 443.80004883 C-365.83817199 446.90176138 -367.27427466 449.88048985 -368.76171875 452.88671875 C-369.35791716 454.09904041 -369.9536007 455.31161537 -370.54882812 456.52441406 C-370.85763916 457.15319458 -371.1664502 457.7819751 -371.48461914 458.42980957 C-376.82689778 469.33542194 -381.94535958 480.23445939 -386.03076172 491.68408203 C-386.7594902 493.7139347 -387.51958481 495.7298794 -388.28515625 497.74609375 C-392.2937018 508.47589732 -395.21935697 519.43971008 -397.96459961 530.55249023 C-398.53384369 532.82468895 -399.12322237 535.09187417 -399.72485352 537.35571289 C-402.12138051 546.44764766 -403.83555037 555.50618035 -405.13305664 564.81665039 C-405.43997963 567.01778294 -405.75903435 569.2169023 -406.08007812 571.41601562 C-407.74519257 583.0003892 -408.90097455 594.40213196 -408.953125 606.1171875 C-408.96371445 607.70762123 -408.96371445 607.70762123 -408.97451782 609.33018494 C-409.32564334 677.60725816 -396.22502337 742.45791423 -362.75 802.6875 C-362.32106445 803.46544922 -361.89212891 804.24339844 -361.45019531 805.04492188 C-351.92932053 822.2234313 -340.96057647 838.31356175 -328.75 853.6875 C-327.73873047 854.98880859 -327.73873047 854.98880859 -326.70703125 856.31640625 C-322.4058885 861.80229491 -317.83710982 866.98022227 -313.11328125 872.10546875 C-311.15435897 874.24571277 -309.254805 876.41588609 -307.375 878.625 C-300.82776369 886.14735662 -293.64303595 893.27823544 -286.04296875 899.734375 C-284.17099222 901.32890356 -282.32632179 902.94500642 -280.48828125 904.578125 C-268.69083563 915.01602542 -256.31793688 924.39580185 -243.25 933.1875 C-242.15594849 933.92625366 -242.15594849 933.92625366 -241.03979492 934.67993164 C-236.42510389 937.73791033 -231.74636533 940.30184809 -226.75 942.6875 C-226.75 943.3475 -226.75 944.0075 -226.75 944.6875 C-225.65957397 945.10153076 -225.65957397 945.10153076 -224.54711914 945.52392578 C-221.893071 946.62798386 -219.48970792 947.87969346 -216.99609375 949.3046875 C-177.03689285 971.76908717 -133.43887495 986.41728999 -88.25 993.875 C-87.32703125 994.0299292 -86.4040625 994.1848584 -85.453125 994.34448242 C-67.33866867 997.18569283 -49.18685499 998.06895804 -30.875 998 C-29.85907776 997.99817719 -28.84315552 997.99635437 -27.79644775 997.99447632 C55.33977142 997.74515699 135.56475509 972.04811701 203.25 923.6875 C204.12688477 923.06149902 204.12688477 923.06149902 205.02148438 922.42285156 C212.4605149 917.07015952 219.43236159 911.23985236 226.37011719 905.26416016 C227.76922226 904.09072891 229.19023684 902.94332325 230.62207031 901.81005859 C237.92741703 896.00013739 244.55035796 889.69565803 251.12109375 883.07714844 C252.87281575 881.31469762 254.63499428 879.56321432 256.3984375 877.8125 C263.14139388 871.0774115 269.33743468 864.17096052 275.25 856.6875 C276.11300003 855.65962389 276.98140492 854.6362129 277.859375 853.62109375 C308.86002868 817.4725213 333.53621037 773.08372918 347.62475586 727.67700195 C349.09264517 723.00623664 350.66302347 718.368083 352.27734375 713.74609375 C356.99740611 700.15312446 359.88869352 686.21181018 362.3125 672.0625 C362.44006683 671.32692871 362.56763367 670.59135742 362.69906616 669.83349609 C364.26409809 660.80220418 365.77960066 651.76378332 367.0625 642.6875 C367.17408447 641.92099121 367.28566895 641.15448242 367.40063477 640.36474609 C369.31627084 625.9707635 369.48882228 611.31379561 369.5 596.8125 C369.50067474 596.00612091 369.50134949 595.19974182 369.50204468 594.368927 C369.39478958 512.20450833 344.54594256 432.68113518 299.1875 364.25 C298.77628906 363.62719147 298.36507812 363.00438293 297.94140625 362.36270142 C292.18271467 353.66875024 286.03552459 345.38864454 279.50456238 337.26029968 C278.21781835 335.64715502 276.95036126 334.0204536 275.68798828 332.38818359 C271.31522595 326.57852384 271.31522595 326.57852384 265.4375 322.5 C262.09389499 320.59873441 261.82862143 320.29775639 260.4453125 317.01953125 C258.28583866 312.45482733 255.43281918 309.16584121 251.9375 305.5625 C251.32720947 304.9221582 250.71691895 304.28181641 250.08813477 303.62207031 C228.21171638 280.9122911 196.66517345 248.82589115 166.25 238.6875 C166.25 238.0275 166.25 237.3675 166.25 236.6875 C164.6 236.3575 162.95 236.0275 161.25 235.6875 C161.25 235.0275 161.25 234.3675 161.25 233.6875 C160.53118652 233.41292969 159.81237305 233.13835937 159.07177734 232.85546875 C156.30925165 231.712025 153.73377389 230.41574089 151.1015625 229 C134.2035929 220.00536729 117.05822401 211.13950484 98.70703125 205.46875 C96.28254521 204.69784824 93.97256127 203.79097932 91.625 202.8125 C86.87431306 200.87218702 82.04883399 199.20017991 77.1875 197.5625 C76.4435498 197.30871582 75.69959961 197.05493164 74.93310547 196.79345703 C70.48212008 195.31110156 66.05563224 194.1530634 61.46704102 193.18359375 C58.58159048 192.53793408 55.76215993 191.71824661 52.92578125 190.88647461 C44.25784494 188.35086981 35.64173148 186.467396 26.72363281 185.07763672 C23.97657494 184.64437591 21.23477398 184.18334965 18.4921875 183.72265625 C-10.36336157 178.96570125 -38.60848635 177.10147143 -67.78894043 177.65362549 C-69.5456871 177.68397079 -71.30263747 177.70193142 -73.05957031 177.71826172 C-109.57891917 178.06670546 -146.98687689 186.0517409 -181.75 196.6875 C-182.72179199 196.98350098 -183.69358398 197.27950195 -184.69482422 197.58447266 C-223.03842426 209.42728989 -259.09048798 226.91578803 -292.75 248.6875 C-293.76707031 249.33847656 -294.78414063 249.98945313 -295.83203125 250.66015625 C-304.43629958 256.26963239 -312.62428211 262.41321151 -320.75 268.6875 C-321.48492676 269.25259277 -322.21985352 269.81768555 -322.97705078 270.39990234 C-325.1837322 272.10661376 -327.37517476 273.83107569 -329.5625 275.5625 C-330.23829102 276.08545654 -330.91408203 276.60841309 -331.61035156 277.1472168 C-334.68885177 279.61828403 -336.51047345 281.14637242 -338.13671875 284.8203125 C-339.98042725 288.09702446 -340.5563189 288.21846067 -343.91918945 289.4699707 C-348.81373584 291.5363602 -351.99596676 294.24712667 -355.65625 298.03515625 C-356.26585571 298.64709335 -356.87546143 299.25903046 -357.50354004 299.88951111 C-358.78320394 301.17885298 -360.05687333 302.47416998 -361.32470703 303.77514648 C-363.23321191 305.73277976 -365.1594638 307.67138027 -367.08984375 309.60742188 C-373.36945144 315.94504272 -379.34632808 322.36688812 -384.8984375 329.35668945 C-386.48405703 331.35272184 -388.10736888 333.28357712 -389.796875 335.19140625 C-400.0428852 346.76587745 -408.88087287 359.30984336 -417.5 372.125 C-418.12769287 373.05590454 -418.12769287 373.05590454 -418.76806641 374.00561523 C-420.45907478 376.55644019 -421.7769091 378.7682273 -422.75 381.6875 C-423.41 381.6875 -424.07 381.6875 -424.75 381.6875 C-425.82525194 384.33978812 -426.84456151 386.97118454 -427.75 389.6875 C-428.41 389.6875 -429.07 389.6875 -429.75 389.6875 C-430.03875 390.409375 -430.3275 391.13125 -430.625 391.875 C-432.1875 395.78125 -432.1875 395.78125 -433.75 399.6875 C-434.41 399.6875 -435.07 399.6875 -435.75 399.6875 C-436.07291016 400.84378906 -436.07291016 400.84378906 -436.40234375 402.0234375 C-438.24867602 407.04332059 -440.78517328 411.60653782 -443.3125 416.3125 C-451.60557918 431.99701982 -458.8397624 447.96054085 -464.75 464.6875 C-465.09562988 465.65494141 -465.44125977 466.62238281 -465.79736328 467.61914062 C-470.63251912 481.18151543 -475.19237008 494.73195869 -478.75 508.6875 C-478.97703613 509.53948975 -479.20407227 510.39147949 -479.43798828 511.26928711 C-481.50815936 519.21078703 -483.06290027 527.21794989 -484.48486328 535.29516602 C-484.872912 537.48819979 -485.27401961 539.67858314 -485.67578125 541.86914062 C-487.15272829 550.10535626 -488.1271902 558.15646408 -488.43701172 566.5222168 C-488.74758741 569.66310121 -489.56531118 571.79324576 -490.75 574.6875 C-491.03848745 576.7732883 -491.24205931 578.8717216 -491.3828125 580.97265625 C-491.50897949 582.82987305 -491.50897949 582.82987305 -491.63769531 584.72460938 C-491.71797451 586.06633631 -491.7970444 587.40813606 -491.875 588.75 C-491.91669312 589.43666748 -491.95838623 590.12333496 -492.00134277 590.83081055 C-498.40225974 697.65267066 -468.42116588 809.81150207 -402.12744141 894.91308594 C-400.79305767 896.6320333 -399.47763031 898.36373267 -398.16796875 900.1015625 C-389.59046323 911.44995265 -380.35621531 922.19940263 -370.75 932.6875 C-370.27916992 933.20344727 -369.80833984 933.71939453 -369.32324219 934.25097656 C-361.52349259 942.79308175 -353.72768629 951.22905228 -344.94140625 958.77734375 C-342.3754973 961.01393818 -339.8784357 963.31874067 -337.375 965.625 C-332.32947738 970.21621908 -327.12334217 974.48912865 -321.75 978.6875 C-320.52268995 979.67876265 -319.29619218 980.67103148 -318.0703125 981.6640625 C-297.69034912 998.02201348 -275.56578655 1011.99872046 -252.75 1024.6875 C-251.89341797 1025.16735352 -251.03683594 1025.64720703 -250.15429688 1026.14160156 C-198.60951308 1054.79761773 -140.11337795 1071.83923789 -81.75 1078.6875 C-80.69507355 1078.8183046 -80.69507355 1078.8183046 -79.61883545 1078.95175171 C-64.27561573 1080.81798538 -48.96178755 1081.03114007 -33.52490234 1081.00317383 C-30.77603665 1080.99857139 -28.02761659 1081.00537486 -25.27880859 1081.02368164 C40.76613601 1081.45867359 114.63905703 1069.41738649 172.72265625 1036.63671875 C177.21071847 1034.13505874 181.68368078 1032.38155847 186.53076172 1030.71142578 C191.19250675 1028.95605151 195.47263046 1026.5525517 199.8125 1024.125 C201.23477905 1023.33826904 201.23477905 1023.33826904 202.68579102 1022.53564453 C229.45268134 1007.61360185 254.76739949 990.38297648 278.25 970.6875 C278.85827637 970.17832031 279.46655273 969.66914062 280.09326172 969.14453125 C292.27510478 958.91244066 303.85320063 948.16375675 315.125 936.9375 C315.92188232 936.14529053 316.71876465 935.35308105 317.53979492 934.53686523 C322.31572458 929.74790986 326.85367576 924.8253403 331.25 919.6875 C332.19941532 918.6044986 333.14988413 917.52241955 334.1015625 916.44140625 C341.90207426 907.49871147 349.17410877 898.21136899 356.25 888.6875 C356.79833496 887.94951172 357.34666992 887.21152344 357.91162109 886.45117188 C373.14724692 866.02782053 373.14724692 866.02782053 385.25 843.6875 C385.91 843.6875 386.57 843.6875 387.25 843.6875 C387.50579834 843.00695557 387.76159668 842.32641113 388.02514648 841.62524414 C389.44961244 838.20874048 391.12520193 834.95568654 392.84765625 831.68359375 C393.57029148 830.29866144 394.29261011 828.91356391 395.01464844 827.52832031 C395.39036987 826.80890259 395.76609131 826.08948486 396.15319824 825.3482666 C405.11370873 808.16412661 413.61331001 790.92413526 420.25 772.6875 C420.92302636 770.88666241 421.59621979 769.08588726 422.26953125 767.28515625 C429.63166545 747.41664843 436.87878151 727.24851658 439.6796875 706.1640625 C440.25 702.6875 440.25 702.6875 441.19799805 700.40405273 C442.43645739 697.20601675 443.03881885 694.120815 443.65234375 690.74609375 C443.77471405 690.07392822 443.89708435 689.4017627 444.02316284 688.70922852 C444.41867698 686.51573154 444.80412511 684.3206493 445.1875 682.125 C445.38634293 680.99942184 445.38634293 680.99942184 445.58920288 679.85110474 C447.98736651 666.19975452 449.70749383 652.54778616 450.95629883 638.73999023 C451.11535233 637.08691795 451.2833785 635.4341384 451.50028992 633.78765869 C452.364635 627.02064928 452.41161569 620.30767473 452.41796875 613.4921875 C452.42129715 612.22770782 452.42462555 610.96322815 452.42805481 609.66043091 C452.43310318 606.98598709 452.43589845 604.31164492 452.43530273 601.63720703 C452.43518271 597.62394561 452.45558354 593.61087259 452.47460938 589.59765625 C452.50891818 574.18250222 451.97422846 559.0081612 450.25 543.6875 C450.17194122 542.97380249 450.09388245 542.26010498 450.01345825 541.52478027 C449.54597195 537.29974684 449.01063936 533.08688698 448.4375 528.875 C448.18637451 527.01210327 448.18637451 527.01210327 447.93017578 525.11157227 C446.71766907 516.4057299 445.27113005 507.75908355 443.625 499.125 C443.4189917 498.04307373 443.2129834 496.96114746 443.00073242 495.84643555 C442.08366533 491.22095286 441.03783641 487.05791774 439.25 482.6875 C438.8385637 480.65286294 438.46861688 478.60968226 438.125 476.5625 C429.55625962 430.8178921 409.09616082 384.43110137 385.25 344.6875 C384.78980469 343.89988281 384.32960938 343.11226563 383.85546875 342.30078125 C382.34931747 339.74423053 380.8053325 337.21449358 379.25 334.6875 C378.64744385 333.70402588 378.64744385 333.70402588 378.03271484 332.70068359 C367.49305869 315.55441649 355.86809362 299.35962327 343.25 283.6875 C342.46882813 282.71167969 341.68765625 281.73585938 340.8828125 280.73046875 C336.53115361 275.3473613 332.03050036 270.13855922 327.3671875 265.0234375 C325.45919797 262.91831252 323.59952931 260.78136366 321.75 258.625 C318.48750083 254.87161554 314.98338893 251.40210636 311.44140625 247.9140625 C309.42322719 245.86350623 307.54686983 243.75647169 305.6875 241.5625 C302.77445377 238.16506733 299.61790323 235.28366373 296.20703125 232.39453125 C294.35019075 230.77489193 292.64602508 229.08626709 290.9375 227.3125 C287.28278706 223.60003764 283.29550476 220.37833874 279.23828125 217.1171875 C276.73900864 215.08509918 274.2920524 213.00739514 271.85864258 210.89746094 C259.92529233 200.59404089 247.14606492 191.27862064 234.1875 182.3125 C233.52709717 181.85423828 232.86669434 181.39597656 232.1862793 180.92382812 C229.55653094 179.1296325 227.28661845 177.69970615 224.25 176.6875 C224.25 176.0275 224.25 175.3675 224.25 174.6875 C223.321875 174.5225 222.39375 174.3575 221.4375 174.1875 C217.77112685 173.15178845 215.26677535 171.34578076 212.2578125 169.03515625 C206.41039851 164.70147072 200.31257907 161.1203291 193.9375 157.625 C192.2970874 156.71657349 192.2970874 156.71657349 190.62353516 155.78979492 C180.67201556 150.30767535 170.69800717 145.16189684 160.25 140.6875 C158.22667908 139.73442991 156.20583178 138.77609066 154.1875 137.8125 C148.43801031 135.14215215 142.61656495 132.9649072 136.62890625 130.89453125 C133.56954024 129.8016479 130.60647228 128.59985864 127.625 127.3125 C111.93202321 120.69072805 95.72172207 115.92925418 79.25 111.6875 C78.49138672 111.49027344 77.73277344 111.29304688 76.95117188 111.08984375 C55.94625706 105.64341978 34.68509245 101.94700998 13.25 98.6875 C12.52596985 98.5756134 11.8019397 98.46372681 11.05596924 98.34844971 C-29.98113211 92.04899341 -73.6659702 91.78737683 -114.75 97.6875 C-116.08055598 97.86749586 -117.41129348 98.04615371 -118.7421875 98.22363281 C-168.17949241 104.8532925 -216.06566777 117.63820845 -261.75 137.6875 C-263.06315186 138.25549316 -263.06315186 138.25549316 -264.40283203 138.83496094 C-276.03338817 143.8697014 -287.32569777 149.39140931 -298.46044922 155.44335938 C-300.66817508 156.64303638 -302.8825898 157.82957356 -305.09765625 159.015625 C-324.53857564 169.52363718 -343.06381015 181.45032064 -360.75 194.6875 C-361.84323515 195.49548874 -362.93694697 196.30283314 -364.03125 197.109375 C-370.69095099 202.05157416 -377.21402328 207.1615466 -383.71875 212.3046875 C-385.47700671 213.68682229 -387.25869968 215.04189411 -389.09375 216.3203125 C-391.04326462 217.68344533 -391.04326462 217.68344533 -391.75 220.6875 C-392.41 220.6875 -393.07 220.6875 -393.75 220.6875 C-393.915 221.43 -394.08 222.1725 -394.25 222.9375 C-396.0832289 226.29841966 -397.94808224 226.77220679 -401.3203125 228.3203125 C-410.69602879 233.5960371 -418.50784359 243.3617163 -426.0625 250.875 C-426.91038086 251.71804688 -427.75826172 252.56109375 -428.63183594 253.4296875 C-433.54491388 258.35630009 -438.22487399 263.40461416 -442.75 268.6875 C-443.77146421 269.84419351 -444.79486084 270.99918378 -445.8203125 272.15234375 C-453.34580402 280.68058353 -460.36697145 289.49979443 -467.18115234 298.60400391 C-468.67373886 300.58622198 -470.18619276 302.55113197 -471.70703125 304.51171875 C-494.59395619 333.75396728 -494.59395619 333.75396728 -510.75 366.6875 C-511.41 366.6875 -512.07 366.6875 -512.75 366.6875 C-513.02295898 367.56374023 -513.29591797 368.43998047 -513.57714844 369.34277344 C-514.67857752 372.48381807 -515.96758361 375.26174391 -517.515625 378.203125 C-530.24681143 402.79464098 -541.31858008 428.28278847 -549.75 454.6875 C-550.00152832 455.46561035 -550.25305664 456.2437207 -550.51220703 457.04541016 C-555.00887371 471.07512383 -558.51735975 485.31950849 -561.75 499.6875 C-561.9975 500.7811084 -562.245 501.8747168 -562.5 503.00146484 C-572.60174921 548.17653992 -576.44444635 592.49019138 -575.7767334 638.69830322 C-575.75278498 640.48027366 -575.73763021 642.26235721 -575.72363281 644.04443359 C-575.25903342 692.72323498 -564.56231835 742.49102999 -549.75 788.6875 C-549.44126953 789.65091309 -549.13253906 790.61432617 -548.81445312 791.60693359 C-540.52188966 817.12015344 -529.77718449 841.73100849 -517.75 865.6875 C-517.255 866.67476074 -516.76 867.66202148 -516.25 868.67919922 C-496.88159518 907.06924381 -472.47724495 942.2419829 -444.625 974.9375 C-444.19493652 975.44321533 -443.76487305 975.94893066 -443.32177734 976.4699707 C-434.2243925 987.04572235 -424.56759634 997.05644144 -414.70703125 1006.91577148 C-412.74709918 1008.87790408 -410.79534704 1010.84794057 -408.84375 1012.81835938 C-402.49054601 1019.19924224 -396.11972358 1025.304744 -389.03173828 1030.87329102 C-386.80458573 1032.64409891 -384.71074182 1034.50338507 -382.625 1036.4375 C-376.36251819 1042.07148901 -369.55294072 1047.02923992 -362.83642578 1052.10205078 C-360.94082269 1053.54249619 -359.05871555 1054.99788998 -357.18359375 1056.46484375 C-350.85794358 1061.4132329 -344.42656189 1066.1049392 -337.66796875 1070.453125 C-336.24905791 1071.36631405 -334.83278867 1072.28361055 -333.41796875 1073.203125 C-253.04623173 1125.40206801 -162.15895273 1156.78424594 83.25 1153.8125 C87.92664317 1152.81245097 92.5903457 1151.76376457 97.25 1150.6875 C98.40371094 1150.42211426 99.55742188 1150.15672852 100.74609375 1149.88330078 C174.60032183 1132.66505614 247.20852117 1100.38642798 307.25 1053.6875 C308.82890761 1052.48056561 310.40782373 1051.27364228 311.98706055 1050.06713867 C314.17998809 1048.3873869 316.36485096 1046.69736645 318.54833984 1045.00537109 C319.70643948 1044.10846696 320.865664 1043.21301383 322.02587891 1042.31884766 C328.91684038 1037.00392117 335.63087522 1031.60899758 342.04296875 1025.71484375 C343.97829285 1023.93708586 345.94403016 1022.21173748 347.9375 1020.5 C360.61974894 1009.43185547 373.32076663 997.83584077 384.2265625 984.98828125 C385.91512878 983.06827056 387.63706783 981.20783738 389.3984375 979.35546875 C396.69098867 971.68498686 403.4681921 963.85218775 409.88916016 955.44238281 C411.26773056 953.66463541 412.67902682 951.91920376 414.10546875 950.1796875 C425.19032776 936.65037098 434.99681858 922.25651076 444.5625 907.625 C445.11993896 906.77397705 445.67737793 905.9229541 446.25170898 905.04614258 C446.76290283 904.25618896 447.27409668 903.46623535 447.80078125 902.65234375 C448.47620972 901.61001587 448.47620972 901.61001587 449.1652832 900.54663086 C450.40216093 898.57260231 450.40216093 898.57260231 451.25 895.6875 C451.91 895.6875 452.57 895.6875 453.25 895.6875 C453.58 894.0375 453.91 892.3875 454.25 890.6875 C454.91 890.6875 455.57 890.6875 456.25 890.6875 C456.58 889.0375 456.91 887.3875 457.25 885.6875 C457.91 885.6875 458.57 885.6875 459.25 885.6875 C459.47816406 884.88183594 459.70632813 884.07617188 459.94140625 883.24609375 C461.58059429 878.7884809 463.82467698 874.85851622 466.1875 870.75 C469.20132224 865.49006861 471.97997409 860.31386785 474.25 854.6875 C474.91 854.6875 475.57 854.6875 476.25 854.6875 C476.51941406 853.83027344 476.78882813 852.97304688 477.06640625 852.08984375 C478.25017727 848.68699043 479.65075836 845.50726664 481.1875 842.25 C483.00188662 838.39384839 484.76571651 834.52899927 486.43041992 830.60571289 C487.34808747 828.45792798 488.28870584 826.32092009 489.23046875 824.18359375 C494.40037835 812.37234776 499.03650164 800.44580203 503.32446289 788.2878418 C504.30540623 785.53183348 505.31628536 782.78776989 506.328125 780.04296875 C507.94302208 775.60893727 509.39056789 771.16116506 510.6875 766.625 C510.89431396 765.91093994 511.10112793 765.19687988 511.31420898 764.46118164 C511.96495628 762.2048155 512.60858169 759.94653454 513.25 757.6875 C513.46301758 756.93984375 513.67603516 756.1921875 513.89550781 755.421875 C515.38260783 750.18656083 516.82666853 744.94047142 518.25 739.6875 C518.58902344 738.45257812 518.92804688 737.21765625 519.27734375 735.9453125 C522.680518 723.01598381 524.94344441 709.84926397 527.25 696.6875 C527.41588623 695.74704834 527.58177246 694.80659668 527.75268555 693.83764648 C529.18860384 685.48130949 530.34716825 677.08966898 531.48217773 668.68823242 C531.81154119 666.25707737 532.14686067 663.82679073 532.48242188 661.39648438 C543.57638256 580.22936106 533.40431834 494.27607808 421.546875 248.61474609 C415.89148154 241.21767492 410.07711067 233.94958623 404.25 226.6875 C403.47011719 225.71039063 402.69023438 224.73328125 401.88671875 223.7265625 C397.13741174 217.84465522 392.17334784 212.2358389 387.0234375 206.70703125 C384.97511695 204.50153632 382.99767482 202.24530832 381.03271484 199.96533203 C377.48157364 195.90141691 373.76495719 192.04122884 369.953125 188.22265625 C369.2788446 187.54504745 368.60456421 186.86743866 367.90985107 186.16929626 C366.49263926 184.74705939 365.07410433 183.32613981 363.65429688 181.90649414 C361.51402078 179.76403508 359.38188019 177.6137001 357.25 175.46289062 C350.59926163 168.78545606 343.97211588 162.31497899 336.53662109 156.5065918 C334.12316905 154.58660128 331.87561129 152.54489749 329.625 150.4375 C323.20078238 144.5852318 316.22483172 139.45765257 309.28955078 134.23486328 C307.49025617 132.86977718 305.707389 131.48779325 303.93359375 130.08984375 C273.11201125 105.27055373 273.11201125 105.27055373 238.25 87.6875 C238.25 87.0275 238.25 86.3675 238.25 85.6875 C237.38157471 85.4188916 236.51314941 85.1502832 235.6184082 84.87353516 C232.33569256 83.71767283 229.42818706 82.33830224 226.35546875 80.7109375 C225.24300781 80.12618652 224.13054688 79.54143555 222.984375 78.93896484 C222.40494141 78.63222839 221.82550781 78.32549194 221.22851562 78.00946045 C218.20440947 76.41053027 215.17098167 74.82955114 212.13671875 73.25 C211.53959076 72.93912445 210.94246277 72.6282489 210.32723999 72.30795288 C200.43605103 67.17352615 190.45756185 62.13455844 179.83984375 58.671875 C177.64392081 57.83722556 175.67202475 56.90588517 173.58984375 55.83203125 C145.37323358 41.49863733 112.45329142 33.49517257 81.734375 26.49853516 C78.52010436 25.75037042 75.3274028 24.94465766 72.1328125 24.1171875 C65.80544033 22.52400224 59.43582851 21.37351576 53 20.3125 C51.73365723 20.10334961 50.46731445 19.89419922 49.16259766 19.67871094 C38.01399029 17.87162437 26.82750011 16.36711661 15.625 14.9375 C14.8057605 14.83076965 13.986521 14.72403931 13.14245605 14.61407471 C-9.84956687 11.63896902 -32.84661829 11.40857308 -56 11.375 C-56.7384528 11.37370213 -57.47690559 11.37240425 -58.23773575 11.37106705 C-81.89204991 11.33965308 -105.20901548 12.06091959 -128.66210938 15.39324951 C-130.73827888 15.68584812 -132.81590003 15.96425304 -134.89453125 16.23876953 C-175.70703093 21.67312864 -215.70026029 31.62307057 -254.43896484 45.50439453 C-257.48109049 46.59141273 -260.52977245 47.65669225 -263.58203125 48.71484375 C-291.98482077 58.65809716 -319.56533592 71.82919335 -346 86.1875 C-346.86197998 86.65534912 -347.72395996 87.12319824 -348.61206055 87.60522461 C-353.47790976 90.29562831 -358.10943443 93.2118514 -362.70849609 96.33447266 C-365.36749226 98.09674923 -368.13089473 99.61095809 -370.9375 101.125 C-381.33621634 106.90891878 -391.00193093 113.88713286 -400.75 120.6875 C-401.45253906 121.17573242 -402.15507812 121.66396484 -402.87890625 122.16699219 C-411.7599584 128.35363888 -420.30708487 134.9193781 -428.75 141.6875 C-429.40291016 142.20747559 -430.05582031 142.72745117 -430.72851562 143.26318359 C-438.79932484 149.69545604 -446.65296289 156.25708018 -454.18359375 163.31640625 C-456.35741561 165.32479266 -458.57344012 167.20518371 -460.875 169.0625 C-463.85647645 171.3744068 -463.85647645 171.3744068 -464.64526367 174.17919922 C-466.02944203 177.32197236 -467.27835042 177.90551092 -470.30078125 179.4453125 C-476.0898745 182.70135237 -480.35517982 186.80133818 -484.9375 191.5625 C-485.69224609 192.32691406 -486.44699219 193.09132813 -487.22460938 193.87890625 C-491.36147001 198.09814593 -495.33639806 202.42426545 -499.19750977 206.89648438 C-501.29021818 209.31071758 -503.45711341 211.65328102 -505.625 214 C-509.66402153 218.43381311 -513.52506878 222.96804584 -517.2890625 227.63671875 C-519.08280236 229.86038674 -520.88872383 232.06948478 -522.7109375 234.26953125 C-538.38920738 253.26028132 -552.22979369 273.36269124 -565.4375 294.125 C-565.95521973 294.93646484 -566.47293945 295.74792969 -567.00634766 296.58398438 C-567.72056885 297.71610352 -567.72056885 297.71610352 -568.44921875 298.87109375 C-568.87033936 299.53681396 -569.29145996 300.20253418 -569.7253418 300.88842773 C-570.90171867 302.81811473 -570.90171867 302.81811473 -571.75 305.6875 C-572.41 305.6875 -573.07 305.6875 -573.75 305.6875 C-574.02457031 306.4079248 -574.29914063 307.12834961 -574.58203125 307.87060547 C-575.71973586 310.61450928 -577.01030406 313.15415744 -578.4375 315.7578125 C-578.96657959 316.7274292 -579.49565918 317.6970459 -580.04077148 318.69604492 C-580.60481689 319.7244751 -581.1688623 320.75290527 -581.75 321.8125 C-582.92916463 323.97744036 -584.10754083 326.14281031 -585.28515625 328.30859375 C-585.87055176 329.3847998 -586.45594727 330.46100586 -587.05908203 331.56982422 C-594.54234107 345.36728565 -601.68922134 359.19433364 -607.75 373.6875 C-608.08257813 374.47382812 -608.41515625 375.26015625 -608.7578125 376.0703125 C-610.10361687 379.2699401 -611.42767077 382.47809675 -612.75 385.6875 C-613.02972656 386.35845703 -613.30945313 387.02941406 -613.59765625 387.72070312 C-622.97358863 410.26758814 -630.69860822 433.33337787 -637.00048828 456.91894531 C-637.70299682 459.51387913 -638.43498143 462.0977283 -639.18359375 464.6796875 C-641.60278015 473.04947598 -643.59285897 481.35315478 -645.07421875 489.94140625 C-645.54179445 492.53334322 -646.05352806 495.05715389 -646.6484375 497.6171875 C-648.26441518 504.77474544 -649.44987687 512.01942783 -650.6875 519.25 C-650.82039429 520.02616669 -650.95328857 520.80233337 -651.09020996 521.60202026 C-656.40704298 552.80455288 -659.1170205 583.78831887 -659.01074219 615.45458984 C-658.99937139 618.87131056 -659.0061274 622.28771867 -659.01762009 625.70442867 C-659.06908942 643.76797911 -658.37118105 661.69037594 -656.75 679.6875 C-656.63658264 680.9466925 -656.63658264 680.9466925 -656.52087402 682.23132324 C-656.08235251 686.95465423 -655.56506978 691.66487967 -655 696.375 C-654.91763092 697.06719635 -654.83526184 697.7593927 -654.75039673 698.4725647 C-644.83836257 780.88888517 -617.71154994 862.06299914 -575.75 933.6875 C-574.84294944 935.25604775 -573.93666303 936.8250377 -573.03125 938.39453125 C-556.63076345 966.70307509 -537.69170746 993.56282244 -516.75 1018.6875 C-516.26934082 1019.26725586 -515.78868164 1019.84701172 -515.29345703 1020.44433594 C-509.53117329 1027.38612753 -503.59746279 1034.13217574 -497.453125 1040.73828125 C-496.05501386 1042.24451367 -494.6868132 1043.76179122 -493.35522461 1045.32739258 C-487.81271724 1051.84345492 -481.75334847 1057.83503421 -475.69848633 1063.86938477 C-473.81671726 1065.74579475 -471.94035262 1067.62748969 -470.06445312 1069.50976562 C-464.64143781 1074.9357458 -459.23356076 1080.31973414 -453.38549805 1085.29272461 C-450.8870562 1087.42343043 -448.51775665 1089.68954995 -446.125 1091.9375 C-440.16516137 1097.4650337 -433.8415112 1102.45114344 -427.40429688 1107.40625 C-423.47794979 1110.44719886 -419.62210223 1113.57808458 -415.75 1116.6875 C-417.73 1119.6575 -419.71 1122.6275 -421.75 1125.6875 C-427.37200634 1123.43869746 -427.37200634 1123.43869746 -429.9140625 1121.18359375 C-430.75251709 1120.45064087 -430.75251709 1120.45064087 -431.60791016 1119.70288086 C-432.48261963 1118.92182983 -432.48261963 1118.92182983 -433.375 1118.125 C-434.62404729 1117.03016214 -435.87405715 1115.93642152 -437.125 1114.84375 C-437.73988281 1114.30492187 -438.35476563 1113.76609375 -438.98828125 1113.2109375 C-441.40323069 1111.12262202 -443.88495683 1109.12282533 -446.375 1107.125 C-451.34655763 1103.09064322 -456.04777522 1098.82271916 -460.73046875 1094.4609375 C-462.938758 1092.40987565 -465.19827341 1090.43037839 -467.48144531 1088.46313477 C-471.49691571 1084.95445519 -475.30305045 1081.27965215 -479.06640625 1077.50390625 C-479.72656235 1076.84470688 -480.38671844 1076.18550751 -481.06687927 1075.5063324 C-482.45035506 1074.12353165 -483.83259083 1072.73948924 -485.21362305 1071.35424805 C-487.30731669 1069.25519657 -489.40629874 1067.1615406 -491.50585938 1065.06835938 C-492.85969571 1063.71386214 -494.21322175 1062.35905469 -495.56640625 1061.00390625 C-496.18326797 1060.38906876 -496.8001297 1059.77423126 -497.4356842 1059.14076233 C-501.1931644 1055.36335226 -504.76273245 1051.4667348 -508.24317932 1047.43243408 C-510.16317364 1045.20903512 -512.1429561 1043.04309783 -514.125 1040.875 C-517.96806298 1036.61139983 -521.64322734 1032.24197727 -525.25 1027.77734375 C-527.07003572 1025.52789335 -528.90218882 1023.29276208 -530.75 1021.06640625 C-538.2513096 1011.99351343 -545.28659028 1002.6660359 -552.07763672 993.05126953 C-553.78319115 990.64058661 -555.50234932 988.24001521 -557.22265625 985.83984375 C-570.28707522 967.51414719 -581.78373575 948.32734247 -592.75 928.6875 C-593.51425293 927.32359131 -593.51425293 927.32359131 -594.29394531 925.93212891 C-601.29400929 913.4044282 -607.8293782 900.75961625 -613.75 887.6875 C-614.17104004 886.76694824 -614.59208008 885.84639648 -615.02587891 884.89794922 C-646.52210984 815.8224256 -664.59850094 742.24557537 -670.75 666.6875 C-670.84571289 665.53386963 -670.94142578 664.38023926 -671.04003906 663.19165039 C-675.1436354 607.00253237 -670.55711932 550.89901975 -659.6171875 495.78125 C-659.4522731 494.94975937 -659.2873587 494.11826874 -659.1174469 493.26158142 C-658.13031965 488.36223544 -656.98324562 483.55433575 -655.5859375 478.75390625 C-654.65108167 475.32464538 -653.85838926 471.87496274 -653.06420898 468.41088867 C-650.86861927 458.86986675 -648.26721442 449.573398 -645.2265625 440.26953125 C-643.75141466 435.75080915 -642.43158256 431.1947408 -641.125 426.625 C-639.60113916 421.34588919 -637.92324461 416.21053734 -635.76660156 411.15283203 C-634.75956502 408.71069587 -633.86118603 406.25196531 -632.98046875 403.76171875 C-630.55445335 397.05229612 -627.8582754 390.46421688 -625.125 383.875 C-624.8653244 383.24798187 -624.6056488 382.62096375 -624.33810425 381.97494507 C-616.40790995 362.85267325 -607.88982624 344.09739985 -597.9375 325.9375 C-597.41631592 324.98319092 -596.89513184 324.02888184 -596.3581543 323.0456543 C-592.71881395 316.40109683 -588.9964492 309.81133745 -585.17578125 303.26953125 C-583.6506838 300.69248361 -583.6506838 300.69248361 -582.75 297.6875 C-582.09 297.6875 -581.43 297.6875 -580.75 297.6875 C-580.37875 296.12515625 -580.37875 296.12515625 -580 294.53125 C-578.92397331 290.78396826 -577.20763941 288.2419947 -574.75 285.1875 C-571.23135054 280.67236902 -567.95016746 276.09929583 -564.8125 271.3125 C-557.34604393 259.98258702 -549.40520654 249.04793322 -541.05175781 238.35693359 C-539.69245905 236.61370686 -538.34208443 234.8637958 -536.9921875 233.11328125 C-531.51125797 226.03513955 -525.81185823 219.28150609 -519.75 212.6875 C-518.57865335 211.3582762 -517.41175407 210.02511593 -516.25 208.6875 C-487.14035588 175.33408088 -487.14035588 175.33408088 -470.89453125 161.55078125 C-468.58819329 159.54691384 -466.3577611 157.47496281 -464.12573242 155.38916016 C-458.8082604 150.42311036 -453.41339123 145.63673357 -447.734375 141.08203125 C-445.51972458 139.30509315 -443.32507619 137.51254198 -441.140625 135.69921875 C-427.43750342 124.36315649 -413.02712262 114.12458233 -398.29370117 104.17578125 C-392.44874721 100.21923625 -386.63812163 96.20534963 -381.3125 91.5625 C-379.05716064 89.91225169 -377.27517407 88.99362409 -374.73046875 87.93359375 C-369.42587705 85.61758679 -364.50000577 82.77920027 -359.5 79.875 C-314.08148932 53.92580678 -266.18185158 33.65193292 -215.75 19.6875 C-214.58210938 19.36346191 -213.41421875 19.03942383 -212.2109375 18.70556641 C-182.28545327 10.53826099 -151.55472692 5.16434965 -120.75 1.6875 C-119.52555176 1.53796875 -118.30110352 1.3884375 -117.03955078 1.234375 C-78.40920342 -3.38950767 -38.75283621 -2.6555633 0 0 Z " fill="#19033F" transform="translate(790.75,141.3125)"/>
<path d="M0 0 C0.33 0 0.66 0 1 0 C1 236.94 1 473.88 1 718 C-235.94 718 -472.88 718 -717 718 C-717 717.67 -717 717.34 -717 717 C-715.93491211 716.92483154 -714.86982422 716.84966309 -713.77246094 716.7722168 C-680.17253796 714.3868793 -647.14387049 711.09603939 -614 705 C-613.30549744 704.87304749 -612.61099487 704.74609497 -611.89544678 704.61529541 C-587.62976387 700.17804792 -563.65942588 695.04308353 -540.10546875 687.65966797 C-537.15850499 686.73634978 -534.20375177 685.83882867 -531.25 684.9375 C-529.16663661 684.29176364 -527.08330445 683.6459265 -525 683 C-523.14375 682.43345703 -523.14375 682.43345703 -521.25 681.85546875 C-463.98358851 664.30962348 -407.81027968 638.72895168 -357 607 C-356.10055664 606.43925781 -355.20111328 605.87851563 -354.27441406 605.30078125 C-326.18595136 587.73216047 -299.46424318 568.48451983 -273.83349609 547.49707031 C-272.20305961 546.16580047 -270.56495181 544.84393831 -268.92578125 543.5234375 C-263.28792707 538.9713327 -257.87664833 534.23300382 -252.54296875 529.328125 C-250.42932946 527.39305738 -248.29340152 525.49791703 -246.125 523.625 C-235.8477457 514.6696013 -226.06003313 505.22422854 -216.44091797 495.57128906 C-214.60889005 493.7338424 -212.77149395 491.9018835 -210.93359375 490.0703125 C-205.07384011 484.21386744 -199.36642769 478.31734428 -194 472 C-192.38032183 470.22429779 -190.75588282 468.45291693 -189.125 466.6875 C-185.03119791 462.19851943 -181.14530333 457.58756524 -177.33203125 452.859375 C-175.295441 450.36224927 -173.21728235 447.90827746 -171.11572266 445.46582031 C-164.66212208 437.94854084 -158.62039834 430.14949471 -152.67382812 422.22705078 C-151.58015313 420.77190153 -150.48265315 419.31961713 -149.38085938 417.87060547 C-110.62413659 366.89403327 -79.21849378 310.19414914 -55.125 250.9375 C-54.65513672 249.78411133 -54.65513672 249.78411133 -54.17578125 248.60742188 C-50.31827546 239.11014497 -46.70346591 229.55805747 -43.35498047 219.86938477 C-42.41145379 217.14417308 -41.4231256 214.44015234 -40.40429688 211.7421875 C-39.00215442 208.00574113 -37.79135384 204.25359059 -36.625 200.4375 C-35.03903774 195.25345329 -33.36047134 190.11664047 -31.61328125 184.984375 C-28.92882319 177.01240862 -26.69074362 168.94828342 -24.5625 160.8125 C-24.36957367 160.0784494 -24.17664734 159.3443988 -23.97787476 158.58810425 C-17.50288296 133.8787376 -12.76265909 108.93662143 -8.62304688 83.74609375 C-8.24715132 81.48600699 -7.86095917 79.22755097 -7.45507812 76.97265625 C-5.80285223 67.70219032 -4.91471782 58.36582882 -4 49 C-3.91351196 48.12802979 -3.82702393 47.25605957 -3.73791504 46.35766602 C-2.2090641 30.92227391 -0.96078618 15.48193662 0 0 Z " fill="#FEFEFE" transform="translate(1499,782)"/>
<path d="M0 0 C0.33 0 0.66 0 1 0 C1.07516846 1.06508789 1.15033691 2.13017578 1.2277832 3.22753906 C3.6131207 36.82746204 6.90396061 69.85612951 13 103 C13.12695251 103.69450256 13.25390503 104.38900513 13.38470459 105.10455322 C17.82195208 129.37023613 22.95691647 153.34057412 30.34033203 176.89453125 C31.26365022 179.84149501 32.16117133 182.79624823 33.0625 185.75 C33.70823636 187.83336339 34.3540735 189.91669555 35 192 C35.37769531 193.2375 35.75539062 194.475 36.14453125 195.75 C53.69037652 253.01641149 79.27104832 309.18972032 111 360 C111.56074219 360.89944336 112.12148437 361.79888672 112.69921875 362.72558594 C130.26783953 390.81404864 149.51548017 417.53575682 170.50292969 443.16650391 C171.83419953 444.79694039 173.15606169 446.43504819 174.4765625 448.07421875 C179.0286673 453.71207293 183.76699618 459.12335167 188.671875 464.45703125 C190.60694262 466.57067054 192.50208297 468.70659848 194.375 470.875 C203.3303987 481.1522543 212.77577146 490.93996687 222.42871094 500.55908203 C224.2661576 502.39110995 226.0981165 504.22850605 227.9296875 506.06640625 C233.78613256 511.92615989 239.68265572 517.63357231 246 523 C247.77570221 524.61967817 249.54708307 526.24411718 251.3125 527.875 C255.80148057 531.96880209 260.41243476 535.85469667 265.140625 539.66796875 C267.63775073 541.704559 270.09172254 543.78271765 272.53417969 545.88427734 C280.05145916 552.33787792 287.85050529 558.37960166 295.77294922 564.32617188 C297.22809847 565.41984687 298.68038287 566.51734685 300.12939453 567.61914062 C360.84019564 613.77665156 429.32413103 649.31695194 501 675 C502.66669043 675.60279888 504.33335911 676.20565791 506 676.80859375 C514.26240706 679.77943753 522.57235563 682.53203473 531 685 C531.73637695 685.21624023 532.47275391 685.43248047 533.23144531 685.65527344 C539.47501047 687.48247496 545.73289853 689.25534469 552 691 C553.28632324 691.35964844 553.28632324 691.35964844 554.59863281 691.7265625 C583.50339483 699.73671353 612.75996241 705.49799838 642.46728516 709.50097656 C645.71790443 709.96015181 648.9485777 710.48171891 652.18359375 711.0390625 C658.26859277 712.07469868 664.3640844 712.83586354 670.5 713.5 C671.66821289 713.62673096 672.83642578 713.75346191 674.04003906 713.8840332 C689.98326013 715.52000578 705.99547106 716.23911552 722 717 C722 717.33 722 717.66 722 718 C483.74 718 245.48 718 0 718 C0 481.06 0 244.12 0 0 Z " fill="#FEFEFE" transform="translate(0,782)"/>
<path d="M0 0 C236.94 0 473.88 0 718 0 C718 238.26 718 476.52 718 722 C717.67 722 717.34 722 717 722 C716.95512451 721.05608398 716.91024902 720.11216797 716.86401367 719.13964844 C714.73739121 675.1110512 710.21866307 630.95348945 699.73388672 588.04785156 C698.9560801 584.81759947 698.2253162 581.57923141 697.50390625 578.3359375 C693.59149169 560.80755813 689.0152609 543.59703411 683.1875 526.60546875 C682.19754804 523.59979223 681.31817181 520.5899016 680.48413086 517.53833008 C666.74224538 467.86745952 642.723112 419.38728441 617 375 C616.14958973 373.51831517 615.29931879 372.03655035 614.44921875 370.5546875 C594.93152135 336.7504319 572.20704697 305.01034829 547.49707031 274.83349609 C546.16580047 273.20305961 544.84393831 271.56495181 543.5234375 269.92578125 C538.9713327 264.28792707 534.23300382 258.87664833 529.328125 253.54296875 C527.39305738 251.42932946 525.49791703 249.29340152 523.625 247.125 C514.6696013 236.8477457 505.22422854 227.06003313 495.57128906 217.44091797 C493.7338424 215.60889005 491.9018835 213.77149395 490.0703125 211.93359375 C484.21386744 206.07384011 478.31734428 200.36642769 472 195 C470.22429779 193.38032183 468.45291693 191.75588282 466.6875 190.125 C462.19851943 186.03119791 457.58756524 182.14530333 452.859375 178.33203125 C450.36224927 176.295441 447.90827746 174.21728235 445.46582031 172.11572266 C437.94854084 165.66212208 430.14949471 159.62039834 422.22705078 153.67382812 C420.77190153 152.58015313 419.31961713 151.48265315 417.87060547 150.38085938 C351.87552194 100.20578782 277.28146882 63.56005457 199 37 C198.35676788 36.7796106 197.71353577 36.55922119 197.05081177 36.33215332 C189.00058249 33.57436815 180.94658341 31.05942314 172.6875 29 C170.68454545 28.49096002 168.68194382 27.9805295 166.6796875 27.46875 C165.2270752 27.0975 165.2270752 27.0975 163.74511719 26.71875 C160.61382506 25.89888838 157.50722951 25.00972097 154.3996582 24.10498047 C137.31324238 19.15233824 119.73506331 15.52592792 102.15234375 12.84912109 C97.1784375 12.08921875 97.1784375 12.08921875 95 11 C93.6299533 10.74721852 92.25178437 10.53762665 90.87109375 10.3515625 C90.01499512 10.23490234 89.15889648 10.11824219 88.27685547 9.99804688 C87.33986816 9.87494141 86.40288086 9.75183594 85.4375 9.625 C84.45152832 9.49416016 83.46555664 9.36332031 82.44970703 9.22851562 C79.30042594 8.8140974 76.15026102 8.40689449 73 8 C71.56116455 7.81002441 71.56116455 7.81002441 70.09326172 7.61621094 C52.09797839 5.25222757 34.05037966 3.74656518 15.96240234 2.31542969 C10.64034807 1.891764 5.32000027 1.448636 0 1 C0 0.67 0 0.34 0 0 Z " fill="#FEFEFE" transform="translate(782,0)"/>
<path d="M0 0 C238.26 0 476.52 0 722 0 C722 0.33 722 0.66 722 1 C721.05608398 1.04487549 720.11216797 1.08975098 719.13964844 1.13598633 C675.1110512 3.26260879 630.95348945 7.78133693 588.04785156 18.26611328 C584.81759947 19.0439199 581.57923141 19.7746838 578.3359375 20.49609375 C560.80755813 24.40850831 543.59703411 28.9847391 526.60546875 34.8125 C523.59979223 35.80245196 520.5899016 36.68182819 517.53833008 37.51586914 C467.86745952 51.25775462 419.38728441 75.276888 375 101 C373.51831517 101.85041027 372.03655035 102.70068121 370.5546875 103.55078125 C336.7504319 123.06847865 305.01034829 145.79295303 274.83349609 170.50292969 C273.20305961 171.83419953 271.56495181 173.15606169 269.92578125 174.4765625 C264.28792707 179.0286673 258.87664833 183.76699618 253.54296875 188.671875 C251.42932946 190.60694262 249.29340152 192.50208297 247.125 194.375 C236.8477457 203.3303987 227.06003313 212.77577146 217.44091797 222.42871094 C215.60889005 224.2661576 213.77149395 226.0981165 211.93359375 227.9296875 C206.07384011 233.78613256 200.36642769 239.68265572 195 246 C193.38032183 247.77570221 191.75588282 249.54708307 190.125 251.3125 C186.03119791 255.80148057 182.14530333 260.41243476 178.33203125 265.140625 C176.295441 267.63775073 174.21728235 270.09172254 172.11572266 272.53417969 C165.66212208 280.05145916 159.62039834 287.85050529 153.67382812 295.77294922 C152.58015313 297.22809847 151.48265315 298.68038287 150.38085938 300.12939453 C104.22334844 360.84019564 68.68304806 429.32413103 43 501 C42.39720112 502.66669043 41.79434209 504.33335911 41.19140625 506 C38.22056247 514.26240706 35.46796527 522.57235563 33 531 C32.78375977 531.73637695 32.56751953 532.47275391 32.34472656 533.23144531 C30.51752504 539.47501047 28.74465531 545.73289853 27 552 C26.76023437 552.85754883 26.52046875 553.71509766 26.2734375 554.59863281 C18.26328647 583.50339483 12.50200162 612.75996241 8.49902344 642.46728516 C8.03984819 645.71790443 7.51828109 648.9485777 6.9609375 652.18359375 C5.92530132 658.26859277 5.16413646 664.3640844 4.5 670.5 C4.37326904 671.66821289 4.24653809 672.83642578 4.1159668 674.04003906 C2.47999422 689.98326013 1.76088448 705.99547106 1 722 C0.67 722 0.34 722 0 722 C0 483.74 0 245.48 0 0 Z " fill="#FEFEFE" transform="translate(0,0)"/>
</svg>
