<?xml version="1.0" encoding="UTF-8"?>
<svg version="1.1" xmlns="http://www.w3.org/2000/svg" viewBox="0 0 1500 1500">
<path d="M0 0 C495 0 990 0 1500 0 C1500 495 1500 990 1500 1500 C1005 1500 510 1500 0 1500 C0 1005 0 510 0 0 Z " fill="#FFA400" transform="translate(0,0)"/>
<path d="M0 0 C1.03845062 0.05858185 2.07690125 0.1171637 3.14682007 0.17752075 C13.59610539 0.78738009 23.72166672 1.63940682 33.95458984 3.90893555 C37.73545226 4.73920481 41.53043421 5.41244065 45.34765625 6.046875 C46.69260937 6.27354755 48.03749806 6.50060273 49.38232422 6.72802734 C50.06325134 6.8431366 50.74417847 6.95824585 51.44573975 7.07684326 C147.13472238 23.38047344 239.07711181 62.33935564 315.921875 121.8828125 C318.66730897 123.80461628 321.49689144 125.2109023 324.5 126.6875 C326.875 128.75 326.875 128.75 328.5 130.6875 C328.5 131.3475 328.5 132.0075 328.5 132.6875 C329.02335937 132.90277344 329.54671875 133.11804688 330.0859375 133.33984375 C333.45629796 135.22135566 336.23312063 137.72107381 339.125 140.25 C339.74455566 140.7864917 340.36411133 141.3229834 341.00244141 141.87573242 C345.38869114 145.68520223 349.72852865 149.54475973 354.0234375 153.45703125 C355.41363589 154.7090869 356.80993479 155.95470056 358.22694397 157.17633057 C363.01693195 161.30795525 367.57030099 165.61079384 372.03515625 170.08984375 C372.71750839 170.77123917 373.39986053 171.45263458 374.10289001 172.15467834 C375.53344437 173.58455741 376.96275767 175.01567911 378.39086914 176.44799805 C380.55699074 178.61947711 382.72840174 180.78556325 384.90039062 182.95117188 C386.29979987 184.35124202 387.69889884 185.75162238 389.09765625 187.15234375 C389.73639175 187.78905502 390.37512726 188.4257663 391.03321838 189.08177185 C395.38547503 193.45636075 399.48120525 198.00609298 403.5 202.6875 C404.46167442 203.79346043 405.423816 204.89901509 406.38671875 206.00390625 C429.20499942 232.38377041 449.75415039 260.64891792 467.5 290.6875 C467.94263184 291.43 468.38526367 292.1725 468.84130859 292.9375 C510.08409087 362.22418781 535.79403216 438.10622784 547.1875 517.75 C547.29041351 518.45516754 547.39332703 519.16033508 547.49935913 519.88687134 C550.96893984 543.87397053 551.8787279 567.84838853 551.8125 592.0625 C551.81087387 593.43115221 551.80936962 594.79980456 551.8079834 596.16845703 C551.7744011 617.47382745 551.02575455 638.52341878 548.5 659.6875 C548.29117187 661.56695313 548.29117187 661.56695313 548.078125 663.484375 C540.7839236 728.59187635 521.87255948 791.71093211 493.5 850.6875 C492.99243164 851.75178223 492.48486328 852.81606445 491.96191406 853.91259766 C483.73070826 871.09945923 474.45619454 887.45739674 464.5 903.6875 C463.94924805 904.59145508 463.39849609 905.49541016 462.83105469 906.42675781 C455.60178572 918.26100313 447.8000289 929.58084007 439.5 940.6875 C438.85450195 941.5522998 438.20900391 942.41709961 437.54394531 943.30810547 C430.2620538 953.03301047 422.89807833 962.63824544 414.953125 971.83203125 C412.51053637 974.67523553 410.15782084 977.57632623 407.8125 980.5 C405.13729712 983.80578641 402.3991379 986.82704744 399.3125 989.75 C395.66521438 993.26650646 393.25094399 997.05898619 390.82421875 1001.48828125 C388.73984394 1004.94994206 386.51036349 1006.78357404 383 1008.6875 C378.0078158 1011.71584703 374.19407026 1015.83245312 370.16015625 1019.984375 C367.390545 1022.798723 364.51616613 1025.39168745 361.515625 1027.953125 C359.19885379 1029.94662581 356.94580016 1032.00304388 354.6875 1034.0625 C349.43824117 1038.79321502 344.00441004 1043.25833694 338.5 1047.6875 C337.37864698 1048.60124442 336.25756489 1049.51532139 335.13671875 1050.4296875 C316.3139073 1065.71663703 296.63499384 1079.48402033 275.90673828 1092.04711914 C271.92291125 1094.47914635 268.10193815 1096.93840868 264.43359375 1099.828125 C261.13498666 1102.35989117 257.87736127 1103.98498979 254.04980469 1105.57421875 C249.22434069 1107.68108545 244.62575089 1110.25340258 239.97338867 1112.71350098 C165.40733826 1152.00570255 78.48339254 1176.57360055 -6.19921875 1176.890625 C-8.09243362 1176.90107849 -8.09243362 1176.90107849 -10.02389526 1176.91174316 C-14.07846788 1176.92904473 -18.13289866 1176.93592005 -22.1875 1176.9375 C-22.8787434 1176.93808914 -23.5699868 1176.93867828 -24.28217697 1176.93928528 C-46.16054956 1176.95244237 -67.76721434 1176.40733268 -89.5 1173.6875 C-90.75280762 1173.53764648 -92.00561523 1173.38779297 -93.29638672 1173.23339844 C-117.96841976 1170.24188664 -142.42768508 1165.88364313 -166.5 1159.6875 C-167.22848145 1159.50251953 -167.95696289 1159.31753906 -168.70751953 1159.12695312 C-182.11686701 1155.68818822 -195.19081432 1151.22253418 -208.29174805 1146.77124023 C-211.50576119 1145.68555388 -214.72693676 1144.62335299 -217.94921875 1143.5625 C-221.8494865 1142.26422771 -225.66490521 1140.88951864 -229.4375 1139.25 C-233.54911234 1137.49093568 -237.68049209 1135.86319686 -241.875 1134.3125 C-247.573603 1132.13520357 -252.94871494 1129.54929112 -258.375 1126.76953125 C-263.4923129 1124.16067983 -268.68743285 1121.71522378 -273.875 1119.25 C-283.1403448 1114.83919525 -292.34585684 1110.32435916 -301.5 1105.6875 C-301.5 1105.0275 -301.5 1104.3675 -301.5 1103.6875 C-302.28503906 1103.48125 -303.07007813 1103.275 -303.87890625 1103.0625 C-308.79761268 1101.19477113 -313.00136099 1098.4919051 -317.4375 1095.6875 C-318.37045898 1095.10299072 -319.30341797 1094.51848145 -320.26464844 1093.91625977 C-328.10752514 1088.98177194 -335.86476775 1083.93734858 -343.5 1078.6875 C-344.15887207 1078.23584473 -344.81774414 1077.78418945 -345.49658203 1077.31884766 C-364.79840423 1064.03660766 -382.90118313 1049.44732662 -400.25390625 1033.71875 C-408.65038949 1025.49309527 -408.65038949 1025.49309527 -418.5 1019.5 C-421.7271691 1017.550252 -422.13381111 1016.81235258 -423.703125 1013.56640625 C-426.45850242 1008.4052219 -430.01668325 1004.79170834 -434.25 1000.8125 C-439.73556197 995.50004874 -444.78266494 990.19001228 -449.50390625 984.18359375 C-451.53358896 981.64549737 -453.67216796 979.2636597 -455.875 976.875 C-485.40661024 944.32891743 -508.8713993 904.76926529 -528.5 865.6875 C-528.95971191 864.77742187 -529.41942383 863.86734375 -529.89306641 862.9296875 C-553.92195494 815.05943635 -570.27898993 762.58446247 -578.5 709.6875 C-578.67724609 708.55924805 -578.85449219 707.43099609 -579.03710938 706.26855469 C-585.572861 663.66819527 -587.51188318 620.70337938 -583.76025391 577.75195312 C-583.5315826 575.05938072 -583.34047757 572.36848914 -583.16796875 569.671875 C-580.78339478 535.93328181 -573.70292617 500.88688008 -563.5 468.6875 C-563.09538343 467.38181084 -562.69174513 466.07581814 -562.2890625 464.76953125 C-561.47388223 462.13248985 -560.64917182 459.49872671 -559.81640625 456.8671875 C-558.87064285 453.87716977 -557.94468989 450.88166783 -557.02734375 447.8828125 C-554.27298372 438.93070016 -551.27893765 430.2693455 -547.5 421.6875 C-546.68461019 419.70952214 -545.87216535 417.73032799 -545.0625 415.75 C-542.8221976 410.3647936 -540.405918 405.07336297 -537.9296875 399.79296875 C-536.95528009 397.67642806 -536.01642082 395.54324435 -535.109375 393.39697266 C-533.6336633 389.94415626 -532.00645673 386.58637464 -530.3203125 383.23046875 C-530.02567108 382.64260086 -529.73102966 382.05473297 -529.42745972 381.4490509 C-528.49520609 379.59007316 -527.56017768 377.73250819 -526.625 375.875 C-526.00632205 374.64267268 -525.38783117 373.41025141 -524.76953125 372.17773438 C-523.57290885 369.79296695 -522.37514969 367.40878237 -521.17675781 365.02490234 C-518.94473828 360.5823125 -516.72112785 356.13554323 -514.5 351.6875 C-513.84 351.6875 -513.18 351.6875 -512.5 351.6875 C-512.24347656 350.98882812 -511.98695313 350.29015625 -511.72265625 349.5703125 C-510.37020363 346.38146256 -508.7196848 343.53156779 -506.9375 340.5625 C-505.14686939 337.57687474 -503.60117028 334.99101083 -502.5 331.6875 C-501.84 331.6875 -501.18 331.6875 -500.5 331.6875 C-500.23960937 330.97078125 -499.97921875 330.2540625 -499.7109375 329.515625 C-497.40801351 324.13718317 -493.81662797 319.48369771 -490.5 314.6875 C-490.0477002 314.03104492 -489.59540039 313.37458984 -489.12939453 312.69824219 C-482.25459991 302.74904875 -475.09867189 293.094538 -467.5 283.6875 C-466.75234375 282.75679688 -466.0046875 281.82609375 -465.234375 280.8671875 C-463.01011945 278.12287219 -460.76219129 275.40062643 -458.5 272.6875 C-458.07170898 272.1728418 -457.64341797 271.65818359 -457.20214844 271.12792969 C-445.95502916 257.66193627 -433.87364636 244.99351397 -421.5 232.5625 C-420.81848877 231.87631592 -420.13697754 231.19013184 -419.43481445 230.4831543 C-415.51632398 226.57711716 -411.48809738 222.85617063 -407.29931641 219.24169922 C-405.05792825 217.30565078 -402.87339585 215.31081459 -400.6875 213.3125 C-395.43601708 208.5853709 -390.02989505 204.08403717 -384.5 199.6875 C-383.84999023 199.17026367 -383.19998047 198.65302734 -382.53027344 198.12011719 C-373.57230767 191.01693865 -364.52071416 184.12061476 -355.06982422 177.68237305 C-352.06506587 175.61389064 -349.48938583 173.67664424 -346.92578125 171.0546875 C-344.1405009 168.33668445 -341.52527153 167.00422526 -338 165.375 C-333.24107999 163.10721366 -328.71958151 160.68834064 -324.25 157.875 C-316.93615687 153.27949808 -309.42424807 149.08930167 -301.83837891 144.9609375 C-300.31514098 144.13141056 -298.7938722 143.29825422 -297.27490234 142.4609375 C-265.06181816 124.73552175 -230.41107212 111.78392371 -195.19921875 101.4140625 C-194.04035156 101.07117188 -192.88148438 100.72828125 -191.6875 100.375 C-190.75292969 100.11074219 -189.81835938 99.84648437 -188.85546875 99.57421875 C-186.44250135 98.81189032 -186.44250135 98.81189032 -184.62158203 97.13110352 C-182.11745899 95.42720484 -181.1629024 95.44789486 -178.19921875 95.703125 C-171.71382225 95.89731982 -165.68498492 94.38526849 -159.41418457 92.92391968 C-142.54272765 89.01914312 -125.71829136 86.54509534 -108.5 84.6875 C-107.47358398 84.57567383 -106.44716797 84.46384766 -105.38964844 84.34863281 C-99.4322926 83.71213743 -93.4717719 83.16822829 -87.5 82.6875 C-85.55287109 82.51927734 -85.55287109 82.51927734 -83.56640625 82.34765625 C-51.28512479 79.97451068 -18.1946555 81.57934191 13.87207031 85.72412109 C21.04847701 86.62492046 27.91765154 86.86032167 35.1328125 86.40234375 C38.72157296 86.7062643 40.80290423 87.87177166 43.91894531 89.56665039 C49.29210866 91.90000197 55.2236819 92.77858756 60.94381714 93.949646 C77.41023999 97.34107101 93.5004453 101.49705622 109.5 106.6875 C111.24023438 107.24775879 111.24023438 107.24775879 113.015625 107.81933594 C142.99687426 117.56161958 172.64696988 129.83398742 200.06860352 145.47509766 C202.39260996 146.63395056 204.337515 147.21207223 206.875 147.6875 C210.90786925 148.80001565 211.66705592 150.02394636 214.16455078 153.18505859 C216.19449536 155.46883902 218.54404334 156.61611608 221.25 158 C228.52162122 161.90887566 235.30842359 166.47710475 242.125 171.125 C243.16108398 171.82858643 244.19716797 172.53217285 245.26464844 173.25708008 C255.14792663 180.02545289 264.74389734 187.16073451 274.0625 194.6875 C275.01189453 195.45247803 275.01189453 195.45247803 275.98046875 196.23291016 C277.2430481 197.25108839 278.50495714 198.27009852 279.76611328 199.29003906 C281.29452006 200.5218893 282.83211656 201.74231883 284.37109375 202.9609375 C295.05569849 211.50227086 304.93442535 220.99523178 314.51953125 230.7421875 C316.48639874 232.67414018 318.52431336 234.46541669 320.625 236.25 C323.86550839 239.04026162 326.63406031 242.00612156 329.39453125 245.265625 C331.59493674 247.79670367 333.87060855 250.23992735 336.16748047 252.68310547 C342.23555352 259.13986836 347.9818919 265.74991265 353.5 272.6875 C354.41941877 273.81604542 355.34006036 274.94359538 356.26171875 276.0703125 C373.31254844 297.00274663 387.8736784 319.41313794 401.5 342.6875 C401.91572266 343.39358398 402.33144531 344.09966797 402.75976562 344.82714844 C436.72141555 402.88433885 461.70194184 473.44481882 465.83178711 540.91992188 C466.06356243 544.24774358 466.35113697 546.4445613 468.11328125 549.3203125 C469.5 551.6875 469.5 551.6875 469.08837891 554.08105469 C468.23512151 559.31106227 468.41903573 564.46862397 468.47265625 569.7578125 C468.48533482 572.20833176 468.49769325 574.65885268 468.50976562 577.109375 C468.53422172 580.92355755 468.56183047 584.73764905 468.59594727 588.55175781 C469.11931336 651.10842912 458.34487421 710.89073922 437.5 769.6875 C436.94530029 771.2660376 436.94530029 771.2660376 436.37939453 772.87646484 C420.21188373 818.49109634 395.36430391 860.89753983 366.5 899.5625 C365.90131104 900.36453857 365.30262207 901.16657715 364.68579102 901.99291992 C361.33810645 906.41956776 357.85235791 910.66345383 354.16552734 914.81152344 C352.62453537 916.54722885 351.11303641 918.3028708 349.61328125 920.07421875 C339.60950101 931.87599481 329.17050437 943.10005515 318.25 954.0625 C317.41017578 954.90699707 316.57035156 955.75149414 315.70507812 956.62158203 C311.34497184 960.97048646 306.91707623 965.17190949 302.24658203 969.18603516 C299.97466238 971.13911118 297.77136909 973.16364729 295.5625 975.1875 C291.03886048 979.26427543 286.34854138 983.00849496 281.5 986.6875 C280.56929687 987.41324219 279.63859375 988.13898437 278.6796875 988.88671875 C256.12937559 1006.43526975 232.48479262 1021.82289286 207.5 1035.6875 C206.84547852 1036.05536621 206.19095703 1036.42323242 205.51660156 1036.80224609 C150.47606723 1067.68692125 87.867733 1084.58330484 25.5 1091.6875 C24.75773163 1091.77543823 24.01546326 1091.86337646 23.2507019 1091.95397949 C7.89621544 1093.74268362 -7.36361918 1094.08920384 -22.8125 1094.0625 C-24.67943008 1094.06118576 -24.67943008 1094.06118576 -26.58407593 1094.05984497 C-60.66998911 1093.98116737 -93.27974214 1090.3335462 -126.55511475 1083.1048584 C-129.48632155 1082.47584248 -132.42531333 1081.88557345 -135.36328125 1081.2890625 C-161.39696093 1075.82936452 -187.80547789 1066.96406932 -212.0625 1056 C-213.33452986 1055.43335673 -214.60666443 1054.86694847 -215.87890625 1054.30078125 C-217.07386719 1053.76839844 -218.26882813 1053.23601562 -219.5 1052.6875 C-220.58748535 1052.22931885 -221.6749707 1051.7711377 -222.79541016 1051.29907227 C-226.3959643 1049.75818803 -229.89425381 1048.04712592 -233.39453125 1046.2890625 C-234.02679123 1045.97222504 -234.65905121 1045.65538757 -235.31047058 1045.32894897 C-237.31210582 1044.32536324 -239.31233021 1043.31900268 -241.3125 1042.3125 C-242.64118176 1041.64564544 -243.96995714 1040.9789774 -245.29882812 1040.3125 C-247.85807763 1039.02864813 -250.41682169 1037.74379846 -252.97509766 1036.45800781 C-257.48035906 1034.19507973 -261.9894155 1031.93979541 -266.5 1029.6875 C-266.5 1029.0275 -266.5 1028.3675 -266.5 1027.6875 C-268.81 1027.0275 -271.12 1026.3675 -273.5 1025.6875 C-273.5 1025.0275 -273.5 1024.3675 -273.5 1023.6875 C-274.58063721 1023.29159668 -274.58063721 1023.29159668 -275.68310547 1022.88769531 C-278.56398946 1021.66023599 -280.96462796 1020.21693266 -283.5703125 1018.484375 C-284.54009033 1017.84056885 -285.50986816 1017.1967627 -286.5090332 1016.53344727 C-287.53730225 1015.84178467 -288.56557129 1015.15012207 -289.625 1014.4375 C-290.68871826 1013.72456787 -291.75243652 1013.01163574 -292.84838867 1012.27709961 C-309.74680774 1000.87543691 -325.94300306 988.82260156 -340.95703125 975.015625 C-343.07067054 973.08055738 -345.20659848 971.18541703 -347.375 969.3125 C-358.33914942 959.76671077 -369.15545235 949.89155559 -378.625 938.84375 C-380.84775991 936.2875761 -383.14222272 933.80371559 -385.4375 931.3125 C-390.02871908 926.26697738 -394.30162865 921.06084217 -398.5 915.6875 C-399.49126265 914.46018995 -400.48353148 913.23369218 -401.4765625 912.0078125 C-419.646255 889.36323474 -434.86281944 864.6533126 -448.45410156 839.04663086 C-451.04067146 834.18336361 -453.6472926 829.41223657 -456.61328125 824.76953125 C-459.61791942 819.84613124 -461.42662599 814.71437715 -463.27148438 809.26660156 C-464.44235458 805.85544155 -465.72491417 802.52213854 -467.078125 799.1796875 C-482.92674818 759.97581783 -493.49783708 719.77842554 -498.75 677.8125 C-498.83317474 677.147948 -498.91634949 676.483396 -499.00204468 675.79870605 C-499.54196813 671.43236263 -500.03473448 667.06238475 -500.5 662.6875 C-500.60675049 661.71989746 -500.71350098 660.75229492 -500.82348633 659.75537109 C-501.93948005 647.90377615 -501.70042336 635.9544536 -501.6875 624.0625 C-501.68559662 622.27573853 -501.68559662 622.27573853 -501.68365479 620.45288086 C-501.59424201 576.54455866 -496.42190969 532.75288912 -483.1328125 490.74072266 C-482.29886008 488.03488166 -481.58057868 485.30428671 -480.875 482.5625 C-479.76064463 478.37718854 -478.26698835 474.4729018 -476.59765625 470.48046875 C-475.27494982 467.11486342 -474.17053985 463.69025726 -473.0625 460.25 C-471.31433704 454.87892918 -469.29267534 449.76353369 -466.86328125 444.6640625 C-465.83519899 442.41936713 -464.88637141 440.19187633 -463.98046875 437.8984375 C-459.81493907 427.36034331 -454.87525401 417.43354298 -449.42041016 407.50244141 C-448.36887374 405.5392031 -448.36887374 405.5392031 -447.5 402.6875 C-446.84 402.6875 -446.18 402.6875 -445.5 402.6875 C-445.10059204 401.37241455 -445.10059204 401.37241455 -444.69311523 400.03076172 C-443.53818576 396.7945014 -442.17315809 394.1365004 -440.41015625 391.1953125 C-439.7963208 390.16849365 -439.18248535 389.1416748 -438.55004883 388.08374023 C-437.89415771 387.00423096 -437.2382666 385.92472168 -436.5625 384.8125 C-435.88662842 383.69496338 -435.21075684 382.57742676 -434.5144043 381.42602539 C-429.14759063 372.61778934 -423.56634136 364.02844492 -417.5 355.6875 C-417.03029785 355.04055176 -416.5605957 354.39360352 -416.07666016 353.72705078 C-406.35050267 340.40510334 -396.15867553 327.39151894 -384.9140625 315.3125 C-383.02702615 313.26057698 -381.20744322 311.18223243 -379.39453125 309.06640625 C-375.14462592 304.19353201 -370.59178649 299.62877068 -366.01196289 295.0690918 C-364.56475615 293.62724779 -363.12297974 292.18012884 -361.68164062 290.73242188 C-356.45831807 285.50501488 -351.13685016 280.46689176 -345.5 275.6875 C-344.49039117 274.81046447 -343.48124432 273.93289671 -342.47265625 273.0546875 C-333.74398255 265.57966224 -324.72526662 258.53887903 -315.5 251.6875 C-314.5112085 250.95128418 -314.5112085 250.95128418 -313.50244141 250.20019531 C-292.48848917 234.66974375 -269.92647808 221.85249353 -246.58300781 210.22363281 C-244.07559423 208.97429434 -241.57920228 207.70684234 -239.0859375 206.4296875 C-215.48217655 194.58424656 -189.96609334 186.50632615 -164.56738281 179.56347656 C-161.89682706 178.80082501 -159.28816262 177.95674965 -156.66796875 177.0390625 C-152.45434592 175.59453059 -148.27380922 174.83215728 -143.875 174.1875 C-138.35457141 173.33008983 -132.89856174 172.37765193 -127.4375 171.1875 C-120.6826239 169.80747155 -113.90540464 168.89423992 -107.0625 168.0625 C-106.06275146 167.93939453 -105.06300293 167.81628906 -104.03295898 167.68945312 C-86.6594982 165.66182588 -69.34775341 165.44750242 -51.875 165.4375 C-50.04168121 165.43598938 -50.04168121 165.43598938 -48.17132568 165.43444824 C-29.74417866 165.44470986 -11.75495301 166.00984017 6.5 168.6875 C8.07491211 168.9043042 8.07491211 168.9043042 9.68164062 169.12548828 C16.98838965 170.13931655 24.24722606 171.34235429 31.5 172.6875 C32.57862305 172.88682129 33.65724609 173.08614258 34.76855469 173.29150391 C72.35987756 180.41182009 108.0376694 193.1808406 142.5 209.6875 C143.36818359 210.09967773 144.23636719 210.51185547 145.13085938 210.93652344 C175.94278082 225.63198635 204.41364182 244.70835566 230.5 266.6875 C231.0170752 267.1196582 231.53415039 267.55181641 232.06689453 267.99707031 C246.68829478 280.23403106 261.23150294 293.0923093 273.66796875 307.578125 C275.65311587 309.86379546 277.7003983 312.08451378 279.75 314.3125 C285.33827038 320.50798482 290.41317147 327.08057347 295.5 333.6875 C296.16829834 334.55375 296.16829834 334.55375 296.85009766 335.4375 C298.57273555 337.67090162 300.29512227 339.90439198 302.00708008 342.14599609 C303.77451858 344.45941209 305.55478518 346.75445966 307.3984375 349.0078125 C311.20020121 353.66970375 314.25519521 358.52242336 317.17724609 363.78125 C319.59482125 368.1317476 322.13022666 372.39217323 324.72998047 376.63623047 C373.88100234 457.11254221 395.65055763 555.8668438 381.5 653.6875 C381.35340942 654.69466064 381.35340942 654.69466064 381.20385742 655.72216797 C374.52743545 701.50175093 360.14897971 745.33691624 339.5 786.6875 C339.09096436 787.52531006 338.68192871 788.36312012 338.26049805 789.22631836 C335.4374938 794.9761832 332.37357948 800.51758307 329.0625 806 C328.55098389 806.84884766 328.03946777 807.69769531 327.51245117 808.57226562 C318.88950596 822.74697008 309.71710002 836.60816275 299.5 849.6875 C298.6193322 850.8355852 297.7391493 851.98404247 296.859375 853.1328125 C291.81778216 859.67562845 286.62022127 865.94822822 280.984375 871.9921875 C279.06940541 874.06974884 277.22395187 876.17201285 275.38671875 878.31640625 C271.13981129 883.18701745 266.5891748 887.74882952 262.01196289 892.3059082 C260.56475615 893.74775221 259.12297974 895.19487116 257.68164062 896.64257812 C252.45903832 901.86965735 247.15033949 906.92432487 241.5 911.6875 C240.5572522 912.49030396 240.5572522 912.49030396 239.59545898 913.30932617 C222.82964442 927.50558588 205.32621513 940.35754144 186.5 951.6875 C185.7152832 952.16364746 184.93056641 952.63979492 184.12207031 953.13037109 C136.51233839 981.82624906 83.5143339 999.96724695 28.5 1007.6875 C27.45199219 1007.83848145 26.40398438 1007.98946289 25.32421875 1008.14501953 C-26.74682463 1015.37104606 -78.87957343 1009.68764473 -129.5 996.6875 C-130.76231445 996.36998779 -132.02462891 996.05247559 -133.32519531 995.7253418 C-147.80789784 992.06260197 -162.27544205 987.63507938 -175.7109375 981.046875 C-177.64122687 980.1060617 -179.60013226 979.22259639 -181.578125 978.38671875 C-187.10449469 976.04672438 -192.47475874 973.36414981 -197.875 970.75 C-205.03680261 967.2839257 -212.20061439 963.85570915 -219.5 960.6875 C-219.5 960.0275 -219.5 959.3675 -219.5 958.6875 C-220.180625 958.419375 -220.86125 958.15125 -221.5625 957.875 C-224.89710809 956.52696694 -228.19743237 955.11213702 -231.5 953.6875 C-231.5 953.0275 -231.5 952.3675 -231.5 951.6875 C-232.20125 951.419375 -232.9025 951.15125 -233.625 950.875 C-236.6649824 949.6193551 -239.5727774 948.18514877 -242.5 946.6875 C-242.5 946.0275 -242.5 945.3675 -242.5 944.6875 C-243.47066406 944.38005859 -243.47066406 944.38005859 -244.4609375 944.06640625 C-248.75037728 942.12016944 -252.33873133 939.40624952 -256.125 936.625 C-256.92897217 936.0386377 -257.73294434 935.45227539 -258.5612793 934.84814453 C-264.72172452 930.32556841 -270.66974123 925.63016714 -276.5 920.6875 C-277.48742187 919.8728125 -278.47484375 919.058125 -279.4921875 918.21875 C-293.34230136 906.74618195 -306.95820923 894.45126834 -318.67578125 880.78515625 C-319.9196954 879.35478816 -321.18934069 877.94649275 -322.48046875 876.55859375 C-367.00036891 828.63279959 -397.15958958 765.37577168 -410.5 701.6875 C-410.69142578 700.79740234 -410.88285156 699.90730469 -411.08007812 698.99023438 C-416.44975898 673.78828278 -418.4280249 648.28819494 -419.05761719 622.57592773 C-419.12603225 619.83362416 -419.20348196 617.09166193 -419.28125 614.34960938 C-419.32606291 612.60157631 -419.37035398 610.85352978 -419.4140625 609.10546875 C-419.43796051 608.28789597 -419.46185852 607.47032318 -419.48648071 606.62797546 C-419.61455126 600.91660252 -419.61455126 600.91660252 -418.5 598.6875 C-418.26714137 596.99854036 -418.08256709 595.30281546 -417.921875 593.60546875 C-417.76247437 592.01109985 -417.76247437 592.01109985 -417.59985352 590.38452148 C-417.42667603 588.64730835 -417.42667603 588.64730835 -417.25 586.875 C-414.55685497 561.36307229 -410.43539331 535.6050342 -402.33056641 511.20263672 C-401.32310555 508.15182493 -400.34055882 505.09326317 -399.35546875 502.03515625 C-398.57123917 499.62730215 -397.7860777 497.21975138 -397 494.8125 C-396.63237549 493.67111572 -396.26475098 492.52973145 -395.88598633 491.35375977 C-393.91388287 485.38079227 -391.71673232 479.78855537 -388.79931641 474.21679688 C-387.37118102 471.43673625 -386.08413806 468.61492198 -384.80859375 465.76171875 C-372.94365579 439.3060023 -358.50339828 414.47968099 -340.5 391.6875 C-340.03303711 391.09195312 -339.56607422 390.49640625 -339.08496094 389.8828125 C-322.53556452 368.84490716 -303.77205622 348.0002352 -282.5 331.6875 C-281.40072576 330.79133041 -280.30458578 329.89130795 -279.2109375 328.98828125 C-262.72433892 315.42988264 -245.26347186 303.84448914 -226.5 293.6875 C-225.56752441 293.17944824 -224.63504883 292.67139648 -223.67431641 292.14794922 C-183.21434401 270.20950029 -140.14050403 256.64403942 -94.5 250.6875 C-93.8342395 250.5999646 -93.168479 250.5124292 -92.48254395 250.42224121 C-79.38562713 248.74555972 -66.44359021 248.36239839 -53.25 248.4375 C-52.2591037 248.44093414 -51.2682074 248.44436829 -50.24728394 248.44790649 C-35.92067189 248.50608079 -21.70685658 248.66775365 -7.5 250.6875 C-6.38302734 250.84347656 -5.26605469 250.99945313 -4.11523438 251.16015625 C61.85638617 260.66006961 124.73018516 286.57075249 175.95703125 329.6171875 C178.76833267 331.90595824 181.68358481 334.00659057 184.625 336.125 C189.39767762 339.67234319 193.23628338 343.44605768 197.08984375 347.95703125 C199.92267075 351.16634417 202.94149256 354.13322044 206 357.125 C210.70601765 361.77164424 215.058544 366.53894999 219.16015625 371.73828125 C220.84372837 373.86031289 222.5461489 375.92674984 224.30859375 377.98046875 C238.72063349 394.94377939 251.09211917 414.03059903 261.5 433.6875 C262.13421875 434.81542969 262.7684375 435.94335938 263.421875 437.10546875 C272.88866242 454.02230943 280.47274835 471.8978864 285.77539062 490.54052734 C287.53437748 496.73933253 287.53437748 496.73933253 291.2890625 501.83203125 C293.5 504.6875 293.5 504.6875 293.49853516 506.56225586 C293.24854209 508.05760999 292.99128233 509.5517594 292.72851562 511.04492188 C292.24903684 516.5896637 294.02951683 522.06020294 295.25 527.4375 C303.42383836 565.8163635 304.65771326 606.87451207 298.5 645.6875 C298.33371094 646.74775391 298.16742187 647.80800781 297.99609375 648.90039062 C292.08394142 685.22728214 280.00929572 718.90983225 263.5 751.6875 C263.13696777 752.42000977 262.77393555 753.15251953 262.39990234 753.90722656 C247.17105752 784.54666274 224.85924543 811.54183229 200.8125 835.625 C200.28498138 836.15385803 199.75746277 836.68271606 199.21395874 837.2276001 C191.40445074 845.03282487 183.44246808 852.20250406 174.5 858.6875 C172.92633593 859.93151873 171.3527089 861.17560073 169.78393555 862.42578125 C128.53082899 895.02955165 77.89048885 914.57795661 26.5 923.6875 C25.00581543 923.95868652 25.00581543 923.95868652 23.48144531 924.23535156 C-9.90913211 929.99313711 -47.2862264 929.05407107 -80.5 922.6875 C-81.14501465 922.5639917 -81.7900293 922.4404834 -82.45458984 922.31323242 C-98.53149774 919.20503023 -114.25312284 915.34374217 -129.55517578 909.43359375 C-132.2467859 908.4010102 -134.96761261 907.45513192 -137.6875 906.5 C-147.41999065 903.03993765 -156.70633878 898.29268779 -166.0625 893.9375 C-167.37041061 893.32935805 -168.67835309 892.72128463 -169.98632812 892.11328125 C-173.15791943 890.63880979 -176.32907993 889.16341452 -179.5 887.6875 C-179.5 887.0275 -179.5 886.3675 -179.5 885.6875 C-180.15355469 885.45804688 -180.80710937 885.22859375 -181.48046875 884.9921875 C-185.47766935 883.26506589 -189.10195393 881.08194956 -192.8125 878.8125 C-193.60285645 878.3292627 -194.39321289 877.84602539 -195.20751953 877.34814453 C-202.70006672 872.68980632 -209.7037143 867.49621893 -216.66894531 862.09228516 C-218.4357881 860.73676337 -220.22252217 859.41527152 -222.0234375 858.10546875 C-223.08820313 857.32816406 -224.15296875 856.55085937 -225.25 855.75 C-226.17296875 855.08097656 -227.0959375 854.41195312 -228.046875 853.72265625 C-230.61475312 851.59229876 -232.46219354 849.318431 -234.5 846.6875 C-235.57332162 845.69474247 -236.67850143 844.73534021 -237.8125 843.8125 C-248.37633504 834.75213212 -257.93898486 824.64320469 -266.5 813.6875 C-267.45054295 812.52392756 -268.40384331 811.36260416 -269.359375 810.203125 C-284.7542871 791.44134612 -297.18814378 770.64195414 -307.5 748.6875 C-307.79326172 748.06375488 -308.08652344 747.44000977 -308.38867188 746.79736328 C-321.56241799 718.44740296 -329.45320124 688.64788476 -333.5 657.6875 C-333.61714355 656.81673828 -333.73428711 655.94597656 -333.85498047 655.04882812 C-336.77992318 632.50112712 -336.70657236 609.19729776 -333.5 586.6875 C-333.29068848 585.21289307 -333.29068848 585.21289307 -333.07714844 583.70849609 C-330.01033352 562.60216792 -325.62363384 542.79494831 -318.5 522.6875 C-317.93539062 521.03427734 -317.93539062 521.03427734 -317.359375 519.34765625 C-311.06826225 501.85930179 -301.89029042 485.24598492 -293.5 468.6875 C-292.84 468.6875 -292.18 468.6875 -291.5 468.6875 C-291.27183594 468.01589844 -291.04367187 467.34429688 -290.80859375 466.65234375 C-289.13457207 462.85956031 -286.92923136 459.64187772 -284.5625 456.25 C-284.07668457 455.54915283 -283.59086914 454.84830566 -283.09033203 454.1262207 C-278.55557538 447.64977034 -273.74617313 441.41815248 -268.77587891 435.27197266 C-267.58164663 433.7888943 -266.40536263 432.29141344 -265.23046875 430.79296875 C-257.84295647 421.48869653 -249.51814598 413.06438516 -240.4609375 405.375 C-239.065936 404.17452062 -237.69864583 402.94151212 -236.3515625 401.6875 C-202.52139882 370.2175803 -158.99184944 349.69013424 -114.5 338.6875 C-113.73220215 338.49172363 -112.9644043 338.29594727 -112.17333984 338.09423828 C-65.23637044 326.29559284 -12.31552573 329.19740962 33.36621094 344.78613281 C38.37392086 346.46435592 42.94581097 347.32155999 48.2734375 347.19140625 C51.05292815 347.81069627 51.95989707 349.20776063 53.83398438 351.24536133 C57.60542298 354.50999905 62.55483401 356.21543781 67.0625 358.25 C84.2373042 366.26548946 99.94362898 375.65009711 114.83544922 387.37695312 C116.29878362 388.52907677 117.77534439 389.66435953 119.25390625 390.796875 C135.10485833 403.11125832 150.32588808 417.73746032 162.5 433.6875 C162.90750488 434.21327637 163.31500977 434.73905273 163.73486328 435.28076172 C198.86415443 480.77866828 218.78376635 536.09142248 218.6875 593.6875 C218.68656342 594.41526642 218.68562683 595.14303284 218.68466187 595.89285278 C218.65213875 607.59204081 218.30764907 619.11189203 216.5 630.6875 C216.34934082 631.65606934 216.19868164 632.62463867 216.04345703 633.62255859 C205.3683419 699.54985461 170.01366639 759.63627998 115.80908203 799.05566406 C108.91440665 803.92815404 101.75789003 808.37989304 94.5 812.6875 C93.55423096 813.24945068 93.55423096 813.24945068 92.58935547 813.82275391 C74.85575603 824.1847776 55.29432778 831.42404698 35.5 836.6875 C34.80455078 836.88037598 34.10910156 837.07325195 33.39257812 837.27197266 C2.63306247 845.74487478 -34.22850718 847.69907089 -65.5 840.6875 C-66.65322754 840.4404834 -67.80645508 840.1934668 -68.99462891 839.93896484 C-72.95980269 839.08467333 -76.91884848 838.20745441 -80.875 837.3125 C-82.11193604 837.03269287 -83.34887207 836.75288574 -84.62329102 836.46459961 C-109.63864002 830.54999465 -134.65379682 818.76256802 -155.5 803.6875 C-156.42159912 803.02645264 -156.42159912 803.02645264 -157.36181641 802.35205078 C-166.63594225 795.67078861 -175.28997549 788.65426452 -183.5 780.6875 C-184.09167969 780.12160156 -184.68335938 779.55570313 -185.29296875 778.97265625 C-199.56289689 765.29117876 -210.99470595 750.41682101 -221.5 733.6875 C-221.93699219 732.99237305 -222.37398437 732.29724609 -222.82421875 731.58105469 C-235.58350127 710.90120218 -243.76783777 687.44011676 -248.5 663.6875 C-248.67499023 662.84251953 -248.84998047 661.99753906 -249.03027344 661.12695312 C-251.58174308 648.26350418 -251.77866583 635.37849895 -251.8125 622.3125 C-251.81814972 621.10687408 -251.81814972 621.10687408 -251.82391357 619.87689209 C-251.87897609 596.70149307 -248.62926873 573.45783266 -240.5 551.6875 C-240.15582031 550.68589844 -239.81164062 549.68429687 -239.45703125 548.65234375 C-233.67173678 532.46605056 -225.4499769 516.6977992 -215.5 502.6875 C-215.05043945 502.05150879 -214.60087891 501.41551758 -214.13769531 500.76025391 C-207.62626693 491.63235109 -200.64942265 483.13703707 -192.84912109 475.08349609 C-191.63250663 473.82461055 -190.43421202 472.54808245 -189.23828125 471.26953125 C-182.91632079 464.66711413 -175.79285622 459.16261071 -168.5 453.6875 C-167.66726563 453.05972656 -166.83453125 452.43195313 -165.9765625 451.78515625 C-138.17797193 431.62406241 -105.64609755 418.97633005 -71.5 415.6875 C-70.28376953 415.55154419 -70.28376953 415.55154419 -69.04296875 415.4128418 C-20.01449424 410.03225626 30.17831171 425.98958293 68.52880859 456.55541992 C77.17508173 463.59918351 85.46899379 471.00036814 92.5 479.6875 C93.31855469 480.66847656 94.13710938 481.64945313 94.98046875 482.66015625 C116.94391271 509.41075702 130.83977178 541.72915056 135.04296875 576.09375 C135.41362592 578.75540372 135.41362592 578.75540372 136.61328125 581.34375 C137.5 583.6875 137.5 583.6875 136.5 586.6875 C136.33941459 588.67681481 136.22673653 590.67013525 136.140625 592.6640625 C133.83804521 638.68516053 120.28705428 680.15415465 87.5 713.6875 C86.76394531 714.47382812 86.02789063 715.26015625 85.26953125 716.0703125 C58.01386689 744.56712733 18.09347447 760.18202684 -20.90429688 761.21289062 C-41.08885158 761.40153132 -60.83318952 758.66375193 -79.5 750.6875 C-80.18094727 750.39713867 -80.86189453 750.10677734 -81.56347656 749.80761719 C-95.33092121 743.82925722 -108.04148435 736.3945845 -119.5 726.6875 C-120.00724609 726.25856445 -120.51449219 725.82962891 -121.03710938 725.38769531 C-138.23262998 710.68759563 -149.79567102 692.96520234 -159.5 672.6875 C-159.83201416 672.08292969 -160.16402832 671.47835937 -160.50610352 670.85546875 C-163.34343438 665.60071357 -164.6360578 660.54363375 -165.6875 654.6875 C-165.9340332 653.41132812 -165.9340332 653.41132812 -166.18554688 652.109375 C-170.33124107 630.2227951 -170.13111868 607.27175162 -164.5 585.6875 C-164.23445313 584.6046875 -163.96890625 583.521875 -163.6953125 582.40625 C-158.36180838 563.91676904 -146.54341406 547.47251285 -133.5 533.6875 C-132.72914063 532.8521875 -131.95828125 532.016875 -131.1640625 531.15625 C-109.63191038 508.57884777 -79.95500221 498.12424144 -49.25 497.3125 C-20.09363152 498.13768024 6.60340762 510.71349448 27.5 530.6875 C28.00789062 531.15671875 28.51578125 531.6259375 29.0390625 532.109375 C32.46751313 535.81283504 34.87911837 540.39925828 37.5 544.6875 C38.17933594 545.77933594 38.85867188 546.87117187 39.55859375 547.99609375 C52.35597938 569.04859239 55.38382829 592.6675274 50.00048828 616.65039062 C44.77442473 637.92174393 31.47095436 656.83224152 12.8125 668.4375 C-3.21096863 677.35094309 -22.71516742 680.56275328 -40.75 676.6875 C-57.19981816 671.66891141 -71.27230342 662.49221272 -80.1015625 647.4609375 C-86.10083124 635.56294642 -88.93509884 622.14497931 -85.55859375 609.03125 C-84.35983759 605.81452501 -83.02448571 602.76202145 -81.5 599.6875 C-81.16226563 598.96304688 -80.82453125 598.23859375 -80.4765625 597.4921875 C-76.10095275 589.36605511 -68.88389953 581.86259145 -59.984375 579.0390625 C-51.8490817 577.0465267 -45.00006772 576.75473569 -37.625 581.0625 C-32.76538488 584.25402206 -28.89631013 587.34188509 -26.5 592.6875 C-25.81876281 597.62455605 -25.56444617 602.44725557 -28.5 606.6875 C-30.4453125 607.515625 -30.4453125 607.515625 -32.625 607.9375 C-33.90375 608.185 -35.1825 608.4325 -36.5 608.6875 C-35.84 607.6975 -35.18 606.7075 -34.5 605.6875 C-33.96405607 600.8640046 -34.80925018 597.72362473 -37.5 593.6875 C-41.64925177 590.65146212 -45.67794005 590.05084667 -50.703125 590.203125 C-57.08164337 591.30778461 -63.33628275 594.32153052 -67.71484375 599.109375 C-69.34022816 601.4567573 -70.57131739 603.63038774 -71.6875 606.25 C-72.01105469 606.99378906 -72.33460938 607.73757813 -72.66796875 608.50390625 C-76.20847818 617.79566575 -75.20412821 627.73466382 -71.76171875 636.90234375 C-66.33306182 648.88572577 -57.24029669 657.72037441 -45.03515625 662.69140625 C-29.4664723 668.05366512 -12.48650779 666.93846416 2.359375 659.8359375 C15.37097657 652.85526074 26.21371041 643.45811191 31.39453125 629.48046875 C32.634799 626.34693008 34.122452 623.3910104 35.625 620.375 C38.65163583 613.87079018 39.93531551 607.81328041 40.5 600.6875 C40.57089844 599.79675781 40.64179687 598.90601563 40.71484375 597.98828125 C41.5413641 575.8705968 31.88547025 554.24259307 17.18359375 538.15234375 C10.55573727 531.27555369 3.56614555 525.02512527 -5.5 521.6875 C-5.5 521.0275 -5.5 520.3675 -5.5 519.6875 C-7.58007904 518.99414032 -9.66048279 518.30174472 -11.7421875 517.61328125 C-13.62766776 516.98033674 -15.50773784 516.33110491 -17.3828125 515.66796875 C-18.37023437 515.32378906 -19.35765625 514.97960937 -20.375 514.625 C-21.27992188 514.30402344 -22.18484375 513.98304688 -23.1171875 513.65234375 C-32.29097277 511.03580222 -41.11319499 510.37106132 -50.625 510.4375 C-51.74003906 510.42976563 -52.85507812 510.42203125 -54.00390625 510.4140625 C-64.76238965 510.00572961 -64.76238965 510.00572961 -74.11132812 514.24633789 C-74.56958984 514.72192139 -75.02785156 515.19750488 -75.5 515.6875 C-77.6015625 515.91796875 -77.6015625 515.91796875 -80.125 515.875 C-97.6688605 517.0585144 -116.67486555 531.6552776 -127.8671875 544.22265625 C-137.16127732 555.08287722 -144.86737746 567.0997661 -149.5 580.6875 C-149.92152344 581.89019531 -150.34304688 583.09289062 -150.77734375 584.33203125 C-161.20053033 615.05816636 -157.55807673 648.29459824 -143.7265625 677.3671875 C-128.73242772 707.31540149 -101.52167351 730.40288023 -70.0625 741.5625 C-31.393538 753.40250791 7.90004225 750.06238669 43.82421875 731.48828125 C56.32976925 724.797152 67.18476371 716.42381997 77.5 706.6875 C78.17546875 706.06488281 78.8509375 705.44226563 79.546875 704.80078125 C85.61734132 699.00955638 90.50149897 692.39238586 95.5 685.6875 C96.04140625 685.01460937 96.5828125 684.34171875 97.140625 683.6484375 C100.26988742 679.67088105 101.3582722 675.9237313 102.6328125 671.140625 C103.53805765 668.57984142 104.57720833 667.06796417 106.3125 665 C112.85837453 656.86626482 115.58577467 646.00061033 118.25 636.0625 C118.44859619 635.32410889 118.64719238 634.58571777 118.85180664 633.82495117 C122.01062609 621.41829886 122.87646994 609.29645281 122.8125 596.5625 C122.81034485 595.79026093 122.8081897 595.01802185 122.80596924 594.22238159 C122.75348361 582.49487714 122.35823702 571.11785909 119.5 559.6875 C119.30664062 558.9052002 119.11328125 558.12290039 118.9140625 557.31689453 C111.80101974 529.56175776 98.94090918 504.92856228 79.48828125 483.86328125 C77.89293179 482.11748626 76.40064268 480.35461898 74.9375 478.5 C65.95042606 468.1302993 50.64203239 455.06817746 37.5 450.6875 C37.5 450.0275 37.5 449.3675 37.5 448.6875 C36.24703125 448.30078125 36.24703125 448.30078125 34.96875 447.90625 C30.50054731 446.33634095 26.3261674 444.31063941 22.06640625 442.25390625 C16.03620831 439.38062175 10.10592361 437.51800681 3.55078125 436.25 C1.5 435.6875 1.5 435.6875 -1.5 433.6875 C-3.15260742 433.20786293 -4.825905 432.79739335 -6.5078125 432.43359375 C-7.49523437 432.21896484 -8.48265625 432.00433594 -9.5 431.78320312 C-10.53125 431.56599609 -11.5625 431.34878906 -12.625 431.125 C-14.13707031 430.79338867 -14.13707031 430.79338867 -15.6796875 430.45507812 C-40.17003987 425.20487953 -67.17194034 425.9671184 -91.5 431.6875 C-92.39428711 431.89648926 -93.28857422 432.10547852 -94.20996094 432.32080078 C-144.26500123 444.4572844 -184.94368867 476.26071561 -212.14697266 519.45019531 C-215.69605957 525.31880456 -218.6530491 531.45529542 -221.5 537.6875 C-222.03109375 538.82316406 -222.5621875 539.95882812 -223.109375 541.12890625 C-230.08439882 556.64294119 -234.57795244 572.95877772 -237.5 589.6875 C-237.61859375 590.35330078 -237.7371875 591.01910156 -237.859375 591.70507812 C-246.46394955 642.46182445 -232.20173632 698.14262113 -202.8359375 740.06298828 C-196.57143977 748.70034663 -189.90051372 756.99516791 -182.5 764.6875 C-181.98276367 765.23583496 -181.46552734 765.78416992 -180.93261719 766.34912109 C-146.40563208 802.82473639 -99.17981548 824.8096409 -49.5 830.6875 C-48.45328125 830.81769531 -47.4065625 830.94789063 -46.328125 831.08203125 C-13.2086548 834.36769298 20.14396514 829.48332779 51.5 818.6875 C53.0159375 818.17316406 53.0159375 818.17316406 54.5625 817.6484375 C82.0574155 807.6958509 106.82784849 792.50045789 128.28125 772.71875 C130.27015799 770.89791875 132.30682976 769.16662594 134.375 767.4375 C143.45747933 759.49262414 151.30836112 750.16959056 158.29443359 740.36425781 C159.60866188 738.536368 160.95394736 736.73367009 162.30078125 734.9296875 C178.64586262 712.76813735 190.88875346 687.46304847 197.5 660.6875 C197.90918242 659.18297293 198.32082578 657.67911388 198.734375 656.17578125 C203.55384299 638.30232823 205.8994367 620.17358902 206.5 601.6875 C206.54125 600.59308594 206.5825 599.49867188 206.625 598.37109375 C207.68740166 543.19260765 188.51748717 487.01634315 154.5 443.6875 C153.85546875 442.84960938 153.2109375 442.01171875 152.546875 441.1484375 C147.22408847 434.33267426 141.45739379 427.94847913 135.5 421.6875 C134.96068848 421.11950684 134.42137695 420.55151367 133.86572266 419.96630859 C125.64992373 411.37544575 117.08934221 403.70927082 107.5 396.6875 C106.79343262 396.16849121 106.08686523 395.64948242 105.35888672 395.11474609 C103.12244428 393.48145505 100.87656159 391.86237525 98.625 390.25 C97.93559326 389.7535498 97.24618652 389.25709961 96.53588867 388.74560547 C92.03397661 385.5730771 87.47951511 383.0435793 82.5 380.6875 C82.5 380.0275 82.5 379.3675 82.5 378.6875 C81.79528564 378.41583008 81.09057129 378.14416016 80.36450195 377.86425781 C77.39601023 376.64478026 74.54464288 375.28165481 71.66796875 373.859375 C53.62136053 365.00284465 36.00109822 357.71069064 16.5 352.6875 C15.68934082 352.47206543 14.87868164 352.25663086 14.04345703 352.03466797 C-20.96140249 342.77408707 -60.86772899 340.42554187 -96.5 347.6875 C-97.49273926 347.88085938 -98.48547852 348.07421875 -99.50830078 348.2734375 C-123.791199 353.10096259 -147.29016008 360.72572038 -169.5 371.6875 C-170.68964355 372.26902832 -170.68964355 372.26902832 -171.90332031 372.86230469 C-202.43358821 387.92390352 -231.30588497 409.7749992 -253.5 435.6875 C-254.38116787 436.69431032 -255.26269564 437.70080573 -256.14453125 438.70703125 C-292.80044561 480.88166489 -314.87074584 534.41501727 -321.5 589.6875 C-321.59498779 590.45690918 -321.68997559 591.22631836 -321.7878418 592.01904297 C-329.76468996 666.14834608 -307.16946713 743.67985859 -260.53222656 801.79833984 C-259.19651091 803.4351509 -257.84955433 805.06208877 -256.5 806.6875 C-256.0447998 807.24421387 -255.58959961 807.80092773 -255.12060547 808.37451172 C-208.09563761 865.75509945 -137.93770167 903.31017434 -64.5 912.6875 C-59.96853431 913.11939591 -55.44734464 913.35532214 -50.8984375 913.51171875 C-47.5 913.6875 -47.5 913.6875 -45.26416016 914.18798828 C-41.79331273 914.81520554 -38.3892989 914.84933235 -34.875 914.85546875 C-33.77233795 914.86182091 -33.77233795 914.86182091 -32.6473999 914.86830139 C-30.26487514 914.8781881 -27.88254167 914.87822046 -25.5 914.875 C-24.68599731 914.87439575 -23.87199463 914.8737915 -23.0333252 914.87316895 C-10.42030713 914.84769061 1.99673045 914.47611154 14.5 912.6875 C15.42570801 912.55859375 16.35141602 912.4296875 17.30517578 912.296875 C49.97495782 907.62280782 81.86149661 898.30064653 111.5 883.6875 C112.40379395 883.24712402 113.30758789 882.80674805 114.23876953 882.35302734 C142.4864767 868.48246234 169.86705585 850.06686582 191.83984375 827.34765625 C193.5 825.6875 193.5 825.6875 196.5625 823.1875 C199.56516324 820.63204193 202.00253114 817.94321331 204.546875 814.9453125 C205.87606941 813.40876376 207.2427793 811.9040576 208.640625 810.4296875 C226.37151115 791.83500502 226.37151115 791.83500502 238.5 769.6875 C239.16 769.6875 239.82 769.6875 240.5 769.6875 C241.57525194 767.03521188 242.59456151 764.40381546 243.5 761.6875 C244.16 761.6875 244.82 761.6875 245.5 761.6875 C245.77094482 760.9752124 246.04188965 760.2629248 246.32104492 759.52905273 C247.51552675 756.65007697 248.88482324 753.965925 250.36328125 751.22265625 C258.31510837 736.49324291 258.31510837 736.49324291 264.41015625 720.94921875 C265.42846828 717.90158238 266.63242483 714.99252847 267.92089844 712.05078125 C283.48272061 676.25688578 289.71743877 635.53250107 289.75 596.6875 C289.75067474 595.95239197 289.75134949 595.21728394 289.75204468 594.4598999 C289.62012638 502.79517272 250.38795492 419.28442002 186.75 354.75 C183.14837642 351.17938036 179.51279824 348.0008698 175.3828125 345.06640625 C173.38018671 343.59975292 171.54272936 342.02367549 169.6875 340.375 C146.36681878 319.79001408 119.20616392 303.00054467 90.66186523 290.62597656 C89.22776828 290.00342787 87.79997657 289.3661355 86.37915039 288.71386719 C80.0669914 285.82301942 73.59914617 283.45586661 67.0625 281.125 C65.99451172 280.73892578 64.92652344 280.35285156 63.82617188 279.95507812 C50.72931042 275.13070548 50.72931042 275.13070548 37.01953125 273.09375 C34.27741167 272.65160979 32.07866933 271.62738869 29.56030273 270.49414062 C25.39365091 268.86283151 20.99807938 268.07836526 16.625 267.1875 C15.06072266 266.86604004 15.06072266 266.86604004 13.46484375 266.53808594 C1.88864229 264.24566611 -9.75941609 262.82088369 -21.5 261.6875 C-22.59586426 261.57946045 -22.59586426 261.57946045 -23.71386719 261.46923828 C-28.30517767 261.03930185 -32.89199334 260.81386753 -37.5 260.6875 C-38.86125 260.64665283 -38.86125 260.64665283 -40.25 260.60498047 C-69.00793649 259.86842894 -97.39235538 262.5969565 -125.5 268.6875 C-126.32902832 268.85942871 -127.15805664 269.03135742 -128.01220703 269.20849609 C-152.18378599 274.28740825 -177.13317404 282.60783918 -199.2578125 293.57666016 C-201.63975799 294.75673986 -204.03736525 295.90038124 -206.4375 297.04296875 C-233.52856388 310.0912729 -259.86198828 326.92883566 -281.98828125 347.38671875 C-283.98927826 349.21966935 -286.01832804 350.98896829 -288.078125 352.75390625 C-293.06596902 357.10815141 -297.75645124 361.75788503 -302.43579102 366.43798828 C-303.92641615 367.92643237 -305.42487017 369.40667277 -306.92382812 370.88671875 C-313.23330721 377.1593836 -318.97077772 383.70517743 -324.5 390.6875 C-325.52417672 391.93100064 -326.55112091 393.17223232 -327.58203125 394.41015625 C-338.94788423 408.24013428 -348.52525972 423.22282914 -357.5 438.6875 C-358.04237305 439.60982422 -358.04237305 439.60982422 -358.59570312 440.55078125 C-390.72735531 495.29359608 -406.01329194 558.1389559 -405.8125 621.3125 C-405.81067719 622.50404694 -405.80885437 623.69559387 -405.80697632 624.92324829 C-405.76288549 642.03724112 -405.36593045 658.77963865 -402.5 675.6875 C-402.33371094 676.74614258 -402.16742188 677.80478516 -401.99609375 678.89550781 C-395.12927433 722.27091715 -380.83526455 764.30024834 -359.5 802.6875 C-359.07106445 803.46544922 -358.64212891 804.24339844 -358.20019531 805.04492188 C-348.67932053 822.2234313 -337.71057647 838.31356175 -325.5 853.6875 C-324.48873047 854.98880859 -324.48873047 854.98880859 -323.45703125 856.31640625 C-319.1558885 861.80229491 -314.58710982 866.98022227 -309.86328125 872.10546875 C-307.90435897 874.24571277 -306.004805 876.41588609 -304.125 878.625 C-297.57776369 886.14735662 -290.39303595 893.27823544 -282.79296875 899.734375 C-280.92099222 901.32890356 -279.07632179 902.94500642 -277.23828125 904.578125 C-251.62564084 927.23914829 -222.47547918 946.18817961 -191.5 960.6875 C-190.78054199 961.03055176 -190.06108398 961.37360352 -189.31982422 961.72705078 C-166.87641839 972.3918513 -143.58196153 980.60623684 -119.5 986.6875 C-118.56881348 986.92307617 -117.63762695 987.15865234 -116.67822266 987.40136719 C-106.19765002 990.00803081 -95.65507122 992.1165488 -85 993.875 C-84.07703125 994.0299292 -83.1540625 994.1848584 -82.203125 994.34448242 C-63.50841788 997.27670382 -44.77215173 998.09629121 -25.875 998.0625 C-24.77181427 998.06228851 -23.66862854 998.06207703 -22.53201294 998.06185913 C-2.62242947 998.0240542 16.8324551 996.75417548 36.5 993.6875 C37.67127441 993.50558105 38.84254883 993.32366211 40.04931641 993.13623047 C100.05406014 983.42613528 157.14623425 958.95040799 206.5 923.6875 C207.37688477 923.06149902 207.37688477 923.06149902 208.27148438 922.42285156 C215.7105149 917.07015952 222.68236159 911.23985236 229.62011719 905.26416016 C231.01922226 904.09072891 232.44023684 902.94332325 233.87207031 901.81005859 C241.17741703 896.00013739 247.80035796 889.69565803 254.37109375 883.07714844 C256.12281575 881.31469762 257.88499428 879.56321432 259.6484375 877.8125 C266.39139388 871.0774115 272.58743468 864.17096052 278.5 856.6875 C279.36300003 855.65962389 280.23140492 854.6362129 281.109375 853.62109375 C312.10998601 817.47257106 336.79192674 773.0800419 350.8762207 727.67163086 C352.39824919 722.83032927 354.0450424 718.02818902 355.67578125 713.22265625 C362.32141291 692.9203657 366.56181763 671.82472499 369.5 650.6875 C369.65098145 649.62837402 369.80196289 648.56924805 369.95751953 647.47802734 C374.32456903 615.54250572 374.5725914 581.67442834 370.5 549.6875 C370.37641113 548.63852539 370.25282227 547.58955078 370.12548828 546.50878906 C365.7699768 510.00696313 356.64248386 473.65823411 342.5 439.6875 C342.10087402 438.72602051 341.70174805 437.76454102 341.29052734 436.77392578 C326.35393213 401.13483318 307.20787283 367.27784495 282.765625 337.25878906 C281.50866795 335.69826137 280.28537054 334.11081752 279.0625 332.5234375 C274.62828847 326.64324269 274.62828847 326.64324269 268.6875 322.5 C265.34389499 320.59873441 265.07862143 320.29775639 263.6953125 317.01953125 C261.53583866 312.45482733 258.68281918 309.16584121 255.1875 305.5625 C254.57720947 304.9221582 253.96691895 304.28181641 253.33813477 303.62207031 C231.46171638 280.9122911 199.91517345 248.82589115 169.5 238.6875 C169.5 238.0275 169.5 237.3675 169.5 236.6875 C167.85 236.3575 166.2 236.0275 164.5 235.6875 C164.5 235.0275 164.5 234.3675 164.5 233.6875 C163.78118652 233.41292969 163.06237305 233.13835937 162.32177734 232.85546875 C159.55925165 231.712025 156.98377389 230.41574089 154.3515625 229 C137.62414542 220.09615081 120.53890585 211.01879016 102.29296875 205.6015625 C99.72980398 204.76270858 97.27456647 203.80461912 94.77734375 202.7890625 C49.87686408 184.65960707 -0.54434989 177.43852104 -48.6875 177.5 C-49.56572418 177.50060425 -50.44394836 177.5012085 -51.3487854 177.50183105 C-94.69497646 177.58237554 -137.01751964 184.06385933 -178.5 196.6875 C-179.47324219 196.98350098 -180.44648437 197.27950195 -181.44921875 197.58447266 C-219.79075853 209.42862989 -255.84183024 226.91665623 -289.5 248.6875 C-290.51707031 249.33847656 -291.53414063 249.98945313 -292.58203125 250.66015625 C-301.18629958 256.26963239 -309.37428211 262.41321151 -317.5 268.6875 C-318.23492676 269.25259277 -318.96985352 269.81768555 -319.72705078 270.39990234 C-321.9337322 272.10661376 -324.12517476 273.83107569 -326.3125 275.5625 C-326.98829102 276.08545654 -327.66408203 276.60841309 -328.36035156 277.1472168 C-331.43885177 279.61828403 -333.26047345 281.14637242 -334.88671875 284.8203125 C-336.73042725 288.09702446 -337.3063189 288.21846067 -340.66918945 289.4699707 C-345.56373584 291.5363602 -348.74596676 294.24712667 -352.40625 298.03515625 C-353.01585571 298.64709335 -353.62546143 299.25903046 -354.25354004 299.88951111 C-355.53320394 301.17885298 -356.80687333 302.47416998 -358.07470703 303.77514648 C-359.98321191 305.73277976 -361.9094638 307.67138027 -363.83984375 309.60742188 C-370.11945144 315.94504272 -376.09632808 322.36688812 -381.6484375 329.35668945 C-383.23405703 331.35272184 -384.85736888 333.28357712 -386.546875 335.19140625 C-439.43841824 394.94067761 -483.7162577 485.90303281 -485.26171875 566.4296875 C-485.5 569.6875 -485.5 569.6875 -486.4753418 572.00708008 C-487.63515593 575.04105657 -487.91070412 577.59388634 -488.1328125 580.83203125 C-488.21692383 582.04987305 -488.30103516 583.26771484 -488.38769531 584.52246094 C-488.46600586 585.83504883 -488.54431641 587.14763672 -488.625 588.5 C-488.68753967 589.51833923 -488.68753967 589.51833923 -488.75134277 590.55725098 C-490.24801377 615.33964029 -489.87138043 639.96115386 -487.5 664.6875 C-487.40879883 665.71375488 -487.31759766 666.74000977 -487.22363281 667.79736328 C-484.52917793 697.63017866 -478.26148449 727.06909459 -469.5 755.6875 C-469.15211426 756.82477539 -468.80422852 757.96205078 -468.44580078 759.13378906 C-453.45880291 807.40769801 -429.9974876 854.96412784 -398.87744141 894.91308594 C-397.54305767 896.6320333 -396.22763031 898.36373267 -394.91796875 900.1015625 C-386.34046323 911.44995265 -377.10621531 922.19940263 -367.5 932.6875 C-367.02916992 933.20344727 -366.55833984 933.71939453 -366.07324219 934.25097656 C-358.27349259 942.79308175 -350.47768629 951.22905228 -341.69140625 958.77734375 C-339.1254973 961.01393818 -336.6284357 963.31874067 -334.125 965.625 C-329.07947738 970.21621908 -323.87334217 974.48912865 -318.5 978.6875 C-317.27268995 979.67876265 -316.04619218 980.67103148 -314.8203125 981.6640625 C-294.44034912 998.02201348 -272.31578655 1011.99872046 -249.5 1024.6875 C-248.64341797 1025.16735352 -247.78683594 1025.64720703 -246.90429688 1026.14160156 C-177.0126812 1064.99742986 -95.1222884 1083.10020198 -15.5 1081.6875 C-14.63342773 1081.67493164 -13.76685547 1081.66236328 -12.87402344 1081.64941406 C49.75997277 1080.53703066 120.98825818 1067.6682889 175.97265625 1036.63671875 C180.46071847 1034.13505874 184.93368078 1032.38155847 189.78076172 1030.71142578 C194.44250675 1028.95605151 198.72263046 1026.5525517 203.0625 1024.125 C204.48477905 1023.33826904 204.48477905 1023.33826904 205.93579102 1022.53564453 C232.70268134 1007.61360185 258.01739949 990.38297648 281.5 970.6875 C282.10827637 970.17832031 282.71655273 969.66914062 283.34326172 969.14453125 C295.52510478 958.91244066 307.10320063 948.16375675 318.375 936.9375 C319.17188232 936.14529053 319.96876465 935.35308105 320.78979492 934.53686523 C325.56572458 929.74790986 330.10367576 924.8253403 334.5 919.6875 C335.44941532 918.6044986 336.39988413 917.52241955 337.3515625 916.44140625 C345.15207426 907.49871147 352.42410877 898.21136899 359.5 888.6875 C360.04833496 887.94951172 360.59666992 887.21152344 361.16162109 886.45117188 C376.39724692 866.02782053 376.39724692 866.02782053 388.5 843.6875 C389.16 843.6875 389.82 843.6875 390.5 843.6875 C390.75579834 843.00695557 391.01159668 842.32641113 391.27514648 841.62524414 C392.69961244 838.20874048 394.37520193 834.95568654 396.09765625 831.68359375 C396.82029148 830.29866144 397.54261011 828.91356391 398.26464844 827.52832031 C398.64036987 826.80890259 399.01609131 826.08948486 399.40319824 825.3482666 C408.36370873 808.16412661 416.86331001 790.92413526 423.5 772.6875 C424.17302636 770.88666241 424.84621979 769.08588726 425.51953125 767.28515625 C433.60440926 745.46545187 440.3527216 723.42156548 444.91455078 700.59277344 C445.52570707 697.55992949 446.16526051 694.53398397 446.80859375 691.5078125 C453.44094801 659.93076301 455.90400304 628.48318701 455.8125 596.25 C455.81027738 594.86525479 455.80810087 593.48050951 455.80596924 592.09576416 C455.76343976 572.15234758 455.43299197 552.45264956 452.5 532.6875 C452.39347107 531.96105286 452.28694214 531.23460571 452.17718506 530.48614502 C449.91868958 515.15316265 447.60139812 499.91688774 443.3894043 484.98364258 C442.53460208 481.8157357 441.86113624 478.66019811 441.25 475.4375 C431.66503227 429.9089033 412.27318593 384.47230659 388.5 344.6875 C388.03851562 343.89730469 387.57703125 343.10710937 387.1015625 342.29296875 C385.5963264 339.73928785 384.05379266 337.21199176 382.5 334.6875 C381.89744385 333.70402588 381.89744385 333.70402588 381.28271484 332.70068359 C370.74305869 315.55441649 359.11809362 299.35962327 346.5 283.6875 C345.71882813 282.71167969 344.93765625 281.73585938 344.1328125 280.73046875 C339.78115361 275.3473613 335.28050036 270.13855922 330.6171875 265.0234375 C328.70919797 262.91831252 326.84952931 260.78136366 325 258.625 C321.73750083 254.87161554 318.23338893 251.40210636 314.69140625 247.9140625 C312.67322719 245.86350623 310.79686983 243.75647169 308.9375 241.5625 C306.02445377 238.16506733 302.86790323 235.28366373 299.45703125 232.39453125 C297.60019075 230.77489193 295.89602508 229.08626709 294.1875 227.3125 C290.53278706 223.60003764 286.54550476 220.37833874 282.48828125 217.1171875 C279.98900864 215.08509918 277.5420524 213.00739514 275.10864258 210.89746094 C263.17529233 200.59404089 250.39606492 191.27862064 237.4375 182.3125 C236.77709717 181.85423828 236.11669434 181.39597656 235.4362793 180.92382812 C232.80653094 179.1296325 230.53661845 177.69970615 227.5 176.6875 C227.5 176.0275 227.5 175.3675 227.5 174.6875 C226.571875 174.5225 225.64375 174.3575 224.6875 174.1875 C221.02112685 173.15178845 218.51677535 171.34578076 215.5078125 169.03515625 C209.66039851 164.70147072 203.56257907 161.1203291 197.1875 157.625 C195.5470874 156.71657349 195.5470874 156.71657349 193.87353516 155.78979492 C183.92201556 150.30767535 173.94800717 145.16189684 163.5 140.6875 C161.47667908 139.73442991 159.45583178 138.77609066 157.4375 137.8125 C151.68801031 135.14215215 145.86656495 132.9649072 139.87890625 130.89453125 C136.81954024 129.8016479 133.85647228 128.59985864 130.875 127.3125 C115.18184323 120.69065211 98.97166294 115.93010418 82.5 111.6875 C81.76265625 111.49559082 81.0253125 111.30368164 80.265625 111.10595703 C70.42534025 108.55108987 60.52605081 106.27713055 50.58740234 104.14013672 C48.74974457 103.74165514 46.91557546 103.32715659 45.08203125 102.91015625 C36.4707387 101.04252539 27.78964688 99.81596773 19.0625 98.625 C17.89170898 98.46257812 16.72091797 98.30015625 15.51464844 98.1328125 C-6.29356165 95.25082503 -27.9495855 94.31170871 -49.9375 94.375 C-51.91466003 94.37773422 -51.91466003 94.37773422 -53.9317627 94.38052368 C-73.95191238 94.41893354 -93.64557845 94.95533712 -113.5 97.6875 C-114.83495595 97.8662482 -116.16991703 98.04495808 -117.50488281 98.22363281 C-136.04018657 100.74058263 -154.33088803 104.22381712 -172.5 108.6875 C-174.26561279 109.11820801 -174.26561279 109.11820801 -176.06689453 109.55761719 C-204.42699908 116.56525622 -231.74324786 125.96642688 -258.5 137.6875 C-260.15743891 138.3987013 -261.81498755 139.10964696 -263.47265625 139.8203125 C-303.69058004 157.2762756 -341.24627799 180.87841633 -375.4375 208.26171875 C-377.326635 209.75808716 -379.23932879 211.22587751 -381.1875 212.64453125 C-385.01526536 215.4335116 -387.7359958 217.71178196 -390.0625 221.875 C-392.15621371 225.59558585 -394.23854148 226.70096457 -398.17578125 228.42578125 C-407.51181796 233.49391546 -415.3618656 243.46516864 -422.8125 250.875 C-423.66038086 251.71804688 -424.50826172 252.56109375 -425.38183594 253.4296875 C-430.29491388 258.35630009 -434.97487399 263.40461416 -439.5 268.6875 C-440.52146421 269.84419351 -441.54486084 270.99918378 -442.5703125 272.15234375 C-450.09580402 280.68058353 -457.11697145 289.49979443 -463.93115234 298.60400391 C-465.42373886 300.58622198 -466.93619276 302.55113197 -468.45703125 304.51171875 C-488.07907215 329.95499797 -504.06875786 358.04465412 -518.5 386.6875 C-518.94907715 387.56567383 -519.3981543 388.44384766 -519.86083984 389.34863281 C-555.57715707 459.4782276 -572.77909937 540.44588073 -572.63037109 618.82568359 C-572.62500877 622.18201208 -572.63035001 625.53820679 -572.63671875 628.89453125 C-572.64381862 646.38570075 -571.83753506 663.57094724 -569.75 680.9375 C-569.66352203 681.66328247 -569.57704407 682.38906494 -569.48794556 683.13684082 C-561.81964005 746.96974049 -543.34019599 808.24181013 -514.5 865.6875 C-514.005 866.67476074 -513.51 867.66202148 -513 868.67919922 C-493.63159518 907.06924381 -469.22724495 942.2419829 -441.375 974.9375 C-440.94493652 975.44321533 -440.51487305 975.94893066 -440.07177734 976.4699707 C-430.9743925 987.04572235 -421.31759634 997.05644144 -411.45703125 1006.91577148 C-409.49709918 1008.87790408 -407.54534704 1010.84794057 -405.59375 1012.81835938 C-399.24054601 1019.19924224 -392.86972358 1025.304744 -385.78173828 1030.87329102 C-383.55458573 1032.64409891 -381.46074182 1034.50338507 -379.375 1036.4375 C-373.11251819 1042.07148901 -366.30294072 1047.02923992 -359.58642578 1052.10205078 C-357.69082269 1053.54249619 -355.80871555 1054.99788998 -353.93359375 1056.46484375 C-347.60794358 1061.4132329 -341.17656189 1066.1049392 -334.41796875 1070.453125 C-332.99905791 1071.36631405 -331.58278867 1072.28361055 -330.16796875 1073.203125 C-249.79650595 1125.40188991 -158.90879965 1156.78474574 87.15283203 1153.76513672 C167.2061808 1136.57640694 245.53044855 1104.21937335 310.5 1053.6875 C312.07890761 1052.48056561 313.65782373 1051.27364228 315.23706055 1050.06713867 C317.42998809 1048.3873869 319.61485096 1046.69736645 321.79833984 1045.00537109 C322.95643948 1044.10846696 324.115664 1043.21301383 325.27587891 1042.31884766 C332.16684038 1037.00392117 338.88087522 1031.60899758 345.29296875 1025.71484375 C347.22829285 1023.93708586 349.19403016 1022.21173748 351.1875 1020.5 C363.86974894 1009.43185547 376.57076663 997.83584077 387.4765625 984.98828125 C389.16512878 983.06827056 390.88706783 981.20783738 392.6484375 979.35546875 C399.94098867 971.68498686 406.7181921 963.85218775 413.13916016 955.44238281 C414.51773056 953.66463541 415.92902682 951.91920376 417.35546875 950.1796875 C428.44032776 936.65037098 438.24681858 922.25651076 447.8125 907.625 C448.36993896 906.77397705 448.92737793 905.9229541 449.50170898 905.04614258 C450.01290283 904.25618896 450.52409668 903.46623535 451.05078125 902.65234375 C451.72620972 901.61001587 451.72620972 901.61001587 452.4152832 900.54663086 C453.65216093 898.57260231 453.65216093 898.57260231 454.5 895.6875 C455.16 895.6875 455.82 895.6875 456.5 895.6875 C456.83 894.0375 457.16 892.3875 457.5 890.6875 C458.16 890.6875 458.82 890.6875 459.5 890.6875 C459.83 889.0375 460.16 887.3875 460.5 885.6875 C461.16 885.6875 461.82 885.6875 462.5 885.6875 C462.72816406 884.88183594 462.95632813 884.07617188 463.19140625 883.24609375 C464.83059429 878.7884809 467.07467698 874.85851622 469.4375 870.75 C472.45132224 865.49006861 475.22997409 860.31386785 477.5 854.6875 C478.16 854.6875 478.82 854.6875 479.5 854.6875 C479.76941406 853.83027344 480.03882813 852.97304688 480.31640625 852.08984375 C481.50017727 848.68699043 482.90075836 845.50726664 484.4375 842.25 C486.25188662 838.39384839 488.01571651 834.52899927 489.68041992 830.60571289 C490.59808747 828.45792798 491.53870584 826.32092009 492.48046875 824.18359375 C497.65037835 812.37234776 502.28650164 800.44580203 506.57446289 788.2878418 C507.55540623 785.53183348 508.56628536 782.78776989 509.578125 780.04296875 C511.19300501 775.60898416 512.64109695 771.1612863 513.9375 766.625 C514.14648926 765.90078857 514.35547852 765.17657715 514.57080078 764.43041992 C515.00504603 762.92064516 515.43734134 761.41030818 515.86767578 759.89941406 C516.46410885 757.81304972 517.07277124 755.73062515 517.68359375 753.6484375 C540.34647909 675.44091446 544.83555958 593.17041507 466.48699951 312.82104492 C449.62709891 282.22958426 429.32510416 253.88722165 407.5 226.6875 C406.72011719 225.71039063 405.94023438 224.73328125 405.13671875 223.7265625 C400.38741174 217.84465522 395.42334784 212.2358389 390.2734375 206.70703125 C388.22511695 204.50153632 386.24767482 202.24530832 384.28271484 199.96533203 C380.73157364 195.90141691 377.01495719 192.04122884 373.203125 188.22265625 C372.5288446 187.54504745 371.85456421 186.86743866 371.15985107 186.16929626 C369.74263926 184.74705939 368.32410433 183.32613981 366.90429688 181.90649414 C364.76402078 179.76403508 362.63188019 177.6137001 360.5 175.46289062 C353.84926163 168.78545606 347.22211588 162.31497899 339.78662109 156.5065918 C337.37316905 154.58660128 335.12561129 152.54489749 332.875 150.4375 C326.45078238 144.5852318 319.47483172 139.45765257 312.53955078 134.23486328 C310.74025617 132.86977718 308.957389 131.48779325 307.18359375 130.08984375 C276.36201125 105.27055373 276.36201125 105.27055373 241.5 87.6875 C241.5 87.0275 241.5 86.3675 241.5 85.6875 C240.63157471 85.4188916 239.76314941 85.1502832 238.8684082 84.87353516 C235.58569256 83.71767283 232.67818706 82.33830224 229.60546875 80.7109375 C228.49300781 80.12618652 227.38054688 79.54143555 226.234375 78.93896484 C225.65494141 78.63222839 225.07550781 78.32549194 224.47851562 78.00946045 C221.45440947 76.41053027 218.42098167 74.82955114 215.38671875 73.25 C214.78959076 72.93912445 214.19246277 72.6282489 213.57723999 72.30795288 C203.68605103 67.17352615 193.70756185 62.13455844 183.08984375 58.671875 C180.89392081 57.83722556 178.92202475 56.90588517 176.83984375 55.83203125 C120.09570272 27.0073028 48.34279248 15.23003041 -14.5 11.6875 C-15.49209473 11.63110352 -16.48418945 11.57470703 -17.50634766 11.51660156 C-96.97575764 7.20855656 -176.27822877 18.66146812 -251.18896484 45.50439453 C-254.23109049 46.59141273 -257.27977245 47.65669225 -260.33203125 48.71484375 C-288.73482077 58.65809716 -316.31533592 71.82919335 -342.75 86.1875 C-343.61197998 86.65534912 -344.47395996 87.12319824 -345.36206055 87.60522461 C-350.22790976 90.29562831 -354.85943443 93.2118514 -359.45849609 96.33447266 C-362.11749226 98.09674923 -364.88089473 99.61095809 -367.6875 101.125 C-378.08621634 106.90891878 -387.75193093 113.88713286 -397.5 120.6875 C-398.20253906 121.17573242 -398.90507812 121.66396484 -399.62890625 122.16699219 C-408.5099584 128.35363888 -417.05708487 134.9193781 -425.5 141.6875 C-426.15291016 142.20747559 -426.80582031 142.72745117 -427.47851562 143.26318359 C-435.55167237 149.69732697 -443.4042602 156.2638257 -450.94140625 163.3203125 C-453.07658048 165.29575614 -455.24777701 167.16203367 -457.5 169 C-459.74716112 170.87621826 -460.76351868 172.10912989 -462.375 174.6875 C-464.44953186 177.61625085 -465.62720302 178.5441083 -468.59375 180.3515625 C-473.73746025 183.69275838 -477.8642946 187.67693877 -482.125 192.0625 C-483.19234375 193.13757813 -483.19234375 193.13757813 -484.28125 194.234375 C-488.3148486 198.32707395 -492.17708104 202.5299423 -495.93212891 206.87890625 C-498.03006396 209.29894718 -500.20181007 211.64754019 -502.375 214 C-506.41402153 218.43381311 -510.27506878 222.96804584 -514.0390625 227.63671875 C-515.83280236 229.86038674 -517.63872383 232.06948478 -519.4609375 234.26953125 C-532.48013258 250.03940138 -544.39837107 266.51771702 -555.5 283.6875 C-556.24612549 284.83968018 -556.24612549 284.83968018 -557.00732422 286.01513672 C-564.54340438 297.69569784 -571.69080073 309.56943351 -578.5 321.6875 C-579.00112305 322.57469727 -579.50224609 323.46189453 -580.01855469 324.37597656 C-618.91215136 393.56053637 -642.87211445 470.90556896 -652.25 549.60992432 C-652.49020036 551.60606205 -652.7428835 553.60068567 -652.99609375 555.59521484 C-655.62324522 577.01681251 -655.81137273 598.49669744 -655.86791611 620.05002594 C-655.87484608 622.26334192 -655.88649354 624.47659014 -655.89907837 626.68988037 C-656.30419532 709.28012638 -638.32155377 791.99033702 -605.5 867.6875 C-604.87617432 869.13237793 -604.87617432 869.13237793 -604.23974609 870.60644531 C-602.10500897 875.51982853 -599.90567393 880.3986823 -597.63769531 885.25195312 C-596.84021139 886.9591848 -596.04836943 888.669058 -595.26074219 890.38085938 C-588.40616078 905.26421043 -580.74756059 919.53343536 -572.5 933.6875 C-571.58958799 935.26417526 -570.679417 936.84098973 -569.76953125 938.41796875 C-553.36512805 966.71525096 -534.43701569 993.56845136 -513.5 1018.6875 C-513.01934082 1019.26725586 -512.53868164 1019.84701172 -512.04345703 1020.44433594 C-506.28117329 1027.38612753 -500.34746279 1034.13217574 -494.203125 1040.73828125 C-492.80501386 1042.24451367 -491.4368132 1043.76179122 -490.10522461 1045.32739258 C-484.56271724 1051.84345492 -478.50334847 1057.83503421 -472.44848633 1063.86938477 C-470.56671726 1065.74579475 -468.69035262 1067.62748969 -466.81445312 1069.50976562 C-461.39143781 1074.9357458 -455.98356076 1080.31973414 -450.13549805 1085.29272461 C-447.6370562 1087.42343043 -445.26775665 1089.68954995 -442.875 1091.9375 C-436.91516137 1097.4650337 -430.5915112 1102.45114344 -424.15429688 1107.40625 C-420.22794979 1110.44719886 -416.37210223 1113.57808458 -412.5 1116.6875 C-414.48 1119.6575 -416.46 1122.6275 -418.5 1125.6875 C-424.12200634 1123.43869746 -424.12200634 1123.43869746 -426.6640625 1121.18359375 C-427.50251709 1120.45064087 -427.50251709 1120.45064087 -428.35791016 1119.70288086 C-429.23261963 1118.92182983 -429.23261963 1118.92182983 -430.125 1118.125 C-431.37404729 1117.03016214 -432.62405715 1115.93642152 -433.875 1114.84375 C-434.48988281 1114.30492187 -435.10476563 1113.76609375 -435.73828125 1113.2109375 C-438.15323069 1111.12262202 -440.63495683 1109.12282533 -443.125 1107.125 C-448.09655763 1103.09064322 -452.79777522 1098.82271916 -457.48046875 1094.4609375 C-459.688758 1092.40987565 -461.94827341 1090.43037839 -464.23144531 1088.46313477 C-468.24691571 1084.95445519 -472.05305045 1081.27965215 -475.81640625 1077.50390625 C-476.47656235 1076.84470688 -477.13671844 1076.18550751 -477.81687927 1075.5063324 C-479.20035506 1074.12353165 -480.58259083 1072.73948924 -481.96362305 1071.35424805 C-484.05731669 1069.25519657 -486.15629874 1067.1615406 -488.25585938 1065.06835938 C-489.60969571 1063.71386214 -490.96322175 1062.35905469 -492.31640625 1061.00390625 C-492.93326797 1060.38906876 -493.5501297 1059.77423126 -494.1856842 1059.14076233 C-497.9431644 1055.36335226 -501.51273245 1051.4667348 -504.99317932 1047.43243408 C-506.91317364 1045.20903512 -508.8929561 1043.04309783 -510.875 1040.875 C-514.71806298 1036.61139983 -518.39322734 1032.24197727 -522 1027.77734375 C-523.82003572 1025.52789335 -525.65218882 1023.29276208 -527.5 1021.06640625 C-535.0013096 1011.99351343 -542.03659028 1002.6660359 -548.82763672 993.05126953 C-550.53319115 990.64058661 -552.25234932 988.24001521 -553.97265625 985.83984375 C-566.45097436 968.33628146 -577.53690854 950.06373 -588.02929688 931.31152344 C-588.99679569 929.58531539 -589.96932089 927.86191325 -590.94726562 926.14160156 C-630.38827454 856.73289779 -653.5213229 779.01142443 -668.8125 623.8125 C-668.81076279 622.02561768 -668.81076279 622.02561768 -668.80899048 620.20263672 C-668.77690721 603.32992122 -668.30854614 586.52348327 -667.1875 569.6875 C-667.12873688 568.77631409 -667.06997375 567.86512817 -667.00942993 566.92633057 C-666.34199571 556.9002954 -665.20687981 547.17452355 -663.21606445 537.32470703 C-662.36171446 532.98508679 -661.75590162 528.63867352 -661.17016602 524.25634766 C-659.12433051 509.00946435 -655.89006424 494.15346668 -652.33300781 479.20605469 C-651.58585244 476.05013344 -650.86124349 472.89038273 -650.1484375 469.7265625 C-647.87735308 459.7395566 -645.16034858 450.00340606 -641.9765625 440.26953125 C-640.50141466 435.75080915 -639.18158256 431.1947408 -637.875 426.625 C-636.35113916 421.34588919 -634.67324461 416.21053734 -632.51660156 411.15283203 C-631.50956502 408.71069587 -630.61118603 406.25196531 -629.73046875 403.76171875 C-627.30445335 397.05229612 -624.6082754 390.46421688 -621.875 383.875 C-621.6153244 383.24798187 -621.3556488 382.62096375 -621.08810425 381.97494507 C-613.15790995 362.85267325 -604.63982624 344.09739985 -594.6875 325.9375 C-594.16631592 324.98319092 -593.64513184 324.02888184 -593.1081543 323.0456543 C-589.46881395 316.40109683 -585.7464492 309.81133745 -581.92578125 303.26953125 C-580.4006838 300.69248361 -580.4006838 300.69248361 -579.5 297.6875 C-578.84 297.6875 -578.18 297.6875 -577.5 297.6875 C-577.12875 296.12515625 -577.12875 296.12515625 -576.75 294.53125 C-575.67397331 290.78396826 -573.95763941 288.2419947 -571.5 285.1875 C-567.98135054 280.67236902 -564.70016746 276.09929583 -561.5625 271.3125 C-554.09604393 259.98258702 -546.15520654 249.04793322 -537.80175781 238.35693359 C-536.44245905 236.61370686 -535.09208443 234.8637958 -533.7421875 233.11328125 C-528.26125797 226.03513955 -522.56185823 219.28150609 -516.5 212.6875 C-515.32865335 211.3582762 -514.16175407 210.02511593 -513 208.6875 C-483.89035588 175.33408088 -483.89035588 175.33408088 -467.64453125 161.55078125 C-465.33819329 159.54691384 -463.1077611 157.47496281 -460.87573242 155.38916016 C-455.5582604 150.42311036 -450.16339123 145.63673357 -444.484375 141.08203125 C-442.26972458 139.30509315 -440.07507619 137.51254198 -437.890625 135.69921875 C-424.18750342 124.36315649 -409.77712262 114.12458233 -395.04370117 104.17578125 C-389.19874721 100.21923625 -383.38812163 96.20534963 -378.0625 91.5625 C-375.80716064 89.91225169 -374.02517407 88.99362409 -371.48046875 87.93359375 C-366.17587705 85.61758679 -361.25000577 82.77920027 -356.25 79.875 C-322.32459926 60.49222488 -287.29869842 44.75151123 -250.5 31.6875 C-249.39317871 31.29191895 -248.28635742 30.89633789 -247.14599609 30.48876953 C-218.91563862 20.47417829 -189.99281849 13.41975426 -160.55493164 8.06317139 C-158.59218766 7.70435324 -156.6310089 7.3370046 -154.66992188 6.96923828 C-103.53538229 -2.52195011 -51.78795536 -3.00327841 0 0 Z " fill="#FF0100" transform="translate(787.5,141.3125)"/>
<path d="M0 0 C0.33 0 0.66 0 1 0 C1 239.58 1 479.16 1 726 C-238.58 726 -478.16 726 -725 726 C-725 725.67 -725 725.34 -725 725 C-724.44243515 724.97129822 -723.8848703 724.94259644 -723.31040955 724.9130249 C-696.72572389 723.53385727 -670.3239559 722.11042912 -644 718 C-642.50234969 717.77134409 -641.00462481 717.54317621 -639.50683594 717.31542969 C-620.55818059 714.42260335 -601.69452407 711.26764529 -583 707 C-581.97519531 706.76812988 -580.95039062 706.53625977 -579.89453125 706.29736328 C-567.42686879 703.45569295 -555.12468265 700.28785471 -542.91015625 696.50390625 C-537.69474582 694.88953742 -532.44320208 693.41423057 -527.1875 691.9375 C-516.24703647 688.83919125 -505.50269106 685.44363921 -494.95239258 681.18261719 C-491.5386753 679.81521071 -488.11190502 678.48257399 -484.68359375 677.15234375 C-440.48175455 659.96400275 -397.28835289 640.15843664 -357 615 C-356.10055664 614.43925781 -355.20111328 613.87851563 -354.27441406 613.30078125 C-326.18595136 595.73216047 -299.46424318 576.48451983 -273.83349609 555.49707031 C-272.20305961 554.16580047 -270.56495181 552.84393831 -268.92578125 551.5234375 C-263.28792707 546.9713327 -257.87664833 542.23300382 -252.54296875 537.328125 C-250.42932946 535.39305738 -248.29340152 533.49791703 -246.125 531.625 C-235.8477457 522.6696013 -226.06003313 513.22422854 -216.44091797 503.57128906 C-214.60889005 501.7338424 -212.77149395 499.9018835 -210.93359375 498.0703125 C-205.07384011 492.21386744 -199.36642769 486.31734428 -194 480 C-192.38032183 478.22429779 -190.75588282 476.45291693 -189.125 474.6875 C-185.03119791 470.19851943 -181.14530333 465.58756524 -177.33203125 460.859375 C-175.295441 458.36224927 -173.21728235 455.90827746 -171.11572266 453.46582031 C-164.66212208 445.94854084 -158.62039834 438.14949471 -152.67382812 430.22705078 C-151.58015313 428.77190153 -150.48265315 427.31961713 -149.38085938 425.87060547 C-110.62413659 374.89403327 -79.21849378 318.19414914 -55.125 258.9375 C-54.65513672 257.78411133 -54.65513672 257.78411133 -54.17578125 256.60742188 C-50.31827546 247.11014497 -46.70346591 237.55805747 -43.35498047 227.86938477 C-41.67500586 223.02268312 -39.86489097 218.226924 -38.0078125 213.4453125 C-34.98451188 205.49911528 -32.80962224 197.35220322 -30.58935547 189.15576172 C-29.77551365 186.17886725 -28.92018389 183.21452565 -28.0625 180.25 C-27.74023438 179.11691406 -27.41796875 177.98382812 -27.0859375 176.81640625 C-26.51385009 174.80586884 -25.94053373 172.79565803 -25.35644531 170.78857422 C-9.18077489 115.04068893 -3.13974653 57.74045503 0 0 Z " fill="#FFFEFE" transform="translate(1499,774)"/>
<path d="M0 0 C239.58 0 479.16 0 726 0 C726 238.26 726 476.52 726 722 C725.67 722 725.34 722 725 722 C724.93268677 720.69071533 724.93268677 720.69071533 724.86401367 719.35498047 C723.44680774 692.33452861 721.50213012 665.50824031 716.9609375 638.80078125 C716.19215799 634.26678045 715.54768132 629.72966654 714.95776367 625.16943359 C713.33409381 612.75425582 710.63549974 600.63862819 707.79833984 588.45068359 C707.01158906 585.05009169 706.24687104 581.64525496 705.48828125 578.23828125 C702.45062352 564.67153936 699.03691331 551.30243345 695 538 C694.6277832 536.75669922 694.25556641 535.51339844 693.87207031 534.23242188 C668.79323997 450.61701689 628.88311591 372.17973005 555.49707031 274.83349609 C554.16580047 273.20305961 552.84393831 271.56495181 551.5234375 269.92578125 C546.9713327 264.28792707 542.23300382 258.87664833 537.328125 253.54296875 C535.39305738 251.42932946 533.49791703 249.29340152 531.625 247.125 C522.6696013 236.8477457 513.22422854 227.06003313 503.57128906 217.44091797 C501.7338424 215.60889005 499.9018835 213.77149395 498.0703125 211.93359375 C492.21386744 206.07384011 486.31734428 200.36642769 480 195 C478.22429779 193.38032183 476.45291693 191.75588282 474.6875 190.125 C470.19851943 186.03119791 465.58756524 182.14530333 460.859375 178.33203125 C458.36224927 176.295441 455.90827746 174.21728235 453.46582031 172.11572266 C445.94854084 165.66212208 438.14949471 159.62039834 430.22705078 153.67382812 C428.77190153 152.58015313 427.31961713 151.48265315 425.87060547 150.38085938 C374.89403327 111.62413659 318.19414914 80.21849378 258.9375 56.125 C257.78411133 55.65513672 257.78411133 55.65513672 256.60742188 55.17578125 C247.11014497 51.31827546 237.55805747 47.70346591 227.86938477 44.35498047 C223.02268312 42.67500586 218.226924 40.86489097 213.4453125 39.0078125 C205.49911528 35.98451188 197.35220322 33.80962224 189.15576172 31.58935547 C186.17886725 30.77551365 183.21452565 29.92018389 180.25 29.0625 C177.83359697 28.37407396 175.41690106 27.68667555 173 27 C172.24364258 26.78230957 171.48728516 26.56461914 170.70800781 26.34033203 C144.75431448 18.89945616 118.38525649 14.01579323 91.77880859 9.62524414 C89.41113234 9.23348688 87.04414675 8.83750635 84.67822266 8.43530273 C56.66752257 3.67703165 28.32807213 2.54039254 0 1 C0 0.67 0 0.34 0 0 Z " fill="#FFFEFE" transform="translate(774,0)"/>
<path d="M0 0 C0.33 0 0.66 0 1 0 C1.02870178 0.55756485 1.05740356 1.1151297 1.0869751 1.68959045 C2.46614273 28.27427611 3.88957088 54.6760441 8 81 C8.22865591 82.49765031 8.45682379 83.99537519 8.68457031 85.49316406 C11.57739665 104.44181941 14.73235471 123.30547593 19 142 C19.23187012 143.02480469 19.46374023 144.04960938 19.70263672 145.10546875 C22.54430705 157.57313121 25.71214529 169.87531735 29.49609375 182.08984375 C31.11046258 187.30525418 32.58576943 192.55679792 34.0625 197.8125 C37.16080875 208.75296353 40.55636079 219.49730894 44.81738281 230.04760742 C46.18478929 233.4613247 47.51742601 236.88809498 48.84765625 240.31640625 C66.03599725 284.51824545 85.84156336 327.71164711 111 368 C111.56074219 368.89944336 112.12148437 369.79888672 112.69921875 370.72558594 C130.26783953 398.81404864 149.51548017 425.53575682 170.50292969 451.16650391 C171.83419953 452.79694039 173.15606169 454.43504819 174.4765625 456.07421875 C179.0286673 461.71207293 183.76699618 467.12335167 188.671875 472.45703125 C190.60694262 474.57067054 192.50208297 476.70659848 194.375 478.875 C203.3303987 489.1522543 212.77577146 498.93996687 222.42871094 508.55908203 C224.2661576 510.39110995 226.0981165 512.22850605 227.9296875 514.06640625 C233.78613256 519.92615989 239.68265572 525.63357231 246 531 C247.77570221 532.61967817 249.54708307 534.24411718 251.3125 535.875 C255.80148057 539.96880209 260.41243476 543.85469667 265.140625 547.66796875 C267.63775073 549.704559 270.09172254 551.78271765 272.53417969 553.88427734 C280.05145916 560.33787792 287.85050529 566.37960166 295.77294922 572.32617188 C297.22809847 573.41984687 298.68038287 574.51734685 300.12939453 575.61914062 C370.56526778 629.17047795 452.07438669 669.96692483 634.27978516 716.60742188 C636.90188136 716.98583964 639.51923452 717.38790883 642.13671875 717.796875 C668.61106135 721.86315376 695.27635974 723.62607831 722 725 C722 725.33 722 725.66 722 726 C483.74 726 245.48 726 0 726 C0 486.42 0 246.84 0 0 Z " fill="#FFFEFE" transform="translate(0,774)"/>
<path d="M0 0 C238.26 0 476.52 0 722 0 C722 0.33 722 0.66 722 1 C720.69071533 1.06731323 720.69071533 1.06731323 719.35498047 1.13598633 C692.33452861 2.55319226 665.50824031 4.49786988 638.80078125 9.0390625 C634.26678045 9.80784201 629.72966654 10.45231868 625.16943359 11.04223633 C612.75425582 12.66590619 600.63862819 15.36450026 588.45068359 18.20166016 C585.05009169 18.98841094 581.64525496 19.75312896 578.23828125 20.51171875 C564.67153936 23.54937648 551.30243345 26.96308669 538 31 C536.13504883 31.5583252 536.13504883 31.5583252 534.23242188 32.12792969 C450.61701689 57.20676003 372.17973005 97.11688409 274.83349609 170.50292969 C273.20305961 171.83419953 271.56495181 173.15606169 269.92578125 174.4765625 C264.28792707 179.0286673 258.87664833 183.76699618 253.54296875 188.671875 C251.42932946 190.60694262 249.29340152 192.50208297 247.125 194.375 C236.8477457 203.3303987 227.06003313 212.77577146 217.44091797 222.42871094 C215.60889005 224.2661576 213.77149395 226.0981165 211.93359375 227.9296875 C206.07384011 233.78613256 200.36642769 239.68265572 195 246 C193.38032183 247.77570221 191.75588282 249.54708307 190.125 251.3125 C186.03119791 255.80148057 182.14530333 260.41243476 178.33203125 265.140625 C176.295441 267.63775073 174.21728235 270.09172254 172.11572266 272.53417969 C165.66212208 280.05145916 159.62039834 287.85050529 153.67382812 295.77294922 C152.58015313 297.22809847 151.48265315 298.68038287 150.38085938 300.12939453 C96.82952205 370.56526778 56.03307517 452.07438669 9.39257812 634.27978516 C9.01416036 636.90188136 8.61209117 639.51923452 8.203125 642.13671875 C4.13684624 668.61106135 2.37392169 695.27635974 1 722 C0.67 722 0.34 722 0 722 C0 483.74 0 245.48 0 0 Z " fill="#FFFEFE" transform="translate(0,0)"/>
</svg>
