<svg width="29" height="29" viewBox="0 0 29 29" fill="none" xmlns="http://www.w3.org/2000/svg">
<rect width="29" height="29" rx="4" fill="#1A1A1A"/>
<path d="M20.6665 13.2583C19.7248 13.2583 18.8832 13.7167 18.3582 14.4167C17.8332 13.7167 16.9915 13.2583 16.0498 13.2583C14.4582 13.2583 13.1665 14.5583 13.1665 16.1583C13.1665 16.775 13.2665 17.35 13.4332 17.875C14.2498 20.4667 16.7832 22.025 18.0332 22.45C18.2082 22.5083 18.4998 22.5083 18.6748 22.45C19.9248 22.025 22.4582 20.475 23.2748 17.875C23.4498 17.3417 23.5415 16.775 23.5415 16.1583C23.5498 14.5583 22.2582 13.2583 20.6665 13.2583Z" fill="white"/>
<path d="M22.2915 11.95C22.2915 12.1417 22.0998 12.2667 21.9165 12.2167C20.7915 11.925 19.5582 12.1667 18.6248 12.8333C18.4415 12.9667 18.1915 12.9667 18.0165 12.8333C17.3582 12.35 16.5582 12.0833 15.7165 12.0833C13.5665 12.0833 11.8165 13.8417 11.8165 16.0083C11.8165 18.3583 12.9415 20.1167 14.0748 21.2917C14.1332 21.35 14.0832 21.45 14.0082 21.4167C11.7332 20.6417 6.6665 17.425 6.6665 11.95C6.6665 9.53334 8.60817 7.58334 11.0082 7.58334C12.4332 7.58334 13.6915 8.26667 14.4832 9.325C15.2832 8.26667 16.5415 7.58334 17.9582 7.58334C20.3498 7.58334 22.2915 9.53334 22.2915 11.95Z" fill="white"/>
</svg>
