<svg width="29" height="29" viewBox="0 0 29 29" fill="none" xmlns="http://www.w3.org/2000/svg">
<rect width="29" height="29" rx="4" fill="#1A1A1A"/>
<g clip-path="url(#clip0_380_841)">
<path d="M11.3582 7.975C11.5077 7.89346 11.6665 8.0189 11.6665 8.18918V19.4666C11.6665 19.6639 11.5314 19.8305 11.3582 19.925V19.925L9.39987 21.0417C8.0332 21.825 6.9082 21.175 6.9082 19.5917V11.4833C6.9082 10.9583 7.2832 10.3083 7.74987 10.0417L11.3582 7.975V7.975Z" fill="white"/>
<path d="M17.2219 10.0623C17.3922 10.1466 17.5 10.3203 17.5 10.5103V21.2869C17.5 21.6554 17.115 21.8973 16.783 21.7374L13.408 20.1113C13.235 20.028 13.125 19.8529 13.125 19.6609V8.83891C13.125 8.46805 13.5146 8.22626 13.8469 8.39084L17.2219 10.0623Z" fill="white"/>
<path d="M23.3335 10.4083V18.5167C23.3335 19.0417 22.9585 19.6917 22.4918 19.9583L19.7071 21.5543C19.3738 21.7453 18.9585 21.5047 18.9585 21.1205V10.3237C18.9585 10.1441 19.0547 9.97841 19.2106 9.88942L20.8418 8.95834C22.2085 8.175 23.3335 8.825 23.3335 10.4083Z" fill="white"/>
</g>
<defs>
<clipPath id="clip0_380_841">
<rect width="20" height="20" fill="white" transform="translate(5 5)"/>
</clipPath>
</defs>
</svg>
