<svg width="18" height="18" viewBox="0 0 18 18" fill="none" xmlns="http://www.w3.org/2000/svg">
<path opacity="0.4" d="M13.8825 1.35C13.5075 1.35 13.2075 1.65 13.2075 2.025V5.5125C13.2075 5.8875 13.5075 6.1875 13.8825 6.1875C14.2575 6.1875 14.5575 5.8875 14.5575 5.5125V2.025C14.5575 1.65 14.2575 1.35 13.8825 1.35Z" fill="white"/>
<path d="M9.00019 11.8125C8.62519 11.8125 8.3252 12.1125 8.3252 12.4875V15.975C8.3252 16.35 8.62519 16.65 9.00019 16.65C9.37519 16.65 9.67519 16.35 9.67519 15.975V12.4875C9.67519 12.12 9.37519 11.8125 9.00019 11.8125Z" fill="white"/>
<path opacity="0.4" d="M4.11738 1.35C3.74238 1.35 3.44238 1.65 3.44238 2.025V5.5125C3.44238 5.8875 3.74238 6.1875 4.11738 6.1875C4.49238 6.1875 4.79238 5.8875 4.79238 5.5125V2.025C4.79238 1.65 4.48488 1.35 4.11738 1.35Z" fill="white"/>
<path opacity="0.4" d="M5.51236 7.6275H2.72236C2.34736 7.6275 2.04736 7.9275 2.04736 8.3025C2.04736 8.6775 2.34736 8.9775 2.72236 8.9775H3.44236V15.975C3.44236 16.35 3.74236 16.65 4.11736 16.65C4.49236 16.65 4.79236 16.35 4.79236 15.975V8.9775H5.51236C5.88736 8.9775 6.18736 8.6775 6.18736 8.3025C6.18736 7.9275 5.87986 7.6275 5.51236 7.6275Z" fill="white"/>
<path opacity="0.4" d="M15.2775 7.6275H12.4875C12.1125 7.6275 11.8125 7.9275 11.8125 8.3025C11.8125 8.6775 12.1125 8.9775 12.4875 8.9775H13.2075V15.975C13.2075 16.35 13.5075 16.65 13.8825 16.65C14.2575 16.65 14.5575 16.35 14.5575 15.975V8.9775H15.2775C15.6525 8.9775 15.9525 8.6775 15.9525 8.3025C15.9525 7.9275 15.6525 7.6275 15.2775 7.6275Z" fill="white"/>
<path d="M10.3952 9.0225H9.67518V2.025C9.67518 1.65 9.37518 1.35 9.00018 1.35C8.62518 1.35 8.32518 1.65 8.32518 2.025V9.0225H7.60518C7.23018 9.0225 6.93018 9.3225 6.93018 9.6975C6.93018 10.0725 7.23018 10.3725 7.60518 10.3725H10.3952C10.7702 10.3725 11.0702 10.0725 11.0702 9.6975C11.0702 9.3225 10.7702 9.0225 10.3952 9.0225Z" fill="white"/>
</svg>
