<svg width="527" height="31" viewBox="0 0 527 31" fill="none" xmlns="http://www.w3.org/2000/svg">
<rect width="527" height="31" rx="10" fill="#1A1A1A"/>
<path d="M176.199 21V10.0909H180.087C180.932 10.0909 181.634 10.2365 182.191 10.5277C182.752 10.8189 183.171 11.2219 183.448 11.7369C183.725 12.2482 183.864 12.8395 183.864 13.5107C183.864 14.1783 183.723 14.766 183.443 15.2738C183.166 15.7781 182.747 16.1705 182.186 16.451C181.628 16.7315 180.927 16.8718 180.082 16.8718H177.136V15.4549H179.933C180.465 15.4549 180.898 15.3786 181.232 15.2259C181.57 15.0732 181.816 14.8512 181.973 14.56C182.129 14.2688 182.207 13.919 182.207 13.5107C182.207 13.0987 182.127 12.7418 181.967 12.44C181.811 12.1381 181.564 11.9073 181.227 11.7475C180.893 11.5842 180.455 11.5025 179.911 11.5025H177.844V21H176.199ZM181.584 16.0781L184.279 21H182.404L179.762 16.0781H181.584ZM189.162 21.1651C188.356 21.1651 187.662 20.9929 187.08 20.6484C186.501 20.3004 186.053 19.8121 185.737 19.1836C185.425 18.5515 185.269 17.8111 185.269 16.9624C185.269 16.1243 185.425 15.3857 185.737 14.7464C186.053 14.1072 186.494 13.6083 187.058 13.2496C187.627 12.891 188.291 12.7116 189.051 12.7116C189.512 12.7116 189.96 12.788 190.393 12.9407C190.826 13.0934 191.215 13.3331 191.559 13.6598C191.904 13.9865 192.176 14.4109 192.374 14.9329C192.573 15.4513 192.673 16.0817 192.673 16.8239V17.3885H186.169V16.1953H191.112C191.112 15.7763 191.027 15.4052 190.856 15.082C190.686 14.7553 190.446 14.4979 190.137 14.3097C189.832 14.1214 189.473 14.0273 189.061 14.0273C188.614 14.0273 188.223 14.1374 187.889 14.3576C187.559 14.5742 187.303 14.8583 187.122 15.2099C186.945 15.5579 186.856 15.9361 186.856 16.3445V17.2766C186.856 17.8235 186.952 18.2887 187.144 18.6722C187.339 19.0558 187.611 19.3487 187.959 19.5511C188.307 19.75 188.713 19.8494 189.178 19.8494C189.48 19.8494 189.755 19.8068 190.004 19.7216C190.253 19.6328 190.467 19.5014 190.649 19.3274C190.83 19.1534 190.968 18.9386 191.064 18.6829L192.571 18.9545C192.451 19.3984 192.234 19.7873 191.922 20.1211C191.613 20.4513 191.224 20.7088 190.755 20.8935C190.29 21.0746 189.759 21.1651 189.162 21.1651ZM197.886 21.1651C197.094 21.1651 196.412 20.9858 195.841 20.6271C195.273 20.2649 194.836 19.766 194.53 19.1303C194.225 18.4947 194.072 17.7667 194.072 16.9464C194.072 16.1154 194.229 15.3821 194.541 14.7464C194.854 14.1072 195.294 13.6083 195.862 13.2496C196.43 12.891 197.1 12.7116 197.87 12.7116C198.492 12.7116 199.046 12.8271 199.532 13.0579C200.019 13.2852 200.411 13.6048 200.709 14.0167C201.011 14.4286 201.191 14.9098 201.247 15.4602H199.697C199.612 15.0767 199.417 14.7464 199.111 14.4695C198.809 14.1925 198.405 14.054 197.897 14.054C197.453 14.054 197.064 14.1712 196.73 14.4055C196.4 14.6364 196.143 14.9666 195.958 15.3963C195.773 15.8224 195.681 16.3267 195.681 16.9091C195.681 17.5057 195.771 18.0206 195.953 18.4538C196.134 18.8871 196.389 19.2227 196.72 19.4606C197.053 19.6985 197.446 19.8175 197.897 19.8175C198.199 19.8175 198.472 19.7624 198.717 19.6523C198.966 19.5387 199.173 19.3771 199.34 19.1676C199.511 18.9581 199.63 18.706 199.697 18.4112H201.247C201.191 18.9403 201.018 19.4126 200.731 19.8281C200.443 20.2436 200.058 20.5703 199.575 20.8082C199.095 21.0462 198.532 21.1651 197.886 21.1651ZM204.543 16.142V21H202.951V10.0909H204.522V14.1499H204.623C204.815 13.7095 205.108 13.3597 205.502 13.1005C205.896 12.8413 206.411 12.7116 207.047 12.7116C207.608 12.7116 208.098 12.8271 208.517 13.0579C208.94 13.2887 209.266 13.6332 209.497 14.0913C209.731 14.5458 209.849 15.114 209.849 15.7958V21H208.256V15.9876C208.256 15.3874 208.101 14.9222 207.793 14.592C207.484 14.2582 207.054 14.0913 206.503 14.0913C206.127 14.0913 205.79 14.1712 205.491 14.331C205.197 14.4908 204.964 14.7251 204.794 15.0341C204.627 15.3395 204.543 15.7088 204.543 16.142ZM215.5 21.1651C214.694 21.1651 214 20.9929 213.418 20.6484C212.839 20.3004 212.391 19.8121 212.075 19.1836C211.763 18.5515 211.606 17.8111 211.606 16.9624C211.606 16.1243 211.763 15.3857 212.075 14.7464C212.391 14.1072 212.832 13.6083 213.396 13.2496C213.964 12.891 214.628 12.7116 215.388 12.7116C215.85 12.7116 216.297 12.788 216.731 12.9407C217.164 13.0934 217.553 13.3331 217.897 13.6598C218.242 13.9865 218.513 14.4109 218.712 14.9329C218.911 15.4513 219.011 16.0817 219.011 16.8239V17.3885H212.507V16.1953H217.45C217.45 15.7763 217.365 15.4052 217.194 15.082C217.024 14.7553 216.784 14.4979 216.475 14.3097C216.17 14.1214 215.811 14.0273 215.399 14.0273C214.952 14.0273 214.561 14.1374 214.227 14.3576C213.897 14.5742 213.641 14.8583 213.46 15.2099C213.283 15.5579 213.194 15.9361 213.194 16.3445V17.2766C213.194 17.8235 213.29 18.2887 213.481 18.6722C213.677 19.0558 213.948 19.3487 214.296 19.5511C214.644 19.75 215.051 19.8494 215.516 19.8494C215.818 19.8494 216.093 19.8068 216.342 19.7216C216.59 19.6328 216.805 19.5014 216.986 19.3274C217.168 19.1534 217.306 18.9386 217.402 18.6829L218.909 18.9545C218.789 19.3984 218.572 19.7873 218.259 20.1211C217.951 20.4513 217.562 20.7088 217.093 20.8935C216.628 21.0746 216.097 21.1651 215.5 21.1651ZM220.778 21V12.8182H222.317V14.1179H222.402C222.551 13.6776 222.814 13.3313 223.191 13.0792C223.571 12.8235 224 12.6957 224.48 12.6957C224.579 12.6957 224.696 12.6992 224.831 12.7063C224.97 12.7134 225.078 12.7223 225.156 12.733V14.2564C225.092 14.2386 224.979 14.2191 224.815 14.1978C224.652 14.1729 224.489 14.1605 224.325 14.1605C223.949 14.1605 223.613 14.2404 223.319 14.4002C223.027 14.5565 222.797 14.7749 222.626 15.0554C222.456 15.3324 222.37 15.6484 222.37 16.0036V21H220.778ZM229.688 21.1651C228.896 21.1651 228.214 20.9858 227.642 20.6271C227.074 20.2649 226.638 19.766 226.332 19.1303C226.027 18.4947 225.874 17.7667 225.874 16.9464C225.874 16.1154 226.03 15.3821 226.343 14.7464C226.655 14.1072 227.096 13.6083 227.664 13.2496C228.232 12.891 228.901 12.7116 229.672 12.7116C230.293 12.7116 230.847 12.8271 231.334 13.0579C231.82 13.2852 232.213 13.6048 232.511 14.0167C232.813 14.4286 232.992 14.9098 233.049 15.4602H231.499C231.414 15.0767 231.218 14.7464 230.913 14.4695C230.611 14.1925 230.206 14.054 229.699 14.054C229.255 14.054 228.866 14.1712 228.532 14.4055C228.202 14.6364 227.944 14.9666 227.76 15.3963C227.575 15.8224 227.483 16.3267 227.483 16.9091C227.483 17.5057 227.573 18.0206 227.754 18.4538C227.935 18.8871 228.191 19.2227 228.521 19.4606C228.855 19.6985 229.248 19.8175 229.699 19.8175C230 19.8175 230.274 19.7624 230.519 19.6523C230.767 19.5387 230.975 19.3771 231.142 19.1676C231.313 18.9581 231.432 18.706 231.499 18.4112H233.049C232.992 18.9403 232.82 19.4126 232.532 19.8281C232.245 20.2436 231.859 20.5703 231.377 20.8082C230.897 21.0462 230.334 21.1651 229.688 21.1651ZM236.345 16.142V21H234.752V10.0909H236.324V14.1499H236.425C236.617 13.7095 236.91 13.3597 237.304 13.1005C237.698 12.8413 238.213 12.7116 238.849 12.7116C239.41 12.7116 239.9 12.8271 240.319 13.0579C240.741 13.2887 241.068 13.6332 241.299 14.0913C241.533 14.5458 241.65 15.114 241.65 15.7958V21H240.058V15.9876C240.058 15.3874 239.903 14.9222 239.594 14.592C239.285 14.2582 238.856 14.0913 238.305 14.0913C237.929 14.0913 237.591 14.1712 237.293 14.331C236.998 14.4908 236.766 14.7251 236.595 15.0341C236.428 15.3395 236.345 15.7088 236.345 16.142ZM247.302 21.1651C246.496 21.1651 245.802 20.9929 245.219 20.6484C244.64 20.3004 244.193 19.8121 243.877 19.1836C243.564 18.5515 243.408 17.8111 243.408 16.9624C243.408 16.1243 243.564 15.3857 243.877 14.7464C244.193 14.1072 244.633 13.6083 245.198 13.2496C245.766 12.891 246.43 12.7116 247.19 12.7116C247.652 12.7116 248.099 12.788 248.532 12.9407C248.966 13.0934 249.355 13.3331 249.699 13.6598C250.044 13.9865 250.315 14.4109 250.514 14.9329C250.713 15.4513 250.812 16.0817 250.812 16.8239V17.3885H244.308V16.1953H249.252C249.252 15.7763 249.166 15.4052 248.996 15.082C248.825 14.7553 248.586 14.4979 248.277 14.3097C247.971 14.1214 247.613 14.0273 247.201 14.0273C246.753 14.0273 246.363 14.1374 246.029 14.3576C245.699 14.5742 245.443 14.8583 245.262 15.2099C245.084 15.5579 244.996 15.9361 244.996 16.3445V17.2766C244.996 17.8235 245.091 18.2887 245.283 18.6722C245.479 19.0558 245.75 19.3487 246.098 19.5511C246.446 19.75 246.853 19.8494 247.318 19.8494C247.62 19.8494 247.895 19.8068 248.144 19.7216C248.392 19.6328 248.607 19.5014 248.788 19.3274C248.969 19.1534 249.108 18.9386 249.204 18.6829L250.711 18.9545C250.59 19.3984 250.374 19.7873 250.061 20.1211C249.752 20.4513 249.363 20.7088 248.895 20.8935C248.43 21.0746 247.899 21.1651 247.302 21.1651ZM252.579 21V12.8182H254.119V14.1179H254.204C254.353 13.6776 254.616 13.3313 254.992 13.0792C255.372 12.8235 255.802 12.6957 256.282 12.6957C256.381 12.6957 256.498 12.6992 256.633 12.7063C256.772 12.7134 256.88 12.7223 256.958 12.733V14.2564C256.894 14.2386 256.78 14.2191 256.617 14.1978C256.454 14.1729 256.29 14.1605 256.127 14.1605C255.751 14.1605 255.415 14.2404 255.12 14.4002C254.829 14.5565 254.598 14.7749 254.428 15.0554C254.257 15.3324 254.172 15.6484 254.172 16.0036V21H252.579ZM267.489 17.6069V12.8182H269.087V21H267.521V19.5831H267.436C267.247 20.0199 266.946 20.3839 266.53 20.6751C266.118 20.9627 265.605 21.1065 264.991 21.1065C264.465 21.1065 264 20.9911 263.595 20.7603C263.194 20.5259 262.878 20.1797 262.647 19.7216C262.42 19.2635 262.306 18.6971 262.306 18.0224V12.8182H263.899V17.8306C263.899 18.3881 264.053 18.832 264.362 19.1623C264.671 19.4925 265.072 19.6577 265.566 19.6577C265.864 19.6577 266.161 19.5831 266.456 19.4339C266.754 19.2848 267.001 19.0593 267.196 18.7575C267.395 18.4556 267.492 18.0721 267.489 17.6069ZM272.82 16.142V21H271.227V12.8182H272.756V14.1499H272.857C273.045 13.7166 273.34 13.3686 273.741 13.1058C274.146 12.843 274.656 12.7116 275.27 12.7116C275.827 12.7116 276.316 12.8288 276.735 13.0632C277.154 13.294 277.479 13.6385 277.71 14.0966C277.94 14.5547 278.056 15.1211 278.056 15.7958V21H276.463V15.9876C276.463 15.3945 276.309 14.9311 276 14.5973C275.691 14.2599 275.266 14.0913 274.727 14.0913C274.357 14.0913 274.029 14.1712 273.741 14.331C273.457 14.4908 273.232 14.7251 273.065 15.0341C272.901 15.3395 272.82 15.7088 272.82 16.142ZM283.718 21.1651C282.912 21.1651 282.218 20.9929 281.635 20.6484C281.056 20.3004 280.609 19.8121 280.293 19.1836C279.98 18.5515 279.824 17.8111 279.824 16.9624C279.824 16.1243 279.98 15.3857 280.293 14.7464C280.609 14.1072 281.049 13.6083 281.614 13.2496C282.182 12.891 282.846 12.7116 283.606 12.7116C284.068 12.7116 284.515 12.788 284.949 12.9407C285.382 13.0934 285.771 13.3331 286.115 13.6598C286.46 13.9865 286.731 14.4109 286.93 14.9329C287.129 15.4513 287.228 16.0817 287.228 16.8239V17.3885H280.724V16.1953H285.668C285.668 15.7763 285.582 15.4052 285.412 15.082C285.241 14.7553 285.002 14.4979 284.693 14.3097C284.387 14.1214 284.029 14.0273 283.617 14.0273C283.169 14.0273 282.779 14.1374 282.445 14.3576C282.115 14.5742 281.859 14.8583 281.678 15.2099C281.5 15.5579 281.412 15.9361 281.412 16.3445V17.2766C281.412 17.8235 281.507 18.2887 281.699 18.6722C281.895 19.0558 282.166 19.3487 282.514 19.5511C282.862 19.75 283.269 19.8494 283.734 19.8494C284.036 19.8494 284.311 19.8068 284.56 19.7216C284.808 19.6328 285.023 19.5014 285.204 19.3274C285.385 19.1534 285.524 18.9386 285.62 18.6829L287.127 18.9545C287.006 19.3984 286.79 19.7873 286.477 20.1211C286.168 20.4513 285.779 20.7088 285.311 20.8935C284.846 21.0746 284.315 21.1651 283.718 21.1651ZM292.965 24.0682V12.8182H294.521V14.1445H294.654C294.746 13.9741 294.879 13.777 295.053 13.5533C295.227 13.3295 295.469 13.1342 295.778 12.9673C296.087 12.7969 296.495 12.7116 297.003 12.7116C297.663 12.7116 298.253 12.8786 298.771 13.2124C299.29 13.5462 299.696 14.0273 299.991 14.6559C300.289 15.2844 300.439 16.0408 300.439 16.9251C300.439 17.8093 300.291 18.5675 299.996 19.1996C299.702 19.8281 299.297 20.3129 298.782 20.6538C298.267 20.9911 297.679 21.1598 297.019 21.1598C296.522 21.1598 296.115 21.0763 295.799 20.9094C295.487 20.7425 295.241 20.5472 295.064 20.3235C294.886 20.0998 294.75 19.9009 294.654 19.7269H294.558V24.0682H292.965ZM294.526 16.9091C294.526 17.4844 294.609 17.9886 294.776 18.4219C294.943 18.8551 295.185 19.1942 295.501 19.4393C295.817 19.6808 296.204 19.8015 296.662 19.8015C297.138 19.8015 297.536 19.6754 297.855 19.4233C298.175 19.1676 298.416 18.8214 298.58 18.3846C298.746 17.9478 298.83 17.456 298.83 16.9091C298.83 16.3693 298.748 15.8846 298.585 15.4549C298.425 15.0252 298.184 14.6861 297.86 14.4375C297.541 14.1889 297.141 14.0646 296.662 14.0646C296.2 14.0646 295.81 14.1836 295.49 14.4215C295.174 14.6594 294.934 14.9915 294.771 15.4176C294.608 15.8437 294.526 16.3409 294.526 16.9091ZM304.604 21.1811C304.086 21.1811 303.617 21.0852 303.198 20.8935C302.779 20.6982 302.447 20.4158 302.202 20.0465C301.96 19.6772 301.839 19.2244 301.839 18.6882C301.839 18.2266 301.928 17.8466 302.106 17.5483C302.283 17.25 302.523 17.0138 302.825 16.8398C303.127 16.6658 303.464 16.5344 303.837 16.4457C304.21 16.3569 304.59 16.2894 304.977 16.2433C305.467 16.1864 305.865 16.1403 306.17 16.1048C306.475 16.0657 306.697 16.0036 306.836 15.9183C306.974 15.8331 307.044 15.6946 307.044 15.5028V15.4656C307.044 15.0004 306.912 14.6399 306.65 14.3842C306.39 14.1286 306.003 14.0007 305.488 14.0007C304.952 14.0007 304.529 14.1197 304.221 14.3576C303.915 14.592 303.704 14.853 303.587 15.1406L302.09 14.7997C302.267 14.3026 302.527 13.9013 302.868 13.5959C303.212 13.2869 303.608 13.0632 304.055 12.9247C304.503 12.7827 304.973 12.7116 305.467 12.7116C305.794 12.7116 306.14 12.7507 306.506 12.8288C306.875 12.9034 307.219 13.0419 307.539 13.2443C307.862 13.4467 308.127 13.7362 308.333 14.1126C308.539 14.4854 308.642 14.9702 308.642 15.5668V21H307.086V19.8814H307.022C306.919 20.0874 306.765 20.2898 306.559 20.4886C306.353 20.6875 306.088 20.8526 305.765 20.984C305.442 21.1154 305.055 21.1811 304.604 21.1811ZM304.95 19.9027C305.391 19.9027 305.767 19.8157 306.08 19.6417C306.396 19.4677 306.635 19.2404 306.799 18.9599C306.966 18.6758 307.049 18.3722 307.049 18.049V16.9943C306.992 17.0511 306.882 17.1044 306.719 17.1541C306.559 17.2003 306.376 17.2411 306.17 17.2766C305.964 17.3086 305.763 17.3388 305.568 17.3672C305.373 17.392 305.21 17.4134 305.078 17.4311C304.769 17.4702 304.487 17.5359 304.231 17.6282C303.979 17.7205 303.777 17.8537 303.624 18.0277C303.475 18.1982 303.4 18.4254 303.4 18.7095C303.4 19.1037 303.546 19.402 303.837 19.6044C304.128 19.8033 304.499 19.9027 304.95 19.9027ZM310.763 21V12.8182H312.302V14.1179H312.388C312.537 13.6776 312.8 13.3313 313.176 13.0792C313.556 12.8235 313.986 12.6957 314.465 12.6957C314.565 12.6957 314.682 12.6992 314.817 12.7063C314.955 12.7134 315.063 12.7223 315.142 12.733V14.2564C315.078 14.2386 314.964 14.2191 314.801 14.1978C314.637 14.1729 314.474 14.1605 314.311 14.1605C313.934 14.1605 313.599 14.2404 313.304 14.4002C313.013 14.5565 312.782 14.7749 312.611 15.0554C312.441 15.3324 312.356 15.6484 312.356 16.0036V21H310.763ZM319.673 21.1651C318.881 21.1651 318.2 20.9858 317.628 20.6271C317.06 20.2649 316.623 19.766 316.317 19.1303C316.012 18.4947 315.859 17.7667 315.859 16.9464C315.859 16.1154 316.016 15.3821 316.328 14.7464C316.641 14.1072 317.081 13.6083 317.649 13.2496C318.217 12.891 318.887 12.7116 319.657 12.7116C320.279 12.7116 320.833 12.8271 321.319 13.0579C321.806 13.2852 322.198 13.6048 322.496 14.0167C322.798 14.4286 322.978 14.9098 323.034 15.4602H321.484C321.399 15.0767 321.204 14.7464 320.898 14.4695C320.597 14.1925 320.192 14.054 319.684 14.054C319.24 14.054 318.851 14.1712 318.517 14.4055C318.187 14.6364 317.93 14.9666 317.745 15.3963C317.56 15.8224 317.468 16.3267 317.468 16.9091C317.468 17.5057 317.559 18.0206 317.74 18.4538C317.921 18.8871 318.176 19.2227 318.507 19.4606C318.841 19.6985 319.233 19.8175 319.684 19.8175C319.986 19.8175 320.259 19.7624 320.504 19.6523C320.753 19.5387 320.961 19.3771 321.127 19.1676C321.298 18.9581 321.417 18.706 321.484 18.4112H323.034C322.978 18.9403 322.805 19.4126 322.518 19.8281C322.23 20.2436 321.845 20.5703 321.362 20.8082C320.882 21.0462 320.32 21.1651 319.673 21.1651ZM328.264 21.1651C327.458 21.1651 326.764 20.9929 326.181 20.6484C325.602 20.3004 325.155 19.8121 324.839 19.1836C324.526 18.5515 324.37 17.8111 324.37 16.9624C324.37 16.1243 324.526 15.3857 324.839 14.7464C325.155 14.1072 325.595 13.6083 326.16 13.2496C326.728 12.891 327.392 12.7116 328.152 12.7116C328.614 12.7116 329.061 12.788 329.494 12.9407C329.928 13.0934 330.316 13.3331 330.661 13.6598C331.005 13.9865 331.277 14.4109 331.476 14.9329C331.675 15.4513 331.774 16.0817 331.774 16.8239V17.3885H325.27V16.1953H330.214C330.214 15.7763 330.128 15.4052 329.958 15.082C329.787 14.7553 329.548 14.4979 329.239 14.3097C328.933 14.1214 328.575 14.0273 328.163 14.0273C327.715 14.0273 327.325 14.1374 326.991 14.3576C326.661 14.5742 326.405 14.8583 326.224 15.2099C326.046 15.5579 325.957 15.9361 325.957 16.3445V17.2766C325.957 17.8235 326.053 18.2887 326.245 18.6722C326.44 19.0558 326.712 19.3487 327.06 19.5511C327.408 19.75 327.815 19.8494 328.28 19.8494C328.582 19.8494 328.857 19.8068 329.106 19.7216C329.354 19.6328 329.569 19.5014 329.75 19.3274C329.931 19.1534 330.07 18.9386 330.166 18.6829L331.673 18.9545C331.552 19.3984 331.336 19.7873 331.023 20.1211C330.714 20.4513 330.325 20.7088 329.857 20.8935C329.391 21.0746 328.861 21.1651 328.264 21.1651ZM335.134 10.0909V21H333.541V10.0909H335.134ZM338.869 10.0909V21H337.277V10.0909H338.869ZM344.538 21.1651C343.732 21.1651 343.038 20.9929 342.456 20.6484C341.877 20.3004 341.429 19.8121 341.113 19.1836C340.801 18.5515 340.645 17.8111 340.645 16.9624C340.645 16.1243 340.801 15.3857 341.113 14.7464C341.429 14.1072 341.87 13.6083 342.434 13.2496C343.002 12.891 343.667 12.7116 344.426 12.7116C344.888 12.7116 345.336 12.788 345.769 12.9407C346.202 13.0934 346.591 13.3331 346.935 13.6598C347.28 13.9865 347.551 14.4109 347.75 14.9329C347.949 15.4513 348.049 16.0817 348.049 16.8239V17.3885H341.545V16.1953H346.488C346.488 15.7763 346.403 15.4052 346.232 15.082C346.062 14.7553 345.822 14.4979 345.513 14.3097C345.208 14.1214 344.849 14.0273 344.437 14.0273C343.99 14.0273 343.599 14.1374 343.265 14.3576C342.935 14.5742 342.679 14.8583 342.498 15.2099C342.321 15.5579 342.232 15.9361 342.232 16.3445V17.2766C342.232 17.8235 342.328 18.2887 342.52 18.6722C342.715 19.0558 342.987 19.3487 343.335 19.5511C343.683 19.75 344.089 19.8494 344.554 19.8494C344.856 19.8494 345.131 19.8068 345.38 19.7216C345.629 19.6328 345.843 19.5014 346.025 19.3274C346.206 19.1534 346.344 18.9386 346.44 18.6829L347.947 18.9545C347.827 19.3984 347.61 19.7873 347.298 20.1211C346.989 20.4513 346.6 20.7088 346.131 20.8935C345.666 21.0746 345.135 21.1651 344.538 21.1651Z" fill="#62646C"/>
<path d="M166.99 19.07L169.45 21.45M163.075 12.1C164.483 12.1 165.625 13.2417 165.625 14.65M168.656 15.1033C168.656 18.1704 166.17 20.6567 163.103 20.6567C160.036 20.6567 157.55 18.1704 157.55 15.1033C157.55 12.0363 160.036 9.55 163.103 9.55C166.17 9.55 168.656 12.0363 168.656 15.1033Z" stroke="#62646C" stroke-linecap="round"/>
<path opacity="0.4" d="M515.883 8.35C515.508 8.35 515.208 8.65 515.208 9.025V12.5125C515.208 12.8875 515.508 13.1875 515.883 13.1875C516.258 13.1875 516.558 12.8875 516.558 12.5125V9.025C516.558 8.65 516.258 8.35 515.883 8.35Z" fill="white"/>
<path d="M511 18.8125C510.625 18.8125 510.325 19.1125 510.325 19.4875V22.975C510.325 23.35 510.625 23.65 511 23.65C511.375 23.65 511.675 23.35 511.675 22.975V19.4875C511.675 19.12 511.375 18.8125 511 18.8125Z" fill="white"/>
<path opacity="0.4" d="M506.117 8.35C505.742 8.35 505.442 8.65 505.442 9.025V12.5125C505.442 12.8875 505.742 13.1875 506.117 13.1875C506.492 13.1875 506.792 12.8875 506.792 12.5125V9.025C506.792 8.65 506.485 8.35 506.117 8.35Z" fill="white"/>
<path opacity="0.4" d="M507.512 14.6275H504.722C504.347 14.6275 504.047 14.9275 504.047 15.3025C504.047 15.6775 504.347 15.9775 504.722 15.9775H505.442V22.975C505.442 23.35 505.742 23.65 506.117 23.65C506.492 23.65 506.792 23.35 506.792 22.975V15.9775H507.512C507.887 15.9775 508.187 15.6775 508.187 15.3025C508.187 14.9275 507.88 14.6275 507.512 14.6275Z" fill="white"/>
<path opacity="0.4" d="M517.278 14.6275H514.487C514.112 14.6275 513.812 14.9275 513.812 15.3025C513.812 15.6775 514.112 15.9775 514.487 15.9775H515.208V22.975C515.208 23.35 515.508 23.65 515.883 23.65C516.258 23.65 516.557 23.35 516.557 22.975V15.9775H517.278C517.653 15.9775 517.953 15.6775 517.953 15.3025C517.953 14.9275 517.653 14.6275 517.278 14.6275Z" fill="white"/>
<path d="M512.395 16.0225H511.675V9.025C511.675 8.65 511.375 8.35 511 8.35C510.625 8.35 510.325 8.65 510.325 9.025V16.0225H509.605C509.23 16.0225 508.93 16.3225 508.93 16.6975C508.93 17.0725 509.23 17.3725 509.605 17.3725H512.395C512.77 17.3725 513.07 17.0725 513.07 16.6975C513.07 16.3225 512.77 16.0225 512.395 16.0225Z" fill="white"/>
</svg>
