<svg width="202" height="29" viewBox="0 0 202 29" fill="none" xmlns="http://www.w3.org/2000/svg">
<rect width="202" height="29" rx="4" fill="#1A1A1A"/>
<path d="M16.5832 22.5C20.9554 22.5 24.4998 18.9555 24.4998 14.5833C24.4998 10.211 20.9554 6.66663 16.5832 6.66663C12.2109 6.66663 8.6665 10.211 8.6665 14.5833C8.6665 18.9555 12.2109 22.5 16.5832 22.5Z" fill="white"/>
<path d="M24.7501 23.3333C24.6001 23.3333 24.4501 23.275 24.3418 23.1667L22.7918 21.6167C22.5668 21.3917 22.5668 21.025 22.7918 20.7917C23.0168 20.5667 23.3835 20.5667 23.6168 20.7917L25.1668 22.3417C25.3918 22.5667 25.3918 22.9333 25.1668 23.1667C25.0501 23.275 24.9001 23.3333 24.7501 23.3333Z" fill="white"/>
<path d="M36.1985 21V10.0909H40.087C40.9322 10.0909 41.6335 10.2365 42.1911 10.5277C42.7521 10.8189 43.1712 11.2219 43.4482 11.7369C43.7251 12.2482 43.8636 12.8395 43.8636 13.5107C43.8636 14.1783 43.7234 14.766 43.4428 15.2738C43.1658 15.7781 42.7468 16.1705 42.1857 16.451C41.6282 16.7315 40.9268 16.8718 40.0817 16.8718H37.136V15.4549H39.9325C40.4652 15.4549 40.8984 15.3786 41.2322 15.2259C41.5696 15.0732 41.8164 14.8512 41.9727 14.56C42.1289 14.2688 42.207 13.919 42.207 13.5107C42.207 13.0987 42.1271 12.7418 41.9673 12.44C41.8111 12.1381 41.5643 11.9073 41.2269 11.7475C40.8931 11.5842 40.4545 11.5025 39.9112 11.5025H37.8445V21H36.1985ZM41.5838 16.0781L44.2791 21H42.4041L39.7621 16.0781H41.5838ZM49.1624 21.1651C48.3563 21.1651 47.662 20.9929 47.0796 20.6484C46.5008 20.3004 46.0534 19.8121 45.7373 19.1836C45.4248 18.5515 45.2686 17.8111 45.2686 16.9624C45.2686 16.1243 45.4248 15.3857 45.7373 14.7464C46.0534 14.1072 46.4937 13.6083 47.0583 13.2496C47.6265 12.891 48.2906 12.7116 49.0505 12.7116C49.5122 12.7116 49.9596 12.788 50.3928 12.9407C50.8261 13.0934 51.2149 13.3331 51.5594 13.6598C51.9039 13.9865 52.1755 14.4109 52.3744 14.9329C52.5732 15.4513 52.6727 16.0817 52.6727 16.8239V17.3885H46.1688V16.1953H51.1119C51.1119 15.7763 51.0267 15.4052 50.8563 15.082C50.6858 14.7553 50.4461 14.4979 50.1372 14.3097C49.8318 14.1214 49.4731 14.0273 49.0612 14.0273C48.6137 14.0273 48.2231 14.1374 47.8893 14.3576C47.559 14.5742 47.3034 14.8583 47.1222 15.2099C46.9447 15.5579 46.8559 15.9361 46.8559 16.3445V17.2766C46.8559 17.8235 46.9518 18.2887 47.1436 18.6722C47.3389 19.0558 47.6105 19.3487 47.9585 19.5511C48.3066 19.75 48.7132 19.8494 49.1784 19.8494C49.4802 19.8494 49.7554 19.8068 50.004 19.7216C50.2526 19.6328 50.4674 19.5014 50.6485 19.3274C50.8296 19.1534 50.9681 18.9386 51.064 18.6829L52.5715 18.9545C52.4507 19.3984 52.2341 19.7873 51.9216 20.1211C51.6127 20.4513 51.2238 20.7088 50.7551 20.8935C50.2899 21.0746 49.759 21.1651 49.1624 21.1651ZM57.8862 21.1651C57.0943 21.1651 56.4125 20.9858 55.8407 20.6271C55.2725 20.2649 54.8358 19.766 54.5304 19.1303C54.225 18.4947 54.0723 17.7667 54.0723 16.9464C54.0723 16.1154 54.2285 15.3821 54.541 14.7464C54.8535 14.1072 55.2939 13.6083 55.862 13.2496C56.4302 12.891 57.0996 12.7116 57.8702 12.7116C58.4917 12.7116 59.0456 12.8271 59.5321 13.0579C60.0186 13.2852 60.411 13.6048 60.7093 14.0167C61.0112 14.4286 61.1905 14.9098 61.2473 15.4602H59.6973C59.612 15.0767 59.4167 14.7464 59.1113 14.4695C58.8095 14.1925 58.4047 14.054 57.8968 14.054C57.4529 14.054 57.0641 14.1712 56.7303 14.4055C56.4 14.6364 56.1426 14.9666 55.9579 15.3963C55.7733 15.8224 55.6809 16.3267 55.6809 16.9091C55.6809 17.5057 55.7715 18.0206 55.9526 18.4538C56.1337 18.8871 56.3894 19.2227 56.7196 19.4606C57.0534 19.6985 57.4458 19.8175 57.8968 19.8175C58.1987 19.8175 58.4721 19.7624 58.7172 19.6523C58.9657 19.5387 59.1735 19.3771 59.3404 19.1676C59.5108 18.9581 59.6298 18.706 59.6973 18.4112H61.2473C61.1905 18.9403 61.0183 19.4126 60.7306 19.8281C60.443 20.2436 60.0577 20.5703 59.5748 20.8082C59.0953 21.0462 58.5325 21.1651 57.8862 21.1651ZM64.5432 16.142V21H62.9506V10.0909H64.5219V14.1499H64.6231C64.8149 13.7095 65.1079 13.3597 65.502 13.1005C65.8962 12.8413 66.4111 12.7116 67.0468 12.7116C67.6079 12.7116 68.0979 12.8271 68.517 13.0579C68.9395 13.2887 69.2662 13.6332 69.4971 14.0913C69.7314 14.5458 69.8486 15.114 69.8486 15.7958V21H68.2559V15.9876C68.2559 15.3874 68.1015 14.9222 67.7925 14.592C67.4836 14.2582 67.0539 14.0913 66.5035 14.0913C66.127 14.0913 65.7897 14.1712 65.4914 14.331C65.1966 14.4908 64.964 14.7251 64.7936 15.0341C64.6267 15.3395 64.5432 15.7088 64.5432 16.142ZM75.5003 21.1651C74.6942 21.1651 73.9999 20.9929 73.4175 20.6484C72.8387 20.3004 72.3912 19.8121 72.0752 19.1836C71.7627 18.5515 71.6064 17.8111 71.6064 16.9624C71.6064 16.1243 71.7627 15.3857 72.0752 14.7464C72.3912 14.1072 72.8316 13.6083 73.3962 13.2496C73.9644 12.891 74.6285 12.7116 75.3884 12.7116C75.8501 12.7116 76.2975 12.788 76.7307 12.9407C77.164 13.0934 77.5528 13.3331 77.8973 13.6598C78.2417 13.9865 78.5134 14.4109 78.7123 14.9329C78.9111 15.4513 79.0106 16.0817 79.0106 16.8239V17.3885H72.5067V16.1953H77.4498C77.4498 15.7763 77.3646 15.4052 77.1942 15.082C77.0237 14.7553 76.784 14.4979 76.4751 14.3097C76.1697 14.1214 75.811 14.0273 75.3991 14.0273C74.9516 14.0273 74.561 14.1374 74.2272 14.3576C73.8969 14.5742 73.6412 14.8583 73.4601 15.2099C73.2826 15.5579 73.1938 15.9361 73.1938 16.3445V17.2766C73.1938 17.8235 73.2897 18.2887 73.4814 18.6722C73.6768 19.0558 73.9484 19.3487 74.2964 19.5511C74.6444 19.75 75.051 19.8494 75.5162 19.8494C75.8181 19.8494 76.0933 19.8068 76.3419 19.7216C76.5905 19.6328 76.8053 19.5014 76.9864 19.3274C77.1675 19.1534 77.306 18.9386 77.4019 18.6829L78.9094 18.9545C78.7886 19.3984 78.572 19.7873 78.2595 20.1211C77.9506 20.4513 77.5617 20.7088 77.093 20.8935C76.6278 21.0746 76.0969 21.1651 75.5003 21.1651ZM80.7777 21V12.8182H82.3171V14.1179H82.4023C82.5515 13.6776 82.8143 13.3313 83.1907 13.0792C83.5707 12.8235 84.0004 12.6957 84.4798 12.6957C84.5792 12.6957 84.6964 12.6992 84.8313 12.7063C84.9698 12.7134 85.0781 12.7223 85.1562 12.733V14.2564C85.0923 14.2386 84.9787 14.2191 84.8153 14.1978C84.652 14.1729 84.4886 14.1605 84.3253 14.1605C83.9489 14.1605 83.6133 14.2404 83.3185 14.4002C83.0273 14.5565 82.7965 14.7749 82.6261 15.0554C82.4556 15.3324 82.3704 15.6484 82.3704 16.0036V21H80.7777ZM89.6879 21.1651C88.896 21.1651 88.2142 20.9858 87.6425 20.6271C87.0743 20.2649 86.6375 19.766 86.3321 19.1303C86.0267 18.4947 85.874 17.7667 85.874 16.9464C85.874 16.1154 86.0303 15.3821 86.3428 14.7464C86.6553 14.1072 87.0956 13.6083 87.6638 13.2496C88.232 12.891 88.9014 12.7116 89.672 12.7116C90.2934 12.7116 90.8474 12.8271 91.3339 13.0579C91.8204 13.2852 92.2128 13.6048 92.5111 14.0167C92.8129 14.4286 92.9923 14.9098 93.0491 15.4602H91.499C91.4138 15.0767 91.2185 14.7464 90.9131 14.4695C90.6112 14.1925 90.2064 14.054 89.6986 14.054C89.2547 14.054 88.8659 14.1712 88.532 14.4055C88.2018 14.6364 87.9443 14.9666 87.7597 15.3963C87.575 15.8224 87.4827 16.3267 87.4827 16.9091C87.4827 17.5057 87.5732 18.0206 87.7544 18.4538C87.9355 18.8871 88.1911 19.2227 88.5214 19.4606C88.8552 19.6985 89.2476 19.8175 89.6986 19.8175C90.0004 19.8175 90.2739 19.7624 90.5189 19.6523C90.7675 19.5387 90.9752 19.3771 91.1421 19.1676C91.3126 18.9581 91.4316 18.706 91.499 18.4112H93.0491C92.9923 18.9403 92.82 19.4126 92.5324 19.8281C92.2448 20.2436 91.8595 20.5703 91.3765 20.8082C90.8971 21.0462 90.3343 21.1651 89.6879 21.1651ZM96.345 16.142V21H94.7523V10.0909H96.3237V14.1499H96.4249C96.6167 13.7095 96.9096 13.3597 97.3038 13.1005C97.698 12.8413 98.2129 12.7116 98.8485 12.7116C99.4096 12.7116 99.8997 12.8271 100.319 13.0579C100.741 13.2887 101.068 13.6332 101.299 14.0913C101.533 14.5458 101.65 15.114 101.65 15.7958V21H100.058V15.9876C100.058 15.3874 99.9032 14.9222 99.5943 14.592C99.2853 14.2582 98.8556 14.0913 98.3052 14.0913C97.9288 14.0913 97.5914 14.1712 97.2931 14.331C96.9984 14.4908 96.7658 14.7251 96.5953 15.0341C96.4284 15.3395 96.345 15.7088 96.345 16.142ZM107.302 21.1651C106.496 21.1651 105.802 20.9929 105.219 20.6484C104.64 20.3004 104.193 19.8121 103.877 19.1836C103.564 18.5515 103.408 17.8111 103.408 16.9624C103.408 16.1243 103.564 15.3857 103.877 14.7464C104.193 14.1072 104.633 13.6083 105.198 13.2496C105.766 12.891 106.43 12.7116 107.19 12.7116C107.652 12.7116 108.099 12.788 108.532 12.9407C108.966 13.0934 109.355 13.3331 109.699 13.6598C110.044 13.9865 110.315 14.4109 110.514 14.9329C110.713 15.4513 110.812 16.0817 110.812 16.8239V17.3885H104.308V16.1953H109.252C109.252 15.7763 109.166 15.4052 108.996 15.082C108.825 14.7553 108.586 14.4979 108.277 14.3097C107.971 14.1214 107.613 14.0273 107.201 14.0273C106.753 14.0273 106.363 14.1374 106.029 14.3576C105.699 14.5742 105.443 14.8583 105.262 15.2099C105.084 15.5579 104.996 15.9361 104.996 16.3445V17.2766C104.996 17.8235 105.091 18.2887 105.283 18.6722C105.479 19.0558 105.75 19.3487 106.098 19.5511C106.446 19.75 106.853 19.8494 107.318 19.8494C107.62 19.8494 107.895 19.8068 108.144 19.7216C108.392 19.6328 108.607 19.5014 108.788 19.3274C108.969 19.1534 109.108 18.9386 109.204 18.6829L110.711 18.9545C110.59 19.3984 110.374 19.7873 110.061 20.1211C109.752 20.4513 109.363 20.7088 108.895 20.8935C108.43 21.0746 107.899 21.1651 107.302 21.1651ZM116.549 24.0682V12.8182H118.105V14.1445H118.238C118.33 13.9741 118.463 13.777 118.637 13.5533C118.811 13.3295 119.053 13.1342 119.362 12.9673C119.671 12.7969 120.079 12.7116 120.587 12.7116C121.247 12.7116 121.837 12.8786 122.355 13.2124C122.874 13.5462 123.28 14.0273 123.575 14.6559C123.873 15.2844 124.023 16.0408 124.023 16.9251C124.023 17.8093 123.875 18.5675 123.58 19.1996C123.286 19.8281 122.881 20.3129 122.366 20.6538C121.851 20.9911 121.263 21.1598 120.603 21.1598C120.106 21.1598 119.699 21.0763 119.383 20.9094C119.07 20.7425 118.825 20.5472 118.648 20.3235C118.47 20.0998 118.334 19.9009 118.238 19.7269H118.142V24.0682H116.549ZM118.11 16.9091C118.11 17.4844 118.193 17.9886 118.36 18.4219C118.527 18.8551 118.769 19.1942 119.085 19.4393C119.401 19.6808 119.788 19.8015 120.246 19.8015C120.722 19.8015 121.119 19.6754 121.439 19.4233C121.759 19.1676 122 18.8214 122.164 18.3846C122.33 17.9478 122.414 17.456 122.414 16.9091C122.414 16.3693 122.332 15.8846 122.169 15.4549C122.009 15.0252 121.768 14.6861 121.444 14.4375C121.125 14.1889 120.725 14.0646 120.246 14.0646C119.784 14.0646 119.394 14.1836 119.074 14.4215C118.758 14.6594 118.518 14.9915 118.355 15.4176C118.192 15.8437 118.11 16.3409 118.11 16.9091ZM128.188 21.1811C127.67 21.1811 127.201 21.0852 126.782 20.8935C126.363 20.6982 126.031 20.4158 125.786 20.0465C125.544 19.6772 125.423 19.2244 125.423 18.6882C125.423 18.2266 125.512 17.8466 125.69 17.5483C125.867 17.25 126.107 17.0138 126.409 16.8398C126.711 16.6658 127.048 16.5344 127.421 16.4457C127.794 16.3569 128.174 16.2894 128.561 16.2433C129.051 16.1864 129.449 16.1403 129.754 16.1048C130.059 16.0657 130.281 16.0036 130.42 15.9183C130.558 15.8331 130.628 15.6946 130.628 15.5028V15.4656C130.628 15.0004 130.496 14.6399 130.233 14.3842C129.974 14.1286 129.587 14.0007 129.072 14.0007C128.536 14.0007 128.113 14.1197 127.805 14.3576C127.499 14.592 127.288 14.853 127.171 15.1406L125.674 14.7997C125.851 14.3026 126.111 13.9013 126.452 13.5959C126.796 13.2869 127.192 13.0632 127.639 12.9247C128.087 12.7827 128.557 12.7116 129.051 12.7116C129.378 12.7116 129.724 12.7507 130.09 12.8288C130.459 12.9034 130.803 13.0419 131.123 13.2443C131.446 13.4467 131.711 13.7362 131.917 14.1126C132.123 14.4854 132.226 14.9702 132.226 15.5668V21H130.67V19.8814H130.606C130.503 20.0874 130.349 20.2898 130.143 20.4886C129.937 20.6875 129.672 20.8526 129.349 20.984C129.026 21.1154 128.639 21.1811 128.188 21.1811ZM128.534 19.9027C128.975 19.9027 129.351 19.8157 129.664 19.6417C129.98 19.4677 130.219 19.2404 130.383 18.9599C130.55 18.6758 130.633 18.3722 130.633 18.049V16.9943C130.576 17.0511 130.466 17.1044 130.303 17.1541C130.143 17.2003 129.96 17.2411 129.754 17.2766C129.548 17.3086 129.347 17.3388 129.152 17.3672C128.957 17.392 128.794 17.4134 128.662 17.4311C128.353 17.4702 128.071 17.5359 127.815 17.6282C127.563 17.7205 127.361 17.8537 127.208 18.0277C127.059 18.1982 126.984 18.4254 126.984 18.7095C126.984 19.1037 127.13 19.402 127.421 19.6044C127.712 19.8033 128.083 19.9027 128.534 19.9027ZM134.347 21V12.8182H135.886V14.1179H135.972C136.121 13.6776 136.384 13.3313 136.76 13.0792C137.14 12.8235 137.57 12.6957 138.049 12.6957C138.149 12.6957 138.266 12.6992 138.401 12.7063C138.539 12.7134 138.647 12.7223 138.726 12.733V14.2564C138.662 14.2386 138.548 14.2191 138.385 14.1978C138.221 14.1729 138.058 14.1605 137.895 14.1605C137.518 14.1605 137.183 14.2404 136.888 14.4002C136.597 14.5565 136.366 14.7749 136.195 15.0554C136.025 15.3324 135.94 15.6484 135.94 16.0036V21H134.347ZM147.52 21.1651C146.728 21.1651 146.046 20.9858 145.475 20.6271C144.906 20.2649 144.47 19.766 144.164 19.1303C143.859 18.4947 143.706 17.7667 143.706 16.9464C143.706 16.1154 143.862 15.3821 144.175 14.7464C144.487 14.1072 144.928 13.6083 145.496 13.2496C146.064 12.891 146.733 12.7116 147.504 12.7116C148.125 12.7116 148.679 12.8271 149.166 13.0579C149.652 13.2852 150.045 13.6048 150.343 14.0167C150.645 14.4286 150.824 14.9098 150.881 15.4602H149.331C149.246 15.0767 149.051 14.7464 148.745 14.4695C148.443 14.1925 148.038 14.054 147.531 14.054C147.087 14.054 146.698 14.1712 146.364 14.4055C146.034 14.6364 145.776 14.9666 145.592 15.3963C145.407 15.8224 145.315 16.3267 145.315 16.9091C145.315 17.5057 145.405 18.0206 145.586 18.4538C145.767 18.8871 146.023 19.2227 146.353 19.4606C146.687 19.6985 147.08 19.8175 147.531 19.8175C147.832 19.8175 148.106 19.7624 148.351 19.6523C148.6 19.5387 148.807 19.3771 148.974 19.1676C149.145 18.9581 149.264 18.706 149.331 18.4112H150.881C150.824 18.9403 150.652 19.4126 150.364 19.8281C150.077 20.2436 149.691 20.5703 149.209 20.8082C148.729 21.0462 148.166 21.1651 147.52 21.1651ZM152.584 21V12.8182H154.124V14.1179H154.209C154.358 13.6776 154.621 13.3313 154.997 13.0792C155.377 12.8235 155.807 12.6957 156.286 12.6957C156.386 12.6957 156.503 12.6992 156.638 12.7063C156.776 12.7134 156.885 12.7223 156.963 12.733V14.2564C156.899 14.2386 156.785 14.2191 156.622 14.1978C156.459 14.1729 156.295 14.1605 156.132 14.1605C155.756 14.1605 155.42 14.2404 155.125 14.4002C154.834 14.5565 154.603 14.7749 154.433 15.0554C154.262 15.3324 154.177 15.6484 154.177 16.0036V21H152.584ZM158.341 21V12.8182H159.934V21H158.341ZM159.146 11.5558C158.869 11.5558 158.631 11.4634 158.432 11.2788C158.236 11.0906 158.139 10.8668 158.139 10.6076C158.139 10.3448 158.236 10.1211 158.432 9.93643C158.631 9.74822 158.869 9.65412 159.146 9.65412C159.422 9.65412 159.659 9.74822 159.854 9.93643C160.053 10.1211 160.152 10.3448 160.152 10.6076C160.152 10.8668 160.053 11.0906 159.854 11.2788C159.659 11.4634 159.422 11.5558 159.146 11.5558ZM165.896 12.8182V14.0966H161.427V12.8182H165.896ZM162.625 10.858H164.218V18.5977C164.218 18.9066 164.264 19.1392 164.356 19.2955C164.449 19.4482 164.568 19.5529 164.713 19.6097C164.862 19.663 165.024 19.6896 165.198 19.6896C165.326 19.6896 165.438 19.6808 165.534 19.663C165.629 19.6452 165.704 19.631 165.757 19.6204L166.045 20.9361C165.953 20.9716 165.821 21.0071 165.651 21.0426C165.48 21.0817 165.267 21.103 165.012 21.1065C164.593 21.1136 164.202 21.0391 163.84 20.8828C163.477 20.7266 163.184 20.4851 162.961 20.1584C162.737 19.8317 162.625 19.4215 162.625 18.9279V10.858ZM171.096 21.1651C170.29 21.1651 169.596 20.9929 169.013 20.6484C168.434 20.3004 167.987 19.8121 167.671 19.1836C167.358 18.5515 167.202 17.8111 167.202 16.9624C167.202 16.1243 167.358 15.3857 167.671 14.7464C167.987 14.1072 168.427 13.6083 168.992 13.2496C169.56 12.891 170.224 12.7116 170.984 12.7116C171.446 12.7116 171.893 12.788 172.326 12.9407C172.76 13.0934 173.149 13.3331 173.493 13.6598C173.837 13.9865 174.109 14.4109 174.308 14.9329C174.507 15.4513 174.606 16.0817 174.606 16.8239V17.3885H168.102V16.1953H173.046C173.046 15.7763 172.96 15.4052 172.79 15.082C172.619 14.7553 172.38 14.4979 172.071 14.3097C171.765 14.1214 171.407 14.0273 170.995 14.0273C170.547 14.0273 170.157 14.1374 169.823 14.3576C169.493 14.5742 169.237 14.8583 169.056 15.2099C168.878 15.5579 168.79 15.9361 168.79 16.3445V17.2766C168.79 17.8235 168.885 18.2887 169.077 18.6722C169.272 19.0558 169.544 19.3487 169.892 19.5511C170.24 19.75 170.647 19.8494 171.112 19.8494C171.414 19.8494 171.689 19.8068 171.938 19.7216C172.186 19.6328 172.401 19.5014 172.582 19.3274C172.763 19.1534 172.902 18.9386 172.998 18.6829L174.505 18.9545C174.384 19.3984 174.168 19.7873 173.855 20.1211C173.546 20.4513 173.157 20.7088 172.689 20.8935C172.223 21.0746 171.693 21.1651 171.096 21.1651ZM170.302 11.7262L168.656 9.2706H170.334L171.575 11.7262H170.302ZM176.373 21V12.8182H177.913V14.1179H177.998C178.147 13.6776 178.41 13.3313 178.786 13.0792C179.166 12.8235 179.596 12.6957 180.075 12.6957C180.175 12.6957 180.292 12.6992 180.427 12.7063C180.566 12.7134 180.674 12.7223 180.752 12.733V14.2564C180.688 14.2386 180.574 14.2191 180.411 14.1978C180.248 14.1729 180.084 14.1605 179.921 14.1605C179.545 14.1605 179.209 14.2404 178.914 14.4002C178.623 14.5565 178.392 14.7749 178.222 15.0554C178.051 15.3324 177.966 15.6484 177.966 16.0036V21H176.373ZM185.364 21.1651C184.557 21.1651 183.863 20.9929 183.281 20.6484C182.702 20.3004 182.255 19.8121 181.938 19.1836C181.626 18.5515 181.47 17.8111 181.47 16.9624C181.47 16.1243 181.626 15.3857 181.938 14.7464C182.255 14.1072 182.695 13.6083 183.259 13.2496C183.828 12.891 184.492 12.7116 185.252 12.7116C185.713 12.7116 186.161 12.788 186.594 12.9407C187.027 13.0934 187.416 13.3331 187.761 13.6598C188.105 13.9865 188.377 14.4109 188.576 14.9329C188.774 15.4513 188.874 16.0817 188.874 16.8239V17.3885H182.37V16.1953H187.313C187.313 15.7763 187.228 15.4052 187.057 15.082C186.887 14.7553 186.647 14.4979 186.338 14.3097C186.033 14.1214 185.674 14.0273 185.262 14.0273C184.815 14.0273 184.424 14.1374 184.09 14.3576C183.76 14.5742 183.505 14.8583 183.323 15.2099C183.146 15.5579 183.057 15.9361 183.057 16.3445V17.2766C183.057 17.8235 183.153 18.2887 183.345 18.6722C183.54 19.0558 183.812 19.3487 184.16 19.5511C184.508 19.75 184.914 19.8494 185.38 19.8494C185.681 19.8494 185.957 19.8068 186.205 19.7216C186.454 19.6328 186.669 19.5014 186.85 19.3274C187.031 19.1534 187.169 18.9386 187.265 18.6829L188.773 18.9545C188.652 19.3984 188.435 19.7873 188.123 20.1211C187.814 20.4513 187.425 20.7088 186.956 20.8935C186.491 21.0746 185.96 21.1651 185.364 21.1651Z" fill="white"/>
</svg>
