<?xml version="1.0" encoding="UTF-8"?>
<svg version="1.1" xmlns="http://www.w3.org/2000/svg" viewBox="0 0 1500 1500">
<path d="M0 0 C495 0 990 0 1500 0 C1500 495 1500 990 1500 1500 C1005 1500 510 1500 0 1500 C0 1005 0 510 0 0 Z " fill="#FEFEFE" transform="translate(0,0)"/>
<path d="M0 0 C0.87576691 0.05858185 1.75153381 0.1171637 2.65383911 0.17752075 C13.34836973 0.92213237 23.77118527 2.30999362 34.29779053 4.32254028 C37.30395109 4.884533 40.32132633 5.37268171 43.33984375 5.86328125 C58.4827954 8.3636924 73.42151545 11.34024734 88.33251953 14.97753906 C91.01947665 15.63140277 93.70993907 16.26746257 96.40234375 16.8984375 C136.8989574 26.53355995 175.76329042 41.76246216 213.25 59.6875 C214.67820068 60.3676416 214.67820068 60.3676416 216.13525391 61.06152344 C249.00863703 76.81083629 279.77792786 96.72538207 309.11352539 118.28686523 C313.15817053 121.24542634 317.24911041 123.98875454 321.56640625 126.53613281 C323.72615715 128.01313183 325.16090445 129.91356408 326.7421875 131.9765625 C329.4900372 135.09458884 332.83898878 137.53331375 336.07421875 140.125 C343.86671831 146.37279605 351.65117706 152.78499862 358.56567383 160.00415039 C360.28057351 161.71805578 362.0658794 163.28605826 363.91015625 164.859375 C368.40112546 168.76481148 372.61686037 172.90657862 376.8125 177.125 C377.52857422 177.83720703 378.24464844 178.54941406 378.98242188 179.28320312 C383.02473 183.33286759 386.88663572 187.48019468 390.62182617 191.81420898 C393.05176569 194.60996936 395.59144097 197.29853142 398.125 200 C402.55143039 204.76359048 406.78524673 209.62818151 410.85546875 214.703125 C412.63240685 216.91777542 414.42495802 219.11242381 416.23828125 221.296875 C424.36217338 231.11781823 431.92125628 241.26216969 439.25 251.6875 C439.72679199 252.36280762 440.20358398 253.03811523 440.69482422 253.73388672 C452.32971119 270.25567056 462.8997479 287.37600299 472.75439453 305.01367188 C473.74277103 306.78068124 474.73585765 308.54506514 475.73388672 310.30664062 C511.93975991 374.24289411 533.56835881 445.26657967 543.9375 517.75 C544.04041351 518.45516754 544.14332703 519.16033508 544.24935913 519.88687134 C547.73564193 543.98944115 548.59876778 568.04526569 548.5 592.375 C548.4966365 593.75212551 548.49350564 595.12925162 548.49060059 596.50637817 C548.44339687 615.95367505 548.30454336 635.32901025 546.25 654.6875 C546.12641113 655.88407227 546.00282227 657.08064453 545.87548828 658.31347656 C542.56311841 689.20483876 536.99883181 719.87005279 528.25 749.6875 C527.86350272 751.05271311 527.47909869 752.41852219 527.09765625 753.78515625 C526.47320221 756.00961704 525.83864358 758.23127995 525.19140625 760.44921875 C524.51387667 762.77980805 523.85755282 765.11660012 523.21484375 767.45703125 C519.93399556 779.25069708 515.6623858 790.62411193 511.26757812 802.04296875 C510.41630041 804.25531046 509.57232326 806.47008817 508.734375 808.6875 C503.79359613 821.69613298 498.17081714 834.25688224 492.0625 846.75 C491.68361633 847.52639832 491.30473267 848.30279663 490.91436768 849.10272217 C473.71621552 884.32118027 453.88392432 917.3760334 430.25 948.6875 C429.78609863 949.30592773 429.32219727 949.92435547 428.84423828 950.56152344 C423.4354656 957.7638056 417.7725437 964.7127703 411.9140625 971.55078125 C409.4040427 974.48697962 406.98070985 977.48762519 404.5625 980.5 C401.90541417 983.7822825 399.19110501 986.78617607 396.125 989.6875 C393.06024607 992.62556135 391.01001421 995.58356204 388.875 999.25 C385.86818593 1004.2092024 382.78120049 1006.74528206 377.9296875 1009.8125 C374.83358879 1011.97886645 372.24505163 1014.48618182 369.625 1017.1875 C365.96158782 1020.95881072 362.2626943 1024.54099267 358.265625 1027.953125 C355.94885379 1029.94662581 353.69580016 1032.00304388 351.4375 1034.0625 C346.18824117 1038.79321502 340.75441004 1043.25833694 335.25 1047.6875 C334.12864698 1048.60124442 333.00756489 1049.51532139 331.88671875 1050.4296875 C318.25601767 1061.49986371 304.17863639 1071.9714274 289.4765625 1081.578125 C286.79313846 1083.33242159 284.1440333 1085.12498247 281.5 1086.9375 C278.32533607 1089.06589992 275.06324897 1090.89572079 271.6875 1092.6875 C267.38457838 1094.97191625 263.58980517 1097.5200904 259.80859375 1100.5859375 C258.25 1101.6875 258.25 1101.6875 256.25 1101.6875 C256.25 1102.3475 256.25 1103.0075 256.25 1103.6875 C255.67636719 1103.86023437 255.10273437 1104.03296875 254.51171875 1104.2109375 C248.11384407 1106.32738163 242.29244161 1109.13405111 236.375 1112.3125 C213.13267076 1124.76654936 189.04494027 1135.09757752 164.1953125 1143.8984375 C160.84129937 1145.08907096 157.54468038 1146.37133006 154.25390625 1147.7265625 C149.27715812 1149.73846009 144.23343541 1151.26120223 139.0625 1152.6875 C138.14903809 1152.9438623 137.23557617 1153.20022461 136.29443359 1153.46435547 C129.87841411 1155.25777871 123.45098682 1157.00834375 117.00561523 1158.69335938 C114.63893846 1159.31983716 112.27602931 1159.9609028 109.91894531 1160.62255859 C99.9932268 1163.38156713 90.01647144 1165.39759941 79.875 1167.1875 C79.03328247 1167.33746429 78.19156494 1167.48742859 77.32434082 1167.64193726 C60.36152142 1170.649084 43.38482886 1172.93447696 26.25 1174.6875 C25.19280762 1174.80464355 24.13561523 1174.92178711 23.04638672 1175.04248047 C-64.41468373 1184.56234144 -157.04779058 1169.60663476 -346.75 1078.6875 C-347.44706055 1078.20893555 -348.14412109 1077.73037109 -348.86230469 1077.23730469 C-368.13035269 1063.99438678 -386.18875203 1049.41327402 -403.50390625 1033.71875 C-411.90038949 1025.49309527 -411.90038949 1025.49309527 -421.75 1019.5 C-424.9771691 1017.550252 -425.38381111 1016.81235258 -426.953125 1013.56640625 C-429.70850242 1008.4052219 -433.26668325 1004.79170834 -437.5 1000.8125 C-442.98556197 995.50004874 -448.03266494 990.19001228 -452.75390625 984.18359375 C-454.78358896 981.64549737 -456.92216796 979.2636597 -459.125 976.875 C-488.65661024 944.32891743 -512.1213993 904.76926529 -531.75 865.6875 C-532.20971191 864.77742187 -532.66942383 863.86734375 -533.14306641 862.9296875 C-570.1142039 789.27594215 -589.06555004 705.49084326 -588.9375 623.1875 C-588.93656342 622.39447479 -588.93562683 621.60144958 -588.93466187 620.78439331 C-588.73056733 539.85538139 -570.91323105 459.61339808 -528.75 372.6875 C-528.2667627 371.71844727 -527.78352539 370.74939453 -527.28564453 369.75097656 C-510.87525781 337.02341086 -490.28559861 305.25047462 -466.24609375 277.58203125 C-463.92838314 274.89435744 -461.70919807 272.15192495 -459.5 269.375 C-449.44257458 257.10005196 -438.11001099 245.9392122 -426.93322754 234.69549561 C-425.66014133 233.41433052 -424.38853568 232.13169226 -423.11853027 230.84747314 C-415.64673645 223.30098603 -408.08530471 216.28057535 -399.75 209.6875 C-397.43650363 207.73310403 -395.15754793 205.7403622 -392.875 203.75 C-382.92655107 195.1716313 -372.49042695 187.44098888 -361.70703125 179.95068359 C-358.08015677 177.41137599 -354.6645338 174.85801315 -351.4375 171.8125 C-347.69441772 168.36054634 -343.4894861 166.42631351 -338.9140625 164.2578125 C-335.7872676 162.70599577 -332.88916133 160.98633788 -329.9375 159.125 C-288.28162645 133.1577022 -241.65740954 112.06047651 -193.86425781 100.36621094 C-191.45391831 99.71088717 -191.45391831 99.71088717 -188.6875 97.5 C-185.52843788 95.55079146 -185.00174906 95.54545491 -181.515625 95.77734375 C-175.01921346 95.89174818 -168.94812098 94.38832972 -162.66418457 92.92391968 C-145.79272765 89.01914312 -128.96829136 86.54509534 -111.75 84.6875 C-110.72358398 84.57567383 -109.69716797 84.46384766 -108.63964844 84.34863281 C-90.48590345 82.4090517 -72.37904613 81.45579382 -54.125 81.4375 C-53.23090424 81.43582825 -52.33680847 81.43415649 -51.4156189 81.43243408 C-37.75010408 81.43092553 -24.18414349 81.97623179 -10.5625 83.0625 C-9.7666449 83.12562378 -8.97078979 83.18874756 -8.15081787 83.25378418 C-0.27205862 83.89356066 7.5591756 84.68860175 15.38671875 85.79296875 C21.49975475 86.64411493 27.07288239 86.75890073 33.2265625 86.46484375 C36.25 86.6875 36.25 86.6875 38.46020508 88.08691406 C41.82879443 90.01957108 45.14845709 90.7627641 48.91015625 91.51953125 C50.43237983 91.84347398 51.95459636 92.16744984 53.47680664 92.49145508 C54.26733429 92.6561026 55.05786194 92.82075012 55.87234497 92.99038696 C69.24762917 95.78374194 82.38158241 98.89058376 95.39013672 103.10302734 C98.02828213 103.9320796 100.69730153 104.6237385 103.375 105.3125 C107.51621165 106.41639771 111.36613396 107.8952791 115.31640625 109.546875 C118.19395705 110.66570966 121.10080946 111.61759585 124.04394531 112.54760742 C150.12264416 120.85088504 174.87334294 133.29830399 199.20141602 145.71679688 C201.43567629 146.82811082 201.43567629 146.82811082 204.6875 147.8125 C207.33151691 148.71533504 208.58398031 149.46614042 210.25 151.6875 C210.25 152.3475 210.25 153.0075 210.25 153.6875 C210.93835938 153.93886719 211.62671875 154.19023437 212.3359375 154.44921875 C215.68806263 155.87364726 218.76452322 157.62135387 221.875 159.5 C222.84191772 160.08334106 222.84191772 160.08334106 223.82836914 160.6784668 C258.86742179 182.11084664 290.59742571 209.00234728 319.625 237.9375 C320.09953613 238.4093573 320.57407227 238.8812146 321.06298828 239.36737061 C326.68307854 244.96337059 332.12344508 250.63564013 337.25 256.6875 C337.70342773 257.2139209 338.15685547 257.7403418 338.62402344 258.28271484 C365.73252443 289.75926487 388.92984678 323.90477392 408.25 360.6875 C408.70584473 361.54859375 409.16168945 362.4096875 409.63134766 363.296875 C437.72852233 416.68049583 457.79230272 478.62939597 462.47924805 538.89404297 C462.91708829 543.77350951 464.24057242 547.29692768 466.25 551.6875 C466.5 554.5625 466.5 554.5625 466.25 556.6875 C465.92 557.0175 465.59 557.3475 465.25 557.6875 C465.16684943 559.29829728 465.15364709 560.91275853 465.16821289 562.52563477 C465.1778582 564.08410378 465.1778582 564.08410378 465.18769836 565.67405701 C465.19923447 566.81415726 465.21077057 567.95425751 465.22265625 569.12890625 C465.23723535 571.55875309 465.25120875 573.98860362 465.26464844 576.41845703 C465.27298706 577.69771057 465.28132568 578.97696411 465.28991699 580.29498291 C465.41672229 602.50270325 465.45336854 624.57095809 463.25 646.6875 C463.13172852 647.90163574 463.01345703 649.11577148 462.89160156 650.36669922 C459.92183426 679.41827781 454.62371448 708.98749444 445.25 736.6875 C444.54261252 738.81918573 443.8385994 740.95197178 443.13464355 743.08479309 C440.55206727 750.9083587 437.94807517 758.72455405 435.31733704 766.53205872 C433.55729081 771.7572486 431.83197247 776.99316624 430.13208008 782.23828125 C428.94850875 785.52463263 427.39997722 788.54341237 425.78125 791.6328125 C423.73467711 795.71551658 421.91145868 799.88740631 420.0625 804.0625 C413.65638096 818.42438826 406.74955144 832.49208197 398.74609375 846.03515625 C397.15156011 848.66506548 397.15156011 848.66506548 396.25 851.6875 C395.59 851.6875 394.93 851.6875 394.25 851.6875 C394.01152344 852.36167969 393.77304688 853.03585937 393.52734375 853.73046875 C391.95310958 857.37479679 389.93149033 860.65633209 387.8125 864 C387.3693042 864.7022168 386.9261084 865.40443359 386.46948242 866.12792969 C379.25631413 877.47357639 371.53913751 888.41300893 363.5 899.1875 C362.88616455 900.01217773 362.2723291 900.83685547 361.63989258 901.68652344 C358.22431418 906.22467234 354.68270814 910.58188999 350.90673828 914.82470703 C349.36763074 916.55523909 347.85956236 918.30664248 346.36328125 920.07421875 C336.35950101 931.87599481 325.92050437 943.10005515 315 954.0625 C314.16017578 954.90699707 313.32035156 955.75149414 312.45507812 956.62158203 C308.09497184 960.97048646 303.66707623 965.17190949 298.99658203 969.18603516 C296.72466238 971.13911118 294.52136909 973.16364729 292.3125 975.1875 C287.78886048 979.26427543 283.09854138 983.00849496 278.25 986.6875 C277.31929687 987.41324219 276.38859375 988.13898437 275.4296875 988.88671875 C252.87937559 1006.43526975 229.23479262 1021.82289286 204.25 1035.6875 C203.59547852 1036.05536621 202.94095703 1036.42323242 202.26660156 1036.80224609 C156.57421257 1062.4414338 104.0240437 1079.6680311 52.25 1087.6875 C51.16799316 1087.85733398 50.08598633 1088.02716797 48.97119141 1088.20214844 C45.4202286 1088.75273933 41.86716327 1089.28635148 38.3125 1089.8125 C36.72550293 1090.05081543 36.72550293 1090.05081543 35.10644531 1090.29394531 C14.71711629 1093.19623218 -5.60795455 1094.09368848 -26.1875 1094.0625 C-27.42213989 1094.06262085 -28.65677979 1094.0627417 -29.92883301 1094.06286621 C-57.93230514 1094.02409148 -86.13325816 1092.58417989 -113.53662109 1086.39355469 C-116.83623844 1085.66855139 -120.14342868 1084.99464973 -123.45495605 1084.32672119 C-146.51462756 1079.65954808 -168.65891716 1073.80510667 -190.75 1065.6875 C-191.42995026 1065.43799591 -192.10990051 1065.18849182 -192.81045532 1064.931427 C-200.39207846 1062.14229407 -207.94758818 1059.32890836 -215.3125 1056 C-216.58452986 1055.43335673 -217.85666443 1054.86694847 -219.12890625 1054.30078125 C-220.32386719 1053.76839844 -221.51882813 1053.23601562 -222.75 1052.6875 C-223.83748535 1052.22931885 -224.9249707 1051.7711377 -226.04541016 1051.29907227 C-229.6459643 1049.75818803 -233.14425381 1048.04712592 -236.64453125 1046.2890625 C-237.27679123 1045.97222504 -237.90905121 1045.65538757 -238.56047058 1045.32894897 C-240.56210582 1044.32536324 -242.56233021 1043.31900268 -244.5625 1042.3125 C-245.89118176 1041.64564544 -247.21995714 1040.9789774 -248.54882812 1040.3125 C-251.10807763 1039.02864813 -253.66682169 1037.74379846 -256.22509766 1036.45800781 C-260.73035906 1034.19507973 -265.2394155 1031.93979541 -269.75 1029.6875 C-269.75 1029.0275 -269.75 1028.3675 -269.75 1027.6875 C-272.06 1027.0275 -274.37 1026.3675 -276.75 1025.6875 C-276.75 1025.0275 -276.75 1024.3675 -276.75 1023.6875 C-277.83063721 1023.29159668 -277.83063721 1023.29159668 -278.93310547 1022.88769531 C-281.81398946 1021.66023599 -284.21462796 1020.21693266 -286.8203125 1018.484375 C-287.79009033 1017.84056885 -288.75986816 1017.1967627 -289.7590332 1016.53344727 C-290.78730225 1015.84178467 -291.81557129 1015.15012207 -292.875 1014.4375 C-293.93871826 1013.72456787 -295.00243652 1013.01163574 -296.09838867 1012.27709961 C-312.99680774 1000.87543691 -329.19300306 988.82260156 -344.20703125 975.015625 C-346.32067054 973.08055738 -348.45659848 971.18541703 -350.625 969.3125 C-361.58914942 959.76671077 -372.40545235 949.89155559 -381.875 938.84375 C-384.09775991 936.2875761 -386.39222272 933.80371559 -388.6875 931.3125 C-393.27871908 926.26697738 -397.55162865 921.06084217 -401.75 915.6875 C-402.74126265 914.46018995 -403.73353148 913.23369218 -404.7265625 912.0078125 C-422.896255 889.36323474 -438.11281944 864.6533126 -451.70410156 839.04663086 C-454.36610499 834.04153352 -457.06652745 829.10412402 -460.03515625 824.2734375 C-462.14748061 820.79913267 -463.7634032 817.51818401 -465 813.625 C-466.85740162 808.10620286 -468.93345895 802.73978116 -471.15795898 797.35839844 C-485.5672879 762.35370931 -495.14556056 725.76923 -500.875 688.375 C-501.03379639 687.35720459 -501.19259277 686.33940918 -501.35620117 685.29077148 C-504.44780427 664.2805556 -505.12163643 643.33803365 -505.0625 622.125 C-505.06087544 620.7881878 -505.05937095 619.45137545 -505.0579834 618.11456299 C-505.02724997 599.11786199 -504.52503076 580.50567737 -501.75 561.6875 C-501.4671095 559.53537125 -501.18587826 557.38302379 -500.90625 555.23046875 C-494.46004576 507.83589297 -480.28239111 459.03233444 -457.81738281 416.71630859 C-456.62189119 414.44399949 -455.46280865 412.15485405 -454.3046875 409.86328125 C-437.71376473 377.26946063 -416.88929984 347.14912146 -392.75 319.6875 C-392.16089844 319.01082275 -391.57179688 318.33414551 -390.96484375 317.63696289 C-384.40038345 310.20798661 -377.43912734 303.19048828 -370.43066406 296.18286133 C-368.38055982 294.13056576 -366.33861249 292.07038085 -364.296875 290.00976562 C-357.08338208 282.76574385 -349.79511322 276.00705729 -341.75 269.6875 C-340.64753721 268.75346902 -339.55122301 267.81206496 -338.46484375 266.859375 C-305.48478542 238.10039305 -265.26802335 214.94541375 -224.75 198.6875 C-223.65671387 198.2445459 -222.56342773 197.8015918 -221.43701172 197.34521484 C-203.85110905 190.27474715 -186.14624656 184.64992694 -167.90136719 179.59594727 C-165.18207636 178.81205501 -162.51628467 177.95544939 -159.84375 177.02734375 C-155.94145303 175.69139788 -152.07811506 174.90921338 -148 174.25 C-143.39161412 173.49711214 -138.80628319 172.72394472 -134.24609375 171.71484375 C-116.95598474 167.96578612 -99.366742 166.8767829 -81.75 165.6875 C-81.01424744 165.63770996 -80.27849487 165.58791992 -79.52044678 165.53662109 C-70.47030077 164.93564161 -61.44854395 164.5183374 -52.375 164.5625 C-51.30685059 164.56660889 -50.23870117 164.57071777 -49.13818359 164.57495117 C-1.78028557 164.9044652 44.75717105 173.51356961 89.625 188.375 C90.86213745 188.78455933 90.86213745 188.78455933 92.12426758 189.20239258 C100.23974829 191.94003566 108.13852166 195.16864228 116 198.5625 C117.17304687 199.0678125 118.34609375 199.573125 119.5546875 200.09375 C120.15506836 200.35285156 120.75544922 200.61195313 121.37402344 200.87890625 C124.62201735 202.27887448 127.87372697 203.67016857 131.125 205.0625 C133.16666667 205.9375 135.20833333 206.8125 137.25 207.6875 C137.25 208.3475 137.25 209.0075 137.25 209.6875 C137.91515625 209.77515625 138.5803125 209.8628125 139.265625 209.953125 C143.16122024 210.91172697 146.44704769 212.60587454 150 214.4375 C150.70576172 214.79585937 151.41152344 215.15421875 152.13867188 215.5234375 C157.24076076 218.12836075 162.28920471 220.82126272 167.25 223.6875 C167.25 224.3475 167.25 225.0075 167.25 225.6875 C167.89582031 225.74421875 168.54164063 225.8009375 169.20703125 225.859375 C173.63972591 227.06570525 177.101385 229.45700166 180.9375 231.9375 C181.77112061 232.47109131 182.60474121 233.00468262 183.46362305 233.55444336 C202.4622296 245.8436579 220.27054361 259.75499435 237.25 274.6875 C238.16523437 275.48929687 239.08046875 276.29109375 240.0234375 277.1171875 C246.53320053 282.95545635 252.76528443 289.07645602 258.97167969 295.23394775 C260.39381295 296.64417858 261.81989288 298.05042595 263.24609375 299.45654297 C269.35365809 305.55647286 274.86607643 311.94700256 280.25 318.6875 C281.19743828 319.81191572 282.15065744 320.93152581 283.11328125 322.04296875 C288.73202283 328.53991874 294.00870404 335.21465199 299.1027832 342.1315918 C301.28486047 345.09140204 303.47823941 347.99070157 305.87890625 350.77734375 C308.24433472 353.68054673 310.01204736 356.53382338 311.8125 359.8125 C314.11395281 363.9563422 316.45632095 368.06059963 318.94140625 372.09765625 C343.98511412 412.78360551 361.29726065 456.29424906 372.25 502.6875 C372.48412598 503.63689453 372.71825195 504.58628906 372.95947266 505.56445312 C388.13468466 567.4767222 387.65881181 641.68837718 368.25 702.6875 C367.57707029 705.06073304 366.9102221 707.43570043 366.25 709.8125 C360.79867518 728.75096711 355.01876841 747.62233402 346.35742188 765.36328125 C345.00421865 768.20333739 343.71300711 771.06869655 342.421875 773.9375 C337.2763708 785.34456859 332.12992444 796.22556822 325.25 806.6875 C324.25898731 808.29750918 323.27383193 809.91113116 322.29296875 811.52734375 C309.02816494 833.3627902 294.12160687 853.51730908 277.25 872.6875 C276.425 873.6259375 275.6 874.564375 274.75 875.53125 C268.72996468 882.2285393 262.41690967 888.62125725 256.0625 895 C255.21880859 895.84836426 254.37511719 896.69672852 253.50585938 897.57080078 C248.58169096 902.48239768 243.55794546 907.19387615 238.25 911.6875 C237.61989014 912.22431396 236.98978027 912.76112793 236.34057617 913.31420898 C219.57285086 927.50555999 202.07500137 940.3582719 183.25 951.6875 C182.4652832 952.16364746 181.68056641 952.63979492 180.87207031 953.13037109 C133.37515941 981.75824829 80.48073504 1000.2457206 25.45898438 1007.265625 C22.39745778 1007.66811419 19.3487814 1008.12453709 16.296875 1008.59375 C-37.21761758 1016.34523788 -96.51085617 1009.81259983 -147.49365234 992.4375 C-149.87636743 991.64549602 -152.27132027 990.91067448 -154.67578125 990.1875 C-163.05573078 987.65796777 -171.01678874 984.94446714 -178.890625 981.08203125 C-180.84682918 980.12798085 -182.83128564 979.23034886 -184.8359375 978.3828125 C-190.35990812 976.04464386 -195.72739575 973.36287328 -201.125 970.75 C-208.28680261 967.2839257 -215.45061439 963.85570915 -222.75 960.6875 C-222.75 960.0275 -222.75 959.3675 -222.75 958.6875 C-223.430625 958.419375 -224.11125 958.15125 -224.8125 957.875 C-228.14710809 956.52696694 -231.44743237 955.11213702 -234.75 953.6875 C-234.75 953.0275 -234.75 952.3675 -234.75 951.6875 C-235.45125 951.419375 -236.1525 951.15125 -236.875 950.875 C-239.9149824 949.6193551 -242.8227774 948.18514877 -245.75 946.6875 C-245.75 946.0275 -245.75 945.3675 -245.75 944.6875 C-246.72066406 944.38005859 -246.72066406 944.38005859 -247.7109375 944.06640625 C-252.00037728 942.12016944 -255.58873133 939.40624952 -259.375 936.625 C-260.17897217 936.0386377 -260.98294434 935.45227539 -261.8112793 934.84814453 C-267.97172452 930.32556841 -273.91974123 925.63016714 -279.75 920.6875 C-280.73742187 919.8728125 -281.72484375 919.058125 -282.7421875 918.21875 C-296.59230136 906.74618195 -310.20820923 894.45126834 -321.92578125 880.78515625 C-323.1696954 879.35478816 -324.43934069 877.94649275 -325.73046875 876.55859375 C-370.08405906 828.81183259 -400.80159958 765.29489977 -413.75 701.6875 C-413.97381348 700.59195801 -414.19762695 699.49641602 -414.42822266 698.36767578 C-419.51529073 672.92508373 -421.88124967 647.64827461 -422.5625 621.75 C-422.59009399 620.80624512 -422.61768799 619.86249023 -422.64611816 618.89013672 C-422.95132513 607.86423473 -422.6359084 597.57492441 -420.75 586.6875 C-420.51033473 584.7882206 -420.28449296 582.88713259 -420.07421875 580.984375 C-411.61190636 506.65253623 -382.72939852 433.99620308 -332.75 377.6875 C-332.15509766 377.00647217 -331.56019531 376.32544434 -330.94726562 375.6237793 C-324.51835448 368.35223659 -317.71965766 361.47100633 -310.85791016 354.61010742 C-308.88023246 352.63023826 -306.91071808 350.64248312 -304.94140625 348.65429688 C-297.85562674 341.53616423 -290.71555754 334.82513753 -282.75 328.6875 C-281.53739502 327.74040161 -281.53739502 327.74040161 -280.30029297 326.77416992 C-226.88946346 285.41036528 -164.71743376 259.44466821 -97.75 250.6875 C-97.09587128 250.60029694 -96.44174255 250.51309387 -95.76779175 250.42324829 C-81.94667637 248.62703862 -68.23745638 248.3258894 -54.3125 248.375 C-53.21094574 248.37715515 -52.10939148 248.3793103 -50.97445679 248.38153076 C-34.06135167 248.43455134 -17.46985895 248.91239915 -0.75 251.6875 C0.48621094 251.89149414 1.72242188 252.09548828 2.99609375 252.30566406 C28.3487555 256.62114439 53.45480516 262.80178341 77.25 272.6875 C78.03955078 273.01121582 78.82910156 273.33493164 79.64257812 273.66845703 C113.93108479 287.8114215 113.93108479 287.8114215 125.25 295.6875 C125.25 296.3475 125.25 297.0075 125.25 297.6875 C125.91644531 297.75453125 126.58289063 297.8215625 127.26953125 297.890625 C131.36911448 298.98671278 134.42884824 301.09826404 137.9375 303.4375 C138.67718018 303.92484619 139.41686035 304.41219238 140.17895508 304.91430664 C152.17400462 312.8870339 163.81827081 321.17048536 174.61035156 330.72363281 C177.50515138 333.26920782 180.32407388 335.49070965 183.6875 337.375 C187.685536 339.6510674 189.92420713 342.88177314 192.6015625 346.55859375 C194.79986146 349.39762913 197.46974837 351.42854555 200.25 353.6875 C201.96611041 355.52960333 203.59276275 357.43278197 205.22265625 359.3515625 C207.53440821 362.01519963 209.95418883 364.56013476 212.375 367.125 C219.24829978 374.52581896 225.24510128 382.57904829 231.25 390.6875 C231.91298096 391.57260254 231.91298096 391.57260254 232.58935547 392.47558594 C254.41791921 421.67693673 272.60638191 455.49126833 282.52636719 490.63037109 C284.17765318 496.58452821 284.17765318 496.58452821 288.0390625 501.265625 C290.25 503.6875 290.25 503.6875 290.24853516 505.71655273 C289.99864555 507.40629056 289.74138256 509.09494717 289.47851562 510.78271484 C289.03021926 516.48125139 290.73741528 521.97466135 292 527.5 C300.39051526 566.74625111 300.87411986 607.9712503 295.25 647.6875 C295.0658252 648.99920166 295.0658252 648.99920166 294.87792969 650.33740234 C293.41892967 660.31527434 291.02285801 669.99819239 288.25 679.6875 C287.91871094 680.86054687 287.58742188 682.03359375 287.24609375 683.2421875 C286.58559831 685.56816751 285.91899385 687.89242202 285.24609375 690.21484375 C284.57452122 692.55612995 283.92123591 694.90272922 283.28515625 697.25390625 C281.1566751 705.04124091 278.53832812 712.32029941 275.25 719.6875 C274.60526691 721.16137006 273.96075237 722.63533573 273.31640625 724.109375 C264.64251941 743.80888548 255.28841338 762.80874524 243.25 780.6875 C242.75886719 781.41807617 242.26773438 782.14865234 241.76171875 782.90136719 C228.80134698 802.02560969 213.87234413 819.29045225 197.5625 835.625 C197.03498138 836.15385803 196.50746277 836.68271606 195.96395874 837.2276001 C188.15445074 845.03282487 180.19246808 852.20250406 171.25 858.6875 C169.67633593 859.93151873 168.1027089 861.17560073 166.53393555 862.42578125 C101.86944381 913.53238674 15.45108507 934.50664656 -65.8671875 925.9296875 C-78.06329468 924.44986978 -89.92609062 921.97530178 -101.75 918.6875 C-103.31485785 918.3086503 -104.88138576 917.93665514 -106.44921875 917.5703125 C-115.2209124 915.50834821 -123.80022452 913.15485276 -132.3125 910.1875 C-133.09657227 909.91510498 -133.88064453 909.64270996 -134.68847656 909.36206055 C-146.37319941 905.16940852 -157.44198057 899.45952481 -168.59228516 894.04248047 C-170.37328133 893.17783173 -172.15537454 892.31544377 -173.9375 891.453125 C-174.98292969 890.94555664 -176.02835938 890.43798828 -177.10546875 889.91503906 C-179.76706696 888.61925902 -179.76706696 888.61925902 -182.75 887.6875 C-182.75 887.0275 -182.75 886.3675 -182.75 885.6875 C-183.40355469 885.45804688 -184.05710937 885.22859375 -184.73046875 884.9921875 C-188.72766935 883.26506589 -192.35195393 881.08194956 -196.0625 878.8125 C-196.85285645 878.3292627 -197.64321289 877.84602539 -198.45751953 877.34814453 C-205.95006672 872.68980632 -212.9537143 867.49621893 -219.91894531 862.09228516 C-221.6857881 860.73676337 -223.47252217 859.41527152 -225.2734375 858.10546875 C-226.33820313 857.32816406 -227.40296875 856.55085937 -228.5 855.75 C-229.42296875 855.08097656 -230.3459375 854.41195312 -231.296875 853.72265625 C-233.86475312 851.59229876 -235.71219354 849.318431 -237.75 846.6875 C-238.82332162 845.69474247 -239.92850143 844.73534021 -241.0625 843.8125 C-251.62633504 834.75213212 -261.18898486 824.64320469 -269.75 813.6875 C-270.70054295 812.52392756 -271.65384331 811.36260416 -272.609375 810.203125 C-283.74776519 796.62876923 -292.90495608 782.19811138 -301.50097656 766.90234375 C-302.59795578 764.95711399 -303.71397897 763.02461327 -304.8359375 761.09375 C-315.60300152 741.93277076 -323.02103974 720.84689764 -328.75 699.6875 C-328.95173828 698.94951172 -329.15347656 698.21152344 -329.36132812 697.45117188 C-349.20514975 623.39983752 -338.52960317 542.14279161 -300.83764648 475.50708008 C-285.75022017 449.757913 -266.67275124 424.84528932 -243.8359375 405.50390625 C-242.26383481 404.13494043 -240.73404854 402.71715627 -239.2265625 401.27734375 C-207.13045687 370.7200925 -164.26867149 350.63819811 -121.75 339.6875 C-120.82574219 339.44660645 -119.90148437 339.20571289 -118.94921875 338.95751953 C-71.98930293 326.99336842 -16.62784068 327.26880836 29.03808594 344.36425781 C33.45971965 345.97557709 37.26376885 346.84567329 41.98046875 347.078125 C46.31610609 347.37512256 48.34912544 348.08464897 51.51416016 351.23388672 C55.63870738 354.68783245 61.07984834 356.52961881 65.9375 358.75 C83.81543248 367.10598038 99.73777157 377.52329809 115.25 389.6875 C116.19875 390.42226563 117.1475 391.15703125 118.125 391.9140625 C146.2261724 414.24445843 168.4065553 442.10700565 185.25 473.6875 C185.59272949 474.32768066 185.93545898 474.96786133 186.28857422 475.62744141 C200.13577678 501.73760459 208.56232792 529.56872704 213.25 558.6875 C213.38277344 559.50041504 213.51554688 560.31333008 213.65234375 561.15087891 C219.22920209 597.14198013 215.84702786 637.17653665 203.99511719 671.49804688 C203.1349383 674.02559742 202.32271612 676.5668757 201.5078125 679.109375 C197.53350304 691.27591968 192.75289617 702.47123956 186.43310547 713.60058594 C185.34082853 715.52728492 184.27724762 717.46655927 183.22265625 719.4140625 C151.70026929 776.52824419 98.65177195 816.74850442 36.76025391 835.68896484 C27.40464954 838.35028226 17.85000462 840.16237988 8.25 841.6875 C7.14237305 841.87151367 6.03474609 842.05552734 4.89355469 842.24511719 C-5.74794752 843.8590352 -16.25417766 844.08428428 -27 844.0625 C-28.37863724 844.06268127 -28.37863724 844.06268127 -29.78512573 844.06286621 C-45.41732791 844.03370956 -60.40643637 842.86928206 -75.75 839.6875 C-76.61915039 839.51138184 -77.48830078 839.33526367 -78.38378906 839.15380859 C-85.40123062 837.70178229 -92.19063187 835.97890926 -98.8815918 833.39477539 C-101.32709656 832.46904335 -103.81438335 831.70838898 -106.3125 830.9375 C-124.61461957 824.85204524 -143.15217135 814.96717169 -158.75 803.6875 C-159.67159912 803.02645264 -159.67159912 803.02645264 -160.61181641 802.35205078 C-169.88594225 795.67078861 -178.53997549 788.65426452 -186.75 780.6875 C-187.34167969 780.12160156 -187.93335938 779.55570313 -188.54296875 778.97265625 C-227.13630582 741.970797 -253.47220462 689.66329856 -255.13450623 635.68107605 C-255.21765381 631.11984827 -255.21840554 626.56174685 -255.1875 622 C-255.18293793 620.56223709 -255.18293793 620.56223709 -255.17828369 619.09542847 C-255.10755725 603.97710207 -254.33243082 589.43964145 -250.75 574.6875 C-250.53037598 573.77613281 -250.31075195 572.86476563 -250.08447266 571.92578125 C-241.44480829 537.24483556 -224.6529349 504.50868471 -199.75 478.6875 C-199.1612207 478.06762207 -198.57244141 477.44774414 -197.96582031 476.80908203 C-176.23074131 454.01232391 -149.67436718 436.03005441 -119.75 425.6875 C-118.9151709 425.39746094 -118.0803418 425.10742188 -117.22021484 424.80859375 C-103.18646545 420.02646421 -89.48440056 417.17679288 -74.75 415.6875 C-73.93700439 415.5946875 -73.12400879 415.501875 -72.28637695 415.40625 C-23.29413179 409.99113951 26.85604218 425.16126225 65.2578125 455.828125 C68.69613326 458.66789595 72.00282719 461.6318739 75.25 464.6875 C75.77916016 465.18491699 76.30832031 465.68233398 76.85351562 466.19482422 C106.37700824 494.24935185 124.72892668 531.01908116 130.90722656 571.1105957 C131.12910645 572.52151489 131.12910645 572.52151489 131.35546875 573.9609375 C131.54338989 575.22043213 131.54338989 575.22043213 131.73510742 576.50537109 C132.180726 578.96144734 132.180726 578.96144734 134.25 581.6875 C133.98320419 584.02937437 133.63523398 586.36217199 133.25 588.6875 C133.10548026 591.02580861 133.03474288 593.36137438 132.9597168 595.70288086 C132.41582934 612.45680899 130.45828372 628.70469118 125.25 644.6875 C124.85787711 646.04737282 124.46870465 647.40809886 124.08203125 648.76953125 C116.84531063 673.31767673 102.03593073 695.49673018 84.25 713.6875 C83.51394531 714.47382812 82.77789063 715.26015625 82.01953125 716.0703125 C56.00714967 743.26722876 17.32575079 759.66792751 -20.0625 761.00390625 C-41.39575971 761.46349314 -62.84248323 759.88711946 -82.44921875 750.75 C-84.27416323 749.90724126 -86.12369486 749.11775715 -87.98046875 748.34765625 C-100.64381455 742.93429174 -112.26531422 735.56960427 -122.75 726.6875 C-123.25724609 726.25856445 -123.76449219 725.82962891 -124.28710938 725.38769531 C-140.45405615 711.56690241 -152.05820805 694.97593957 -161.21875 675.85546875 C-162.16659379 673.89449602 -163.15885095 671.95352555 -164.21875 670.05078125 C-167.28282375 664.51941556 -168.54807727 659.53227732 -169.29296875 653.25390625 C-169.54514383 651.28607849 -169.82717848 649.31878867 -170.23364258 647.37695312 C-171.92443383 639.27804039 -172.10640392 631.3005593 -172.0625 623.0625 C-172.05976578 622.00035278 -172.05976578 622.00035278 -172.05697632 620.91674805 C-172.01062536 610.22613347 -171.49876967 600.07297251 -168.75 589.6875 C-168.58371094 589.03507324 -168.41742187 588.38264648 -168.24609375 587.71044922 C-163.24717899 568.49702778 -153.5155012 550.9709506 -139.75 536.6875 C-139.20811035 536.10919434 -138.6662207 535.53088867 -138.10791016 534.93505859 C-116.37660005 511.7816831 -88.41603319 498.81366559 -56.46875 497.55859375 C-34.91632849 497.19453258 -16.48913654 502.52347305 2.25 512.6875 C2.25 513.3475 2.25 514.0075 2.25 514.6875 C2.8378125 514.80222656 3.425625 514.91695312 4.03125 515.03515625 C8.06649073 516.22157386 11.00117861 519.09686771 14.25 521.6875 C15.22066406 522.42484375 16.19132813 523.1621875 17.19140625 523.921875 C24.16743983 529.40491516 28.90319601 534.90368821 33.25 542.6875 C34.27049897 544.29187939 35.29132697 545.89604956 36.3125 547.5 C48.32559717 567.7680864 52.94103391 592.28721922 47.22265625 615.3203125 C40.57701393 638.32651203 27.90100085 658.23626408 6.54296875 670.1171875 C-4.79862733 675.52563545 -15.98206392 677.86983548 -28.5 677.9375 C-29.90765625 677.9684375 -29.90765625 677.9684375 -31.34375 678 C-46.96621792 678.08631198 -62.56430617 670.68728585 -73.78662109 659.96679688 C-84.94118649 648.66102256 -90.03302979 634.75544348 -90.1394043 619.0625 C-90.00129391 611.92921945 -87.91195122 606.06439603 -84.75 599.6875 C-84.41226563 598.96304688 -84.07453125 598.23859375 -83.7265625 597.4921875 C-79.8691434 590.32840916 -73.25999111 582.74142903 -65.48388672 579.84277344 C-58.12729999 577.83144975 -50.25579613 576.35862384 -43.0625 579.5 C-41.969375 580.221875 -40.87625 580.94375 -39.75 581.6875 C-39.75 582.3475 -39.75 583.0075 -39.75 583.6875 C-39.193125 583.72875 -38.63625 583.77 -38.0625 583.8125 C-34.57664484 585.13147222 -32.69927774 587.63317396 -30.75 590.6875 C-28.72209908 595.75725231 -28.66296359 599.36102158 -29.75 604.6875 C-30.41 604.6875 -31.07 604.6875 -31.75 604.6875 C-31.75 605.3475 -31.75 606.0075 -31.75 606.6875 C-34.39 607.3475 -37.03 608.0075 -39.75 608.6875 C-39.09 607.6975 -38.43 606.7075 -37.75 605.6875 C-37.21502994 600.8727695 -37.93351389 597.6481836 -40.75 593.6875 C-45.42713352 590.87489944 -50.36027997 590.03701655 -55.75 590.6875 C-64.27586094 593.00520977 -69.99268975 597.12367613 -74.5625 604.6875 C-78.86684701 615.56163981 -79.17362612 625.81852727 -75.01171875 636.90234375 C-69.40711311 649.2741203 -60.20716239 657.62003868 -47.81640625 662.94921875 C-32.3720916 668.44438689 -15.42361283 666.62244691 -0.75 659.6875 C12.51681466 653.00153001 23.01401828 643.239829 28.2109375 629.296875 C29.58243615 625.85266036 31.31187035 622.64544831 33.1015625 619.40234375 C39.4616537 604.36743428 38.33464884 583.48816013 32.79296875 568.375 C22.61875295 544.05991212 5.32974756 527.16355663 -18.75 516.6875 C-31.02207289 512.1061264 -42.97491499 510.52850118 -56 510.4375 C-57.38433228 510.42348145 -57.38433228 510.42348145 -58.79663086 510.40917969 C-64.55536614 510.43606792 -70.27871785 510.73191623 -75.75 512.6875 C-76.389375 513.38875 -77.02875 514.09 -77.6875 514.8125 C-79.75 516.6875 -79.75 516.6875 -81.609375 516.6640625 C-82.37765625 516.58929687 -83.1459375 516.51453125 -83.9375 516.4375 C-98.29459025 515.88774397 -113.76339988 528.3395903 -123.93359375 537.5 C-131.58370749 544.68749269 -139.02865993 553.24481987 -143.75 562.6875 C-144.41 562.6875 -145.07 562.6875 -145.75 562.6875 C-145.9046875 563.7703125 -145.9046875 563.7703125 -146.0625 564.875 C-146.82095686 567.97777805 -148.10093089 569.96019339 -149.75 572.6875 C-152.10005941 578.26889109 -153.62073776 583.86567104 -155.00390625 589.7578125 C-155.75 592.6875 -155.75 592.6875 -156.76953125 595.703125 C-165.62314187 622.6519637 -158.21715901 654.91602278 -145.87988281 679.55761719 C-135.93680977 698.30078254 -117.52791974 722.76152675 -96.75 729.6875 C-96.75 730.3475 -96.75 731.0075 -96.75 731.6875 C-95.44675781 732.09548828 -95.44675781 732.09548828 -94.1171875 732.51171875 C-90.885623 733.64014208 -87.94339517 734.98971199 -84.875 736.5 C-56.35592645 749.74215193 -19.98146681 752.71094831 10.25 743.6875 C11.46502197 743.33341064 11.46502197 743.33341064 12.70458984 742.97216797 C36.84740347 735.73352425 57.20846224 723.07986698 75.25 705.6875 C75.89324219 705.09582031 76.53648437 704.50414062 77.19921875 703.89453125 C82.03033434 699.33368786 85.980208 694.06675628 89.94921875 688.76171875 C91.23976702 687.03733592 92.54396065 685.32231848 93.89453125 683.64453125 C97.0210935 679.66784633 98.10883949 675.92160238 99.3828125 671.140625 C100.28805765 668.57984142 101.32720833 667.06796417 103.0625 665 C107.65322641 659.33848381 109.8696571 652.48773453 112.25 645.6875 C112.63285156 644.59566406 113.01570312 643.50382813 113.41015625 642.37890625 C125.64222703 603.63626383 120.85019996 559.86308415 103.25 523.6875 C102.95399902 523.07100586 102.65799805 522.45451172 102.35302734 521.81933594 C94.45599814 505.58157626 83.84086732 491.5556992 71.25 478.6875 C70.65058594 478.0378125 70.05117188 477.388125 69.43359375 476.71875 C52.82550405 459.07005317 23.89708242 439.70505804 -0.30078125 436.2421875 C-2.75 435.6875 -2.75 435.6875 -5.89453125 434.265625 C-10.47097254 432.22959823 -15.21727004 431.43888035 -20.125 430.5625 C-21.01960937 430.39363281 -21.91421875 430.22476562 -22.8359375 430.05078125 C-68.78013755 421.56980246 -117.75776972 432.00024966 -156.4609375 458.16015625 C-173.99303104 470.31244205 -190.40507133 484.20418133 -202.75 501.6875 C-203.50667969 502.72390625 -204.26335937 503.7603125 -205.04296875 504.828125 C-221.35890036 527.63111376 -232.88267756 553.31615599 -238.75 580.6875 C-239.12444235 582.1876393 -239.49932007 583.68767015 -239.875 585.1875 C-247.93234078 623.45986873 -241.94895763 663.67192339 -227.75 699.6875 C-227.45399902 700.44047363 -227.15799805 701.19344727 -226.85302734 701.96923828 C-217.48162523 725.33445749 -203.18337734 746.56668665 -185.75 764.6875 C-185.23276367 765.23583496 -184.71552734 765.78416992 -184.18261719 766.34912109 C-166.66600161 785.10635741 -166.66600161 785.10635741 -144.75 797.6875 C-144.75 798.3475 -144.75 799.0075 -144.75 799.6875 C-143.1 800.0175 -141.45 800.3475 -139.75 800.6875 C-139.75 801.3475 -139.75 802.0075 -139.75 802.6875 C-139.08355469 802.93757812 -138.41710937 803.18765625 -137.73046875 803.4453125 C-134.07308877 804.96962028 -130.58803834 806.75850377 -127.0625 808.5625 C-121.05881404 811.59906605 -115.04606512 814.30754411 -108.75 816.6875 C-107.59371094 817.17476562 -107.59371094 817.17476562 -106.4140625 817.671875 C-95.36497326 822.32035914 -83.81002358 825.16667606 -72.03125 827.26806641 C-70.41638964 827.56497673 -68.8046064 827.87885547 -67.1953125 828.20458984 C-24.4890269 836.83204591 21.45619693 831.43551954 61.25 813.6875 C62.13606934 813.29578613 63.02213867 812.90407227 63.93505859 812.50048828 C86.62831287 802.35385469 106.75384858 789.57193832 125.03125 772.71875 C127.02015799 770.89791875 129.05682976 769.16662594 131.125 767.4375 C140.20747933 759.49262414 148.05836112 750.16959056 155.04443359 740.36425781 C156.35866188 738.536368 157.70394736 736.73367009 159.05078125 734.9296875 C175.39586262 712.76813735 187.63875346 687.46304847 194.25 660.6875 C194.65918242 659.18297293 195.07082578 657.67911388 195.484375 656.17578125 C196.87302408 651.04156872 198.1083053 645.88201473 199.25 640.6875 C199.41951172 639.91664063 199.58902344 639.14578125 199.76367188 638.3515625 C205.40007241 610.94134909 204.69944429 578.05712586 199.25 550.6875 C199.05132324 549.68879883 198.85264648 548.69009766 198.64794922 547.66113281 C189.45018556 503.16738173 169.07414741 462.5953603 138.3828125 429.04296875 C136.55504283 427.02438796 134.80653806 424.96521647 133.0625 422.875 C124.03334614 412.55298808 113.3350484 403.70002787 102.25 395.6875 C101.66057617 395.25759766 101.07115234 394.82769531 100.46386719 394.38476562 C67.91676242 370.80489596 29.95896079 354.31709836 -9.75 347.6875 C-10.69004883 347.52668945 -11.63009766 347.36587891 -12.59863281 347.20019531 C-40.63206876 342.63617503 -71.85256624 342.13717258 -99.75 347.6875 C-101.24781006 347.97753906 -101.24781006 347.97753906 -102.77587891 348.2734375 C-127.06053076 353.10427538 -150.5292521 360.74902332 -172.75 371.6875 C-173.46236816 372.03216309 -174.17473633 372.37682617 -174.90869141 372.73193359 C-192.39667853 381.26354702 -208.69249206 392.39605432 -223.75 404.6875 C-224.5536499 405.33887939 -224.5536499 405.33887939 -225.37353516 406.00341797 C-239.44890196 417.48088593 -252.7051488 430.24423305 -263.75 444.6875 C-264.5440625 445.6878125 -265.338125 446.688125 -266.15625 447.71875 C-276.82207754 461.21196361 -285.6694875 475.52031656 -293.75 490.6875 C-294.27158691 491.6468042 -294.27158691 491.6468042 -294.80371094 492.62548828 C-322.78329103 544.25804998 -333.20449905 608.85847969 -322.75 666.6875 C-322.58371094 667.66783203 -322.41742188 668.64816406 -322.24609375 669.65820312 C-316.87921393 700.96500206 -306.70327596 730.67359167 -291.75 758.6875 C-291.37407715 759.40067383 -290.9981543 760.11384766 -290.61083984 760.84863281 C-281.89482881 777.31022712 -271.54603314 792.29206207 -259.75 806.6875 C-259.29044922 807.25146484 -258.83089844 807.81542969 -258.35742188 808.39648438 C-237.77278884 833.50458337 -206.49007649 866.1074745 -174.75 876.6875 C-174.75 877.3475 -174.75 878.0075 -174.75 878.6875 C-173.51056641 879.06068359 -173.51056641 879.06068359 -172.24609375 879.44140625 C-168.24320414 880.8681345 -164.58329674 882.68073867 -160.8125 884.625 C-128.76779033 901.05896624 -90.22919127 912.68304203 -54.12890625 913.546875 C-50.75 913.6875 -50.75 913.6875 -49.02294922 914.18579102 C-45.6999645 914.91927475 -42.39034538 914.84977706 -39.00390625 914.85546875 C-37.86575974 914.86182091 -37.86575974 914.86182091 -36.70462036 914.86830139 C-34.24052423 914.87820625 -31.77661258 914.87821799 -29.3125 914.875 C-28.4723233 914.87439575 -27.63214661 914.8737915 -26.76651001 914.87316895 C-13.99192255 914.84813899 -1.41246159 914.51057741 11.25 912.6875 C12.17425781 912.55859375 13.09851563 912.4296875 14.05078125 912.296875 C46.72230128 907.62333306 78.60995237 898.30140791 108.25 883.6875 C109.15379395 883.24712402 110.05758789 882.80674805 110.98876953 882.35302734 C139.2364767 868.48246234 166.61705585 850.06686582 188.58984375 827.34765625 C190.25 825.6875 190.25 825.6875 193.3125 823.1875 C196.31516324 820.63204193 198.75253114 817.94321331 201.296875 814.9453125 C202.62606941 813.40876376 203.9927793 811.9040576 205.390625 810.4296875 C223.12151115 791.83500502 223.12151115 791.83500502 235.25 769.6875 C235.91 769.6875 236.57 769.6875 237.25 769.6875 C238.32525194 767.03521188 239.34456151 764.40381546 240.25 761.6875 C240.91 761.6875 241.57 761.6875 242.25 761.6875 C242.52021973 760.97811279 242.79043945 760.26872559 243.06884766 759.5378418 C244.27967012 756.61590044 245.66473891 753.87483419 247.1484375 751.08203125 C247.71046875 750.01533203 248.2725 748.94863281 248.8515625 747.84960938 C250.02406743 745.63502133 251.19851432 743.42146024 252.375 741.20898438 C256.28599723 733.77541087 259.97056656 726.37875594 262.1875 718.25 C263.08932317 715.22623995 264.13489575 712.75871544 265.5 709.9375 C268.95045092 702.5276821 271.24906496 694.77303088 273.57421875 686.95361328 C274.14912795 685.02575664 274.7443038 683.10396248 275.34375 681.18359375 C279.29706029 667.68176385 281.11457352 653.56777215 283.25 639.6875 C283.43401367 638.50172363 283.61802734 637.31594727 283.80761719 636.09423828 C285.77348063 622.96728505 286.48888233 609.9506876 286.5 596.6875 C286.50067474 595.95239197 286.50134949 595.21728394 286.50204468 594.4598999 C286.42797598 542.99253895 274.03525869 491.36602935 250.26953125 445.67041016 C249.2789154 443.74373824 248.32412012 441.80285276 247.375 439.85546875 C237.8368159 420.6574887 225.14329306 402.00409924 211.25 385.6875 C210.45553467 384.75309082 210.45553467 384.75309082 209.64501953 383.79980469 C206.34297411 379.93274892 203.00475566 376.09919234 199.64501953 372.28222656 C198.46775391 370.93642694 197.30799741 369.57534052 196.15234375 368.2109375 C192.81414377 364.27201361 189.29759288 360.87195577 185.3515625 357.54296875 C183.02537598 355.48917954 180.90099551 353.29850049 178.75 351.0625 C175.4413548 347.69099625 172.2474235 345.15783694 168.07421875 342.953125 C166.25 341.6875 166.25 341.6875 164.4765625 339.40234375 C161.67173827 335.98242649 158.49091779 333.60100803 154.9375 331 C154.23181885 330.47817139 153.5261377 329.95634277 152.79907227 329.41870117 C145.77376022 324.26544797 138.59809318 319.36785172 131.25 314.6875 C130.67523926 314.32092285 130.10047852 313.9543457 129.50830078 313.57666016 C106.52299719 299.0585979 81.79262204 287.39928754 56.0625 278.6875 C54.96454102 278.31343018 53.86658203 277.93936035 52.73535156 277.55395508 C46.47098259 275.50086665 40.40555793 274.14550272 33.8894043 273.18164062 C30.42466132 272.5329828 27.47301285 271.09756812 24.25 269.6875 C20.28247772 268.67921238 16.27398379 267.93357355 12.25 267.1875 C11.23421875 266.98769531 10.2184375 266.78789062 9.171875 266.58203125 C5.53974129 265.89332957 1.89957781 265.27478064 -1.75 264.6875 C-2.94965897 264.49107407 -2.94965897 264.49107407 -4.17355347 264.29067993 C-19.07554059 261.91437994 -33.69687603 261.24381771 -48.77514648 261.35131836 C-52.31322005 261.37500482 -55.85053828 261.37183491 -59.38867188 261.36523438 C-78.23139673 261.38726336 -96.85332672 262.33926285 -115.375 266 C-116.518479 266.22163818 -117.66195801 266.44327637 -118.84008789 266.67163086 C-122.14764318 267.32452016 -125.44950173 267.99991796 -128.75 268.6875 C-129.59643066 268.86087891 -130.44286133 269.03425781 -131.31494141 269.21289062 C-156.31041758 274.47289022 -181.95699279 283.18792145 -204.75 294.6875 C-205.71905273 295.16799805 -206.68810547 295.64849609 -207.68652344 296.14355469 C-237.45688146 310.95950031 -265.61071302 329.12331699 -289.86328125 351.984375 C-292.13867137 354.11505154 -294.43800564 356.17040376 -296.8125 358.1875 C-305.08280727 365.35393151 -312.69943414 373.33014823 -319.75 381.6875 C-320.53375 382.58210938 -321.3175 383.47671875 -322.125 384.3984375 C-333.13574369 397.04115991 -343.21639553 410.51122229 -351.73071289 424.96411133 C-352.68828184 426.56875911 -353.71247328 428.13335357 -354.75 429.6875 C-355.41 429.6875 -356.07 429.6875 -356.75 429.6875 C-357.08 431.3375 -357.41 432.9875 -357.75 434.6875 C-358.41 434.6875 -359.07 434.6875 -359.75 434.6875 C-359.86021484 435.67943359 -359.86021484 435.67943359 -359.97265625 436.69140625 C-361.03173936 440.77339993 -363.06215124 444.00700338 -365.1875 447.625 C-373.39065941 461.98612305 -380.11296807 477.14506629 -385.75 492.6875 C-386.29065295 494.10455385 -386.83220227 495.52126632 -387.375 496.9375 C-388.34611473 499.58599473 -389.27483488 502.22592369 -390.16015625 504.90234375 C-391.13781492 507.85391326 -392.13174565 510.79860981 -393.14453125 513.73828125 C-401.11529679 537.38005154 -405.02508323 561.95790908 -407.75 586.6875 C-407.8538501 587.59435547 -407.9577002 588.50121094 -408.06469727 589.43554688 C-411.92659879 628.17274808 -409.09977686 668.91747118 -399.75 706.6875 C-399.50411133 707.70360352 -399.25822266 708.71970703 -399.00488281 709.76660156 C-391.05448993 742.23652479 -378.98957123 773.46862127 -362.75 802.6875 C-362.32106445 803.46544922 -361.89212891 804.24339844 -361.45019531 805.04492188 C-351.92932053 822.2234313 -340.96057647 838.31356175 -328.75 853.6875 C-327.73873047 854.98880859 -327.73873047 854.98880859 -326.70703125 856.31640625 C-322.4058885 861.80229491 -317.83710982 866.98022227 -313.11328125 872.10546875 C-311.15435897 874.24571277 -309.254805 876.41588609 -307.375 878.625 C-300.82776369 886.14735662 -293.64303595 893.27823544 -286.04296875 899.734375 C-284.17099222 901.32890356 -282.32632179 902.94500642 -280.48828125 904.578125 C-268.69083563 915.01602542 -256.31793688 924.39580185 -243.25 933.1875 C-242.15594849 933.92625366 -242.15594849 933.92625366 -241.03979492 934.67993164 C-236.42510389 937.73791033 -231.74636533 940.30184809 -226.75 942.6875 C-226.75 943.3475 -226.75 944.0075 -226.75 944.6875 C-225.65957397 945.10153076 -225.65957397 945.10153076 -224.54711914 945.52392578 C-221.893071 946.62798386 -219.48970792 947.87969346 -216.99609375 949.3046875 C-198.12074293 959.91455564 -178.50758645 969.42119181 -157.73046875 975.72265625 C-154.75 976.6875 -154.75 976.6875 -151.67578125 978.05859375 C-132.62809333 986.39965252 -110.28121746 990.72208122 -89.75 993.6875 C-88.87085938 993.81608398 -87.99171875 993.94466797 -87.0859375 994.07714844 C-73.18712395 996.08906797 -59.47191592 997.84944566 -45.40625 997.8203125 C-44.35707397 997.82126923 -43.30789795 997.82222595 -42.22692871 997.82321167 C-40.01847269 997.8238878 -37.81001462 997.82207336 -35.6015625 997.81787109 C-32.28641082 997.81255835 -28.9713973 997.81781314 -25.65625 997.82421875 C-8.22872431 997.83130858 9.03427404 997.45362457 26.3125 995 C28.15702759 994.73944824 28.15702759 994.73944824 30.03881836 994.47363281 C92.28715355 985.25520756 152.163973 960.1880961 203.25 923.6875 C204.12688477 923.06149902 204.12688477 923.06149902 205.02148438 922.42285156 C212.4605149 917.07015952 219.43236159 911.23985236 226.37011719 905.26416016 C227.76922226 904.09072891 229.19023684 902.94332325 230.62207031 901.81005859 C237.92741703 896.00013739 244.55035796 889.69565803 251.12109375 883.07714844 C252.87281575 881.31469762 254.63499428 879.56321432 256.3984375 877.8125 C263.14139388 871.0774115 269.33743468 864.17096052 275.25 856.6875 C276.11300003 855.65962389 276.98140492 854.6362129 277.859375 853.62109375 C308.86002868 817.4725213 333.53621037 773.08372918 347.62475586 727.67700195 C349.09264517 723.00623664 350.66302347 718.368083 352.27734375 713.74609375 C356.99759082 700.15259252 359.88682205 686.21185132 362.3125 672.0625 C362.44006683 671.32892273 362.56763367 670.59534546 362.69906616 669.83953857 C364.84404637 657.50067746 366.87719511 645.13963308 368.25 632.6875 C368.34498779 631.87474609 368.43997559 631.06199219 368.5378418 630.22460938 C369.62220507 619.49856984 369.44884001 608.70588509 369.4375 597.9375 C369.43689575 596.88437622 369.4362915 595.83125244 369.43566895 594.74621582 C369.41207309 579.63048218 369.20858639 564.69623266 367.25 549.6875 C367.12109375 548.65496094 366.9921875 547.62242187 366.859375 546.55859375 C361.44995635 504.13472714 350.3046306 462.69998719 332.26367188 423.875 C331.21906556 421.6207436 330.19523536 419.3577204 329.171875 417.09375 C304.84723691 363.12507278 304.84723691 363.12507278 264.8125 322.5 C262.25 320.6875 262.25 320.6875 260.84375 317.3515625 C257.86844861 311.1606228 252.71915289 306.63637753 247.87133789 301.8972168 C246.20543819 300.26754806 244.55582982 298.62272871 242.90820312 296.97460938 C236.32698344 290.43767345 229.50891823 284.46901223 222.25 278.6875 C221.1601083 277.7641968 220.07552572 276.83452973 219 275.89453125 C156.27293334 221.27565076 74.00704597 189.31305363 -8.04833984 179.99609375 C-9.79449435 179.79664144 -11.53972858 179.58887905 -13.28369141 179.37109375 C-32.03831494 177.04288277 -50.88947696 177.40171686 -69.75 177.6875 C-70.80638672 177.70151855 -71.86277344 177.71553711 -72.95117188 177.72998047 C-132.79333666 178.77174105 -195.9563597 195.56896655 -248.7578125 223.640625 C-251.00196996 224.81990774 -253.26518871 225.95714513 -255.53125 227.09375 C-276.08059579 237.49223763 -295.36713037 249.83422235 -313.75 263.6875 C-314.53117187 264.27402344 -315.31234375 264.86054688 -316.1171875 265.46484375 C-319.88060187 268.29653903 -323.63512373 271.13998744 -327.37109375 274.0078125 C-327.9530249 274.45398926 -328.53495605 274.90016602 -329.13452148 275.35986328 C-330.80613805 276.6785266 -330.80613805 276.6785266 -332.33618164 278.35498047 C-333.75 279.6875 -333.75 279.6875 -335.75 279.6875 C-336.41 281.6675 -337.07 283.6475 -337.75 285.6875 C-338.41 285.6875 -339.07 285.6875 -339.75 285.6875 C-339.75 286.3475 -339.75 287.0075 -339.75 287.6875 C-340.89984375 288.19410156 -342.0496875 288.70070313 -343.234375 289.22265625 C-348.26564042 291.74603277 -351.99426275 295.22208085 -356 299.125 C-357.10807007 300.18690552 -357.10807007 300.18690552 -358.23852539 301.27026367 C-364.20495769 307.03857028 -369.89530814 313.02082585 -375.42089844 319.20996094 C-376.70428834 320.63668314 -378.01192443 322.0414797 -379.3203125 323.4453125 C-385.41746525 330.0011852 -390.97014457 336.87489728 -396.41943359 343.96728516 C-397.65657136 345.56671134 -398.91534315 347.14933948 -400.17578125 348.73046875 C-428.07966738 384.03276659 -449.36975761 424.7516942 -465.03515625 466.79516602 C-465.71807149 468.60297887 -466.43061263 470.3995172 -467.14453125 472.1953125 C-474.41869252 490.75143739 -478.77771919 510.20273936 -483.07275391 529.62646484 C-483.50463441 531.57849001 -483.94130882 533.52946501 -484.38427734 535.47900391 C-486.64191469 545.45439578 -488.21209912 555.08897082 -488.4230957 565.33569336 C-488.50681772 568.80423139 -488.73136047 571.62302555 -489.703125 574.984375 C-513.13230953 657.86074415 -474.63399274 772.42423824 -435.52148438 843.93359375 C-432.72158597 848.92850252 -429.76308298 853.81893202 -426.75 858.6875 C-426.22003418 859.54875488 -425.69006836 860.41000977 -425.14404297 861.29736328 C-417.97230712 872.90767272 -410.51519392 884.14568631 -402.12744141 894.91308594 C-400.79305767 896.6320333 -399.47763031 898.36373267 -398.16796875 900.1015625 C-389.59046323 911.44995265 -380.35621531 922.19940263 -370.75 932.6875 C-370.27916992 933.20344727 -369.80833984 933.71939453 -369.32324219 934.25097656 C-361.52349259 942.79308175 -353.72768629 951.22905228 -344.94140625 958.77734375 C-342.3754973 961.01393818 -339.8784357 963.31874067 -337.375 965.625 C-332.32947738 970.21621908 -327.12334217 974.48912865 -321.75 978.6875 C-320.52268995 979.67876265 -319.29619218 980.67103148 -318.0703125 981.6640625 C-295.79094016 999.5465716 -270.2156557 1017.68254437 -243.75 1028.6875 C-243.75 1029.3475 -243.75 1030.0075 -243.75 1030.6875 C-242.986875 1030.914375 -242.22375 1031.14125 -241.4375 1031.375 C-238.41668287 1032.4502061 -235.58942135 1033.62848227 -232.6796875 1034.9609375 C-231.70507568 1035.40687256 -230.73046387 1035.85280762 -229.72631836 1036.31225586 C-226.9780115 1037.58214451 -224.23599905 1038.86445128 -221.49609375 1040.15234375 C-210.7982053 1045.15425138 -200.17259307 1049.58128593 -188.84790039 1052.95483398 C-186.37681731 1053.81782948 -184.00288949 1054.87250676 -181.60279846 1055.91368103 C-171.07411411 1060.31097293 -159.82740234 1063.21710916 -148.8125 1066.125 C-147.72109207 1066.41339249 -147.72109207 1066.41339249 -146.6076355 1066.70761108 C-124.77436013 1072.43561599 -102.7943019 1076.4207614 -80.375 1079 C-79.66836212 1079.08158356 -78.96172424 1079.16316711 -78.2336731 1079.2472229 C-61.28729378 1081.16879314 -44.36211307 1081.89856335 -27.3125 1081.875 C-26.08018143 1081.87409363 -26.08018143 1081.87409363 -24.82296753 1081.87316895 C-10.06054322 1081.84396851 4.56195322 1081.25195766 19.25 1079.6875 C20.46139648 1079.55859375 21.67279297 1079.4296875 22.92089844 1079.296875 C72.89477323 1073.77969792 128.47355258 1061.60147157 172.7109375 1036.640625 C177.20311366 1034.13853801 181.68010599 1032.38279022 186.53076172 1030.71142578 C191.19250675 1028.95605151 195.47263046 1026.5525517 199.8125 1024.125 C201.23477905 1023.33826904 201.23477905 1023.33826904 202.68579102 1022.53564453 C229.45268134 1007.61360185 254.76739949 990.38297648 278.25 970.6875 C278.85827637 970.17832031 279.46655273 969.66914062 280.09326172 969.14453125 C292.27510478 958.91244066 303.85320063 948.16375675 315.125 936.9375 C315.92188232 936.14529053 316.71876465 935.35308105 317.53979492 934.53686523 C322.31572458 929.74790986 326.85367576 924.8253403 331.25 919.6875 C332.19941532 918.6044986 333.14988413 917.52241955 334.1015625 916.44140625 C341.90207426 907.49871147 349.17410877 898.21136899 356.25 888.6875 C356.79833496 887.94951172 357.34666992 887.21152344 357.91162109 886.45117188 C373.14724692 866.02782053 373.14724692 866.02782053 385.25 843.6875 C385.91 843.6875 386.57 843.6875 387.25 843.6875 C387.50579834 843.00695557 387.76159668 842.32641113 388.02514648 841.62524414 C389.44961244 838.20874048 391.12520193 834.95568654 392.84765625 831.68359375 C393.57029148 830.29866144 394.29261011 828.91356391 395.01464844 827.52832031 C395.39036987 826.80890259 395.76609131 826.08948486 396.15319824 825.3482666 C405.11370873 808.16412661 413.61331001 790.92413526 420.25 772.6875 C420.92302636 770.88666241 421.59621979 769.08588726 422.26953125 767.28515625 C429.63166545 747.41664843 436.87878151 727.24851658 439.6796875 706.1640625 C440.25 702.6875 440.25 702.6875 441.20019531 700.38427734 C442.40398092 697.29194809 443.01254906 694.32582908 443.6171875 691.0625 C443.7368689 690.41734436 443.85655029 689.77218872 443.9798584 689.10748291 C445.52732792 680.65501303 446.91613589 672.17596902 448.25 663.6875 C448.41943115 662.62245239 448.41943115 662.62245239 448.59228516 661.53588867 C455.08450565 620.29033495 455.33920977 574.99225374 449.25 533.6875 C449.05964033 532.33346047 448.87023036 530.97928718 448.68164062 529.625 C446.66518287 515.24706204 444.46797267 500.9261223 440.79345703 486.86621094 C440.17370687 484.38164203 439.63012263 481.88585433 439.08984375 479.3828125 C433.56368101 454.28969287 425.24238842 429.36592015 415.25 405.6875 C414.70593506 404.38594971 414.70593506 404.38594971 414.15087891 403.05810547 C395.73800295 359.20609047 371.32132127 318.5570222 341.25 281.6875 C340.54488281 280.80835938 339.83976562 279.92921875 339.11328125 279.0234375 C334.52306948 273.33574055 329.76426525 267.85698242 324.8046875 262.48828125 C322.88029888 260.37851575 321.01594535 258.24640953 319.16015625 256.078125 C314.77259156 251.04912773 310.06115019 246.34847454 305.3347168 241.6418457 C303.81508332 240.1275742 302.30087483 238.6080257 300.78710938 237.08789062 C295.44784439 231.74459033 290.02260935 226.56534285 284.25 221.6875 C283.2055295 220.78668979 282.16124776 219.88566065 281.1171875 218.984375 C264.81907843 205.11183308 247.82633187 192.01188761 230.0625 180.0625 C229.48765869 179.67312256 228.91281738 179.28374512 228.32055664 178.88256836 C225.34707495 176.91482949 222.34316678 175.20765783 219.13671875 173.6640625 C215.77452195 172.03081244 213.16318212 170.04349217 210.25 167.6875 C207.13892691 165.73552817 203.94787679 163.93034281 200.75 162.125 C199.81712158 161.5976123 198.88424316 161.07022461 197.9230957 160.52685547 C195.03714604 158.90443392 192.14494511 157.29380804 189.25 155.6875 C188.41903809 155.2239209 187.58807617 154.7603418 186.73193359 154.28271484 C134.2838184 125.23469161 76.1370987 108.53760126 17.18505859 99.31054688 C14.83112992 98.93784394 12.47903057 98.55278857 10.13134766 98.14257812 C-10.81093324 94.58588479 -32.0023581 94.31401946 -53.1875 94.375 C-55.16466003 94.37773422 -55.16466003 94.37773422 -57.1817627 94.38052368 C-77.20191238 94.41893354 -96.89557845 94.95533712 -116.75 97.6875 C-118.08495595 97.8662482 -119.41991703 98.04495808 -120.75488281 98.22363281 C-139.29018657 100.74058263 -157.58088803 104.22381712 -175.75 108.6875 C-177.51561279 109.11820801 -177.51561279 109.11820801 -179.31689453 109.55761719 C-211.12728216 117.41780379 -242.03488224 128.16914256 -271.66015625 142.22265625 C-273.93002955 143.29876559 -276.20395513 144.34485784 -278.49609375 145.37109375 C-291.01944506 151.03390522 -302.88255495 157.77123892 -314.75 164.6875 C-315.64750977 165.20924805 -316.54501953 165.73099609 -317.46972656 166.26855469 C-328.90827807 172.94493373 -339.96054153 180.00928749 -350.75 187.6875 C-351.46897461 188.19394043 -352.18794922 188.70038086 -352.92871094 189.22216797 C-363.29225118 196.52610338 -373.31073471 204.15293151 -383.04882812 212.2734375 C-384.19220893 213.22384818 -385.34210166 214.16647386 -386.49804688 215.1015625 C-389.57146933 217.5122736 -389.57146933 217.5122736 -391.75 220.6875 C-392.41 220.6875 -393.07 220.6875 -393.75 220.6875 C-393.87955078 221.615625 -393.87955078 221.615625 -394.01171875 222.5625 C-394.75 224.6875 -394.75 224.6875 -396.39453125 225.75 C-397.10996094 226.059375 -397.82539063 226.36875 -398.5625 226.6875 C-404.99899726 229.98774222 -409.43864757 235.17077473 -414.39111328 240.31591797 C-416.0902083 242.03088668 -417.8925575 243.5842109 -419.75 245.125 C-425.01656483 249.61899024 -429.54220995 254.84825893 -434.18115234 259.97021484 C-435.70487029 261.63810031 -437.24796023 263.28499869 -438.80078125 264.92578125 C-445.42249361 271.94179622 -451.47105384 279.24093887 -457.34814453 286.88720703 C-458.77054725 288.71388722 -460.22087293 290.5140721 -461.68359375 292.30859375 C-475.79276328 309.61863575 -488.86616522 328.16985397 -499.75 347.6875 C-500.41 347.6875 -501.07 347.6875 -501.75 347.6875 C-502.08 349.3375 -502.41 350.9875 -502.75 352.6875 C-503.41 352.6875 -504.07 352.6875 -504.75 352.6875 C-504.86988281 353.69683594 -504.86988281 353.69683594 -504.9921875 354.7265625 C-505.97576247 358.56960285 -507.87997244 361.67592994 -509.875 365.0625 C-514.82500738 373.71272829 -519.22961572 382.59317057 -523.5625 391.5625 C-523.88228821 392.22127136 -524.20207642 392.88004272 -524.53155518 393.55877686 C-532.60590517 410.21254461 -539.21242907 427.38346165 -545.75 444.6875 C-546.06146973 445.51008301 -546.37293945 446.33266602 -546.69384766 447.18017578 C-551.18250709 459.1331228 -554.5445928 471.33564959 -557.75 483.6875 C-557.93804199 484.40260742 -558.12608398 485.11771484 -558.31982422 485.85449219 C-559.52629289 490.45153432 -560.65700579 495.06256402 -561.75 499.6875 C-562.02577881 500.83702148 -562.02577881 500.83702148 -562.30712891 502.00976562 C-568.31968215 527.33945795 -573.08017267 553.68035537 -574.75 579.6875 C-574.80494629 580.48929688 -574.85989258 581.29109375 -574.91650391 582.1171875 C-581.31348904 680.24203319 -561.87874065 777.78913931 -517.75 865.6875 C-517.255 866.67476074 -516.76 867.66202148 -516.25 868.67919922 C-496.88159518 907.06924381 -472.47724495 942.2419829 -444.625 974.9375 C-444.19493652 975.44321533 -443.76487305 975.94893066 -443.32177734 976.4699707 C-434.2243925 987.04572235 -424.56759634 997.05644144 -414.70703125 1006.91577148 C-412.74709918 1008.87790408 -410.79534704 1010.84794057 -408.84375 1012.81835938 C-402.49054601 1019.19924224 -396.11972358 1025.304744 -389.03173828 1030.87329102 C-386.80458573 1032.64409891 -384.71074182 1034.50338507 -382.625 1036.4375 C-376.36251819 1042.07148901 -369.55294072 1047.02923992 -362.83642578 1052.10205078 C-360.94082269 1053.54249619 -359.05871555 1054.99788998 -357.18359375 1056.46484375 C-350.24669109 1061.89046326 -343.14045983 1066.89969009 -335.75 1071.6875 C-334.52022804 1072.5029942 -333.29109375 1073.31945059 -332.0625 1074.13671875 C-262.06786633 1120.42709948 -183.01204234 1148.72435815 -100.1875 1160.5 C-99.16048981 1160.64905289 -99.16048981 1160.64905289 -98.11273193 1160.80111694 C-74.76890149 1164.14708714 -51.30764346 1165.07105535 -27.75 1165 C-26.51463501 1164.99850952 -25.27927002 1164.99701904 -24.00646973 1164.9954834 C-3.76586852 1164.95181225 16.1603514 1164.13941686 36.25 1161.6875 C38.16401611 1161.46271973 38.16401611 1161.46271973 40.11669922 1161.23339844 C58.5293796 1159.03256797 76.92027438 1156.15312332 94.8046875 1151.16015625 C99.08395252 1149.96759904 103.35679624 1149.036869 107.71777344 1148.20166016 C112.31385935 1147.26844024 116.84054449 1146.06769129 121.375 1144.875 C122.38054932 1144.61074219 123.38609863 1144.34648438 124.42211914 1144.07421875 C138.33214844 1140.37879467 151.83103064 1135.87875438 165.25 1130.6875 C166.89935547 1130.05328125 166.89935547 1130.05328125 168.58203125 1129.40625 C170.69532219 1128.59324535 172.80730519 1127.77683276 174.91796875 1126.95703125 C177.28945101 1126.05347705 179.66115274 1125.17641349 182.05078125 1124.32421875 C190.280964 1121.36774533 198.04300016 1117.94498496 205.8125 1113.9375 C209.0319052 1112.28365565 212.28246311 1110.71756 215.5625 1109.1875 C229.53156789 1102.67068575 242.94880957 1095.4726988 256.25 1087.6875 C257.55928467 1086.92735596 257.55928467 1086.92735596 258.89501953 1086.15185547 C275.73103144 1076.35769131 291.82229363 1065.57969033 307.25 1053.6875 C308.28125 1052.89988281 309.3125 1052.11226562 310.375 1051.30078125 C313.10703258 1049.21204104 315.82996648 1047.11185083 318.54833984 1045.00537109 C319.70643948 1044.10846696 320.865664 1043.21301383 322.02587891 1042.31884766 C328.91684038 1037.00392117 335.63087522 1031.60899758 342.04296875 1025.71484375 C343.97829285 1023.93708586 345.94403016 1022.21173748 347.9375 1020.5 C360.61974894 1009.43185547 373.32076663 997.83584077 384.2265625 984.98828125 C385.91512878 983.06827056 387.63706783 981.20783738 389.3984375 979.35546875 C396.69098867 971.68498686 403.4681921 963.85218775 409.88916016 955.44238281 C411.26773056 953.66463541 412.67902682 951.91920376 414.10546875 950.1796875 C425.19032776 936.65037098 434.99681858 922.25651076 444.5625 907.625 C445.11993896 906.77397705 445.67737793 905.9229541 446.25170898 905.04614258 C446.76290283 904.25618896 447.27409668 903.46623535 447.80078125 902.65234375 C448.47620972 901.61001587 448.47620972 901.61001587 449.1652832 900.54663086 C450.40216093 898.57260231 450.40216093 898.57260231 451.25 895.6875 C451.91 895.6875 452.57 895.6875 453.25 895.6875 C453.58 894.0375 453.91 892.3875 454.25 890.6875 C454.91 890.6875 455.57 890.6875 456.25 890.6875 C456.58 889.0375 456.91 887.3875 457.25 885.6875 C457.91 885.6875 458.57 885.6875 459.25 885.6875 C459.47816406 884.88183594 459.70632813 884.07617188 459.94140625 883.24609375 C461.58059429 878.7884809 463.82467698 874.85851622 466.1875 870.75 C469.20132224 865.49006861 471.97997409 860.31386785 474.25 854.6875 C474.91 854.6875 475.57 854.6875 476.25 854.6875 C476.51941406 853.83027344 476.78882813 852.97304688 477.06640625 852.08984375 C478.25017727 848.68699043 479.65075836 845.50726664 481.1875 842.25 C483.00188662 838.39384839 484.76571651 834.52899927 486.43041992 830.60571289 C487.34808747 828.45792798 488.28870584 826.32092009 489.23046875 824.18359375 C494.40037835 812.37234776 499.03650164 800.44580203 503.32446289 788.2878418 C504.30540623 785.53183348 505.31628536 782.78776989 506.328125 780.04296875 C507.94302208 775.60893727 509.39056789 771.16116506 510.6875 766.625 C510.89431396 765.91093994 511.10112793 765.19687988 511.31420898 764.46118164 C511.96495628 762.2048155 512.60858169 759.94653454 513.25 757.6875 C513.46301758 756.93984375 513.67603516 756.1921875 513.89550781 755.421875 C515.38260783 750.18656083 516.82666853 744.94047142 518.25 739.6875 C518.58902344 738.45257812 518.92804688 737.21765625 519.27734375 735.9453125 C522.68048419 723.01611229 524.94459491 709.84935838 527.25 696.6875 C527.50861816 695.21373901 527.50861816 695.21373901 527.77246094 693.71020508 C541.89094322 611.27670792 538.22633505 526.89156707 429.25 259.6875 C420.67863625 247.66384871 411.7032332 236.02895515 402.25 224.6875 C401.76934082 224.10774414 401.28868164 223.52798828 400.79345703 222.93066406 C394.6195757 215.4930231 388.23614919 208.28415836 381.65478516 201.20556641 C380.23355813 199.66973227 378.82447014 198.12354155 377.41796875 196.57421875 C367.85159562 186.06459124 358.06157388 175.52743064 347.19140625 166.34765625 C344.71555003 164.23047538 342.33338732 162.01968171 339.9375 159.8125 C334.53508543 154.8917822 328.94831141 150.25957447 323.25 145.6875 C322.12979484 144.77524711 321.01002295 143.86246197 319.890625 142.94921875 C302.90763965 129.1524259 285.20904336 116.25966238 266.56640625 104.7890625 C265.44625122 104.09925293 265.44625122 104.09925293 264.3034668 103.39550781 C262.88120262 102.52522176 261.45443897 101.66223479 260.02270508 100.80761719 C258.39886727 99.81979119 256.81886879 98.76048656 255.25 97.6875 C255.25 97.0275 255.25 96.3675 255.25 95.6875 C254.56421875 95.605 253.8784375 95.5225 253.171875 95.4375 C249.50325963 94.49582333 246.67171103 92.6777258 243.5 90.6875 C176.02245741 49.8958188 97.86068976 25.46498671 19.9375 15.4375 C18.77283203 15.28619629 17.60816406 15.13489258 16.40820312 14.97900391 C-7.97172249 12.03946247 -32.35065761 11.31004705 -56.875 11.375 C-58.36446119 11.37722393 -59.85392246 11.37940037 -61.34338379 11.38153076 C-82.6151436 11.42367003 -103.63962707 11.78031798 -124.75 14.6875 C-126.27109838 14.88864146 -127.79226028 15.08930297 -129.31347656 15.28955078 C-172.08800721 20.99119048 -213.7990204 30.94179516 -254.43896484 45.50439453 C-257.48109049 46.59141273 -260.52977245 47.65669225 -263.58203125 48.71484375 C-298.02124061 60.77040804 -331.94422238 77.06005706 -362.83618164 96.49511719 C-365.26151199 98.00619174 -367.71606245 99.46417277 -370.17529297 100.91918945 C-377.53149056 105.27641272 -384.70871353 109.83321481 -391.75 114.6875 C-392.37600098 115.11901367 -393.00200195 115.55052734 -393.64697266 115.99511719 C-414.72997043 130.57815824 -434.79465961 146.46090157 -454.12524414 163.29077148 C-455.28509823 164.28784515 -456.45767363 165.27019856 -457.63842773 166.24243164 C-458.57537476 167.01961548 -458.57537476 167.01961548 -459.53125 167.8125 C-460.10037109 168.27785156 -460.66949219 168.74320313 -461.25585938 169.22265625 C-462.86579794 170.8010274 -463.6938172 172.23665577 -464.6875 174.25 C-466.29096021 177.34666694 -466.86810659 177.75691831 -470.1328125 179.67578125 C-475.90810028 183.13547786 -480.42446903 187.95060095 -485.11303711 192.71435547 C-486.67220423 194.29697416 -488.24411186 195.8659907 -489.81835938 197.43359375 C-495.51277817 203.14483108 -500.80542616 209.0147247 -505.84399414 215.32470703 C-508.10811324 218.13143748 -510.5036603 220.71147509 -513 223.3125 C-519.28492739 230.01394596 -524.72951665 237.32507265 -530.23046875 244.67138672 C-531.59591338 246.48305795 -532.97811541 248.27893124 -534.375 250.06640625 C-549.34286521 269.23199007 -562.85190346 289.53868929 -574.73095703 310.76171875 C-575.68432673 312.43496302 -576.70970198 314.06687044 -577.75 315.6875 C-578.41 315.6875 -579.07 315.6875 -579.75 315.6875 C-579.82089844 316.33074219 -579.89179687 316.97398437 -579.96484375 317.63671875 C-581.07785771 321.96141477 -583.1769525 325.5984561 -585.3125 329.5 C-585.94961914 330.68239258 -585.94961914 330.68239258 -586.59960938 331.88867188 C-587.64396554 333.8248378 -588.6942077 335.75755367 -589.75 337.6875 C-590.41 337.6875 -591.07 337.6875 -591.75 337.6875 C-591.85401123 338.37980713 -591.95802246 339.07211426 -592.06518555 339.78540039 C-592.86723386 343.18431242 -594.17822132 345.97990405 -595.70703125 349.12109375 C-596.32625106 350.40865961 -596.94504751 351.69642914 -597.56347656 352.984375 C-597.88964966 353.65919922 -598.21582275 354.33402344 -598.55187988 355.02929688 C-604.28686312 366.92181918 -609.65210221 378.90581128 -614.5 391.1875 C-614.87156723 392.12817825 -614.87156723 392.12817825 -615.25064087 393.08786011 C-617.81425973 399.5975055 -620.3005273 406.13427303 -622.75 412.6875 C-623.44029297 414.44126953 -623.44029297 414.44126953 -624.14453125 416.23046875 C-628.05781407 426.28857584 -631.11802551 436.48206874 -633.96972656 446.88647461 C-634.52596619 448.88326349 -635.09728352 450.87587792 -635.67871094 452.86547852 C-638.33871407 461.97371849 -640.60563888 471.13555963 -642.75 480.375 C-643.01095963 481.49359909 -643.01095963 481.49359909 -643.27719116 482.63479614 C-653.94651716 528.37822347 -659.24252687 574.09946676 -659.24899673 621.09867096 C-659.24997877 623.26565402 -659.25600646 625.43257662 -659.26278687 627.59954834 C-659.31998525 654.65905092 -657.38385828 681.57660835 -653.5625 708.375 C-653.41151352 709.4468454 -653.41151352 709.4468454 -653.25747681 710.54034424 C-645.56531191 764.62777715 -630.41082978 817.5629632 -608.75 867.6875 C-608.33266602 868.65510254 -607.91533203 869.62270508 -607.48535156 870.61962891 C-605.35223953 875.52864743 -603.15370358 880.40289867 -600.88769531 885.25195312 C-600.09021139 886.9591848 -599.29836943 888.669058 -598.51074219 890.38085938 C-591.65616078 905.26421043 -583.99756059 919.53343536 -575.75 933.6875 C-574.83958799 935.26417526 -573.929417 936.84098973 -573.01953125 938.41796875 C-556.61512805 966.71525096 -537.68701569 993.56845136 -516.75 1018.6875 C-516.26934082 1019.26725586 -515.78868164 1019.84701172 -515.29345703 1020.44433594 C-509.53117329 1027.38612753 -503.59746279 1034.13217574 -497.453125 1040.73828125 C-496.05501386 1042.24451367 -494.6868132 1043.76179122 -493.35522461 1045.32739258 C-487.81271724 1051.84345492 -481.75334847 1057.83503421 -475.69848633 1063.86938477 C-473.81671726 1065.74579475 -471.94035262 1067.62748969 -470.06445312 1069.50976562 C-464.65159148 1074.92558679 -459.25381092 1080.29783802 -453.41674805 1085.26147461 C-451.25631514 1087.10988367 -449.20063696 1089.05736719 -447.13574219 1091.01098633 C-440.5175353 1097.26020787 -433.56873971 1102.94398853 -426.34082031 1108.46972656 C-424.00700673 1110.25626157 -421.69184928 1112.06655025 -419.375 1113.875 C-418.16696018 1114.81287819 -416.95876045 1115.75055076 -415.75 1116.6875 C-418.75 1121.1875 -418.75 1121.1875 -421.75 1125.6875 C-426.58177408 1124.17643957 -429.6755735 1121.42831493 -433.375 1118.125 C-434.62404729 1117.03016214 -435.87405715 1115.93642152 -437.125 1114.84375 C-437.73988281 1114.30492187 -438.35476563 1113.76609375 -438.98828125 1113.2109375 C-441.40323069 1111.12262202 -443.88495683 1109.12282533 -446.375 1107.125 C-451.34655763 1103.09064322 -456.04777522 1098.82271916 -460.73046875 1094.4609375 C-462.938758 1092.40987565 -465.19827341 1090.43037839 -467.48144531 1088.46313477 C-471.49691571 1084.95445519 -475.30305045 1081.27965215 -479.06640625 1077.50390625 C-479.72656235 1076.84470688 -480.38671844 1076.18550751 -481.06687927 1075.5063324 C-482.45035506 1074.12353165 -483.83259083 1072.73948924 -485.21362305 1071.35424805 C-487.30731669 1069.25519657 -489.40629874 1067.1615406 -491.50585938 1065.06835938 C-492.85969571 1063.71386214 -494.21322175 1062.35905469 -495.56640625 1061.00390625 C-496.18326797 1060.38906876 -496.8001297 1059.77423126 -497.4356842 1059.14076233 C-501.1931644 1055.36335226 -504.76273245 1051.4667348 -508.24317932 1047.43243408 C-510.16317364 1045.20903512 -512.1429561 1043.04309783 -514.125 1040.875 C-517.96806298 1036.61139983 -521.64322734 1032.24197727 -525.25 1027.77734375 C-527.07003572 1025.52789335 -528.90218882 1023.29276208 -530.75 1021.06640625 C-538.2513096 1011.99351343 -545.28659028 1002.6660359 -552.07763672 993.05126953 C-553.78319115 990.64058661 -555.50234932 988.24001521 -557.22265625 985.83984375 C-570.28707522 967.51414719 -581.78373575 948.32734247 -592.75 928.6875 C-593.51425293 927.32359131 -593.51425293 927.32359131 -594.29394531 925.93212891 C-601.29400929 913.4044282 -607.8293782 900.75961625 -613.75 887.6875 C-614.17104004 886.76694824 -614.59208008 885.84639648 -615.02587891 884.89794922 C-646.89911614 814.99559944 -664.40179975 741.06908937 -670.75 664.6875 C-670.84571289 663.67196045 -670.94142578 662.6564209 -671.04003906 661.61010742 C-678.99026247 568.80763401 -661.23234696 473.22923801 -598.0625 325.125 C-597.54429687 324.1747998 -597.02609375 323.22459961 -596.4921875 322.24560547 C-592.80673648 315.52461334 -589.00454854 308.88327129 -585.0480957 302.31811523 C-583.12556806 299.11225825 -581.33618337 295.90300497 -579.703125 292.5390625 C-578.08517535 289.24480831 -576.22860127 286.36599257 -574 283.4375 C-571.23677367 279.73122762 -568.59341845 275.99361318 -566.0625 272.125 C-550.12354305 248.01302191 -531.97233968 225.25331298 -512.75 203.6875 C-512.02466064 202.87321533 -512.02466064 202.87321533 -511.28466797 202.04248047 C-503.16157626 192.99699646 -494.57353559 184.38691731 -486.00463867 175.76690674 C-484.72642319 174.48061705 -483.4496887 173.19285371 -482.17456055 171.90350342 C-475.38978111 165.05112605 -468.58806929 158.49691716 -461.02661133 152.49853516 C-458.3661663 150.38216184 -455.90800045 148.14598109 -453.4375 145.8125 C-447.7560282 140.59645951 -441.77386279 135.88115898 -435.66748047 131.18115234 C-433.72883936 129.67101658 -431.81790023 128.13096394 -429.91015625 126.58203125 C-419.02741652 117.82656799 -407.57996215 110.09761855 -395.85546875 102.52758789 C-395.21809784 102.11179474 -394.58072693 101.69600159 -393.92404175 101.26760864 C-392.72645231 100.48653262 -391.5245006 99.71208648 -390.31741333 98.94577026 C-386.73122418 96.59819849 -384.33049689 94.08321325 -381.75 90.6875 C-379.47265625 89.52734375 -379.47265625 89.52734375 -376.8125 88.625 C-370.84118414 86.31165729 -365.46328788 83.35251476 -359.9375 80.125 C-332.91791607 64.42006424 -304.87514829 51.00193123 -275.75 39.6875 C-274.57050781 39.22843262 -273.39101563 38.76936523 -272.17578125 38.29638672 C-238.45805521 25.2877235 -203.88110015 15.96106436 -168.4375 9 C-167.70307678 8.85511139 -166.96865356 8.71022278 -166.2119751 8.5609436 C-111.42845777 -2.18542631 -55.62582439 -3.77778322 0 0 Z " fill="#91547D" transform="translate(790.75,141.3125)"/>
</svg>
