<?xml version="1.0" encoding="UTF-8"?>
<svg version="1.1" xmlns="http://www.w3.org/2000/svg" viewBox="0 0 1500 1500">
<path d="M0 0 C495 0 990 0 1500 0 C1500 495 1500 990 1500 1500 C1005 1500 510 1500 0 1500 C0 1005 0 510 0 0 Z " fill="#F4CBD3" transform="translate(0,0)"/>
<path d="M0 0 C1.03081696 0.05858185 2.06163391 0.1171637 3.12368774 0.17752075 C13.64422586 0.79665037 23.83165694 1.72824243 34.12841797 4.00708008 C37.48072684 4.73779217 40.79796763 5.20889035 44.20166016 5.60961914 C71.81137142 8.88672726 98.92167344 16.64085653 125.49609375 24.56835938 C128.82769031 25.5615981 132.16271908 26.54170178 135.5 27.515625 C137.25027377 28.03031993 139.00030117 28.54585396 140.75 29.0625 C141.47767578 29.27664551 142.20535156 29.49079102 142.95507812 29.71142578 C189.93630211 43.84336028 236.35159162 67.91324707 277.25 94.6875 C277.99797852 95.17428223 278.74595703 95.66106445 279.51660156 96.16259766 C291.98114384 104.29106474 304.49218809 112.6036189 316.0703125 121.96875 C318.28081943 123.83591901 318.28081943 123.83591901 321.3125 125.1875 C324.27594566 126.70074885 326.12092131 128.1489831 328.25 130.6875 C328.25 131.3475 328.25 132.0075 328.25 132.6875 C328.77335937 132.90277344 329.29671875 133.11804688 329.8359375 133.33984375 C333.20629796 135.22135566 335.98312063 137.72107381 338.875 140.25 C339.49455566 140.7864917 340.11411133 141.3229834 340.75244141 141.87573242 C345.13869114 145.68520223 349.47852865 149.54475973 353.7734375 153.45703125 C355.16363589 154.7090869 356.55993479 155.95470056 357.97694397 157.17633057 C362.76693195 161.30795525 367.32030099 165.61079384 371.78515625 170.08984375 C372.46750839 170.77123917 373.14986053 171.45263458 373.85289001 172.15467834 C375.28344437 173.58455741 376.71275767 175.01567911 378.14086914 176.44799805 C380.30699074 178.61947711 382.47840174 180.78556325 384.65039062 182.95117188 C386.04979987 184.35124202 387.44889884 185.75162238 388.84765625 187.15234375 C389.48639175 187.78905502 390.12512726 188.4257663 390.78321838 189.08177185 C395.13547503 193.45636075 399.23120525 198.00609298 403.25 202.6875 C404.21167442 203.79346043 405.173816 204.89901509 406.13671875 206.00390625 C428.95499942 232.38377041 449.50415039 260.64891792 467.25 290.6875 C467.69263184 291.43 468.13526367 292.1725 468.59130859 292.9375 C509.84521208 362.24287112 535.54124305 438.0867311 546.9375 517.75 C547.04041351 518.45516754 547.14332703 519.16033508 547.24935913 519.88687134 C550.66223306 543.48192569 551.60662709 567.08169894 551.56567383 590.88891602 C551.56105916 593.78393158 551.567928 596.67852517 551.58618164 599.57348633 C551.94703976 657.42949275 543.29159243 715.935333 525.14990234 770.92578125 C524.21753727 773.78712516 523.31754112 776.65700632 522.42578125 779.53125 C519.44245258 789.12971577 516.32244152 798.48521108 512.25 807.6875 C511.57576858 809.35112082 510.90896455 811.01777309 510.25 812.6875 C508.37798426 817.39773315 506.42825101 822.07330382 504.46484375 826.74609375 C503.3690163 829.39933512 502.33663005 832.06856407 501.3125 834.75 C499.48517842 839.37378943 497.13936682 843.60465221 494.70703125 847.93359375 C492.85999037 851.42464957 491.41071713 855.00206453 490.01171875 858.69140625 C489.25 860.6875 489.25 860.6875 488.25 862.6875 C487.59 862.6875 486.93 862.6875 486.25 862.6875 C486.023125 863.450625 485.79625 864.21375 485.5625 865 C483.76834512 870.04072087 481.50941923 874.84095951 479.25 879.6875 C478.59 879.6875 477.93 879.6875 477.25 879.6875 C476.59 881.9975 475.93 884.3075 475.25 886.6875 C474.59 886.6875 473.93 886.6875 473.25 886.6875 C473.00765625 887.3578125 472.7653125 888.028125 472.515625 888.71875 C463.31134331 910.30904037 447.29470656 930.08033369 433.25 948.6875 C432.78609863 949.30592773 432.32219727 949.92435547 431.84423828 950.56152344 C426.4354656 957.7638056 420.7725437 964.7127703 414.9140625 971.55078125 C412.4040427 974.48697962 409.98070985 977.48762519 407.5625 980.5 C404.88729712 983.80578641 402.1491379 986.82704744 399.0625 989.75 C395.41521438 993.26650646 393.00094399 997.05898619 390.57421875 1001.48828125 C388.48984394 1004.94994206 386.26036349 1006.78357404 382.75 1008.6875 C377.7578158 1011.71584703 373.94407026 1015.83245312 369.91015625 1019.984375 C367.140545 1022.798723 364.26616613 1025.39168745 361.265625 1027.953125 C358.94885379 1029.94662581 356.69580016 1032.00304388 354.4375 1034.0625 C349.18824117 1038.79321502 343.75441004 1043.25833694 338.25 1047.6875 C337.12864698 1048.60124442 336.00756489 1049.51532139 334.88671875 1050.4296875 C316.0639073 1065.71663703 296.38499384 1079.48402033 275.65673828 1092.04711914 C271.67291125 1094.47914635 267.85193815 1096.93840868 264.18359375 1099.828125 C260.88498666 1102.35989117 257.62736127 1103.98498979 253.79980469 1105.57421875 C248.97434069 1107.68108545 244.37575089 1110.25340258 239.72338867 1112.71350098 C165.7690946 1151.68334065 84.26123327 1172.54335849 1 1176.875 C-0.21675919 1176.9393222 -0.21675919 1176.9393222 -1.45809937 1177.00494385 C-66.98160841 1180.39703086 -132.14484433 1170.80930107 -194.75 1151.6875 C-195.98347168 1151.31222168 -197.21694336 1150.93694336 -198.48779297 1150.55029297 C-204.32384976 1148.76612935 -210.08140659 1146.94911347 -215.75 1144.6875 C-217.46703125 1144.00494141 -217.46703125 1144.00494141 -219.21875 1143.30859375 C-221.83508509 1142.26604398 -224.44943167 1141.21867804 -227.0625 1140.16796875 C-230.07971509 1138.95660803 -233.10140052 1137.75776667 -236.125 1136.5625 C-239.85720421 1135.07206166 -243.51665721 1133.45721051 -247.17578125 1131.796875 C-250.29062224 1130.45451561 -253.45607784 1129.27164929 -256.625 1128.0625 C-263.7472192 1125.30003678 -270.43132046 1121.84417396 -277.14013672 1118.20263672 C-281.60285253 1115.78300058 -286.04882812 1113.60672841 -290.75 1111.6875 C-290.75 1111.0275 -290.75 1110.3675 -290.75 1109.6875 C-291.636875 1109.39875 -292.52375 1109.11 -293.4375 1108.8125 C-296.25382424 1107.85601252 -299.00083156 1106.81951054 -301.75 1105.6875 C-301.75 1105.0275 -301.75 1104.3675 -301.75 1103.6875 C-302.53503906 1103.48125 -303.32007813 1103.275 -304.12890625 1103.0625 C-309.04761268 1101.19477113 -313.25136099 1098.4919051 -317.6875 1095.6875 C-318.62045898 1095.10299072 -319.55341797 1094.51848145 -320.51464844 1093.91625977 C-328.35752514 1088.98177194 -336.11476775 1083.93734858 -343.75 1078.6875 C-344.40887207 1078.23584473 -345.06774414 1077.78418945 -345.74658203 1077.31884766 C-365.04840423 1064.03660766 -383.15118313 1049.44732662 -400.50390625 1033.71875 C-408.90038949 1025.49309527 -408.90038949 1025.49309527 -418.75 1019.5 C-421.9771691 1017.550252 -422.38381111 1016.81235258 -423.953125 1013.56640625 C-426.70850242 1008.4052219 -430.26668325 1004.79170834 -434.5 1000.8125 C-439.98556197 995.50004874 -445.03266494 990.19001228 -449.75390625 984.18359375 C-451.78358896 981.64549737 -453.92216796 979.2636597 -456.125 976.875 C-485.65661024 944.32891743 -509.1213993 904.76926529 -528.75 865.6875 C-529.20971191 864.77742187 -529.66942383 863.86734375 -530.14306641 862.9296875 C-554.17195494 815.05943635 -570.52898993 762.58446247 -578.75 709.6875 C-578.92724609 708.55924805 -579.10449219 707.43099609 -579.28710938 706.26855469 C-589.46167328 639.95023294 -587.69668396 573.47026459 -573.75 507.875 C-573.54084961 506.88779968 -573.33169922 505.90059937 -573.11621094 504.88348389 C-570.50183588 492.64547766 -567.47475774 480.63425729 -563.75 468.6875 C-563.32073849 467.29881629 -562.89170201 465.910063 -562.46289062 464.52124023 C-561.67078255 461.96756585 -560.87547616 459.41548982 -560.06640625 456.8671875 C-559.12064285 453.87716977 -558.19468989 450.88166783 -557.27734375 447.8828125 C-554.52298372 438.93070016 -551.52893765 430.2693455 -547.75 421.6875 C-546.93461019 419.70952214 -546.12216535 417.73032799 -545.3125 415.75 C-543.0721976 410.3647936 -540.655918 405.07336297 -538.1796875 399.79296875 C-537.20528009 397.67642806 -536.26642082 395.54324435 -535.359375 393.39697266 C-533.8836633 389.94415626 -532.25645673 386.58637464 -530.5703125 383.23046875 C-530.27567108 382.64260086 -529.98102966 382.05473297 -529.67745972 381.4490509 C-528.74520609 379.59007316 -527.81017768 377.73250819 -526.875 375.875 C-526.25632205 374.64267268 -525.63783117 373.41025141 -525.01953125 372.17773438 C-523.82290885 369.79296695 -522.62514969 367.40878237 -521.42675781 365.02490234 C-519.19473828 360.5823125 -516.97112785 356.13554323 -514.75 351.6875 C-514.09 351.6875 -513.43 351.6875 -512.75 351.6875 C-512.49347656 350.98882812 -512.23695313 350.29015625 -511.97265625 349.5703125 C-510.62020363 346.38146256 -508.9696848 343.53156779 -507.1875 340.5625 C-505.39686939 337.57687474 -503.85117028 334.99101083 -502.75 331.6875 C-502.09 331.6875 -501.43 331.6875 -500.75 331.6875 C-500.48960937 330.97078125 -500.22921875 330.2540625 -499.9609375 329.515625 C-497.65801351 324.13718317 -494.06662797 319.48369771 -490.75 314.6875 C-490.2977002 314.03104492 -489.84540039 313.37458984 -489.37939453 312.69824219 C-482.50459991 302.74904875 -475.34867189 293.094538 -467.75 283.6875 C-467.00234375 282.75679688 -466.2546875 281.82609375 -465.484375 280.8671875 C-463.26011945 278.12287219 -461.01219129 275.40062643 -458.75 272.6875 C-458.32170898 272.1728418 -457.89341797 271.65818359 -457.45214844 271.12792969 C-446.20502916 257.66193627 -434.12364636 244.99351397 -421.75 232.5625 C-421.06848877 231.87631592 -420.38697754 231.19013184 -419.68481445 230.4831543 C-415.76632398 226.57711716 -411.73809738 222.85617063 -407.54931641 219.24169922 C-405.30792825 217.30565078 -403.12339585 215.31081459 -400.9375 213.3125 C-395.68601708 208.5853709 -390.27989505 204.08403717 -384.75 199.6875 C-384.09999023 199.17026367 -383.44998047 198.65302734 -382.78027344 198.12011719 C-373.82230767 191.01693865 -364.77071416 184.12061476 -355.31982422 177.68237305 C-352.31506587 175.61389064 -349.73938583 173.67664424 -347.17578125 171.0546875 C-344.3905009 168.33668445 -341.77527153 167.00422526 -338.25 165.375 C-333.49107999 163.10721366 -328.96958151 160.68834064 -324.5 157.875 C-317.18615687 153.27949808 -309.67424807 149.08930167 -302.08837891 144.9609375 C-300.56514098 144.13141056 -299.0438722 143.29825422 -297.52490234 142.4609375 C-266.10116495 125.16986389 -232.26747419 112.33606866 -197.890625 102.2734375 C-192.79242395 100.75758161 -188.09494716 98.82991016 -183.3125 96.5 C-180.75 95.6875 -180.75 95.6875 -177.56640625 95.83984375 C-171.35217297 95.89815708 -165.36191583 94.26215197 -159.33041382 92.92391968 C-135.70641412 87.7134788 -111.86278545 84.61463246 -87.75 82.6875 C-86.450625 82.57535156 -85.15125 82.46320313 -83.8125 82.34765625 C-51.53133672 79.9721271 -18.45194964 81.59062806 13.61547852 85.72192383 C20.87979785 86.63120633 27.86820043 86.87920419 35.17578125 86.5 C38.25 86.6875 38.25 86.6875 40.55810547 88.10498047 C43.54051699 89.85829005 46.0128784 90.49843763 49.39453125 91.1953125 C51.2206897 91.58444824 51.2206897 91.58444824 53.08374023 91.98144531 C54.05378494 92.18332458 54.05378494 92.18332458 55.04342651 92.38928223 C105.28185488 102.91975372 155.14698713 119.99471652 199.81860352 145.47509766 C202.14260996 146.63395056 204.087515 147.21207223 206.625 147.6875 C210.65786925 148.80001565 211.41705592 150.02394636 213.91455078 153.18505859 C215.94449536 155.46883902 218.29404334 156.61611608 221 158 C228.27162122 161.90887566 235.05842359 166.47710475 241.875 171.125 C242.91108398 171.82858643 243.94716797 172.53217285 245.01464844 173.25708008 C254.89792663 180.02545289 264.49389734 187.16073451 273.8125 194.6875 C274.76189453 195.45247803 274.76189453 195.45247803 275.73046875 196.23291016 C276.9930481 197.25108839 278.25495714 198.27009852 279.51611328 199.29003906 C281.04452006 200.5218893 282.58211656 201.74231883 284.12109375 202.9609375 C294.80569849 211.50227086 304.68442535 220.99523178 314.26953125 230.7421875 C316.23639874 232.67414018 318.27431336 234.46541669 320.375 236.25 C323.61550839 239.04026162 326.38406031 242.00612156 329.14453125 245.265625 C331.34493674 247.79670367 333.62060855 250.23992735 335.91748047 252.68310547 C341.98555352 259.13986836 347.7318919 265.74991265 353.25 272.6875 C354.16941877 273.81604542 355.09006036 274.94359538 356.01171875 276.0703125 C373.06254844 297.00274663 387.6236784 319.41313794 401.25 342.6875 C401.66572266 343.39358398 402.08144531 344.09966797 402.50976562 344.82714844 C436.83379646 403.50382636 460.57121582 473.33231639 465.73046875 541.296875 C466.33287903 545.22839473 467.61054946 548.07633695 469.25 551.6875 C469.5 554.5625 469.5 554.5625 469.25 556.6875 C468.92 557.0175 468.59 557.3475 468.25 557.6875 C468.17180626 559.46635401 468.16424378 561.24834733 468.18408203 563.02880859 C468.19850845 564.75305305 468.19850845 564.75305305 468.21322632 566.51213074 C468.22793976 567.77398697 468.2426532 569.0358432 468.2578125 570.3359375 C468.27803262 573.02433078 468.29722781 575.71271682 468.31542969 578.40112305 C468.32064573 579.10343835 468.32586178 579.80575365 468.33123589 580.52935123 C468.51567693 605.73036341 468.38640962 630.64059012 465.25 655.6875 C465.11609863 656.8532959 464.98219727 658.0190918 464.84423828 659.22021484 C461.62334519 687.03701883 455.6587944 714.97133039 447.25 741.6875 C446.92999023 742.72390625 446.60998047 743.7603125 446.28027344 744.828125 C445.23802452 748.20097192 444.18439381 751.57000097 443.125 754.9375 C442.80015625 755.97422852 442.4753125 757.01095703 442.140625 758.07910156 C440.42487809 763.43383607 438.5121914 768.55865257 436.15625 773.66357422 C434.84739781 776.58663043 433.83534521 779.59185694 432.8125 782.625 C431.02187462 787.73792417 429.00832328 792.53010834 426.4609375 797.30859375 C425.5240519 799.14912062 424.67771854 801.03589197 423.87084961 802.93701172 C422.40355692 806.38086718 420.78655742 809.72857004 419.10546875 813.07421875 C418.81319901 813.65734329 418.52092926 814.24046783 418.21980286 814.84126282 C417.29426856 816.68680293 416.36596317 818.53093192 415.4375 820.375 C414.82728515 821.59040001 414.2172579 822.80589424 413.60742188 824.02148438 C412.40897641 826.40981585 411.20942318 828.79757986 410.00927734 831.18505859 C407.41549648 836.34886379 404.83214014 841.51786629 402.25 846.6875 C401.59 846.6875 400.93 846.6875 400.25 846.6875 C399.97236816 847.4201709 399.69473633 848.1528418 399.40869141 848.90771484 C398.3354402 851.48252274 397.13536553 853.77025373 395.7109375 856.1640625 C395.21706543 856.99405762 394.72319336 857.82405273 394.21435547 858.67919922 C393.68986816 859.54818848 393.16538086 860.41717773 392.625 861.3125 C392.08375488 862.2111377 391.54250977 863.10977539 390.98486328 864.03564453 C387.04704642 870.51119164 382.8214319 876.64345268 378.25 882.6875 C377.07962987 884.32721651 375.90958723 885.96718367 374.74682617 887.61230469 C365.54604436 900.61987169 356.19923801 913.09418917 345.25 924.6875 C344.03312265 926.05494432 342.82373903 927.4291276 341.625 928.8125 C334.26059951 937.29381511 326.64793755 945.44914799 318.6875 953.375 C317.79353516 954.27283203 316.89957031 955.17066406 315.97851562 956.09570312 C310.89663177 961.17015189 305.69967457 966.0133709 300.25 970.6875 C298.60074216 972.18373392 296.95436567 973.68315812 295.3125 975.1875 C290.78886048 979.26427543 286.09854138 983.00849496 281.25 986.6875 C280.31929687 987.41324219 279.38859375 988.13898437 278.4296875 988.88671875 C255.87937559 1006.43526975 232.23479262 1021.82289286 207.25 1035.6875 C206.59547852 1036.05536621 205.94095703 1036.42323242 205.26660156 1036.80224609 C150.95379828 1067.27857244 88.90034005 1084.43465447 27.31716919 1091.45150757 C25.88059066 1091.61551043 24.44447931 1091.78363688 23.00875854 1091.95498657 C7.48311552 1093.77867791 -7.9415279 1094.04707171 -23.5625 1094 C-24.81868134 1093.99817719 -26.07486267 1093.99635437 -27.36911011 1093.99447632 C-46.68553908 1093.94734323 -65.60175812 1093.34842027 -84.75 1090.6875 C-86.0390625 1090.51589355 -87.328125 1090.34428711 -88.65625 1090.16748047 C-123.59649647 1085.47079355 -160.2541389 1078.46759705 -192.625 1064.25 C-198.20454237 1061.86086789 -203.87416986 1059.84676892 -209.62109375 1057.8984375 C-212.58876996 1056.74989864 -215.06271335 1055.37390948 -217.75 1053.6875 C-219.45391417 1052.94806555 -221.15869332 1052.21019587 -222.875 1051.5 C-224.81695073 1050.65848802 -226.6820031 1049.72057905 -228.5625 1048.75 C-232.41867332 1046.78821862 -236.37854606 1045.20926365 -240.40625 1043.63671875 C-243.28278337 1042.47172274 -246.00503305 1041.13221945 -248.75 1039.6875 C-248.75 1039.0275 -248.75 1038.3675 -248.75 1037.6875 C-249.636875 1037.39875 -250.52375 1037.11 -251.4375 1036.8125 C-254.25382424 1035.85601252 -257.00083156 1034.81951054 -259.75 1033.6875 C-259.75 1033.0275 -259.75 1032.3675 -259.75 1031.6875 C-262.06 1031.0275 -264.37 1030.3675 -266.75 1029.6875 C-266.75 1029.0275 -266.75 1028.3675 -266.75 1027.6875 C-269.06 1027.0275 -271.37 1026.3675 -273.75 1025.6875 C-273.75 1025.0275 -273.75 1024.3675 -273.75 1023.6875 C-274.83063721 1023.29159668 -274.83063721 1023.29159668 -275.93310547 1022.88769531 C-278.81398946 1021.66023599 -281.21462796 1020.21693266 -283.8203125 1018.484375 C-284.79009033 1017.84056885 -285.75986816 1017.1967627 -286.7590332 1016.53344727 C-287.78730225 1015.84178467 -288.81557129 1015.15012207 -289.875 1014.4375 C-290.93871826 1013.72456787 -292.00243652 1013.01163574 -293.09838867 1012.27709961 C-309.99680774 1000.87543691 -326.19300306 988.82260156 -341.20703125 975.015625 C-343.32067054 973.08055738 -345.45659848 971.18541703 -347.625 969.3125 C-358.58914942 959.76671077 -369.40545235 949.89155559 -378.875 938.84375 C-381.09775991 936.2875761 -383.39222272 933.80371559 -385.6875 931.3125 C-390.27871908 926.26697738 -394.55162865 921.06084217 -398.75 915.6875 C-399.74126265 914.46018995 -400.73353148 913.23369218 -401.7265625 912.0078125 C-419.896255 889.36323474 -435.11281944 864.6533126 -448.70410156 839.04663086 C-451.29067146 834.18336361 -453.8972926 829.41223657 -456.86328125 824.76953125 C-459.86791942 819.84613124 -461.67662599 814.71437715 -463.52148438 809.26660156 C-464.69235458 805.85544155 -465.97491417 802.52213854 -467.328125 799.1796875 C-483.17674818 759.97581783 -493.74783708 719.77842554 -499 677.8125 C-499.08317474 677.147948 -499.16634949 676.483396 -499.25204468 675.79870605 C-500.85966333 662.79794636 -501.90110748 649.89267551 -501.953125 636.78515625 C-501.96009399 635.59675644 -501.96706299 634.40835663 -501.97424316 633.1839447 C-501.99153194 629.37259332 -501.99796234 625.56138896 -502 621.75 C-502.00100708 620.44893311 -502.00201416 619.14786621 -502.00305176 617.80737305 C-501.99313176 598.88819046 -501.49899786 580.4277613 -498.75 561.6875 C-498.444696 559.41544734 -498.14001877 557.14331038 -497.8359375 554.87109375 C-496.05272805 542.06783371 -493.53195444 529.56804382 -490.33935547 517.046875 C-489.78006462 514.80785813 -489.25804816 512.56450447 -488.75390625 510.3125 C-485.70967899 496.71725779 -482.22995308 482.99908447 -476.7421875 470.1640625 C-475.43878339 466.91068374 -474.38666771 463.58392274 -473.3125 460.25 C-471.56429822 454.87895448 -469.54267476 449.76353247 -467.11328125 444.6640625 C-466.08519899 442.41936713 -465.13637141 440.19187633 -464.23046875 437.8984375 C-460.06493907 427.36034331 -455.12525401 417.43354298 -449.67041016 407.50244141 C-448.61887374 405.5392031 -448.61887374 405.5392031 -447.75 402.6875 C-447.09 402.6875 -446.43 402.6875 -445.75 402.6875 C-445.35059204 401.37241455 -445.35059204 401.37241455 -444.94311523 400.03076172 C-443.78818576 396.7945014 -442.42315809 394.1365004 -440.66015625 391.1953125 C-440.0463208 390.16849365 -439.43248535 389.1416748 -438.80004883 388.08374023 C-438.14415771 387.00423096 -437.4882666 385.92472168 -436.8125 384.8125 C-436.13662842 383.69496338 -435.46075684 382.57742676 -434.7644043 381.42602539 C-429.39759063 372.61778934 -423.81634136 364.02844492 -417.75 355.6875 C-417.28029785 355.04055176 -416.8105957 354.39360352 -416.32666016 353.72705078 C-406.60050267 340.40510334 -396.40867553 327.39151894 -385.1640625 315.3125 C-383.27702615 313.26057698 -381.45744322 311.18223243 -379.64453125 309.06640625 C-375.39462592 304.19353201 -370.84178649 299.62877068 -366.26196289 295.0690918 C-364.81475615 293.62724779 -363.37297974 292.18012884 -361.93164062 290.73242188 C-356.70831807 285.50501488 -351.38685016 280.46689176 -345.75 275.6875 C-344.74039117 274.81046447 -343.73124432 273.93289671 -342.72265625 273.0546875 C-333.99398255 265.57966224 -324.97526662 258.53887903 -315.75 251.6875 C-314.7612085 250.95128418 -314.7612085 250.95128418 -313.75244141 250.20019531 C-291.7837921 233.96417078 -268.14673094 220.82622987 -243.75 208.6875 C-242.24348536 207.92318541 -240.73697426 207.15886384 -239.23046875 206.39453125 C-216.90271379 195.28057918 -193.02587275 187.45364123 -169.09228516 180.65991211 C-165.73503411 179.68314579 -162.40879566 178.62987234 -159.078125 177.56640625 C-153.30693839 175.77998269 -147.58548843 174.57303297 -141.625 173.625 C-140.62911865 173.4607251 -139.6332373 173.2964502 -138.60717773 173.12719727 C-136.59110036 172.79593509 -134.57442345 172.46829863 -132.55712891 172.14453125 C-130.08957423 171.74278639 -127.62871055 171.31615362 -125.16796875 170.875 C-120.37649229 170.03236476 -115.57138608 169.33556777 -110.75 168.6875 C-109.74243652 168.54924805 -108.73487305 168.41099609 -107.69677734 168.26855469 C-71.53103596 163.54177391 -33.11235591 163.17656645 3.02392578 168.24316406 C6.34356027 168.70038631 9.66635031 169.08496015 12.99609375 169.4609375 C92.03532306 178.89812125 169.76705071 215.72739805 230.25 266.6875 C230.7670752 267.1196582 231.28415039 267.55181641 231.81689453 267.99707031 C246.43829478 280.23403106 260.98150294 293.0923093 273.41796875 307.578125 C275.40311587 309.86379546 277.4503983 312.08451378 279.5 314.3125 C285.08827038 320.50798482 290.16317147 327.08057347 295.25 333.6875 C295.91829834 334.55375 295.91829834 334.55375 296.60009766 335.4375 C298.32273555 337.67090162 300.04512227 339.90439198 301.75708008 342.14599609 C303.52451858 344.45941209 305.30478518 346.75445966 307.1484375 349.0078125 C310.95020121 353.66970375 314.00519521 358.52242336 316.92724609 363.78125 C319.34482125 368.1317476 321.88022666 372.39217323 324.47998047 376.63623047 C359.41141604 433.83042485 379.14478404 498.05980827 384.25 564.6875 C384.30161285 565.35898071 384.35322571 566.03046143 384.40640259 566.72229004 C388.51587075 621.78698239 381.21175444 676.13270834 363.66015625 728.42578125 C362.63409444 731.49499528 361.68381664 734.57024294 360.8125 737.6875 C359.61179818 741.74612229 358.07266186 745.49152241 356.2890625 749.32421875 C354.74100067 752.84518644 353.51698952 756.47024321 352.27734375 760.109375 C351.18736425 762.84468477 349.77337315 765.17234746 348.25 767.6875 C347.56899962 769.29807883 346.92246854 770.92370041 346.3125 772.5625 C345.11587465 775.64540882 343.87108091 778.52833457 342.1875 781.375 C340.58101494 784.12157122 339.36986639 786.78757735 338.171875 789.72265625 C336.57560606 793.12487353 334.54251161 796.26865056 332.5546875 799.453125 C331.12060676 801.73353204 331.12060676 801.73353204 330.25 804.6875 C329.59 804.6875 328.93 804.6875 328.25 804.6875 C328.02054688 805.34234375 327.79109375 805.9971875 327.5546875 806.671875 C325.83269518 810.65204886 323.64376631 814.24758609 321.375 817.9375 C320.8903125 818.72672852 320.405625 819.51595703 319.90625 820.32910156 C308.30350243 839.00506255 294.75889984 856.20191081 280.25 872.6875 C279.425 873.6259375 278.6 874.564375 277.75 875.53125 C271.72996468 882.2285393 265.41690967 888.62125725 259.0625 895 C258.21880859 895.84836426 257.37511719 896.69672852 256.50585938 897.57080078 C251.58169096 902.48239768 246.55794546 907.19387615 241.25 911.6875 C240.61989014 912.22431396 239.98978027 912.76112793 239.34057617 913.31420898 C222.57285086 927.50555999 205.07500137 940.3582719 186.25 951.6875 C185.4652832 952.16364746 184.68056641 952.63979492 183.87207031 953.13037109 C136.26233839 981.82624906 83.2643339 999.96724695 28.25 1007.6875 C27.20199219 1007.83848145 26.15398438 1007.98946289 25.07421875 1008.14501953 C-39.75808886 1017.14195803 -110.12084979 1008.26307889 -170.75 983.6875 C-171.80832031 983.26855469 -172.86664062 982.84960938 -173.95703125 982.41796875 C-180.12718461 979.92297734 -186.04287279 977.07219126 -191.96875 974.046875 C-195.49359272 972.32405862 -199.0449008 970.97003434 -202.75 969.6875 C-202.75 969.0275 -202.75 968.3675 -202.75 967.6875 C-203.513125 967.460625 -204.27625 967.23375 -205.0625 967 C-210.10322087 965.20584512 -214.90345951 962.94691923 -219.75 960.6875 C-219.75 960.0275 -219.75 959.3675 -219.75 958.6875 C-222.06 958.0275 -224.37 957.3675 -226.75 956.6875 C-226.75 956.0275 -226.75 955.3675 -226.75 954.6875 C-228.4 954.3575 -230.05 954.0275 -231.75 953.6875 C-231.75 953.0275 -231.75 952.3675 -231.75 951.6875 C-232.45125 951.419375 -233.1525 951.15125 -233.875 950.875 C-236.9149824 949.6193551 -239.8227774 948.18514877 -242.75 946.6875 C-242.75 946.0275 -242.75 945.3675 -242.75 944.6875 C-243.72066406 944.38005859 -243.72066406 944.38005859 -244.7109375 944.06640625 C-249.00037728 942.12016944 -252.58873133 939.40624952 -256.375 936.625 C-257.17897217 936.0386377 -257.98294434 935.45227539 -258.8112793 934.84814453 C-264.97172452 930.32556841 -270.91974123 925.63016714 -276.75 920.6875 C-277.73742187 919.8728125 -278.72484375 919.058125 -279.7421875 918.21875 C-293.59230136 906.74618195 -307.20820923 894.45126834 -318.92578125 880.78515625 C-320.1696954 879.35478816 -321.43934069 877.94649275 -322.73046875 876.55859375 C-367.25036891 828.63279959 -397.40958958 765.37577168 -410.75 701.6875 C-410.94142578 700.79740234 -411.13285156 699.90730469 -411.33007812 698.99023438 C-416.65062268 674.01889808 -418.66126609 648.7134513 -419.36254883 623.23510742 C-419.4125723 621.4930847 -419.4679233 619.75120692 -419.52856445 618.00952148 C-419.90117418 607.29222109 -419.57898608 597.29462116 -417.75 586.6875 C-417.51037732 584.78821523 -417.28449119 582.88713278 -417.07421875 580.984375 C-409.29516347 512.65417684 -383.54354164 445.86383555 -340.75 391.6875 C-340.28303711 391.09195312 -339.81607422 390.49640625 -339.33496094 389.8828125 C-322.78556452 368.84490716 -304.02205622 348.0002352 -282.75 331.6875 C-281.65072576 330.79133041 -280.55458578 329.89130795 -279.4609375 328.98828125 C-262.97804547 315.43293086 -245.51949518 303.82661646 -226.75 293.6875 C-225.31140625 292.90947021 -225.31140625 292.90947021 -223.84375 292.11572266 C-158.60657427 257.0400109 -81.66099131 240.3562605 -7.75 250.6875 C-6.06801514 250.92146484 -6.06801514 250.92146484 -4.35205078 251.16015625 C61.61417578 260.66309405 124.48412577 286.57406383 175.70703125 329.6171875 C178.51833267 331.90595824 181.43358481 334.00659057 184.375 336.125 C189.14767762 339.67234319 192.98628338 343.44605768 196.83984375 347.95703125 C199.67267075 351.16634417 202.69149256 354.13322044 205.75 357.125 C210.45601765 361.77164424 214.808544 366.53894999 218.91015625 371.73828125 C220.59372837 373.86031289 222.2961489 375.92674984 224.05859375 377.98046875 C238.47063349 394.94377939 250.84211917 414.03059903 261.25 433.6875 C261.88421875 434.81542969 262.5184375 435.94335938 263.171875 437.10546875 C272.63866242 454.02230943 280.22274835 471.8978864 285.52539062 490.54052734 C287.28437748 496.73933253 287.28437748 496.73933253 291.0390625 501.83203125 C293.25 504.6875 293.25 504.6875 293.24853516 506.56225586 C292.99854209 508.05760999 292.74128233 509.5517594 292.47851562 511.04492188 C291.99902847 516.5897605 293.77980007 522.06005871 295 527.4375 C303.21994702 566.11106505 305.10540732 608.61428489 298.25 647.6875 C298.06244141 648.78513672 297.87488281 649.88277344 297.68164062 651.01367188 C295.47368274 663.71121611 293.01980196 676.35171739 289.25 688.6875 C288.9622168 689.63544434 288.67443359 690.58338867 288.37792969 691.56005859 C287.36934845 694.85680196 286.3442515 698.14793751 285.3125 701.4375 C284.98854248 702.4797876 284.66458496 703.5220752 284.33081055 704.59594727 C282.10825781 711.5494963 279.38472253 718.09957514 276.25 724.6875 C274.006472 729.62940687 271.86903267 734.60219124 269.8125 739.625 C267.54270835 745.11620402 264.99012254 750.41713665 262.25 755.6875 C261.59 755.6875 260.93 755.6875 260.25 755.6875 C259.92128906 756.89986328 259.92128906 756.89986328 259.5859375 758.13671875 C257.88412024 762.6599699 255.48592553 766.44998816 252.875 770.5 C252.34189209 771.33313721 251.80878418 772.16627441 251.25952148 773.0246582 C236.54129723 795.84687901 219.75017927 816.40825821 200.5625 835.625 C200.03498138 836.15385803 199.50746277 836.68271606 198.96395874 837.2276001 C191.15445074 845.03282487 183.19246808 852.20250406 174.25 858.6875 C172.67633593 859.93151873 171.1027089 861.17560073 169.53393555 862.42578125 C121.3014327 900.54561222 60.90117762 920.98953782 0.25 926.6875 C-0.67337158 926.78248779 -1.59674316 926.87747559 -2.5480957 926.9753418 C-50.40966923 931.73737153 -103.17841384 923.18233542 -146.81640625 903.03125 C-149.16933399 901.95347751 -151.52991654 900.90197753 -153.8984375 899.859375 C-159.25117946 897.48558426 -164.53145705 894.96593253 -169.8125 892.4375 C-170.77349609 891.97859375 -171.73449219 891.5196875 -172.72460938 891.046875 C-175.06692262 889.92815823 -177.40870654 888.80834901 -179.75 887.6875 C-179.75 887.0275 -179.75 886.3675 -179.75 885.6875 C-180.40355469 885.45804688 -181.05710937 885.22859375 -181.73046875 884.9921875 C-185.72766935 883.26506589 -189.35195393 881.08194956 -193.0625 878.8125 C-193.85285645 878.3292627 -194.64321289 877.84602539 -195.45751953 877.34814453 C-202.95006672 872.68980632 -209.9537143 867.49621893 -216.91894531 862.09228516 C-218.6857881 860.73676337 -220.47252217 859.41527152 -222.2734375 858.10546875 C-223.33820313 857.32816406 -224.40296875 856.55085937 -225.5 855.75 C-226.42296875 855.08097656 -227.3459375 854.41195312 -228.296875 853.72265625 C-230.86475312 851.59229876 -232.71219354 849.318431 -234.75 846.6875 C-235.82332162 845.69474247 -236.92850143 844.73534021 -238.0625 843.8125 C-248.62633504 834.75213212 -258.18898486 824.64320469 -266.75 813.6875 C-267.70054295 812.52392756 -268.65384331 811.36260416 -269.609375 810.203125 C-285.0042871 791.44134612 -297.43814378 770.64195414 -307.75 748.6875 C-308.04326172 748.06375488 -308.33652344 747.44000977 -308.63867188 746.79736328 C-321.81241799 718.44740296 -329.70320124 688.64788476 -333.75 657.6875 C-333.86714355 656.81673828 -333.98428711 655.94597656 -334.10498047 655.04882812 C-339.94389113 610.03802795 -334.35321835 562.33350583 -317.69458008 520.11499023 C-317.00104909 518.33267475 -316.3295341 516.54175181 -315.6706543 514.74633789 C-312.54951541 506.33247237 -308.76365939 498.35599726 -304.6875 490.375 C-304.06908557 489.15328613 -303.45124523 487.93128149 -302.83398438 486.70898438 C-301.66304076 484.39213589 -300.4886038 482.07718151 -299.31201172 479.76318359 C-297.44123008 476.07951571 -295.59213804 472.38555766 -293.75 468.6875 C-293.09 468.6875 -292.43 468.6875 -291.75 468.6875 C-291.52183594 468.01589844 -291.29367187 467.34429688 -291.05859375 466.65234375 C-289.38457207 462.85956031 -287.17923136 459.64187772 -284.8125 456.25 C-284.32668457 455.54915283 -283.84086914 454.84830566 -283.34033203 454.1262207 C-278.80557538 447.64977034 -273.99617313 441.41815248 -269.02587891 435.27197266 C-267.83164663 433.7888943 -266.65536263 432.29141344 -265.48046875 430.79296875 C-258.09295647 421.48869653 -249.76814598 413.06438516 -240.7109375 405.375 C-239.315936 404.17452062 -237.94864583 402.94151212 -236.6015625 401.6875 C-184.25733776 352.99519792 -111.09738463 329.69552211 -40.4921875 331.53955078 C-15.46711781 332.52892919 9.39160467 336.69019892 33.11621094 344.78613281 C38.12392086 346.46435592 42.69581097 347.32155999 48.0234375 347.19140625 C50.80292815 347.81069627 51.70989707 349.20776063 53.58398438 351.24536133 C57.35542298 354.50999905 62.30483401 356.21543781 66.8125 358.25 C83.9873042 366.26548946 99.69362898 375.65009711 114.58544922 387.37695312 C116.04878362 388.52907677 117.52534439 389.66435953 119.00390625 390.796875 C134.85485833 403.11125832 150.07588808 417.73746032 162.25 433.6875 C162.65750488 434.21327637 163.06500977 434.73905273 163.48486328 435.28076172 C205.61751561 489.84911241 225.71171872 559.76737258 217.125 628.4375 C214.2078988 649.37199096 209.4967974 671.56344175 200.25 690.6875 C197.34551936 696.96192293 194.56169523 703.24975606 192.046875 709.69140625 C191.25 711.6875 191.25 711.6875 190.25 713.6875 C189.59 713.6875 188.93 713.6875 188.25 713.6875 C187.89421875 714.94046875 187.89421875 714.94046875 187.53125 716.21875 C186.04277903 720.24851288 184.05752695 723.58356005 181.75 727.1875 C181.30712646 727.88528564 180.86425293 728.58307129 180.40795898 729.30200195 C172.82988765 741.13076158 164.56679108 752.17429039 155.25 762.6875 C154.77304687 763.22761719 154.29609375 763.76773438 153.8046875 764.32421875 C136.4889203 783.81603156 116.65919257 799.38749222 94.25 812.6875 C93.30423096 813.24945068 93.30423096 813.24945068 92.33935547 813.82275391 C74.60575603 824.1847776 55.04432778 831.42404698 35.25 836.6875 C34.55455078 836.88037598 33.85910156 837.07325195 33.14257812 837.27197266 C-13.38134741 850.08728068 -69.84907844 847.13672779 -113.75 826.6875 C-115.08253853 826.10235334 -116.41590673 825.51909324 -117.75 824.9375 C-125.14484638 821.65678103 -132.43741021 818.1464977 -139.75 814.6875 C-139.75 814.0275 -139.75 813.3675 -139.75 812.6875 C-140.47574219 812.41679688 -141.20148437 812.14609375 -141.94921875 811.8671875 C-157.44793249 805.33913792 -171.80134253 792.28212317 -183.75 780.6875 C-184.34167969 780.12160156 -184.93335938 779.55570313 -185.54296875 778.97265625 C-199.81289689 765.29117876 -211.24470595 750.41682101 -221.75 733.6875 C-222.18699219 732.99237305 -222.62398437 732.29724609 -223.07421875 731.58105469 C-239.88377867 704.33663719 -248.34214631 673.27339964 -251.75 641.6875 C-251.84498779 640.841875 -251.93997559 639.99625 -252.0378418 639.125 C-257.129319 591.76747335 -243.25786724 541.42060003 -215.75 502.6875 C-215.30043945 502.05150879 -214.85087891 501.41551758 -214.38769531 500.76025391 C-207.87626693 491.63235109 -200.89942265 483.13703707 -193.09912109 475.08349609 C-191.88250663 473.82461055 -190.68421202 472.54808245 -189.48828125 471.26953125 C-183.16632079 464.66711413 -176.04285622 459.16261071 -168.75 453.6875 C-167.91726563 453.05972656 -167.08453125 452.43195313 -166.2265625 451.78515625 C-126.30993246 422.8353819 -75.02925701 408.70879645 -26.00634766 415.87255859 C-21.22125778 416.67227558 -16.48319901 417.62468168 -11.75 418.6875 C-10.88955078 418.88005371 -10.02910156 419.07260742 -9.14257812 419.27099609 C29.28537336 428.13727557 67.16683283 448.69609217 92.25 479.6875 C93.06855469 480.66847656 93.88710938 481.64945313 94.73046875 482.66015625 C116.70862327 509.42867391 130.63598641 541.79351944 134.79296875 576.19140625 C135.10929675 578.68976133 135.10929675 578.68976133 136.36328125 580.65234375 C137.62589934 583.55024695 136.79574062 585.59290259 136.25 588.6875 C136.08843468 590.90687062 135.95899156 593.12872819 135.85546875 595.3515625 C134.81224416 615.45676939 133.55654573 636.01974102 125.1328125 654.640625 C123.45277535 658.53593238 122.01892612 662.53200174 120.53125 666.50390625 C119.26026378 669.66199701 117.81348635 672.66506273 116.25 675.6875 C115.59 675.6875 114.93 675.6875 114.25 675.6875 C113.59 677.9975 112.93 680.3075 112.25 682.6875 C111.59 682.6875 110.93 682.6875 110.25 682.6875 C110.01152344 683.37714844 109.77304687 684.06679688 109.52734375 684.77734375 C108.00777074 688.23936789 106.01306892 691.19858406 103.8125 694.25 C103.37365479 694.86061279 102.93480957 695.47122559 102.48266602 696.1003418 C97.85902617 702.40768292 92.67600927 708.0691359 87.25 713.6875 C86.51136719 714.47769531 85.77273438 715.26789062 85.01171875 716.08203125 C57.72092078 744.57023169 17.74041415 760.29601178 -21.30615234 761.16210938 C-35.45313185 761.30194346 -49.0172152 760.16426287 -62.75 756.6875 C-63.48202637 756.50558105 -64.21405273 756.32366211 -64.96826172 756.13623047 C-74.35708113 753.71825833 -82.77918026 749.9716415 -91.32421875 745.45703125 C-94.1040826 744.02113806 -96.82291682 742.77885988 -99.75 741.6875 C-99.75 741.0275 -99.75 740.3675 -99.75 739.6875 C-100.78640625 739.32785156 -100.78640625 739.32785156 -101.84375 738.9609375 C-127.64048771 727.65752824 -146.50609648 700.30287055 -158.21875 675.85546875 C-159.16659379 673.89449602 -160.15885095 671.95352555 -161.21875 670.05078125 C-164.52547812 664.08136799 -165.73841902 658.64662401 -166.4921875 651.890625 C-166.80422672 649.224108 -167.16789865 646.56625611 -167.53125 643.90625 C-167.81341791 641.79178896 -168.09465991 639.67720416 -168.375 637.5625 C-168.5105127 636.56138184 -168.64602539 635.56026367 -168.78564453 634.52880859 C-170.08603548 624.30857471 -170.0291431 614.62246136 -168.5 604.4375 C-168.2997522 603.07951294 -168.2997522 603.07951294 -168.09545898 601.6940918 C-166.87894707 593.83852343 -165.14985139 586.27621927 -162.75 578.6875 C-162.48832031 577.84832031 -162.22664063 577.00914062 -161.95703125 576.14453125 C-153.20111325 551.6032963 -133.04845833 527.87085571 -110.75 514.6875 C-110.10305176 514.30368164 -109.45610352 513.91986328 -108.78955078 513.52441406 C-83.52308632 498.80504214 -53.53747785 493.39811543 -24.98046875 500.91015625 C-4.74402042 506.50821154 12.06898631 516.17672974 27.25 530.6875 C27.75789062 531.15671875 28.26578125 531.6259375 28.7890625 532.109375 C32.21751313 535.81283504 34.62911837 540.39925828 37.25 544.6875 C37.92933594 545.77933594 38.60867188 546.87117187 39.30859375 547.99609375 C52.58248999 569.8324821 55.41912795 594.6338546 49.46484375 619.30859375 C47.57067268 626.49150212 44.59173368 633.08067791 41.25 639.6875 C40.59 639.6875 39.93 639.6875 39.25 639.6875 C39.0025 640.40421875 38.755 641.1209375 38.5 641.859375 C32.54949721 655.32238757 17.74982993 667.0473733 4.35009766 672.45410156 C-14.5606409 679.50902934 -35.14736295 680.69479119 -53.8203125 672.30859375 C-56.16984559 671.16000585 -58.47084399 669.96886882 -60.75 668.6875 C-60.75 668.0275 -60.75 667.3675 -60.75 666.6875 C-61.33265625 666.41808594 -61.9153125 666.14867187 -62.515625 665.87109375 C-73.93299336 659.82308219 -81.38384281 647.57316854 -85.4296875 635.69140625 C-88.19901473 625.65733705 -88.26878265 613.1421837 -83.75 603.6875 C-83.39421875 602.841875 -83.0384375 601.99625 -82.671875 601.125 C-78.56604971 592.41867168 -71.72072459 583.34076798 -62.44091797 579.80859375 C-55.0858976 577.75206718 -47.26295528 576.37184012 -40.0625 579.5 C-38.969375 580.221875 -37.87625 580.94375 -36.75 581.6875 C-36.75 582.3475 -36.75 583.0075 -36.75 583.6875 C-36.028125 583.873125 -35.30625 584.05875 -34.5625 584.25 C-30.65113104 586.24914414 -28.66097213 588.75445271 -26.75 592.6875 C-25.71108402 596.97836533 -25.34605633 600.47566899 -26.75 604.6875 C-27.41 604.6875 -28.07 604.6875 -28.75 604.6875 C-28.75 605.3475 -28.75 606.0075 -28.75 606.6875 C-31.39 607.3475 -34.03 608.0075 -36.75 608.6875 C-36.399375 607.98625 -36.04875 607.285 -35.6875 606.5625 C-34.34880118 602.45715696 -35.26517507 599.57293027 -36.3125 595.5 C-39.51055707 591.46766717 -44.76543542 590.81454059 -49.625 590.1875 C-57.00413948 590.54922252 -63.1175938 594.6335809 -68.1875 599.75 C-74.039273 606.87852347 -75.39725907 615.85824818 -75.09765625 624.8984375 C-73.43742957 638.2175594 -66.25167517 648.68612045 -56.08984375 657.0546875 C-43.72726093 665.80359227 -27.90326921 667.46998595 -13.328125 665.140625 C2.33683384 661.56233491 18.2803215 652.20902037 27.2421875 638.546875 C28.83639767 635.60561903 30.04199704 632.55721118 31.2109375 629.42578125 C32.68905435 625.53044324 34.40470099 621.74192835 36.1015625 617.9375 C42.6855793 599.30518035 40.70978186 578.28055175 32.3828125 560.625 C24.44488388 544.65319839 11.48335482 528.03181469 -5.75 521.6875 C-5.75 521.0275 -5.75 520.3675 -5.75 519.6875 C-7.83476859 518.99257714 -9.92013575 518.299418 -12.0078125 517.61328125 C-13.84562236 516.99282407 -15.67406278 516.3439382 -17.4921875 515.66796875 C-29.21099661 511.428237 -40.77262769 510.52432839 -53.125 510.4375 C-54.04007324 510.4281543 -54.95514648 510.41880859 -55.89794922 510.40917969 C-65.81878103 510.19215564 -65.81878103 510.19215564 -74.37011719 514.24633789 C-75.05315918 514.95971313 -75.05315918 514.95971313 -75.75 515.6875 C-77.8515625 515.91796875 -77.8515625 515.91796875 -80.375 515.875 C-100.18245198 517.211217 -118.19345059 533.7072094 -130.93310547 547.58691406 C-141.53487511 559.84405273 -148.32101887 574.06912841 -152.00390625 589.7578125 C-152.75 592.6875 -152.75 592.6875 -153.76953125 595.703125 C-162.62314187 622.6519637 -155.21715901 654.91602278 -142.87988281 679.55761719 C-127.60946002 708.34309007 -100.74090055 731.5120907 -69.65625 741.55859375 C-68.35500502 741.93778467 -67.05285245 742.31386948 -65.75 742.6875 C-65.00234375 742.91453613 -64.2546875 743.14157227 -63.484375 743.37548828 C-39.6702091 750.38606777 -10.61064573 750.91155553 13.25 743.6875 C14.46067139 743.33341064 14.46067139 743.33341064 15.69580078 742.97216797 C39.84320906 735.73494473 60.20542951 723.08279059 78.25 705.6875 C78.89324219 705.09582031 79.53648437 704.50414062 80.19921875 703.89453125 C89.61486251 695.00563679 97.12925396 684.06516276 102.1875 672.1875 C103.57174475 668.94265097 105.19197693 666.23766368 107.25 663.375 C110.8401972 658.19317885 112.45259389 652.67396278 114.25 646.6875 C114.74220378 645.25997268 115.23580447 643.83292658 115.73046875 642.40625 C117.29848471 637.72718458 118.38984616 633.01869442 119.375 628.1875 C119.54386719 627.39730469 119.71273437 626.60710938 119.88671875 625.79296875 C128.25438553 585.53592623 119.60119634 541.59587158 97.5 507.046875 C92.02656 498.77019749 85.96738461 491.15023774 79.23828125 483.86328125 C77.64293179 482.11748626 76.15064268 480.35461898 74.6875 478.5 C65.70042606 468.1302993 50.39203239 455.06817746 37.25 450.6875 C37.25 450.0275 37.25 449.3675 37.25 448.6875 C35.99703125 448.30078125 35.99703125 448.30078125 34.71875 447.90625 C30.25054731 446.33634095 26.0761674 444.31063941 21.81640625 442.25390625 C15.78620831 439.38062175 9.85592361 437.51800681 3.30078125 436.25 C1.25 435.6875 1.25 435.6875 -1.75 433.6875 C-48.12112152 419.96379236 -98.71293125 427.94515509 -140.90893555 450.37573242 C-153.42045239 457.23541652 -164.59984751 465.20876564 -174.94140625 475.03125 C-177.55556439 477.50361096 -180.23027532 479.88065698 -182.9375 482.25 C-195.75968946 493.84908713 -205.47711196 507.87632394 -214.25 522.6875 C-214.64695068 523.356604 -215.04390137 524.02570801 -215.45288086 524.71508789 C-240.7222042 568.40241151 -246.48354777 623.91499193 -233.86181641 672.38842773 C-224.28680035 707.1213975 -207.84543747 738.60249481 -182.75 764.6875 C-182.23276367 765.23583496 -181.71552734 765.78416992 -181.18261719 766.34912109 C-160.58037435 788.11411104 -133.87224681 807.25176664 -105.12109375 816.5546875 C-102.36059697 817.48231678 -99.73476077 818.51338242 -97.05078125 819.6328125 C-50.49919731 838.40340155 4.62358576 834.74089262 51.25 818.6875 C52.7659375 818.17316406 52.7659375 818.17316406 54.3125 817.6484375 C81.8074155 807.6958509 106.57784849 792.50045789 128.03125 772.71875 C130.02015799 770.89791875 132.05682976 769.16662594 134.125 767.4375 C143.19879172 759.50022361 151.04679948 750.18634404 158.02685547 740.390625 C159.39539298 738.48505261 160.79327212 736.60270316 162.19140625 734.71875 C168.57579596 726.01742037 173.77012579 717.28244692 178.35302734 707.52490234 C179.73419825 704.69564479 181.31597076 701.98424518 182.875 699.25 C186.6240278 692.37678237 189.13095352 685.19537877 191.5625 677.77880859 C192.03330339 676.34667015 192.51291704 674.91740642 193 673.49072266 C201.78795763 647.68170169 205.68650267 621.45188371 205.625 594.25 C205.62445618 593.33640717 205.62391235 592.42281433 205.62335205 591.48153687 C205.55883235 567.77674 202.11174985 545.40844313 195.25 522.6875 C194.99911621 521.85234863 194.74823242 521.01719727 194.48974609 520.15673828 C183.03456335 482.96238608 161.9248367 449.73592969 135.25 421.6875 C134.71213867 421.12095703 134.17427734 420.55441406 133.62011719 419.97070312 C125.40279311 411.37835386 116.84106248 403.71053048 107.25 396.6875 C106.54343262 396.16849121 105.83686523 395.64948242 105.10888672 395.11474609 C102.87244428 393.48145505 100.62656159 391.86237525 98.375 390.25 C97.68559326 389.7535498 96.99618652 389.25709961 96.28588867 388.74560547 C91.78397661 385.5730771 87.22951511 383.0435793 82.25 380.6875 C82.25 380.0275 82.25 379.3675 82.25 378.6875 C81.54528564 378.41583008 80.84057129 378.14416016 80.11450195 377.86425781 C77.14601023 376.64478026 74.29464288 375.28165481 71.41796875 373.859375 C47.93823207 362.33406462 24.52509759 353.64819178 -1.1875 348.375 C-1.89358398 348.22788574 -2.59966797 348.08077148 -3.32714844 347.92919922 C-19.11486408 344.89036606 -34.90673433 344.31217312 -50.9375 344.375 C-51.92956451 344.37715515 -52.92162903 344.3793103 -53.9437561 344.38153076 C-68.40693084 344.43193068 -82.53473845 344.79038928 -96.75 347.6875 C-97.74273926 347.88085938 -98.73547852 348.07421875 -99.75830078 348.2734375 C-124.041199 353.10096259 -147.54016008 360.72572038 -169.75 371.6875 C-170.93964355 372.26902832 -170.93964355 372.26902832 -172.15332031 372.86230469 C-202.68358821 387.92390352 -231.55588497 409.7749992 -253.75 435.6875 C-254.63116787 436.69431032 -255.51269564 437.70080573 -256.39453125 438.70703125 C-277.87776431 463.42466548 -294.02480867 492.20525051 -305.75 522.6875 C-306.04745117 523.45175293 -306.34490234 524.21600586 -306.65136719 525.00341797 C-333.06112865 594.08612934 -327.32921788 673.85827828 -297.8125 740.75 C-287.04481459 764.53399651 -273.44220537 786.58330899 -256.75 806.6875 C-256.2947998 807.24421387 -255.83959961 807.80092773 -255.37060547 808.37451172 C-225.51210628 844.80831083 -183.7244409 877.40028488 -138.75 892.6875 C-137.37317818 893.20349809 -135.99796772 893.72383273 -134.625 894.25 C-133.33393098 894.73077465 -132.04222116 895.2098307 -130.75 895.6875 C-129.92242188 895.99429688 -129.09484375 896.30109375 -128.2421875 896.6171875 C-125.41664281 897.65563555 -122.58443452 898.67357264 -119.75 899.6875 C-118.89857422 899.99486084 -118.04714844 900.30222168 -117.16992188 900.61889648 C-108.41694884 903.66392479 -99.53400638 905.80253342 -90.5 907.8125 C-89.3219429 908.0772966 -89.3219429 908.0772966 -88.12008667 908.34744263 C-75.44527337 911.17195345 -62.95221909 913.03833652 -49.94946289 913.51733398 C-47.75 913.6875 -47.75 913.6875 -45.44702148 914.19287109 C-42.00080289 914.82490141 -38.61577827 914.84937342 -35.125 914.85546875 C-34.02233795 914.86182091 -34.02233795 914.86182091 -32.8973999 914.86830139 C-30.51487514 914.8781881 -28.13254167 914.87822046 -25.75 914.875 C-24.93599731 914.87439575 -24.12199463 914.8737915 -23.2833252 914.87316895 C-10.67030713 914.84769061 1.74673045 914.47611154 14.25 912.6875 C15.17570801 912.55859375 16.10141602 912.4296875 17.05517578 912.296875 C49.72495782 907.62280782 81.61149661 898.30064653 111.25 883.6875 C112.15379395 883.24712402 113.05758789 882.80674805 113.98876953 882.35302734 C142.2364767 868.48246234 169.61705585 850.06686582 191.58984375 827.34765625 C193.25 825.6875 193.25 825.6875 196.3125 823.1875 C199.31516324 820.63204193 201.75253114 817.94321331 204.296875 814.9453125 C205.62606941 813.40876376 206.9927793 811.9040576 208.390625 810.4296875 C226.12151115 791.83500502 226.12151115 791.83500502 238.25 769.6875 C238.91 769.6875 239.57 769.6875 240.25 769.6875 C241.32525194 767.03521188 242.34456151 764.40381546 243.25 761.6875 C243.91 761.6875 244.57 761.6875 245.25 761.6875 C245.51949463 760.98931152 245.78898926 760.29112305 246.06665039 759.57177734 C247.32802136 756.49733198 248.73170567 753.52823048 250.18359375 750.5390625 C250.75013672 749.36859375 251.31667969 748.198125 251.90039062 746.9921875 C252.4959085 745.76553505 253.09161304 744.5389732 253.6875 743.3125 C257.88915964 734.66303915 262.00461334 726.11294638 265.31201172 717.07739258 C266.46714284 714.13424356 267.77714369 711.27188379 269.0703125 708.38671875 C272.36875042 700.81454709 274.69706218 693.03498716 276.8125 685.0625 C277.00354309 684.35228699 277.19458618 683.64207397 277.39141846 682.91033936 C281.21214851 668.64381984 284.11852619 654.30697802 286.25 639.6875 C286.41226074 638.60404297 286.57452148 637.52058594 286.74169922 636.40429688 C298.90342974 552.51471296 273.54274514 464.86623965 223.62890625 397.10546875 C210.00715505 378.92156334 193.76683315 358.30636829 175.1328125 345.06640625 C173.13018671 343.59975292 171.29272936 342.02367549 169.4375 340.375 C146.11681878 319.79001408 118.95616392 303.00054467 90.41186523 290.62597656 C88.97776828 290.00342787 87.54997657 289.3661355 86.12915039 288.71386719 C79.8169914 285.82301942 73.34914617 283.45586661 66.8125 281.125 C65.74451172 280.73892578 64.67652344 280.35285156 63.57617188 279.95507812 C50.42813034 275.1215814 50.42813034 275.1215814 36.671875 273.09375 C34.25 272.6875 34.25 272.6875 31.66015625 271.3125 C26.90383748 269.04602966 22.08952862 268.1875807 16.9375 267.1875 C15.98166016 266.98769531 15.02582031 266.78789062 14.04101562 266.58203125 C-6.0432686 262.59816186 -26.11211861 261.18885645 -46.56079102 261.29638672 C-50.18218714 261.3124764 -53.80246522 261.29642029 -57.42382812 261.27734375 C-77.72932341 261.25879247 -97.88499177 262.92008104 -117.8125 266.9375 C-118.87082031 267.14729492 -119.92914062 267.35708984 -121.01953125 267.57324219 C-148.86222469 273.28858181 -176.15366759 282.34176795 -201.75 294.6875 C-202.97444824 295.26902832 -202.97444824 295.26902832 -204.22363281 295.86230469 C-232.22099873 309.20010562 -259.40693751 326.27694851 -282.23828125 347.38671875 C-284.23927826 349.21966935 -286.26832804 350.98896829 -288.328125 352.75390625 C-293.31596902 357.10815141 -298.00645124 361.75788503 -302.68579102 366.43798828 C-304.17641615 367.92643237 -305.67487017 369.40667277 -307.17382812 370.88671875 C-313.48330721 377.1593836 -319.22077772 383.70517743 -324.75 390.6875 C-325.77417672 391.93100064 -326.80112091 393.17223232 -327.83203125 394.41015625 C-339.19788423 408.24013428 -348.77525972 423.22282914 -357.75 438.6875 C-358.29237305 439.60982422 -358.29237305 439.60982422 -358.84570312 440.55078125 C-385.17313598 485.40492612 -399.06742923 535.2475124 -404.75 586.6875 C-404.8545752 587.57622803 -404.95915039 588.46495605 -405.06689453 589.38061523 C-406.19538795 600.45256903 -405.99399114 611.63329601 -406 622.75 C-406.00067474 623.86931915 -406.00134949 624.98863831 -406.00204468 626.14187622 C-405.98602834 642.86338132 -405.49122498 659.15920841 -402.75 675.6875 C-402.58371094 676.75194336 -402.41742188 677.81638672 -402.24609375 678.91308594 C-395.37636208 722.28144755 -381.0820116 764.30610119 -359.75 802.6875 C-359.32106445 803.46544922 -358.89212891 804.24339844 -358.45019531 805.04492188 C-348.92932053 822.2234313 -337.96057647 838.31356175 -325.75 853.6875 C-324.73873047 854.98880859 -324.73873047 854.98880859 -323.70703125 856.31640625 C-319.4058885 861.80229491 -314.83710982 866.98022227 -310.11328125 872.10546875 C-308.15435897 874.24571277 -306.254805 876.41588609 -304.375 878.625 C-297.82776369 886.14735662 -290.64303595 893.27823544 -283.04296875 899.734375 C-281.17099222 901.32890356 -279.32632179 902.94500642 -277.48828125 904.578125 C-258.41655376 921.45201437 -234.1977621 942.53824597 -209.75 950.6875 C-209.75 951.3475 -209.75 952.0075 -209.75 952.6875 C-208.91597656 952.93886719 -208.08195312 953.19023438 -207.22265625 953.44921875 C-203.34182808 954.83304612 -199.83321986 956.59931209 -196.1875 958.5 C-190.18855404 961.56813686 -184.17387348 964.17354874 -177.83984375 966.4921875 C-174.83243476 967.65560994 -172.01176779 969.0039084 -169.125 970.4375 C-151.30221574 978.76911481 -131.90722179 983.82981163 -112.75146484 988.02441406 C-109.85482577 988.66434181 -106.96878285 989.34048532 -104.08203125 990.0234375 C-58.40778163 1000.55364875 -9.95386265 1000.8918691 36.25 993.6875 C37.42127441 993.50558105 38.59254883 993.32366211 39.79931641 993.13623047 C99.80406014 983.42613528 156.89623425 958.95040799 206.25 923.6875 C207.12688477 923.06149902 207.12688477 923.06149902 208.02148438 922.42285156 C215.4605149 917.07015952 222.43236159 911.23985236 229.37011719 905.26416016 C230.76922226 904.09072891 232.19023684 902.94332325 233.62207031 901.81005859 C240.92741703 896.00013739 247.55035796 889.69565803 254.12109375 883.07714844 C255.87281575 881.31469762 257.63499428 879.56321432 259.3984375 877.8125 C266.14139388 871.0774115 272.33743468 864.17096052 278.25 856.6875 C279.11300003 855.65962389 279.98140492 854.6362129 280.859375 853.62109375 C294.62329352 837.57156102 306.62445924 819.82177215 317.25 801.5625 C317.95406982 800.35315796 317.95406982 800.35315796 318.67236328 799.11938477 C320.81300356 795.38723867 322.81086788 791.75958975 324.25 787.6875 C324.91 787.6875 325.57 787.6875 326.25 787.6875 C326.52070312 786.84058594 326.79140625 785.99367188 327.0703125 785.12109375 C329.53503813 777.94727311 332.40341263 770.49323014 336.375 764 C338.44506103 760.34289217 339.78139511 756.69739481 341.125 752.7265625 C342.04036466 750.25380658 343.04110438 747.913277 344.13671875 745.51953125 C364.85592843 699.40659764 372.49977035 644.93702293 372.4375 594.75 C372.43689575 593.84609528 372.4362915 592.94219055 372.43566895 592.01089478 C372.4099715 577.81133448 371.9858833 563.79423798 370.25 549.6875 C370.12641113 548.62982422 370.00282227 547.57214844 369.87548828 546.48242188 C365.5174198 509.99086177 356.38857894 473.64885436 342.25 439.6875 C341.85087402 438.72602051 341.45174805 437.76454102 341.04052734 436.77392578 C326.10393213 401.13483318 306.95787283 367.27784495 282.515625 337.25878906 C281.25866795 335.69826137 280.03537054 334.11081752 278.8125 332.5234375 C274.37828847 326.64324269 274.37828847 326.64324269 268.4375 322.5 C265.09389499 320.59873441 264.82862143 320.29775639 263.4453125 317.01953125 C261.28583866 312.45482733 258.43281918 309.16584121 254.9375 305.5625 C254.32720947 304.9221582 253.71691895 304.28181641 253.08813477 303.62207031 C231.21171638 280.9122911 199.66517345 248.82589115 169.25 238.6875 C169.25 238.0275 169.25 237.3675 169.25 236.6875 C167.6 236.3575 165.95 236.0275 164.25 235.6875 C164.25 235.0275 164.25 234.3675 164.25 233.6875 C163.53118652 233.41292969 162.81237305 233.13835937 162.07177734 232.85546875 C159.30925165 231.712025 156.73377389 230.41574089 154.1015625 229 C137.37414542 220.09615081 120.28890585 211.01879016 102.04296875 205.6015625 C99.47980398 204.76270858 97.02456647 203.80461912 94.52734375 202.7890625 C9.15866902 168.31977408 -91.81569569 170.23229747 -178.75 196.6875 C-179.72324219 196.98350098 -180.69648437 197.27950195 -181.69921875 197.58447266 C-220.04075853 209.42862989 -256.09183024 226.91665623 -289.75 248.6875 C-290.76707031 249.33847656 -291.78414063 249.98945313 -292.83203125 250.66015625 C-301.43629958 256.26963239 -309.62428211 262.41321151 -317.75 268.6875 C-318.48492676 269.25259277 -319.21985352 269.81768555 -319.97705078 270.39990234 C-322.1837322 272.10661376 -324.37517476 273.83107569 -326.5625 275.5625 C-327.23829102 276.08545654 -327.91408203 276.60841309 -328.61035156 277.1472168 C-331.68885177 279.61828403 -333.51047345 281.14637242 -335.13671875 284.8203125 C-336.98042725 288.09702446 -337.5563189 288.21846067 -340.91918945 289.4699707 C-345.81373584 291.5363602 -348.99596676 294.24712667 -352.65625 298.03515625 C-353.26585571 298.64709335 -353.87546143 299.25903046 -354.50354004 299.88951111 C-355.78320394 301.17885298 -357.05687333 302.47416998 -358.32470703 303.77514648 C-360.23321191 305.73277976 -362.1594638 307.67138027 -364.08984375 309.60742188 C-370.36945144 315.94504272 -376.34632808 322.36688812 -381.8984375 329.35668945 C-383.48405703 331.35272184 -385.10736888 333.28357712 -386.796875 335.19140625 C-439.3362094 394.54280263 -484.17313152 485.61140572 -485.47412109 565.69165039 C-485.53285696 568.98047727 -485.77902673 571.78748097 -486.69921875 574.95703125 C-488.15984579 580.14252874 -488.49519509 585.2639678 -488.875 590.625 C-489.0002002 592.38553711 -489.0002002 592.38553711 -489.12792969 594.18164062 C-490.64312635 617.74449478 -490.00325338 641.19286278 -487.75 664.6875 C-487.65879883 665.71375488 -487.56759766 666.74000977 -487.47363281 667.79736328 C-484.77917793 697.63017866 -478.51148449 727.06909459 -469.75 755.6875 C-469.40211426 756.82477539 -469.05422852 757.96205078 -468.69580078 759.13378906 C-453.70880291 807.40769801 -430.2474876 854.96412784 -399.12744141 894.91308594 C-397.79305767 896.6320333 -396.47763031 898.36373267 -395.16796875 900.1015625 C-386.59046323 911.44995265 -377.35621531 922.19940263 -367.75 932.6875 C-367.27916992 933.20344727 -366.80833984 933.71939453 -366.32324219 934.25097656 C-358.52349259 942.79308175 -350.72768629 951.22905228 -341.94140625 958.77734375 C-339.3754973 961.01393818 -336.8784357 963.31874067 -334.375 965.625 C-329.32947738 970.21621908 -324.12334217 974.48912865 -318.75 978.6875 C-317.52268995 979.67876265 -316.29619218 980.67103148 -315.0703125 981.6640625 C-285.45346376 1005.73091716 -285.45346376 1005.73091716 -251.75 1022.6875 C-251.75 1023.3475 -251.75 1024.0075 -251.75 1024.6875 C-250.986875 1024.914375 -250.22375 1025.14125 -249.4375 1025.375 C-244.39677913 1027.16915488 -239.59654049 1029.42808077 -234.75 1031.6875 C-234.75 1032.3475 -234.75 1033.0075 -234.75 1033.6875 C-232.89375 1034.2753125 -232.89375 1034.2753125 -231 1034.875 C-223.40337855 1037.41515757 -216.02165086 1040.4453738 -208.9375 1044.1875 C-204.25781335 1046.59119138 -199.4104034 1048.21992028 -194.41430664 1049.8125 C-190.46414739 1051.08146821 -186.67197417 1052.51850037 -182.875 1054.1875 C-176.0209443 1057.1262685 -168.94715016 1059.10801927 -161.77832031 1061.11425781 C-159.99067183 1061.61948153 -158.20958802 1062.14781134 -156.4296875 1062.6796875 C-136.45251934 1068.6188456 -116.10598872 1072.94872955 -95.51367188 1076.10400391 C-93.07725495 1076.48173071 -90.64334575 1076.87616897 -88.21289062 1077.29052734 C-45.72434613 1084.44421085 1.79855996 1083.63246337 44.25 1076.6875 C46.11132568 1076.39866943 46.11132568 1076.39866943 48.01025391 1076.10400391 C90.96408276 1069.36978869 137.59231696 1058.15635596 175.72265625 1036.63671875 C180.21071847 1034.13505874 184.68368078 1032.38155847 189.53076172 1030.71142578 C194.19250675 1028.95605151 198.47263046 1026.5525517 202.8125 1024.125 C204.23477905 1023.33826904 204.23477905 1023.33826904 205.68579102 1022.53564453 C232.45268134 1007.61360185 257.76739949 990.38297648 281.25 970.6875 C281.85827637 970.17832031 282.46655273 969.66914062 283.09326172 969.14453125 C295.27510478 958.91244066 306.85320063 948.16375675 318.125 936.9375 C318.92188232 936.14529053 319.71876465 935.35308105 320.53979492 934.53686523 C325.31572458 929.74790986 329.85367576 924.8253403 334.25 919.6875 C335.19941532 918.6044986 336.14988413 917.52241955 337.1015625 916.44140625 C344.90207426 907.49871147 352.17410877 898.21136899 359.25 888.6875 C359.79833496 887.94951172 360.34666992 887.21152344 360.91162109 886.45117188 C376.14724692 866.02782053 376.14724692 866.02782053 388.25 843.6875 C388.91 843.6875 389.57 843.6875 390.25 843.6875 C390.91 841.3775 391.57 839.0675 392.25 836.6875 C392.91 836.6875 393.57 836.6875 394.25 836.6875 C395.24 833.7175 396.23 830.7475 397.25 827.6875 C397.91 827.6875 398.57 827.6875 399.25 827.6875 C399.62318359 826.44806641 399.62318359 826.44806641 400.00390625 825.18359375 C401.4306345 821.18070414 403.24323867 817.52079674 405.1875 813.75 C407.73074398 808.79091016 410.09604295 803.82860665 412.25 798.6875 C412.87204634 797.31116125 413.49665025 795.93597246 414.125 794.5625 C416.24728639 789.80147729 418.1117337 784.95462654 419.9609375 780.08203125 C420.80995019 777.84629784 421.66908854 775.61437935 422.5390625 773.38671875 C425.33728132 766.21950184 427.86799311 759.00232432 430.25 751.6875 C430.46889893 751.03950439 430.68779785 750.39150879 430.91333008 749.72387695 C436.02259745 734.59187102 440.37547062 719.34726527 443.2890625 703.640625 C444.08603354 699.38449635 445.07312921 695.19473529 446.10180664 690.98950195 C448.43608231 681.34907533 450.11381972 671.70534699 451.4375 661.875 C451.5921875 660.73949707 451.746875 659.60399414 451.90625 658.43408203 C454.66218005 636.86293825 455.63054237 615.35980694 455.5625 593.625 C455.56034485 592.37747955 455.5581897 591.12995911 455.55596924 589.84463501 C455.4845209 563.99664845 453.46226392 539.13878913 449.3125 513.625 C449.13083282 512.50682388 449.13083282 512.50682388 448.94549561 511.36605835 C447.46932261 502.42153518 445.60084767 493.71046864 443.1394043 484.98364258 C442.28460208 481.8157357 441.61113624 478.66019811 441 475.4375 C431.41503227 429.9089033 412.02318593 384.47230659 388.25 344.6875 C387.78851562 343.89730469 387.32703125 343.10710937 386.8515625 342.29296875 C385.3463264 339.73928785 383.80379266 337.21199176 382.25 334.6875 C381.64744385 333.70402588 381.64744385 333.70402588 381.03271484 332.70068359 C370.49305869 315.55441649 358.86809362 299.35962327 346.25 283.6875 C345.46882813 282.71167969 344.68765625 281.73585938 343.8828125 280.73046875 C339.53115361 275.3473613 335.03050036 270.13855922 330.3671875 265.0234375 C328.45919797 262.91831252 326.59952931 260.78136366 324.75 258.625 C321.48750083 254.87161554 317.98338893 251.40210636 314.44140625 247.9140625 C312.42322719 245.86350623 310.54686983 243.75647169 308.6875 241.5625 C305.77445377 238.16506733 302.61790323 235.28366373 299.20703125 232.39453125 C297.35019075 230.77489193 295.64602508 229.08626709 293.9375 227.3125 C290.28278706 223.60003764 286.29550476 220.37833874 282.23828125 217.1171875 C279.73900864 215.08509918 277.2920524 213.00739514 274.85864258 210.89746094 C262.92529233 200.59404089 250.14606492 191.27862064 237.1875 182.3125 C236.52709717 181.85423828 235.86669434 181.39597656 235.1862793 180.92382812 C232.55653094 179.1296325 230.28661845 177.69970615 227.25 176.6875 C227.25 176.0275 227.25 175.3675 227.25 174.6875 C226.321875 174.5225 225.39375 174.3575 224.4375 174.1875 C220.77112685 173.15178845 218.26677535 171.34578076 215.2578125 169.03515625 C209.41039851 164.70147072 203.31257907 161.1203291 196.9375 157.625 C195.2970874 156.71657349 195.2970874 156.71657349 193.62353516 155.78979492 C183.67201556 150.30767535 173.69800717 145.16189684 163.25 140.6875 C161.22667908 139.73442991 159.20583178 138.77609066 157.1875 137.8125 C151.43801031 135.14215215 145.61656495 132.9649072 139.62890625 130.89453125 C136.56954024 129.8016479 133.60647228 128.59985864 130.625 127.3125 C74.20910373 103.47584979 10.69945216 94.19973946 -50.1875 94.375 C-52.16466003 94.37773422 -52.16466003 94.37773422 -54.1817627 94.38052368 C-74.20191238 94.41893354 -93.89557845 94.95533712 -113.75 97.6875 C-115.08495595 97.8662482 -116.41991703 98.04495808 -117.75488281 98.22363281 C-136.29018657 100.74058263 -154.58088803 104.22381712 -172.75 108.6875 C-174.51561279 109.11820801 -174.51561279 109.11820801 -176.31689453 109.55761719 C-204.67699908 116.56525622 -231.99324786 125.96642688 -258.75 137.6875 C-260.40743891 138.3987013 -262.06498755 139.10964696 -263.72265625 139.8203125 C-303.94058004 157.2762756 -341.49627799 180.87841633 -375.6875 208.26171875 C-377.576635 209.75808716 -379.48932879 211.22587751 -381.4375 212.64453125 C-385.26526536 215.4335116 -387.9859958 217.71178196 -390.3125 221.875 C-392.40621371 225.59558585 -394.48854148 226.70096457 -398.42578125 228.42578125 C-407.76181796 233.49391546 -415.6118656 243.46516864 -423.0625 250.875 C-423.91038086 251.71804688 -424.75826172 252.56109375 -425.63183594 253.4296875 C-430.54491388 258.35630009 -435.22487399 263.40461416 -439.75 268.6875 C-440.77146421 269.84419351 -441.79486084 270.99918378 -442.8203125 272.15234375 C-450.34580402 280.68058353 -457.36697145 289.49979443 -464.18115234 298.60400391 C-465.67373886 300.58622198 -467.18619276 302.55113197 -468.70703125 304.51171875 C-488.32907215 329.95499797 -504.31875786 358.04465412 -518.75 386.6875 C-519.19907715 387.56567383 -519.6481543 388.44384766 -520.11083984 389.34863281 C-532.42040017 413.51866334 -541.99633977 439.00871678 -549.875 464.9375 C-550.09720215 465.66850922 -550.3194043 466.39951843 -550.54833984 467.15267944 C-554.35015536 479.74975844 -557.84184609 492.45378926 -560.30224609 505.38769531 C-560.77582892 507.82016545 -561.31311466 510.23218421 -561.86328125 512.6484375 C-582.70775931 605.68090823 -574.52908961 705.39339572 -514.75 865.6875 C-514.255 866.67476074 -513.76 867.66202148 -513.25 868.67919922 C-493.88159518 907.06924381 -469.47724495 942.2419829 -441.625 974.9375 C-441.19493652 975.44321533 -440.76487305 975.94893066 -440.32177734 976.4699707 C-431.2243925 987.04572235 -421.56759634 997.05644144 -411.70703125 1006.91577148 C-409.74709918 1008.87790408 -407.79534704 1010.84794057 -405.84375 1012.81835938 C-399.49054601 1019.19924224 -393.11972358 1025.304744 -386.03173828 1030.87329102 C-383.80458573 1032.64409891 -381.71074182 1034.50338507 -379.625 1036.4375 C-373.36251819 1042.07148901 -366.55294072 1047.02923992 -359.83642578 1052.10205078 C-357.94082269 1053.54249619 -356.05871555 1054.99788998 -354.18359375 1056.46484375 C-347.87326328 1061.4012487 -341.45847149 1066.08459639 -334.71630859 1070.42236328 C-333.22232992 1071.38359962 -331.73092513 1072.34883775 -330.24072266 1073.31591797 C-327.37303324 1075.17556501 -324.49979227 1077.02635451 -321.625 1078.875 C-320.70662354 1079.46958008 -319.78824707 1080.06416016 -318.84204102 1080.67675781 C-312.98293203 1084.42079197 -307.0352327 1087.71319256 -300.75 1090.6875 C-300.75 1091.3475 -300.75 1092.0075 -300.75 1092.6875 C-300.08613281 1092.94273438 -299.42226563 1093.19796875 -298.73828125 1093.4609375 C-295.08031847 1094.96237582 -291.51423917 1096.62852328 -287.9375 1098.3125 C-287.24462891 1098.63734375 -286.55175781 1098.9621875 -285.83789062 1099.296875 C-284.14133977 1100.09249885 -282.44558835 1100.88982699 -280.75 1101.6875 C-280.75 1102.3475 -280.75 1103.0075 -280.75 1103.6875 C-279.88246094 1103.95691406 -279.01492188 1104.22632813 -278.12109375 1104.50390625 C-274.84296656 1105.65485937 -271.89660019 1107.03229123 -268.8125 1108.625 C-264.50330674 1110.81674485 -260.21276193 1112.83503278 -255.75 1114.6875 C-254.37434513 1115.31105728 -252.99940357 1115.93618951 -251.625 1116.5625 C-247.92114895 1118.21915447 -244.17025495 1119.69053752 -240.375 1121.125 C-236.18702214 1122.7095085 -232.11299759 1124.40469845 -228.0625 1126.3125 C-223.80357013 1128.29339761 -219.58229871 1129.74354262 -215.06640625 1131.015625 C-210.58783483 1132.31463728 -206.26456346 1134.10545702 -201.9140625 1135.77734375 C-186.60320609 1141.46890914 -170.66692731 1145.33001923 -154.81040955 1149.18525696 C-152.84008862 1149.6655401 -150.87117906 1150.15160215 -148.90234375 1150.63793945 C-138.68444234 1153.1295148 -128.44309951 1155.07609532 -118.0625 1156.75 C-116.88587799 1156.94184875 -116.88587799 1156.94184875 -115.68548584 1157.13757324 C-111.04367734 1157.89436811 -106.40003859 1158.63867012 -101.7543335 1159.37115479 C-99.98381095 1159.65059747 -98.21378964 1159.93321198 -96.44384766 1160.21630859 C-10.66207701 1173.75463616 81.96184613 1161.7688431 301.75 1060.171875 C304.60957809 1058.04208507 307.4355738 1055.87649815 310.25 1053.6875 C311.82890761 1052.48056561 313.40782373 1051.27364228 314.98706055 1050.06713867 C317.17998809 1048.3873869 319.36485096 1046.69736645 321.54833984 1045.00537109 C322.70643948 1044.10846696 323.865664 1043.21301383 325.02587891 1042.31884766 C331.91684038 1037.00392117 338.63087522 1031.60899758 345.04296875 1025.71484375 C346.97829285 1023.93708586 348.94403016 1022.21173748 350.9375 1020.5 C363.61974894 1009.43185547 376.32076663 997.83584077 387.2265625 984.98828125 C388.91512878 983.06827056 390.63706783 981.20783738 392.3984375 979.35546875 C399.69098867 971.68498686 406.4681921 963.85218775 412.88916016 955.44238281 C414.26773056 953.66463541 415.67902682 951.91920376 417.10546875 950.1796875 C428.19032776 936.65037098 437.99681858 922.25651076 447.5625 907.625 C448.11993896 906.77397705 448.67737793 905.9229541 449.25170898 905.04614258 C449.76290283 904.25618896 450.27409668 903.46623535 450.80078125 902.65234375 C451.47620972 901.61001587 451.47620972 901.61001587 452.1652832 900.54663086 C453.40216093 898.57260231 453.40216093 898.57260231 454.25 895.6875 C454.91 895.6875 455.57 895.6875 456.25 895.6875 C456.58 894.0375 456.91 892.3875 457.25 890.6875 C457.91 890.6875 458.57 890.6875 459.25 890.6875 C459.58 889.0375 459.91 887.3875 460.25 885.6875 C460.91 885.6875 461.57 885.6875 462.25 885.6875 C462.48589844 884.86636719 462.72179688 884.04523437 462.96484375 883.19921875 C464.50069365 879.00247389 466.57901566 875.35745153 468.8125 871.5 C472.99720518 864.14206594 476.75782106 856.6597797 480.29321289 848.9699707 C482.09523805 845.06032853 483.98181301 841.35506552 486.25 837.6875 C486.99477859 836.00365276 487.7368808 834.31826968 488.44140625 832.6171875 C489.29549558 830.57892601 490.20803036 828.57320451 491.125 826.5625 C493.20447301 821.90542927 495.0174425 817.16104176 496.80859375 812.38671875 C498.02855566 809.25581379 499.31689031 806.17308956 500.6328125 803.08203125 C503.29682423 796.71259895 505.53687297 790.24553201 507.6875 783.6875 C508.27217041 781.91330688 508.27217041 781.91330688 508.86865234 780.10327148 C521.42236567 741.7965564 530.55203297 702.75777288 535.25 662.6875 C535.39566406 661.4593457 535.54132813 660.23119141 535.69140625 658.96582031 C544.98997094 578.10600441 536.3622906 496.11690797 417.07104492 238.97705078 C413.80676674 234.87296166 410.5318564 230.77754144 407.25 226.6875 C406.47011719 225.71039063 405.69023438 224.73328125 404.88671875 223.7265625 C400.13741174 217.84465522 395.17334784 212.2358389 390.0234375 206.70703125 C387.97511695 204.50153632 385.99767482 202.24530832 384.03271484 199.96533203 C380.48157364 195.90141691 376.76495719 192.04122884 372.953125 188.22265625 C372.2788446 187.54504745 371.60456421 186.86743866 370.90985107 186.16929626 C369.49263926 184.74705939 368.07410433 183.32613981 366.65429688 181.90649414 C364.51402078 179.76403508 362.38188019 177.6137001 360.25 175.46289062 C353.59926163 168.78545606 346.97211588 162.31497899 339.53662109 156.5065918 C337.12316905 154.58660128 334.87561129 152.54489749 332.625 150.4375 C326.20078238 144.5852318 319.22483172 139.45765257 312.28955078 134.23486328 C310.49025617 132.86977718 308.707389 131.48779325 306.93359375 130.08984375 C276.11201125 105.27055373 276.11201125 105.27055373 241.25 87.6875 C241.25 87.0275 241.25 86.3675 241.25 85.6875 C240.38157471 85.4188916 239.51314941 85.1502832 238.6184082 84.87353516 C235.33569256 83.71767283 232.42818706 82.33830224 229.35546875 80.7109375 C228.24300781 80.12618652 227.13054688 79.54143555 225.984375 78.93896484 C225.40494141 78.63222839 224.82550781 78.32549194 224.22851562 78.00946045 C221.20440947 76.41053027 218.17098167 74.82955114 215.13671875 73.25 C214.53959076 72.93912445 213.94246277 72.6282489 213.32723999 72.30795288 C203.43605103 67.17352615 193.45756185 62.13455844 182.83984375 58.671875 C180.64392081 57.83722556 178.67202475 56.90588517 176.58984375 55.83203125 C132.01510772 33.18908277 77.41690349 22.68486103 28.375 15.9375 C27.64846222 15.83626831 26.92192444 15.73503662 26.17337036 15.6307373 C2.14823143 12.32210456 -21.73785736 11.33339444 -45.95727539 11.37182617 C-49.09479186 11.3764366 -52.23191863 11.36959279 -55.36938477 11.35131836 C-84.16841889 11.18550103 -112.65507535 12.78012293 -141.125 17.375 C-142.31014191 17.56150116 -142.31014191 17.56150116 -143.51922607 17.75177002 C-180.34588288 23.57539787 -216.34537878 32.92923378 -251.43896484 45.50439453 C-254.48109049 46.59141273 -257.52977245 47.65669225 -260.58203125 48.71484375 C-288.98482077 58.65809716 -316.56533592 71.82919335 -343 86.1875 C-343.86197998 86.65534912 -344.72395996 87.12319824 -345.61206055 87.60522461 C-350.47790976 90.29562831 -355.10943443 93.2118514 -359.70849609 96.33447266 C-362.36749226 98.09674923 -365.13089473 99.61095809 -367.9375 101.125 C-378.33621634 106.90891878 -388.00193093 113.88713286 -397.75 120.6875 C-398.45253906 121.17573242 -399.15507812 121.66396484 -399.87890625 122.16699219 C-408.7599584 128.35363888 -417.30708487 134.9193781 -425.75 141.6875 C-426.40291016 142.20747559 -427.05582031 142.72745117 -427.72851562 143.26318359 C-435.80167237 149.69732697 -443.6542602 156.2638257 -451.19140625 163.3203125 C-453.32658048 165.29575614 -455.49777701 167.16203367 -457.75 169 C-459.99716112 170.87621826 -461.01351868 172.10912989 -462.625 174.6875 C-464.69953186 177.61625085 -465.87720302 178.5441083 -468.84375 180.3515625 C-473.98746025 183.69275838 -478.1142946 187.67693877 -482.375 192.0625 C-483.44234375 193.13757813 -483.44234375 193.13757813 -484.53125 194.234375 C-488.5648486 198.32707395 -492.42708104 202.5299423 -496.18212891 206.87890625 C-498.28006396 209.29894718 -500.45181007 211.64754019 -502.625 214 C-506.66402153 218.43381311 -510.52506878 222.96804584 -514.2890625 227.63671875 C-516.08280236 229.86038674 -517.88872383 232.06948478 -519.7109375 234.26953125 C-532.73013258 250.03940138 -544.64837107 266.51771702 -555.75 283.6875 C-556.49612549 284.83968018 -556.49612549 284.83968018 -557.25732422 286.01513672 C-564.79340438 297.69569784 -571.94080073 309.56943351 -578.75 321.6875 C-579.25112305 322.57469727 -579.75224609 323.46189453 -580.26855469 324.37597656 C-610.70654305 378.51956334 -631.72414044 437.53920721 -644.1875 498.3125 C-644.43034729 499.4964032 -644.43034729 499.4964032 -644.67810059 500.70422363 C-652.75759963 540.44735652 -656.24341856 580.57702959 -656.24899673 621.09867096 C-656.24997877 623.26565402 -656.25600646 625.43257662 -656.26278687 627.59954834 C-656.43692621 709.85673939 -638.43641655 792.30200734 -605.75 867.6875 C-605.12617432 869.13237793 -605.12617432 869.13237793 -604.48974609 870.60644531 C-602.35500897 875.51982853 -600.15567393 880.3986823 -597.88769531 885.25195312 C-597.09021139 886.9591848 -596.29836943 888.669058 -595.51074219 890.38085938 C-588.65616078 905.26421043 -580.99756059 919.53343536 -572.75 933.6875 C-571.83958799 935.26417526 -570.929417 936.84098973 -570.01953125 938.41796875 C-553.61512805 966.71525096 -534.68701569 993.56845136 -513.75 1018.6875 C-513.26934082 1019.26725586 -512.78868164 1019.84701172 -512.29345703 1020.44433594 C-506.53117329 1027.38612753 -500.59746279 1034.13217574 -494.453125 1040.73828125 C-493.05501386 1042.24451367 -491.6868132 1043.76179122 -490.35522461 1045.32739258 C-484.81271724 1051.84345492 -478.75334847 1057.83503421 -472.69848633 1063.86938477 C-470.81671726 1065.74579475 -468.94035262 1067.62748969 -467.06445312 1069.50976562 C-461.64143781 1074.9357458 -456.23356076 1080.31973414 -450.38549805 1085.29272461 C-447.8870562 1087.42343043 -445.51775665 1089.68954995 -443.125 1091.9375 C-437.16516137 1097.4650337 -430.8415112 1102.45114344 -424.40429688 1107.40625 C-420.47794979 1110.44719886 -416.62210223 1113.57808458 -412.75 1116.6875 C-414.73 1119.6575 -416.71 1122.6275 -418.75 1125.6875 C-424.37200634 1123.43869746 -424.37200634 1123.43869746 -426.9140625 1121.18359375 C-427.75251709 1120.45064087 -427.75251709 1120.45064087 -428.60791016 1119.70288086 C-429.48261963 1118.92182983 -429.48261963 1118.92182983 -430.375 1118.125 C-431.62404729 1117.03016214 -432.87405715 1115.93642152 -434.125 1114.84375 C-434.73988281 1114.30492187 -435.35476563 1113.76609375 -435.98828125 1113.2109375 C-438.40323069 1111.12262202 -440.88495683 1109.12282533 -443.375 1107.125 C-448.34655763 1103.09064322 -453.04777522 1098.82271916 -457.73046875 1094.4609375 C-459.938758 1092.40987565 -462.19827341 1090.43037839 -464.48144531 1088.46313477 C-468.49691571 1084.95445519 -472.30305045 1081.27965215 -476.06640625 1077.50390625 C-476.72656235 1076.84470688 -477.38671844 1076.18550751 -478.06687927 1075.5063324 C-479.45035506 1074.12353165 -480.83259083 1072.73948924 -482.21362305 1071.35424805 C-484.30731669 1069.25519657 -486.40629874 1067.1615406 -488.50585938 1065.06835938 C-489.85969571 1063.71386214 -491.21322175 1062.35905469 -492.56640625 1061.00390625 C-493.18326797 1060.38906876 -493.8001297 1059.77423126 -494.4356842 1059.14076233 C-498.1931644 1055.36335226 -501.76273245 1051.4667348 -505.24317932 1047.43243408 C-507.16317364 1045.20903512 -509.1429561 1043.04309783 -511.125 1040.875 C-514.96806298 1036.61139983 -518.64322734 1032.24197727 -522.25 1027.77734375 C-524.07003572 1025.52789335 -525.90218882 1023.29276208 -527.75 1021.06640625 C-535.2513096 1011.99351343 -542.28659028 1002.6660359 -549.07763672 993.05126953 C-550.78319115 990.64058661 -552.50234932 988.24001521 -554.22265625 985.83984375 C-566.70097436 968.33628146 -577.78690854 950.06373 -588.27929688 931.31152344 C-589.24679569 929.58531539 -590.21932089 927.86191325 -591.19726562 926.14160156 C-630.63827454 856.73289779 -653.7713229 779.01142443 -669.0625 623.8125 C-669.06001251 622.61227203 -669.05752502 621.41204407 -669.05496216 620.17544556 C-668.90266052 572.11735456 -663.86213539 525.67321871 -652.53466797 478.94824219 C-651.80121021 475.90030758 -651.09887542 472.84737185 -650.41015625 469.7890625 C-648.13805925 459.78003726 -645.41707923 450.02398384 -642.2265625 440.26953125 C-640.75141466 435.75080915 -639.43158256 431.1947408 -638.125 426.625 C-636.60113916 421.34588919 -634.92324461 416.21053734 -632.76660156 411.15283203 C-631.75956502 408.71069587 -630.86118603 406.25196531 -629.98046875 403.76171875 C-627.55445335 397.05229612 -624.8582754 390.46421688 -622.125 383.875 C-621.8653244 383.24798187 -621.6056488 382.62096375 -621.33810425 381.97494507 C-613.40790995 362.85267325 -604.88982624 344.09739985 -594.9375 325.9375 C-594.41631592 324.98319092 -593.89513184 324.02888184 -593.3581543 323.0456543 C-589.71881395 316.40109683 -585.9964492 309.81133745 -582.17578125 303.26953125 C-580.6506838 300.69248361 -580.6506838 300.69248361 -579.75 297.6875 C-579.09 297.6875 -578.43 297.6875 -577.75 297.6875 C-577.37875 296.12515625 -577.37875 296.12515625 -577 294.53125 C-575.92397331 290.78396826 -574.20763941 288.2419947 -571.75 285.1875 C-568.23135054 280.67236902 -564.95016746 276.09929583 -561.8125 271.3125 C-554.34604393 259.98258702 -546.40520654 249.04793322 -538.05175781 238.35693359 C-536.69245905 236.61370686 -535.34208443 234.8637958 -533.9921875 233.11328125 C-528.51125797 226.03513955 -522.81185823 219.28150609 -516.75 212.6875 C-515.57865335 211.3582762 -514.41175407 210.02511593 -513.25 208.6875 C-484.14035588 175.33408088 -484.14035588 175.33408088 -467.89453125 161.55078125 C-465.58819329 159.54691384 -463.3577611 157.47496281 -461.12573242 155.38916016 C-455.8082604 150.42311036 -450.41339123 145.63673357 -444.734375 141.08203125 C-442.51972458 139.30509315 -440.32507619 137.51254198 -438.140625 135.69921875 C-424.43750342 124.36315649 -410.02712262 114.12458233 -395.29370117 104.17578125 C-389.44874721 100.21923625 -383.63812163 96.20534963 -378.3125 91.5625 C-376.05716064 89.91225169 -374.27517407 88.99362409 -371.73046875 87.93359375 C-366.42587705 85.61758679 -361.50000577 82.77920027 -356.5 79.875 C-322.57459926 60.49222488 -287.54869842 44.75151123 -250.75 31.6875 C-249.64317871 31.29191895 -248.53635742 30.89633789 -247.39599609 30.48876953 C-208.69860394 16.76104522 -168.53209912 8.35528255 -127.88586426 2.9732666 C-125.74398409 2.68669511 -123.6039432 2.38858717 -121.46386719 2.08886719 C-81.27170818 -3.45670787 -40.41077984 -2.36207866 0 0 Z " fill="#473BE4" transform="translate(787.75,141.3125)"/>
<path d="M0 0 C0.33 0 0.66 0 1 0 C1 238.92 1 477.84 1 724 C-237.92 724 -476.84 724 -723 724 C-723 723.67 -723 723.34 -723 723 C-721.81599609 722.93530518 -720.63199219 722.87061035 -719.41210938 722.80395508 C-691.77118698 721.26642822 -664.4056452 718.9354629 -637 715 C-635.76475586 714.8232373 -634.52951172 714.64647461 -633.25683594 714.46435547 C-601.76735409 709.86633378 -570.40090274 703.22733027 -540.04101562 693.64355469 C-537.11678526 692.72151267 -534.18285578 691.83166335 -531.25 690.9375 C-530.30568115 690.64464111 -529.3613623 690.35178223 -528.38842773 690.05004883 C-526.07258129 689.33238505 -523.75528742 688.61937977 -521.43676758 687.91040039 C-512.01171167 685.01538885 -502.70019413 681.87743823 -493.4375 678.5 C-492.38742264 678.11799438 -492.38742264 678.11799438 -491.31613159 677.72827148 C-450.71600032 662.9091979 -411.40487433 644.63999274 -374 623 C-372.85821289 622.34499512 -372.85821289 622.34499512 -371.69335938 621.67675781 C-337.11202746 601.83733127 -304.65683434 578.73641481 -273.83349609 553.49707031 C-272.20305961 552.16580047 -270.56495181 550.84393831 -268.92578125 549.5234375 C-263.28504445 544.96900522 -257.87097219 540.2283626 -252.53515625 535.3203125 C-250.46674242 533.42718797 -248.37594124 531.57748296 -246.25 529.75 C-235.07616641 519.98125926 -224.50194748 509.60380238 -214 499.125 C-213.45779816 498.58538635 -212.91559631 498.04577271 -212.35696411 497.48980713 C-206.89087308 492.04430148 -201.48827343 486.5861812 -196.47167969 480.71679688 C-194.26132284 478.13829167 -191.93981148 475.67262043 -189.625 473.1875 C-185.3312462 468.53961458 -181.2646816 463.75583652 -177.296875 458.82421875 C-175.27467062 456.33773275 -173.20838121 453.89714201 -171.11791992 451.46801758 C-164.66281515 443.95069496 -158.62098801 436.1502803 -152.67382812 428.22705078 C-151.58015313 426.77190153 -150.48265315 425.31961713 -149.38085938 423.87060547 C-102.68569999 362.45263736 -67.72200446 293.35419079 -41.3125 221.0625 C-40.94570633 220.06278671 -40.94570633 220.06278671 -40.57150269 219.0428772 C-37.31414093 210.13124282 -34.51636795 201.14872031 -32 192 C-31.50530792 190.27005789 -31.00816322 188.54081396 -30.5078125 186.8125 C-29.25597005 182.46261421 -28.01643907 178.10931412 -26.78222656 173.75439453 C-26.27124801 171.95512486 -25.75768798 170.15658577 -25.24121094 168.35888672 C-9.51746399 113.5102753 -3.10354406 56.79910764 0 0 Z " fill="#FEFEFE" transform="translate(1499,776)"/>
<path d="M0 0 C238.92 0 477.84 0 724 0 C724 236.61 724 473.22 724 717 C723.67 717 723.34 717 723 717 C722.92483154 715.94949463 722.84966309 714.89898926 722.7722168 713.81665039 C720.71223519 684.97827421 720.71223519 684.97827421 717.43457031 656.25878906 C716.95640911 652.67311731 716.52227689 649.08317939 716.0859375 645.4921875 C706.24874534 567.01794007 681.28177639 491.03440781 647 420 C646.5467334 419.05495605 646.0934668 418.10991211 645.62646484 417.13623047 C639.02000023 403.41315933 631.63371622 390.17455135 624 377 C623.08323486 375.40792725 623.08323486 375.40792725 622.14794922 373.78369141 C606.28849542 346.30347223 588.87118191 319.57584114 569.26074219 294.60791016 C567.94082099 292.92452498 566.63012883 291.23422547 565.3203125 289.54296875 C560.34188243 283.1351761 555.2524689 276.84592659 549.97802734 270.67919922 C547.15196902 267.374591 544.40237607 264.02235878 541.6875 260.625 C536.9372102 254.78308167 531.79742915 249.33633017 526.625 243.87109375 C523.99738502 241.09106912 521.44628508 238.25422181 518.91015625 235.390625 C513.55355955 229.41936479 507.90552713 223.75486513 502.22485352 218.09448242 C500.4332405 216.3082533 498.64706945 214.51670653 496.86132812 212.72460938 C491.59963732 207.45986117 486.34046363 202.25559606 480.6706543 197.42553711 C478.10361355 195.23513072 475.65672446 192.92500488 473.1875 190.625 C468.53961458 186.3312462 463.75583652 182.2646816 458.82421875 178.296875 C456.33773275 176.27467062 453.89714201 174.20838121 451.46801758 172.11791992 C443.95069496 165.66281515 436.1502803 159.62098801 428.22705078 153.67382812 C426.77190153 152.58015313 425.31961713 151.48265315 423.87060547 150.38085938 C363.05362566 104.14262237 294.45057698 68.84316638 222.75 42.875 C222.00645264 42.60478027 221.26290527 42.33456055 220.49682617 42.05615234 C211.0904092 38.65029045 201.65370503 35.64466617 192 33 C190.27000508 32.50549261 188.54076024 32.00834874 186.8125 31.5078125 C182.46261421 30.25597005 178.10931412 29.01643907 173.75439453 27.78222656 C171.95512486 27.27124801 170.15658577 26.75768798 168.35888672 26.24121094 C146.84739535 20.07439581 125.04288193 15.58763303 103 11.8125 C102.29589996 11.69189209 101.59179993 11.57128418 100.86636353 11.44702148 C95.91524666 10.60383431 90.95920153 9.79413402 86 9 C85.22596832 8.8747998 84.45193665 8.74959961 83.65444946 8.62060547 C70.70225803 6.54032623 57.75115107 5.04901831 44.6875 3.875 C43.75642426 3.78939819 42.82534851 3.70379639 41.86605835 3.61560059 C27.91951722 2.33597242 14.00652302 1.31091061 0 1 C0 0.67 0 0.34 0 0 Z " fill="#FEFEFE" transform="translate(776,0)"/>
<path d="M0 0 C0.33 0 0.66 0 1 0 C1.05945801 1.26440918 1.11891602 2.52881836 1.18017578 3.83154297 C2.52050099 31.56275615 4.84757852 58.83161308 9.24707031 86.24829102 C9.91834298 90.44352645 10.54482274 94.64448226 11.16314697 98.84780884 C12.35143204 106.91565396 13.61739015 114.94526423 15.25 122.9375 C15.45761963 123.96125732 15.66523926 124.98501465 15.87915039 126.03979492 C19.84626066 145.23218698 24.45567831 164.26628666 30.35644531 182.95898438 C31.27848733 185.88321474 32.16833665 188.81714422 33.0625 191.75 C33.35535889 192.69431885 33.64821777 193.6386377 33.94995117 194.61157227 C34.66761495 196.92741871 35.38062023 199.24471258 36.08959961 201.56323242 C38.98461115 210.98828833 42.12256177 220.29980587 45.5 229.5625 C45.75467041 230.26255157 46.00934082 230.96260315 46.27172852 231.68386841 C61.0908021 272.28399968 79.36000726 311.59512567 101 349 C101.43666992 349.76119141 101.87333984 350.52238281 102.32324219 351.30664062 C122.16266873 385.88797254 145.26358519 418.34316566 170.50292969 449.16650391 C171.83419953 450.79694039 173.15606169 452.43504819 174.4765625 454.07421875 C179.03099478 459.71495555 183.7716374 465.12902781 188.6796875 470.46484375 C190.57281203 472.53325758 192.42251704 474.62405876 194.25 476.75 C204.01874074 487.92383359 214.39619762 498.49805252 224.875 509 C225.41461365 509.54220184 225.95422729 510.08440369 226.51019287 510.64303589 C231.95569852 516.10912692 237.4138188 521.51172657 243.28320312 526.52832031 C245.86170833 528.73867716 248.32737957 531.06018852 250.8125 533.375 C255.46038542 537.6687538 260.24416348 541.7353184 265.17578125 545.703125 C267.66226725 547.72532938 270.10285799 549.79161879 272.53198242 551.88208008 C280.04930504 558.33718485 287.8497197 564.37901199 295.77294922 570.32617188 C297.22809847 571.41984687 298.68038287 572.51734685 300.12939453 573.61914062 C370.89865234 627.42394523 453.01770492 668.53020842 552 697 C552.87350098 697.24508301 553.74700195 697.49016602 554.64697266 697.74267578 C579.68557099 704.71208641 605.37591664 709.71542352 631 714 C631.94037109 714.16064941 632.88074219 714.32129883 633.84960938 714.48681641 C649.23533057 717.07716652 664.65904577 718.75171858 680.1875 720.1875 C681.55894669 720.31451294 681.55894669 720.31451294 682.95809937 720.4440918 C694.29645035 721.48452017 705.63149488 722.36334767 717 723 C717 723.33 717 723.66 717 724 C480.39 724 243.78 724 0 724 C0 485.08 0 246.16 0 0 Z " fill="#FEFEFE" transform="translate(0,776)"/>
<path d="M0 0 C236.61 0 473.22 0 717 0 C717 0.33 717 0.66 717 1 C715.42424194 1.11275269 715.42424194 1.11275269 713.81665039 1.2277832 C684.97827421 3.28776481 684.97827421 3.28776481 656.25878906 6.56542969 C652.67311731 7.04359089 649.08317939 7.47772311 645.4921875 7.9140625 C567.03394526 17.74924832 491.01095384 42.69448872 420 77 C418.99018066 77.4856543 417.98036133 77.97130859 416.93994141 78.47167969 C402.61671459 85.39001368 388.76533036 93.03628793 375 101 C374.23880859 101.43666992 373.47761719 101.87333984 372.69335938 102.32324219 C338.11202746 122.16266873 305.65683434 145.26358519 274.83349609 170.50292969 C273.20305961 171.83419953 271.56495181 173.15606169 269.92578125 174.4765625 C264.28504445 179.03099478 258.87097219 183.7716374 253.53515625 188.6796875 C251.46674242 190.57281203 249.37594124 192.42251704 247.25 194.25 C236.07616641 204.01874074 225.50194748 214.39619762 215 224.875 C214.45779816 225.41461365 213.91559631 225.95422729 213.35696411 226.51019287 C207.89087308 231.95569852 202.48827343 237.4138188 197.47167969 243.28320312 C195.26132284 245.86170833 192.93981148 248.32737957 190.625 250.8125 C186.33569297 255.45557189 182.27321381 260.23441617 178.30859375 265.16015625 C176.22891228 267.71841078 174.10905124 270.23183603 171.96508789 272.73583984 C166.5264301 279.09182738 161.33882709 285.59686032 156.30224609 292.27685547 C154.96539711 294.04578688 153.61799689 295.80631874 152.26953125 297.56640625 C128.86791557 328.26026476 108.28158811 361.02223143 90 395 C89.49952148 395.9271582 88.99904297 396.85431641 88.48339844 397.80957031 C72.50227927 427.57983641 58.61264267 458.27267573 47 490 C46.76819031 490.6315802 46.53638062 491.2631604 46.29754639 491.91387939 C39.36019105 510.82344911 33.18858581 529.84896589 27.76904297 549.24804688 C27.27936237 551.00032616 26.78653963 552.75173261 26.28955078 554.50195312 C11.35139541 607.42329395 4.12336423 662.2048077 1 717 C0.67 717 0.34 717 0 717 C0 480.39 0 243.78 0 0 Z " fill="#FEFEFE" transform="translate(0,0)"/>
</svg>
