<?xml version="1.0" encoding="UTF-8"?>
<svg version="1.1" xmlns="http://www.w3.org/2000/svg" viewBox="0 0 1500 1500">
<path d="M0 0 C495 0 990 0 1500 0 C1500 495 1500 990 1500 1500 C1005 1500 510 1500 0 1500 C0 1005 0 510 0 0 Z " fill="#FEF709" transform="translate(0,0)"/>
<path d="M0 0 C0.87576691 0.05858185 1.75153381 0.1171637 2.65383911 0.17752075 C12.69337404 0.876528 22.51172023 2.07650854 32.39624023 3.97460938 C36.44118317 4.72286616 40.48904204 5.31143077 44.5625 5.875 C135.96008342 19.74246076 227.30077744 58.28195208 312.671875 121.8828125 C315.41730897 123.80461628 318.24689144 125.2109023 321.25 126.6875 C323.625 128.75 323.625 128.75 325.25 130.6875 C325.25 131.3475 325.25 132.0075 325.25 132.6875 C325.77335937 132.90277344 326.29671875 133.11804688 326.8359375 133.33984375 C330.20629796 135.22135566 332.98312063 137.72107381 335.875 140.25 C336.49455566 140.7864917 337.11411133 141.3229834 337.75244141 141.87573242 C342.13869114 145.68520223 346.47852865 149.54475973 350.7734375 153.45703125 C352.16363589 154.7090869 353.55993479 155.95470056 354.97694397 157.17633057 C359.76693195 161.30795525 364.32030099 165.61079384 368.78515625 170.08984375 C369.46750839 170.77123917 370.14986053 171.45263458 370.85289001 172.15467834 C372.28344437 173.58455741 373.71275767 175.01567911 375.14086914 176.44799805 C377.30699074 178.61947711 379.47840174 180.78556325 381.65039062 182.95117188 C383.04979987 184.35124202 384.44889884 185.75162238 385.84765625 187.15234375 C386.48639175 187.78905502 387.12512726 188.4257663 387.78321838 189.08177185 C392.13547503 193.45636075 396.23120525 198.00609298 400.25 202.6875 C401.21167442 203.79346043 402.173816 204.89901509 403.13671875 206.00390625 C425.95499942 232.38377041 446.50415039 260.64891792 464.25 290.6875 C464.69263184 291.43 465.13526367 292.1725 465.59130859 292.9375 C506.83409087 362.22418781 532.54403216 438.10622784 543.9375 517.75 C544.04041351 518.45516754 544.14332703 519.16033508 544.24935913 519.88687134 C547.66223306 543.48192569 548.60662709 567.08169894 548.56567383 590.88891602 C548.56105916 593.78393158 548.567928 596.67852517 548.58618164 599.57348633 C548.94703976 657.42949275 540.29159243 715.935333 522.14990234 770.92578125 C521.21753727 773.78712516 520.31754112 776.65700632 519.42578125 779.53125 C516.44245258 789.12971577 513.32244152 798.48521108 509.25 807.6875 C508.57576858 809.35112082 507.90896455 811.01777309 507.25 812.6875 C505.37798426 817.39773315 503.42825101 822.07330382 501.46484375 826.74609375 C500.3690163 829.39933512 499.33663005 832.06856407 498.3125 834.75 C496.48517842 839.37378943 494.13936682 843.60465221 491.70703125 847.93359375 C489.85999037 851.42464957 488.41071713 855.00206453 487.01171875 858.69140625 C486.25 860.6875 486.25 860.6875 485.25 862.6875 C484.59 862.6875 483.93 862.6875 483.25 862.6875 C483.023125 863.450625 482.79625 864.21375 482.5625 865 C480.76834512 870.04072087 478.50941923 874.84095951 476.25 879.6875 C475.59 879.6875 474.93 879.6875 474.25 879.6875 C473.59 881.9975 472.93 884.3075 472.25 886.6875 C471.59 886.6875 470.93 886.6875 470.25 886.6875 C470.00765625 887.3578125 469.7653125 888.028125 469.515625 888.71875 C460.31134331 910.30904037 444.29470656 930.08033369 430.25 948.6875 C429.78609863 949.30592773 429.32219727 949.92435547 428.84423828 950.56152344 C423.4354656 957.7638056 417.7725437 964.7127703 411.9140625 971.55078125 C409.4040427 974.48697962 406.98070985 977.48762519 404.5625 980.5 C401.88729712 983.80578641 399.1491379 986.82704744 396.0625 989.75 C392.41521438 993.26650646 390.00094399 997.05898619 387.57421875 1001.48828125 C385.48984394 1004.94994206 383.26036349 1006.78357404 379.75 1008.6875 C374.7578158 1011.71584703 370.94407026 1015.83245312 366.91015625 1019.984375 C364.140545 1022.798723 361.26616613 1025.39168745 358.265625 1027.953125 C355.94885379 1029.94662581 353.69580016 1032.00304388 351.4375 1034.0625 C346.18824117 1038.79321502 340.75441004 1043.25833694 335.25 1047.6875 C334.12864698 1048.60124442 333.00756489 1049.51532139 331.88671875 1050.4296875 C313.0639073 1065.71663703 293.38499384 1079.48402033 272.65673828 1092.04711914 C268.67291125 1094.47914635 264.85193815 1096.93840868 261.18359375 1099.828125 C257.88498666 1102.35989117 254.62736127 1103.98498979 250.79980469 1105.57421875 C245.97434069 1107.68108545 241.37575089 1110.25340258 236.72338867 1112.71350098 C162.7690946 1151.68334065 81.26123327 1172.54335849 -2 1176.875 C-3.21675919 1176.9393222 -3.21675919 1176.9393222 -4.45809937 1177.00494385 C-69.98160841 1180.39703086 -135.14484433 1170.80930107 -197.75 1151.6875 C-198.98347168 1151.31222168 -200.21694336 1150.93694336 -201.48779297 1150.55029297 C-207.32384976 1148.76612935 -213.08140659 1146.94911347 -218.75 1144.6875 C-220.46703125 1144.00494141 -220.46703125 1144.00494141 -222.21875 1143.30859375 C-224.83508509 1142.26604398 -227.44943167 1141.21867804 -230.0625 1140.16796875 C-233.07971509 1138.95660803 -236.10140052 1137.75776667 -239.125 1136.5625 C-242.85720421 1135.07206166 -246.51665721 1133.45721051 -250.17578125 1131.796875 C-253.29062224 1130.45451561 -256.45607784 1129.27164929 -259.625 1128.0625 C-266.7472192 1125.30003678 -273.43132046 1121.84417396 -280.14013672 1118.20263672 C-284.60285253 1115.78300058 -289.04882812 1113.60672841 -293.75 1111.6875 C-293.75 1111.0275 -293.75 1110.3675 -293.75 1109.6875 C-294.636875 1109.39875 -295.52375 1109.11 -296.4375 1108.8125 C-299.25382424 1107.85601252 -302.00083156 1106.81951054 -304.75 1105.6875 C-304.75 1105.0275 -304.75 1104.3675 -304.75 1103.6875 C-305.53503906 1103.48125 -306.32007813 1103.275 -307.12890625 1103.0625 C-312.04761268 1101.19477113 -316.25136099 1098.4919051 -320.6875 1095.6875 C-321.62045898 1095.10299072 -322.55341797 1094.51848145 -323.51464844 1093.91625977 C-331.35752514 1088.98177194 -339.11476775 1083.93734858 -346.75 1078.6875 C-347.40887207 1078.23584473 -348.06774414 1077.78418945 -348.74658203 1077.31884766 C-368.04840423 1064.03660766 -386.15118313 1049.44732662 -403.50390625 1033.71875 C-411.90038949 1025.49309527 -411.90038949 1025.49309527 -421.75 1019.5 C-424.9771691 1017.550252 -425.38381111 1016.81235258 -426.953125 1013.56640625 C-429.70850242 1008.4052219 -433.26668325 1004.79170834 -437.5 1000.8125 C-442.98556197 995.50004874 -448.03266494 990.19001228 -452.75390625 984.18359375 C-454.78358896 981.64549737 -456.92216796 979.2636597 -459.125 976.875 C-488.65661024 944.32891743 -512.1213993 904.76926529 -531.75 865.6875 C-532.20971191 864.77742187 -532.66942383 863.86734375 -533.14306641 862.9296875 C-557.17195494 815.05943635 -573.52898993 762.58446247 -581.75 709.6875 C-581.92724609 708.55924805 -582.10449219 707.43099609 -582.28710938 706.26855469 C-594.82824102 624.52482476 -588.88221806 542.30096707 -559.75 446.28515625 C-558.58947892 443.2705214 -557.66859612 440.22167363 -556.75 437.125 C-555.37454558 432.53119716 -553.7791202 428.25237204 -551.7421875 423.91796875 C-550.6411192 421.44273252 -549.75894623 418.93552193 -548.875 416.375 C-547.04893447 411.22881532 -544.73485605 406.44886811 -542.21484375 401.609375 C-541.20205295 399.58919495 -540.26078709 397.53214523 -539.37963867 395.45117188 C-537.80099332 391.74308582 -536.03232176 388.14080617 -534.2109375 384.546875 C-533.72145126 383.57358246 -533.72145126 383.57358246 -533.22207642 382.58062744 C-532.19167635 380.53192461 -531.15867068 378.48455437 -530.125 376.4375 C-528.75550437 373.7251132 -527.38867201 371.01140858 -526.0234375 368.296875 C-525.55313614 367.36871979 -525.55313614 367.36871979 -525.07333374 366.42181396 C-523.78645038 363.86267751 -522.65765164 361.41045493 -521.75 358.6875 C-521.09 358.6875 -520.43 358.6875 -519.75 358.6875 C-519.09 356.3775 -518.43 354.0675 -517.75 351.6875 C-517.09 351.6875 -516.43 351.6875 -515.75 351.6875 C-515.49347656 350.98882812 -515.23695313 350.29015625 -514.97265625 349.5703125 C-513.62020363 346.38146256 -511.9696848 343.53156779 -510.1875 340.5625 C-508.39686939 337.57687474 -506.85117028 334.99101083 -505.75 331.6875 C-505.09 331.6875 -504.43 331.6875 -503.75 331.6875 C-503.48960937 330.97078125 -503.22921875 330.2540625 -502.9609375 329.515625 C-500.65801351 324.13718317 -497.06662797 319.48369771 -493.75 314.6875 C-493.2977002 314.03104492 -492.84540039 313.37458984 -492.37939453 312.69824219 C-485.50459991 302.74904875 -478.34867189 293.094538 -470.75 283.6875 C-470.00234375 282.75679688 -469.2546875 281.82609375 -468.484375 280.8671875 C-466.26011945 278.12287219 -464.01219129 275.40062643 -461.75 272.6875 C-461.32170898 272.1728418 -460.89341797 271.65818359 -460.45214844 271.12792969 C-449.20502916 257.66193627 -437.12364636 244.99351397 -424.75 232.5625 C-424.06848877 231.87631592 -423.38697754 231.19013184 -422.68481445 230.4831543 C-418.76632398 226.57711716 -414.73809738 222.85617063 -410.54931641 219.24169922 C-408.30792825 217.30565078 -406.12339585 215.31081459 -403.9375 213.3125 C-398.68601708 208.5853709 -393.27989505 204.08403717 -387.75 199.6875 C-387.09999023 199.17026367 -386.44998047 198.65302734 -385.78027344 198.12011719 C-376.82230767 191.01693865 -367.77071416 184.12061476 -358.31982422 177.68237305 C-355.31506587 175.61389064 -352.73938583 173.67664424 -350.17578125 171.0546875 C-347.3905009 168.33668445 -344.77527153 167.00422526 -341.25 165.375 C-336.49107999 163.10721366 -331.96958151 160.68834064 -327.5 157.875 C-320.18615687 153.27949808 -312.67424807 149.08930167 -305.08837891 144.9609375 C-303.56514098 144.13141056 -302.0438722 143.29825422 -300.52490234 142.4609375 C-268.31181816 124.73552175 -233.66107212 111.78392371 -198.44921875 101.4140625 C-197.29035156 101.07117188 -196.13148438 100.72828125 -194.9375 100.375 C-194.00292969 100.11074219 -193.06835938 99.84648437 -192.10546875 99.57421875 C-189.69250135 98.81189032 -189.69250135 98.81189032 -187.87158203 97.13110352 C-185.36745899 95.42720484 -184.4129024 95.44789486 -181.44921875 95.703125 C-174.96382225 95.89731982 -168.93498492 94.38526849 -162.66418457 92.92391968 C-145.79272765 89.01914312 -128.96829136 86.54509534 -111.75 84.6875 C-110.72358398 84.57567383 -109.69716797 84.46384766 -108.63964844 84.34863281 C-90.48590345 82.4090517 -72.37904613 81.45579382 -54.125 81.4375 C-53.23090424 81.43582825 -52.33680847 81.43415649 -51.4156189 81.43243408 C-37.75010408 81.43092553 -24.18414349 81.97623179 -10.5625 83.0625 C-9.7666449 83.12562378 -8.97078979 83.18874756 -8.15081787 83.25378418 C0.91332755 83.98981721 9.90455551 84.96899206 18.89916992 86.31323242 C23.44574028 86.821057 27.88442233 86.70275278 32.4453125 86.46484375 C35.25 86.6875 35.25 86.6875 37.54125977 88.10717773 C40.53084462 89.85134923 43.0113279 90.49811811 46.39453125 91.1953125 C48.2206897 91.58444824 48.2206897 91.58444824 50.08374023 91.98144531 C51.05378494 92.18332458 51.05378494 92.18332458 52.04342651 92.38928223 C102.28185488 102.91975372 152.14698713 119.99471652 196.81860352 145.47509766 C199.14260996 146.63395056 201.087515 147.21207223 203.625 147.6875 C207.65786925 148.80001565 208.41705592 150.02394636 210.91455078 153.18505859 C212.94449536 155.46883902 215.29404334 156.61611608 218 158 C225.27162122 161.90887566 232.05842359 166.47710475 238.875 171.125 C239.91108398 171.82858643 240.94716797 172.53217285 242.01464844 173.25708008 C251.89792663 180.02545289 261.49389734 187.16073451 270.8125 194.6875 C271.76189453 195.45247803 271.76189453 195.45247803 272.73046875 196.23291016 C273.9930481 197.25108839 275.25495714 198.27009852 276.51611328 199.29003906 C278.04452006 200.5218893 279.58211656 201.74231883 281.12109375 202.9609375 C291.80569849 211.50227086 301.68442535 220.99523178 311.26953125 230.7421875 C313.23639874 232.67414018 315.27431336 234.46541669 317.375 236.25 C320.61550839 239.04026162 323.38406031 242.00612156 326.14453125 245.265625 C328.34493674 247.79670367 330.62060855 250.23992735 332.91748047 252.68310547 C338.98555352 259.13986836 344.7318919 265.74991265 350.25 272.6875 C351.16941877 273.81604542 352.09006036 274.94359538 353.01171875 276.0703125 C370.06254844 297.00274663 384.6236784 319.41313794 398.25 342.6875 C398.66572266 343.39358398 399.08144531 344.09966797 399.50976562 344.82714844 C433.83379646 403.50382636 457.57121582 473.33231639 462.73046875 541.296875 C463.33287903 545.22839473 464.61054946 548.07633695 466.25 551.6875 C466.5 554.5625 466.5 554.5625 466.25 556.6875 C465.92 557.0175 465.59 557.3475 465.25 557.6875 C465.17180626 559.46635401 465.16424378 561.24834733 465.18408203 563.02880859 C465.19850845 564.75305305 465.19850845 564.75305305 465.21322632 566.51213074 C465.22793976 567.77398697 465.2426532 569.0358432 465.2578125 570.3359375 C465.27803262 573.02433078 465.29722781 575.71271682 465.31542969 578.40112305 C465.32064573 579.10343835 465.32586178 579.80575365 465.33123589 580.52935123 C465.51567693 605.73036341 465.38640962 630.64059012 462.25 655.6875 C462.11609863 656.8532959 461.98219727 658.0190918 461.84423828 659.22021484 C458.62334519 687.03701883 452.6587944 714.97133039 444.25 741.6875 C443.92999023 742.72390625 443.60998047 743.7603125 443.28027344 744.828125 C442.23802452 748.20097192 441.18439381 751.57000097 440.125 754.9375 C439.80015625 755.97422852 439.4753125 757.01095703 439.140625 758.07910156 C437.42487809 763.43383607 435.5121914 768.55865257 433.15625 773.66357422 C431.84739781 776.58663043 430.83534521 779.59185694 429.8125 782.625 C428.02187462 787.73792417 426.00832328 792.53010834 423.4609375 797.30859375 C422.5240519 799.14912062 421.67771854 801.03589197 420.87084961 802.93701172 C419.40355692 806.38086718 417.78655742 809.72857004 416.10546875 813.07421875 C415.81319901 813.65734329 415.52092926 814.24046783 415.21980286 814.84126282 C414.29426856 816.68680293 413.36596317 818.53093192 412.4375 820.375 C411.82728515 821.59040001 411.2172579 822.80589424 410.60742188 824.02148438 C409.40897641 826.40981585 408.20942318 828.79757986 407.00927734 831.18505859 C404.41549648 836.34886379 401.83214014 841.51786629 399.25 846.6875 C398.59 846.6875 397.93 846.6875 397.25 846.6875 C396.97236816 847.4201709 396.69473633 848.1528418 396.40869141 848.90771484 C395.3354402 851.48252274 394.13536553 853.77025373 392.7109375 856.1640625 C392.21706543 856.99405762 391.72319336 857.82405273 391.21435547 858.67919922 C390.68986816 859.54818848 390.16538086 860.41717773 389.625 861.3125 C389.08375488 862.2111377 388.54250977 863.10977539 387.98486328 864.03564453 C384.04704642 870.51119164 379.8214319 876.64345268 375.25 882.6875 C374.07962987 884.32721651 372.90958723 885.96718367 371.74682617 887.61230469 C362.54604436 900.61987169 353.19923801 913.09418917 342.25 924.6875 C341.03312265 926.05494432 339.82373903 927.4291276 338.625 928.8125 C331.26059951 937.29381511 323.64793755 945.44914799 315.6875 953.375 C314.79353516 954.27283203 313.89957031 955.17066406 312.97851562 956.09570312 C307.89663177 961.17015189 302.69967457 966.0133709 297.25 970.6875 C295.60074216 972.18373392 293.95436567 973.68315812 292.3125 975.1875 C287.78886048 979.26427543 283.09854138 983.00849496 278.25 986.6875 C277.31929687 987.41324219 276.38859375 988.13898437 275.4296875 988.88671875 C252.87937559 1006.43526975 229.23479262 1021.82289286 204.25 1035.6875 C203.59547852 1036.05536621 202.94095703 1036.42323242 202.26660156 1036.80224609 C147.95379828 1067.27857244 85.90034005 1084.43465447 24.31716919 1091.45150757 C22.88059066 1091.61551043 21.44447931 1091.78363688 20.00875854 1091.95498657 C4.48311552 1093.77867791 -10.9415279 1094.04707171 -26.5625 1094 C-27.81868134 1093.99817719 -29.07486267 1093.99635437 -30.36911011 1093.99447632 C-49.68553908 1093.94734323 -68.60175812 1093.34842027 -87.75 1090.6875 C-89.0390625 1090.51589355 -90.328125 1090.34428711 -91.65625 1090.16748047 C-126.59649647 1085.47079355 -163.2541389 1078.46759705 -195.625 1064.25 C-201.20454237 1061.86086789 -206.87416986 1059.84676892 -212.62109375 1057.8984375 C-215.58876996 1056.74989864 -218.06271335 1055.37390948 -220.75 1053.6875 C-222.45391417 1052.94806555 -224.15869332 1052.21019587 -225.875 1051.5 C-227.81695073 1050.65848802 -229.6820031 1049.72057905 -231.5625 1048.75 C-235.41867332 1046.78821862 -239.37854606 1045.20926365 -243.40625 1043.63671875 C-246.28278337 1042.47172274 -249.00503305 1041.13221945 -251.75 1039.6875 C-251.75 1039.0275 -251.75 1038.3675 -251.75 1037.6875 C-252.636875 1037.39875 -253.52375 1037.11 -254.4375 1036.8125 C-257.25382424 1035.85601252 -260.00083156 1034.81951054 -262.75 1033.6875 C-262.75 1033.0275 -262.75 1032.3675 -262.75 1031.6875 C-265.06 1031.0275 -267.37 1030.3675 -269.75 1029.6875 C-269.75 1029.0275 -269.75 1028.3675 -269.75 1027.6875 C-272.06 1027.0275 -274.37 1026.3675 -276.75 1025.6875 C-276.75 1025.0275 -276.75 1024.3675 -276.75 1023.6875 C-277.83063721 1023.29159668 -277.83063721 1023.29159668 -278.93310547 1022.88769531 C-281.81398946 1021.66023599 -284.21462796 1020.21693266 -286.8203125 1018.484375 C-287.79009033 1017.84056885 -288.75986816 1017.1967627 -289.7590332 1016.53344727 C-290.78730225 1015.84178467 -291.81557129 1015.15012207 -292.875 1014.4375 C-293.93871826 1013.72456787 -295.00243652 1013.01163574 -296.09838867 1012.27709961 C-312.99680774 1000.87543691 -329.19300306 988.82260156 -344.20703125 975.015625 C-346.32067054 973.08055738 -348.45659848 971.18541703 -350.625 969.3125 C-361.58914942 959.76671077 -372.40545235 949.89155559 -381.875 938.84375 C-384.09775991 936.2875761 -386.39222272 933.80371559 -388.6875 931.3125 C-393.27871908 926.26697738 -397.55162865 921.06084217 -401.75 915.6875 C-402.74126265 914.46018995 -403.73353148 913.23369218 -404.7265625 912.0078125 C-422.896255 889.36323474 -438.11281944 864.6533126 -451.70410156 839.04663086 C-454.29067146 834.18336361 -456.8972926 829.41223657 -459.86328125 824.76953125 C-462.86791942 819.84613124 -464.67662599 814.71437715 -466.52148438 809.26660156 C-467.69235458 805.85544155 -468.97491417 802.52213854 -470.328125 799.1796875 C-486.17674818 759.97581783 -496.74783708 719.77842554 -502 677.8125 C-502.08317474 677.147948 -502.16634949 676.483396 -502.25204468 675.79870605 C-503.85966333 662.79794636 -504.90110748 649.89267551 -504.953125 636.78515625 C-504.96009399 635.59675644 -504.96706299 634.40835663 -504.97424316 633.1839447 C-504.99153194 629.37259332 -504.99796234 625.56138896 -505 621.75 C-505.00100708 620.44893311 -505.00201416 619.14786621 -505.00305176 617.80737305 C-504.99313006 598.8849491 -504.48546535 580.4319226 -501.75 561.6875 C-501.46753338 559.53271122 -501.18629372 557.37776126 -500.90625 555.22265625 C-497.30989163 528.8089158 -490.76026937 503.08053884 -482.75 477.6875 C-482.49976074 476.883125 -482.24952148 476.07875 -481.99169922 475.25 C-479.72708994 467.99807034 -477.13719345 461.04374791 -473.87109375 454.17578125 C-472.49270508 451.11643078 -471.50271232 448.00084363 -470.49609375 444.8046875 C-469.51704507 442.02644464 -468.21875221 439.48633218 -466.8125 436.90234375 C-465.61376825 434.50216499 -465.61376825 434.50216499 -464.47265625 431.109375 C-462.52632913 425.82395305 -459.85083498 420.95219317 -457.1875 416 C-456.20477883 414.16396423 -455.22423409 412.32676153 -454.24609375 410.48828125 C-453.81482178 409.68559814 -453.3835498 408.88291504 -452.93920898 408.0559082 C-451.72839453 405.64447091 -450.71611986 403.2057835 -449.75 400.6875 C-449.09 400.6875 -448.43 400.6875 -447.75 400.6875 C-447.55277344 399.92179687 -447.35554687 399.15609375 -447.15234375 398.3671875 C-445.15588965 393.12858091 -442.25332193 388.57117834 -439.3125 383.8125 C-438.68359863 382.78890381 -438.05469727 381.76530762 -437.40673828 380.71069336 C-423.07466665 357.54868507 -406.73944684 335.26626975 -388.1640625 315.3125 C-386.27702615 313.26057698 -384.45744322 311.18223243 -382.64453125 309.06640625 C-378.39462592 304.19353201 -373.84178649 299.62877068 -369.26196289 295.0690918 C-367.81475615 293.62724779 -366.37297974 292.18012884 -364.93164062 290.73242188 C-359.70831807 285.50501488 -354.38685016 280.46689176 -348.75 275.6875 C-347.74039117 274.81046447 -346.73124432 273.93289671 -345.72265625 273.0546875 C-336.99398255 265.57966224 -327.97526662 258.53887903 -318.75 251.6875 C-317.7612085 250.95128418 -317.7612085 250.95128418 -316.75244141 250.20019531 C-295.73848917 234.66974375 -273.17647808 221.85249353 -249.83300781 210.22363281 C-247.32559423 208.97429434 -244.82920228 207.70684234 -242.3359375 206.4296875 C-218.73240221 194.58435981 -193.21686309 186.50711666 -167.81860352 179.5637207 C-165.14154124 178.79930217 -162.52549059 177.95376723 -159.8984375 177.03515625 C-155.78776479 175.62659413 -151.72968801 174.87197119 -147.4375 174.25 C-142.72636069 173.5292551 -138.04672203 172.79294654 -133.40234375 171.71484375 C-116.42887392 167.81709415 -99.08502131 166.8539759 -81.75 165.6875 C-81.01317993 165.63770996 -80.27635986 165.58791992 -79.51721191 165.53662109 C-70.4680951 164.93602257 -61.44750835 164.51834244 -52.375 164.5625 C-51.30685059 164.56660889 -50.23870117 164.57071777 -49.13818359 164.57495117 C-1.72170608 164.90487279 44.73870422 173.58508491 89.6875 188.375 C90.52104004 188.64812012 91.35458008 188.92124023 92.21337891 189.20263672 C97.02460367 190.81938777 101.63437672 192.69136558 106.25170898 194.79711914 C108.64577439 195.86384566 111.07800678 196.73037308 113.5625 197.5625 C118.75417184 199.40000183 123.5570145 201.75640532 128.42578125 204.3203125 C131.31307656 205.71803499 134.18915443 206.73805012 137.25 207.6875 C137.25 208.3475 137.25 209.0075 137.25 209.6875 C137.92546875 209.88085938 138.6009375 210.07421875 139.296875 210.2734375 C140.18890625 210.53382813 141.0809375 210.79421875 142 211.0625 C142.88171875 211.31773437 143.7634375 211.57296875 144.671875 211.8359375 C147.01080572 212.6084934 149.08442562 213.52375676 151.25 214.6875 C151.25 215.3475 151.25 216.0075 151.25 216.6875 C152.136875 216.97625 153.02375 217.265 153.9375 217.5625 C156.75382424 218.51898748 159.50083156 219.55548946 162.25 220.6875 C162.25 221.3475 162.25 222.0075 162.25 222.6875 C162.94867187 222.94917969 163.64734375 223.21085938 164.3671875 223.48046875 C187.25287829 233.06268888 208.42197067 250.8238838 227.25 266.6875 C227.7670752 267.1196582 228.28415039 267.55181641 228.81689453 267.99707031 C243.43829478 280.23403106 257.98150294 293.0923093 270.41796875 307.578125 C272.40311587 309.86379546 274.4503983 312.08451378 276.5 314.3125 C282.08827038 320.50798482 287.16317147 327.08057347 292.25 333.6875 C292.91829834 334.55375 292.91829834 334.55375 293.60009766 335.4375 C295.32273555 337.67090162 297.04512227 339.90439198 298.75708008 342.14599609 C300.52451858 344.45941209 302.30478518 346.75445966 304.1484375 349.0078125 C307.95020121 353.66970375 311.00519521 358.52242336 313.92724609 363.78125 C316.34482125 368.1317476 318.88022666 372.39217323 321.47998047 376.63623047 C356.41141604 433.83042485 376.14478404 498.05980827 381.25 564.6875 C381.30161285 565.35898071 381.35322571 566.03046143 381.40640259 566.72229004 C385.51587075 621.78698239 378.21175444 676.13270834 360.66015625 728.42578125 C359.63409444 731.49499528 358.68381664 734.57024294 357.8125 737.6875 C356.61179818 741.74612229 355.07266186 745.49152241 353.2890625 749.32421875 C351.74100067 752.84518644 350.51698952 756.47024321 349.27734375 760.109375 C348.18736425 762.84468477 346.77337315 765.17234746 345.25 767.6875 C344.56899962 769.29807883 343.92246854 770.92370041 343.3125 772.5625 C342.11587465 775.64540882 340.87108091 778.52833457 339.1875 781.375 C337.58101494 784.12157122 336.36986639 786.78757735 335.171875 789.72265625 C333.57560606 793.12487353 331.54251161 796.26865056 329.5546875 799.453125 C328.12060676 801.73353204 328.12060676 801.73353204 327.25 804.6875 C326.59 804.6875 325.93 804.6875 325.25 804.6875 C325.02054688 805.34234375 324.79109375 805.9971875 324.5546875 806.671875 C322.83269518 810.65204886 320.64376631 814.24758609 318.375 817.9375 C317.8903125 818.72672852 317.405625 819.51595703 316.90625 820.32910156 C305.30350243 839.00506255 291.75889984 856.20191081 277.25 872.6875 C276.425 873.6259375 275.6 874.564375 274.75 875.53125 C268.72996468 882.2285393 262.41690967 888.62125725 256.0625 895 C255.21880859 895.84836426 254.37511719 896.69672852 253.50585938 897.57080078 C248.58169096 902.48239768 243.55794546 907.19387615 238.25 911.6875 C237.61989014 912.22431396 236.98978027 912.76112793 236.34057617 913.31420898 C219.57285086 927.50555999 202.07500137 940.3582719 183.25 951.6875 C182.4652832 952.16364746 181.68056641 952.63979492 180.87207031 953.13037109 C133.26233839 981.82624906 80.2643339 999.96724695 25.25 1007.6875 C24.20199219 1007.83848145 23.15398438 1007.98946289 22.07421875 1008.14501953 C-42.75808886 1017.14195803 -113.12084979 1008.26307889 -173.75 983.6875 C-174.80832031 983.26855469 -175.86664062 982.84960938 -176.95703125 982.41796875 C-183.12718461 979.92297734 -189.04287279 977.07219126 -194.96875 974.046875 C-198.49359272 972.32405862 -202.0449008 970.97003434 -205.75 969.6875 C-205.75 969.0275 -205.75 968.3675 -205.75 967.6875 C-206.513125 967.460625 -207.27625 967.23375 -208.0625 967 C-213.10322087 965.20584512 -217.90345951 962.94691923 -222.75 960.6875 C-222.75 960.0275 -222.75 959.3675 -222.75 958.6875 C-225.06 958.0275 -227.37 957.3675 -229.75 956.6875 C-229.75 956.0275 -229.75 955.3675 -229.75 954.6875 C-231.4 954.3575 -233.05 954.0275 -234.75 953.6875 C-234.75 953.0275 -234.75 952.3675 -234.75 951.6875 C-235.45125 951.419375 -236.1525 951.15125 -236.875 950.875 C-239.9149824 949.6193551 -242.8227774 948.18514877 -245.75 946.6875 C-245.75 946.0275 -245.75 945.3675 -245.75 944.6875 C-246.72066406 944.38005859 -246.72066406 944.38005859 -247.7109375 944.06640625 C-252.00037728 942.12016944 -255.58873133 939.40624952 -259.375 936.625 C-260.17897217 936.0386377 -260.98294434 935.45227539 -261.8112793 934.84814453 C-267.97172452 930.32556841 -273.91974123 925.63016714 -279.75 920.6875 C-280.73742187 919.8728125 -281.72484375 919.058125 -282.7421875 918.21875 C-296.59230136 906.74618195 -310.20820923 894.45126834 -321.92578125 880.78515625 C-323.1696954 879.35478816 -324.43934069 877.94649275 -325.73046875 876.55859375 C-370.25036891 828.63279959 -400.40958958 765.37577168 -413.75 701.6875 C-413.94142578 700.79740234 -414.13285156 699.90730469 -414.33007812 698.99023438 C-419.65062268 674.01889808 -421.66126609 648.7134513 -422.36254883 623.23510742 C-422.4125723 621.4930847 -422.4679233 619.75120692 -422.52856445 618.00952148 C-422.90117418 607.29222109 -422.57898608 597.29462116 -420.75 586.6875 C-420.51037732 584.78821523 -420.28449119 582.88713278 -420.07421875 580.984375 C-416.37321277 548.47522536 -410.43094421 512.71902903 -395.87109375 483.07421875 C-394.21375547 479.54587837 -392.98707838 475.88591819 -391.7421875 472.1953125 C-390.67022863 469.48587315 -389.26530193 467.17113659 -387.75 464.6875 C-387.08815966 462.86743907 -386.42759977 461.04688802 -385.77734375 459.22265625 C-383.47704912 453.54626379 -380.54222307 448.13424746 -377.75 442.6875 C-377.09 442.6875 -376.43 442.6875 -375.75 442.6875 C-375.55148437 441.92050781 -375.35296875 441.15351562 -375.1484375 440.36328125 C-373.16549687 435.15113842 -370.29557539 430.61183619 -367.375 425.875 C-366.74795166 424.85398193 -366.12090332 423.83296387 -365.47485352 422.78100586 C-354.39439892 404.90356824 -341.79283134 388.34313687 -327.75 372.6875 C-326.80761475 371.62196899 -326.80761475 371.62196899 -325.84619141 370.53491211 C-320.05511132 364.02544994 -314.03283745 357.78713162 -307.875 351.625 C-306.95847656 350.69623047 -306.04195313 349.76746094 -305.09765625 348.81054688 C-298.96129215 342.66123686 -292.55370209 337.08277966 -285.75 331.6875 C-284.53035698 330.68626172 -283.31259714 329.68272008 -282.09765625 328.67578125 C-265.7059524 315.25590264 -248.37209079 303.76795714 -229.75 293.6875 C-228.81752441 293.17944824 -227.88504883 292.67139648 -226.92431641 292.14794922 C-186.4587839 270.20648546 -143.39347488 256.65618604 -97.75 250.6875 C-97.09587128 250.60029694 -96.44174255 250.51309387 -95.76779175 250.42324829 C-81.94667637 248.62703862 -68.23745638 248.3258894 -54.3125 248.375 C-53.21094574 248.37715515 -52.10939148 248.3793103 -50.97445679 248.38153076 C-34.06135167 248.43455134 -17.46985895 248.91239915 -0.75 251.6875 C0.48621094 251.89149414 1.72242188 252.09548828 2.99609375 252.30566406 C26.92101614 256.3781174 51.88874513 261.45197429 74.0390625 271.6875 C77.1483953 273.09384133 80.32006334 274.32585797 83.5 275.5625 C91.39848908 278.79370008 99.01515932 282.5190069 106.625 286.375 C108.56937367 287.35992847 110.514646 288.34308548 112.4609375 289.32421875 C113.73396729 289.96943481 113.73396729 289.96943481 115.03271484 290.62768555 C117.33694571 291.78526335 117.33694571 291.78526335 120.25 292.6875 C120.25 293.3475 120.25 294.0075 120.25 294.6875 C120.94609375 294.94789063 121.6421875 295.20828125 122.359375 295.4765625 C142.71747732 304.00495672 160.92668218 319.7226205 177.75390625 333.66796875 C179.9545791 335.44848183 182.1952194 337.10878388 184.5 338.75 C187.86569591 341.24385902 190.40351794 344.02216717 193.078125 347.23046875 C195.94644132 350.47538056 199.03472811 353.46805052 202.125 356.5 C207.05075929 361.36973353 211.65653866 366.32213888 215.9453125 371.7734375 C217.6146857 373.88420429 219.30373802 375.93633594 221.0546875 377.9765625 C235.46916147 394.93989539 247.84140309 414.0292466 258.25 433.6875 C258.88421875 434.81542969 259.5184375 435.94335938 260.171875 437.10546875 C269.65256705 454.04715655 277.25375933 471.94614544 282.52539062 490.62841797 C284.17729733 496.58357001 284.17729733 496.58357001 288.0390625 501.265625 C290.25 503.6875 290.25 503.6875 290.24853516 505.71655273 C289.99864555 507.40629056 289.74138256 509.09494717 289.47851562 510.78271484 C289.03021112 516.48135476 290.73771048 521.97451306 292 527.5 C300.24403404 566.13952728 302.09998077 608.64521418 295.25 647.6875 C295.06244141 648.78513672 294.87488281 649.88277344 294.68164062 651.01367188 C292.47368274 663.71121611 290.01980196 676.35171739 286.25 688.6875 C285.9622168 689.63544434 285.67443359 690.58338867 285.37792969 691.56005859 C284.36934845 694.85680196 283.3442515 698.14793751 282.3125 701.4375 C281.98854248 702.4797876 281.66458496 703.5220752 281.33081055 704.59594727 C279.10825781 711.5494963 276.38472253 718.09957514 273.25 724.6875 C271.006472 729.62940687 268.86903267 734.60219124 266.8125 739.625 C264.54270835 745.11620402 261.99012254 750.41713665 259.25 755.6875 C258.59 755.6875 257.93 755.6875 257.25 755.6875 C256.92128906 756.89986328 256.92128906 756.89986328 256.5859375 758.13671875 C254.88412024 762.6599699 252.48592553 766.44998816 249.875 770.5 C249.34189209 771.33313721 248.80878418 772.16627441 248.25952148 773.0246582 C233.54129723 795.84687901 216.75017927 816.40825821 197.5625 835.625 C197.03498138 836.15385803 196.50746277 836.68271606 195.96395874 837.2276001 C188.15445074 845.03282487 180.19246808 852.20250406 171.25 858.6875 C169.67633593 859.93151873 168.1027089 861.17560073 166.53393555 862.42578125 C118.3014327 900.54561222 57.90117762 920.98953782 -2.75 926.6875 C-3.67337158 926.78248779 -4.59674316 926.87747559 -5.5480957 926.9753418 C-53.40966923 931.73737153 -106.17841384 923.18233542 -149.81640625 903.03125 C-152.16933399 901.95347751 -154.52991654 900.90197753 -156.8984375 899.859375 C-162.25117946 897.48558426 -167.53145705 894.96593253 -172.8125 892.4375 C-173.77349609 891.97859375 -174.73449219 891.5196875 -175.72460938 891.046875 C-178.06692262 889.92815823 -180.40870654 888.80834901 -182.75 887.6875 C-182.75 887.0275 -182.75 886.3675 -182.75 885.6875 C-183.40355469 885.45804688 -184.05710937 885.22859375 -184.73046875 884.9921875 C-188.72766935 883.26506589 -192.35195393 881.08194956 -196.0625 878.8125 C-196.85285645 878.3292627 -197.64321289 877.84602539 -198.45751953 877.34814453 C-205.95006672 872.68980632 -212.9537143 867.49621893 -219.91894531 862.09228516 C-221.6857881 860.73676337 -223.47252217 859.41527152 -225.2734375 858.10546875 C-226.33820313 857.32816406 -227.40296875 856.55085937 -228.5 855.75 C-229.42296875 855.08097656 -230.3459375 854.41195312 -231.296875 853.72265625 C-233.86475312 851.59229876 -235.71219354 849.318431 -237.75 846.6875 C-238.82332162 845.69474247 -239.92850143 844.73534021 -241.0625 843.8125 C-251.62633504 834.75213212 -261.18898486 824.64320469 -269.75 813.6875 C-270.70054295 812.52392756 -271.65384331 811.36260416 -272.609375 810.203125 C-288.0042871 791.44134612 -300.43814378 770.64195414 -310.75 748.6875 C-311.04326172 748.06375488 -311.33652344 747.44000977 -311.63867188 746.79736328 C-324.81241799 718.44740296 -332.70320124 688.64788476 -336.75 657.6875 C-336.86714355 656.81673828 -336.98428711 655.94597656 -337.10498047 655.04882812 C-343.25595488 607.63240134 -337.57079901 553.21333323 -316.75 509.6875 C-316.255 508.511875 -315.76 507.33625 -315.25 506.125 C-314.16779031 503.64493612 -313.04636172 501.27550918 -311.8125 498.875 C-309.81109825 494.9414758 -308.1796272 490.90080348 -306.58203125 486.7890625 C-305.75 484.6875 -305.75 484.6875 -304.75 482.6875 C-304.09 482.6875 -303.43 482.6875 -302.75 482.6875 C-302.37875 481.45 -302.37875 481.45 -302 480.1875 C-300.56295189 476.16376529 -298.72645485 472.46770976 -296.75 468.6875 C-296.09 468.6875 -295.43 468.6875 -294.75 468.6875 C-294.52183594 468.01589844 -294.29367187 467.34429688 -294.05859375 466.65234375 C-292.38457207 462.85956031 -290.17923136 459.64187772 -287.8125 456.25 C-287.32668457 455.54915283 -286.84086914 454.84830566 -286.34033203 454.1262207 C-281.80557538 447.64977034 -276.99617313 441.41815248 -272.02587891 435.27197266 C-270.83164663 433.7888943 -269.65536263 432.29141344 -268.48046875 430.79296875 C-261.09295647 421.48869653 -252.76814598 413.06438516 -243.7109375 405.375 C-242.315936 404.17452062 -240.94864583 402.94151212 -239.6015625 401.6875 C-205.77139882 370.2175803 -162.24184944 349.69013424 -117.75 338.6875 C-116.98220215 338.49172363 -116.2144043 338.29594727 -115.42333984 338.09423828 C-69.75836482 326.61533676 -15.14987673 327.82209743 29.03808594 344.36425781 C34.39236272 346.31544825 39.2255606 347.12570301 44.92797852 347.35717773 C48.50300886 347.86574845 49.92071817 350.05173372 52.25 352.6875 C54.12269809 353.70712705 54.12269809 353.70712705 56.26953125 354.55859375 C61.34871725 356.72261314 66.32858762 359.06347191 71.3125 361.4375 C72.17810547 361.84871094 73.04371094 362.25992187 73.93554688 362.68359375 C76.04084097 363.68389923 78.14564832 364.68521388 80.25 365.6875 C80.25 366.3475 80.25 367.0075 80.25 367.6875 C80.930625 367.935 81.61125 368.1825 82.3125 368.4375 C93.69548883 373.28132503 103.67315994 380.9933939 113.25 388.6875 C114.52423828 389.67169922 114.52423828 389.67169922 115.82421875 390.67578125 C131.73726414 403.05259433 147.01931028 417.66333432 159.25 433.6875 C159.65750488 434.21327637 160.06500977 434.73905273 160.48486328 435.28076172 C202.61751561 489.84911241 222.71171872 559.76737258 214.125 628.4375 C211.2078988 649.37199096 206.4967974 671.56344175 197.25 690.6875 C194.34551936 696.96192293 191.56169523 703.24975606 189.046875 709.69140625 C188.25 711.6875 188.25 711.6875 187.25 713.6875 C186.59 713.6875 185.93 713.6875 185.25 713.6875 C184.89421875 714.94046875 184.89421875 714.94046875 184.53125 716.21875 C183.04277903 720.24851288 181.05752695 723.58356005 178.75 727.1875 C178.30712646 727.88528564 177.86425293 728.58307129 177.40795898 729.30200195 C169.82988765 741.13076158 161.56679108 752.17429039 152.25 762.6875 C151.77304687 763.22761719 151.29609375 763.76773438 150.8046875 764.32421875 C133.4889203 783.81603156 113.65919257 799.38749222 91.25 812.6875 C90.30423096 813.24945068 90.30423096 813.24945068 89.33935547 813.82275391 C71.60575603 824.1847776 52.04432778 831.42404698 32.25 836.6875 C31.55455078 836.88037598 30.85910156 837.07325195 30.14257812 837.27197266 C-16.38134741 850.08728068 -72.84907844 847.13672779 -116.75 826.6875 C-118.08253853 826.10235334 -119.41590673 825.51909324 -120.75 824.9375 C-128.14484638 821.65678103 -135.43741021 818.1464977 -142.75 814.6875 C-142.75 814.0275 -142.75 813.3675 -142.75 812.6875 C-143.47574219 812.41679688 -144.20148437 812.14609375 -144.94921875 811.8671875 C-160.44793249 805.33913792 -174.80134253 792.28212317 -186.75 780.6875 C-187.34167969 780.12160156 -187.93335938 779.55570313 -188.54296875 778.97265625 C-202.81289689 765.29117876 -214.24470595 750.41682101 -224.75 733.6875 C-225.18699219 732.99237305 -225.62398437 732.29724609 -226.07421875 731.58105469 C-242.88377867 704.33663719 -251.34214631 673.27339964 -254.75 641.6875 C-254.84498779 640.841875 -254.93997559 639.99625 -255.0378418 639.125 C-258.64833251 605.54262234 -252.73884014 569.37248157 -238.75 538.6875 C-238.11814675 537.25259617 -237.48916881 535.81642226 -236.86328125 534.37890625 C-236.56486328 533.69505859 -236.26644531 533.01121094 -235.95898438 532.30664062 C-235.34944103 530.90827649 -234.74007247 529.50983617 -234.13085938 528.11132812 C-231.85579182 522.89908365 -231.85579182 522.89908365 -230.75 520.6875 C-230.09 520.6875 -229.43 520.6875 -228.75 520.6875 C-228.35941406 519.62982422 -228.35941406 519.62982422 -227.9609375 518.55078125 C-221.08366734 502.28936503 -208.25800225 487.63711942 -196.09912109 475.08349609 C-194.88250663 473.82461055 -193.68421202 472.54808245 -192.48828125 471.26953125 C-186.16632079 464.66711413 -179.04285622 459.16261071 -171.75 453.6875 C-170.91726563 453.05972656 -170.08453125 452.43195313 -169.2265625 451.78515625 C-141.42590799 431.62256552 -108.89730447 418.9808774 -74.75 415.6875 C-73.53703247 415.55045654 -73.53703247 415.55045654 -72.29956055 415.41064453 C-48.63169829 412.79151627 -24.58061652 415.01300552 -1.75 421.6875 C-1.00298828 421.89745605 -0.25597656 422.10741211 0.51367188 422.32373047 C12.13160331 425.6100681 22.6755558 429.87569712 33.25 435.6875 C33.85682617 436.01508301 34.46365234 436.34266602 35.08886719 436.68017578 C55.23350683 447.58959072 74.74054584 461.82502071 89.25 479.6875 C90.06984375 480.66976563 90.8896875 481.65203125 91.734375 482.6640625 C113.70892877 509.43421164 127.6360472 541.7940224 131.79296875 576.19140625 C132.10929675 578.68976133 132.10929675 578.68976133 133.36328125 580.65234375 C134.62589934 583.55024695 133.79574062 585.59290259 133.25 588.6875 C133.08843468 590.90687062 132.95899156 593.12872819 132.85546875 595.3515625 C131.81224416 615.45676939 130.55654573 636.01974102 122.1328125 654.640625 C120.45277535 658.53593238 119.01892612 662.53200174 117.53125 666.50390625 C116.26026378 669.66199701 114.81348635 672.66506273 113.25 675.6875 C112.59 675.6875 111.93 675.6875 111.25 675.6875 C110.59 677.9975 109.93 680.3075 109.25 682.6875 C108.59 682.6875 107.93 682.6875 107.25 682.6875 C107.01152344 683.37714844 106.77304687 684.06679688 106.52734375 684.77734375 C105.00777074 688.23936789 103.01306892 691.19858406 100.8125 694.25 C100.37365479 694.86061279 99.93480957 695.47122559 99.48266602 696.1003418 C94.85902617 702.40768292 89.67600927 708.0691359 84.25 713.6875 C83.51136719 714.47769531 82.77273438 715.26789062 82.01171875 716.08203125 C54.72092078 744.57023169 14.74041415 760.29601178 -24.30615234 761.16210938 C-38.45313185 761.30194346 -52.0172152 760.16426287 -65.75 756.6875 C-66.48202637 756.50558105 -67.21405273 756.32366211 -67.96826172 756.13623047 C-77.35708113 753.71825833 -85.77918026 749.9716415 -94.32421875 745.45703125 C-97.1040826 744.02113806 -99.82291682 742.77885988 -102.75 741.6875 C-102.75 741.0275 -102.75 740.3675 -102.75 739.6875 C-103.78640625 739.32785156 -103.78640625 739.32785156 -104.84375 738.9609375 C-130.64048771 727.65752824 -149.50609648 700.30287055 -161.21875 675.85546875 C-162.16659379 673.89449602 -163.15885095 671.95352555 -164.21875 670.05078125 C-167.52547812 664.08136799 -168.73841902 658.64662401 -169.4921875 651.890625 C-169.80422672 649.224108 -170.16789865 646.56625611 -170.53125 643.90625 C-170.81341791 641.79178896 -171.09465991 639.67720416 -171.375 637.5625 C-171.5105127 636.56138184 -171.64602539 635.56026367 -171.78564453 634.52880859 C-173.08603548 624.30857471 -173.0291431 614.62246136 -171.5 604.4375 C-171.2997522 603.07951294 -171.2997522 603.07951294 -171.09545898 601.6940918 C-169.87894707 593.83852343 -168.14985139 586.27621927 -165.75 578.6875 C-165.48832031 577.84832031 -165.22664063 577.00914062 -164.95703125 576.14453125 C-156.20111325 551.6032963 -136.04845833 527.87085571 -113.75 514.6875 C-113.10305176 514.30368164 -112.45610352 513.91986328 -111.78955078 513.52441406 C-86.13316015 498.57788458 -55.42121036 493.35563125 -26.375 500.7578125 C-18.40852293 502.92332933 -10.88996088 505.46843221 -3.75 509.6875 C-2.86054687 510.21214844 -1.97109375 510.73679687 -1.0546875 511.27734375 C4.56475959 514.72884259 9.75962349 518.52047375 14.8359375 522.7265625 C16.40533353 524.00137934 18.01444082 525.22928815 19.6640625 526.3984375 C24.72099094 530.00086478 27.75482715 533.45173241 30.72265625 538.90234375 C32.42089601 541.99913391 34.32729596 544.91280001 36.25 547.875 C49.16002128 568.98029292 52.35199783 592.92309686 47.02954102 616.97045898 C45.08881719 625.0060457 41.97187173 632.32912057 38.25 639.6875 C37.59 639.6875 36.93 639.6875 36.25 639.6875 C36.0025 640.40421875 35.755 641.1209375 35.5 641.859375 C29.54949721 655.32238757 14.74982993 667.0473733 1.35009766 672.45410156 C-17.5606409 679.50902934 -38.14736295 680.69479119 -56.8203125 672.30859375 C-59.16984559 671.16000585 -61.47084399 669.96886882 -63.75 668.6875 C-63.75 668.0275 -63.75 667.3675 -63.75 666.6875 C-64.33265625 666.41808594 -64.9153125 666.14867187 -65.515625 665.87109375 C-76.93299336 659.82308219 -84.38384281 647.57316854 -88.4296875 635.69140625 C-91.19901473 625.65733705 -91.26878265 613.1421837 -86.75 603.6875 C-86.39421875 602.841875 -86.0384375 601.99625 -85.671875 601.125 C-81.56604971 592.41867168 -74.72072459 583.34076798 -65.44091797 579.80859375 C-58.0858976 577.75206718 -50.26295528 576.37184012 -43.0625 579.5 C-41.969375 580.221875 -40.87625 580.94375 -39.75 581.6875 C-39.75 582.3475 -39.75 583.0075 -39.75 583.6875 C-39.028125 583.873125 -38.30625 584.05875 -37.5625 584.25 C-33.65113104 586.24914414 -31.66097213 588.75445271 -29.75 592.6875 C-28.71108402 596.97836533 -28.34605633 600.47566899 -29.75 604.6875 C-30.41 604.6875 -31.07 604.6875 -31.75 604.6875 C-31.75 605.3475 -31.75 606.0075 -31.75 606.6875 C-34.39 607.3475 -37.03 608.0075 -39.75 608.6875 C-39.399375 607.98625 -39.04875 607.285 -38.6875 606.5625 C-37.34880118 602.45715696 -38.26517507 599.57293027 -39.3125 595.5 C-42.51055707 591.46766717 -47.76543542 590.81454059 -52.625 590.1875 C-60.00413948 590.54922252 -66.1175938 594.6335809 -71.1875 599.75 C-77.039273 606.87852347 -78.39725907 615.85824818 -78.09765625 624.8984375 C-76.43742957 638.2175594 -69.25167517 648.68612045 -59.08984375 657.0546875 C-46.72726093 665.80359227 -30.90326921 667.46998595 -16.328125 665.140625 C-0.66316616 661.56233491 15.2803215 652.20902037 24.2421875 638.546875 C25.83639767 635.60561903 27.04199704 632.55721118 28.2109375 629.42578125 C29.68905435 625.53044324 31.40470099 621.74192835 33.1015625 617.9375 C39.6855793 599.30518035 37.70978186 578.28055175 29.3828125 560.625 C20.96697605 543.69160634 7.41146021 527.39934399 -10.75 520.6875 C-10.75 520.0275 -10.75 519.3675 -10.75 518.6875 C-16.21452302 517.11049 -21.69340062 515.59562072 -27.1875 514.125 C-28.39889648 513.79338867 -28.39889648 513.79338867 -29.63476562 513.45507812 C-38.37801888 511.12307424 -46.67226876 510.50617059 -55.6875 510.5 C-56.62529297 510.48775391 -57.56308594 510.47550781 -58.52929688 510.46289062 C-64.38513365 510.45068249 -70.18733075 510.67999516 -75.75 512.6875 C-76.389375 513.38875 -77.02875 514.09 -77.6875 514.8125 C-79.75 516.6875 -79.75 516.6875 -81.609375 516.6640625 C-82.37765625 516.58929687 -83.1459375 516.51453125 -83.9375 516.4375 C-98.16000182 515.87111718 -113.85931942 528.23619294 -123.7578125 537.2890625 C-139.37923256 552.08618626 -150.07005241 568.74015263 -155.00390625 589.7578125 C-155.75 592.6875 -155.75 592.6875 -156.76953125 595.703125 C-165.62314187 622.6519637 -158.21715901 654.91602278 -145.87988281 679.55761719 C-130.60946002 708.34309007 -103.74090055 731.5120907 -72.65625 741.55859375 C-71.35500502 741.93778467 -70.05285245 742.31386948 -68.75 742.6875 C-68.00234375 742.91453613 -67.2546875 743.14157227 -66.484375 743.37548828 C-42.6702091 750.38606777 -13.61064573 750.91155553 10.25 743.6875 C11.46067139 743.33341064 11.46067139 743.33341064 12.69580078 742.97216797 C36.84320906 735.73494473 57.20542951 723.08279059 75.25 705.6875 C75.89324219 705.09582031 76.53648437 704.50414062 77.19921875 703.89453125 C86.61486251 695.00563679 94.12925396 684.06516276 99.1875 672.1875 C100.57174475 668.94265097 102.19197693 666.23766368 104.25 663.375 C107.8401972 658.19317885 109.45259389 652.67396278 111.25 646.6875 C111.74220378 645.25997268 112.23580447 643.83292658 112.73046875 642.40625 C114.29848471 637.72718458 115.38984616 633.01869442 116.375 628.1875 C116.54386719 627.39730469 116.71273437 626.60710938 116.88671875 625.79296875 C125.25438553 585.53592623 116.60119634 541.59587158 94.5 507.046875 C89.02656 498.77019749 82.96738461 491.15023774 76.23828125 483.86328125 C74.64293179 482.11748626 73.15064268 480.35461898 71.6875 478.5 C62.70042606 468.1302993 47.39203239 455.06817746 34.25 450.6875 C34.25 450.0275 34.25 449.3675 34.25 448.6875 C33.425 448.44 32.6 448.1925 31.75 447.9375 C28.55182691 446.79529532 25.66542058 445.37520076 22.6484375 443.83203125 C16.08501369 440.69997396 9.25750598 437.977697 2.125 436.5 C-1.75 435.6875 -1.75 435.6875 -4.75 433.6875 C-6.62182617 433.2021266 -8.51416047 432.79372264 -10.4140625 432.43359375 C-11.53683594 432.21896484 -12.65960937 432.00433594 -13.81640625 431.78320312 C-14.99074219 431.56599609 -16.16507813 431.34878906 -17.375 431.125 C-19.10169922 430.79338867 -19.10169922 430.79338867 -20.86328125 430.45507812 C-69.44399089 421.28733874 -119.57275159 432.59770381 -160.3684082 460.38916016 C-166.65682531 464.81333909 -172.37113593 469.74056854 -177.94140625 475.03125 C-180.55556439 477.50361096 -183.23027532 479.88065698 -185.9375 482.25 C-193.6515905 489.22824721 -200.03749725 496.85879977 -206.0625 505.3125 C-206.5663623 506.01697266 -207.07022461 506.72144531 -207.58935547 507.44726562 C-210.78454961 512.02067415 -213.36408654 516.64364494 -215.75 521.6875 C-216.41 521.6875 -217.07 521.6875 -217.75 521.6875 C-218.12125 522.945625 -218.4925 524.20375 -218.875 525.5 C-220.09437474 529.18674805 -221.62266681 532.38965905 -223.5625 535.75 C-232.67759652 551.97216435 -237.71716253 571.45256468 -240.75 589.6875 C-241.059375 591.51667969 -241.059375 591.51667969 -241.375 593.3828125 C-248.91465786 646.05570002 -234.48016857 702.00119578 -202.73168945 744.62719727 C-197.39764069 751.61053359 -191.84520854 758.35194412 -185.75 764.6875 C-185.23276367 765.23583496 -184.71552734 765.78416992 -184.18261719 766.34912109 C-163.58037435 788.11411104 -136.87224681 807.25176664 -108.12109375 816.5546875 C-105.36059697 817.48231678 -102.73476077 818.51338242 -100.05078125 819.6328125 C-53.49919731 838.40340155 1.62358576 834.74089262 48.25 818.6875 C49.7659375 818.17316406 49.7659375 818.17316406 51.3125 817.6484375 C78.8074155 807.6958509 103.57784849 792.50045789 125.03125 772.71875 C127.02015799 770.89791875 129.05682976 769.16662594 131.125 767.4375 C140.19879172 759.50022361 148.04679948 750.18634404 155.02685547 740.390625 C156.39539298 738.48505261 157.79327212 736.60270316 159.19140625 734.71875 C165.57579596 726.01742037 170.77012579 717.28244692 175.35302734 707.52490234 C176.73419825 704.69564479 178.31597076 701.98424518 179.875 699.25 C183.6240278 692.37678237 186.13095352 685.19537877 188.5625 677.77880859 C189.03330339 676.34667015 189.51291704 674.91740642 190 673.49072266 C198.78795763 647.68170169 202.68650267 621.45188371 202.625 594.25 C202.62445618 593.33640717 202.62391235 592.42281433 202.62335205 591.48153687 C202.55883235 567.77674 199.11174985 545.40844313 192.25 522.6875 C191.99911621 521.85234863 191.74823242 521.01719727 191.48974609 520.15673828 C180.03456335 482.96238608 158.9248367 449.73592969 132.25 421.6875 C131.71213867 421.12095703 131.17427734 420.55441406 130.62011719 419.97070312 C122.40279311 411.37835386 113.84106248 403.71053048 104.25 396.6875 C103.54343262 396.16849121 102.83686523 395.64948242 102.10888672 395.11474609 C99.87244428 393.48145505 97.62656159 391.86237525 95.375 390.25 C94.68559326 389.7535498 93.99618652 389.25709961 93.28588867 388.74560547 C88.78397661 385.5730771 84.22951511 383.0435793 79.25 380.6875 C79.25 380.0275 79.25 379.3675 79.25 378.6875 C76.94 378.0275 74.63 377.3675 72.25 376.6875 C72.25 376.0275 72.25 375.3675 72.25 374.6875 C71.40179687 374.41679688 70.55359375 374.14609375 69.6796875 373.8671875 C66.16735078 372.65907168 62.78708091 371.27916284 59.375 369.8125 C58.22257813 369.32007813 57.07015625 368.82765625 55.8828125 368.3203125 C53.32434897 367.17037943 50.85531332 365.98539093 48.3671875 364.703125 C5.95163919 343.30676934 -53.47248035 338.48036688 -99.75 347.6875 C-101.24781006 347.97753906 -101.24781006 347.97753906 -102.77587891 348.2734375 C-127.05156451 353.10249177 -150.54645702 360.72882827 -172.75 371.6875 C-173.93964355 372.26902832 -173.93964355 372.26902832 -175.15332031 372.86230469 C-205.68358821 387.92390352 -234.55588497 409.7749992 -256.75 435.6875 C-257.63116787 436.69431032 -258.51269564 437.70080573 -259.39453125 438.70703125 C-273.60220635 455.05373826 -285.50601743 473.09760317 -294.75 492.6875 C-295.41 492.6875 -296.07 492.6875 -296.75 492.6875 C-296.9975 493.863125 -297.245 495.03875 -297.5 496.25 C-298.26015225 499.86072321 -299.84939074 502.60484956 -301.71582031 505.7668457 C-303.47273928 509.02975447 -304.58440076 512.4917166 -305.75 516 C-307.31202562 520.58670637 -308.87604562 525.11727881 -310.8125 529.5625 C-316.97306021 544.73478877 -319.75501334 561.66657225 -322.75 577.6875 C-322.91806152 578.55665039 -323.08612305 579.42580078 -323.25927734 580.32128906 C-336.55591959 651.72356898 -314.49897435 728.79201006 -274.19921875 787.76953125 C-269.65662634 794.30930872 -264.83487234 800.56324964 -259.75 806.6875 C-259.2947998 807.24421387 -258.83959961 807.80092773 -258.37060547 808.37451172 C-228.51210628 844.80831083 -186.7244409 877.40028488 -141.75 892.6875 C-140.37317818 893.20349809 -138.99796772 893.72383273 -137.625 894.25 C-136.33393098 894.73077465 -135.04222116 895.2098307 -133.75 895.6875 C-132.92242188 895.99429688 -132.09484375 896.30109375 -131.2421875 896.6171875 C-128.41664281 897.65563555 -125.58443452 898.67357264 -122.75 899.6875 C-121.89857422 899.99486084 -121.04714844 900.30222168 -120.16992188 900.61889648 C-111.41694884 903.66392479 -102.53400638 905.80253342 -93.5 907.8125 C-92.3219429 908.0772966 -92.3219429 908.0772966 -91.12008667 908.34744263 C-78.44527337 911.17195345 -65.95221909 913.03833652 -52.94946289 913.51733398 C-50.75 913.6875 -50.75 913.6875 -48.44702148 914.19287109 C-45.00080289 914.82490141 -41.61577827 914.84937342 -38.125 914.85546875 C-37.02233795 914.86182091 -37.02233795 914.86182091 -35.8973999 914.86830139 C-33.51487514 914.8781881 -31.13254167 914.87822046 -28.75 914.875 C-27.93599731 914.87439575 -27.12199463 914.8737915 -26.2833252 914.87316895 C-13.67030713 914.84769061 -1.25326955 914.47611154 11.25 912.6875 C12.17570801 912.55859375 13.10141602 912.4296875 14.05517578 912.296875 C46.72495782 907.62280782 78.61149661 898.30064653 108.25 883.6875 C109.15379395 883.24712402 110.05758789 882.80674805 110.98876953 882.35302734 C139.2364767 868.48246234 166.61705585 850.06686582 188.58984375 827.34765625 C190.25 825.6875 190.25 825.6875 193.3125 823.1875 C196.31516324 820.63204193 198.75253114 817.94321331 201.296875 814.9453125 C202.62606941 813.40876376 203.9927793 811.9040576 205.390625 810.4296875 C223.12151115 791.83500502 223.12151115 791.83500502 235.25 769.6875 C235.91 769.6875 236.57 769.6875 237.25 769.6875 C238.32525194 767.03521188 239.34456151 764.40381546 240.25 761.6875 C240.91 761.6875 241.57 761.6875 242.25 761.6875 C242.51949463 760.98931152 242.78898926 760.29112305 243.06665039 759.57177734 C244.32802136 756.49733198 245.73170567 753.52823048 247.18359375 750.5390625 C247.75013672 749.36859375 248.31667969 748.198125 248.90039062 746.9921875 C249.4959085 745.76553505 250.09161304 744.5389732 250.6875 743.3125 C254.88915964 734.66303915 259.00461334 726.11294638 262.31201172 717.07739258 C263.46714284 714.13424356 264.77714369 711.27188379 266.0703125 708.38671875 C269.36875042 700.81454709 271.69706218 693.03498716 273.8125 685.0625 C274.00354309 684.35228699 274.19458618 683.64207397 274.39141846 682.91033936 C278.21214851 668.64381984 281.11852619 654.30697802 283.25 639.6875 C283.41226074 638.60404297 283.57452148 637.52058594 283.74169922 636.40429688 C295.90342974 552.51471296 270.54274514 464.86623965 220.62890625 397.10546875 C207.00715505 378.92156334 190.76683315 358.30636829 172.1328125 345.06640625 C170.13018671 343.59975292 168.29272936 342.02367549 166.4375 340.375 C147.83365308 323.95352743 127.22661816 310.84287343 105.3125 299.3125 C103.85505371 298.54377563 103.85505371 298.54377563 102.36816406 297.75952148 C98.26413076 295.62934287 94.22398854 293.59500476 89.87109375 292.0234375 C86.25 290.6875 86.25 290.6875 83.76171875 289.18359375 C80.36152505 287.15828397 76.80246162 286.00710915 73.0625 284.75 C68.35847535 283.13750457 63.70141397 281.51500039 59.125 279.5625 C51.50117268 276.44247478 42.97070744 273.92467971 34.75 273.125 C31.25 272.6875 31.25 272.6875 28.28125 271.31640625 C23.15495483 269.04833124 17.734321 268.20432985 12.25 267.1875 C11.23421875 266.98769531 10.2184375 266.78789062 9.171875 266.58203125 C5.53974856 265.89333095 1.89950014 265.27520308 -1.75 264.6875 C-2.54578461 264.55688171 -3.34156921 264.42626343 -4.16146851 264.29168701 C-19.26940722 261.87622052 -34.12243753 261.21654587 -49.40991211 261.29638672 C-53.04904916 261.31244066 -56.68706851 261.29644923 -60.32617188 261.27734375 C-80.66587883 261.25882794 -100.85118533 262.9132656 -120.8125 266.9375 C-121.87082031 267.14729492 -122.92914062 267.35708984 -124.01953125 267.57324219 C-151.86222469 273.28858181 -179.15366759 282.34176795 -204.75 294.6875 C-205.97444824 295.26902832 -205.97444824 295.26902832 -207.22363281 295.86230469 C-235.22099873 309.20010562 -262.40693751 326.27694851 -285.23828125 347.38671875 C-287.23927826 349.21966935 -289.26832804 350.98896829 -291.328125 352.75390625 C-296.31596902 357.10815141 -301.00645124 361.75788503 -305.68579102 366.43798828 C-307.17641615 367.92643237 -308.67487017 369.40667277 -310.17382812 370.88671875 C-316.48330721 377.1593836 -322.22077772 383.70517743 -327.75 390.6875 C-328.77417672 391.93100064 -329.80112091 393.17223232 -330.83203125 394.41015625 C-344.40647166 410.92754505 -356.66949386 429.29445925 -365.75 448.6875 C-366.41 448.6875 -367.07 448.6875 -367.75 448.6875 C-368.12125 449.925 -368.12125 449.925 -368.5 451.1875 C-369.69603378 454.53639458 -371.13605367 457.54643585 -372.75 460.703125 C-375.23874905 465.6417364 -377.1674537 470.77226102 -379.125 475.9375 C-380.73272546 480.16504316 -382.44822878 484.28351293 -384.375 488.375 C-386.29798931 492.51543635 -387.77069074 496.60716359 -388.9765625 501.0078125 C-390.11198591 504.94165321 -391.44722396 508.80641321 -392.75 512.6875 C-409.81954974 563.68425138 -414.54295808 622.67011691 -405.75 675.6875 C-405.58371094 676.75194336 -405.41742188 677.81638672 -405.24609375 678.91308594 C-398.37636208 722.28144755 -384.0820116 764.30610119 -362.75 802.6875 C-362.32106445 803.46544922 -361.89212891 804.24339844 -361.45019531 805.04492188 C-351.92932053 822.2234313 -340.96057647 838.31356175 -328.75 853.6875 C-327.73873047 854.98880859 -327.73873047 854.98880859 -326.70703125 856.31640625 C-322.4058885 861.80229491 -317.83710982 866.98022227 -313.11328125 872.10546875 C-311.15435897 874.24571277 -309.254805 876.41588609 -307.375 878.625 C-300.82776369 886.14735662 -293.64303595 893.27823544 -286.04296875 899.734375 C-284.17099222 901.32890356 -282.32632179 902.94500642 -280.48828125 904.578125 C-261.41655376 921.45201437 -237.1977621 942.53824597 -212.75 950.6875 C-212.75 951.3475 -212.75 952.0075 -212.75 952.6875 C-211.91597656 952.93886719 -211.08195312 953.19023438 -210.22265625 953.44921875 C-206.34182808 954.83304612 -202.83321986 956.59931209 -199.1875 958.5 C-193.18855404 961.56813686 -187.17387348 964.17354874 -180.83984375 966.4921875 C-177.83243476 967.65560994 -175.01176779 969.0039084 -172.125 970.4375 C-154.30221574 978.76911481 -134.90722179 983.82981163 -115.75146484 988.02441406 C-112.85482577 988.66434181 -109.96878285 989.34048532 -107.08203125 990.0234375 C-61.40778163 1000.55364875 -12.95386265 1000.8918691 33.25 993.6875 C34.42127441 993.50558105 35.59254883 993.32366211 36.79931641 993.13623047 C96.80406014 983.42613528 153.89623425 958.95040799 203.25 923.6875 C204.12688477 923.06149902 204.12688477 923.06149902 205.02148438 922.42285156 C212.4605149 917.07015952 219.43236159 911.23985236 226.37011719 905.26416016 C227.76922226 904.09072891 229.19023684 902.94332325 230.62207031 901.81005859 C237.92741703 896.00013739 244.55035796 889.69565803 251.12109375 883.07714844 C252.87281575 881.31469762 254.63499428 879.56321432 256.3984375 877.8125 C263.14139388 871.0774115 269.33743468 864.17096052 275.25 856.6875 C276.11300003 855.65962389 276.98140492 854.6362129 277.859375 853.62109375 C291.62329352 837.57156102 303.62445924 819.82177215 314.25 801.5625 C314.95406982 800.35315796 314.95406982 800.35315796 315.67236328 799.11938477 C317.81300356 795.38723867 319.81086788 791.75958975 321.25 787.6875 C321.91 787.6875 322.57 787.6875 323.25 787.6875 C323.52070312 786.84058594 323.79140625 785.99367188 324.0703125 785.12109375 C326.53503813 777.94727311 329.40341263 770.49323014 333.375 764 C335.44506103 760.34289217 336.78139511 756.69739481 338.125 752.7265625 C339.04036466 750.25380658 340.04110438 747.913277 341.13671875 745.51953125 C361.85592843 699.40659764 369.49977035 644.93702293 369.4375 594.75 C369.43689575 593.84609528 369.4362915 592.94219055 369.43566895 592.01089478 C369.4099715 577.81133448 368.9858833 563.79423798 367.25 549.6875 C367.12641113 548.62982422 367.00282227 547.57214844 366.87548828 546.48242188 C362.5174198 509.99086177 353.38857894 473.64885436 339.25 439.6875 C338.85087402 438.72602051 338.45174805 437.76454102 338.04052734 436.77392578 C323.10393213 401.13483318 303.95787283 367.27784495 279.515625 337.25878906 C278.25866795 335.69826137 277.03537054 334.11081752 275.8125 332.5234375 C271.37828847 326.64324269 271.37828847 326.64324269 265.4375 322.5 C262.09389499 320.59873441 261.82862143 320.29775639 260.4453125 317.01953125 C258.28583866 312.45482733 255.43281918 309.16584121 251.9375 305.5625 C251.32720947 304.9221582 250.71691895 304.28181641 250.08813477 303.62207031 C228.21171638 280.9122911 196.66517345 248.82589115 166.25 238.6875 C166.25 238.0275 166.25 237.3675 166.25 236.6875 C164.6 236.3575 162.95 236.0275 161.25 235.6875 C161.25 235.0275 161.25 234.3675 161.25 233.6875 C158.94 233.0275 156.63 232.3675 154.25 231.6875 C154.25 231.0275 154.25 230.3675 154.25 229.6875 C153.45722656 229.44902344 152.66445313 229.21054687 151.84765625 228.96484375 C147.30668044 227.35257547 143.03041603 225.32909128 138.6875 223.25 C137.85025391 222.85490234 137.01300781 222.45980469 136.15039062 222.05273438 C132.88644181 220.49958059 129.69561972 218.95592189 126.59765625 217.08984375 C121.21084455 213.87209766 115.18080624 211.86052758 109.3125 209.6875 C107.97005208 209.1875 106.62760417 208.6875 105.28515625 208.1875 C104.62056396 207.9407251 103.95597168 207.6939502 103.27124023 207.43969727 C101.23389333 206.68150596 99.1988105 205.91747929 97.1640625 205.15234375 C93.63797643 203.82968499 90.1048566 202.52860209 86.5625 201.25 C85.48613281 200.85941406 84.40976562 200.46882812 83.30078125 200.06640625 C53.78295012 189.79066763 22.95188605 183.51565406 -8.06152344 179.99609375 C-9.78733871 179.79799799 -11.51211291 179.59047659 -13.23535156 179.37109375 C-69.28891329 172.24888808 -128.0513652 180.34632985 -181.75 196.6875 C-182.72324219 196.98350098 -183.69648437 197.27950195 -184.69921875 197.58447266 C-223.04075853 209.42862989 -259.09183024 226.91665623 -292.75 248.6875 C-293.76707031 249.33847656 -294.78414063 249.98945313 -295.83203125 250.66015625 C-304.4355998 256.26917617 -312.62843843 262.40878646 -320.75 268.6875 C-321.49556152 269.26322754 -322.24112305 269.83895508 -323.00927734 270.43212891 C-325.24617271 272.17066101 -327.46900808 273.92556511 -329.6875 275.6875 C-330.38004883 276.22721436 -331.07259766 276.76692871 -331.78613281 277.32299805 C-332.42260742 277.83515869 -333.05908203 278.34731934 -333.71484375 278.875 C-334.2780835 279.32230469 -334.84132324 279.76960938 -335.42163086 280.23046875 C-337.01957754 281.98318806 -337.35682387 283.37608217 -337.75 285.6875 C-338.41 285.6875 -339.07 285.6875 -339.75 285.6875 C-339.75 286.3475 -339.75 287.0075 -339.75 287.6875 C-340.60434631 288.0101609 -340.60434631 288.0101609 -341.47595215 288.33934021 C-347.31986263 290.71300058 -351.29706069 293.52382831 -355.65625 298.03515625 C-356.26585571 298.64709335 -356.87546143 299.25903046 -357.50354004 299.88951111 C-358.78320394 301.17885298 -360.05687333 302.47416998 -361.32470703 303.77514648 C-363.23321191 305.73277976 -365.1594638 307.67138027 -367.08984375 309.60742188 C-373.36945144 315.94504272 -379.34632808 322.36688812 -384.8984375 329.35668945 C-386.48405703 331.35272184 -388.10736888 333.28357712 -389.796875 335.19140625 C-409.54939556 357.50496791 -427.04548343 383.71750237 -439.75 410.6875 C-440.41 410.6875 -441.07 410.6875 -441.75 410.6875 C-442.13865234 411.95787109 -442.13865234 411.95787109 -442.53515625 413.25390625 C-443.82319002 416.89436182 -445.42323847 420.1913297 -447.1875 423.625 C-450.58799076 430.25705866 -453.51260123 436.9594147 -456.125 443.9375 C-457.70963719 448.10609514 -459.39889074 452.1600885 -461.3125 456.1875 C-463.59607654 461.09005339 -465.1926809 466.05349821 -466.66015625 471.25390625 C-467.55627967 474.07717681 -468.56412192 476.73149951 -469.69140625 479.46484375 C-471.71794209 484.45795481 -473.24504651 489.48285461 -474.625 494.6875 C-474.87620605 495.62319824 -475.12741211 496.55889648 -475.38623047 497.52294922 C-478.20189372 508.16437136 -480.69631046 518.8793142 -483.07275391 529.62646484 C-483.50463441 531.57849001 -483.94130882 533.52946501 -484.38427734 535.47900391 C-486.64191469 545.45439578 -488.21209912 555.08897082 -488.4230957 565.33569336 C-488.50681772 568.80423139 -488.73136047 571.62302555 -489.703125 574.984375 C-491.1658913 580.1586379 -491.49592582 585.27428218 -491.875 590.625 C-492.0002002 592.38553711 -492.0002002 592.38553711 -492.12792969 594.18164062 C-493.64312635 617.74449478 -493.00325338 641.19286278 -490.75 664.6875 C-490.65879883 665.71375488 -490.56759766 666.74000977 -490.47363281 667.79736328 C-487.77917793 697.63017866 -481.51148449 727.06909459 -472.75 755.6875 C-472.40211426 756.82477539 -472.05422852 757.96205078 -471.69580078 759.13378906 C-456.70880291 807.40769801 -433.2474876 854.96412784 -402.12744141 894.91308594 C-400.79305767 896.6320333 -399.47763031 898.36373267 -398.16796875 900.1015625 C-389.59046323 911.44995265 -380.35621531 922.19940263 -370.75 932.6875 C-370.27916992 933.20344727 -369.80833984 933.71939453 -369.32324219 934.25097656 C-361.52349259 942.79308175 -353.72768629 951.22905228 -344.94140625 958.77734375 C-342.3754973 961.01393818 -339.8784357 963.31874067 -337.375 965.625 C-332.32947738 970.21621908 -327.12334217 974.48912865 -321.75 978.6875 C-320.52268995 979.67876265 -319.29619218 980.67103148 -318.0703125 981.6640625 C-288.45346376 1005.73091716 -288.45346376 1005.73091716 -254.75 1022.6875 C-254.75 1023.3475 -254.75 1024.0075 -254.75 1024.6875 C-253.986875 1024.914375 -253.22375 1025.14125 -252.4375 1025.375 C-247.39677913 1027.16915488 -242.59654049 1029.42808077 -237.75 1031.6875 C-237.75 1032.3475 -237.75 1033.0075 -237.75 1033.6875 C-235.89375 1034.2753125 -235.89375 1034.2753125 -234 1034.875 C-226.40337855 1037.41515757 -219.02165086 1040.4453738 -211.9375 1044.1875 C-207.25781335 1046.59119138 -202.4104034 1048.21992028 -197.41430664 1049.8125 C-193.46414739 1051.08146821 -189.67197417 1052.51850037 -185.875 1054.1875 C-179.0209443 1057.1262685 -171.94715016 1059.10801927 -164.77832031 1061.11425781 C-162.99067183 1061.61948153 -161.20958802 1062.14781134 -159.4296875 1062.6796875 C-139.45251934 1068.6188456 -119.10598872 1072.94872955 -98.51367188 1076.10400391 C-96.07725495 1076.48173071 -93.64334575 1076.87616897 -91.21289062 1077.29052734 C-48.72434613 1084.44421085 -1.20144004 1083.63246337 41.25 1076.6875 C43.11132568 1076.39866943 43.11132568 1076.39866943 45.01025391 1076.10400391 C87.96408276 1069.36978869 134.59231696 1058.15635596 172.72265625 1036.63671875 C177.21071847 1034.13505874 181.68368078 1032.38155847 186.53076172 1030.71142578 C191.19250675 1028.95605151 195.47263046 1026.5525517 199.8125 1024.125 C201.23477905 1023.33826904 201.23477905 1023.33826904 202.68579102 1022.53564453 C229.45268134 1007.61360185 254.76739949 990.38297648 278.25 970.6875 C278.85827637 970.17832031 279.46655273 969.66914062 280.09326172 969.14453125 C292.27510478 958.91244066 303.85320063 948.16375675 315.125 936.9375 C315.92188232 936.14529053 316.71876465 935.35308105 317.53979492 934.53686523 C322.31572458 929.74790986 326.85367576 924.8253403 331.25 919.6875 C332.19941532 918.6044986 333.14988413 917.52241955 334.1015625 916.44140625 C341.90207426 907.49871147 349.17410877 898.21136899 356.25 888.6875 C356.79833496 887.94951172 357.34666992 887.21152344 357.91162109 886.45117188 C373.14724692 866.02782053 373.14724692 866.02782053 385.25 843.6875 C385.91 843.6875 386.57 843.6875 387.25 843.6875 C387.91 841.3775 388.57 839.0675 389.25 836.6875 C389.91 836.6875 390.57 836.6875 391.25 836.6875 C392.24 833.7175 393.23 830.7475 394.25 827.6875 C394.91 827.6875 395.57 827.6875 396.25 827.6875 C396.62318359 826.44806641 396.62318359 826.44806641 397.00390625 825.18359375 C398.4306345 821.18070414 400.24323867 817.52079674 402.1875 813.75 C404.73074398 808.79091016 407.09604295 803.82860665 409.25 798.6875 C409.87204634 797.31116125 410.49665025 795.93597246 411.125 794.5625 C413.24728639 789.80147729 415.1117337 784.95462654 416.9609375 780.08203125 C417.80995019 777.84629784 418.66908854 775.61437935 419.5390625 773.38671875 C422.33728132 766.21950184 424.86799311 759.00232432 427.25 751.6875 C427.46889893 751.03950439 427.68779785 750.39150879 427.91333008 749.72387695 C433.02259745 734.59187102 437.37547062 719.34726527 440.2890625 703.640625 C441.08603354 699.38449635 442.07312921 695.19473529 443.10180664 690.98950195 C445.43608231 681.34907533 447.11381972 671.70534699 448.4375 661.875 C448.5921875 660.73949707 448.746875 659.60399414 448.90625 658.43408203 C451.66218005 636.86293825 452.63054237 615.35980694 452.5625 593.625 C452.56034485 592.37747955 452.5581897 591.12995911 452.55596924 589.84463501 C452.4845209 563.99664845 450.46226392 539.13878913 446.3125 513.625 C446.13083282 512.50682388 446.13083282 512.50682388 445.94549561 511.36605835 C444.46932261 502.42153518 442.60084767 493.71046864 440.1394043 484.98364258 C439.28460208 481.8157357 438.61113624 478.66019811 438 475.4375 C428.41503227 429.9089033 409.02318593 384.47230659 385.25 344.6875 C384.78851562 343.89730469 384.32703125 343.10710937 383.8515625 342.29296875 C382.3463264 339.73928785 380.80379266 337.21199176 379.25 334.6875 C378.64744385 333.70402588 378.64744385 333.70402588 378.03271484 332.70068359 C367.49305869 315.55441649 355.86809362 299.35962327 343.25 283.6875 C342.46882813 282.71167969 341.68765625 281.73585938 340.8828125 280.73046875 C336.53115361 275.3473613 332.03050036 270.13855922 327.3671875 265.0234375 C325.45919797 262.91831252 323.59952931 260.78136366 321.75 258.625 C318.48750083 254.87161554 314.98338893 251.40210636 311.44140625 247.9140625 C309.42322719 245.86350623 307.54686983 243.75647169 305.6875 241.5625 C302.77445377 238.16506733 299.61790323 235.28366373 296.20703125 232.39453125 C294.35019075 230.77489193 292.64602508 229.08626709 290.9375 227.3125 C287.28278706 223.60003764 283.29550476 220.37833874 279.23828125 217.1171875 C276.73900864 215.08509918 274.2920524 213.00739514 271.85864258 210.89746094 C259.92529233 200.59404089 247.14606492 191.27862064 234.1875 182.3125 C233.52709717 181.85423828 232.86669434 181.39597656 232.1862793 180.92382812 C229.55653094 179.1296325 227.28661845 177.69970615 224.25 176.6875 C224.25 176.0275 224.25 175.3675 224.25 174.6875 C223.321875 174.5225 222.39375 174.3575 221.4375 174.1875 C217.77112685 173.15178845 215.26677535 171.34578076 212.2578125 169.03515625 C206.41039851 164.70147072 200.31257907 161.1203291 193.9375 157.625 C192.2970874 156.71657349 192.2970874 156.71657349 190.62353516 155.78979492 C180.67201556 150.30767535 170.69800717 145.16189684 160.25 140.6875 C158.22667908 139.73442991 156.20583178 138.77609066 154.1875 137.8125 C148.43801031 135.14215215 142.61656495 132.9649072 136.62890625 130.89453125 C133.56954024 129.8016479 130.60647228 128.59985864 127.625 127.3125 C111.93184323 120.69065211 95.72166294 115.93010418 79.25 111.6875 C78.51265625 111.49559082 77.7753125 111.30368164 77.015625 111.10595703 C72.4386699 109.91762635 67.84991962 108.78369975 63.25 107.6875 C62.57646484 107.52540039 61.90292969 107.36330078 61.20898438 107.19628906 C37.46430128 101.53069724 13.43504233 98.6407845 -10.80444336 96.10473633 C-12.8021114 95.89348612 -14.80004256 95.68095795 -16.79190063 95.42056274 C-23.39293867 94.58422323 -29.94560779 94.5095412 -36.59375 94.484375 C-37.82381775 94.47736069 -39.0538855 94.47034637 -40.32122803 94.46311951 C-44.29750199 94.44561659 -48.2736957 94.43868251 -52.25 94.4375 C-52.92659164 94.43705814 -53.60318329 94.43661629 -54.30027771 94.43616104 C-75.26574774 94.42896996 -95.94417828 94.82441514 -116.75 97.6875 C-118.08495595 97.8662482 -119.41991703 98.04495808 -120.75488281 98.22363281 C-139.29018657 100.74058263 -157.58088803 104.22381712 -175.75 108.6875 C-177.51561279 109.11820801 -177.51561279 109.11820801 -179.31689453 109.55761719 C-207.67699908 116.56525622 -234.99324786 125.96642688 -261.75 137.6875 C-263.40743891 138.3987013 -265.06498755 139.10964696 -266.72265625 139.8203125 C-306.94058004 157.2762756 -344.49627799 180.87841633 -378.6875 208.26171875 C-380.576635 209.75808716 -382.48932879 211.22587751 -384.4375 212.64453125 C-388.26526536 215.4335116 -390.9859958 217.71178196 -393.3125 221.875 C-395.40621371 225.59558585 -397.48854148 226.70096457 -401.42578125 228.42578125 C-410.76181796 233.49391546 -418.6118656 243.46516864 -426.0625 250.875 C-426.91038086 251.71804688 -427.75826172 252.56109375 -428.63183594 253.4296875 C-433.54491388 258.35630009 -438.22487399 263.40461416 -442.75 268.6875 C-443.77146421 269.84419351 -444.79486084 270.99918378 -445.8203125 272.15234375 C-453.34580402 280.68058353 -460.36697145 289.49979443 -467.18115234 298.60400391 C-468.67373886 300.58622198 -470.18619276 302.55113197 -471.70703125 304.51171875 C-491.34168413 329.97135152 -507.24107067 358.06631333 -521.75 386.6875 C-522.32754028 387.817323 -522.32754028 387.817323 -522.91674805 388.9699707 C-523.270354 389.66695068 -523.62395996 390.36393066 -523.98828125 391.08203125 C-524.29290283 391.68120361 -524.59752441 392.28037598 -524.91137695 392.89770508 C-526.10567581 395.44658569 -527.03852705 398.06669472 -527.94140625 400.73046875 C-528.75 402.6875 -528.75 402.6875 -530.19140625 405.01171875 C-531.95169626 408.03377051 -533.01053061 410.99901047 -534.125 414.3125 C-535.57133656 418.61215357 -537.18071295 422.67602992 -539.10546875 426.78515625 C-542.06742671 433.21262702 -544.40226045 439.8067455 -546.6875 446.5 C-546.90343811 447.12901215 -547.11937622 447.75802429 -547.34185791 448.40609741 C-551.32544316 460.03739567 -554.72987953 471.77053573 -557.75 483.6875 C-558.10717217 485.05492309 -558.46518806 486.4221262 -558.82421875 487.7890625 C-559.84365972 491.74594403 -560.81028083 495.7111377 -561.75 499.6875 C-562.02577881 500.83702148 -562.02577881 500.83702148 -562.30712891 502.00976562 C-568.31968215 527.33945795 -573.08017267 553.68035537 -574.75 579.6875 C-574.80494629 580.48929688 -574.85989258 581.29109375 -574.91650391 582.1171875 C-581.31348904 680.24203319 -561.87874065 777.78913931 -517.75 865.6875 C-517.255 866.67476074 -516.76 867.66202148 -516.25 868.67919922 C-496.88159518 907.06924381 -472.47724495 942.2419829 -444.625 974.9375 C-444.19493652 975.44321533 -443.76487305 975.94893066 -443.32177734 976.4699707 C-434.2243925 987.04572235 -424.56759634 997.05644144 -414.70703125 1006.91577148 C-412.74709918 1008.87790408 -410.79534704 1010.84794057 -408.84375 1012.81835938 C-402.49054601 1019.19924224 -396.11972358 1025.304744 -389.03173828 1030.87329102 C-386.80458573 1032.64409891 -384.71074182 1034.50338507 -382.625 1036.4375 C-376.36251819 1042.07148901 -369.55294072 1047.02923992 -362.83642578 1052.10205078 C-360.94082269 1053.54249619 -359.05871555 1054.99788998 -357.18359375 1056.46484375 C-350.87326328 1061.4012487 -344.45847149 1066.08459639 -337.71630859 1070.42236328 C-336.22232992 1071.38359962 -334.73092513 1072.34883775 -333.24072266 1073.31591797 C-330.37303324 1075.17556501 -327.49979227 1077.02635451 -324.625 1078.875 C-323.70662354 1079.46958008 -322.78824707 1080.06416016 -321.84204102 1080.67675781 C-315.98293203 1084.42079197 -310.0352327 1087.71319256 -303.75 1090.6875 C-303.75 1091.3475 -303.75 1092.0075 -303.75 1092.6875 C-303.08613281 1092.94273438 -302.42226563 1093.19796875 -301.73828125 1093.4609375 C-298.08031847 1094.96237582 -294.51423917 1096.62852328 -290.9375 1098.3125 C-290.24462891 1098.63734375 -289.55175781 1098.9621875 -288.83789062 1099.296875 C-287.14133977 1100.09249885 -285.44558835 1100.88982699 -283.75 1101.6875 C-283.75 1102.3475 -283.75 1103.0075 -283.75 1103.6875 C-282.88246094 1103.95691406 -282.01492188 1104.22632813 -281.12109375 1104.50390625 C-277.84296656 1105.65485937 -274.89660019 1107.03229123 -271.8125 1108.625 C-267.50330674 1110.81674485 -263.21276193 1112.83503278 -258.75 1114.6875 C-257.37434513 1115.31105728 -255.99940357 1115.93618951 -254.625 1116.5625 C-250.92114895 1118.21915447 -247.17025495 1119.69053752 -243.375 1121.125 C-239.18702214 1122.7095085 -235.11299759 1124.40469845 -231.0625 1126.3125 C-226.80357013 1128.29339761 -222.58229871 1129.74354262 -218.06640625 1131.015625 C-213.58783483 1132.31463728 -209.26456346 1134.10545702 -204.9140625 1135.77734375 C-189.60320609 1141.46890914 -173.66692731 1145.33001923 -157.81040955 1149.18525696 C-155.84008862 1149.6655401 -153.87117906 1150.15160215 -151.90234375 1150.63793945 C-141.68444234 1153.1295148 -131.44309951 1155.07609532 -121.0625 1156.75 C-119.88587799 1156.94184875 -119.88587799 1156.94184875 -118.68548584 1157.13757324 C-114.04367734 1157.89436811 -109.40003859 1158.63867012 -104.7543335 1159.37115479 C-102.98381095 1159.65059747 -101.21378964 1159.93321198 -99.44384766 1160.21630859 C-13.66207701 1173.75463616 78.96184613 1161.7688431 298.75 1060.171875 C301.60957809 1058.04208507 304.4355738 1055.87649815 307.25 1053.6875 C308.82890761 1052.48056561 310.40782373 1051.27364228 311.98706055 1050.06713867 C314.17998809 1048.3873869 316.36485096 1046.69736645 318.54833984 1045.00537109 C319.70643948 1044.10846696 320.865664 1043.21301383 322.02587891 1042.31884766 C328.91684038 1037.00392117 335.63087522 1031.60899758 342.04296875 1025.71484375 C343.97829285 1023.93708586 345.94403016 1022.21173748 347.9375 1020.5 C360.61974894 1009.43185547 373.32076663 997.83584077 384.2265625 984.98828125 C385.91512878 983.06827056 387.63706783 981.20783738 389.3984375 979.35546875 C396.69098867 971.68498686 403.4681921 963.85218775 409.88916016 955.44238281 C411.26773056 953.66463541 412.67902682 951.91920376 414.10546875 950.1796875 C425.19032776 936.65037098 434.99681858 922.25651076 444.5625 907.625 C445.11993896 906.77397705 445.67737793 905.9229541 446.25170898 905.04614258 C446.76290283 904.25618896 447.27409668 903.46623535 447.80078125 902.65234375 C448.47620972 901.61001587 448.47620972 901.61001587 449.1652832 900.54663086 C450.40216093 898.57260231 450.40216093 898.57260231 451.25 895.6875 C451.91 895.6875 452.57 895.6875 453.25 895.6875 C453.58 894.0375 453.91 892.3875 454.25 890.6875 C454.91 890.6875 455.57 890.6875 456.25 890.6875 C456.58 889.0375 456.91 887.3875 457.25 885.6875 C457.91 885.6875 458.57 885.6875 459.25 885.6875 C459.48589844 884.86636719 459.72179688 884.04523437 459.96484375 883.19921875 C461.50069365 879.00247389 463.57901566 875.35745153 465.8125 871.5 C469.99720518 864.14206594 473.75782106 856.6597797 477.29321289 848.9699707 C479.09523805 845.06032853 480.98181301 841.35506552 483.25 837.6875 C483.99477859 836.00365276 484.7368808 834.31826968 485.44140625 832.6171875 C486.29549558 830.57892601 487.20803036 828.57320451 488.125 826.5625 C490.20447301 821.90542927 492.0174425 817.16104176 493.80859375 812.38671875 C495.02855566 809.25581379 496.31689031 806.17308956 497.6328125 803.08203125 C500.29682423 796.71259895 502.53687297 790.24553201 504.6875 783.6875 C505.27217041 781.91330688 505.27217041 781.91330688 505.86865234 780.10327148 C518.42236567 741.7965564 527.55203297 702.75777288 532.25 662.6875 C532.39566406 661.4593457 532.54132813 660.23119141 532.69140625 658.96582031 C541.98997094 578.10600441 533.3622906 496.11690797 414.07104492 238.97705078 C410.80676674 234.87296166 407.5318564 230.77754144 404.25 226.6875 C403.47011719 225.71039063 402.69023438 224.73328125 401.88671875 223.7265625 C397.13741174 217.84465522 392.17334784 212.2358389 387.0234375 206.70703125 C384.97511695 204.50153632 382.99767482 202.24530832 381.03271484 199.96533203 C377.48157364 195.90141691 373.76495719 192.04122884 369.953125 188.22265625 C369.2788446 187.54504745 368.60456421 186.86743866 367.90985107 186.16929626 C366.49263926 184.74705939 365.07410433 183.32613981 363.65429688 181.90649414 C361.51402078 179.76403508 359.38188019 177.6137001 357.25 175.46289062 C350.59926163 168.78545606 343.97211588 162.31497899 336.53662109 156.5065918 C334.12316905 154.58660128 331.87561129 152.54489749 329.625 150.4375 C323.20078238 144.5852318 316.22483172 139.45765257 309.28955078 134.23486328 C307.49025617 132.86977718 305.707389 131.48779325 303.93359375 130.08984375 C273.11201125 105.27055373 273.11201125 105.27055373 238.25 87.6875 C238.25 87.0275 238.25 86.3675 238.25 85.6875 C237.38157471 85.4188916 236.51314941 85.1502832 235.6184082 84.87353516 C232.33569256 83.71767283 229.42818706 82.33830224 226.35546875 80.7109375 C225.24300781 80.12618652 224.13054688 79.54143555 222.984375 78.93896484 C222.40494141 78.63222839 221.82550781 78.32549194 221.22851562 78.00946045 C218.20440947 76.41053027 215.17098167 74.82955114 212.13671875 73.25 C211.53959076 72.93912445 210.94246277 72.6282489 210.32723999 72.30795288 C200.43605103 67.17352615 190.45756185 62.13455844 179.83984375 58.671875 C177.64392081 57.83722556 175.67202475 56.90588517 173.58984375 55.83203125 C134.33802991 35.89300575 87.31403585 26.23255064 44.25 18.6875 C43.34008301 18.52556152 42.43016602 18.36362305 41.49267578 18.19677734 C15.18242554 13.59751641 -12.08953879 11.57647493 -38.7734375 11.484375 C-40.16010571 11.47730752 -41.54677359 11.47017486 -42.93344116 11.46298218 C-47.33063304 11.44349916 -51.72776898 11.43829065 -56.125 11.4375 C-56.87517899 11.43720543 -57.62535797 11.43691086 -58.39826965 11.43660736 C-80.65746594 11.43519583 -102.65299167 11.64444503 -124.75 14.6875 C-126.27109838 14.88864146 -127.79226028 15.08930297 -129.31347656 15.28955078 C-172.08800721 20.99119048 -213.7990204 30.94179516 -254.43896484 45.50439453 C-257.48109049 46.59141273 -260.52977245 47.65669225 -263.58203125 48.71484375 C-291.98482077 58.65809716 -319.56533592 71.82919335 -346 86.1875 C-346.86197998 86.65534912 -347.72395996 87.12319824 -348.61206055 87.60522461 C-353.47790976 90.29562831 -358.10943443 93.2118514 -362.70849609 96.33447266 C-365.36749226 98.09674923 -368.13089473 99.61095809 -370.9375 101.125 C-381.33621634 106.90891878 -391.00193093 113.88713286 -400.75 120.6875 C-401.45253906 121.17573242 -402.15507812 121.66396484 -402.87890625 122.16699219 C-411.7599584 128.35363888 -420.30708487 134.9193781 -428.75 141.6875 C-429.40291016 142.20747559 -430.05582031 142.72745117 -430.72851562 143.26318359 C-438.80167237 149.69732697 -446.6542602 156.2638257 -454.19140625 163.3203125 C-456.32658048 165.29575614 -458.49777701 167.16203367 -460.75 169 C-462.99716112 170.87621826 -464.01351868 172.10912989 -465.625 174.6875 C-467.69953186 177.61625085 -468.87720302 178.5441083 -471.84375 180.3515625 C-476.98746025 183.69275838 -481.1142946 187.67693877 -485.375 192.0625 C-486.44234375 193.13757813 -486.44234375 193.13757813 -487.53125 194.234375 C-491.5648486 198.32707395 -495.42708104 202.5299423 -499.18212891 206.87890625 C-501.28006396 209.29894718 -503.45181007 211.64754019 -505.625 214 C-509.66402153 218.43381311 -513.52506878 222.96804584 -517.2890625 227.63671875 C-519.08280236 229.86038674 -520.88872383 232.06948478 -522.7109375 234.26953125 C-535.73013258 250.03940138 -547.64837107 266.51771702 -558.75 283.6875 C-559.49612549 284.83968018 -559.49612549 284.83968018 -560.25732422 286.01513672 C-565.99809796 294.9130594 -571.54790903 303.9105135 -576.875 313.0625 C-577.56734741 314.24863892 -577.56734741 314.24863892 -578.27368164 315.45874023 C-580.38417166 319.12457915 -582.33084077 322.68515205 -583.75 326.6875 C-584.41 326.6875 -585.07 326.6875 -585.75 326.6875 C-586.03875 327.574375 -586.3275 328.46125 -586.625 329.375 C-587.58148748 332.19132424 -588.61798946 334.93833156 -589.75 337.6875 C-590.41 337.6875 -591.07 337.6875 -591.75 337.6875 C-592.12125 338.925 -592.12125 338.925 -592.5 340.1875 C-593.69475569 343.53281593 -595.13135492 346.53938839 -596.74609375 349.69140625 C-598.62398403 353.42526591 -600.20107697 357.27977804 -601.71875 361.171875 C-602.0590625 362.04328125 -602.399375 362.9146875 -602.75 363.8125 C-603.2140625 365.02292969 -603.2140625 365.02292969 -603.6875 366.2578125 C-604.75 368.6875 -604.75 368.6875 -606.2578125 371.171875 C-607.75145473 373.68995247 -608.69107209 376.04377566 -609.625 378.8125 C-610.95071036 382.58876588 -612.40632547 386.19887663 -614.125 389.8125 C-616.59648653 395.12581813 -618.54300015 400.55161909 -620.44873047 406.08544922 C-621.88845188 410.26330236 -623.39550945 414.39918644 -625.00268555 418.51538086 C-628.61310918 427.80151782 -631.33765012 437.28336719 -633.96972656 446.88647461 C-634.52596619 448.88326349 -635.09728352 450.87587792 -635.67871094 452.86547852 C-638.33871407 461.97371849 -640.60563888 471.13555963 -642.75 480.375 C-643.01095963 481.49359909 -643.01095963 481.49359909 -643.27719116 482.63479614 C-653.94651716 528.37822347 -659.24252687 574.09946676 -659.24899673 621.09867096 C-659.24997877 623.26565402 -659.25600646 625.43257662 -659.26278687 627.59954834 C-659.43692621 709.85673939 -641.43641655 792.30200734 -608.75 867.6875 C-608.12617432 869.13237793 -608.12617432 869.13237793 -607.48974609 870.60644531 C-605.35500897 875.51982853 -603.15567393 880.3986823 -600.88769531 885.25195312 C-600.09021139 886.9591848 -599.29836943 888.669058 -598.51074219 890.38085938 C-591.65616078 905.26421043 -583.99756059 919.53343536 -575.75 933.6875 C-574.83958799 935.26417526 -573.929417 936.84098973 -573.01953125 938.41796875 C-556.61512805 966.71525096 -537.68701569 993.56845136 -516.75 1018.6875 C-516.26934082 1019.26725586 -515.78868164 1019.84701172 -515.29345703 1020.44433594 C-509.53117329 1027.38612753 -503.59746279 1034.13217574 -497.453125 1040.73828125 C-496.05501386 1042.24451367 -494.6868132 1043.76179122 -493.35522461 1045.32739258 C-487.81271724 1051.84345492 -481.75334847 1057.83503421 -475.69848633 1063.86938477 C-473.81671726 1065.74579475 -471.94035262 1067.62748969 -470.06445312 1069.50976562 C-464.64143781 1074.9357458 -459.23356076 1080.31973414 -453.38549805 1085.29272461 C-450.8870562 1087.42343043 -448.51775665 1089.68954995 -446.125 1091.9375 C-440.16516137 1097.4650337 -433.8415112 1102.45114344 -427.40429688 1107.40625 C-423.47794979 1110.44719886 -419.62210223 1113.57808458 -415.75 1116.6875 C-417.73 1119.6575 -419.71 1122.6275 -421.75 1125.6875 C-427.37200634 1123.43869746 -427.37200634 1123.43869746 -429.9140625 1121.18359375 C-430.75251709 1120.45064087 -430.75251709 1120.45064087 -431.60791016 1119.70288086 C-432.48261963 1118.92182983 -432.48261963 1118.92182983 -433.375 1118.125 C-434.62404729 1117.03016214 -435.87405715 1115.93642152 -437.125 1114.84375 C-437.73988281 1114.30492187 -438.35476563 1113.76609375 -438.98828125 1113.2109375 C-441.40323069 1111.12262202 -443.88495683 1109.12282533 -446.375 1107.125 C-451.34655763 1103.09064322 -456.04777522 1098.82271916 -460.73046875 1094.4609375 C-462.938758 1092.40987565 -465.19827341 1090.43037839 -467.48144531 1088.46313477 C-471.49691571 1084.95445519 -475.30305045 1081.27965215 -479.06640625 1077.50390625 C-479.72656235 1076.84470688 -480.38671844 1076.18550751 -481.06687927 1075.5063324 C-482.45035506 1074.12353165 -483.83259083 1072.73948924 -485.21362305 1071.35424805 C-487.30731669 1069.25519657 -489.40629874 1067.1615406 -491.50585938 1065.06835938 C-492.85969571 1063.71386214 -494.21322175 1062.35905469 -495.56640625 1061.00390625 C-496.18326797 1060.38906876 -496.8001297 1059.77423126 -497.4356842 1059.14076233 C-501.1931644 1055.36335226 -504.76273245 1051.4667348 -508.24317932 1047.43243408 C-510.16317364 1045.20903512 -512.1429561 1043.04309783 -514.125 1040.875 C-517.96806298 1036.61139983 -521.64322734 1032.24197727 -525.25 1027.77734375 C-527.07003572 1025.52789335 -528.90218882 1023.29276208 -530.75 1021.06640625 C-538.2513096 1011.99351343 -545.28659028 1002.6660359 -552.07763672 993.05126953 C-553.78319115 990.64058661 -555.50234932 988.24001521 -557.22265625 985.83984375 C-569.70097436 968.33628146 -580.78690854 950.06373 -591.27929688 931.31152344 C-592.24679569 929.58531539 -593.21932089 927.86191325 -594.19726562 926.14160156 C-633.63827454 856.73289779 -656.7713229 779.01142443 -672.0625 623.8125 C-672.06001251 622.61227203 -672.05752502 621.41204407 -672.05496216 620.17544556 C-671.81960307 545.90895367 -659.61164184 471.20264227 -632.75 401.6875 C-632.35039063 400.61886719 -631.95078125 399.55023437 -631.5390625 398.44921875 C-628.86720608 391.39300732 -625.92949334 384.52759423 -622.75 377.6875 C-621.72931679 375.41347784 -620.71952458 373.13487555 -619.7109375 370.85546875 C-619.07416917 369.41885727 -618.43358644 367.98393 -617.7890625 366.55078125 C-615.89718563 362.33567958 -614.10528169 358.09674379 -612.375 353.8125 C-610.34507774 348.91970867 -608.0261567 344.31700479 -605.4375 339.69921875 C-603.39366806 336.05154646 -601.41084716 332.37364703 -599.4375 328.6875 C-599.08776123 328.03998779 -598.73802246 327.39247559 -598.37768555 326.7253418 C-596.95423461 324.06746186 -595.70561967 321.55435902 -594.75 318.6875 C-594.09 318.6875 -593.43 318.6875 -592.75 318.6875 C-592.49347656 317.82511719 -592.23695313 316.96273438 -591.97265625 316.07421875 C-590.70889062 312.57362832 -589.11640937 309.67726407 -587.1875 306.5 C-584.61936682 302.25576372 -584.61936682 302.25576372 -582.75 297.6875 C-582.09 297.6875 -581.43 297.6875 -580.75 297.6875 C-580.65332031 296.78515625 -580.55664062 295.8828125 -580.45703125 294.953125 C-579.68826962 291.40238066 -578.82355753 290.10514196 -576.4375 287.4375 C-572.54698309 282.81620621 -569.18826679 277.98696722 -565.875 272.9375 C-558.04885933 261.05763711 -549.81026702 249.56634203 -541.05175781 238.35693359 C-539.69245905 236.61370686 -538.34208443 234.8637958 -536.9921875 233.11328125 C-531.51125797 226.03513955 -525.81185823 219.28150609 -519.75 212.6875 C-518.57865335 211.3582762 -517.41175407 210.02511593 -516.25 208.6875 C-487.14035588 175.33408088 -487.14035588 175.33408088 -470.89453125 161.55078125 C-468.58819329 159.54691384 -466.3577611 157.47496281 -464.12573242 155.38916016 C-458.8082604 150.42311036 -453.41339123 145.63673357 -447.734375 141.08203125 C-445.51972458 139.30509315 -443.32507619 137.51254198 -441.140625 135.69921875 C-427.43750342 124.36315649 -413.02712262 114.12458233 -398.29370117 104.17578125 C-392.44874721 100.21923625 -386.63812163 96.20534963 -381.3125 91.5625 C-379.05716064 89.91225169 -377.27517407 88.99362409 -374.73046875 87.93359375 C-369.42587705 85.61758679 -364.50000577 82.77920027 -359.5 79.875 C-314.0641679 53.91591044 -266.1823937 33.706837 -215.75 19.6875 C-214.70634277 19.39584961 -213.66268555 19.10419922 -212.58740234 18.80371094 C-194.5437492 13.84118379 -176.13407206 10.43821545 -157.74169922 7.05596924 C-155.96736662 6.72771336 -154.19450863 6.39150934 -152.421875 6.05419922 C-102.46808567 -3.38647228 -50.55134626 -3.43315411 0 0 Z " fill="#DC53CE" transform="translate(790.75,141.3125)"/>
<path d="M0 0 C0.33 0 0.66 0 1 0 C1 241.56 1 483.12 1 732 C-240.56 732 -482.12 732 -731 732 C-731 731.67 -731 731.34 -731 731 C-729.83243164 730.9498877 -728.66486328 730.89977539 -727.46191406 730.84814453 C-723.02578065 730.65622246 -718.59000836 730.45679013 -714.15429688 730.25537109 C-712.25399363 730.17006831 -710.35360421 730.08665905 -708.453125 730.00537109 C-695.94549978 729.46876217 -683.53124072 728.59997416 -671.08648682 727.22967529 C-669.28799973 727.0317023 -667.48856046 726.84241443 -665.68896484 726.65478516 C-637.94649378 723.73833077 -610.19523887 719.20821544 -583 713 C-581.97519531 712.76812988 -580.95039062 712.53625977 -579.89453125 712.29736328 C-566.47240327 709.23814806 -553.24167048 705.77744893 -540.10546875 701.65966797 C-537.15850499 700.73634978 -534.20375177 699.83882867 -531.25 698.9375 C-530.23550781 698.62296875 -529.22101563 698.3084375 -528.17578125 697.984375 C-525.90424848 697.28028366 -523.63055488 696.58314854 -521.35546875 695.890625 C-464.04351458 678.36775974 -407.84804192 652.75253267 -357 621 C-356.10055664 620.43925781 -355.20111328 619.87851563 -354.27441406 619.30078125 C-326.18595136 601.73216047 -299.46424318 582.48451983 -273.83349609 561.49707031 C-272.20305961 560.16580047 -270.56495181 558.84393831 -268.92578125 557.5234375 C-263.28792707 552.9713327 -257.87664833 548.23300382 -252.54296875 543.328125 C-250.42932946 541.39305738 -248.29340152 539.49791703 -246.125 537.625 C-235.8477457 528.6696013 -226.06003313 519.22422854 -216.44091797 509.57128906 C-214.60889005 507.7338424 -212.77149395 505.9018835 -210.93359375 504.0703125 C-205.07384011 498.21386744 -199.36642769 492.31734428 -194 486 C-192.38032183 484.22429779 -190.75588282 482.45291693 -189.125 480.6875 C-185.03119791 476.19851943 -181.14530333 471.58756524 -177.33203125 466.859375 C-175.295441 464.36224927 -173.21728235 461.90827746 -171.11572266 459.46582031 C-164.66212208 451.94854084 -158.62039834 444.14949471 -152.67382812 436.22705078 C-151.58015313 434.77190153 -150.48265315 433.31961713 -149.38085938 431.87060547 C-110.62413659 380.89403327 -79.21849378 324.19414914 -55.125 264.9375 C-54.65513672 263.78411133 -54.65513672 263.78411133 -54.17578125 262.60742188 C-50.31827546 253.11014497 -46.70346591 243.55805747 -43.35498047 233.86938477 C-42.41145379 231.14417308 -41.4231256 228.44015234 -40.40429688 225.7421875 C-39.00215442 222.00574113 -37.79135384 218.25359059 -36.625 214.4375 C-35.03715316 209.24729315 -33.35715629 204.10371169 -31.609375 198.96484375 C-28.96252257 191.09943079 -26.72982777 183.15048506 -24.625 175.125 C-24.43335266 174.39667969 -24.24170532 173.66835938 -24.04425049 172.91796875 C-9.15380648 116.08613301 -2.1864386 58.62499607 0 0 Z " fill="#FFFEFE" transform="translate(1499,768)"/>
<path d="M0 0 C241.56 0 483.12 0 732 0 C732 237.93 732 475.86 732 721 C731.67 721 731.34 721 731 721 C730.92483154 719.82832275 730.84966309 718.65664551 730.7722168 717.44946289 C728.82815462 686.68941181 728.82815462 686.68941181 725.41357422 656.06738281 C724.94991349 652.62852016 724.52284764 649.18601281 724.09765625 645.7421875 C719.06815257 605.58072633 710.44412219 565.20874557 697.2800293 526.87988281 C696.2059358 523.68694092 695.25644344 520.46764556 694.3422699 517.22489929 C691.54529219 507.34387068 688.11313177 497.77121638 684.4375 488.1875 C684.13253601 487.38807983 683.82757202 486.58865967 683.5133667 485.76501465 C666.61740485 441.52907123 646.15761141 398.18174014 621 358 C620.44070801 357.10345703 619.88141602 356.20691406 619.30517578 355.28320312 C601.73561563 327.19129398 582.48670299 300.46690935 561.49707031 274.83349609 C560.16580047 273.20305961 558.84393831 271.56495181 557.5234375 269.92578125 C552.9713327 264.28792707 548.23300382 258.87664833 543.328125 253.54296875 C541.39305738 251.42932946 539.49791703 249.29340152 537.625 247.125 C528.6696013 236.8477457 519.22422854 227.06003313 509.57128906 217.44091797 C507.7338424 215.60889005 505.9018835 213.77149395 504.0703125 211.93359375 C498.21386744 206.07384011 492.31734428 200.36642769 486 195 C484.22429779 193.38032183 482.45291693 191.75588282 480.6875 190.125 C476.19851943 186.03119791 471.58756524 182.14530333 466.859375 178.33203125 C464.36224927 176.295441 461.90827746 174.21728235 459.46582031 172.11572266 C451.94854084 165.66212208 444.14949471 159.62039834 436.22705078 153.67382812 C434.77190153 152.58015313 433.31961713 151.48265315 431.87060547 150.38085938 C380.86455429 111.60172417 324.11123244 80.14610406 264.8125 56.0625 C264.04730042 55.75112091 263.28210083 55.43974182 262.49371338 55.118927 C253.03576171 51.2823405 243.52004696 47.69246316 233.8737793 44.35717773 C231.14704057 43.41260293 228.44133763 42.42350394 225.74169922 41.40405273 C222.0054134 40.00203135 218.25340695 38.79129771 214.4375 37.625 C209.25345329 36.03903774 204.11664047 34.36047134 198.984375 32.61328125 C191.01240862 29.92882319 182.94828342 27.69074362 174.8125 25.5625 C174.0784494 25.36957367 173.3443988 25.17664734 172.58810425 24.97787476 C147.87957422 18.50310219 122.93857498 13.76548722 97.74951172 9.62304688 C95.47829306 9.24564422 93.20855207 8.85897239 90.94189453 8.45507812 C81.96542195 6.8687254 72.94013798 5.91178678 63.875 5 C63.02558838 4.91351196 62.17617676 4.82702393 61.30102539 4.73791504 C40.90923744 2.68660843 20.47459355 1.76360673 0 1 C0 0.67 0 0.34 0 0 Z " fill="#FFFEFE" transform="translate(768,0)"/>
<path d="M0 0 C0.33 0 0.66 0 1 0 C1.03963867 1.06283203 1.07927734 2.12566406 1.12011719 3.22070312 C3.7597755 72.14419565 12.70847524 141.65924219 35.36523438 207.12451172 C36.28937686 209.85499731 37.11341015 212.61290223 37.9375 215.375 C54.85023028 270.63238193 80.40147785 324.99997366 111 374 C111.56074219 374.89944336 112.12148437 375.79888672 112.69921875 376.72558594 C130.26783953 404.81404864 149.51548017 431.53575682 170.50292969 457.16650391 C171.83419953 458.79694039 173.15606169 460.43504819 174.4765625 462.07421875 C179.0286673 467.71207293 183.76699618 473.12335167 188.671875 478.45703125 C190.60694262 480.57067054 192.50208297 482.70659848 194.375 484.875 C203.3303987 495.1522543 212.77577146 504.93996687 222.42871094 514.55908203 C224.2661576 516.39110995 226.0981165 518.22850605 227.9296875 520.06640625 C233.78613256 525.92615989 239.68265572 531.63357231 246 537 C247.77570221 538.61967817 249.54708307 540.24411718 251.3125 541.875 C255.80148057 545.96880209 260.41243476 549.85469667 265.140625 553.66796875 C267.63775073 555.704559 270.09172254 557.78271765 272.53417969 559.88427734 C280.05145916 566.33787792 287.85050529 572.37960166 295.77294922 578.32617188 C297.22809847 579.41984687 298.68038287 580.51734685 300.12939453 581.61914062 C367.76188297 633.03910655 446.38103176 674.08572759 528 698 C529.8868298 698.56473325 531.77354109 699.12986258 533.66015625 699.6953125 C566.64318877 709.51589279 600.18648967 717.72431365 634.27978516 722.60742188 C636.90188136 722.98583964 639.51923452 723.38790883 642.13671875 723.796875 C668.27586628 727.8112818 694.6157873 729.59475937 721 731 C721 731.33 721 731.66 721 732 C483.07 732 245.14 732 0 732 C0 490.44 0 248.88 0 0 Z " fill="#FFFEFE" transform="translate(0,768)"/>
<path d="M0 0 C237.93 0 475.86 0 721 0 C721 0.33 721 0.66 721 1 C719.82832275 1.07516846 718.65664551 1.15033691 717.44946289 1.2277832 C686.68941181 3.17184538 686.68941181 3.17184538 656.06738281 6.58642578 C652.62852016 7.05008651 649.18601281 7.47715236 645.7421875 7.90234375 C605.58072633 12.93184743 565.20874557 21.55587781 526.87988281 34.7199707 C523.68694092 35.7940642 520.46764556 36.74355656 517.22489929 37.6577301 C507.34387068 40.45470781 497.77121638 43.88686823 488.1875 47.5625 C486.98836975 48.01994598 486.98836975 48.01994598 485.76501465 48.4866333 C441.52907123 65.38259515 398.18174014 85.84238859 358 111 C356.65518555 111.83893799 356.65518555 111.83893799 355.28320312 112.69482422 C327.19129398 130.26438437 300.46690935 149.51329701 274.83349609 170.50292969 C273.20305961 171.83419953 271.56495181 173.15606169 269.92578125 174.4765625 C264.28792707 179.0286673 258.87664833 183.76699618 253.54296875 188.671875 C251.42932946 190.60694262 249.29340152 192.50208297 247.125 194.375 C236.8477457 203.3303987 227.06003313 212.77577146 217.44091797 222.42871094 C215.60889005 224.2661576 213.77149395 226.0981165 211.93359375 227.9296875 C206.07384011 233.78613256 200.36642769 239.68265572 195 246 C193.38032183 247.77570221 191.75588282 249.54708307 190.125 251.3125 C186.03119791 255.80148057 182.14530333 260.41243476 178.33203125 265.140625 C176.295441 267.63775073 174.21728235 270.09172254 172.11572266 272.53417969 C165.66212208 280.05145916 159.62039834 287.85050529 153.67382812 295.77294922 C152.58015313 297.22809847 151.48265315 298.68038287 150.38085938 300.12939453 C98.96089345 367.76188297 57.91427241 446.38103176 34 528 C33.43526675 529.8868298 32.87013742 531.77354109 32.3046875 533.66015625 C22.48410721 566.64318877 14.27568635 600.18648967 9.39257812 634.27978516 C9.01416036 636.90188136 8.61209117 639.51923452 8.203125 642.13671875 C4.1887182 668.27586628 2.40524063 694.6157873 1 721 C0.67 721 0.34 721 0 721 C0 483.07 0 245.14 0 0 Z " fill="#FFFEFE" transform="translate(0,0)"/>
</svg>
