<?xml version="1.0" encoding="UTF-8"?>
<svg version="1.1" xmlns="http://www.w3.org/2000/svg" width="100%" height="100%" viewBox="0 0 2688 1592">
<path d="M0 0 C70.29 0 140.58 0 213 0 C235.00683995 50.9632083 235.00683995 50.9632083 242 67.4375 C242.82229107 69.37168719 243.64464004 71.30584977 244.46704102 73.23999023 C250.72103431 87.95560098 256.93410373 102.68839608 263.1428833 117.42312622 C268.49809198 130.12868317 273.92056535 142.80141739 279.42919922 155.44116211 C283.21323232 164.139359 286.90629289 172.87257313 290.5625 181.625 C296.05964014 194.78267354 301.64689984 207.89948445 307.28027344 220.99951172 C310.62954544 228.78911014 313.9713055 236.58193423 317.3125 244.375 C317.87505493 245.68707932 317.87505493 245.68707932 318.44897461 247.02566528 C329.51036733 272.82983146 340.49503828 298.66672875 351.48937988 324.49951172 C354.44401861 331.44173728 357.3989857 338.38382288 360.35455322 345.32565308 C361.3257769 347.60681098 362.29692773 349.8879999 363.26800537 352.16921997 C368.10190646 363.52390002 372.94058092 374.87641512 377.8125 386.21484375 C378.19093048 387.09561584 378.56936096 387.97638794 378.95925903 388.8838501 C379.70836187 390.62718214 380.45747669 392.37050904 381.206604 394.11383057 C381.57154968 394.96314148 381.93649536 395.81245239 382.3125 396.6875 C382.67567322 397.53262146 383.03884644 398.37774292 383.4130249 399.24847412 C389.00046599 412.25799658 394.48952125 425.30653291 399.9375 438.375 C407.94338047 457.5778719 416.16609178 476.68230947 424.43972778 495.77105713 C428.79966024 505.83565067 433.12042893 515.91696375 437.4375 526 C437.81664551 526.88535431 438.19579102 527.77070862 438.58642578 528.68289185 C440.4081213 532.93685815 442.2294112 537.19099782 444.05029297 541.4453125 C446.69798688 547.63115506 449.34889107 553.81562032 452 560 C454.99888351 566.99565153 457.99672573 573.99174411 460.99165344 580.98908997 C462.84811064 585.32627054 464.7052269 589.66316877 466.5625 594 C466.94111176 594.8841861 467.31972351 595.76837219 467.70980835 596.67935181 C472.09685051 606.92251121 476.4962447 617.16016639 480.921875 627.38671875 C481.52958992 628.79105919 481.52958992 628.79105919 482.14958191 630.22377014 C482.9643225 632.10636939 483.77907567 633.9889632 484.59384155 635.87155151 C484.99599884 636.80081451 485.39815613 637.73007751 485.8125 638.6875 C486.21651031 639.62103302 486.62052063 640.55456604 487.03677368 641.51638794 C491.84378385 652.62886789 496.60097833 663.75798475 501.25 674.9375 C507.45560566 689.84994518 513.90860104 704.6530335 520.3550415 719.46264648 C528.02476701 737.08739216 535.60781706 754.74717145 543.125 772.4375 C550.08620423 788.81842499 557.07973486 805.18263764 564.1796875 821.50390625 C567.08271561 828.17927033 569.95016058 834.86960705 572.8125 841.5625 C577.45158134 852.40787813 582.1257772 863.23764875 586.8125 874.0625 C593.64349729 889.84203862 600.43070448 905.63995373 607.19508362 921.44815063 C609.42249712 926.65297759 611.65376165 931.85614292 613.88671875 937.05859375 C617.30569969 945.02469285 620.71917895 952.99313205 624.128479 960.96337891 C624.99301952 962.98368761 625.8584845 965.00359822 626.72412109 967.0234375 C628.29979279 970.70119602 629.86910552 974.38163221 631.4375 978.0625 C631.90446289 979.15119385 632.37142578 980.2398877 632.85253906 981.36157227 C633.27116211 982.34697998 633.68978516 983.3323877 634.12109375 984.34765625 C634.66914673 985.63168335 634.66914673 985.63168335 635.22827148 986.94165039 C636 989 636 989 636 991 C557.46 991 478.92 991 398 991 C394.45012517 983.90025034 391.02598559 977.01432417 388.046875 969.703125 C387.70174866 968.86698669 387.35662231 968.03084839 387.0010376 967.16937256 C385.9131525 964.53128952 384.83135433 961.89076572 383.75 959.25 C383.04339336 957.53237734 382.33636376 955.81492862 381.62890625 954.09765625 C380.54968514 951.4776781 379.47078703 948.85757178 378.39341736 946.23683167 C374.37847219 936.47361821 370.31338203 926.73140314 366.24749756 916.98931885 C364.24575168 912.19263076 362.24599383 907.39511413 360.24609375 902.59765625 C359.85624298 901.66256729 359.46639221 900.72747833 359.06472778 899.76405334 C345.15152979 866.39102799 331.25478335 833.01184013 317.56152344 799.54785156 C314.65747495 792.45399404 311.74553734 785.36417455 308.77734375 778.296875 C308.30159912 777.1632251 307.82585449 776.0295752 307.33569336 774.86157227 C306.47395416 772.81378003 305.60910981 770.76729039 304.74047852 768.72241211 C304.37237061 767.8485083 304.0042627 766.97460449 303.625 766.07421875 C303.14933594 764.95406372 303.14933594 764.95406372 302.6640625 763.8112793 C302 762 302 762 302 760 C171.32 760 40.64 760 -94 760 C-94.99 763.3 -95.98 766.6 -97 770 C-98.22023219 773.16685671 -99.46732085 776.29540752 -100.78125 779.421875 C-101.32968063 780.74385643 -101.32968063 780.74385643 -101.88919067 782.09254456 C-103.08831064 784.98025041 -104.29417497 787.86508837 -105.5 790.75 C-106.35126316 792.79690526 -107.20200228 794.84402853 -108.05224609 796.89135742 C-109.81896049 801.14439129 -111.58792218 805.39648007 -113.35839844 809.64794922 C-117.07319041 818.57375464 -120.75782824 827.51198134 -124.44396973 836.449646 C-130.86485582 852.01407298 -137.30204553 867.57176904 -143.75 883.125 C-144.10015167 883.96960785 -144.45030334 884.8142157 -144.81106567 885.68441772 C-148.4758084 894.52250311 -152.14649385 903.35806418 -155.83203125 912.1875 C-156.14246872 912.93131424 -156.45290619 913.67512848 -156.77275085 914.44148254 C-159.28429981 920.45893409 -159.28429981 920.45893409 -160.47640991 923.31307983 C-164.10994858 932.01480429 -167.71486251 940.72755125 -171.28125 949.45703125 C-171.63976547 950.33397644 -171.99828094 951.21092163 -172.36766052 952.11444092 C-174.09829335 956.3488728 -175.82558633 960.58461427 -177.54711914 964.82275391 C-178.17845279 966.37015611 -178.80987745 967.91752118 -179.44140625 969.46484375 C-179.71275391 970.13643021 -179.98410156 970.80801666 -180.26367188 971.49995422 C-182.96959845 978.11468069 -185.99377617 984.48651503 -189 991 C-266.55 991 -344.1 991 -424 991 C-424.33 990.34 -424.66 989.68 -425 989 C-423.99185942 986.60267091 -422.91542026 984.31501353 -421.75390625 981.9921875 C-418.20012362 974.66436964 -414.89905354 967.25335207 -411.71484375 959.7578125 C-411.25203003 958.66885681 -410.78921631 957.57990112 -410.31237793 956.45794678 C-408.85177088 953.01460706 -407.3946696 949.5697956 -405.9375 946.125 C-404.9126658 943.70946836 -403.88743395 941.29410539 -402.86181641 938.87890625 C-400.83407628 934.10363361 -398.80748535 929.32787624 -396.78173828 924.55175781 C-393.1641866 916.02677267 -389.52521983 907.51104112 -385.875 899 C-385.5782135 898.30770294 -385.281427 897.61540588 -384.97564697 896.90213013 C-380.2466762 885.87365352 -375.48054201 874.86145861 -370.70288086 863.85400391 C-367.09410437 855.53631583 -363.50699263 847.2096202 -359.9375 838.875 C-359.43814941 837.70904297 -358.93879883 836.54308594 -358.42431641 835.34179688 C-356.07684617 829.85800874 -353.73216458 824.37304163 -351.390625 818.88671875 C-345.16480736 804.3136344 -338.86688264 789.77275167 -332.55117798 775.23843384 C-321.73869404 750.3553798 -311.01530139 725.43540907 -300.34814453 700.48974609 C-297.18429956 693.09157255 -294.01405443 685.69614479 -290.84350586 678.30084229 C-289.46699685 675.09000799 -288.09092062 671.87898827 -286.71484375 668.66796875 C-284.57571175 663.67639692 -282.43629286 658.68494818 -280.29663086 653.69360352 C-275.78476074 643.16785494 -271.27354739 632.64183539 -266.76986694 622.11257935 C-255.73710749 596.3190038 -244.65697752 570.54774786 -233.47335815 544.81915283 C-227.11185335 530.18390318 -220.77928109 515.53725973 -214.50878906 500.86279297 C-211.09552787 492.87722296 -207.66408219 484.8997925 -204.21484375 476.9296875 C-203.59582939 475.49927376 -203.59582939 475.49927376 -202.96430969 474.03996277 C-202.12508234 472.10076863 -201.28585402 470.1615749 -200.44662476 468.22238159 C-194.83663093 455.25748856 -189.23675432 442.29279436 -183.84765625 429.23413086 C-174.16987217 405.85096955 -164.03524706 382.65101166 -153.95361328 359.43969727 C-149.45708332 349.07797742 -145.00718246 338.69654969 -140.5625 328.3125 C-133.62859756 312.11443537 -126.66742021 295.92828889 -119.6875 279.75 C-118.98019745 278.11032761 -118.98019745 278.11032761 -118.25860596 276.43753052 C-113.90661134 266.34973639 -109.55410739 256.26220323 -105.171875 246.1875 C-104.89218369 245.54439377 -104.61249237 244.90128754 -104.32432556 244.23869324 C-104.05415115 243.61747086 -103.78397675 242.99624847 -103.50561523 242.35620117 C-98.70108774 231.30720918 -93.99056427 220.22495082 -89.36087036 209.10159302 C-82.58422461 192.84182944 -75.52373158 176.70390305 -68.48486328 160.55639648 C-63.28788041 148.62660863 -58.15243295 136.67393611 -53.09674072 124.68356323 C-48.63046975 114.10004455 -44.07523128 103.55579113 -39.51095581 93.01425171 C-32.39740383 76.58095201 -25.32673766 60.13348192 -18.44482422 43.60180664 C-14.0821011 33.13869026 -9.58346626 22.73692376 -5.04663086 12.34838867 C-4.53108643 11.16607666 -4.01554199 9.98376465 -3.484375 8.765625 C-3.02772461 7.72180664 -2.57107422 6.67798828 -2.10058594 5.60253906 C-0.94364565 2.96135508 -0.94364565 2.96135508 0 0 Z M104 274 C101.86122122 279.16518013 99.72274219 284.33048388 97.58618164 289.49658203 C97.30670181 290.17234283 97.02722198 290.84810364 96.73927307 291.54434204 C96.14066057 292.99174586 95.54205868 294.43915407 94.94346619 295.88656616 C93.25495869 299.96867518 91.56499972 304.05017709 89.87304688 308.13085938 C80.42975682 330.90636727 71.06527615 353.71074562 61.84677124 376.57824707 C56.73941416 389.2472383 51.59026591 401.89543656 46.34277344 414.50708008 C42.4406615 423.89797351 38.62182669 433.32122706 34.8125 442.75 C29.36241062 456.23805202 23.83327282 469.69154415 18.25 483.125 C11.76738497 498.72377551 5.3465731 514.34526824 -1 530 C-2.96801524 534.8498174 -4.93743565 539.69906416 -6.90686035 544.54830933 C-7.71280732 546.53339277 -8.51809761 548.51874139 -9.32324219 550.50415039 C-13.18380851 560.01628638 -17.09119055 569.50717706 -21 579 C61.5 579 144 579 229 579 C228.08655194 574.43275968 226.70564838 570.50663043 224.9296875 566.24609375 C224.61684311 565.48563751 224.30399872 564.72518127 223.98167419 563.94168091 C222.95048842 561.43845804 221.91280101 558.93798669 220.875 556.4375 C220.1496389 554.68039947 219.42462751 552.92315454 218.69995117 551.16577148 C213.62414652 538.86913407 208.50149231 526.59193263 203.37445068 514.31658936 C197.10071356 499.29336013 190.95985872 484.21826876 184.85870361 469.12426758 C182.05402938 462.18604297 179.24658613 455.24893942 176.4375 448.3125 C175.96186615 447.13781158 175.96186615 447.13781158 175.47662354 445.93939209 C170.83856849 434.48851861 166.14577767 423.06205768 161.40673828 411.65258789 C157.55969211 402.38109126 153.78026198 393.08319286 150.01461792 383.7784729 C145.22427337 371.94855131 140.33978068 360.15891081 135.4375 348.375 C129.90134006 335.06711227 124.45218899 321.73041089 119.1315918 308.33496094 C114.55666905 296.83312257 109.80540827 285.40720069 105 274 C104.67 274 104.34 274 104 274 Z " fill="currentColor" transform="translate(461,475)"/>
<path d="M0 0 C4.94548924 4.63147704 7.76538229 9.9813434 10.4375 16.125 C10.85596191 17.06472656 11.27442383 18.00445313 11.70556641 18.97265625 C15.96381901 28.66564317 19.86735171 38.50445326 23.80944824 48.32879639 C35.51836878 77.47488839 47.81214974 106.5118569 61.82275391 134.63525391 C62.90902101 136.81724959 63.97890557 139.00633248 65.04296875 141.19921875 C79.81909209 171.47160821 96.95003342 200.64610484 118 227 C119.11955078 228.42892578 119.11955078 228.42892578 120.26171875 229.88671875 C133.44621343 246.12848756 148.9250162 261.87883969 166 274 C167.31947499 274.96290538 168.63846062 275.92648159 169.95703125 276.890625 C221.28868238 314.07774103 279.71078375 338.8666554 338.21966553 362.29481506 C342.02659928 363.81977627 345.83181069 365.34901551 349.637146 366.87796021 C352.36540851 367.97111454 355.09684097 369.05603354 357.82861328 370.14038086 C385.12922966 381.04416062 385.12922966 381.04416062 390.12890625 391.3203125 C392.15346652 397.54833199 392.17239277 405.3325544 389.5 411.375 C384.49061394 419.3231358 377.01297751 423.37679383 368.5625 426.875 C367.51118896 427.32423828 366.45987793 427.77347656 365.37670898 428.23632812 C362.30292953 429.54238707 359.22321417 430.83188066 356.13867188 432.11218262 C353.8401974 433.06633815 351.54308086 434.02371497 349.24609375 434.98144531 C340.46452633 438.6406538 331.67570296 442.2821566 322.8828125 445.9140625 C302.74252716 454.23453456 282.73295735 462.74689034 263 472 C261.45481689 472.72123047 261.45481689 472.72123047 259.87841797 473.45703125 C208.23574285 497.62443223 154.14317046 528.80986043 119 575 C118.23042969 575.97582031 117.46085937 576.95164062 116.66796875 577.95703125 C114.06317942 581.26859055 111.51994251 584.62353436 109 588 C108.54786133 588.60489258 108.09572266 589.20978516 107.62988281 589.83300781 C80.85321095 625.96381278 60.63065635 667.75248253 43 709 C42.70671814 709.68602295 42.41343628 710.3720459 42.11126709 711.07885742 C35.49547336 726.57311173 28.97495687 742.1064759 22.6328125 757.71484375 C22.27433228 758.59546478 21.91585205 759.47608582 21.54650879 760.38339233 C19.82326734 764.61766371 18.1066994 768.85437826 16.40332031 773.09667969 C5.52260486 800.02776901 5.52260486 800.02776901 -6 805 C-14.49039139 806.95029716 -21.41888263 805.43517668 -28.75 800.875 C-36.25080901 794.896678 -39.21441783 784.01698543 -42.6875 775.4375 C-43.21834894 774.13922167 -43.74985425 772.84121156 -44.28198242 771.54345703 C-45.35531947 768.9245949 -46.42630986 766.30479603 -47.49511719 763.68408203 C-56.07413584 742.6819095 -64.98430566 721.81785729 -74 701 C-74.42635742 700.01547852 -74.85271484 699.03095703 -75.29199219 698.01660156 C-85.81728142 673.85395612 -97.32569325 650.04361849 -110.66015625 627.30517578 C-111.84400578 625.2683851 -112.9945785 623.21910174 -114.125 621.15234375 C-132.58077988 587.66279318 -159.09114865 553.85392304 -190.16113281 531.34277344 C-192.23068445 529.83155012 -194.26726034 528.28080535 -196.3046875 526.7265625 C-212.26240667 514.64161821 -229.07542049 503.79019879 -246.68017578 494.25927734 C-249.37577204 492.7960185 -252.06032439 491.31324726 -254.74609375 489.83203125 C-289.22507274 470.92342935 -325.08942226 455.46075379 -361.4375 440.5625 C-362.26226837 440.22439301 -363.08703674 439.88628601 -363.9367981 439.53793335 C-371.60556994 436.39720971 -379.27862437 433.2716217 -386.9921875 430.2421875 C-411.60633028 420.53994451 -411.60633028 420.53994451 -417 409 C-419.53964017 401.38107948 -418.33528242 394.4634769 -414.875 387.38671875 C-409.08925011 380.02194129 -400.79268309 376.91766238 -392.3125 373.5625 C-391.04332088 373.04972519 -389.77461634 372.53577445 -388.50634766 372.02075195 C-385.06562553 370.62664434 -381.619495 369.24642295 -378.17205811 367.86901855 C-371.39935905 365.15932993 -364.63745 362.42264318 -357.875 359.6875 C-357.1004245 359.37428802 -356.325849 359.06107605 -355.52780151 358.7383728 C-329.90182977 348.36640575 -304.51072212 337.62570167 -279.72949219 325.3515625 C-277.3895371 324.19288707 -275.0443788 323.04628795 -272.6953125 321.90625 C-245.79438716 308.77081853 -219.91114276 294.05219688 -196 276 C-195.03924561 275.27683594 -195.03924561 275.27683594 -194.05908203 274.5390625 C-186.94549327 269.15319242 -180.16610512 263.53606424 -173.72900391 257.35107422 C-170.20343297 254 -170.20343297 254 -168 254 C-167.34 252.68 -166.68 251.36 -166 250 C-165.34 250 -164.68 250 -164 250 C-163.73316406 249.40316406 -163.46632813 248.80632812 -163.19140625 248.19140625 C-161.97513068 245.95425676 -160.79642741 244.65579933 -158.9375 242.9375 C-154.19023448 238.30721022 -150.09817813 233.20263039 -146 228 C-145.51225098 227.38334473 -145.02450195 226.76668945 -144.52197266 226.13134766 C-111.62207067 184.36233012 -87.26562845 135.92724045 -66.84906006 87.02746582 C-65.30230429 83.33397627 -63.73749562 79.64812028 -62.17578125 75.9609375 C-54.45871416 57.71698099 -54.45871416 57.71698099 -46.88858032 39.41174316 C-45.54342269 36.12178075 -44.19196126 32.8344197 -42.84075928 29.54693604 C-41.90225934 27.25409699 -40.97465377 24.95705796 -40.04736328 22.65966797 C-31.52498709 1.77246378 -31.52498709 1.77246378 -21 -3 C-13.58716303 -5.19272849 -6.54766406 -4.03789483 0 0 Z " fill="currentColor" transform="translate(1973,653)"/>
<path d="M0 0 C0.80572228 0.00223072 1.61144457 0.00446144 2.44158268 0.00675976 C3.29111043 0.00519977 4.14063818 0.00363978 5.01590919 0.00203252 C7.88494976 -0.00198117 10.75393813 0.00121358 13.62297916 0.00434887 C15.67073949 0.002995 17.71849958 0.00121514 19.76625919 -0.00096118 C25.34460765 -0.00553713 30.92293771 -0.0037453 36.50128651 -0.0005821 C42.32513575 0.00194067 48.14898337 -0.0003958 53.97283268 -0.00196826 C63.75498076 -0.0037902 73.53712129 -0.00138302 83.31926823 0.00337231 C94.64650578 0.00881498 105.97372533 0.00705234 117.30096245 0.00154591 C127.00707656 -0.00298453 136.71318525 -0.00363611 146.41930008 -0.00101542 C152.22475511 0.00054773 158.03020167 0.00074007 163.83565617 -0.00255191 C169.29219885 -0.00542963 174.74871822 -0.00345678 180.20525837 0.00234234 C182.21408518 0.00367048 184.22291394 0.00327493 186.23174 0.00107968 C188.96170801 -0.00162974 191.69160005 0.00174672 194.42156315 0.00675976 C195.22728543 0.00452904 196.03300772 0.00229832 196.86314583 0 C202.31742308 0.01959357 202.31742308 0.01959357 203.43157291 1.13374341 C203.52938109 2.7111694 203.55680283 4.29299693 203.55692208 5.87345231 C203.5594256 6.90750376 203.56192912 7.94155521 203.5645085 9.00694156 C203.56216733 10.15915741 203.55982617 11.31137327 203.55741405 12.49850476 C203.5588675 13.71498806 203.56032094 14.93147136 203.56181842 16.18481779 C203.5648602 19.59191033 203.56336624 22.9989485 203.56004047 26.40603738 C203.55751972 30.10111765 203.5607573 33.7961934 203.5632838 37.49127305 C203.56690854 43.97744709 203.56677795 50.46361282 203.56423664 56.94978726 C203.56046793 66.5946518 203.5623807 76.23950927 203.56544495 85.88437375 C203.57072233 103.10597624 203.57024968 120.32757502 203.56736604 137.54917786 C203.56485483 152.61969465 203.56419174 167.69021009 203.56538868 182.76072705 C203.56550326 184.25766077 203.56550326 184.25766077 203.56562015 185.78483558 C203.56593147 189.83541509 203.56624986 193.8859946 203.56657991 197.93657411 C203.56964194 235.96827038 203.56686066 273.9999643 203.56148302 312.03166021 C203.55673708 345.85312411 203.55716169 379.67458423 203.56194401 413.49604809 C203.56729354 451.45623182 203.56942482 489.41641347 203.56633174 527.37659752 C203.56601101 531.41998494 203.56569817 535.46337235 203.56538868 539.50675976 C203.5653096 540.50241419 203.56523052 541.49806861 203.56514905 542.52389438 C203.56400947 557.58843488 203.56534578 572.65297387 203.56786823 587.71751416 C203.57072074 604.83901268 203.57002712 621.96050692 203.56458749 639.0820049 C203.56164048 648.67547042 203.5614749 658.26892665 203.56523366 667.86239194 C203.5674642 674.25836818 203.56610212 680.65433693 203.56172889 687.05031205 C203.55933403 690.70256942 203.55856978 694.35480823 203.56213488 698.00706506 C203.56592322 701.92771415 203.5620984 705.84833339 203.55741405 709.76898205 C203.55975522 710.92119791 203.56209639 712.07341377 203.5645085 713.26054525 C203.56200498 714.29459671 203.55950146 715.32864816 203.55692208 716.3940345 C203.55685432 717.29210318 203.55678656 718.19017186 203.55671675 719.11545473 C203.43157291 721.13374341 203.43157291 721.13374341 202.43157291 722.13374341 C199.75317239 722.23379868 197.10048872 722.26814392 194.42156315 722.26072705 C193.5720354 722.26228704 192.72250765 722.26384703 191.84723663 722.26545429 C188.97819607 722.26946798 186.10920769 722.26627323 183.24016666 722.26313794 C181.19240634 722.26449181 179.14464625 722.26627167 177.09688663 722.268448 C171.51853818 722.27302394 165.94020812 722.27123211 160.36185932 722.26806891 C154.53801007 722.26554614 148.71416246 722.26788261 142.89031315 722.26945508 C133.10816507 722.27127701 123.32602453 722.26886983 113.5438776 722.2641145 C102.21664005 722.25867183 90.8894205 722.26043447 79.56218338 722.2659409 C69.85606926 722.27047134 60.14996058 722.27112292 50.44384575 722.26850224 C44.63839072 722.26693908 38.83294416 722.26674674 33.02748966 722.27003872 C27.57094698 722.27291644 22.11442761 722.27094359 16.65788746 722.26514447 C14.64906064 722.26381633 12.64023188 722.26421188 10.63140583 722.26640713 C7.90143781 722.26911655 5.17154578 722.26574009 2.44158268 722.26072705 C1.6358604 722.26295777 0.83013811 722.26518849 0 722.26748681 C-5.45427725 722.24789324 -5.45427725 722.24789324 -6.56842709 721.13374341 C-6.66623526 719.55631741 -6.693657 717.97448988 -6.69377625 716.3940345 C-6.69627977 715.35998305 -6.69878329 714.3259316 -6.70136267 713.26054525 C-6.6990215 712.1083294 -6.69668034 710.95611354 -6.69426823 709.76898205 C-6.69572167 708.55249875 -6.69717511 707.33601545 -6.69867259 706.08266902 C-6.70171437 702.67557648 -6.70022042 699.26853831 -6.69689464 695.86144944 C-6.69437389 692.16636916 -6.69761147 688.47129341 -6.70013797 684.77621377 C-6.70376271 678.29003972 -6.70363213 671.80387399 -6.70109081 665.31769955 C-6.6973221 655.67283501 -6.69923487 646.02797754 -6.70229912 636.38311306 C-6.7075765 619.16151057 -6.70710385 601.93991179 -6.70422021 584.71830896 C-6.701709 569.64779216 -6.70104591 554.57727672 -6.70224285 539.50675976 C-6.70231924 538.50880395 -6.70239562 537.51084813 -6.70247432 536.48265123 C-6.70278564 532.43207172 -6.70310403 528.38149221 -6.70343409 524.33091271 C-6.70649611 486.29921643 -6.70371483 448.26752251 -6.69833719 410.2358266 C-6.69359125 376.4143627 -6.69401586 342.59290258 -6.69879818 308.77143872 C-6.70414771 270.81125499 -6.70627899 232.85107334 -6.70318592 194.89088929 C-6.70286518 190.84750187 -6.70255234 186.80411446 -6.70224285 182.76072705 C-6.70216377 181.76507263 -6.7020847 180.7694182 -6.70200322 179.74359243 C-6.70086364 164.67905194 -6.70219995 149.61451294 -6.7047224 134.54997265 C-6.70757492 117.42847413 -6.7068813 100.30697989 -6.70144166 83.18548191 C-6.69849465 73.59201639 -6.69832907 63.99856016 -6.70208783 54.40509487 C-6.70431837 48.00911863 -6.70295629 41.61314988 -6.69858307 35.21717476 C-6.6961882 31.5649174 -6.69542396 27.91267858 -6.69898905 24.26042175 C-6.70277739 20.33977266 -6.69895257 16.41915342 -6.69426823 12.49850476 C-6.69660939 11.3462889 -6.69895056 10.19407305 -6.70136267 9.00694156 C-6.69885915 7.9728901 -6.69635563 6.93883865 -6.69377625 5.87345231 C-6.69370849 4.97538363 -6.69364073 4.07731495 -6.69357092 3.15203208 C-6.43216805 -1.06380853 -3.5523058 0.01276106 0 0 Z " fill="currentColor" transform="translate(1186.5684270858765,743.8662565946579)"/>
<path d="M0 0 C3.21377297 3.63611109 5.31131096 7.33318755 7.390625 11.70703125 C7.69621338 12.34473953 8.00180176 12.98244781 8.31665039 13.63948059 C8.96543495 14.99514014 9.61132693 16.35218729 10.2545166 17.71051025 C11.26103123 19.83579275 12.27531213 21.95720012 13.29199219 24.07763672 C14.61717897 26.84168642 15.94031272 29.60669961 17.26171875 32.37255859 C20.0952574 38.29496617 23.00376758 44.17699471 25.99267578 50.02246094 C26.72790953 51.46584274 27.45724816 52.91223179 28.18310547 54.36035156 C36.81866634 71.56567855 46.381388 88.36354689 59 103 C59.51046875 103.65355469 60.0209375 104.30710937 60.546875 104.98046875 C66.02583239 111.77491838 73.0063515 116.87316729 80 122 C80.55091309 122.40444336 81.10182617 122.80888672 81.66943359 123.22558594 C94.33415126 132.37465416 108.28236895 139.58249763 122 147 C123.46107178 147.79253174 123.46107178 147.79253174 124.95166016 148.60107422 C135.19774162 154.13719018 145.50401049 159.34032021 156.25561523 163.83349609 C164.71331649 167.46367745 172.33942919 172.20837267 176 181 C177.77622715 187.37352097 176.98029993 192.46072305 174.69140625 198.578125 C170.01947672 205.26772386 162.08947766 208.72954976 154.9375 212.1875 C153.98359375 212.65744385 153.0296875 213.1273877 152.046875 213.61157227 C146.17761338 216.4920179 140.27303104 219.29504769 134.36035156 222.08496094 C111.09598713 233.08569318 88.57305563 245.11661923 69 262 C68.0203125 262.77730469 67.040625 263.55460937 66.03125 264.35546875 C62.81579844 267.03586344 60.29030379 270.06166237 57.75 273.375 C57.27747803 273.98657959 56.80495605 274.59815918 56.31811523 275.22827148 C36.91571417 300.64797536 21.99101948 330.03543036 9.4375 359.375 C5.84886556 367.7346569 2.26947298 375.56992519 -6 380 C-12.03954907 382.29086344 -18.20347627 381.25973531 -24.04296875 379.046875 C-29.37243862 376.19598094 -31.99520491 372.82122812 -34.75 367.5 C-35.08797607 366.849104 -35.42595215 366.19820801 -35.77416992 365.52758789 C-38.89451783 359.41914051 -41.66127657 353.15694046 -44.44360352 346.88964844 C-75.22353951 277.86679386 -113.28068112 245.45295176 -180.50390625 213.62109375 C-182.33601144 212.74755089 -184.16804432 211.87385635 -186 211 C-187.38227783 210.35140015 -187.38227783 210.35140015 -188.79248047 209.68969727 C-196.06361082 206.19761502 -200.83016548 202.43400966 -204.4375 195.0625 C-205.73943368 187.97419441 -205.53671688 182.46365499 -202 176 C-198.58917412 171.3920765 -195.90286331 169.03538652 -190.625 166.5625 C-189.95927979 166.2430542 -189.29355957 165.9236084 -188.60766602 165.59448242 C-186.07805476 164.38273693 -183.53879758 163.19238006 -181 162 C-151.85800062 148.18688437 -122.64746951 134.15795322 -98 113 C-96.453125 111.824375 -96.453125 111.824375 -94.875 110.625 C-84.10995927 100.79604977 -75.67151411 87.66581982 -68.4375 75.125 C-67.84598145 74.10325684 -67.25446289 73.08151367 -66.64501953 72.02880859 C-56.11385664 53.64005449 -46.51025359 34.76629137 -37.94287109 15.38525391 C-34.39044395 7.4431057 -31.0512502 0.18045683 -23 -4 C-14.20382445 -7.15550536 -7.33097498 -5.83145737 0 0 Z " fill="currentColor" transform="translate(2482,329)"/>
<path d="M0 0 C7.1709602 5.67607351 10.66334429 15.04380914 14.47033691 23.13043213 C15.38622687 25.07559192 16.31053846 27.01654362 17.23730469 28.95654297 C18.4534926 31.50247419 19.66753742 34.04940498 20.87988281 36.59716797 C23.98830438 43.1048961 27.20646019 49.55297478 30.4921875 55.97265625 C30.87294434 56.72160156 31.25370117 57.47054687 31.64599609 58.2421875 C37.06391974 68.86775497 42.74118111 79.1344206 49.4921875 88.97265625 C49.89969238 89.56949219 50.30719727 90.16632813 50.72705078 90.78125 C58.77941264 102.50504272 67.16912528 112.25656814 78.4921875 120.97265625 C79.28753906 121.59527344 80.08289062 122.21789062 80.90234375 122.859375 C100.59531044 137.74613429 122.84730569 149.45085726 145.09667969 159.9777832 C151.1419292 162.84037454 157.16618898 165.73063822 163.1171875 168.78515625 C164.13752075 169.29006592 164.13752075 169.29006592 165.1784668 169.80517578 C172.04304725 173.387533 176.12325236 178.49180844 178.4921875 185.97265625 C179.41040047 192.81446263 178.60192259 198.35929015 174.4921875 203.97265625 C168.85109872 209.18240317 162.02609284 212.46252286 155.1796875 215.78515625 C154.12442871 216.30577637 153.06916992 216.82639648 151.98193359 217.36279297 C146.32927117 220.14093112 140.64791114 222.8518391 134.93994141 225.51416016 C113.72404119 235.41075099 88.26429678 247.41837305 71.9152832 264.63305664 C70.4921875 265.97265625 70.4921875 265.97265625 68.4921875 265.97265625 C68.4921875 266.63265625 68.4921875 267.29265625 68.4921875 267.97265625 C67.8321875 267.97265625 67.1721875 267.97265625 66.4921875 267.97265625 C66.22962158 268.5555542 65.96705566 269.13845215 65.6965332 269.73901367 C64.43249607 272.08336311 63.02725452 273.75871556 61.22265625 275.7109375 C57.70614859 279.64917159 54.70277637 283.7530418 51.8046875 288.16015625 C51.29631348 288.9291626 50.78793945 289.69816895 50.26416016 290.49047852 C44.2357583 299.73322499 38.80688647 309.30653591 33.4921875 318.97265625 C33.06728027 319.74125977 32.64237305 320.50986328 32.20458984 321.30175781 C25.98039741 332.62519945 20.47360404 344.25629329 15.13305664 356.01586914 C5.37092555 377.41447269 5.37092555 377.41447269 -0.5078125 380.97265625 C-1.37599609 381.50052734 -1.37599609 381.50052734 -2.26171875 382.0390625 C-7.43968484 384.19129536 -14.37427682 383.90379585 -19.703125 382.3203125 C-31.28778055 376.26823908 -35.9372458 361.71780465 -40.97265625 350.5078125 C-59.70204988 308.18784314 -59.70204988 308.18784314 -87.7890625 271.75 C-89.5078125 269.97265625 -89.5078125 269.97265625 -89.5078125 267.97265625 C-90.1678125 267.97265625 -90.8278125 267.97265625 -91.5078125 267.97265625 C-91.5078125 267.31265625 -91.5078125 266.65265625 -91.5078125 265.97265625 C-92.09071045 265.71009033 -92.6736084 265.44752441 -93.27416992 265.17700195 C-95.61851936 263.91296482 -97.29387181 262.50772327 -99.24609375 260.703125 C-103.1842082 257.18672417 -107.28776646 254.1824138 -111.6953125 251.28515625 C-112.86078613 250.51715698 -112.86078613 250.51715698 -114.04980469 249.73364258 C-134.47913944 236.43994196 -156.35504844 225.46011289 -178.4375 215.1953125 C-179.30745605 214.79078857 -180.17741211 214.38626465 -181.07373047 213.96948242 C-182.62826571 213.2530241 -184.1868505 212.54524557 -185.75048828 211.84887695 C-192.40030034 208.80790959 -197.73604649 205.12826964 -200.8125 198.27734375 C-202.57306826 192.44175231 -202.44426801 186.33520555 -200.0078125 180.72265625 C-194.7259566 172.10606433 -186.50413759 168.16798044 -177.51266479 164.20553589 C-174.15474046 162.72243989 -170.82086642 161.18680672 -167.484375 159.65625 C-166.80948532 159.34774612 -166.13459564 159.03924225 -165.43925476 158.72138977 C-115.38462114 135.75139956 -82.02365511 108.38086564 -55.68212891 60.1171875 C-54.64856913 58.22970536 -53.60226203 56.35018381 -52.55078125 54.47265625 C-47.26827377 44.86405318 -42.70458833 34.93210206 -38.1628418 24.95751953 C-27.83541112 2.37264983 -27.83541112 2.37264983 -17.60546875 -2.29296875 C-10.95171566 -4.62240186 -6.11567401 -2.79716893 0 0 Z " fill="currentColor" transform="translate(1970.5078125,111.02734375)"/>
<path d="M0 0 C0.84949219 0.74636719 1.69898438 1.49273437 2.57421875 2.26171875 C3.39277344 2.93589844 4.21132812 3.61007812 5.0546875 4.3046875 C17.40687971 14.77164846 26.37893976 27.87485066 33.57421875 42.26171875 C34.13882812 43.38964844 34.7034375 44.51757812 35.28515625 45.6796875 C48.63791987 74.58808183 49.68793113 109.55680602 39.08203125 139.4375 C26.38047144 172.41171176 3.10266845 198.29849463 -29.109375 212.98046875 C-65.35515186 228.27470398 -103.93189181 227.17725933 -140.1340332 212.55615234 C-151.98493611 207.51564443 -164.18734395 200.32249379 -173.42578125 191.26171875 C-173.42578125 190.60171875 -173.42578125 189.94171875 -173.42578125 189.26171875 C-174.28816406 188.89820313 -174.28816406 188.89820313 -175.16796875 188.52734375 C-194.48334736 177.70003809 -205.81553495 147.10050459 -211.42578125 127.26171875 C-216.82380539 106.50076043 -215.9809966 83.86095765 -210.42578125 63.26171875 C-210.25449707 62.60204102 -210.08321289 61.94236328 -209.90673828 61.26269531 C-205.60750891 45.19737136 -197.11937831 29.92896628 -186.42578125 17.26171875 C-185.18054687 15.77285156 -185.18054687 15.77285156 -183.91015625 14.25390625 C-162.93579719 -10.07946045 -132.05920884 -24.56052609 -100.41015625 -28.4609375 C-64.59209028 -30.95415582 -27.88569866 -23.97762994 0 0 Z " fill="currentColor" transform="translate(1369.42578125,477.73828125)"/>
<path d="M0 0 C59.4 0 118.8 0 180 0 C180 0.33 180 0.66 180 1 C135.48863098 1.60060463 90.97901457 2.1063176 46.46308899 2.12338257 C43.68506521 2.12500142 40.9070496 2.12855925 38.12902832 2.13256836 C33.77192136 2.13837338 29.41484955 2.13868543 25.05774117 2.13431931 C23.46177756 2.133326 21.8658121 2.13390215 20.26984978 2.13615799 C18.09742488 2.13869553 15.92510277 2.13493089 13.75268555 2.12939453 C12.53775925 2.12859894 11.32283295 2.12780334 10.0710907 2.12698364 C7 2 7 2 3 1 C3 237.61 3 474.22 3 718 C69 718 135 718 203 718 C203 718.66 203 719.32 203 720 C136.01 720 69.02 720 0 720 C0 482.4 0 244.8 0 0 Z " fill="currentColor" transform="translate(1180,745)"/>
<path d="M0 0 C68.64 0 137.28 0 208 0 C208 49.5 208 99 208 150 C207.34 150 206.68 150 206 150 C206 101.16 206 52.32 206 2 C201.05 2.495 201.05 2.495 196 3 C192.94809103 3.06347564 189.92410809 3.09764043 186.875 3.0625 C186.10929687 3.05798828 185.34359375 3.05347656 184.5546875 3.04882812 C182.70308963 3.03725564 180.85153312 3.01933155 179 3 C179 2.34 179 1.68 179 1 C119.93 1 60.86 1 0 1 C0 0.67 0 0.34 0 0 Z " fill="currentColor" transform="translate(1181,744)"/>
<path d="M0 0 C0.66 0 1.32 0 2 0 C2 66.33 2 132.66 2 201 C0.35 201 -1.3 201 -3 201 C-3 200.34 -3 199.68 -3 199 C-2.01 199 -1.02 199 0 199 C0 133.33 0 67.66 0 0 Z " fill="currentColor" transform="translate(1387,1264)"/>
<path d="M0 0 C70.29 0 140.58 0 213 0 C213 0.33 213 0.66 213 1 C143.04 1 73.08 1 1 1 C0.67 3.31 0.34 5.62 0 8 C-0.77118019 10.5922804 -1.73567095 12.56859797 -3 15 C-3.99 15.33 -4.98 15.66 -6 16 C-4.26765262 10.51423331 -2.1557626 5.38940649 0 0 Z " fill="currentColor" transform="translate(461,475)"/>
<path d="M0 0 C1.32 0.33 2.64 0.66 4 1 C4 1.66 4 2.32 4 3 C3.01 3 2.02 3 1 3 C0.72671875 3.69867187 0.4534375 4.39734375 0.171875 5.1171875 C-3.59923894 14.39412779 -8.07607642 23.28709977 -13 32 C-13.66 32 -14.32 32 -15 32 C-13.66017669 27.6865604 -11.99589931 23.75658491 -9.9609375 19.7265625 C-9.38085938 18.57285156 -8.80078125 17.41914062 -8.203125 16.23046875 C-7.59383809 15.02860117 -6.98446198 13.82677881 -6.375 12.625 C-5.75744122 11.39992668 -5.14025018 10.1746679 -4.5234375 8.94921875 C-3.01922833 5.96430368 -1.51130878 2.98132497 0 0 Z " fill="currentColor" transform="translate(1893,770)"/>
<path d="M0 0 C0.0825 0.61875 0.165 1.2375 0.25 1.875 C0.78047393 4.11299939 0.78047393 4.11299939 2.65625 4.953125 C3.81640625 5.47132812 3.81640625 5.47132812 5 6 C6.46179687 6.67675781 6.46179687 6.67675781 7.953125 7.3671875 C9.04109375 7.86476563 10.1290625 8.36234375 11.25 8.875 C16.21733558 11.15986237 21.12916374 13.51682857 26 16 C26 16.66 26 17.32 26 18 C15.85823835 15.44212206 5.51138161 11.51138161 -2 4 C-2 3.34 -2 2.68 -2 2 C-1.34 2 -0.68 2 0 2 C0 1.34 0 0.68 0 0 Z " fill="currentColor" transform="translate(1562,1065)"/>
<path d="M0 0 C7.92 0 15.84 0 24 0 C24.33 0.99 24.66 1.98 25 3 C16.42 3 7.84 3 -1 3 C-0.67 2.01 -0.34 1.02 0 0 Z " fill="currentColor" transform="translate(1273,449)"/>
<path d="M0 0 C0.99 0 1.98 0 3 0 C3.433125 1.2065625 3.433125 1.2065625 3.875 2.4375 C4.73262568 5.1326468 4.73262568 5.1326468 7 6 C7.23844735 7.60100362 7.46747944 9.20398395 7.6484375 10.8125 C8.31898518 14.98479666 9.71469232 18.98240304 11 23 C10.34 23.33 9.68 23.66 9 24 C7.4943349 20.37732706 5.99643454 16.75149451 4.5 13.125 C4.07074219 12.09246094 3.64148438 11.05992187 3.19921875 9.99609375 C2.79316406 9.00996094 2.38710938 8.02382813 1.96875 7.0078125 C1.59169922 6.09660645 1.21464844 5.18540039 0.82617188 4.24658203 C0 2 0 2 0 0 Z " fill="currentColor" transform="translate(662,984)"/>
<path d="M0 0 C0.66 0 1.32 0 2 0 C1.37455579 6.50461976 1.37455579 6.50461976 -0.453125 8.921875 C-2.20476304 11.2750857 -2.74185732 13.16558014 -3.4375 16 C-4.54522145 19.9948678 -5.59538793 22.41719085 -9 25 C-9.33 24.34 -9.66 23.68 -10 23 C-9.19555664 20.66162109 -9.19555664 20.66162109 -7.91015625 17.7734375 C-7.45576172 16.7421875 -7.00136719 15.7109375 -6.53320312 14.6484375 C-6.04787109 13.56820313 -5.56253906 12.48796875 -5.0625 11.375 C-4.34030273 9.74304687 -4.34030273 9.74304687 -3.60351562 8.078125 C-2.40928576 5.38223977 -1.20785328 2.68980242 0 0 Z " fill="currentColor" transform="translate(137,1230)"/>
<path d="M0 0 C0.33 0.99 0.66 1.98 1 3 C-0.51171875 5.453125 -0.51171875 5.453125 -2.6875 8.25 C-5.82191655 12.38347752 -8.56161501 16.42802814 -11 21 C-12.125 17.25 -12.125 17.25 -11 15 C-10.34 15 -9.68 15 -9 15 C-9.061875 13.576875 -9.061875 13.576875 -9.125 12.125 C-9 9 -9 9 -7 7 C-6.505 5.9790625 -6.505 5.9790625 -6 4.9375 C-5 3 -5 3 -3 2 C-2.34 2.33 -1.68 2.66 -1 3 C-0.67 2.01 -0.34 1.02 0 0 Z " fill="currentColor" transform="translate(2026,390)"/>
<path d="M0 0 C0.66 0 1.32 0 2 0 C2.17015625 0.6290625 2.3403125 1.258125 2.515625 1.90625 C3.97093389 7.04627715 5.61866627 11.59700416 8.328125 16.2109375 C9.18358294 18.48884295 8.77690546 19.7390059 8 22 C5.2113575 18.64018976 3.46502486 14.97952371 1.75 11 C1.46898437 10.38382813 1.18796875 9.76765625 0.8984375 9.1328125 C-0.27067696 6.43574647 -1.0694341 4.51579615 -0.671875 1.5625 C-0.45015625 1.046875 -0.2284375 0.53125 0 0 Z " fill="currentColor" transform="translate(1893,1334)"/>
<path d="M0 0 C1.13643966 3.40931897 0.86747764 4.00335456 -0.4375 7.1875 C-0.72496094 7.90292969 -1.01242188 8.61835937 -1.30859375 9.35546875 C-1.53675781 9.89816406 -1.76492187 10.44085937 -2 11 C-2.66 11 -3.32 11 -4 11 C-4.33 11.99 -4.66 12.98 -5 14 C-4.01 14.33 -3.02 14.66 -2 15 C-2 15.66 -2 16.32 -2 17 C-1.01 17.33 -0.02 17.66 1 18 C-1.97 18 -4.94 18 -8 18 C-8.33 17.34 -8.66 16.68 -9 16 C-7.97366571 13.40916758 -6.89072403 10.94402278 -5.6875 8.4375 C-5.36587891 7.73947266 -5.04425781 7.04144531 -4.71289062 6.32226562 C-2.26037698 1.13018849 -2.26037698 1.13018849 0 0 Z " fill="currentColor" transform="translate(45,1448)"/>
<path d="M0 0 C0.33 0 0.66 0 1 0 C1.18451025 9.41002278 1.18451025 9.41002278 0 14 C-0.66 14 -1.32 14 -2 14 C-2 22.25 -2 30.5 -2 39 C-2.33 39 -2.66 39 -3 39 C-3.0590068 34.91672939 -3.09392935 30.83357118 -3.125 26.75 C-3.14175781 25.61046875 -3.15851563 24.4709375 -3.17578125 23.296875 C-3.21886839 15.71353863 -2.75447871 8.40206014 -1 1 C-0.67 0.67 -0.34 0.34 0 0 Z " fill="currentColor" transform="translate(1158,548)"/>
<path d="M0 0 C6.45353615 2.05764921 12.7361263 4.42383482 19 7 C19 7.99 19 8.98 19 10 C11.81783567 7.72564796 4.9241798 4.96415819 -2 2 C-1.34 1.34 -0.68 0.68 0 0 Z " fill="currentColor" transform="translate(1590,1082)"/>
<path d="M0 0 C2.8301913 3.38263104 4.5032781 7.09118459 6.1875 11.125 C6.46013672 11.75792969 6.73277344 12.39085937 7.01367188 13.04296875 C9 17.7324953 9 17.7324953 9 20 C8.01 20 7.02 20 6 20 C5.74605469 19.33613281 5.49210938 18.67226563 5.23046875 17.98828125 C3.07611521 12.40694171 3.07611521 12.40694171 0.1875 7.1875 C-1 5 -1 5 -0.6875 2.1875 C-0.460625 1.465625 -0.23375 0.74375 0 0 Z " fill="currentColor" transform="translate(750,656)"/>
<path d="M0 0 C0.66 0.33 1.32 0.66 2 1 C-1.01391877 4.39065861 -4.33231214 6.562917 -8.1953125 8.8515625 C-10.14560892 10.00098862 -10.14560892 10.00098862 -12 12 C-12 11.34 -12 10.68 -12 10 C-12.66 9.67 -13.32 9.34 -14 9 C-11.50175511 6.18841591 -8.721524 4.55162169 -5.4375 2.75 C-4.46683594 2.20859375 -3.49617188 1.6671875 -2.49609375 1.109375 C-1.67238281 0.74328125 -0.84867188 0.3771875 0 0 Z " fill="currentColor" transform="translate(2348,467)"/>
<path d="M0 0 C0.99 0 1.98 0 3 0 C4.1734316 2.60130627 5.33892508 5.20568508 6.5 7.8125 C7.00080078 8.91948242 7.00080078 8.91948242 7.51171875 10.04882812 C7.82753906 10.76103516 8.14335938 11.47324219 8.46875 12.20703125 C8.76201172 12.8616333 9.05527344 13.51623535 9.35742188 14.19067383 C10 16 10 16 10 19 C9.34 19 8.68 19 8 19 C6.66368279 16.02216282 5.33144896 13.04251668 4 10.0625 C3.6184375 9.21236328 3.236875 8.36222656 2.84375 7.48632812 C2.4828125 6.67744141 2.121875 5.86855469 1.75 5.03515625 C1.41484375 4.2862915 1.0796875 3.53742676 0.734375 2.76586914 C0 1 0 1 0 0 Z " fill="currentColor" transform="translate(1085,1443)"/>
<path d="M0 0 C3 1 3 1 4.640625 4.0546875 C5.18847975 5.32326378 5.72451331 6.59699595 6.25 7.875 C6.53101563 8.51308594 6.81203125 9.15117188 7.1015625 9.80859375 C9.12839862 14.61480415 9.12839862 14.61480415 8 18 C4.08956606 14.08956606 1.77946897 8.19011784 0 3 C0 2.01 0 1.02 0 0 Z " fill="currentColor" transform="translate(1025,1302)"/>
<path d="M0 0 C0 0.66 0 1.32 0 2 C-0.78375 2.2475 -1.5675 2.495 -2.375 2.75 C-5.32317108 4.15389099 -5.9024777 5.00675737 -7 8 C-7.66 8 -8.32 8 -9 8 C-9 7.01 -9 6.02 -9 5 C-9.66 5.66 -10.32 6.32 -11 7 C-13.5 7.75 -13.5 7.75 -16 8 C-16.66 7.34 -17.32 6.68 -18 6 C-15.56495491 4.9936345 -13.12729136 3.99473587 -10.6875 3 C-9.65206055 2.57074219 -9.65206055 2.57074219 -8.59570312 2.1328125 C-5.58454326 0.91089256 -3.28113016 0 0 0 Z " fill="currentColor" transform="translate(1620,1012)"/>
<path d="M0 0 C-1.34538868 4.03616604 -3.34180255 4.8288453 -6.875 7.125 C-7.94492188 7.82882812 -9.01484375 8.53265625 -10.1171875 9.2578125 C-13 11 -13 11 -16 12 C-14.50172989 8.18622154 -12.23512607 6.42634455 -9 4 C-8.34 3.34 -7.68 2.68 -7 2 C-2.55555556 0 -2.55555556 0 0 0 Z " fill="currentColor" transform="translate(2163,1163)"/>
<path d="M0 0 C1.79296875 0.0703125 1.79296875 0.0703125 4 1 C5.32004846 3.3197256 6.33448692 5.41893708 7.3125 7.875 C7.58900391 8.51308594 7.86550781 9.15117188 8.15039062 9.80859375 C10.13451024 14.59646929 10.13451024 14.59646929 9 18 C6.45347908 15.45347908 5.4248809 12.84058519 3.9375 9.5625 C3.41027344 8.40878906 2.88304687 7.25507812 2.33984375 6.06640625 C1 3 1 3 0 0 Z " fill="currentColor" transform="translate(700,544)"/>
<path d="M0 0 C0 0.66 0 1.32 0 2 C-6.6 4.97 -13.2 7.94 -20 11 C-19.67 10.01 -19.34 9.02 -19 8 C-18.34 8 -17.68 8 -17 8 C-16.67 7.01 -16.34 6.02 -16 5 C-15.01 4.87625 -15.01 4.87625 -14 4.75 C-10.61388262 3.90347066 -7.91560419 2.50639062 -4.8671875 0.83984375 C-3 0 -3 0 0 0 Z " fill="currentColor" transform="translate(2117,329)"/>
<path d="M0 0 C2.14413657 3.21620485 3.66081546 6.53136846 5.1875 10.0625 C5.47302734 10.69994141 5.75855469 11.33738281 6.05273438 11.99414062 C6.76427903 13.63709898 7.38897327 15.31706973 8 17 C7.67 17.66 7.34 18.32 7 19 C6.34 18.34 5.68 17.68 5 17 C5 16.01 5 15.02 5 14 C4.01 14.33 3.02 14.66 2 15 C1.87625 14.154375 1.7525 13.30875 1.625 12.4375 C1.05059919 8.91575726 1.05059919 8.91575726 -0.125 5.25 C-1 2 -1 2 0 0 Z " fill="currentColor" transform="translate(928,1072)"/>
<path d="M0 0 C2.61666628 2.61666628 3.71634007 5.64348017 5.125 9 C5.54072266 9.96292969 5.54072266 9.96292969 5.96484375 10.9453125 C8 15.73745382 8 15.73745382 8 18 C5 17 5 17 3.359375 13.9453125 C2.81152025 12.67673622 2.27548669 11.40300405 1.75 10.125 C1.46898437 9.48691406 1.18796875 8.84882812 0.8984375 8.19140625 C-1.12839862 3.38519585 -1.12839862 3.38519585 0 0 Z " fill="currentColor" transform="translate(798,768)"/>
<path d="M0 0 C1.27817759 3.83453276 0.41463448 5.27727767 -1 9 C-1.28875 9.928125 -1.5775 10.85625 -1.875 11.8125 C-2.24625 12.534375 -2.6175 13.25625 -3 14 C-5.0703125 14.63671875 -5.0703125 14.63671875 -7 15 C-3.4028777 3.99280576 -3.4028777 3.99280576 -2 1 C-1.34 0.67 -0.68 0.34 0 0 Z " fill="currentColor" transform="translate(246,980)"/>
<path d="M0 0 C5.68502535 1.64566523 10.76681636 4.29032784 16 7 C15.67 7.66 15.34 8.32 15 9 C11.68601362 8.3047581 8.85266022 7.10690971 5.8125 5.625 C4.93207031 5.20476563 4.05164062 4.78453125 3.14453125 4.3515625 C1 3 1 3 0 0 Z " fill="currentColor" transform="translate(2207,970)"/>
<path d="M0 0 C0.66 0.33 1.32 0.66 2 1 C2 1.99 2 2.98 2 4 C1.34 4 0.68 4 0 4 C-0.061875 4.804375 -0.12375 5.60875 -0.1875 6.4375 C-1.25533125 11.11952934 -3.31503894 15.02692678 -6 19 C-6.66 19.33 -7.32 19.66 -8 20 C-5.83836487 13.06001352 -3.1063786 6.56882431 0 0 Z " fill="currentColor" transform="translate(318,809)"/>
<path d="M0 0 C0.66 0 1.32 0 2 0 C3.17112946 2.62309099 4.33705964 5.24828142 5.5 7.875 C5.83386719 8.62136719 6.16773438 9.36773438 6.51171875 10.13671875 C6.82753906 10.85214844 7.14335938 11.56757812 7.46875 12.3046875 C7.76201172 12.96452637 8.05527344 13.62436523 8.35742188 14.30419922 C9 16 9 16 9 18 C6 17 6 17 4.39453125 13.9453125 C3.85592569 12.67659719 3.32900516 11.40287203 2.8125 10.125 C2.40354492 9.16787109 2.40354492 9.16787109 1.98632812 8.19140625 C0.7832624 5.30284243 0 3.1584173 0 0 Z " fill="currentColor" transform="translate(1035,1324)"/>
<path d="M0 0 C-1.29906745 3.89720235 -3.73459615 5.31861163 -6.9375 7.625 C-7.48857422 8.03234375 -8.03964844 8.4396875 -8.60742188 8.859375 C-10.68551265 10.38448658 -12.69014144 11.84507072 -15 13 C-15.33 12.01 -15.66 11.02 -16 10 C-13.71234889 8.32756577 -11.42026108 6.66193073 -9.125 5 C-8.47402344 4.52304688 -7.82304687 4.04609375 -7.15234375 3.5546875 C-2.2265625 0 -2.2265625 0 0 0 Z " fill="currentColor" transform="translate(2146,1175)"/>
<path d="M0 0 C1.8709949 2.80649235 3.23017952 5.49960473 4.625 8.5625 C5.07101562 9.53316406 5.51703125 10.50382812 5.9765625 11.50390625 C7 14 7 14 7 16 C4 15 4 15 2.8671875 13.22265625 C2.53976562 12.50980469 2.21234375 11.79695313 1.875 11.0625 C1.54242187 10.35222656 1.20984375 9.64195313 0.8671875 8.91015625 C0.58101562 8.27980469 0.29484375 7.64945313 0 7 C-0.33 6.34 -0.66 5.68 -1 5 C-0.67 4.34 -0.34 3.68 0 3 C-0.66 3 -1.32 3 -2 3 C-1 1 -1 1 0 0 Z " fill="currentColor" transform="translate(915,1042)"/>
<path d="M0 0 C-4.93505656 3.98600722 -9.67634886 6.24718439 -16 7 C-16.33 6.34 -16.66 5.68 -17 5 C-14.73392948 3.96724659 -12.46318061 2.94866449 -10.1875 1.9375 C-9.22360352 1.49567383 -9.22360352 1.49567383 -8.24023438 1.04492188 C-3.33984375 -1.11328125 -3.33984375 -1.11328125 0 0 Z " fill="currentColor" transform="translate(1661,996)"/>
<path d="M0 0 C1.46011771 3.83511929 0.48029981 6.29102777 -0.875 10.0625 C-1.24367188 11.10535156 -1.61234375 12.14820313 -1.9921875 13.22265625 C-2.49105469 14.59744141 -2.49105469 14.59744141 -3 16 C-3.33 16.99 -3.66 17.98 -4 19 C-4.99 18.67 -5.98 18.34 -7 18 C-5.06375702 11.79522136 -2.74390859 5.89174281 0 0 Z " fill="currentColor" transform="translate(287,881)"/>
<path d="M0 0 C5.54050113 0.56825653 10.03715966 2.62886517 15 5 C11.58043672 7.1114082 11.58043672 7.1114082 8.96484375 6.609375 C8.29582031 6.32578125 7.62679687 6.0421875 6.9375 5.75 C6.26589844 5.47671875 5.59429688 5.2034375 4.90234375 4.921875 C3 4 3 4 0 2 C0 1.34 0 0.68 0 0 Z " fill="currentColor" transform="translate(2254,993)"/>
<path d="M0 0 C0.33 0 0.66 0 1 0 C0.61330541 6.96050253 -1.63438409 11.9394075 -5 18 C-5.66 18 -6.32 18 -7 18 C-5.06375702 11.79522136 -2.74390859 5.89174281 0 0 Z " fill="currentColor" transform="translate(233,1007)"/>
<path d="M0 0 C0.66 0.99 1.32 1.98 2 3 C1.58447266 4.80932617 1.58447266 4.80932617 0.6640625 6.79296875 C0.34179688 7.50517578 0.01953125 8.21738281 -0.3125 8.95117188 C-0.663125 9.68916016 -1.01375 10.42714844 -1.375 11.1875 C-1.71789062 11.93708984 -2.06078125 12.68667969 -2.4140625 13.45898438 C-3.26371255 15.31169351 -4.13028359 17.15662546 -5 19 C-5.66 19 -6.32 19 -7 19 C-4.94235079 12.54646385 -2.57616518 6.2638737 0 0 Z " fill="currentColor" transform="translate(295,862)"/>
<path d="M0 0 C0.66 0 1.32 0 2 0 C0.38989473 4.07376031 -2.53822271 6.76507069 -5.625 9.75 C-6.140625 10.25660156 -6.65625 10.76320313 -7.1875 11.28515625 C-8.45383339 12.52803902 -9.7263144 13.76465276 -11 15 C-11.33 14.01 -11.66 13.02 -12 12 C-11.34 12 -10.68 12 -10 12 C-9.34 10.68 -8.68 9.36 -8 8 C-7.34 8 -6.68 8 -6 8 C-5.34 6.68 -4.68 5.36 -4 4 C-3.34 4 -2.68 4 -2 4 C-2 3.34 -2 2.68 -2 2 C-1.34 2 -0.68 2 0 2 C0 1.34 0 0.68 0 0 Z " fill="currentColor" transform="translate(2117,1197)"/>
<path d="M0 0 C0.33 0.99 0.66 1.98 1 3 C-0.5625 5.0625 -0.5625 5.0625 -3 7 C-6.75 6.75 -6.75 6.75 -10 6 C-2.6 0 -2.6 0 0 0 Z " fill="currentColor" transform="translate(1746,951)"/>
<path d="M0 0 C0.66 0 1.32 0 2 0 C-1.07517084 10.55808656 -1.07517084 10.55808656 -3 15 C-5 12 -5 12 -4.75390625 10.078125 C-3.95371785 7.87242433 -3.01444754 5.83441459 -1.9375 3.75 C-1.57527344 3.04359375 -1.21304687 2.3371875 -0.83984375 1.609375 C-0.56269531 1.07828125 -0.28554688 0.5471875 0 0 Z " fill="currentColor" transform="translate(347,1279)"/>
<path d="M0 0 C1 3 1 3 -0.43359375 5.91796875 C-1.09488281 6.99691406 -1.75617187 8.07585937 -2.4375 9.1875 C-3.09621094 10.27417969 -3.75492188 11.36085938 -4.43359375 12.48046875 C-5.20896484 13.72763672 -5.20896484 13.72763672 -6 15 C-6.97735904 12.40555601 -7.13177227 11.32581666 -6.07421875 8.7109375 C-5.61660156 7.94007812 -5.15898437 7.16921875 -4.6875 6.375 C-4.23761719 5.59898438 -3.78773438 4.82296875 -3.32421875 4.0234375 C-2 2 -2 2 0 0 Z " fill="currentColor" transform="translate(2054,1280)"/>
<path d="M0 0 C0.66 0 1.32 0 2 0 C2.66 1.65 3.32 3.3 4 5 C3.34 5 2.68 5 2 5 C2 5.66 2 6.32 2 7 C1.34 7 0.68 7 0 7 C-0.66 8.32 -1.32 9.64 -2 11 C-2.66 11 -3.32 11 -4 11 C-3.52269162 9.5410574 -3.04308958 8.08286504 -2.5625 6.625 C-2.29566406 5.81289063 -2.02882813 5.00078125 -1.75390625 4.1640625 C-1 2 -1 2 0 0 Z " fill="currentColor" transform="translate(419,574)"/>
<path d="M0 0 C2.92300138 2.47783163 3.97340327 4.9851711 5.25 8.5625 C5.60578125 9.53316406 5.9615625 10.50382813 6.328125 11.50390625 C7 14 7 14 6 16 C5.34 16 4.68 16 4 16 C2.07528683 10.66164461 0.60108576 5.65020618 0 0 Z " fill="currentColor" transform="translate(1403,523)"/>
<path d="M0 0 C5.01113235 1.4317521 6.94469549 3.98445693 10 8 C8.02 8.99 8.02 8.99 6 10 C6 9.34 6 8.68 6 8 C5.01 8.33 4.02 8.66 3 9 C3 8.34 3 7.68 3 7 C3.66 6.67 4.32 6.34 5 6 C4.34 5.67 3.68 5.34 3 5 C3 4.34 3 3.68 3 3 C2.34 3 1.68 3 1 3 C0.67 2.01 0.34 1.02 0 0 Z M-2 1 C-1.01 1.495 -1.01 1.495 0 2 C-0.99 2.495 -0.99 2.495 -2 3 C-2 2.34 -2 1.68 -2 1 Z " fill="currentColor" transform="translate(2136,282)"/>
<path d="M0 0 C0.66 0 1.32 0 2 0 C2.86580287 1.93232821 3.71729941 3.87107194 4.5625 5.8125 C5.27599609 7.43091797 5.27599609 7.43091797 6.00390625 9.08203125 C7 12 7 12 6 15 C2.28578596 10.40144929 -0.53603697 6.07508565 0 0 Z " fill="currentColor" transform="translate(769,702)"/>
<path d="M0 0 C0.66 0 1.32 0 2 0 C0.25192871 5.46737191 -1.65794081 10.75824848 -4 16 C-4.66 16 -5.32 16 -6 16 C-4.25192871 10.53262809 -2.34205919 5.24175152 0 0 Z " fill="currentColor" transform="translate(118,1274)"/>
<path d="M0 0 C0.66 0.33 1.32 0.66 2 1 C1.67 1.99 1.34 2.98 1 4 C0.97033939 6.77538561 1.06581144 9.53485645 1.16015625 12.30859375 C0.9950344 15.08344632 0.42083006 16.64309367 -1 19 C-2.01173798 15.96478606 -2.16573514 13.80266921 -2.1875 10.625 C-2.20167969 9.68914062 -2.21585938 8.75328125 -2.23046875 7.7890625 C-1.98668108 4.83881846 -1.23112508 2.67635888 0 0 Z " fill="currentColor" transform="translate(1557,1043)"/>
<path d="M0 0 C0.66 0.33 1.32 0.66 2 1 C1.01 2.485 1.01 2.485 0 4 C-0.16713569 6.62531524 -0.16713569 6.62531524 0 9 C-1.32 9 -2.64 9 -4 9 C-4.33 8.34 -4.66 7.68 -5 7 C-5.99 6.67 -6.98 6.34 -8 6 C-5.36 4.02 -2.72 2.04 0 0 Z " fill="currentColor" transform="translate(1767,936)"/>
<path d="M0 0 C0.66 0 1.32 0 2 0 C0.45730076 4.72065967 -1.07794619 9.41664092 -3 14 C-4.1484375 12.328125 -4.1484375 12.328125 -5 10 C-4.1015625 7.421875 -4.1015625 7.421875 -2.625 4.75 C-2.14289063 3.85796875 -1.66078125 2.9659375 -1.1640625 2.046875 C-0.77992188 1.37140625 -0.39578125 0.6959375 0 0 Z " fill="currentColor" transform="translate(320,1345)"/>
<path d="M0 0 C0.66 0 1.32 0 2 0 C1.2818231 3.15118435 0.28619005 6.10950646 -0.875 9.125 C-1.20242188 9.99382813 -1.52984375 10.86265625 -1.8671875 11.7578125 C-3 14 -3 14 -6 16 C-4.25192871 10.53262809 -2.34205919 5.24175152 0 0 Z " fill="currentColor" transform="translate(1935,671)"/>
<path d="M0 0 C1.4606285 2.64738916 2 3.89448334 2 7 C1 9.1875 1 9.1875 0 11 C-1.32 11 -2.64 11 -4 11 C-2.7874262 7.27566618 -1.49140021 3.62197194 0 0 Z " fill="currentColor" transform="translate(2438,357)"/>
<path d="M0 0 C0.33 0 0.66 0 1 0 C0.49202991 4.3177458 -0.19682779 8.03302114 -2 12 C-3.32 11.34 -4.64 10.68 -6 10 C-5.67 9.01 -5.34 8.02 -5 7 C-4.34 6.67 -3.68 6.34 -3 6 C-2.34786708 3.97536745 -2.34786708 3.97536745 -2 2 C-1.34 2 -0.68 2 0 2 C0 1.34 0 0.68 0 0 Z " fill="currentColor" transform="translate(365,1235)"/>
<path d="M0 0 C0.66 0 1.32 0 2 0 C1.36843005 5.05255964 -0.13459373 9.29593201 -2 14 C-3.1171875 12.328125 -3.1171875 12.328125 -4 10 C-3.3203125 7.421875 -3.3203125 7.421875 -2.125 4.75 C-1.73570312 3.85796875 -1.34640625 2.9659375 -0.9453125 2.046875 C-0.63335937 1.37140625 -0.32140625 0.6959375 0 0 Z " fill="currentColor" transform="translate(492,921)"/>
<path d="M0 0 C0.99 0.33 1.98 0.66 3 1 C3 3.97 3 6.94 3 10 C2.01 10.495 2.01 10.495 1 11 C0.63743142 9.5437328 0.28520207 8.08488815 -0.0625 6.625 C-0.35833984 5.40683594 -0.35833984 5.40683594 -0.66015625 4.1640625 C-1 2 -1 2 0 0 Z " fill="currentColor" transform="translate(1160,604)"/>
<path d="M0 0 C0.66 0.33 1.32 0.66 2 1 C1.01 1.680625 1.01 1.680625 0 2.375 C-0.99 3.179375 -0.99 3.179375 -2 4 C-2 4.66 -2 5.32 -2 6 C-3.03125 6.144375 -4.0625 6.28875 -5.125 6.4375 C-8.42549813 6.91660457 -11.71268341 7.43875083 -15 8 C-11.96943208 5.55831021 -8.90981404 3.86972611 -5.375 2.25 C-4.41335937 1.80140625 -3.45171875 1.3528125 -2.4609375 0.890625 C-1.64882812 0.59671875 -0.83671875 0.3028125 0 0 Z " fill="currentColor" transform="translate(2316,484)"/>
<path d="M0 0 C3.21365891 1.10815825 3.9914224 1.98529554 5.75 5 C7 8 7 8 7 10 C7.66 10.33 8.32 10.66 9 11 C9.33 11.66 9.66 12.32 10 13 C9.34 13.66 8.68 14.32 8 15 C6.66121428 12.8782637 5.32884524 10.75294812 4 8.625 C3.6184375 8.02171875 3.236875 7.4184375 2.84375 6.796875 C0 2.2265625 0 2.2265625 0 0 Z " fill="currentColor" transform="translate(1898,401)"/>
<path d="M0 0 C0.66 0.33 1.32 0.66 2 1 C0.3833652 7.03280791 -1.16709462 10.950809 -6 15 C-4.40109514 9.80355921 -2.25861997 4.93387858 0 0 Z " fill="currentColor" transform="translate(356,721)"/>
<path d="M0 0 C0.33 0 0.66 0 1 0 C1.03738281 0.84304688 1.07476563 1.68609375 1.11328125 2.5546875 C1.17902344 3.65039062 1.24476563 4.74609375 1.3125 5.875 C1.37050781 6.96554687 1.42851562 8.05609375 1.48828125 9.1796875 C1.74158203 10.57574219 1.74158203 10.57574219 2 12 C2.99 12.66 3.98 13.32 5 14 C3.02 14.99 3.02 14.99 1 16 C-1.06149392 10.97510856 -1.4857159 6.3654663 -1 1 C-0.67 0.67 -0.34 0.34 0 0 Z " fill="currentColor" transform="translate(2278,511)"/>
<path d="M0 0 C0.66 0 1.32 0 2 0 C0.45730076 4.72065967 -1.07794619 9.41664092 -3 14 C-4.1484375 12.328125 -4.1484375 12.328125 -5 10 C-4.1015625 7.421875 -4.1015625 7.421875 -2.625 4.75 C-2.14289063 3.85796875 -1.66078125 2.9659375 -1.1640625 2.046875 C-0.77992188 1.37140625 -0.39578125 0.6959375 0 0 Z " fill="currentColor" transform="translate(310,1369)"/>
<path d="M0 0 C0.66 0 1.32 0 2 0 C0.49087042 4.98012761 -2.55661849 8.24259942 -6 12 C-6.66 11.34 -7.32 10.68 -8 10 C-6.71580959 8.32756598 -5.42242815 6.66218553 -4.125 5 C-3.04605469 3.6078125 -3.04605469 3.6078125 -1.9453125 2.1875 C-1.30335938 1.465625 -0.66140625 0.74375 0 0 Z " fill="currentColor" transform="translate(2099,1215)"/>
<path d="M0 0 C-0.45261358 1.43931117 -0.91232979 2.87638999 -1.375 4.3125 C-1.63023437 5.11300781 -1.88546875 5.91351562 -2.1484375 6.73828125 C-3 9 -3 9 -5 12 C-6.25360525 8.23918426 -5.83902226 5.84551868 -5 2 C-2 0 -2 0 0 0 Z " fill="currentColor" transform="translate(450,1030)"/>
<path d="M0 0 C-2.77079887 3.80984844 -6.62868145 4.06840752 -11 5 C-11.33 4.34 -11.66 3.68 -12 3 C-10.5682384 2.30062798 -9.12932968 1.61587282 -7.6875 0.9375 C-6.48673828 0.36322266 -6.48673828 0.36322266 -5.26171875 -0.22265625 C-3 -1 -3 -1 0 0 Z " fill="currentColor" transform="translate(1644,1003)"/>
<path d="M0 0 C0.66 0 1.32 0 2 0 C2.83764268 1.95649397 3.66999059 3.91525556 4.5 5.875 C5.19609375 7.51082031 5.19609375 7.51082031 5.90625 9.1796875 C7 12 7 12 7 14 C6.34 14 5.68 14 5 14 C4.67 12.02 4.34 10.04 4 8 C3.34 8 2.68 8 2 8 C0.23537317 4.91190305 0 3.76687864 0 0 Z " fill="currentColor" transform="translate(881,965)"/>
<path d="M0 0 C0.66 0.66 1.32 1.32 2 2 C1.40975852 3.65087847 0.80233994 5.29562407 0.1875 6.9375 C-0.31716797 8.31228516 -0.31716797 8.31228516 -0.83203125 9.71484375 C-2 12 -2 12 -5 13 C-4.54554036 11.58208592 -4.08625056 10.16571954 -3.625 8.75 C-3.24214844 7.56664062 -3.24214844 7.56664062 -2.8515625 6.359375 C-2.04826333 4.13372042 -1.10288338 2.09068328 0 0 Z " fill="currentColor" transform="translate(190,1107)"/>
<path d="M0 0 C1.98 0.66 3.96 1.32 6 2 C6 2.66 6 3.32 6 4 C6.99 3.67 7.98 3.34 9 3 C9.99 3.66 10.98 4.32 12 5 C12 5.66 12 6.32 12 7 C6 5 6 5 0 3 C0 2.01 0 1.02 0 0 Z " fill="currentColor" transform="translate(1624,1096)"/>
<path d="M0 0 C0.66 0.33 1.32 0.66 2 1 C1.33501617 5.38889325 -0.18757677 8.9811485 -2 13 C-2.33 12.01 -2.66 11.02 -3 10 C-3.66 10 -4.32 10 -5 10 C-4 8 -4 8 -2 6 C-1.28591666 4.01643517 -0.61382258 2.01684563 0 0 Z " fill="currentColor" transform="translate(478,955)"/>
<path d="M0 0 C0.66 0 1.32 0 2 0 C2.83819158 1.62249941 3.6704116 3.24808497 4.5 4.875 C4.9640625 5.77992188 5.428125 6.68484375 5.90625 7.6171875 C7 10 7 10 7 12 C6.01 12 5.02 12 4 12 C4 10.68 4 9.36 4 8 C3.34 8 2.68 8 2 8 C0.74335022 5.09399739 0 3.20395416 0 0 Z " fill="currentColor" transform="translate(2503,373)"/>
<path d="M0 0 C0.94875 0.04125 1.8975 0.0825 2.875 0.125 C1.4111389 4.51658329 -1.10331338 5.00447433 -5.125 7.125 C-5.25 4.75 -5.25 4.75 -5.125 2.125 C-3.125 0.125 -3.125 0.125 0 0 Z " fill="currentColor" transform="translate(2050.125,364.875)"/>
<path d="M0 0 C0 3.20221598 -0.610729 4.69648577 -1.9375 7.5625 C-2.29714844 8.34753906 -2.65679687 9.13257813 -3.02734375 9.94140625 C-3.66993965 11.30143854 -4.32730136 12.65460271 -5 14 C-5.66 13.67 -6.32 13.34 -7 13 C-6.21658881 11.01755108 -5.42302514 9.03911141 -4.625 7.0625 C-4.18414062 5.96035156 -3.74328125 4.85820313 -3.2890625 3.72265625 C-2 1 -2 1 0 0 Z " fill="currentColor" transform="translate(96,1329)"/>
<path d="M0 0 C0.66 0 1.32 0 2 0 C0.60846256 4.42761914 -1.52071486 6.9556255 -5 10 C-5.66 10 -6.32 10 -7 10 C-6.4409112 6.75728494 -5.5867822 5.06942576 -3 3 C-2.34 3 -1.68 3 -1 3 C-0.67 2.01 -0.34 1.02 0 0 Z " fill="currentColor" transform="translate(2360,1063)"/>
<path d="M0 0 C4.50802601 1.25805377 7.4912812 2.90407165 11 6 C7.03397243 6 4.59650092 5.59844485 1 4 C0.125 1.875 0.125 1.875 0 0 Z " fill="currentColor" transform="translate(2183,957)"/>
<path d="M0 0 C0.66 0 1.32 0 2 0 C2.86580287 1.93232821 3.71729941 3.87107194 4.5625 5.8125 C5.27599609 7.43091797 5.27599609 7.43091797 6.00390625 9.08203125 C7 12 7 12 6 15 C3.81692968 12.81692968 3.35653664 11.52164953 2.4375 8.625 C2.18871094 7.85414063 1.93992187 7.08328125 1.68359375 6.2890625 C1.06076391 4.20347231 0.50733047 2.11629282 0 0 Z " fill="currentColor" transform="translate(861,918)"/>
<path d="M0 0 C0 0.66 0 1.32 0 2 C-1.96875 3.5078125 -1.96875 3.5078125 -4.5 5.125 C-5.3353125 5.66382813 -6.170625 6.20265625 -7.03125 6.7578125 C-7.6809375 7.16773438 -8.330625 7.57765625 -9 8 C-9 7.01 -9 6.02 -9 5 C-8.01 4.67 -7.02 4.34 -6 4 C-6.33 3.01 -6.66 2.02 -7 1 C-4.53721199 -0.231394 -2.7204945 -0.07159196 0 0 Z " fill="currentColor" transform="translate(1364,675)"/>
<path d="M0 0 C0.99 0 1.98 0 3 0 C2.67 2.64 2.34 5.28 2 8 C0.35 8.33 -1.3 8.66 -3 9 C-2.01 6.03 -1.02 3.06 0 0 Z " fill="currentColor" transform="translate(396,627)"/>
<path d="M0 0 C0.66 0.33 1.32 0.66 2 1 C1.731875 1.495 1.46375 1.99 1.1875 2.5 C-0.15808262 5.33280551 -1.13857384 8.21968078 -2.12109375 11.1953125 C-3 13 -3 13 -6 15 C-4.36041242 9.76727367 -2.61047965 4.84803364 0 0 Z " fill="currentColor" transform="translate(1168,518)"/>
<path d="M0 0 C0.66 0 1.32 0 2 0 C2.99 2.97 3.98 5.94 5 9 C1 7 1 7 -0.25 3.875 C-0.4975 2.92625 -0.745 1.9775 -1 1 C-0.67 0.67 -0.34 0.34 0 0 Z " fill="currentColor" transform="translate(961,1152)"/>
<path d="M0 0 C3.42931954 3.7559214 4.56429083 8.23466745 6 13 C5.01 12.67 4.02 12.34 3 12 C2.12109375 10.22265625 2.12109375 10.22265625 1.4375 8.0625 C0.54093484 5.27149772 0.12225355 4.12225355 -2 2 C-1.34 2 -0.68 2 0 2 C0 1.34 0 0.68 0 0 Z " fill="currentColor" transform="translate(892,989)"/>
<path d="M0 0 C0.66 0 1.32 0 2 0 C1.46930939 3.82097239 0.50298434 6.06171403 -2 9 C-3.32 8.67 -4.64 8.34 -6 8 C-5.67 7.01 -5.34 6.02 -5 5 C-3.02 5.495 -3.02 5.495 -1 6 C-0.67 4.02 -0.34 2.04 0 0 Z " fill="currentColor" transform="translate(2500,663)"/>
<path d="M0 0 C0.66 0.33 1.32 0.66 2 1 C1.01 1.66 0.02 2.32 -1 3 C-1 4.32 -1 5.64 -1 7 C-1 7.66 -1 8.32 -1 9 C-2.875 9.625 -2.875 9.625 -5 10 C-5.66 9.34 -6.32 8.68 -7 8 C-6.01 7.01 -5.02 6.02 -4 5 C-4.33 4.34 -4.66 3.68 -5 3 C-2.625 1.4375 -2.625 1.4375 0 0 Z " fill="currentColor" transform="translate(1216,467)"/>
<path d="M0 0 C0.33 0.66 0.66 1.32 1 2 C-4.14285714 7.57142857 -4.14285714 7.57142857 -8 8 C-7.9375 5.6875 -7.9375 5.6875 -7 3 C-3.4375 1.1875 -3.4375 1.1875 0 0 Z " fill="currentColor" transform="translate(1790,277)"/>
<path d="M0 0 C1.68178661 2.52267991 2.90106742 4.81091823 4.125 7.5625 C4.47820313 8.34753906 4.83140625 9.13257813 5.1953125 9.94140625 C6 12 6 12 6 14 C5.34 14 4.68 14 4 14 C0.99778216 9.49667324 -0.31896025 5.42232421 0 0 Z " fill="currentColor" transform="translate(1000,1240)"/>
<path d="M0 0 C3 3.75 3 3.75 3 6 C2.01 6.33 1.02 6.66 0 7 C-1.69882448 9.49759982 -1.69882448 9.49759982 -3 12 C-4 10 -4 10 -3.22265625 7.6171875 C-2.83980469 6.71226563 -2.45695313 5.80734375 -2.0625 4.875 C-1.68222656 3.96492188 -1.30195313 3.05484375 -0.91015625 2.1171875 C-0.60980469 1.41851563 -0.30945313 0.71984375 0 0 Z " fill="currentColor" transform="translate(143,1216)"/>
<path d="M0 0 C2.96052484 3.36423277 3.92289822 6.69159287 5 11 C4.01 11 3.02 11 2 11 C1.47007308 9.54494642 0.9513211 8.08581873 0.4375 6.625 C0.14746094 5.81289062 -0.14257812 5.00078125 -0.44140625 4.1640625 C-1 2 -1 2 0 0 Z " fill="currentColor" transform="translate(948,1119)"/>
<path d="M0 0 C3.9492568 0.55105909 7.34920174 1.38935371 11 3 C9 5 9 5 6.375 5.125 C5.59125 5.08375 4.8075 5.0425 4 5 C4 4.34 4 3.68 4 3 C2.68 2.67 1.36 2.34 0 2 C0 1.34 0 0.68 0 0 Z " fill="currentColor" transform="translate(2285,1006)"/>
<path d="M0 0 C0.66 0 1.32 0 2 0 C0.63088196 3.1489715 -0.8752136 5.0478487 -3.5 7.25 C-4.41265625 8.03117188 -4.41265625 8.03117188 -5.34375 8.828125 C-7 10 -7 10 -9 10 C-9 9.34 -9 8.68 -9 8 C-8.34 8 -7.68 8 -7 8 C-6.773125 7.38125 -6.54625 6.7625 -6.3125 6.125 C-4.62070165 3.38589791 -3.00755839 2.94975528 0 2 C0 1.34 0 0.68 0 0 Z " fill="currentColor" transform="translate(2556,583)"/>
<path d="M0 0 C0.66 0 1.32 0 2 0 C1.01 3.3 0.02 6.6 -1 10 C-1.66 9.67 -2.32 9.34 -3 9 C-2.67 7.35 -2.34 5.7 -2 4 C-2.66 3.67 -3.32 3.34 -4 3 C-3.01 3 -2.02 3 -1 3 C-0.67 2.01 -0.34 1.02 0 0 Z " fill="currentColor" transform="translate(1986,1427)"/>
<path d="M0 0 C2.40072955 2.88087546 4.47291037 5.56404834 6 9 C4.02 8.34 2.04 7.68 0 7 C-1.125 2.25 -1.125 2.25 0 0 Z " fill="currentColor" transform="translate(2070,852)"/>
<path d="M0 0 C0.66 0 1.32 0 2 0 C1.77139942 1.46184058 1.51629608 2.91955419 1.25 4.375 C1.04117187 5.59316406 1.04117187 5.59316406 0.828125 6.8359375 C0 9 0 9 -2.078125 10.2890625 C-3.02945312 10.64097656 -3.02945312 10.64097656 -4 11 C-3.52269162 9.5410574 -3.04308958 8.08286504 -2.5625 6.625 C-2.29566406 5.81289063 -2.02882813 5.00078125 -1.75390625 4.1640625 C-1 2 -1 2 0 0 Z " fill="currentColor" transform="translate(333,774)"/>
<path d="M0 0 C0.66 0.33 1.32 0.66 2 1 C2 1.66 2 2.32 2 3 C3.65 3 5.3 3 7 3 C7 3.66 7 4.32 7 5 C7.99 5.33 8.98 5.66 10 6 C9.67 6.66 9.34 7.32 9 8 C5.7 6.35 2.4 4.7 -1 3 C-0.67 2.01 -0.34 1.02 0 0 Z " fill="currentColor" transform="translate(2332,554)"/>
<path d="M0 0 C2.97 0.495 2.97 0.495 6 1 C6 1.66 6 2.32 6 3 C6.99 3.33 7.98 3.66 9 4 C6.03 4 3.06 4 0 4 C-0.33 3.34 -0.66 2.68 -1 2 C-0.67 1.34 -0.34 0.68 0 0 Z " fill="currentColor" transform="translate(37,1462)"/>
<path d="M0 0 C0.66 0 1.32 0 2 0 C1.38545304 3.99455527 -0.70646737 6.74466336 -3 10 C-3.93065133 7.39417629 -4.14917407 6.35801776 -3.0625 3.75 C-2.711875 3.1725 -2.36125 2.595 -2 2 C-1.34 2 -0.68 2 0 2 C0 1.34 0 0.68 0 0 Z " fill="currentColor" transform="translate(2081,1237)"/>
<path d="M0 0 C2 2 2 2 2.125 5.625 C2.08375 6.73875 2.0425 7.8525 2 9 C0.35 9 -1.3 9 -3 9 C-2.01 6.03 -1.02 3.06 0 0 Z " fill="currentColor" transform="translate(150,1200)"/>
<path d="M0 0 C0.66 0 1.32 0 2 0 C1.34 2.97 0.68 5.94 0 9 C-0.66 9 -1.32 9 -2 9 C-2 9.66 -2 10.32 -2 11 C-2.66 11 -3.32 11 -4 11 C-3.52269162 9.5410574 -3.04308958 8.08286504 -2.5625 6.625 C-2.29566406 5.81289062 -2.02882812 5.00078125 -1.75390625 4.1640625 C-1 2 -1 2 0 0 Z " fill="currentColor" transform="translate(163,1170)"/>
<path d="M0 0 C3.77545388 1.09068668 6.47043472 1.9083091 9 5 C8.01 5.495 8.01 5.495 7 6 C4.8359375 5.22265625 4.8359375 5.22265625 2.375 4.0625 C1.55773438 3.68222656 0.74046875 3.30195312 -0.1015625 2.91015625 C-0.72804688 2.60980469 -1.35453125 2.30945312 -2 2 C-1.34 1.34 -0.68 0.68 0 0 Z " fill="currentColor" transform="translate(1641,1103)"/>
<path d="M0 0 C3 1 3 1 4.0625 3 C4.371875 3.66 4.68125 4.32 5 5 C5.66 5.33 6.32 5.66 7 6 C6.67 6.66 6.34 7.32 6 8 C5.01 8.33 4.02 8.66 3 9 C2.01 6.03 1.02 3.06 0 0 Z " fill="currentColor" transform="translate(672,1008)"/>
<path d="M0 0 C0.12375 0.639375 0.2475 1.27875 0.375 1.9375 C0.684375 2.9584375 0.684375 2.9584375 1 4 C1.66 4.33 2.32 4.66 3 5 C-1.75 9 -1.75 9 -4 9 C-2.80100302 5.9168649 -1.52299523 2.93720508 0 0 Z " fill="currentColor" transform="translate(1868,819)"/>
<path d="M0 0 C2.33333823 2.12121657 3.9148886 4.01594365 5 7 C4.625 9.25 4.625 9.25 4 11 C1.73030256 8.73030256 1.00868171 7.02604513 0 4 C0 2.68 0 1.36 0 0 Z " fill="currentColor" transform="translate(589,804)"/>
<path d="M0 0 C2.6855594 2.6855594 3.06049974 5.37621328 4 9 C3.34 9.66 2.68 10.32 2 11 C0.68 7.7 -0.64 4.4 -2 1 C-1.34 0.67 -0.68 0.34 0 0 Z " fill="currentColor" transform="translate(1989,685)"/>
<path d="M0 0 C-1.22527029 4.05281712 -2.69880494 7.44360764 -5 11 C-5.33 9.68 -5.66 8.36 -6 7 C-5.34 7 -4.68 7 -4 7 C-4 5.02 -4 3.04 -4 1 C-2 0 -2 0 0 0 Z " fill="currentColor" transform="translate(2003,430)"/>
<path d="M0 0 C1.32 0.33 2.64 0.66 4 1 C1.36 3.64 -1.28 6.28 -4 9 C-4 5.00095031 -2.27413033 3.19799578 0 0 Z " fill="currentColor" transform="translate(2453,329)"/>
<path d="M0 0 C0.66 0.99 1.32 1.98 2 3 C0.02 5.97 -1.96 8.94 -4 12 C-5 8 -5 8 -4 6 C-3.34 6 -2.68 6 -2 6 C-1.34 4.02 -0.68 2.04 0 0 Z " fill="currentColor" transform="translate(2075,1245)"/>
<path d="M0 0 C0.99 0.66 1.98 1.32 3 2 C-0.63 3.98 -4.26 5.96 -8 8 C-5.80682128 3.61364256 -4.08649371 2.48743095 0 0 Z " fill="currentColor" transform="translate(2173,1155)"/>
<path d="M0 0 C5.66153846 1.47692308 5.66153846 1.47692308 7.375 4.125 C7.58125 4.74375 7.7875 5.3625 8 6 C4.22454612 4.90931332 1.52956528 4.0916909 -1 1 C-0.67 0.67 -0.34 0.34 0 0 Z " fill="currentColor" transform="translate(1673,1117)"/>
<path d="M0 0 C2.50298434 2.93828597 3.46930939 5.17902761 4 9 C3.01 8.67 2.02 8.34 1 8 C1 7.34 1 6.68 1 6 C0.01 6 -0.98 6 -2 6 C-2 5.34 -2 4.68 -2 4 C-1.34 4 -0.68 4 0 4 C0 2.68 0 1.36 0 0 Z " fill="currentColor" transform="translate(1993,695)"/>
<path d="M0 0 C1.32 0.66 2.64 1.32 4 2 C3.34 3.98 2.68 5.96 2 8 C0.68 7.67 -0.64 7.34 -2 7 C-1.34 4.69 -0.68 2.38 0 0 Z " fill="currentColor" transform="translate(427,555)"/>
<path d="M0 0 C2 1 2 1 3.125 3.8125 C4 7 4 7 4 11 C1.35534962 7.8745041 0.15585285 4.91211733 -1 1 C-0.67 0.67 -0.34 0.34 0 0 Z " fill="currentColor" transform="translate(1912,421)"/>
<path d="M0 0 C0.66 0 1.32 0 2 0 C3.5078125 2.1875 3.5078125 2.1875 5.125 5 C5.66382812 5.928125 6.20265625 6.85625 6.7578125 7.8125 C7.37269531 8.8953125 7.37269531 8.8953125 8 10 C3.94276923 8.64758974 2.50914581 6.39073758 0 3 C0 2.01 0 1.02 0 0 Z " fill="currentColor" transform="translate(2525,413)"/>
<path d="M0 0 C2.52259061 1.97420135 2.9929808 2.96745642 3.6875 6.1875 C3.790625 7.115625 3.89375 8.04375 4 9 C3.01 9.495 3.01 9.495 2 10 C0.39644899 6.49223216 -0.22036864 3.85645121 0 0 Z " fill="currentColor" transform="translate(841,1420)"/>
<path d="M0 0 C0.66 0 1.32 0 2 0 C1.54917531 1.46067199 1.08906463 2.91848032 0.625 4.375 C0.36976562 5.18710938 0.11453125 5.99921875 -0.1484375 6.8359375 C-1 9 -1 9 -3 11 C-4 8 -4 8 -3.22265625 5.95703125 C-2.83980469 5.24933594 -2.45695312 4.54164062 -2.0625 3.8125 C-1.68222656 3.09707031 -1.30195312 2.38164063 -0.91015625 1.64453125 C-0.60980469 1.10183594 -0.30945312 0.55914063 0 0 Z " fill="currentColor" transform="translate(1992,1413)"/>
<path d="M0 0 C3.55780196 0.60990891 6.6828589 1.5783681 10 3 C9.67 3.66 9.34 4.32 9 5 C6.03 4.01 3.06 3.02 0 2 C0 1.34 0 0.68 0 0 Z " fill="currentColor" transform="translate(2303,1013)"/>
<path d="M0 0 C-0.99 0.66 -1.98 1.32 -3 2 C-5.03135683 3.63101643 -7.00931873 5.31898026 -9 7 C-9 6.34 -9 5.68 -9 5 C-9.66 4.67 -10.32 4.34 -11 4 C-9.73760288 3.13341385 -8.46472499 2.28207941 -7.1875 1.4375 C-6.47980469 0.96183594 -5.77210937 0.48617187 -5.04296875 -0.00390625 C-3 -1 -3 -1 0 0 Z " fill="currentColor" transform="translate(1757,946)"/>
<path d="M0 0 C0.66 0 1.32 0 2 0 C1.52269162 1.4589426 1.04308958 2.91713496 0.5625 4.375 C0.29566406 5.18710937 0.02882813 5.99921875 -0.24609375 6.8359375 C-1 9 -1 9 -2 11 C-2.66 11 -3.32 11 -4 11 C-3.52269162 9.5410574 -3.04308958 8.08286504 -2.5625 6.625 C-2.29566406 5.81289063 -2.02882813 5.00078125 -1.75390625 4.1640625 C-1 2 -1 2 0 0 Z " fill="currentColor" transform="translate(327,788)"/>
<path d="M0 0 C1.32 0.33 2.64 0.66 4 1 C4 1.66 4 2.32 4 3 C3.01 3 2.02 3 1 3 C0.34 4.65 -0.32 6.3 -1 8 C-1.66 8 -2.32 8 -3 8 C-1.125 2.25 -1.125 2.25 0 0 Z " fill="currentColor" transform="translate(1893,770)"/>
<path d="M0 0 C2.0625 1.75 2.0625 1.75 4 4 C3.75 6.25 3.75 6.25 3 8 C1.29115995 6.37660195 -0.37446717 4.70680947 -2 3 C-2 2.34 -2 1.68 -2 1 C-1.34 0.67 -0.68 0.34 0 0 Z " fill="currentColor" transform="translate(1189,656)"/>
<path d="M0 0 C0.66 0.33 1.32 0.66 2 1 C1.21625 1.9075 0.4325 2.815 -0.375 3.75 C-2.30052496 6.05190236 -3.82205741 8.21577207 -5 11 C-5.66 11 -6.32 11 -7 11 C-5.5140084 6.40693504 -3.14985318 3.56430755 0 0 Z " fill="currentColor" transform="translate(2285,499)"/>
<path d="M0 0 C-0.33 0.66 -0.66 1.32 -1 2 C-3.64860427 2.59355614 -6.29197322 2.74209269 -9 3 C-9.33 2.34 -9.66 1.68 -10 1 C-3.71428571 -1.42857143 -3.71428571 -1.42857143 0 0 Z " fill="currentColor" transform="translate(1250,455)"/>
<path d="M0 0 C0.66 0.99 1.32 1.98 2 3 C0.68 5.64 -0.64 8.28 -2 11 C-2.66 11 -3.32 11 -4 11 C-2.7874262 7.27566618 -1.49140021 3.62197194 0 0 Z " fill="currentColor" transform="translate(2443,346)"/>
<path d="M0 0 C5.75 0.75 5.75 0.75 8 3 C7.01 3.99 6.02 4.98 5 6 C4.67 5.34 4.34 4.68 4 4 C4.33 3.34 4.66 2.68 5 2 C3.35 2.66 1.7 3.32 0 4 C0 2.68 0 1.36 0 0 Z " fill="currentColor" transform="translate(2472,325)"/>
<path d="M0 0 C0.99 0.33 1.98 0.66 3 1 C2 4 2 4 -0.0625 5.1875 C-0.701875 5.455625 -1.34125 5.72375 -2 6 C-2.99 5.34 -3.98 4.68 -5 4 C-2.6875 1.9375 -2.6875 1.9375 0 0 Z " fill="currentColor" transform="translate(1869,232)"/>
<path d="M0 0 C0.66 0.33 1.32 0.66 2 1 C0.54744301 4.82946843 -1.42895561 6.12050295 -5 8 C-4.45773019 4.20411134 -2.79872437 2.52788007 0 0 Z " fill="currentColor" transform="translate(1976,1447)"/>
<path d="M0 0 C2.15377564 2.62198774 3.40072174 4.64404172 4 8 C3.01 8.495 3.01 8.495 2 9 C1.34 8.01 0.68 7.02 0 6 C-0.66 5.67 -1.32 5.34 -2 5 C-1.34 3.35 -0.68 1.7 0 0 Z " fill="currentColor" transform="translate(1068,1399)"/>
<path d="M0 0 C-2.77842595 2.77842595 -4.78366581 3.94471208 -8.75 4.125 C-9.4925 4.08375 -10.235 4.0425 -11 4 C-4.14893617 -1.38297872 -4.14893617 -1.38297872 0 0 Z " fill="currentColor" transform="translate(1695,980)"/>
<path d="M0 0 C0.66 0 1.32 0 2 0 C1.5205537 4.21912747 0.83374881 6.79663178 -2 10 C-2 6.09567131 -1.31626692 3.61973402 0 0 Z " fill="currentColor" transform="translate(498,907)"/>
<path d="M0 0 C0.66 0 1.32 0 2 0 C1.01 2.97 0.02 5.94 -1 9 C-1.66 7.68 -2.32 6.36 -3 5 C-1.75 2.25 -1.75 2.25 0 0 Z " fill="currentColor" transform="translate(516,864)"/>
<path d="M0 0 C0.66 0 1.32 0 2 0 C1.01 3.3 0.02 6.6 -1 10 C-1.66 8.68 -2.32 7.36 -3 6 C-1.625 2.75 -1.625 2.75 0 0 Z " fill="currentColor" transform="translate(522,849)"/>
<path d="M0 0 C2.0625 2.1875 2.0625 2.1875 4 5 C3.75 7.8125 3.75 7.8125 3 10 C0.3144406 7.3144406 -0.06049974 4.62378672 -1 1 C-0.67 0.67 -0.34 0.34 0 0 Z " fill="currentColor" transform="translate(582,785)"/>
<path d="M0 0 C-3.1254959 2.64465038 -6.08788267 3.84414715 -10 5 C-10 3 -10 3 -8.9375 1.375 C-6.03661182 -0.68369484 -3.45519943 -0.19557733 0 0 Z " fill="currentColor" transform="translate(1348,686)"/>
<path d="M0 0 C0.66 0.99 1.32 1.98 2 3 C0.35 5.97 -1.3 8.94 -3 12 C-4.21386936 8.35839192 -3.6674695 7.66834531 -2.0625 4.3125 C-1.49208984 3.10013672 -1.49208984 3.10013672 -0.91015625 1.86328125 C-0.60980469 1.24839844 -0.30945313 0.63351562 0 0 Z " fill="currentColor" transform="translate(391,639)"/>
<path d="M0 0 C1.32 0.33 2.64 0.66 4 1 C4.6875 2.8125 4.6875 2.8125 5 5 C3.5625 6.75 3.5625 6.75 2 8 C1.34 5.36 0.68 2.72 0 0 Z " fill="currentColor" transform="translate(2525,611)"/>
<path d="M0 0 C0.66 0 1.32 0 2 0 C2.99 2.97 3.98 5.94 5 9 C4.01 9.495 4.01 9.495 3 10 C0 3.375 0 3.375 0 0 Z " fill="currentColor" transform="translate(705,552)"/>
<path d="M0 0 C1.12377697 3.30435084 0.89554742 5.0506862 -0.4375 8.25 C-0.72496094 8.95640625 -1.01242187 9.6628125 -1.30859375 10.390625 C-1.53675781 10.92171875 -1.76492188 11.4528125 -2 12 C-2.66 11.67 -3.32 11.34 -4 11 C-3.52269162 9.5410574 -3.04308958 8.08286504 -2.5625 6.625 C-2.29566406 5.81289063 -2.02882813 5.00078125 -1.75390625 4.1640625 C-1 2 -1 2 0 0 Z " fill="currentColor" transform="translate(451,499)"/>
<path d="M0 0 C2.15377564 2.62198774 3.40072174 4.64404172 4 8 C2.68 8 1.36 8 0 8 C0 6.68 0 5.36 0 4 C-0.66 3.34 -1.32 2.68 -2 2 C-1.34 1.34 -0.68 0.68 0 0 Z " fill="currentColor" transform="translate(2494,353)"/>
<path d="M0 0 C0.99 0.33 1.98 0.66 3 1 C0.45543849 3.96865509 -2.48994665 5.3619751 -6 7 C-6 6.01 -6 5.02 -6 4 C-4.02 3.34 -2.04 2.68 0 2 C0 1.34 0 0.68 0 0 Z " fill="currentColor" transform="translate(2078,347)"/>
<path d="M0 0 C0.66 0.66 1.32 1.32 2 2 C1.875 4.5 1.875 4.5 1 7 C-0.98 7.99 -0.98 7.99 -3 9 C-2.01 6.03 -1.02 3.06 0 0 Z " fill="currentColor" transform="translate(100,1316)"/>
<path d="M0 0 C0.99 0 1.98 0 3 0 C1.25 5.75 1.25 5.75 -1 8 C-1.93065133 5.39417629 -2.14917407 4.35801776 -1.0625 1.75 C-0.711875 1.1725 -0.36125 0.595 0 0 Z " fill="currentColor" transform="translate(2039,1305)"/>
<path d="M0 0 C0.66 0 1.32 0 2 0 C2.99 2.31 3.98 4.62 5 7 C4.34 7.66 3.68 8.32 3 9 C0 3.375 0 3.375 0 0 Z " fill="currentColor" transform="translate(1870,1291)"/>
<path d="M0 0 C0.66 0 1.32 0 2 0 C2.99 2.97 3.98 5.94 5 9 C4.01 8.67 3.02 8.34 2 8 C0.5522078 5.10441559 0 3.25811062 0 0 Z " fill="currentColor" transform="translate(1008,1261)"/>
<path d="M0 0 C0.66 0.66 1.32 1.32 2 2 C0.37660195 3.70884005 -1.29319053 5.37446717 -3 7 C-3.66 7 -4.32 7 -5 7 C-5 6.01 -5 5.02 -5 4 C-4.34 4 -3.68 4 -3 4 C-3 3.34 -3 2.68 -3 2 C-2.01 1.34 -1.02 0.68 0 0 Z " fill="currentColor" transform="translate(2128,1187)"/>
<path d="M0 0 C1.99097846 2.98646769 2.94124926 5.59687262 4 9 C3.01 9.495 3.01 9.495 2 10 C-1.07692308 4.58461538 -1.07692308 4.58461538 -0.6875 1.625 C-0.460625 1.08875 -0.23375 0.5525 0 0 Z " fill="currentColor" transform="translate(828,838)"/>
<path d="M0 0 C2 3 2 3 1.625 5.6875 C1.41875 6.450625 1.2125 7.21375 1 8 C-0.32 8.33 -1.64 8.66 -3 9 C-2.01 6.03 -1.02 3.06 0 0 Z " fill="currentColor" transform="translate(1907,738)"/>
<path d="M0 0 C3.3 0.33 6.6 0.66 10 1 C9.67 1.66 9.34 2.32 9 3 C6.36 3 3.72 3 1 3 C0.67 2.01 0.34 1.02 0 0 Z " fill="currentColor" transform="translate(2463,707)"/>
<path d="M0 0 C1.98 0.495 1.98 0.495 4 1 C2.515 4.465 2.515 4.465 1 8 C-0.42944945 5.64561267 -1.08661261 4.51967567 -0.625 1.75 C-0.41875 1.1725 -0.2125 0.595 0 0 Z " fill="currentColor" transform="translate(2494,673)"/>
<path d="M0 0 C1.32 0 2.64 0 4 0 C2.63016497 3.16115776 2.0109362 3.9927092 -1 6 C-1.66 5.34 -2.32 4.68 -3 4 C-1.75 2 -1.75 2 0 0 Z " fill="currentColor" transform="translate(2540,596)"/>
<path d="M0 0 C2.25245881 2.68841859 3.88213958 4.64641875 5 8 C4.01 8 3.02 8 2 8 C0.25 6.25 0.25 6.25 -1 4 C-0.6875 1.75 -0.6875 1.75 0 0 Z " fill="currentColor" transform="translate(1395,507)"/>
<path d="M0 0 C0.99 0.33 1.98 0.66 3 1 C0.69 3.31 -1.62 5.62 -4 8 C-4.66 7.67 -5.32 7.34 -6 7 C-4.02 4.69 -2.04 2.38 0 0 Z " fill="currentColor" transform="translate(1199,479)"/>
<path d="M0 0 C0.99 0 1.98 0 3 0 C3 0.66 3 1.32 3 2 C2.34 2 1.68 2 1 2 C0.71125 2.639375 0.4225 3.27875 0.125 3.9375 C-1 6 -1 6 -3 7 C-3.33 6.01 -3.66 5.02 -4 4 C-3.34 4 -2.68 4 -2 4 C-1.34 2.68 -0.68 1.36 0 0 Z " fill="currentColor" transform="translate(2036,377)"/>
<path d="M0 0 C0.99 0 1.98 0 3 0 C2.01 2.97 1.02 5.94 0 9 C-0.66 8.01 -1.32 7.02 -2 6 C-1.125 2.8125 -1.125 2.8125 0 0 Z " fill="currentColor" transform="translate(299,1393)"/>
<path d="M0 0 C0.66 0 1.32 0 2 0 C1.39009109 3.55780196 0.4216319 6.6828589 -1 10 C-2.46726798 6.18510326 -1.43336419 3.70988378 0 0 Z " fill="currentColor" transform="translate(337,1303)"/>
<path d="M0 0 C0.66 0 1.32 0 2 0 C1.75 3.375 1.75 3.375 1 7 C-0.98 7.99 -0.98 7.99 -3 9 C-2.01 6.03 -1.02 3.06 0 0 Z " fill="currentColor" transform="translate(106,1302)"/>
<path d="M0 0 C1.0326802 2.78823655 1.04509293 3.8677274 0.0625 6.75 C-0.288125 7.4925 -0.63875 8.235 -1 9 C-1.66 8.34 -2.32 7.68 -3 7 C-2.61121812 3.98694043 -1.73543126 2.60314689 0 0 Z " fill="currentColor" transform="translate(352,1268)"/>
<path d="M0 0 C0.66 0 1.32 0 2 0 C1.45773019 3.79588866 -0.20127563 5.47211993 -3 8 C-3.33 7.34 -3.66 6.68 -4 6 C-2.7260411 3.96166576 -1.38938077 1.96147874 0 0 Z " fill="currentColor" transform="translate(2087,1229)"/>
<path d="M0 0 C0.66 1.32 1.32 2.64 2 4 C0.35 5.65 -1.3 7.3 -3 9 C-2.01 6.03 -1.02 3.06 0 0 Z " fill="currentColor" transform="translate(198,1088)"/>
<path d="M0 0 C2.625 0.9375 2.625 0.9375 5 2 C2.64046906 4.35953094 1.22104383 4.49141413 -2 5 C-2 3.68 -2 2.36 -2 1 C-1.34 0.67 -0.68 0.34 0 0 Z " fill="currentColor" transform="translate(2315,1086)"/>
<path d="M0 0 C0.66 0 1.32 0 2 0 C3.125 3.3125 3.125 3.3125 4 7 C3.01 8.485 3.01 8.485 2 10 C0.39644899 6.49223216 -0.22036864 3.85645121 0 0 Z " fill="currentColor" transform="translate(635,915)"/>
<path d="M0 0 C0.99 0.66 1.98 1.32 3 2 C1.68 4.31 0.36 6.62 -1 9 C-1.66 9 -2.32 9 -3 9 C-2.01 6.03 -1.02 3.06 0 0 Z " fill="currentColor" transform="translate(1928,688)"/>
<path d="M0 0 C0.66 0.33 1.32 0.66 2 1 C0.6875 4.4375 0.6875 4.4375 -1 8 C-1.99 8.33 -2.98 8.66 -4 9 C-2.94124926 5.59687262 -1.99097846 2.98646769 0 0 Z " fill="currentColor" transform="translate(1941,659)"/>
<path d="M0 0 C0.66 0 1.32 0 2 0 C2.99 2.97 3.98 5.94 5 9 C4.01 8.67 3.02 8.34 2 8 C0.5522078 5.10441559 0 3.25811062 0 0 Z " fill="currentColor" transform="translate(743,641)"/>
<path d="M0 0 C2.50298434 2.93828597 3.46930939 5.17902761 4 9 C3.34 9 2.68 9 2 9 C1.67 7.35 1.34 5.7 1 4 C0.34 4 -0.32 4 -1 4 C-0.67 2.68 -0.34 1.36 0 0 Z " fill="currentColor" transform="translate(694,524)"/>
<path d="M0 0 C4.24822374 0.47202486 6.19989709 2.96655518 9 6 C7.68 6 6.36 6 5 6 C5 5.34 5 4.68 5 4 C4.01 3.67 3.02 3.34 2 3 C2 2.34 2 1.68 2 1 C1.34 0.67 0.68 0.34 0 0 Z " fill="currentColor" transform="translate(1358,471)"/>
<path d="M0 0 C2.1875 0.3125 2.1875 0.3125 4 1 C3.34 2.32 2.68 3.64 2 5 C-0.475 4.01 -0.475 4.01 -3 3 C-1.75 1.4375 -1.75 1.4375 0 0 Z " fill="currentColor" transform="translate(1829,340)"/>
<path d="M0 0 C0.66 0 1.32 0 2 0 C2 0.66 2 1.32 2 2 C1.34 2 0.68 2 0 2 C0 1.34 0 0.68 0 0 Z M-3 1 C-2.01 1.33 -1.02 1.66 0 2 C0 2.66 0 3.32 0 4 C-0.66 4 -1.32 4 -2 4 C-2 4.66 -2 5.32 -2 6 C-2.99 6.33 -3.98 6.66 -5 7 C-4.34 5.02 -3.68 3.04 -3 1 Z " fill="currentColor" transform="translate(129,1255)"/>
<path d="M0 0 C1.99097846 2.98646769 2.94124926 5.59687262 4 9 C3.01 9.495 3.01 9.495 2 10 C1.46987262 8.71211992 0.9511671 7.41953322 0.4375 6.125 C0.14746094 5.40570312 -0.14257812 4.68640625 -0.44140625 3.9453125 C-1 2 -1 2 0 0 Z " fill="currentColor" transform="translate(944,1109)"/>
<path d="M0 0 C0.99 0 1.98 0 3 0 C2.01 2.97 1.02 5.94 0 9 C-0.66 8.01 -1.32 7.02 -2 6 C-1.125 2.8125 -1.125 2.8125 0 0 Z " fill="currentColor" transform="translate(455,1011)"/>
<path d="M0 0 C2 4 2 4 1.3125 6.1875 C0 8 0 8 -3 9 C-2.01 6.03 -1.02 3.06 0 0 Z " fill="currentColor" transform="translate(238,995)"/>
<path d="M0 0 C2.91517292 1.07401108 4.77810176 1.77810176 7 4 C5.68 4.33 4.36 4.66 3 5 C3 4.34 3 3.68 3 3 C2.01 3 1.02 3 0 3 C0 2.01 0 1.02 0 0 Z " fill="currentColor" transform="translate(2165,946)"/>
<path d="M0 0 C1.9451 2.91765 2.45276317 4.62537285 3 8 C2.34 8 1.68 8 1 8 C0.01 6.02 -0.98 4.04 -2 2 C-1.34 2 -0.68 2 0 2 C0 1.34 0 0.68 0 0 Z " fill="currentColor" transform="translate(852,894)"/>
<path d="M0 0 C1.5625 1.75 1.5625 1.75 3 4 C2.6875 6.25 2.6875 6.25 2 8 C0.4375 6.25 0.4375 6.25 -1 4 C-0.6875 1.75 -0.6875 1.75 0 0 Z " fill="currentColor" transform="translate(817,813)"/>
<path d="M0 0 C0.66 0.66 1.32 1.32 2 2 C1.625 4.125 1.625 4.125 1 6 C-0.32 5.67 -1.64 5.34 -3 5 C-2.625 3.0625 -2.625 3.0625 -2 1 C-1.34 0.67 -0.68 0.34 0 0 Z " fill="currentColor" transform="translate(377,675)"/>
<path d="M0 0 C0.33 1.32 0.66 2.64 1 4 C-0.65 4.66 -2.3 5.32 -4 6 C-4.33 4.68 -4.66 3.36 -5 2 C-2 0 -2 0 0 0 Z " fill="currentColor" transform="translate(2636,537)"/>
<path d="M0 0 C0.99 0 1.98 0 3 0 C3 0.99 3 1.98 3 3 C3.66 3.33 4.32 3.66 5 4 C4.01 4.33 3.02 4.66 2 5 C-0.1875 3.5625 -0.1875 3.5625 -2 2 C-1.34 1.34 -0.68 0.68 0 0 Z " fill="currentColor" transform="translate(1822,337)"/>
<path d="M0 0 C-0.66 2.31 -1.32 4.62 -2 7 C-4 4 -4 4 -4 1 C-2 0 -2 0 0 0 Z " fill="currentColor" transform="translate(346,1287)"/>
<path d="M0 0 C-1.13719419 3.41158256 -2.04342944 4.11854601 -5 6 C-5.66 6 -6.32 6 -7 6 C-5.52522876 2.59668175 -4.14385429 0 0 0 Z " fill="currentColor" transform="translate(2146,1175)"/>
<path d="M0 0 C2 4 2 4 1.3125 6.1875 C0 8 0 8 -3 9 C-2.01 6.03 -1.02 3.06 0 0 Z " fill="currentColor" transform="translate(171,1151)"/>
<path d="M0 0 C0.33 0.66 0.66 1.32 1 2 C0.06553465 4.03144641 -0.93224776 6.03533587 -2 8 C-2.66 8 -3.32 8 -4 8 C-3.40138258 5.64828869 -2.73075648 3.3140622 -2 1 C-1.34 0.67 -0.68 0.34 0 0 Z " fill="currentColor" transform="translate(181,1131)"/>
<path d="M0 0 C0.66 0.33 1.32 0.66 2 1 C0.875 2.5 0.875 2.5 -1 4 C-4.1875 4.1875 -4.1875 4.1875 -7 4 C-4.61426621 2.10786631 -2.92824652 0.97608217 0 0 Z " fill="currentColor" transform="translate(1676,987)"/>
<path d="M0 0 C1.99097846 2.98646769 2.94124926 5.59687262 4 9 C3.01 9.495 3.01 9.495 2 10 C0.39644899 6.49223216 -0.22036864 3.85645121 0 0 Z " fill="currentColor" transform="translate(888,979)"/>
<path d="M0 0 C0.66 0 1.32 0 2 0 C3.42944945 2.35438733 4.08661261 3.48032433 3.625 6.25 C3.41875 6.8275 3.2125 7.405 3 8 C1.0549 5.08235 0.54723683 3.37462715 0 0 Z " fill="currentColor" transform="translate(657,971)"/>
<path d="M0 0 C2.5654594 2.5654594 2.54046087 4.47686668 3 8 C2.01 8.495 2.01 8.495 1 9 C-1.125 2.25 -1.125 2.25 0 0 Z " fill="currentColor" transform="translate(616,867)"/>
<path d="M0 0 C0.33 0 0.66 0 1 0 C1.33 2.31 1.66 4.62 2 7 C0.68 7 -0.64 7 -2 7 C-1.34 4.69 -0.68 2.38 0 0 Z " fill="currentColor" transform="translate(308,832)"/>
<path d="M0 0 C0.66 0.33 1.32 0.66 2 1 C1.5359375 2.1446875 1.5359375 2.1446875 1.0625 3.3125 C0.32106407 5.18789677 -0.36228217 7.08684652 -1 9 C-1.66 9 -2.32 9 -3 9 C-2.01 6.03 -1.02 3.06 0 0 Z " fill="currentColor" transform="translate(370,688)"/>
<path d="M0 0 C0.33 0.99 0.66 1.98 1 3 C-0.32 4.32 -1.64 5.64 -3 7 C-3 6.34 -3 5.68 -3 5 C-3.99 5.33 -4.98 5.66 -6 6 C-6 5.34 -6 4.68 -6 4 C-4.35 3.67 -2.7 3.34 -1 3 C-0.67 2.01 -0.34 1.02 0 0 Z " fill="currentColor" transform="translate(2537,602)"/>
<path d="M0 0 C0.66 0.33 1.32 0.66 2 1 C1.1875 3.9375 1.1875 3.9375 0 7 C-0.99 7.33 -1.98 7.66 -3 8 C-1.125 2.25 -1.125 2.25 0 0 Z " fill="currentColor" transform="translate(410,595)"/>
<path d="M0 0 C0.66 0.33 1.32 0.66 2 1 C1.3125 3.4375 1.3125 3.4375 0 6 C-2.625 6.8125 -2.625 6.8125 -5 7 C-3.35 4.69 -1.7 2.38 0 0 Z " fill="currentColor" transform="translate(1183,495)"/>
<path d="M0 0 C1.98 0.99 1.98 0.99 4 2 C4 2.99 4 3.98 4 5 C2.68 5 1.36 5 0 5 C0 3.35 0 1.7 0 0 Z " fill="currentColor" transform="translate(2537,430)"/>
<path d="M0 0 C0.33 0.99 0.66 1.98 1 3 C-0.65 4.65 -2.3 6.3 -4 8 C-4.33 7.01 -4.66 6.02 -5 5 C-4.34 5 -3.68 5 -3 5 C-3 4.34 -3 3.68 -3 3 C-2.34 3 -1.68 3 -1 3 C-0.67 2.01 -0.34 1.02 0 0 Z " fill="currentColor" transform="translate(2026,390)"/>
</svg>
