<?xml version="1.0" encoding="UTF-8"?>
<svg version="1.1" xmlns="http://www.w3.org/2000/svg" viewBox="0 0 531 143">
<path d="M0 0 C13.53 0 27.06 0 41 0 C45.36285963 13.4733901 49.63454047 26.96094865 53.68359375 40.53125 C53.87854053 41.18430115 54.07348732 41.83735229 54.27434158 42.51019287 C55.87162923 47.86381598 57.46337797 53.21908212 59.05352783 58.5748291 C60.25859151 62.63330422 61.46612204 66.69102693 62.67735481 70.74766541 C63.23659205 72.62436403 63.79208821 74.50217615 64.34751892 76.38000488 C64.68199539 77.50048218 65.01647186 78.62095947 65.36108398 79.77539062 C65.6545018 80.76365845 65.94791962 81.75192627 66.25022888 82.7701416 C66.79787109 84.9461621 66.79787109 84.9461621 68 86 C68.36125977 84.78046631 68.72251953 83.56093262 69.09472656 82.30444336 C77.24057504 54.81970578 85.52597419 27.3855712 94 0 C107.53 0 121.06 0 135 0 C135 41.91 135 83.82 135 127 C125.43 127 115.86 127 106 127 C105.67 100.93 105.34 74.86 105 48 C103.68 52.95 102.36 57.9 101 63 C99.61143964 67.29102935 98.19630749 71.55004691 96.70703125 75.8046875 C96.31553391 76.93528595 95.92403656 78.0658844 95.52067566 79.23074341 C94.7039096 81.58586525 93.88458447 83.9401011 93.06274414 86.29345703 C91.79906503 89.91348682 90.54446957 93.53657474 89.29101562 97.16015625 C88.49271137 99.45851536 87.69390223 101.75669918 86.89453125 104.0546875 C86.51851273 105.13990692 86.1424942 106.22512634 85.75508118 107.3432312 C85.23400032 108.83211349 85.23400032 108.83211349 84.70239258 110.35107422 C84.39690994 111.22738495 84.09142731 112.10369568 83.77668762 113.00656128 C83 115 83 115 82 116 C79.85441173 116.08775605 77.70595579 116.10695219 75.55859375 116.09765625 C74.25341797 116.09443359 72.94824219 116.09121094 71.60351562 116.08789062 C70.2148431 116.07953401 68.82617123 116.07106905 67.4375 116.0625 C66.04492344 116.05748666 64.65234519 116.05292347 63.25976562 116.04882812 C59.8398013 116.03699434 56.41992156 116.0205088 53 116 C50.10615821 108.94322601 47.46572409 101.82439371 44.9609375 94.62109375 C44.41054306 93.04292625 44.41054306 93.04292625 43.84902954 91.43287659 C43.07974758 89.22399518 42.31172865 87.01467352 41.54492188 84.80493164 C40.37643614 81.4416337 39.20009649 78.08114896 38.0234375 74.72070312 C37.27295492 72.56266776 36.52293905 70.40447003 35.7734375 68.24609375 C35.24996231 66.75510414 35.24996231 66.75510414 34.71591187 65.23399353 C34.38862091 64.28593338 34.06132996 63.33787323 33.72412109 62.36108398 C33.43862396 61.5407518 33.15312683 60.72041962 32.85897827 59.87522888 C31.69350821 55.97409039 30.88323475 51.97455637 30 48 C29.67 74.07 29.34 100.14 29 127 C19.43 127 9.86 127 0 127 C0 85.09 0 43.18 0 0 Z M106 39 C107 41 107 41 107 41 Z " fill="#FFFFFF" transform="translate(249,8)"/>
<path d="M0 0 C7.60940926 -0.084237 15.21709774 -0.16433039 22.8265686 -0.20700073 C26.37123883 -0.2279912 29.91551697 -0.25596716 33.45996094 -0.30175781 C37.54105088 -0.35414236 41.62173548 -0.37305571 45.703125 -0.390625 C47.578862 -0.42159271 47.578862 -0.42159271 49.49249268 -0.45318604 C60.6204237 -0.45598692 70.39356554 1.68062906 79.03125 9.01953125 C86.58830553 16.62156925 90.31987497 25.72420136 90.46826172 36.39550781 C90.45811035 37.23436523 90.44795898 38.07322266 90.4375 38.9375 C90.42992676 39.81631836 90.42235352 40.69513672 90.41455078 41.60058594 C90.24988738 48.07414129 89.45409941 53.40457416 86 59 C85.57589844 59.7115625 85.15179688 60.423125 84.71484375 61.15625 C80.07158602 68.08880193 73.65376676 72.00501336 66 75 C66.3810791 75.63164063 66.7621582 76.26328125 67.15478516 76.9140625 C71.78752208 84.59884153 76.40122837 92.29486242 81 100 C81.34613342 100.57955444 81.69226685 101.15910889 82.04888916 101.75622559 C84.3565629 105.62243257 86.65001684 109.49681975 88.9375 113.375 C89.54609863 114.3959375 90.15469727 115.416875 90.78173828 116.46875 C91.33716309 117.41492188 91.89258789 118.36109375 92.46484375 119.3359375 C92.955896 120.16657715 93.44694824 120.9972168 93.95288086 121.85302734 C95 124 95 124 95 127 C90.5529579 127.24828873 86.10963106 127.42909832 81.65771484 127.54931641 C80.14593236 127.59943968 78.63463087 127.66756841 77.12451172 127.75439453 C64.69096237 128.45106671 64.69096237 128.45106671 60.8815918 125.18212891 C59.26657141 122.52981901 58.14471894 119.88568469 57 117 C55.88738974 114.9076931 54.75220175 112.82727485 53.59765625 110.7578125 C52.41682633 108.54817961 51.23847099 106.33722265 50.0625 104.125 C45.96887076 96.42734501 41.78456516 88.82710893 37.28295898 81.35888672 C36 79 36 79 36 77 C33.69 77 31.38 77 29 77 C29 93.5 29 110 29 127 C19.43 127 9.86 127 0 127 C-0.0225528 117.89040511 -0.04091611 108.78082863 -0.05181217 99.6712122 C-0.05704056 95.44168629 -0.0641374 91.2121804 -0.07543945 86.98266602 C-0.08626991 82.90431457 -0.09227717 78.82598243 -0.09487724 74.74761772 C-0.09673121 73.18822361 -0.10035127 71.6288306 -0.10573006 70.06944466 C-0.11294262 67.89270838 -0.11399085 65.71605286 -0.11352539 63.53930664 C-0.115746 62.29798477 -0.11796661 61.0566629 -0.12025452 59.77772522 C0 57 0 57 1 56 C2.38980284 55.90377844 3.78436072 55.87484578 5.17749023 55.87402344 C6.06609238 55.87021667 6.95469452 55.86640991 7.870224 55.86248779 C8.83988602 55.86146057 9.80954803 55.86043335 10.80859375 55.859375 C12.85613076 55.84102992 14.90365708 55.82145807 16.95117188 55.80078125 C20.18336767 55.77193764 23.41488443 55.75000344 26.6472168 55.74951172 C29.76412374 55.74615221 32.87946173 55.71143303 35.99609375 55.671875 C36.94753769 55.6789447 37.89898163 55.6860144 38.8792572 55.69329834 C45.60739588 55.57285282 51.59221431 54.22231202 57 50 C60.11070289 43.81812605 59.59635089 37.09018187 58.3125 30.4375 C57.19995528 27.84636747 57.19995528 27.84636747 54.75 26.75 C53.8425 26.5025 52.935 26.255 52 26 C51.13632813 25.66742188 50.27265625 25.33484375 49.3828125 24.9921875 C45.25449222 23.78134067 41.40159551 23.5495718 37.125 23.375 C34.44375 23.25125 31.7625 23.1275 29 23 C29 31.91 29 40.82 29 50 C19.43 50 9.86 50 0 50 C0 33.5 0 17 0 0 Z " fill="#FEFEFE" transform="translate(103,8)"/>
<path d="M0 0 C0.84691406 0.13148437 1.69382812 0.26296875 2.56640625 0.3984375 C10.84405631 3.9347397 17.49740049 12.51092941 23.7734375 18.7578125 C24.24903736 19.23058498 24.72463722 19.70335747 25.2146492 20.19045639 C27.72243151 22.68338377 30.22743271 25.17906434 32.72998047 27.67724609 C35.30550061 30.24724332 37.89020286 32.80779894 40.47707176 35.36636543 C42.47755577 37.34821697 44.47129165 39.33675343 46.46324539 41.32717514 C47.87329215 42.73274695 49.29039391 44.13122986 50.70761108 45.52957153 C51.99002182 46.81648392 51.99002182 46.81648392 53.29833984 48.12939453 C54.05142426 48.87883331 54.80450867 49.62827209 55.58041382 50.40042114 C59.75841225 55.40518994 59.87710641 60.3988921 59.74609375 66.6875 C58.92162659 74.5355925 54.49240444 77.43508191 48.4375 82.625 C31.6075 65.795 14.7775 48.965 -2.5625 31.625 C-5.79637334 33.24193667 -7.28252588 34.09695593 -9.67871094 36.51416016 C-10.54916046 37.38483627 -10.54916046 37.38483627 -11.43719482 38.27310181 C-12.05088928 38.89711884 -12.66458374 39.52113586 -13.296875 40.1640625 C-13.93490051 40.80491791 -14.57292603 41.44577332 -15.23028564 42.10604858 C-17.26244069 44.14937821 -19.28752218 46.19955982 -21.3125 48.25 C-22.6909453 49.6384786 -24.06984636 51.0265049 -25.44921875 52.4140625 C-28.82561894 55.81248697 -32.19569288 59.21707254 -35.5625 62.625 C-34.26530076 65.48279017 -32.8988174 67.53508536 -30.67333984 69.74121094 C-30.0928891 70.32151062 -29.51243835 70.9018103 -28.91439819 71.49969482 C-28.29038116 72.11338928 -27.66636414 72.72708374 -27.0234375 73.359375 C-26.38258209 73.99740051 -25.74172668 74.63542603 -25.08145142 75.29278564 C-23.03812179 77.32494069 -20.98794018 79.35002218 -18.9375 81.375 C-17.5490214 82.7534453 -16.1609951 84.13234636 -14.7734375 85.51171875 C-11.37501303 88.88811894 -7.97042746 92.25819288 -4.5625 95.625 C-0.46141114 94.00343976 2.26898167 91.0482297 5.296875 87.9609375 C5.84611633 87.40886627 6.39535767 86.85679504 6.96124268 86.28799438 C8.70809293 84.52998185 10.44784601 82.7651311 12.1875 81 C13.37323591 79.8042292 14.5594288 78.60891135 15.74609375 77.4140625 C18.64855085 74.48959747 21.5446641 71.55898126 24.4375 68.625 C27.6961636 70.0514578 29.8399854 71.79204162 32.328125 74.3203125 C33.03710938 75.03574219 33.74609375 75.75117187 34.4765625 76.48828125 C35.20617187 77.23464844 35.93578125 77.98101562 36.6875 78.75 C37.43257813 79.50410156 38.17765625 80.25820312 38.9453125 81.03515625 C40.7806342 82.89400772 42.6111191 84.75737005 44.4375 86.625 C40.30558527 91.54147541 36.02426726 96.2096512 31.5 100.765625 C30.53525757 101.73891754 30.53525757 101.73891754 29.55102539 102.73187256 C28.20109401 104.09118188 26.84975666 105.44909626 25.49707031 106.80566406 C23.43610136 108.87640527 21.38604803 110.95757773 19.3359375 113.0390625 C18.01628499 114.36524041 16.69599417 115.69078351 15.375 117.015625 C14.76857666 117.63439514 14.16215332 118.25316528 13.53735352 118.89068604 C8.46145764 123.94035398 3.89748242 127.05277926 -3.5 127.0625 C-4.47839844 127.08183594 -5.45679688 127.10117188 -6.46484375 127.12109375 C-15.46090687 125.68036233 -21.47393557 118.22093686 -27.640625 112.0859375 C-28.69946661 111.03929855 -29.75844941 109.99280242 -30.81756592 108.94644165 C-33.02840035 106.75799547 -35.23277094 104.56325762 -37.43359375 102.36474609 C-40.23993262 99.56369109 -43.06859227 96.78640715 -45.90352249 94.01433372 C-48.09637785 91.86254692 -50.27305585 89.69492768 -52.4457016 87.52275467 C-53.48131852 86.49248511 -54.52261568 85.46788977 -55.56986237 84.44944382 C-61.57459975 78.59629628 -66.61859165 73.30944298 -67.5625 64.625 C-67.4870727 59.11464591 -66.31970639 55.0597471 -62.58544922 50.96411133 C-61.95701111 50.27370758 -61.328573 49.58330383 -60.68109131 48.87197876 C-53.81778637 41.5927549 -46.77578498 34.48924455 -39.72998047 27.38745117 C-37.69693074 25.33652614 -35.6727658 23.27739858 -33.65576172 21.21069336 C-31.19719147 18.69167162 -28.7239703 16.18793685 -26.23983383 13.69413185 C-24.85360419 12.29531279 -23.48214991 10.88190015 -22.1111145 9.46818542 C-15.79025118 3.1677704 -9.36418794 -1.74416936 0 0 Z " fill="#FEFEFE" transform="translate(463.5625,8.375)"/>
<path d="M0 0 C67.62470588 0 67.62470588 0 79.8125 11.1875 C87.01062127 19.04771261 89.92857088 28.68744401 90.03125 39.19921875 C89.48200616 50.80199497 86.26083412 60.62465926 78 69 C67.95485582 77.50704081 55.97584249 80.20407708 43.125 80.0625 C42.34125 80.05798828 41.5575 80.05347656 40.75 80.04882812 C38.83329986 80.03714093 36.91663952 80.01920908 35 80 C34.97112764 76.18751574 34.95324508 72.3750593 34.9375 68.5625 C34.92912109 67.47388672 34.92074219 66.38527344 34.91210938 65.26367188 C34.90888672 64.22919922 34.90566406 63.19472656 34.90234375 62.12890625 C34.89710693 61.17056885 34.89187012 60.21223145 34.88647461 59.22485352 C35 57 35 57 36 56 C39.22719895 55.49859903 42.46229479 55.09858323 45.703125 54.6953125 C50.27778898 53.7305137 53.06083618 52.29539837 55.8125 48.5 C57.90834259 42.32277974 58.14391074 36.46380775 55.375 30.5 C47.99192779 22.72834504 39.87903681 24.20878187 29 23 C29 57.32 29 91.64 29 127 C19.43 127 9.86 127 0 127 C0 85.09 0 43.18 0 0 Z " fill="#FEFEFE" transform="translate(8,8)"/>
<path d="M0 0 C9.57 0 19.14 0 29 0 C29 41.91 29 83.82 29 127 C19.43 127 9.86 127 0 127 C0 85.09 0 43.18 0 0 Z " fill="#FFFFFF" transform="translate(208,8)"/>
</svg>
