<svg width="16" height="16" viewBox="0 0 16 16" fill="none" xmlns="http://www.w3.org/2000/svg">
<path d="M2.69003 3.12382C2.66373 3.06312 2.65629 2.99593 2.66867 2.93095C2.68105 2.86597 2.71268 2.80622 2.75945 2.75945C2.80622 2.71268 2.86597 2.68105 2.93095 2.66867C2.99593 2.65629 3.06312 2.66373 3.12382 2.69003L13.7852 7.02121C13.85 7.04762 13.9049 7.09378 13.942 7.15313C13.9791 7.21248 13.9965 7.28202 13.9919 7.35186C13.9872 7.42171 13.9607 7.48832 13.9161 7.54223C13.8714 7.59615 13.8109 7.63463 13.7432 7.65222L9.66256 8.70503C9.432 8.76431 9.22152 8.88425 9.05302 9.05241C8.88451 9.22057 8.76412 9.43079 8.70437 9.66122L7.65222 13.7432C7.63463 13.8109 7.59615 13.8714 7.54223 13.9161C7.48832 13.9607 7.42171 13.9872 7.35186 13.9919C7.28202 13.9965 7.21248 13.9791 7.15313 13.942C7.09378 13.9049 7.04762 13.85 7.02121 13.7852L2.69003 3.12382Z" stroke="#717680" stroke-width="1.33267" stroke-linecap="round" stroke-linejoin="round"/>
</svg>
