<svg width="16" height="15" viewBox="0 0 16 15" fill="none" xmlns="http://www.w3.org/2000/svg">
<g clip-path="url(#clip0_1747_12041)">
<path d="M9.2267 6.48028C9.2267 6.85915 9.07686 7.22252 8.81014 7.49043C8.54342 7.75834 8.18168 7.90885 7.80448 7.90885C7.42729 7.90885 7.06554 7.75834 6.79882 7.49043C6.5321 7.22252 6.38226 6.85915 6.38226 6.48028C6.38226 5.72252 6.68194 4.99579 7.21537 4.45997C7.74881 3.92416 8.47231 3.62313 9.2267 3.62313C9.9811 3.62313 10.7046 3.92416 11.238 4.45997C11.7714 4.99579 12.0711 5.72252 12.0711 6.48028C12.0711 7.61692 11.6217 8.707 10.8214 9.51074C10.0213 10.3145 8.93606 10.766 7.80448 10.766C6.67289 10.766 5.58765 10.3145 4.78749 9.51074C3.98734 8.707 3.53781 7.61692 3.53781 6.48028C3.53781 4.96475 4.13717 3.5113 5.20405 2.43967C6.27092 1.36803 7.71791 0.765991 9.2267 0.765991C10.7355 0.765991 12.1825 1.36803 13.2494 2.43967C14.3163 3.5113 14.9156 4.96475 14.9156 6.48028C14.9156 8.37468 14.1664 10.1915 12.8327 11.531C11.4992 12.8706 9.69046 13.6232 7.80448 13.6232C5.9185 13.6232 4.10976 12.8706 2.77616 11.531C1.44257 10.1915 0.693368 8.37468 0.693368 6.48028C0.690747 4.61856 1.29518 2.8072 2.41426 1.32314C2.52322 1.16173 2.66393 1.02443 2.82771 0.919708C2.9915 0.81499 3.1749 0.745065 3.36661 0.714243C3.55833 0.683422 3.75429 0.692354 3.94244 0.740491C4.13059 0.788627 4.30693 0.874949 4.4606 0.994138C4.61427 1.11333 4.74203 1.26286 4.83599 1.43353C4.92994 1.60418 4.98812 1.79237 5.00692 1.98647C5.02574 2.18057 5.00478 2.37648 4.94534 2.56215C4.88592 2.7478 4.78927 2.91928 4.66137 3.06599" stroke="#717680" stroke-width="1.3" stroke-linecap="round" stroke-linejoin="round"/>
</g>
<defs>
<clipPath id="clip0_1747_12041">
<rect width="16" height="15" fill="white"/>
</clipPath>
</defs>
</svg>
