<svg width="16" height="16" viewBox="0 0 16 16" fill="none" xmlns="http://www.w3.org/2000/svg">
<g clip-path="url(#clip0_1711_11444)">
<path d="M8.54906 1.45264C8.37544 1.37344 8.18683 1.33246 7.996 1.33246C7.80517 1.33246 7.61657 1.37344 7.44295 1.45264L1.73246 4.05134C1.61422 4.10348 1.51369 4.18887 1.44311 4.29712C1.37254 4.40537 1.33496 4.53181 1.33496 4.66104C1.33496 4.79026 1.37254 4.9167 1.44311 5.02495C1.51369 5.1332 1.61422 5.2186 1.73246 5.27073L7.44961 7.8761C7.62323 7.95529 7.81184 7.99628 8.00267 7.99628C8.1935 7.99628 8.3821 7.95529 8.55572 7.8761L14.2729 5.2774C14.3911 5.22526 14.4916 5.13987 14.5622 5.03161C14.6328 4.92336 14.6704 4.79693 14.6704 4.6677C14.6704 4.53847 14.6328 4.41204 14.5622 4.30379C14.4916 4.19553 14.3911 4.11014 14.2729 4.058L8.54906 1.45264Z" stroke="#717680" stroke-width="1.33267" stroke-linecap="round" stroke-linejoin="round"/>
<path d="M1.33277 7.99603C1.33245 8.12348 1.36869 8.24835 1.43719 8.35582C1.50569 8.46329 1.60358 8.54887 1.71924 8.6024L7.44972 11.2078C7.62243 11.286 7.80985 11.3264 7.99944 11.3264C8.18904 11.3264 8.37645 11.286 8.54917 11.2078L14.2663 8.60906C14.3843 8.55605 14.4842 8.46986 14.554 8.36101C14.6239 8.25215 14.6605 8.12534 14.6595 7.99603" stroke="#717680" stroke-width="1.33267" stroke-linecap="round" stroke-linejoin="round"/>
<path d="M1.33277 11.3277C1.33245 11.4551 1.36869 11.58 1.43719 11.6875C1.50569 11.795 1.60358 11.8805 1.71924 11.9341L7.44972 14.5394C7.62243 14.6176 7.80985 14.6581 7.99944 14.6581C8.18904 14.6581 8.37645 14.6176 8.54917 14.5394L14.2663 11.9407C14.3843 11.8877 14.4842 11.8015 14.554 11.6927C14.6239 11.5838 14.6605 11.457 14.6595 11.3277" stroke="#717680" stroke-width="1.33267" stroke-linecap="round" stroke-linejoin="round"/>
</g>
<defs>
<clipPath id="clip0_1711_11444">
<rect width="15.992" height="15.992" fill="white"/>
</clipPath>
</defs>
</svg>
